%TF.GenerationSoftware,KiCad,Pcbnew,6.0.7-1.fc36*%
%TF.CreationDate,2022-07-28T17:35:04+01:00*%
%TF.ProjectId,pc070_aida_hdmi_rpc_hdmi,70633037-305f-4616-9964-615f68646d69,rev?*%
%TF.SameCoordinates,Original*%
%TF.FileFunction,Copper,L1,Top*%
%TF.FilePolarity,Positive*%
%FSLAX46Y46*%
G04 Gerber Fmt 4.6, Leading zero omitted, Abs format (unit mm)*
G04 Created by KiCad (PCBNEW 6.0.7-1.fc36) date 2022-07-28 17:35:04*
%MOMM*%
%LPD*%
G01*
G04 APERTURE LIST*
%TA.AperFunction,SMDPad,CuDef*%
%ADD10R,2.350000X0.280000*%
%TD*%
%TA.AperFunction,ComponentPad*%
%ADD11O,3.200000X1.600000*%
%TD*%
%TA.AperFunction,ComponentPad*%
%ADD12O,2.820000X1.410000*%
%TD*%
%TA.AperFunction,ComponentPad*%
%ADD13C,3.600000*%
%TD*%
%TA.AperFunction,ConnectorPad*%
%ADD14C,5.600000*%
%TD*%
%TA.AperFunction,ViaPad*%
%ADD15C,0.800000*%
%TD*%
%TA.AperFunction,Conductor*%
%ADD16C,0.250000*%
%TD*%
G04 APERTURE END LIST*
D10*
%TO.P,J2,01,01*%
%TO.N,/pc070_aida_hdmi_rpc_hdmi_single/CLK*%
X98675000Y-53985000D03*
%TO.P,J2,02,02*%
%TO.N,GND*%
X98675000Y-54485000D03*
%TO.P,J2,03,03*%
%TO.N,/pc070_aida_hdmi_rpc_hdmi_single/CLK\u002A*%
X98675000Y-54985000D03*
%TO.P,J2,04,04*%
%TO.N,/pc070_aida_hdmi_rpc_hdmi_single/CONT*%
X98675000Y-55485000D03*
%TO.P,J2,05,05*%
%TO.N,GND*%
X98675000Y-55985000D03*
%TO.P,J2,06,06*%
%TO.N,/pc070_aida_hdmi_rpc_hdmi_single/CONT\u002A*%
X98675000Y-56485000D03*
%TO.P,J2,07,07*%
%TO.N,/pc070_aida_hdmi_rpc_hdmi_single/BUSY*%
X98675000Y-56985000D03*
%TO.P,J2,08,08*%
%TO.N,GND*%
X98675000Y-57485000D03*
%TO.P,J2,09,09*%
%TO.N,/pc070_aida_hdmi_rpc_hdmi_single/BUSY\u002A*%
X98675000Y-57985000D03*
%TO.P,J2,10,10*%
%TO.N,/pc070_aida_hdmi_rpc_hdmi_single/SPARE*%
X98675000Y-58485000D03*
%TO.P,J2,11,11*%
%TO.N,GND*%
X98675000Y-58985000D03*
%TO.P,J2,12,12*%
%TO.N,/pc070_aida_hdmi_rpc_hdmi_single/SPARE\u002A*%
X98675000Y-59485000D03*
%TO.P,J2,13,13*%
%TO.N,unconnected-(J2-Pad13)*%
X98675000Y-59985000D03*
%TO.P,J2,14,14*%
%TO.N,unconnected-(J2-Pad14)*%
X98675000Y-60485000D03*
%TO.P,J2,15,15*%
%TO.N,/pc070_aida_hdmi_rpc_hdmi_single/TRIG*%
X98675000Y-60985000D03*
%TO.P,J2,16,16*%
%TO.N,/pc070_aida_hdmi_rpc_hdmi_single/TRIG\u002A*%
X98675000Y-61485000D03*
%TO.P,J2,17,17*%
%TO.N,unconnected-(J2-Pad17)*%
X98675000Y-61985000D03*
%TO.P,J2,18,18*%
%TO.N,unconnected-(J2-Pad18)*%
X98675000Y-62485000D03*
%TO.P,J2,19,19*%
%TO.N,unconnected-(J2-Pad19)*%
X98675000Y-62985000D03*
D11*
%TO.P,J2,S1,SHIELD*%
%TO.N,GND*%
X99300000Y-65735000D03*
%TO.P,J2,S2,SHIELD*%
X99300000Y-51235000D03*
D12*
%TO.P,J2,S3,SHIELD*%
X105260000Y-65735000D03*
%TO.P,J2,S4,SHIELD*%
X105260000Y-51235000D03*
%TD*%
D10*
%TO.P,J9,01,01*%
%TO.N,/pc070_aida_hdmi_rpc_hdmi_single5/BUSY*%
X81325000Y-153409000D03*
%TO.P,J9,02,02*%
%TO.N,GND*%
X81325000Y-152909000D03*
%TO.P,J9,03,03*%
%TO.N,/pc070_aida_hdmi_rpc_hdmi_single5/BUSY\u002A*%
X81325000Y-152409000D03*
%TO.P,J9,04,04*%
%TO.N,/pc070_aida_hdmi_rpc_hdmi_single5/TRIG*%
X81325000Y-151909000D03*
%TO.P,J9,05,05*%
%TO.N,GND*%
X81325000Y-151409000D03*
%TO.P,J9,06,06*%
%TO.N,/pc070_aida_hdmi_rpc_hdmi_single5/TRIG\u002A*%
X81325000Y-150909000D03*
%TO.P,J9,07,07*%
%TO.N,/pc070_aida_hdmi_rpc_hdmi_single5/SPARE*%
X81325000Y-150409000D03*
%TO.P,J9,08,08*%
%TO.N,GND*%
X81325000Y-149909000D03*
%TO.P,J9,09,09*%
%TO.N,/pc070_aida_hdmi_rpc_hdmi_single5/SPARE\u002A*%
X81325000Y-149409000D03*
%TO.P,J9,10,10*%
%TO.N,/pc070_aida_hdmi_rpc_hdmi_single5/CLK*%
X81325000Y-148909000D03*
%TO.P,J9,11,11*%
%TO.N,GND*%
X81325000Y-148409000D03*
%TO.P,J9,12,12*%
%TO.N,/pc070_aida_hdmi_rpc_hdmi_single5/CLK\u002A*%
X81325000Y-147909000D03*
%TO.P,J9,13,13*%
%TO.N,unconnected-(J9-Pad13)*%
X81325000Y-147409000D03*
%TO.P,J9,14,14*%
%TO.N,unconnected-(J9-Pad14)*%
X81325000Y-146909000D03*
%TO.P,J9,15,15*%
%TO.N,/pc070_aida_hdmi_rpc_hdmi_single5/CONT*%
X81325000Y-146409000D03*
%TO.P,J9,16,16*%
%TO.N,/pc070_aida_hdmi_rpc_hdmi_single5/CONT\u002A*%
X81325000Y-145909000D03*
%TO.P,J9,17,17*%
%TO.N,unconnected-(J9-Pad17)*%
X81325000Y-145409000D03*
%TO.P,J9,18,18*%
%TO.N,unconnected-(J9-Pad18)*%
X81325000Y-144909000D03*
%TO.P,J9,19,19*%
%TO.N,unconnected-(J9-Pad19)*%
X81325000Y-144409000D03*
D11*
%TO.P,J9,S1,SHIELD*%
%TO.N,GND*%
X80700000Y-141659000D03*
%TO.P,J9,S2,SHIELD*%
X80700000Y-156159000D03*
D12*
%TO.P,J9,S3,SHIELD*%
X74740000Y-141659000D03*
%TO.P,J9,S4,SHIELD*%
X74740000Y-156159000D03*
%TD*%
D13*
%TO.P,H3,1,1*%
%TO.N,GND*%
X105000000Y-185000000D03*
D14*
X105000000Y-185000000D03*
%TD*%
%TO.P,H4,1,1*%
%TO.N,GND*%
X75000000Y-185000000D03*
D13*
X75000000Y-185000000D03*
%TD*%
D10*
%TO.P,J8,01,01*%
%TO.N,/pc070_aida_hdmi_rpc_hdmi_single4/CLK*%
X98765000Y-121803000D03*
%TO.P,J8,02,02*%
%TO.N,GND*%
X98765000Y-122303000D03*
%TO.P,J8,03,03*%
%TO.N,/pc070_aida_hdmi_rpc_hdmi_single4/CLK\u002A*%
X98765000Y-122803000D03*
%TO.P,J8,04,04*%
%TO.N,/pc070_aida_hdmi_rpc_hdmi_single4/CONT*%
X98765000Y-123303000D03*
%TO.P,J8,05,05*%
%TO.N,GND*%
X98765000Y-123803000D03*
%TO.P,J8,06,06*%
%TO.N,/pc070_aida_hdmi_rpc_hdmi_single4/CONT\u002A*%
X98765000Y-124303000D03*
%TO.P,J8,07,07*%
%TO.N,/pc070_aida_hdmi_rpc_hdmi_single4/BUSY*%
X98765000Y-124803000D03*
%TO.P,J8,08,08*%
%TO.N,GND*%
X98765000Y-125303000D03*
%TO.P,J8,09,09*%
%TO.N,/pc070_aida_hdmi_rpc_hdmi_single4/BUSY\u002A*%
X98765000Y-125803000D03*
%TO.P,J8,10,10*%
%TO.N,/pc070_aida_hdmi_rpc_hdmi_single4/SPARE*%
X98765000Y-126303000D03*
%TO.P,J8,11,11*%
%TO.N,GND*%
X98765000Y-126803000D03*
%TO.P,J8,12,12*%
%TO.N,/pc070_aida_hdmi_rpc_hdmi_single4/SPARE\u002A*%
X98765000Y-127303000D03*
%TO.P,J8,13,13*%
%TO.N,unconnected-(J8-Pad13)*%
X98765000Y-127803000D03*
%TO.P,J8,14,14*%
%TO.N,unconnected-(J8-Pad14)*%
X98765000Y-128303000D03*
%TO.P,J8,15,15*%
%TO.N,/pc070_aida_hdmi_rpc_hdmi_single4/TRIG*%
X98765000Y-128803000D03*
%TO.P,J8,16,16*%
%TO.N,/pc070_aida_hdmi_rpc_hdmi_single4/TRIG\u002A*%
X98765000Y-129303000D03*
%TO.P,J8,17,17*%
%TO.N,unconnected-(J8-Pad17)*%
X98765000Y-129803000D03*
%TO.P,J8,18,18*%
%TO.N,unconnected-(J8-Pad18)*%
X98765000Y-130303000D03*
%TO.P,J8,19,19*%
%TO.N,unconnected-(J8-Pad19)*%
X98765000Y-130803000D03*
D11*
%TO.P,J8,S1,SHIELD*%
%TO.N,GND*%
X99390000Y-133553000D03*
%TO.P,J8,S2,SHIELD*%
X99390000Y-119053000D03*
D12*
%TO.P,J8,S3,SHIELD*%
X105350000Y-133553000D03*
%TO.P,J8,S4,SHIELD*%
X105350000Y-119053000D03*
%TD*%
D10*
%TO.P,J6,01,01*%
%TO.N,/pc070_aida_hdmi_rpc_hdmi_single2/CLK*%
X98765000Y-99197000D03*
%TO.P,J6,02,02*%
%TO.N,GND*%
X98765000Y-99697000D03*
%TO.P,J6,03,03*%
%TO.N,/pc070_aida_hdmi_rpc_hdmi_single2/CLK\u002A*%
X98765000Y-100197000D03*
%TO.P,J6,04,04*%
%TO.N,/pc070_aida_hdmi_rpc_hdmi_single2/CONT*%
X98765000Y-100697000D03*
%TO.P,J6,05,05*%
%TO.N,GND*%
X98765000Y-101197000D03*
%TO.P,J6,06,06*%
%TO.N,/pc070_aida_hdmi_rpc_hdmi_single2/CONT\u002A*%
X98765000Y-101697000D03*
%TO.P,J6,07,07*%
%TO.N,/pc070_aida_hdmi_rpc_hdmi_single2/BUSY*%
X98765000Y-102197000D03*
%TO.P,J6,08,08*%
%TO.N,GND*%
X98765000Y-102697000D03*
%TO.P,J6,09,09*%
%TO.N,/pc070_aida_hdmi_rpc_hdmi_single2/BUSY\u002A*%
X98765000Y-103197000D03*
%TO.P,J6,10,10*%
%TO.N,/pc070_aida_hdmi_rpc_hdmi_single2/SPARE*%
X98765000Y-103697000D03*
%TO.P,J6,11,11*%
%TO.N,GND*%
X98765000Y-104197000D03*
%TO.P,J6,12,12*%
%TO.N,/pc070_aida_hdmi_rpc_hdmi_single2/SPARE\u002A*%
X98765000Y-104697000D03*
%TO.P,J6,13,13*%
%TO.N,unconnected-(J6-Pad13)*%
X98765000Y-105197000D03*
%TO.P,J6,14,14*%
%TO.N,unconnected-(J6-Pad14)*%
X98765000Y-105697000D03*
%TO.P,J6,15,15*%
%TO.N,/pc070_aida_hdmi_rpc_hdmi_single2/TRIG*%
X98765000Y-106197000D03*
%TO.P,J6,16,16*%
%TO.N,/pc070_aida_hdmi_rpc_hdmi_single2/TRIG\u002A*%
X98765000Y-106697000D03*
%TO.P,J6,17,17*%
%TO.N,unconnected-(J6-Pad17)*%
X98765000Y-107197000D03*
%TO.P,J6,18,18*%
%TO.N,unconnected-(J6-Pad18)*%
X98765000Y-107697000D03*
%TO.P,J6,19,19*%
%TO.N,unconnected-(J6-Pad19)*%
X98765000Y-108197000D03*
D11*
%TO.P,J6,S1,SHIELD*%
%TO.N,GND*%
X99390000Y-110947000D03*
%TO.P,J6,S2,SHIELD*%
X99390000Y-96447000D03*
D12*
%TO.P,J6,S3,SHIELD*%
X105350000Y-110947000D03*
%TO.P,J6,S4,SHIELD*%
X105350000Y-96447000D03*
%TD*%
D10*
%TO.P,J12,01,01*%
%TO.N,/pc070_aida_hdmi_rpc_hdmi_single3/CLK*%
X98765000Y-167015000D03*
%TO.P,J12,02,02*%
%TO.N,GND*%
X98765000Y-167515000D03*
%TO.P,J12,03,03*%
%TO.N,/pc070_aida_hdmi_rpc_hdmi_single3/CLK\u002A*%
X98765000Y-168015000D03*
%TO.P,J12,04,04*%
%TO.N,/pc070_aida_hdmi_rpc_hdmi_single3/CONT*%
X98765000Y-168515000D03*
%TO.P,J12,05,05*%
%TO.N,GND*%
X98765000Y-169015000D03*
%TO.P,J12,06,06*%
%TO.N,/pc070_aida_hdmi_rpc_hdmi_single3/CONT\u002A*%
X98765000Y-169515000D03*
%TO.P,J12,07,07*%
%TO.N,/pc070_aida_hdmi_rpc_hdmi_single3/BUSY*%
X98765000Y-170015000D03*
%TO.P,J12,08,08*%
%TO.N,GND*%
X98765000Y-170515000D03*
%TO.P,J12,09,09*%
%TO.N,/pc070_aida_hdmi_rpc_hdmi_single3/BUSY\u002A*%
X98765000Y-171015000D03*
%TO.P,J12,10,10*%
%TO.N,/pc070_aida_hdmi_rpc_hdmi_single3/SPARE*%
X98765000Y-171515000D03*
%TO.P,J12,11,11*%
%TO.N,GND*%
X98765000Y-172015000D03*
%TO.P,J12,12,12*%
%TO.N,/pc070_aida_hdmi_rpc_hdmi_single3/SPARE\u002A*%
X98765000Y-172515000D03*
%TO.P,J12,13,13*%
%TO.N,unconnected-(J12-Pad13)*%
X98765000Y-173015000D03*
%TO.P,J12,14,14*%
%TO.N,unconnected-(J12-Pad14)*%
X98765000Y-173515000D03*
%TO.P,J12,15,15*%
%TO.N,/pc070_aida_hdmi_rpc_hdmi_single3/TRIG*%
X98765000Y-174015000D03*
%TO.P,J12,16,16*%
%TO.N,/pc070_aida_hdmi_rpc_hdmi_single3/TRIG\u002A*%
X98765000Y-174515000D03*
%TO.P,J12,17,17*%
%TO.N,unconnected-(J12-Pad17)*%
X98765000Y-175015000D03*
%TO.P,J12,18,18*%
%TO.N,unconnected-(J12-Pad18)*%
X98765000Y-175515000D03*
%TO.P,J12,19,19*%
%TO.N,unconnected-(J12-Pad19)*%
X98765000Y-176015000D03*
D11*
%TO.P,J12,S1,SHIELD*%
%TO.N,GND*%
X99390000Y-178765000D03*
%TO.P,J12,S2,SHIELD*%
X99390000Y-164265000D03*
D12*
%TO.P,J12,S3,SHIELD*%
X105350000Y-178765000D03*
%TO.P,J12,S4,SHIELD*%
X105350000Y-164265000D03*
%TD*%
D10*
%TO.P,J3,01,01*%
%TO.N,/pc070_aida_hdmi_rpc_hdmi_single1/BUSY*%
X81325000Y-85591000D03*
%TO.P,J3,02,02*%
%TO.N,GND*%
X81325000Y-85091000D03*
%TO.P,J3,03,03*%
%TO.N,/pc070_aida_hdmi_rpc_hdmi_single1/BUSY\u002A*%
X81325000Y-84591000D03*
%TO.P,J3,04,04*%
%TO.N,/pc070_aida_hdmi_rpc_hdmi_single1/TRIG*%
X81325000Y-84091000D03*
%TO.P,J3,05,05*%
%TO.N,GND*%
X81325000Y-83591000D03*
%TO.P,J3,06,06*%
%TO.N,/pc070_aida_hdmi_rpc_hdmi_single1/TRIG\u002A*%
X81325000Y-83091000D03*
%TO.P,J3,07,07*%
%TO.N,/pc070_aida_hdmi_rpc_hdmi_single1/SPARE*%
X81325000Y-82591000D03*
%TO.P,J3,08,08*%
%TO.N,GND*%
X81325000Y-82091000D03*
%TO.P,J3,09,09*%
%TO.N,/pc070_aida_hdmi_rpc_hdmi_single1/SPARE\u002A*%
X81325000Y-81591000D03*
%TO.P,J3,10,10*%
%TO.N,/pc070_aida_hdmi_rpc_hdmi_single1/CLK*%
X81325000Y-81091000D03*
%TO.P,J3,11,11*%
%TO.N,GND*%
X81325000Y-80591000D03*
%TO.P,J3,12,12*%
%TO.N,/pc070_aida_hdmi_rpc_hdmi_single1/CLK\u002A*%
X81325000Y-80091000D03*
%TO.P,J3,13,13*%
%TO.N,unconnected-(J3-Pad13)*%
X81325000Y-79591000D03*
%TO.P,J3,14,14*%
%TO.N,unconnected-(J3-Pad14)*%
X81325000Y-79091000D03*
%TO.P,J3,15,15*%
%TO.N,/pc070_aida_hdmi_rpc_hdmi_single1/CONT*%
X81325000Y-78591000D03*
%TO.P,J3,16,16*%
%TO.N,/pc070_aida_hdmi_rpc_hdmi_single1/CONT\u002A*%
X81325000Y-78091000D03*
%TO.P,J3,17,17*%
%TO.N,unconnected-(J3-Pad17)*%
X81325000Y-77591000D03*
%TO.P,J3,18,18*%
%TO.N,unconnected-(J3-Pad18)*%
X81325000Y-77091000D03*
%TO.P,J3,19,19*%
%TO.N,unconnected-(J3-Pad19)*%
X81325000Y-76591000D03*
D11*
%TO.P,J3,S1,SHIELD*%
%TO.N,GND*%
X80700000Y-73841000D03*
%TO.P,J3,S2,SHIELD*%
X80700000Y-88341000D03*
D12*
%TO.P,J3,S3,SHIELD*%
X74740000Y-73841000D03*
%TO.P,J3,S4,SHIELD*%
X74740000Y-88341000D03*
%TD*%
D10*
%TO.P,J1,01,01*%
%TO.N,/pc070_aida_hdmi_rpc_hdmi_single/BUSY*%
X81235000Y-62985000D03*
%TO.P,J1,02,02*%
%TO.N,GND*%
X81235000Y-62485000D03*
%TO.P,J1,03,03*%
%TO.N,/pc070_aida_hdmi_rpc_hdmi_single/BUSY\u002A*%
X81235000Y-61985000D03*
%TO.P,J1,04,04*%
%TO.N,/pc070_aida_hdmi_rpc_hdmi_single/TRIG*%
X81235000Y-61485000D03*
%TO.P,J1,05,05*%
%TO.N,GND*%
X81235000Y-60985000D03*
%TO.P,J1,06,06*%
%TO.N,/pc070_aida_hdmi_rpc_hdmi_single/TRIG\u002A*%
X81235000Y-60485000D03*
%TO.P,J1,07,07*%
%TO.N,/pc070_aida_hdmi_rpc_hdmi_single/SPARE*%
X81235000Y-59985000D03*
%TO.P,J1,08,08*%
%TO.N,GND*%
X81235000Y-59485000D03*
%TO.P,J1,09,09*%
%TO.N,/pc070_aida_hdmi_rpc_hdmi_single/SPARE\u002A*%
X81235000Y-58985000D03*
%TO.P,J1,10,10*%
%TO.N,/pc070_aida_hdmi_rpc_hdmi_single/CLK*%
X81235000Y-58485000D03*
%TO.P,J1,11,11*%
%TO.N,GND*%
X81235000Y-57985000D03*
%TO.P,J1,12,12*%
%TO.N,/pc070_aida_hdmi_rpc_hdmi_single/CLK\u002A*%
X81235000Y-57485000D03*
%TO.P,J1,13,13*%
%TO.N,unconnected-(J1-Pad13)*%
X81235000Y-56985000D03*
%TO.P,J1,14,14*%
%TO.N,unconnected-(J1-Pad14)*%
X81235000Y-56485000D03*
%TO.P,J1,15,15*%
%TO.N,/pc070_aida_hdmi_rpc_hdmi_single/CONT*%
X81235000Y-55985000D03*
%TO.P,J1,16,16*%
%TO.N,/pc070_aida_hdmi_rpc_hdmi_single/CONT\u002A*%
X81235000Y-55485000D03*
%TO.P,J1,17,17*%
%TO.N,unconnected-(J1-Pad17)*%
X81235000Y-54985000D03*
%TO.P,J1,18,18*%
%TO.N,unconnected-(J1-Pad18)*%
X81235000Y-54485000D03*
%TO.P,J1,19,19*%
%TO.N,unconnected-(J1-Pad19)*%
X81235000Y-53985000D03*
D11*
%TO.P,J1,S1,SHIELD*%
%TO.N,GND*%
X80610000Y-51235000D03*
%TO.P,J1,S2,SHIELD*%
X80610000Y-65735000D03*
D12*
%TO.P,J1,S3,SHIELD*%
X74650000Y-51235000D03*
%TO.P,J1,S4,SHIELD*%
X74650000Y-65735000D03*
%TD*%
D13*
%TO.P,H2,1,1*%
%TO.N,GND*%
X105000000Y-45000000D03*
D14*
X105000000Y-45000000D03*
%TD*%
D10*
%TO.P,J7,01,01*%
%TO.N,/pc070_aida_hdmi_rpc_hdmi_single4/BUSY*%
X81325000Y-130803000D03*
%TO.P,J7,02,02*%
%TO.N,GND*%
X81325000Y-130303000D03*
%TO.P,J7,03,03*%
%TO.N,/pc070_aida_hdmi_rpc_hdmi_single4/BUSY\u002A*%
X81325000Y-129803000D03*
%TO.P,J7,04,04*%
%TO.N,/pc070_aida_hdmi_rpc_hdmi_single4/TRIG*%
X81325000Y-129303000D03*
%TO.P,J7,05,05*%
%TO.N,GND*%
X81325000Y-128803000D03*
%TO.P,J7,06,06*%
%TO.N,/pc070_aida_hdmi_rpc_hdmi_single4/TRIG\u002A*%
X81325000Y-128303000D03*
%TO.P,J7,07,07*%
%TO.N,/pc070_aida_hdmi_rpc_hdmi_single4/SPARE*%
X81325000Y-127803000D03*
%TO.P,J7,08,08*%
%TO.N,GND*%
X81325000Y-127303000D03*
%TO.P,J7,09,09*%
%TO.N,/pc070_aida_hdmi_rpc_hdmi_single4/SPARE\u002A*%
X81325000Y-126803000D03*
%TO.P,J7,10,10*%
%TO.N,/pc070_aida_hdmi_rpc_hdmi_single4/CLK*%
X81325000Y-126303000D03*
%TO.P,J7,11,11*%
%TO.N,GND*%
X81325000Y-125803000D03*
%TO.P,J7,12,12*%
%TO.N,/pc070_aida_hdmi_rpc_hdmi_single4/CLK\u002A*%
X81325000Y-125303000D03*
%TO.P,J7,13,13*%
%TO.N,unconnected-(J7-Pad13)*%
X81325000Y-124803000D03*
%TO.P,J7,14,14*%
%TO.N,unconnected-(J7-Pad14)*%
X81325000Y-124303000D03*
%TO.P,J7,15,15*%
%TO.N,/pc070_aida_hdmi_rpc_hdmi_single4/CONT*%
X81325000Y-123803000D03*
%TO.P,J7,16,16*%
%TO.N,/pc070_aida_hdmi_rpc_hdmi_single4/CONT\u002A*%
X81325000Y-123303000D03*
%TO.P,J7,17,17*%
%TO.N,unconnected-(J7-Pad17)*%
X81325000Y-122803000D03*
%TO.P,J7,18,18*%
%TO.N,unconnected-(J7-Pad18)*%
X81325000Y-122303000D03*
%TO.P,J7,19,19*%
%TO.N,unconnected-(J7-Pad19)*%
X81325000Y-121803000D03*
D11*
%TO.P,J7,S1,SHIELD*%
%TO.N,GND*%
X80700000Y-119053000D03*
%TO.P,J7,S2,SHIELD*%
X80700000Y-133553000D03*
D12*
%TO.P,J7,S3,SHIELD*%
X74740000Y-119053000D03*
%TO.P,J7,S4,SHIELD*%
X74740000Y-133553000D03*
%TD*%
D10*
%TO.P,J11,01,01*%
%TO.N,/pc070_aida_hdmi_rpc_hdmi_single3/BUSY*%
X81325000Y-176015000D03*
%TO.P,J11,02,02*%
%TO.N,GND*%
X81325000Y-175515000D03*
%TO.P,J11,03,03*%
%TO.N,/pc070_aida_hdmi_rpc_hdmi_single3/BUSY\u002A*%
X81325000Y-175015000D03*
%TO.P,J11,04,04*%
%TO.N,/pc070_aida_hdmi_rpc_hdmi_single3/TRIG*%
X81325000Y-174515000D03*
%TO.P,J11,05,05*%
%TO.N,GND*%
X81325000Y-174015000D03*
%TO.P,J11,06,06*%
%TO.N,/pc070_aida_hdmi_rpc_hdmi_single3/TRIG\u002A*%
X81325000Y-173515000D03*
%TO.P,J11,07,07*%
%TO.N,/pc070_aida_hdmi_rpc_hdmi_single3/SPARE*%
X81325000Y-173015000D03*
%TO.P,J11,08,08*%
%TO.N,GND*%
X81325000Y-172515000D03*
%TO.P,J11,09,09*%
%TO.N,/pc070_aida_hdmi_rpc_hdmi_single3/SPARE\u002A*%
X81325000Y-172015000D03*
%TO.P,J11,10,10*%
%TO.N,/pc070_aida_hdmi_rpc_hdmi_single3/CLK*%
X81325000Y-171515000D03*
%TO.P,J11,11,11*%
%TO.N,GND*%
X81325000Y-171015000D03*
%TO.P,J11,12,12*%
%TO.N,/pc070_aida_hdmi_rpc_hdmi_single3/CLK\u002A*%
X81325000Y-170515000D03*
%TO.P,J11,13,13*%
%TO.N,unconnected-(J11-Pad13)*%
X81325000Y-170015000D03*
%TO.P,J11,14,14*%
%TO.N,unconnected-(J11-Pad14)*%
X81325000Y-169515000D03*
%TO.P,J11,15,15*%
%TO.N,/pc070_aida_hdmi_rpc_hdmi_single3/CONT*%
X81325000Y-169015000D03*
%TO.P,J11,16,16*%
%TO.N,/pc070_aida_hdmi_rpc_hdmi_single3/CONT\u002A*%
X81325000Y-168515000D03*
%TO.P,J11,17,17*%
%TO.N,unconnected-(J11-Pad17)*%
X81325000Y-168015000D03*
%TO.P,J11,18,18*%
%TO.N,unconnected-(J11-Pad18)*%
X81325000Y-167515000D03*
%TO.P,J11,19,19*%
%TO.N,unconnected-(J11-Pad19)*%
X81325000Y-167015000D03*
D11*
%TO.P,J11,S1,SHIELD*%
%TO.N,GND*%
X80700000Y-164265000D03*
%TO.P,J11,S2,SHIELD*%
X80700000Y-178765000D03*
D12*
%TO.P,J11,S3,SHIELD*%
X74740000Y-164265000D03*
%TO.P,J11,S4,SHIELD*%
X74740000Y-178765000D03*
%TD*%
D14*
%TO.P,H1,1,1*%
%TO.N,GND*%
X75000000Y-45000000D03*
D13*
X75000000Y-45000000D03*
%TD*%
D10*
%TO.P,J4,01,01*%
%TO.N,/pc070_aida_hdmi_rpc_hdmi_single1/CLK*%
X98765000Y-76591000D03*
%TO.P,J4,02,02*%
%TO.N,GND*%
X98765000Y-77091000D03*
%TO.P,J4,03,03*%
%TO.N,/pc070_aida_hdmi_rpc_hdmi_single1/CLK\u002A*%
X98765000Y-77591000D03*
%TO.P,J4,04,04*%
%TO.N,/pc070_aida_hdmi_rpc_hdmi_single1/CONT*%
X98765000Y-78091000D03*
%TO.P,J4,05,05*%
%TO.N,GND*%
X98765000Y-78591000D03*
%TO.P,J4,06,06*%
%TO.N,/pc070_aida_hdmi_rpc_hdmi_single1/CONT\u002A*%
X98765000Y-79091000D03*
%TO.P,J4,07,07*%
%TO.N,/pc070_aida_hdmi_rpc_hdmi_single1/BUSY*%
X98765000Y-79591000D03*
%TO.P,J4,08,08*%
%TO.N,GND*%
X98765000Y-80091000D03*
%TO.P,J4,09,09*%
%TO.N,/pc070_aida_hdmi_rpc_hdmi_single1/BUSY\u002A*%
X98765000Y-80591000D03*
%TO.P,J4,10,10*%
%TO.N,/pc070_aida_hdmi_rpc_hdmi_single1/SPARE*%
X98765000Y-81091000D03*
%TO.P,J4,11,11*%
%TO.N,GND*%
X98765000Y-81591000D03*
%TO.P,J4,12,12*%
%TO.N,/pc070_aida_hdmi_rpc_hdmi_single1/SPARE\u002A*%
X98765000Y-82091000D03*
%TO.P,J4,13,13*%
%TO.N,unconnected-(J4-Pad13)*%
X98765000Y-82591000D03*
%TO.P,J4,14,14*%
%TO.N,unconnected-(J4-Pad14)*%
X98765000Y-83091000D03*
%TO.P,J4,15,15*%
%TO.N,/pc070_aida_hdmi_rpc_hdmi_single1/TRIG*%
X98765000Y-83591000D03*
%TO.P,J4,16,16*%
%TO.N,/pc070_aida_hdmi_rpc_hdmi_single1/TRIG\u002A*%
X98765000Y-84091000D03*
%TO.P,J4,17,17*%
%TO.N,unconnected-(J4-Pad17)*%
X98765000Y-84591000D03*
%TO.P,J4,18,18*%
%TO.N,unconnected-(J4-Pad18)*%
X98765000Y-85091000D03*
%TO.P,J4,19,19*%
%TO.N,unconnected-(J4-Pad19)*%
X98765000Y-85591000D03*
D11*
%TO.P,J4,S1,SHIELD*%
%TO.N,GND*%
X99390000Y-88341000D03*
%TO.P,J4,S2,SHIELD*%
X99390000Y-73841000D03*
D12*
%TO.P,J4,S3,SHIELD*%
X105350000Y-88341000D03*
%TO.P,J4,S4,SHIELD*%
X105350000Y-73841000D03*
%TD*%
D10*
%TO.P,J10,01,01*%
%TO.N,/pc070_aida_hdmi_rpc_hdmi_single5/CLK*%
X98765000Y-144409000D03*
%TO.P,J10,02,02*%
%TO.N,GND*%
X98765000Y-144909000D03*
%TO.P,J10,03,03*%
%TO.N,/pc070_aida_hdmi_rpc_hdmi_single5/CLK\u002A*%
X98765000Y-145409000D03*
%TO.P,J10,04,04*%
%TO.N,/pc070_aida_hdmi_rpc_hdmi_single5/CONT*%
X98765000Y-145909000D03*
%TO.P,J10,05,05*%
%TO.N,GND*%
X98765000Y-146409000D03*
%TO.P,J10,06,06*%
%TO.N,/pc070_aida_hdmi_rpc_hdmi_single5/CONT\u002A*%
X98765000Y-146909000D03*
%TO.P,J10,07,07*%
%TO.N,/pc070_aida_hdmi_rpc_hdmi_single5/BUSY*%
X98765000Y-147409000D03*
%TO.P,J10,08,08*%
%TO.N,GND*%
X98765000Y-147909000D03*
%TO.P,J10,09,09*%
%TO.N,/pc070_aida_hdmi_rpc_hdmi_single5/BUSY\u002A*%
X98765000Y-148409000D03*
%TO.P,J10,10,10*%
%TO.N,/pc070_aida_hdmi_rpc_hdmi_single5/SPARE*%
X98765000Y-148909000D03*
%TO.P,J10,11,11*%
%TO.N,GND*%
X98765000Y-149409000D03*
%TO.P,J10,12,12*%
%TO.N,/pc070_aida_hdmi_rpc_hdmi_single5/SPARE\u002A*%
X98765000Y-149909000D03*
%TO.P,J10,13,13*%
%TO.N,unconnected-(J10-Pad13)*%
X98765000Y-150409000D03*
%TO.P,J10,14,14*%
%TO.N,unconnected-(J10-Pad14)*%
X98765000Y-150909000D03*
%TO.P,J10,15,15*%
%TO.N,/pc070_aida_hdmi_rpc_hdmi_single5/TRIG*%
X98765000Y-151409000D03*
%TO.P,J10,16,16*%
%TO.N,/pc070_aida_hdmi_rpc_hdmi_single5/TRIG\u002A*%
X98765000Y-151909000D03*
%TO.P,J10,17,17*%
%TO.N,unconnected-(J10-Pad17)*%
X98765000Y-152409000D03*
%TO.P,J10,18,18*%
%TO.N,unconnected-(J10-Pad18)*%
X98765000Y-152909000D03*
%TO.P,J10,19,19*%
%TO.N,unconnected-(J10-Pad19)*%
X98765000Y-153409000D03*
D11*
%TO.P,J10,S1,SHIELD*%
%TO.N,GND*%
X99390000Y-156159000D03*
%TO.P,J10,S2,SHIELD*%
X99390000Y-141659000D03*
D12*
%TO.P,J10,S3,SHIELD*%
X105350000Y-156159000D03*
%TO.P,J10,S4,SHIELD*%
X105350000Y-141659000D03*
%TD*%
D10*
%TO.P,J5,01,01*%
%TO.N,/pc070_aida_hdmi_rpc_hdmi_single2/BUSY*%
X81325000Y-108197000D03*
%TO.P,J5,02,02*%
%TO.N,GND*%
X81325000Y-107697000D03*
%TO.P,J5,03,03*%
%TO.N,/pc070_aida_hdmi_rpc_hdmi_single2/BUSY\u002A*%
X81325000Y-107197000D03*
%TO.P,J5,04,04*%
%TO.N,/pc070_aida_hdmi_rpc_hdmi_single2/TRIG*%
X81325000Y-106697000D03*
%TO.P,J5,05,05*%
%TO.N,GND*%
X81325000Y-106197000D03*
%TO.P,J5,06,06*%
%TO.N,/pc070_aida_hdmi_rpc_hdmi_single2/TRIG\u002A*%
X81325000Y-105697000D03*
%TO.P,J5,07,07*%
%TO.N,/pc070_aida_hdmi_rpc_hdmi_single2/SPARE*%
X81325000Y-105197000D03*
%TO.P,J5,08,08*%
%TO.N,GND*%
X81325000Y-104697000D03*
%TO.P,J5,09,09*%
%TO.N,/pc070_aida_hdmi_rpc_hdmi_single2/SPARE\u002A*%
X81325000Y-104197000D03*
%TO.P,J5,10,10*%
%TO.N,/pc070_aida_hdmi_rpc_hdmi_single2/CLK*%
X81325000Y-103697000D03*
%TO.P,J5,11,11*%
%TO.N,GND*%
X81325000Y-103197000D03*
%TO.P,J5,12,12*%
%TO.N,/pc070_aida_hdmi_rpc_hdmi_single2/CLK\u002A*%
X81325000Y-102697000D03*
%TO.P,J5,13,13*%
%TO.N,unconnected-(J5-Pad13)*%
X81325000Y-102197000D03*
%TO.P,J5,14,14*%
%TO.N,unconnected-(J5-Pad14)*%
X81325000Y-101697000D03*
%TO.P,J5,15,15*%
%TO.N,/pc070_aida_hdmi_rpc_hdmi_single2/CONT*%
X81325000Y-101197000D03*
%TO.P,J5,16,16*%
%TO.N,/pc070_aida_hdmi_rpc_hdmi_single2/CONT\u002A*%
X81325000Y-100697000D03*
%TO.P,J5,17,17*%
%TO.N,unconnected-(J5-Pad17)*%
X81325000Y-100197000D03*
%TO.P,J5,18,18*%
%TO.N,unconnected-(J5-Pad18)*%
X81325000Y-99697000D03*
%TO.P,J5,19,19*%
%TO.N,unconnected-(J5-Pad19)*%
X81325000Y-99197000D03*
D11*
%TO.P,J5,S1,SHIELD*%
%TO.N,GND*%
X80700000Y-96447000D03*
%TO.P,J5,S2,SHIELD*%
X80700000Y-110947000D03*
D12*
%TO.P,J5,S3,SHIELD*%
X74740000Y-96447000D03*
%TO.P,J5,S4,SHIELD*%
X74740000Y-110947000D03*
%TD*%
D15*
%TO.N,GND*%
X100425915Y-149417874D03*
X100425915Y-104205874D03*
X100425915Y-81599874D03*
X100425915Y-172023874D03*
X100425915Y-126811874D03*
X100335915Y-58993874D03*
X79654084Y-128826148D03*
X79654084Y-151432148D03*
X79564084Y-61008148D03*
X79654084Y-83614148D03*
X79654084Y-174038148D03*
X79654084Y-106220148D03*
X100432439Y-146390915D03*
X100432439Y-101178915D03*
X100432439Y-168996915D03*
X100432439Y-78572915D03*
X100432439Y-123784915D03*
X100342439Y-55966915D03*
X100425915Y-147917874D03*
X100425915Y-102705874D03*
X100425915Y-170523874D03*
X100425915Y-80099874D03*
X100425915Y-125311874D03*
X100335915Y-57493874D03*
X79658515Y-125786285D03*
X79658515Y-148392285D03*
X79658515Y-80574285D03*
X79658515Y-170998285D03*
X79658515Y-103180285D03*
X79568515Y-57968285D03*
X79663533Y-152899359D03*
X79663533Y-85081359D03*
X79663533Y-175505359D03*
X79663533Y-107687359D03*
X79663533Y-130293359D03*
X79573533Y-62475359D03*
X100422359Y-99701005D03*
X100422359Y-167519005D03*
X100422359Y-77095005D03*
X100422359Y-122307005D03*
X100422359Y-144913005D03*
X100332359Y-54489005D03*
X79653478Y-127278958D03*
X79653478Y-149884958D03*
X79653478Y-82066958D03*
X79653478Y-172490958D03*
X79653478Y-104672958D03*
X79563478Y-59460958D03*
%TO.N,/pc070_aida_hdmi_rpc_hdmi_single/CLK*%
X86400000Y-57585000D03*
X86400000Y-53735000D03*
%TO.N,/pc070_aida_hdmi_rpc_hdmi_single/CLK\u002A*%
X85300000Y-54485000D03*
X85300000Y-57485000D03*
%TO.N,/pc070_aida_hdmi_rpc_hdmi_single/CONT*%
X91200000Y-55535000D03*
X89424951Y-56334549D03*
%TO.N,/pc070_aida_hdmi_rpc_hdmi_single/BUSY*%
X94950000Y-57235000D03*
X94950000Y-63035000D03*
%TO.N,/pc070_aida_hdmi_rpc_hdmi_single/BUSY\u002A*%
X93850000Y-57760500D03*
X93850000Y-62935000D03*
%TO.N,/pc070_aida_hdmi_rpc_hdmi_single/SPARE*%
X91200000Y-58485000D03*
X89500000Y-59985000D03*
%TO.N,/pc070_aida_hdmi_rpc_hdmi_single/TRIG*%
X87600000Y-60709500D03*
X86150000Y-61485000D03*
%TO.N,/pc070_aida_hdmi_rpc_hdmi_single1/CLK*%
X86490000Y-80191000D03*
X86490000Y-76341000D03*
%TO.N,/pc070_aida_hdmi_rpc_hdmi_single1/CLK\u002A*%
X85390000Y-77091000D03*
X85390000Y-80091000D03*
%TO.N,/pc070_aida_hdmi_rpc_hdmi_single1/CONT*%
X91290000Y-78141000D03*
X89514951Y-78940549D03*
%TO.N,/pc070_aida_hdmi_rpc_hdmi_single1/BUSY*%
X95040000Y-79841000D03*
X95040000Y-85641000D03*
%TO.N,/pc070_aida_hdmi_rpc_hdmi_single1/BUSY\u002A*%
X93940000Y-80366500D03*
X93940000Y-85541000D03*
%TO.N,/pc070_aida_hdmi_rpc_hdmi_single1/SPARE*%
X90382356Y-81334144D03*
X89317008Y-82317992D03*
%TO.N,/pc070_aida_hdmi_rpc_hdmi_single1/TRIG*%
X87690000Y-83315500D03*
X86240000Y-84091000D03*
%TO.N,/pc070_aida_hdmi_rpc_hdmi_single2/CLK*%
X86490000Y-102797000D03*
X86490000Y-98947000D03*
%TO.N,/pc070_aida_hdmi_rpc_hdmi_single2/CLK\u002A*%
X85390000Y-99697000D03*
X85390000Y-102697000D03*
%TO.N,/pc070_aida_hdmi_rpc_hdmi_single2/CONT*%
X91290000Y-100747000D03*
X89514951Y-101546549D03*
%TO.N,/pc070_aida_hdmi_rpc_hdmi_single2/BUSY*%
X95040000Y-102447000D03*
X95040000Y-108247000D03*
%TO.N,/pc070_aida_hdmi_rpc_hdmi_single2/BUSY\u002A*%
X93940000Y-102972500D03*
X93940000Y-108147000D03*
%TO.N,/pc070_aida_hdmi_rpc_hdmi_single2/SPARE*%
X91290000Y-103697000D03*
X89590000Y-105197000D03*
%TO.N,/pc070_aida_hdmi_rpc_hdmi_single2/TRIG*%
X87690000Y-105921500D03*
X86240000Y-106697000D03*
%TO.N,/pc070_aida_hdmi_rpc_hdmi_single4/CLK*%
X86490000Y-125403000D03*
X86490000Y-121553000D03*
%TO.N,/pc070_aida_hdmi_rpc_hdmi_single4/CLK\u002A*%
X85390000Y-122303000D03*
X85390000Y-125303000D03*
%TO.N,/pc070_aida_hdmi_rpc_hdmi_single4/CONT*%
X91290000Y-123353000D03*
X89514951Y-124152549D03*
%TO.N,/pc070_aida_hdmi_rpc_hdmi_single4/BUSY*%
X95040000Y-125053000D03*
X95040000Y-130853000D03*
%TO.N,/pc070_aida_hdmi_rpc_hdmi_single4/BUSY\u002A*%
X93940000Y-125578500D03*
X93940000Y-130753000D03*
%TO.N,/pc070_aida_hdmi_rpc_hdmi_single4/SPARE*%
X91290000Y-126303000D03*
X89590000Y-127803000D03*
%TO.N,/pc070_aida_hdmi_rpc_hdmi_single4/TRIG*%
X87690000Y-128527500D03*
X86240000Y-129303000D03*
%TO.N,/pc070_aida_hdmi_rpc_hdmi_single5/CLK*%
X86490000Y-148009000D03*
X86490000Y-144159000D03*
%TO.N,/pc070_aida_hdmi_rpc_hdmi_single5/CLK\u002A*%
X85390000Y-144909000D03*
X85390000Y-147909000D03*
%TO.N,/pc070_aida_hdmi_rpc_hdmi_single5/CONT*%
X91290000Y-145959000D03*
X89514951Y-146758549D03*
%TO.N,/pc070_aida_hdmi_rpc_hdmi_single5/BUSY*%
X95040000Y-147659000D03*
X95040000Y-153459000D03*
%TO.N,/pc070_aida_hdmi_rpc_hdmi_single5/BUSY\u002A*%
X93940000Y-148184500D03*
X93940000Y-153359000D03*
%TO.N,/pc070_aida_hdmi_rpc_hdmi_single5/SPARE*%
X91290000Y-148909000D03*
X89590000Y-150409000D03*
%TO.N,/pc070_aida_hdmi_rpc_hdmi_single5/TRIG*%
X87690000Y-151133500D03*
X86240000Y-151909000D03*
%TO.N,/pc070_aida_hdmi_rpc_hdmi_single3/CLK*%
X86490000Y-170615000D03*
X86490000Y-166765000D03*
%TO.N,/pc070_aida_hdmi_rpc_hdmi_single3/CLK\u002A*%
X85390000Y-167515000D03*
X85390000Y-170515000D03*
%TO.N,/pc070_aida_hdmi_rpc_hdmi_single3/CONT*%
X91290000Y-168565000D03*
X89514951Y-169364549D03*
%TO.N,/pc070_aida_hdmi_rpc_hdmi_single3/BUSY*%
X95040000Y-170265000D03*
X95040000Y-176065000D03*
%TO.N,/pc070_aida_hdmi_rpc_hdmi_single3/BUSY\u002A*%
X93940000Y-170790500D03*
X93940000Y-175965000D03*
%TO.N,/pc070_aida_hdmi_rpc_hdmi_single3/SPARE*%
X91290000Y-171515000D03*
X89590000Y-173015000D03*
%TO.N,/pc070_aida_hdmi_rpc_hdmi_single3/TRIG*%
X87690000Y-173739500D03*
X86240000Y-174515000D03*
%TD*%
D16*
%TO.N,GND*%
X79673174Y-152909000D02*
X79663533Y-152899359D01*
X79583174Y-62485000D02*
X79573533Y-62475359D01*
X79673174Y-107697000D02*
X79663533Y-107687359D01*
X79673174Y-130303000D02*
X79663533Y-130293359D01*
X79673174Y-85091000D02*
X79663533Y-85081359D01*
X79673174Y-175515000D02*
X79663533Y-175505359D01*
X81325000Y-128803000D02*
X79677232Y-128803000D01*
X81325000Y-151409000D02*
X79677232Y-151409000D01*
X81325000Y-106197000D02*
X79677232Y-106197000D01*
X81235000Y-60985000D02*
X79587232Y-60985000D01*
X81325000Y-83591000D02*
X79677232Y-83591000D01*
X81325000Y-174015000D02*
X79677232Y-174015000D01*
X81325000Y-127303000D02*
X79677520Y-127303000D01*
X81325000Y-149909000D02*
X79677520Y-149909000D01*
X81325000Y-104697000D02*
X79677520Y-104697000D01*
X81235000Y-59485000D02*
X79587520Y-59485000D01*
X81325000Y-82091000D02*
X79677520Y-82091000D01*
X81325000Y-172515000D02*
X79677520Y-172515000D01*
X98765000Y-104197000D02*
X100417041Y-104197000D01*
X98765000Y-149409000D02*
X100417041Y-149409000D01*
X98765000Y-81591000D02*
X100417041Y-81591000D01*
X98765000Y-126803000D02*
X100417041Y-126803000D01*
X98675000Y-58985000D02*
X100327041Y-58985000D01*
X98765000Y-172015000D02*
X100417041Y-172015000D01*
X98765000Y-99697000D02*
X100418354Y-99697000D01*
X98765000Y-144909000D02*
X100418354Y-144909000D01*
X98765000Y-122303000D02*
X100418354Y-122303000D01*
X98675000Y-54485000D02*
X100328354Y-54485000D01*
X98765000Y-77091000D02*
X100418354Y-77091000D01*
X98765000Y-167515000D02*
X100418354Y-167515000D01*
X100417041Y-102697000D02*
X100425915Y-102705874D01*
X100417041Y-147909000D02*
X100425915Y-147917874D01*
X100417041Y-80091000D02*
X100425915Y-80099874D01*
X100417041Y-125303000D02*
X100425915Y-125311874D01*
X100327041Y-57485000D02*
X100335915Y-57493874D01*
X100417041Y-170515000D02*
X100425915Y-170523874D01*
X100417041Y-104197000D02*
X100425915Y-104205874D01*
X100417041Y-149409000D02*
X100425915Y-149417874D01*
X100417041Y-126803000D02*
X100425915Y-126811874D01*
X100327041Y-58985000D02*
X100335915Y-58993874D01*
X100417041Y-172015000D02*
X100425915Y-172023874D01*
X100417041Y-81591000D02*
X100425915Y-81599874D01*
X98765000Y-102697000D02*
X100417041Y-102697000D01*
X98765000Y-147909000D02*
X100417041Y-147909000D01*
X98765000Y-80091000D02*
X100417041Y-80091000D01*
X98765000Y-125303000D02*
X100417041Y-125303000D01*
X98675000Y-57485000D02*
X100327041Y-57485000D01*
X98765000Y-170515000D02*
X100417041Y-170515000D01*
X100414354Y-101197000D02*
X100432439Y-101178915D01*
X100414354Y-146409000D02*
X100432439Y-146390915D01*
X100414354Y-78591000D02*
X100432439Y-78572915D01*
X100414354Y-123803000D02*
X100432439Y-123784915D01*
X100324354Y-55985000D02*
X100342439Y-55966915D01*
X100414354Y-169015000D02*
X100432439Y-168996915D01*
X100418354Y-99697000D02*
X100422359Y-99701005D01*
X100418354Y-144909000D02*
X100422359Y-144913005D01*
X100418354Y-77091000D02*
X100422359Y-77095005D01*
X100418354Y-122303000D02*
X100422359Y-122307005D01*
X100328354Y-54485000D02*
X100332359Y-54489005D01*
X100418354Y-167515000D02*
X100422359Y-167519005D01*
X79675230Y-125803000D02*
X79658515Y-125786285D01*
X79675230Y-148409000D02*
X79658515Y-148392285D01*
X79675230Y-103197000D02*
X79658515Y-103180285D01*
X79585230Y-57985000D02*
X79568515Y-57968285D01*
X79675230Y-80591000D02*
X79658515Y-80574285D01*
X79675230Y-171015000D02*
X79658515Y-170998285D01*
X98765000Y-101197000D02*
X100414354Y-101197000D01*
X98765000Y-146409000D02*
X100414354Y-146409000D01*
X98765000Y-78591000D02*
X100414354Y-78591000D01*
X98765000Y-123803000D02*
X100414354Y-123803000D01*
X98675000Y-55985000D02*
X100324354Y-55985000D01*
X98765000Y-169015000D02*
X100414354Y-169015000D01*
X81325000Y-148409000D02*
X79675230Y-148409000D01*
X81325000Y-125803000D02*
X79675230Y-125803000D01*
X81325000Y-103197000D02*
X79675230Y-103197000D01*
X81235000Y-57985000D02*
X79585230Y-57985000D01*
X81325000Y-80591000D02*
X79675230Y-80591000D01*
X81325000Y-171015000D02*
X79675230Y-171015000D01*
X79677232Y-128803000D02*
X79654084Y-128826148D01*
X79677232Y-151409000D02*
X79654084Y-151432148D01*
X79677232Y-106197000D02*
X79654084Y-106220148D01*
X79587232Y-60985000D02*
X79564084Y-61008148D01*
X79677232Y-83591000D02*
X79654084Y-83614148D01*
X79677232Y-174015000D02*
X79654084Y-174038148D01*
X81325000Y-152909000D02*
X79673174Y-152909000D01*
X81235000Y-62485000D02*
X79583174Y-62485000D01*
X81325000Y-107697000D02*
X79673174Y-107697000D01*
X81325000Y-130303000D02*
X79673174Y-130303000D01*
X81325000Y-85091000D02*
X79673174Y-85091000D01*
X81325000Y-175515000D02*
X79673174Y-175515000D01*
X79677520Y-127303000D02*
X79653478Y-127278958D01*
X79677520Y-149909000D02*
X79653478Y-149884958D01*
X79677520Y-104697000D02*
X79653478Y-104672958D01*
X79587520Y-59485000D02*
X79563478Y-59460958D01*
X79677520Y-82091000D02*
X79653478Y-82066958D01*
X79677520Y-172515000D02*
X79653478Y-172490958D01*
%TO.N,/pc070_aida_hdmi_rpc_hdmi_single/CLK*%
X98675000Y-53985000D02*
X86650000Y-53985000D01*
X81235000Y-58485000D02*
X85500000Y-58485000D01*
X85500000Y-58485000D02*
X86400000Y-57585000D01*
X86650000Y-53985000D02*
X86400000Y-53735000D01*
%TO.N,/pc070_aida_hdmi_rpc_hdmi_single/CLK\u002A*%
X81235000Y-57485000D02*
X85300000Y-57485000D01*
X95750000Y-54485000D02*
X85300000Y-54485000D01*
X98675000Y-54985000D02*
X96250000Y-54985000D01*
X96250000Y-54985000D02*
X95750000Y-54485000D01*
%TO.N,/pc070_aida_hdmi_rpc_hdmi_single/CONT*%
X91200000Y-55535000D02*
X91400000Y-55735000D01*
X81235000Y-55985000D02*
X89075402Y-55985000D01*
X89075402Y-55985000D02*
X89424951Y-56334549D01*
X91400000Y-55735000D02*
X96960978Y-55735000D01*
X96960978Y-55735000D02*
X97210978Y-55485000D01*
X97210978Y-55485000D02*
X98675000Y-55485000D01*
%TO.N,/pc070_aida_hdmi_rpc_hdmi_single/CONT\u002A*%
X91575094Y-56184520D02*
X96910498Y-56184520D01*
X96910498Y-56184520D02*
X97210978Y-56485000D01*
X89600000Y-55485000D02*
X90374511Y-56259511D01*
X91500103Y-56259511D02*
X91575094Y-56184520D01*
X90374511Y-56259511D02*
X91500103Y-56259511D01*
X97210978Y-56485000D02*
X98675000Y-56485000D01*
X81235000Y-55485000D02*
X89600000Y-55485000D01*
%TO.N,/pc070_aida_hdmi_rpc_hdmi_single/BUSY*%
X93274906Y-63384520D02*
X93549897Y-63659511D01*
X84414282Y-62985000D02*
X84814282Y-63385000D01*
X84814282Y-63385000D02*
X85650000Y-63385000D01*
X95200000Y-56985000D02*
X94950000Y-57235000D01*
X98675000Y-56985000D02*
X95200000Y-56985000D01*
X85550480Y-63384520D02*
X93274906Y-63384520D01*
X94150103Y-63659511D02*
X94774614Y-63035000D01*
X81235000Y-62985000D02*
X84414282Y-62985000D01*
X93549897Y-63659511D02*
X94150103Y-63659511D01*
X94774614Y-63035000D02*
X94950000Y-63035000D01*
%TO.N,/pc070_aida_hdmi_rpc_hdmi_single/BUSY\u002A*%
X83500000Y-61985000D02*
X84050000Y-61985000D01*
X84050000Y-61985000D02*
X85000000Y-62935000D01*
X94074500Y-57985000D02*
X93850000Y-57760500D01*
X98675000Y-57985000D02*
X94074500Y-57985000D01*
X81235000Y-61985000D02*
X83500000Y-61985000D01*
X85000000Y-62935000D02*
X93850000Y-62935000D01*
%TO.N,/pc070_aida_hdmi_rpc_hdmi_single/SPARE*%
X97210978Y-58485000D02*
X98675000Y-58485000D01*
X96860978Y-58835000D02*
X97210978Y-58485000D01*
X91200000Y-58485000D02*
X91550000Y-58835000D01*
X82999022Y-59685000D02*
X89200000Y-59685000D01*
X81235000Y-59985000D02*
X82699022Y-59985000D01*
X91550000Y-58835000D02*
X96860978Y-58835000D01*
X89200000Y-59685000D02*
X89500000Y-59985000D01*
X82699022Y-59985000D02*
X82999022Y-59685000D01*
%TO.N,/pc070_aida_hdmi_rpc_hdmi_single/SPARE\u002A*%
X89775094Y-59235480D02*
X82812825Y-59235480D01*
X82562345Y-58985000D02*
X81235000Y-58985000D01*
X89824134Y-59284520D02*
X89775094Y-59235480D01*
X82812825Y-59235480D02*
X82562345Y-58985000D01*
X98675000Y-59485000D02*
X97247655Y-59485000D01*
X97047175Y-59284520D02*
X89824134Y-59284520D01*
X97247655Y-59485000D02*
X97047175Y-59284520D01*
%TO.N,/pc070_aida_hdmi_rpc_hdmi_single/TRIG*%
X87875500Y-60985000D02*
X87600000Y-60709500D01*
X86150000Y-61485000D02*
X81235000Y-61485000D01*
X98675000Y-60985000D02*
X87875500Y-60985000D01*
%TO.N,/pc070_aida_hdmi_rpc_hdmi_single/TRIG\u002A*%
X98675000Y-61485000D02*
X87200000Y-61485000D01*
X86200000Y-60485000D02*
X81235000Y-60485000D01*
X87200000Y-61485000D02*
X86200000Y-60485000D01*
%TO.N,/pc070_aida_hdmi_rpc_hdmi_single1/CLK*%
X84959386Y-80685000D02*
X85089897Y-80815511D01*
X85089897Y-80815511D02*
X85865489Y-80815511D01*
X98765000Y-76591000D02*
X86740000Y-76591000D01*
X82789022Y-81091000D02*
X83195022Y-80685000D01*
X83195022Y-80685000D02*
X84959386Y-80685000D01*
X85865489Y-80815511D02*
X86490000Y-80191000D01*
X81325000Y-81091000D02*
X82789022Y-81091000D01*
X86740000Y-76591000D02*
X86490000Y-76341000D01*
%TO.N,/pc070_aida_hdmi_rpc_hdmi_single1/CLK\u002A*%
X81325000Y-80091000D02*
X85390000Y-80091000D01*
X95840000Y-77091000D02*
X85390000Y-77091000D01*
X98765000Y-77591000D02*
X96340000Y-77591000D01*
X96340000Y-77591000D02*
X95840000Y-77091000D01*
%TO.N,/pc070_aida_hdmi_rpc_hdmi_single1/CONT*%
X91290000Y-78141000D02*
X91490000Y-78341000D01*
X81325000Y-78591000D02*
X89165402Y-78591000D01*
X89165402Y-78591000D02*
X89514951Y-78940549D01*
X91490000Y-78341000D02*
X97050978Y-78341000D01*
X97050978Y-78341000D02*
X97300978Y-78091000D01*
X97300978Y-78091000D02*
X98765000Y-78091000D01*
%TO.N,/pc070_aida_hdmi_rpc_hdmi_single1/CONT\u002A*%
X91665094Y-78790520D02*
X97000498Y-78790520D01*
X97000498Y-78790520D02*
X97300978Y-79091000D01*
X89690000Y-78091000D02*
X90464511Y-78865511D01*
X91590103Y-78865511D02*
X91665094Y-78790520D01*
X90464511Y-78865511D02*
X91590103Y-78865511D01*
X97300978Y-79091000D02*
X98765000Y-79091000D01*
X81325000Y-78091000D02*
X89690000Y-78091000D01*
%TO.N,/pc070_aida_hdmi_rpc_hdmi_single1/BUSY*%
X96906978Y-79985000D02*
X95184000Y-79985000D01*
X97300978Y-79591000D02*
X96906978Y-79985000D01*
X84504282Y-85591000D02*
X84904282Y-85991000D01*
X84904282Y-85991000D02*
X85740000Y-85991000D01*
X98765000Y-79591000D02*
X97300978Y-79591000D01*
X93639897Y-86265511D02*
X94240103Y-86265511D01*
X81325000Y-85591000D02*
X84504282Y-85591000D01*
X95184000Y-79985000D02*
X95040000Y-79841000D01*
X93364906Y-85990520D02*
X93639897Y-86265511D01*
X94240103Y-86265511D02*
X94864614Y-85641000D01*
X85640480Y-85990520D02*
X93364906Y-85990520D01*
X94864614Y-85641000D02*
X95040000Y-85641000D01*
%TO.N,/pc070_aida_hdmi_rpc_hdmi_single1/BUSY\u002A*%
X83590000Y-84591000D02*
X84140000Y-84591000D01*
X84140000Y-84591000D02*
X85090000Y-85541000D01*
X97249655Y-80591000D02*
X97093175Y-80434520D01*
X98765000Y-80591000D02*
X97249655Y-80591000D01*
X95471094Y-80434520D02*
X95340103Y-80565511D01*
X95340103Y-80565511D02*
X94139011Y-80565511D01*
X81325000Y-84591000D02*
X83590000Y-84591000D01*
X94139011Y-80565511D02*
X93940000Y-80366500D01*
X97093175Y-80434520D02*
X95471094Y-80434520D01*
X85090000Y-85541000D02*
X93940000Y-85541000D01*
%TO.N,/pc070_aida_hdmi_rpc_hdmi_single1/SPARE*%
X89317008Y-82317992D02*
X89039536Y-82040520D01*
X96750498Y-81641480D02*
X97300978Y-81091000D01*
X90689692Y-81641480D02*
X96750498Y-81641480D01*
X97300978Y-81091000D02*
X98765000Y-81091000D01*
X90382356Y-81334144D02*
X90689692Y-81641480D01*
X89039536Y-82040520D02*
X83339502Y-82040520D01*
X82789022Y-82591000D02*
X81325000Y-82591000D01*
X83339502Y-82040520D02*
X82789022Y-82591000D01*
%TO.N,/pc070_aida_hdmi_rpc_hdmi_single1/SPARE\u002A*%
X90114614Y-82091000D02*
X89614614Y-81591000D01*
X98765000Y-82091000D02*
X90114614Y-82091000D01*
X89614614Y-81591000D02*
X81325000Y-81591000D01*
%TO.N,/pc070_aida_hdmi_rpc_hdmi_single1/TRIG*%
X87965500Y-83591000D02*
X87690000Y-83315500D01*
X86240000Y-84091000D02*
X81325000Y-84091000D01*
X98765000Y-83591000D02*
X87965500Y-83591000D01*
%TO.N,/pc070_aida_hdmi_rpc_hdmi_single1/TRIG\u002A*%
X98765000Y-84091000D02*
X87290000Y-84091000D01*
X86290000Y-83091000D02*
X81325000Y-83091000D01*
X87290000Y-84091000D02*
X86290000Y-83091000D01*
%TO.N,/pc070_aida_hdmi_rpc_hdmi_single2/CLK*%
X98765000Y-99197000D02*
X86740000Y-99197000D01*
X81325000Y-103697000D02*
X85590000Y-103697000D01*
X85590000Y-103697000D02*
X86490000Y-102797000D01*
X86740000Y-99197000D02*
X86490000Y-98947000D01*
%TO.N,/pc070_aida_hdmi_rpc_hdmi_single2/CLK\u002A*%
X81325000Y-102697000D02*
X85390000Y-102697000D01*
X95840000Y-99697000D02*
X85390000Y-99697000D01*
X98765000Y-100197000D02*
X96340000Y-100197000D01*
X96340000Y-100197000D02*
X95840000Y-99697000D01*
%TO.N,/pc070_aida_hdmi_rpc_hdmi_single2/CONT*%
X91290000Y-100747000D02*
X91490000Y-100947000D01*
X81325000Y-101197000D02*
X89165402Y-101197000D01*
X89165402Y-101197000D02*
X89514951Y-101546549D01*
X91490000Y-100947000D02*
X97050978Y-100947000D01*
X97050978Y-100947000D02*
X97300978Y-100697000D01*
X97300978Y-100697000D02*
X98765000Y-100697000D01*
%TO.N,/pc070_aida_hdmi_rpc_hdmi_single2/CONT\u002A*%
X91665094Y-101396520D02*
X97000498Y-101396520D01*
X97000498Y-101396520D02*
X97300978Y-101697000D01*
X89690000Y-100697000D02*
X90464511Y-101471511D01*
X91590103Y-101471511D02*
X91665094Y-101396520D01*
X90464511Y-101471511D02*
X91590103Y-101471511D01*
X97300978Y-101697000D02*
X98765000Y-101697000D01*
X81325000Y-100697000D02*
X89690000Y-100697000D01*
%TO.N,/pc070_aida_hdmi_rpc_hdmi_single2/BUSY*%
X85640480Y-108596520D02*
X93364906Y-108596520D01*
X94702000Y-108585000D02*
X94526614Y-108585000D01*
X84504282Y-108197000D02*
X84904282Y-108597000D01*
X84904282Y-108597000D02*
X85740000Y-108597000D01*
X93639897Y-108871511D02*
X94240103Y-108871511D01*
X93364906Y-108596520D02*
X93639897Y-108871511D01*
X95290000Y-102197000D02*
X95040000Y-102447000D01*
X98765000Y-102197000D02*
X95290000Y-102197000D01*
X81325000Y-108197000D02*
X84504282Y-108197000D01*
X94526614Y-108585000D02*
X94240103Y-108871511D01*
X94702000Y-108585000D02*
X95040000Y-108247000D01*
%TO.N,/pc070_aida_hdmi_rpc_hdmi_single2/BUSY\u002A*%
X83590000Y-107197000D02*
X84140000Y-107197000D01*
X84140000Y-107197000D02*
X85090000Y-108147000D01*
X94164500Y-103197000D02*
X93940000Y-102972500D01*
X98765000Y-103197000D02*
X94164500Y-103197000D01*
X81325000Y-107197000D02*
X83590000Y-107197000D01*
X85090000Y-108147000D02*
X93940000Y-108147000D01*
%TO.N,/pc070_aida_hdmi_rpc_hdmi_single2/SPARE*%
X97300978Y-103697000D02*
X98765000Y-103697000D01*
X96950978Y-104047000D02*
X97300978Y-103697000D01*
X91290000Y-103697000D02*
X91640000Y-104047000D01*
X83089022Y-104897000D02*
X89290000Y-104897000D01*
X81325000Y-105197000D02*
X82789022Y-105197000D01*
X91640000Y-104047000D02*
X96950978Y-104047000D01*
X89290000Y-104897000D02*
X89590000Y-105197000D01*
X82789022Y-105197000D02*
X83089022Y-104897000D01*
%TO.N,/pc070_aida_hdmi_rpc_hdmi_single2/SPARE\u002A*%
X89865094Y-104447480D02*
X82902825Y-104447480D01*
X82652345Y-104197000D02*
X81325000Y-104197000D01*
X89914134Y-104496520D02*
X89865094Y-104447480D01*
X82902825Y-104447480D02*
X82652345Y-104197000D01*
X98765000Y-104697000D02*
X97337655Y-104697000D01*
X97137175Y-104496520D02*
X89914134Y-104496520D01*
X97337655Y-104697000D02*
X97137175Y-104496520D01*
%TO.N,/pc070_aida_hdmi_rpc_hdmi_single2/TRIG*%
X87965500Y-106197000D02*
X87690000Y-105921500D01*
X86240000Y-106697000D02*
X81325000Y-106697000D01*
X98765000Y-106197000D02*
X87965500Y-106197000D01*
%TO.N,/pc070_aida_hdmi_rpc_hdmi_single2/TRIG\u002A*%
X98765000Y-106697000D02*
X87290000Y-106697000D01*
X86290000Y-105697000D02*
X81325000Y-105697000D01*
X87290000Y-106697000D02*
X86290000Y-105697000D01*
%TO.N,/pc070_aida_hdmi_rpc_hdmi_single4/CLK*%
X98765000Y-121803000D02*
X86740000Y-121803000D01*
X81325000Y-126303000D02*
X85590000Y-126303000D01*
X85590000Y-126303000D02*
X86490000Y-125403000D01*
X86740000Y-121803000D02*
X86490000Y-121553000D01*
%TO.N,/pc070_aida_hdmi_rpc_hdmi_single4/CLK\u002A*%
X81325000Y-125303000D02*
X85390000Y-125303000D01*
X95840000Y-122303000D02*
X85390000Y-122303000D01*
X98765000Y-122803000D02*
X96340000Y-122803000D01*
X96340000Y-122803000D02*
X95840000Y-122303000D01*
%TO.N,/pc070_aida_hdmi_rpc_hdmi_single4/CONT*%
X91290000Y-123353000D02*
X91490000Y-123553000D01*
X81325000Y-123803000D02*
X89165402Y-123803000D01*
X89165402Y-123803000D02*
X89514951Y-124152549D01*
X91490000Y-123553000D02*
X97050978Y-123553000D01*
X97050978Y-123553000D02*
X97300978Y-123303000D01*
X97300978Y-123303000D02*
X98765000Y-123303000D01*
%TO.N,/pc070_aida_hdmi_rpc_hdmi_single4/CONT\u002A*%
X91665094Y-124002520D02*
X97000498Y-124002520D01*
X97000498Y-124002520D02*
X97300978Y-124303000D01*
X89690000Y-123303000D02*
X90464511Y-124077511D01*
X91590103Y-124077511D02*
X91665094Y-124002520D01*
X90464511Y-124077511D02*
X91590103Y-124077511D01*
X97300978Y-124303000D02*
X98765000Y-124303000D01*
X81325000Y-123303000D02*
X89690000Y-123303000D01*
%TO.N,/pc070_aida_hdmi_rpc_hdmi_single4/BUSY*%
X94557489Y-131477511D02*
X93639897Y-131477511D01*
X84504282Y-130803000D02*
X84904282Y-131203000D01*
X84904282Y-131203000D02*
X85740000Y-131203000D01*
X95290000Y-124803000D02*
X95040000Y-125053000D01*
X95040000Y-130995000D02*
X94557489Y-131477511D01*
X98765000Y-124803000D02*
X95290000Y-124803000D01*
X95040000Y-130853000D02*
X95040000Y-130995000D01*
X93639897Y-131477511D02*
X93364906Y-131202520D01*
X81325000Y-130803000D02*
X84504282Y-130803000D01*
X93364906Y-131202520D02*
X85640480Y-131202520D01*
%TO.N,/pc070_aida_hdmi_rpc_hdmi_single4/BUSY\u002A*%
X83590000Y-129803000D02*
X84140000Y-129803000D01*
X84140000Y-129803000D02*
X85090000Y-130753000D01*
X94164500Y-125803000D02*
X93940000Y-125578500D01*
X98765000Y-125803000D02*
X94164500Y-125803000D01*
X81325000Y-129803000D02*
X83590000Y-129803000D01*
X85090000Y-130753000D02*
X93940000Y-130753000D01*
%TO.N,/pc070_aida_hdmi_rpc_hdmi_single4/SPARE*%
X97300978Y-126303000D02*
X98765000Y-126303000D01*
X96950978Y-126653000D02*
X97300978Y-126303000D01*
X91290000Y-126303000D02*
X91640000Y-126653000D01*
X83089022Y-127503000D02*
X89290000Y-127503000D01*
X81325000Y-127803000D02*
X82789022Y-127803000D01*
X91640000Y-126653000D02*
X96950978Y-126653000D01*
X89290000Y-127503000D02*
X89590000Y-127803000D01*
X82789022Y-127803000D02*
X83089022Y-127503000D01*
%TO.N,/pc070_aida_hdmi_rpc_hdmi_single4/SPARE\u002A*%
X89865094Y-127053480D02*
X82902825Y-127053480D01*
X82652345Y-126803000D02*
X81325000Y-126803000D01*
X89914134Y-127102520D02*
X89865094Y-127053480D01*
X82902825Y-127053480D02*
X82652345Y-126803000D01*
X98765000Y-127303000D02*
X97337655Y-127303000D01*
X97137175Y-127102520D02*
X89914134Y-127102520D01*
X97337655Y-127303000D02*
X97137175Y-127102520D01*
%TO.N,/pc070_aida_hdmi_rpc_hdmi_single4/TRIG*%
X87965500Y-128803000D02*
X87690000Y-128527500D01*
X86240000Y-129303000D02*
X81325000Y-129303000D01*
X98765000Y-128803000D02*
X87965500Y-128803000D01*
%TO.N,/pc070_aida_hdmi_rpc_hdmi_single4/TRIG\u002A*%
X98765000Y-129303000D02*
X87290000Y-129303000D01*
X86290000Y-128303000D02*
X81325000Y-128303000D01*
X87290000Y-129303000D02*
X86290000Y-128303000D01*
%TO.N,/pc070_aida_hdmi_rpc_hdmi_single5/CLK*%
X98765000Y-144409000D02*
X86740000Y-144409000D01*
X81325000Y-148909000D02*
X85590000Y-148909000D01*
X85590000Y-148909000D02*
X86490000Y-148009000D01*
X86740000Y-144409000D02*
X86490000Y-144159000D01*
%TO.N,/pc070_aida_hdmi_rpc_hdmi_single5/CLK\u002A*%
X81325000Y-147909000D02*
X85390000Y-147909000D01*
X95840000Y-144909000D02*
X85390000Y-144909000D01*
X98765000Y-145409000D02*
X96340000Y-145409000D01*
X96340000Y-145409000D02*
X95840000Y-144909000D01*
%TO.N,/pc070_aida_hdmi_rpc_hdmi_single5/CONT*%
X91290000Y-145959000D02*
X91490000Y-146159000D01*
X81325000Y-146409000D02*
X89165402Y-146409000D01*
X89165402Y-146409000D02*
X89514951Y-146758549D01*
X91490000Y-146159000D02*
X97050978Y-146159000D01*
X97050978Y-146159000D02*
X97300978Y-145909000D01*
X97300978Y-145909000D02*
X98765000Y-145909000D01*
%TO.N,/pc070_aida_hdmi_rpc_hdmi_single5/CONT\u002A*%
X91665094Y-146608520D02*
X97000498Y-146608520D01*
X97000498Y-146608520D02*
X97300978Y-146909000D01*
X89690000Y-145909000D02*
X90464511Y-146683511D01*
X91590103Y-146683511D02*
X91665094Y-146608520D01*
X90464511Y-146683511D02*
X91590103Y-146683511D01*
X97300978Y-146909000D02*
X98765000Y-146909000D01*
X81325000Y-145909000D02*
X89690000Y-145909000D01*
%TO.N,/pc070_aida_hdmi_rpc_hdmi_single5/BUSY*%
X93364906Y-153808520D02*
X85640480Y-153808520D01*
X95040000Y-153459000D02*
X94864614Y-153459000D01*
X84504282Y-153409000D02*
X84904282Y-153809000D01*
X94240103Y-154083511D02*
X93639897Y-154083511D01*
X84904282Y-153809000D02*
X85740000Y-153809000D01*
X95290000Y-147409000D02*
X95040000Y-147659000D01*
X98765000Y-147409000D02*
X95290000Y-147409000D01*
X94864614Y-153459000D02*
X94240103Y-154083511D01*
X93639897Y-154083511D02*
X93364906Y-153808520D01*
X81325000Y-153409000D02*
X84504282Y-153409000D01*
%TO.N,/pc070_aida_hdmi_rpc_hdmi_single5/BUSY\u002A*%
X83590000Y-152409000D02*
X84140000Y-152409000D01*
X84140000Y-152409000D02*
X85090000Y-153359000D01*
X94164500Y-148409000D02*
X93940000Y-148184500D01*
X98765000Y-148409000D02*
X94164500Y-148409000D01*
X81325000Y-152409000D02*
X83590000Y-152409000D01*
X85090000Y-153359000D02*
X93940000Y-153359000D01*
%TO.N,/pc070_aida_hdmi_rpc_hdmi_single5/SPARE*%
X97300978Y-148909000D02*
X98765000Y-148909000D01*
X96950978Y-149259000D02*
X97300978Y-148909000D01*
X91290000Y-148909000D02*
X91640000Y-149259000D01*
X83089022Y-150109000D02*
X89290000Y-150109000D01*
X81325000Y-150409000D02*
X82789022Y-150409000D01*
X91640000Y-149259000D02*
X96950978Y-149259000D01*
X89290000Y-150109000D02*
X89590000Y-150409000D01*
X82789022Y-150409000D02*
X83089022Y-150109000D01*
%TO.N,/pc070_aida_hdmi_rpc_hdmi_single5/SPARE\u002A*%
X89865094Y-149659480D02*
X82902825Y-149659480D01*
X82652345Y-149409000D02*
X81325000Y-149409000D01*
X89914134Y-149708520D02*
X89865094Y-149659480D01*
X82902825Y-149659480D02*
X82652345Y-149409000D01*
X98765000Y-149909000D02*
X97337655Y-149909000D01*
X97137175Y-149708520D02*
X89914134Y-149708520D01*
X97337655Y-149909000D02*
X97137175Y-149708520D01*
%TO.N,/pc070_aida_hdmi_rpc_hdmi_single5/TRIG*%
X87965500Y-151409000D02*
X87690000Y-151133500D01*
X86240000Y-151909000D02*
X81325000Y-151909000D01*
X98765000Y-151409000D02*
X87965500Y-151409000D01*
%TO.N,/pc070_aida_hdmi_rpc_hdmi_single5/TRIG\u002A*%
X98765000Y-151909000D02*
X87290000Y-151909000D01*
X86290000Y-150909000D02*
X81325000Y-150909000D01*
X87290000Y-151909000D02*
X86290000Y-150909000D01*
%TO.N,/pc070_aida_hdmi_rpc_hdmi_single3/CLK*%
X98765000Y-167015000D02*
X86740000Y-167015000D01*
X81325000Y-171515000D02*
X85590000Y-171515000D01*
X85590000Y-171515000D02*
X86490000Y-170615000D01*
X86740000Y-167015000D02*
X86490000Y-166765000D01*
%TO.N,/pc070_aida_hdmi_rpc_hdmi_single3/CLK\u002A*%
X81325000Y-170515000D02*
X85390000Y-170515000D01*
X95840000Y-167515000D02*
X85390000Y-167515000D01*
X98765000Y-168015000D02*
X96340000Y-168015000D01*
X96340000Y-168015000D02*
X95840000Y-167515000D01*
%TO.N,/pc070_aida_hdmi_rpc_hdmi_single3/CONT*%
X91290000Y-168565000D02*
X91490000Y-168765000D01*
X81325000Y-169015000D02*
X89165402Y-169015000D01*
X89165402Y-169015000D02*
X89514951Y-169364549D01*
X91490000Y-168765000D02*
X97050978Y-168765000D01*
X97050978Y-168765000D02*
X97300978Y-168515000D01*
X97300978Y-168515000D02*
X98765000Y-168515000D01*
%TO.N,/pc070_aida_hdmi_rpc_hdmi_single3/CONT\u002A*%
X91665094Y-169214520D02*
X97000498Y-169214520D01*
X97000498Y-169214520D02*
X97300978Y-169515000D01*
X89690000Y-168515000D02*
X90464511Y-169289511D01*
X91590103Y-169289511D02*
X91665094Y-169214520D01*
X90464511Y-169289511D02*
X91590103Y-169289511D01*
X97300978Y-169515000D02*
X98765000Y-169515000D01*
X81325000Y-168515000D02*
X89690000Y-168515000D01*
%TO.N,/pc070_aida_hdmi_rpc_hdmi_single3/BUSY*%
X84504282Y-176015000D02*
X84904282Y-176415000D01*
X84904282Y-176415000D02*
X85740000Y-176415000D01*
X95290000Y-170015000D02*
X95040000Y-170265000D01*
X95040000Y-176065000D02*
X94864614Y-176065000D01*
X98765000Y-170015000D02*
X95290000Y-170015000D01*
X94864614Y-176065000D02*
X94240103Y-176689511D01*
X81325000Y-176015000D02*
X84504282Y-176015000D01*
X94240103Y-176689511D02*
X93639897Y-176689511D01*
X93364906Y-176414520D02*
X85640480Y-176414520D01*
X93639897Y-176689511D02*
X93364906Y-176414520D01*
%TO.N,/pc070_aida_hdmi_rpc_hdmi_single3/BUSY\u002A*%
X83590000Y-175015000D02*
X84140000Y-175015000D01*
X84140000Y-175015000D02*
X85090000Y-175965000D01*
X94164500Y-171015000D02*
X93940000Y-170790500D01*
X98765000Y-171015000D02*
X94164500Y-171015000D01*
X81325000Y-175015000D02*
X83590000Y-175015000D01*
X85090000Y-175965000D02*
X93940000Y-175965000D01*
%TO.N,/pc070_aida_hdmi_rpc_hdmi_single3/SPARE*%
X97300978Y-171515000D02*
X98765000Y-171515000D01*
X96950978Y-171865000D02*
X97300978Y-171515000D01*
X91290000Y-171515000D02*
X91640000Y-171865000D01*
X83089022Y-172715000D02*
X89290000Y-172715000D01*
X81325000Y-173015000D02*
X82789022Y-173015000D01*
X91640000Y-171865000D02*
X96950978Y-171865000D01*
X89290000Y-172715000D02*
X89590000Y-173015000D01*
X82789022Y-173015000D02*
X83089022Y-172715000D01*
%TO.N,/pc070_aida_hdmi_rpc_hdmi_single3/SPARE\u002A*%
X89865094Y-172265480D02*
X82902825Y-172265480D01*
X82652345Y-172015000D02*
X81325000Y-172015000D01*
X89914134Y-172314520D02*
X89865094Y-172265480D01*
X82902825Y-172265480D02*
X82652345Y-172015000D01*
X98765000Y-172515000D02*
X97337655Y-172515000D01*
X97137175Y-172314520D02*
X89914134Y-172314520D01*
X97337655Y-172515000D02*
X97137175Y-172314520D01*
%TO.N,/pc070_aida_hdmi_rpc_hdmi_single3/TRIG*%
X87965500Y-174015000D02*
X87690000Y-173739500D01*
X86240000Y-174515000D02*
X81325000Y-174515000D01*
X98765000Y-174015000D02*
X87965500Y-174015000D01*
%TO.N,/pc070_aida_hdmi_rpc_hdmi_single3/TRIG\u002A*%
X98765000Y-174515000D02*
X87290000Y-174515000D01*
X86290000Y-173515000D02*
X81325000Y-173515000D01*
X87290000Y-174515000D02*
X86290000Y-173515000D01*
%TD*%
M02*
