%TF.GenerationSoftware,KiCad,Pcbnew,6.0.7-1.fc36*%
%TF.CreationDate,2022-07-28T17:35:04+01:00*%
%TF.ProjectId,pc070_aida_hdmi_rpc_hdmi,70633037-305f-4616-9964-615f68646d69,rev?*%
%TF.SameCoordinates,Original*%
%TF.FileFunction,Soldermask,Top*%
%TF.FilePolarity,Negative*%
%FSLAX46Y46*%
G04 Gerber Fmt 4.6, Leading zero omitted, Abs format (unit mm)*
G04 Created by KiCad (PCBNEW 6.0.7-1.fc36) date 2022-07-28 17:35:04*
%MOMM*%
%LPD*%
G01*
G04 APERTURE LIST*
%ADD10R,2.350000X0.280000*%
%ADD11O,3.200000X1.600000*%
%ADD12O,2.820000X1.410000*%
%ADD13C,3.600000*%
%ADD14C,5.600000*%
G04 APERTURE END LIST*
D10*
%TO.C,J2*%
X98675000Y-53985000D03*
X98675000Y-54485000D03*
X98675000Y-54985000D03*
X98675000Y-55485000D03*
X98675000Y-55985000D03*
X98675000Y-56485000D03*
X98675000Y-56985000D03*
X98675000Y-57485000D03*
X98675000Y-57985000D03*
X98675000Y-58485000D03*
X98675000Y-58985000D03*
X98675000Y-59485000D03*
X98675000Y-59985000D03*
X98675000Y-60485000D03*
X98675000Y-60985000D03*
X98675000Y-61485000D03*
X98675000Y-61985000D03*
X98675000Y-62485000D03*
X98675000Y-62985000D03*
D11*
X99300000Y-65735000D03*
X99300000Y-51235000D03*
D12*
X105260000Y-65735000D03*
X105260000Y-51235000D03*
%TD*%
D10*
%TO.C,J9*%
X81325000Y-153409000D03*
X81325000Y-152909000D03*
X81325000Y-152409000D03*
X81325000Y-151909000D03*
X81325000Y-151409000D03*
X81325000Y-150909000D03*
X81325000Y-150409000D03*
X81325000Y-149909000D03*
X81325000Y-149409000D03*
X81325000Y-148909000D03*
X81325000Y-148409000D03*
X81325000Y-147909000D03*
X81325000Y-147409000D03*
X81325000Y-146909000D03*
X81325000Y-146409000D03*
X81325000Y-145909000D03*
X81325000Y-145409000D03*
X81325000Y-144909000D03*
X81325000Y-144409000D03*
D11*
X80700000Y-141659000D03*
X80700000Y-156159000D03*
D12*
X74740000Y-141659000D03*
X74740000Y-156159000D03*
%TD*%
D13*
%TO.C,H3*%
X105000000Y-185000000D03*
D14*
X105000000Y-185000000D03*
%TD*%
%TO.C,H4*%
X75000000Y-185000000D03*
D13*
X75000000Y-185000000D03*
%TD*%
D10*
%TO.C,J8*%
X98765000Y-121803000D03*
X98765000Y-122303000D03*
X98765000Y-122803000D03*
X98765000Y-123303000D03*
X98765000Y-123803000D03*
X98765000Y-124303000D03*
X98765000Y-124803000D03*
X98765000Y-125303000D03*
X98765000Y-125803000D03*
X98765000Y-126303000D03*
X98765000Y-126803000D03*
X98765000Y-127303000D03*
X98765000Y-127803000D03*
X98765000Y-128303000D03*
X98765000Y-128803000D03*
X98765000Y-129303000D03*
X98765000Y-129803000D03*
X98765000Y-130303000D03*
X98765000Y-130803000D03*
D11*
X99390000Y-133553000D03*
X99390000Y-119053000D03*
D12*
X105350000Y-133553000D03*
X105350000Y-119053000D03*
%TD*%
D10*
%TO.C,J6*%
X98765000Y-99197000D03*
X98765000Y-99697000D03*
X98765000Y-100197000D03*
X98765000Y-100697000D03*
X98765000Y-101197000D03*
X98765000Y-101697000D03*
X98765000Y-102197000D03*
X98765000Y-102697000D03*
X98765000Y-103197000D03*
X98765000Y-103697000D03*
X98765000Y-104197000D03*
X98765000Y-104697000D03*
X98765000Y-105197000D03*
X98765000Y-105697000D03*
X98765000Y-106197000D03*
X98765000Y-106697000D03*
X98765000Y-107197000D03*
X98765000Y-107697000D03*
X98765000Y-108197000D03*
D11*
X99390000Y-110947000D03*
X99390000Y-96447000D03*
D12*
X105350000Y-110947000D03*
X105350000Y-96447000D03*
%TD*%
D10*
%TO.C,J12*%
X98765000Y-167015000D03*
X98765000Y-167515000D03*
X98765000Y-168015000D03*
X98765000Y-168515000D03*
X98765000Y-169015000D03*
X98765000Y-169515000D03*
X98765000Y-170015000D03*
X98765000Y-170515000D03*
X98765000Y-171015000D03*
X98765000Y-171515000D03*
X98765000Y-172015000D03*
X98765000Y-172515000D03*
X98765000Y-173015000D03*
X98765000Y-173515000D03*
X98765000Y-174015000D03*
X98765000Y-174515000D03*
X98765000Y-175015000D03*
X98765000Y-175515000D03*
X98765000Y-176015000D03*
D11*
X99390000Y-178765000D03*
X99390000Y-164265000D03*
D12*
X105350000Y-178765000D03*
X105350000Y-164265000D03*
%TD*%
D10*
%TO.C,J3*%
X81325000Y-85591000D03*
X81325000Y-85091000D03*
X81325000Y-84591000D03*
X81325000Y-84091000D03*
X81325000Y-83591000D03*
X81325000Y-83091000D03*
X81325000Y-82591000D03*
X81325000Y-82091000D03*
X81325000Y-81591000D03*
X81325000Y-81091000D03*
X81325000Y-80591000D03*
X81325000Y-80091000D03*
X81325000Y-79591000D03*
X81325000Y-79091000D03*
X81325000Y-78591000D03*
X81325000Y-78091000D03*
X81325000Y-77591000D03*
X81325000Y-77091000D03*
X81325000Y-76591000D03*
D11*
X80700000Y-73841000D03*
X80700000Y-88341000D03*
D12*
X74740000Y-73841000D03*
X74740000Y-88341000D03*
%TD*%
D10*
%TO.C,J1*%
X81235000Y-62985000D03*
X81235000Y-62485000D03*
X81235000Y-61985000D03*
X81235000Y-61485000D03*
X81235000Y-60985000D03*
X81235000Y-60485000D03*
X81235000Y-59985000D03*
X81235000Y-59485000D03*
X81235000Y-58985000D03*
X81235000Y-58485000D03*
X81235000Y-57985000D03*
X81235000Y-57485000D03*
X81235000Y-56985000D03*
X81235000Y-56485000D03*
X81235000Y-55985000D03*
X81235000Y-55485000D03*
X81235000Y-54985000D03*
X81235000Y-54485000D03*
X81235000Y-53985000D03*
D11*
X80610000Y-51235000D03*
X80610000Y-65735000D03*
D12*
X74650000Y-51235000D03*
X74650000Y-65735000D03*
%TD*%
D13*
%TO.C,H2*%
X105000000Y-45000000D03*
D14*
X105000000Y-45000000D03*
%TD*%
D10*
%TO.C,J7*%
X81325000Y-130803000D03*
X81325000Y-130303000D03*
X81325000Y-129803000D03*
X81325000Y-129303000D03*
X81325000Y-128803000D03*
X81325000Y-128303000D03*
X81325000Y-127803000D03*
X81325000Y-127303000D03*
X81325000Y-126803000D03*
X81325000Y-126303000D03*
X81325000Y-125803000D03*
X81325000Y-125303000D03*
X81325000Y-124803000D03*
X81325000Y-124303000D03*
X81325000Y-123803000D03*
X81325000Y-123303000D03*
X81325000Y-122803000D03*
X81325000Y-122303000D03*
X81325000Y-121803000D03*
D11*
X80700000Y-119053000D03*
X80700000Y-133553000D03*
D12*
X74740000Y-119053000D03*
X74740000Y-133553000D03*
%TD*%
D10*
%TO.C,J11*%
X81325000Y-176015000D03*
X81325000Y-175515000D03*
X81325000Y-175015000D03*
X81325000Y-174515000D03*
X81325000Y-174015000D03*
X81325000Y-173515000D03*
X81325000Y-173015000D03*
X81325000Y-172515000D03*
X81325000Y-172015000D03*
X81325000Y-171515000D03*
X81325000Y-171015000D03*
X81325000Y-170515000D03*
X81325000Y-170015000D03*
X81325000Y-169515000D03*
X81325000Y-169015000D03*
X81325000Y-168515000D03*
X81325000Y-168015000D03*
X81325000Y-167515000D03*
X81325000Y-167015000D03*
D11*
X80700000Y-164265000D03*
X80700000Y-178765000D03*
D12*
X74740000Y-164265000D03*
X74740000Y-178765000D03*
%TD*%
D14*
%TO.C,H1*%
X75000000Y-45000000D03*
D13*
X75000000Y-45000000D03*
%TD*%
D10*
%TO.C,J4*%
X98765000Y-76591000D03*
X98765000Y-77091000D03*
X98765000Y-77591000D03*
X98765000Y-78091000D03*
X98765000Y-78591000D03*
X98765000Y-79091000D03*
X98765000Y-79591000D03*
X98765000Y-80091000D03*
X98765000Y-80591000D03*
X98765000Y-81091000D03*
X98765000Y-81591000D03*
X98765000Y-82091000D03*
X98765000Y-82591000D03*
X98765000Y-83091000D03*
X98765000Y-83591000D03*
X98765000Y-84091000D03*
X98765000Y-84591000D03*
X98765000Y-85091000D03*
X98765000Y-85591000D03*
D11*
X99390000Y-88341000D03*
X99390000Y-73841000D03*
D12*
X105350000Y-88341000D03*
X105350000Y-73841000D03*
%TD*%
D10*
%TO.C,J10*%
X98765000Y-144409000D03*
X98765000Y-144909000D03*
X98765000Y-145409000D03*
X98765000Y-145909000D03*
X98765000Y-146409000D03*
X98765000Y-146909000D03*
X98765000Y-147409000D03*
X98765000Y-147909000D03*
X98765000Y-148409000D03*
X98765000Y-148909000D03*
X98765000Y-149409000D03*
X98765000Y-149909000D03*
X98765000Y-150409000D03*
X98765000Y-150909000D03*
X98765000Y-151409000D03*
X98765000Y-151909000D03*
X98765000Y-152409000D03*
X98765000Y-152909000D03*
X98765000Y-153409000D03*
D11*
X99390000Y-156159000D03*
X99390000Y-141659000D03*
D12*
X105350000Y-156159000D03*
X105350000Y-141659000D03*
%TD*%
D10*
%TO.C,J5*%
X81325000Y-108197000D03*
X81325000Y-107697000D03*
X81325000Y-107197000D03*
X81325000Y-106697000D03*
X81325000Y-106197000D03*
X81325000Y-105697000D03*
X81325000Y-105197000D03*
X81325000Y-104697000D03*
X81325000Y-104197000D03*
X81325000Y-103697000D03*
X81325000Y-103197000D03*
X81325000Y-102697000D03*
X81325000Y-102197000D03*
X81325000Y-101697000D03*
X81325000Y-101197000D03*
X81325000Y-100697000D03*
X81325000Y-100197000D03*
X81325000Y-99697000D03*
X81325000Y-99197000D03*
D11*
X80700000Y-96447000D03*
X80700000Y-110947000D03*
D12*
X74740000Y-96447000D03*
X74740000Y-110947000D03*
%TD*%
M02*
