%TF.GenerationSoftware,KiCad,Pcbnew,6.0.7-1.fc36*%
%TF.CreationDate,2022-07-28T17:35:04+01:00*%
%TF.ProjectId,pc070_aida_hdmi_rpc_hdmi,70633037-305f-4616-9964-615f68646d69,rev?*%
%TF.SameCoordinates,Original*%
%TF.FileFunction,Legend,Top*%
%TF.FilePolarity,Positive*%
%FSLAX46Y46*%
G04 Gerber Fmt 4.6, Leading zero omitted, Abs format (unit mm)*
G04 Created by KiCad (PCBNEW 6.0.7-1.fc36) date 2022-07-28 17:35:04*
%MOMM*%
%LPD*%
G01*
G04 APERTURE LIST*
%ADD10C,0.150000*%
%ADD11C,0.200000*%
G04 APERTURE END LIST*
D10*
%TO.C,J2*%
X94317380Y-63143333D02*
X95031666Y-63143333D01*
X95174523Y-63190952D01*
X95269761Y-63286190D01*
X95317380Y-63429047D01*
X95317380Y-63524285D01*
X94412619Y-62714761D02*
X94365000Y-62667142D01*
X94317380Y-62571904D01*
X94317380Y-62333809D01*
X94365000Y-62238571D01*
X94412619Y-62190952D01*
X94507857Y-62143333D01*
X94603095Y-62143333D01*
X94745952Y-62190952D01*
X95317380Y-62762380D01*
X95317380Y-62143333D01*
%TO.C,J9*%
X84587380Y-144917333D02*
X85301666Y-144917333D01*
X85444523Y-144964952D01*
X85539761Y-145060190D01*
X85587380Y-145203047D01*
X85587380Y-145298285D01*
X85587380Y-144393523D02*
X85587380Y-144203047D01*
X85539761Y-144107809D01*
X85492142Y-144060190D01*
X85349285Y-143964952D01*
X85158809Y-143917333D01*
X84777857Y-143917333D01*
X84682619Y-143964952D01*
X84635000Y-144012571D01*
X84587380Y-144107809D01*
X84587380Y-144298285D01*
X84635000Y-144393523D01*
X84682619Y-144441142D01*
X84777857Y-144488761D01*
X85015952Y-144488761D01*
X85111190Y-144441142D01*
X85158809Y-144393523D01*
X85206428Y-144298285D01*
X85206428Y-144107809D01*
X85158809Y-144012571D01*
X85111190Y-143964952D01*
X85015952Y-143917333D01*
%TO.C,H3*%
X104238095Y-181652380D02*
X104238095Y-180652380D01*
X104238095Y-181128571D02*
X104809523Y-181128571D01*
X104809523Y-181652380D02*
X104809523Y-180652380D01*
X105190476Y-180652380D02*
X105809523Y-180652380D01*
X105476190Y-181033333D01*
X105619047Y-181033333D01*
X105714285Y-181080952D01*
X105761904Y-181128571D01*
X105809523Y-181223809D01*
X105809523Y-181461904D01*
X105761904Y-181557142D01*
X105714285Y-181604761D01*
X105619047Y-181652380D01*
X105333333Y-181652380D01*
X105238095Y-181604761D01*
X105190476Y-181557142D01*
%TO.C,H4*%
X74238095Y-181652380D02*
X74238095Y-180652380D01*
X74238095Y-181128571D02*
X74809523Y-181128571D01*
X74809523Y-181652380D02*
X74809523Y-180652380D01*
X75714285Y-180985714D02*
X75714285Y-181652380D01*
X75476190Y-180604761D02*
X75238095Y-181319047D01*
X75857142Y-181319047D01*
%TO.C,J8*%
X94407380Y-130961333D02*
X95121666Y-130961333D01*
X95264523Y-131008952D01*
X95359761Y-131104190D01*
X95407380Y-131247047D01*
X95407380Y-131342285D01*
X94835952Y-130342285D02*
X94788333Y-130437523D01*
X94740714Y-130485142D01*
X94645476Y-130532761D01*
X94597857Y-130532761D01*
X94502619Y-130485142D01*
X94455000Y-130437523D01*
X94407380Y-130342285D01*
X94407380Y-130151809D01*
X94455000Y-130056571D01*
X94502619Y-130008952D01*
X94597857Y-129961333D01*
X94645476Y-129961333D01*
X94740714Y-130008952D01*
X94788333Y-130056571D01*
X94835952Y-130151809D01*
X94835952Y-130342285D01*
X94883571Y-130437523D01*
X94931190Y-130485142D01*
X95026428Y-130532761D01*
X95216904Y-130532761D01*
X95312142Y-130485142D01*
X95359761Y-130437523D01*
X95407380Y-130342285D01*
X95407380Y-130151809D01*
X95359761Y-130056571D01*
X95312142Y-130008952D01*
X95216904Y-129961333D01*
X95026428Y-129961333D01*
X94931190Y-130008952D01*
X94883571Y-130056571D01*
X94835952Y-130151809D01*
%TO.C,J6*%
X94407380Y-108355333D02*
X95121666Y-108355333D01*
X95264523Y-108402952D01*
X95359761Y-108498190D01*
X95407380Y-108641047D01*
X95407380Y-108736285D01*
X94407380Y-107450571D02*
X94407380Y-107641047D01*
X94455000Y-107736285D01*
X94502619Y-107783904D01*
X94645476Y-107879142D01*
X94835952Y-107926761D01*
X95216904Y-107926761D01*
X95312142Y-107879142D01*
X95359761Y-107831523D01*
X95407380Y-107736285D01*
X95407380Y-107545809D01*
X95359761Y-107450571D01*
X95312142Y-107402952D01*
X95216904Y-107355333D01*
X94978809Y-107355333D01*
X94883571Y-107402952D01*
X94835952Y-107450571D01*
X94788333Y-107545809D01*
X94788333Y-107736285D01*
X94835952Y-107831523D01*
X94883571Y-107879142D01*
X94978809Y-107926761D01*
%TO.C,J12*%
X94407380Y-176649523D02*
X95121666Y-176649523D01*
X95264523Y-176697142D01*
X95359761Y-176792380D01*
X95407380Y-176935238D01*
X95407380Y-177030476D01*
X95407380Y-175649523D02*
X95407380Y-176220952D01*
X95407380Y-175935238D02*
X94407380Y-175935238D01*
X94550238Y-176030476D01*
X94645476Y-176125714D01*
X94693095Y-176220952D01*
X94502619Y-175268571D02*
X94455000Y-175220952D01*
X94407380Y-175125714D01*
X94407380Y-174887619D01*
X94455000Y-174792380D01*
X94502619Y-174744761D01*
X94597857Y-174697142D01*
X94693095Y-174697142D01*
X94835952Y-174744761D01*
X95407380Y-175316190D01*
X95407380Y-174697142D01*
%TO.C,J3*%
X84587380Y-77099333D02*
X85301666Y-77099333D01*
X85444523Y-77146952D01*
X85539761Y-77242190D01*
X85587380Y-77385047D01*
X85587380Y-77480285D01*
X84587380Y-76718380D02*
X84587380Y-76099333D01*
X84968333Y-76432666D01*
X84968333Y-76289809D01*
X85015952Y-76194571D01*
X85063571Y-76146952D01*
X85158809Y-76099333D01*
X85396904Y-76099333D01*
X85492142Y-76146952D01*
X85539761Y-76194571D01*
X85587380Y-76289809D01*
X85587380Y-76575523D01*
X85539761Y-76670761D01*
X85492142Y-76718380D01*
%TO.C,J1*%
X84497380Y-54493333D02*
X85211666Y-54493333D01*
X85354523Y-54540952D01*
X85449761Y-54636190D01*
X85497380Y-54779047D01*
X85497380Y-54874285D01*
X85497380Y-53493333D02*
X85497380Y-54064761D01*
X85497380Y-53779047D02*
X84497380Y-53779047D01*
X84640238Y-53874285D01*
X84735476Y-53969523D01*
X84783095Y-54064761D01*
%TO.C,H2*%
X104238095Y-41652380D02*
X104238095Y-40652380D01*
X104238095Y-41128571D02*
X104809523Y-41128571D01*
X104809523Y-41652380D02*
X104809523Y-40652380D01*
X105238095Y-40747619D02*
X105285714Y-40700000D01*
X105380952Y-40652380D01*
X105619047Y-40652380D01*
X105714285Y-40700000D01*
X105761904Y-40747619D01*
X105809523Y-40842857D01*
X105809523Y-40938095D01*
X105761904Y-41080952D01*
X105190476Y-41652380D01*
X105809523Y-41652380D01*
%TO.C,J7*%
X84587380Y-122311333D02*
X85301666Y-122311333D01*
X85444523Y-122358952D01*
X85539761Y-122454190D01*
X85587380Y-122597047D01*
X85587380Y-122692285D01*
X84587380Y-121930380D02*
X84587380Y-121263714D01*
X85587380Y-121692285D01*
%TO.C,J11*%
X84587380Y-167999523D02*
X85301666Y-167999523D01*
X85444523Y-168047142D01*
X85539761Y-168142380D01*
X85587380Y-168285238D01*
X85587380Y-168380476D01*
X85587380Y-166999523D02*
X85587380Y-167570952D01*
X85587380Y-167285238D02*
X84587380Y-167285238D01*
X84730238Y-167380476D01*
X84825476Y-167475714D01*
X84873095Y-167570952D01*
X85587380Y-166047142D02*
X85587380Y-166618571D01*
X85587380Y-166332857D02*
X84587380Y-166332857D01*
X84730238Y-166428095D01*
X84825476Y-166523333D01*
X84873095Y-166618571D01*
%TO.C,H1*%
X74238095Y-41652380D02*
X74238095Y-40652380D01*
X74238095Y-41128571D02*
X74809523Y-41128571D01*
X74809523Y-41652380D02*
X74809523Y-40652380D01*
X75809523Y-41652380D02*
X75238095Y-41652380D01*
X75523809Y-41652380D02*
X75523809Y-40652380D01*
X75428571Y-40795238D01*
X75333333Y-40890476D01*
X75238095Y-40938095D01*
%TO.C,J4*%
X94407380Y-85749333D02*
X95121666Y-85749333D01*
X95264523Y-85796952D01*
X95359761Y-85892190D01*
X95407380Y-86035047D01*
X95407380Y-86130285D01*
X94740714Y-84844571D02*
X95407380Y-84844571D01*
X94359761Y-85082666D02*
X95074047Y-85320761D01*
X95074047Y-84701714D01*
%TO.C,J10*%
X94407380Y-154043523D02*
X95121666Y-154043523D01*
X95264523Y-154091142D01*
X95359761Y-154186380D01*
X95407380Y-154329238D01*
X95407380Y-154424476D01*
X95407380Y-153043523D02*
X95407380Y-153614952D01*
X95407380Y-153329238D02*
X94407380Y-153329238D01*
X94550238Y-153424476D01*
X94645476Y-153519714D01*
X94693095Y-153614952D01*
X94407380Y-152424476D02*
X94407380Y-152329238D01*
X94455000Y-152234000D01*
X94502619Y-152186380D01*
X94597857Y-152138761D01*
X94788333Y-152091142D01*
X95026428Y-152091142D01*
X95216904Y-152138761D01*
X95312142Y-152186380D01*
X95359761Y-152234000D01*
X95407380Y-152329238D01*
X95407380Y-152424476D01*
X95359761Y-152519714D01*
X95312142Y-152567333D01*
X95216904Y-152614952D01*
X95026428Y-152662571D01*
X94788333Y-152662571D01*
X94597857Y-152614952D01*
X94502619Y-152567333D01*
X94455000Y-152519714D01*
X94407380Y-152424476D01*
%TO.C,J5*%
X84587380Y-99705333D02*
X85301666Y-99705333D01*
X85444523Y-99752952D01*
X85539761Y-99848190D01*
X85587380Y-99991047D01*
X85587380Y-100086285D01*
X84587380Y-98752952D02*
X84587380Y-99229142D01*
X85063571Y-99276761D01*
X85015952Y-99229142D01*
X84968333Y-99133904D01*
X84968333Y-98895809D01*
X85015952Y-98800571D01*
X85063571Y-98752952D01*
X85158809Y-98705333D01*
X85396904Y-98705333D01*
X85492142Y-98752952D01*
X85539761Y-98800571D01*
X85587380Y-98895809D01*
X85587380Y-99133904D01*
X85539761Y-99229142D01*
X85492142Y-99276761D01*
D11*
%TO.C,J2*%
X109860000Y-50980000D02*
X107150000Y-50980000D01*
X103250000Y-65990000D02*
X101800000Y-65990000D01*
X109860000Y-65990000D02*
X109860000Y-50980000D01*
X103250000Y-50980000D02*
X101800000Y-50980000D01*
X107150000Y-65990000D02*
X109860000Y-65990000D01*
X96846000Y-53985000D02*
G75*
G03*
X96846000Y-53985000I-100000J0D01*
G01*
%TO.C,J9*%
X70140000Y-156414000D02*
X72850000Y-156414000D01*
X76750000Y-156414000D02*
X78200000Y-156414000D01*
X76750000Y-141404000D02*
X78200000Y-141404000D01*
X72850000Y-141404000D02*
X70140000Y-141404000D01*
X70140000Y-141404000D02*
X70140000Y-156414000D01*
X83354000Y-153409000D02*
G75*
G03*
X83354000Y-153409000I-100000J0D01*
G01*
%TO.C,J8*%
X103340000Y-118798000D02*
X101890000Y-118798000D01*
X103340000Y-133808000D02*
X101890000Y-133808000D01*
X109950000Y-118798000D02*
X107240000Y-118798000D01*
X109950000Y-133808000D02*
X109950000Y-118798000D01*
X107240000Y-133808000D02*
X109950000Y-133808000D01*
X96936000Y-121803000D02*
G75*
G03*
X96936000Y-121803000I-100000J0D01*
G01*
%TO.C,J6*%
X109950000Y-96192000D02*
X107240000Y-96192000D01*
X103340000Y-96192000D02*
X101890000Y-96192000D01*
X107240000Y-111202000D02*
X109950000Y-111202000D01*
X103340000Y-111202000D02*
X101890000Y-111202000D01*
X109950000Y-111202000D02*
X109950000Y-96192000D01*
X96936000Y-99197000D02*
G75*
G03*
X96936000Y-99197000I-100000J0D01*
G01*
%TO.C,J12*%
X109950000Y-164010000D02*
X107240000Y-164010000D01*
X103340000Y-164010000D02*
X101890000Y-164010000D01*
X107240000Y-179020000D02*
X109950000Y-179020000D01*
X103340000Y-179020000D02*
X101890000Y-179020000D01*
X109950000Y-179020000D02*
X109950000Y-164010000D01*
X96936000Y-167015000D02*
G75*
G03*
X96936000Y-167015000I-100000J0D01*
G01*
%TO.C,J3*%
X72850000Y-73586000D02*
X70140000Y-73586000D01*
X76750000Y-73586000D02*
X78200000Y-73586000D01*
X76750000Y-88596000D02*
X78200000Y-88596000D01*
X70140000Y-88596000D02*
X72850000Y-88596000D01*
X70140000Y-73586000D02*
X70140000Y-88596000D01*
X83354000Y-85591000D02*
G75*
G03*
X83354000Y-85591000I-100000J0D01*
G01*
%TO.C,J1*%
X70050000Y-50980000D02*
X70050000Y-65990000D01*
X76660000Y-65990000D02*
X78110000Y-65990000D01*
X76660000Y-50980000D02*
X78110000Y-50980000D01*
X70050000Y-65990000D02*
X72760000Y-65990000D01*
X72760000Y-50980000D02*
X70050000Y-50980000D01*
X83264000Y-62985000D02*
G75*
G03*
X83264000Y-62985000I-100000J0D01*
G01*
%TO.C,J7*%
X70140000Y-133808000D02*
X72850000Y-133808000D01*
X76750000Y-118798000D02*
X78200000Y-118798000D01*
X70140000Y-118798000D02*
X70140000Y-133808000D01*
X72850000Y-118798000D02*
X70140000Y-118798000D01*
X76750000Y-133808000D02*
X78200000Y-133808000D01*
X83354000Y-130803000D02*
G75*
G03*
X83354000Y-130803000I-100000J0D01*
G01*
%TO.C,J11*%
X70140000Y-164010000D02*
X70140000Y-179020000D01*
X72850000Y-164010000D02*
X70140000Y-164010000D01*
X76750000Y-179020000D02*
X78200000Y-179020000D01*
X76750000Y-164010000D02*
X78200000Y-164010000D01*
X70140000Y-179020000D02*
X72850000Y-179020000D01*
X83354000Y-176015000D02*
G75*
G03*
X83354000Y-176015000I-100000J0D01*
G01*
%TO.C,J4*%
X103340000Y-88596000D02*
X101890000Y-88596000D01*
X103340000Y-73586000D02*
X101890000Y-73586000D01*
X109950000Y-73586000D02*
X107240000Y-73586000D01*
X107240000Y-88596000D02*
X109950000Y-88596000D01*
X109950000Y-88596000D02*
X109950000Y-73586000D01*
X96936000Y-76591000D02*
G75*
G03*
X96936000Y-76591000I-100000J0D01*
G01*
%TO.C,J10*%
X107240000Y-156414000D02*
X109950000Y-156414000D01*
X109950000Y-141404000D02*
X107240000Y-141404000D01*
X103340000Y-156414000D02*
X101890000Y-156414000D01*
X103340000Y-141404000D02*
X101890000Y-141404000D01*
X109950000Y-156414000D02*
X109950000Y-141404000D01*
X96936000Y-144409000D02*
G75*
G03*
X96936000Y-144409000I-100000J0D01*
G01*
%TO.C,J5*%
X72850000Y-96192000D02*
X70140000Y-96192000D01*
X76750000Y-96192000D02*
X78200000Y-96192000D01*
X70140000Y-111202000D02*
X72850000Y-111202000D01*
X76750000Y-111202000D02*
X78200000Y-111202000D01*
X70140000Y-96192000D02*
X70140000Y-111202000D01*
X83354000Y-108197000D02*
G75*
G03*
X83354000Y-108197000I-100000J0D01*
G01*
%TD*%
M02*
