M48
; DRILL file {KiCad 6.0.7-1.fc36} date Thu 28 Jul 2022 16:01:28 BST
; FORMAT={-:-/ absolute / metric / decimal}
; #@! TF.CreationDate,2022-07-28T16:01:28+01:00
; #@! TF.GenerationSoftware,Kicad,Pcbnew,6.0.7-1.fc36
; #@! TF.FileFunction,Plated,1,4,PTH
FMAT,2
METRIC
; #@! TA.AperFunction,Plated,PTH,ViaDrill
T1C0.400
; #@! TA.AperFunction,Plated,PTH,ComponentDrill
T2C0.900
; #@! TA.AperFunction,Plated,PTH,ComponentDrill
T3C3.200
%
G90
G05
T1
X79.563Y-59.461
X79.564Y-61.008
X79.569Y-57.968
X79.574Y-62.475
X79.653Y-82.067
X79.653Y-104.673
X79.653Y-127.279
X79.653Y-149.885
X79.653Y-172.491
X79.654Y-83.614
X79.654Y-106.22
X79.654Y-128.826
X79.654Y-151.432
X79.654Y-174.038
X79.659Y-80.574
X79.659Y-103.18
X79.659Y-125.786
X79.659Y-148.392
X79.659Y-170.998
X79.664Y-85.081
X79.664Y-107.687
X79.664Y-130.293
X79.664Y-152.899
X79.664Y-175.505
X85.3Y-54.485
X85.3Y-57.485
X85.39Y-77.091
X85.39Y-80.091
X85.39Y-99.697
X85.39Y-102.697
X85.39Y-122.303
X85.39Y-125.303
X85.39Y-144.909
X85.39Y-147.909
X85.39Y-167.515
X85.39Y-170.515
X86.15Y-61.485
X86.24Y-84.091
X86.24Y-106.697
X86.24Y-129.303
X86.24Y-151.909
X86.24Y-174.515
X86.4Y-53.735
X86.4Y-57.585
X86.49Y-76.341
X86.49Y-80.191
X86.49Y-98.947
X86.49Y-102.797
X86.49Y-121.553
X86.49Y-125.403
X86.49Y-144.159
X86.49Y-148.009
X86.49Y-166.765
X86.49Y-170.615
X87.6Y-60.709
X87.69Y-83.316
X87.69Y-105.921
X87.69Y-128.528
X87.69Y-151.133
X87.69Y-173.739
X89.317Y-82.318
X89.425Y-56.335
X89.5Y-59.985
X89.515Y-78.941
X89.515Y-101.547
X89.515Y-124.153
X89.515Y-146.759
X89.515Y-169.365
X89.59Y-105.197
X89.59Y-127.803
X89.59Y-150.409
X89.59Y-173.015
X90.382Y-81.334
X91.2Y-55.535
X91.2Y-58.485
X91.29Y-78.141
X91.29Y-100.747
X91.29Y-103.697
X91.29Y-123.353
X91.29Y-126.303
X91.29Y-145.959
X91.29Y-148.909
X91.29Y-168.565
X91.29Y-171.515
X93.85Y-57.761
X93.85Y-62.935
X93.94Y-80.367
X93.94Y-85.541
X93.94Y-102.972
X93.94Y-108.147
X93.94Y-125.578
X93.94Y-130.753
X93.94Y-148.184
X93.94Y-153.359
X93.94Y-170.79
X93.94Y-175.965
X94.95Y-57.235
X94.95Y-63.035
X95.04Y-79.841
X95.04Y-85.641
X95.04Y-102.447
X95.04Y-108.247
X95.04Y-125.053
X95.04Y-130.853
X95.04Y-147.659
X95.04Y-153.459
X95.04Y-170.265
X95.04Y-176.065
X100.332Y-54.489
X100.336Y-57.494
X100.336Y-58.994
X100.342Y-55.967
X100.422Y-77.095
X100.422Y-99.701
X100.422Y-122.307
X100.422Y-144.913
X100.422Y-167.519
X100.426Y-80.1
X100.426Y-81.6
X100.426Y-102.706
X100.426Y-104.206
X100.426Y-125.312
X100.426Y-126.812
X100.426Y-147.918
X100.426Y-149.418
X100.426Y-170.524
X100.426Y-172.024
X100.432Y-78.573
X100.432Y-101.179
X100.432Y-123.785
X100.432Y-146.391
X100.432Y-168.997
T3
X75.0Y-45.0
X75.0Y-185.0
X105.0Y-45.0
X105.0Y-185.0
T2
G00X75.25Y-51.235
M15
G01X74.05Y-51.235
M16
G05
G00X75.25Y-65.735
M15
G01X74.05Y-65.735
M16
G05
G00X75.34Y-73.841
M15
G01X74.14Y-73.841
M16
G05
G00X75.34Y-88.341
M15
G01X74.14Y-88.341
M16
G05
G00X75.34Y-96.447
M15
G01X74.14Y-96.447
M16
G05
G00X75.34Y-110.947
M15
G01X74.14Y-110.947
M16
G05
G00X75.34Y-119.053
M15
G01X74.14Y-119.053
M16
G05
G00X75.34Y-133.553
M15
G01X74.14Y-133.553
M16
G05
G00X75.34Y-141.659
M15
G01X74.14Y-141.659
M16
G05
G00X75.34Y-156.159
M15
G01X74.14Y-156.159
M16
G05
G00X75.34Y-164.265
M15
G01X74.14Y-164.265
M16
G05
G00X75.34Y-178.765
M15
G01X74.14Y-178.765
M16
G05
G00X81.51Y-51.235
M15
G01X79.71Y-51.235
M16
G05
G00X81.51Y-65.735
M15
G01X79.71Y-65.735
M16
G05
G00X81.6Y-73.841
M15
G01X79.8Y-73.841
M16
G05
G00X81.6Y-88.341
M15
G01X79.8Y-88.341
M16
G05
G00X81.6Y-96.447
M15
G01X79.8Y-96.447
M16
G05
G00X81.6Y-110.947
M15
G01X79.8Y-110.947
M16
G05
G00X81.6Y-119.053
M15
G01X79.8Y-119.053
M16
G05
G00X81.6Y-133.553
M15
G01X79.8Y-133.553
M16
G05
G00X81.6Y-141.659
M15
G01X79.8Y-141.659
M16
G05
G00X81.6Y-156.159
M15
G01X79.8Y-156.159
M16
G05
G00X81.6Y-164.265
M15
G01X79.8Y-164.265
M16
G05
G00X81.6Y-178.765
M15
G01X79.8Y-178.765
M16
G05
G00X98.4Y-51.235
M15
G01X100.2Y-51.235
M16
G05
G00X98.4Y-65.735
M15
G01X100.2Y-65.735
M16
G05
G00X98.49Y-73.841
M15
G01X100.29Y-73.841
M16
G05
G00X98.49Y-88.341
M15
G01X100.29Y-88.341
M16
G05
G00X98.49Y-96.447
M15
G01X100.29Y-96.447
M16
G05
G00X98.49Y-110.947
M15
G01X100.29Y-110.947
M16
G05
G00X98.49Y-119.053
M15
G01X100.29Y-119.053
M16
G05
G00X98.49Y-133.553
M15
G01X100.29Y-133.553
M16
G05
G00X98.49Y-141.659
M15
G01X100.29Y-141.659
M16
G05
G00X98.49Y-156.159
M15
G01X100.29Y-156.159
M16
G05
G00X98.49Y-164.265
M15
G01X100.29Y-164.265
M16
G05
G00X98.49Y-178.765
M15
G01X100.29Y-178.765
M16
G05
G00X104.66Y-51.235
M15
G01X105.86Y-51.235
M16
G05
G00X104.66Y-65.735
M15
G01X105.86Y-65.735
M16
G05
G00X104.75Y-73.841
M15
G01X105.95Y-73.841
M16
G05
G00X104.75Y-88.341
M15
G01X105.95Y-88.341
M16
G05
G00X104.75Y-96.447
M15
G01X105.95Y-96.447
M16
G05
G00X104.75Y-110.947
M15
G01X105.95Y-110.947
M16
G05
G00X104.75Y-119.053
M15
G01X105.95Y-119.053
M16
G05
G00X104.75Y-133.553
M15
G01X105.95Y-133.553
M16
G05
G00X104.75Y-141.659
M15
G01X105.95Y-141.659
M16
G05
G00X104.75Y-156.159
M15
G01X105.95Y-156.159
M16
G05
G00X104.75Y-164.265
M15
G01X105.95Y-164.265
M16
G05
G00X104.75Y-178.765
M15
G01X105.95Y-178.765
M16
G05
T0
M30
