%TF.GenerationSoftware,KiCad,Pcbnew,6.0.7-1.fc36*%
%TF.CreationDate,2022-07-28T17:35:04+01:00*%
%TF.ProjectId,pc070_aida_hdmi_rpc_hdmi,70633037-305f-4616-9964-615f68646d69,rev?*%
%TF.SameCoordinates,Original*%
%TF.FileFunction,AssemblyDrawing,Top*%
%FSLAX46Y46*%
G04 Gerber Fmt 4.6, Leading zero omitted, Abs format (unit mm)*
G04 Created by KiCad (PCBNEW 6.0.7-1.fc36) date 2022-07-28 17:35:04*
%MOMM*%
%LPD*%
G01*
G04 APERTURE LIST*
%ADD10C,0.150000*%
%ADD11C,0.100000*%
%ADD12C,0.200000*%
G04 APERTURE END LIST*
D10*
%TO.C,J2*%
X96837380Y-59371904D02*
X95837380Y-59371904D01*
X96313571Y-59371904D02*
X96313571Y-58800476D01*
X96837380Y-58800476D02*
X95837380Y-58800476D01*
X96837380Y-58324285D02*
X95837380Y-58324285D01*
X95837380Y-58086190D01*
X95885000Y-57943333D01*
X95980238Y-57848095D01*
X96075476Y-57800476D01*
X96265952Y-57752857D01*
X96408809Y-57752857D01*
X96599285Y-57800476D01*
X96694523Y-57848095D01*
X96789761Y-57943333D01*
X96837380Y-58086190D01*
X96837380Y-58324285D01*
X96837380Y-57324285D02*
X95837380Y-57324285D01*
X96551666Y-56990952D01*
X95837380Y-56657619D01*
X96837380Y-56657619D01*
X96837380Y-55610000D02*
X96361190Y-55943333D01*
X96837380Y-56181428D02*
X95837380Y-56181428D01*
X95837380Y-55800476D01*
X95885000Y-55705238D01*
X95932619Y-55657619D01*
X96027857Y-55610000D01*
X96170714Y-55610000D01*
X96265952Y-55657619D01*
X96313571Y-55705238D01*
X96361190Y-55800476D01*
X96361190Y-56181428D01*
X96456428Y-55181428D02*
X96456428Y-54419523D01*
X96837380Y-53419523D02*
X96837380Y-53990952D01*
X96837380Y-53705238D02*
X95837380Y-53705238D01*
X95980238Y-53800476D01*
X96075476Y-53895714D01*
X96123095Y-53990952D01*
X96837380Y-52943333D02*
X96837380Y-52752857D01*
X96789761Y-52657619D01*
X96742142Y-52610000D01*
X96599285Y-52514761D01*
X96408809Y-52467142D01*
X96027857Y-52467142D01*
X95932619Y-52514761D01*
X95885000Y-52562380D01*
X95837380Y-52657619D01*
X95837380Y-52848095D01*
X95885000Y-52943333D01*
X95932619Y-52990952D01*
X96027857Y-53038571D01*
X96265952Y-53038571D01*
X96361190Y-52990952D01*
X96408809Y-52943333D01*
X96456428Y-52848095D01*
X96456428Y-52657619D01*
X96408809Y-52562380D01*
X96361190Y-52514761D01*
X96265952Y-52467142D01*
X96456428Y-52038571D02*
X96456428Y-51276666D01*
X95837380Y-50610000D02*
X95837380Y-50514761D01*
X95885000Y-50419523D01*
X95932619Y-50371904D01*
X96027857Y-50324285D01*
X96218333Y-50276666D01*
X96456428Y-50276666D01*
X96646904Y-50324285D01*
X96742142Y-50371904D01*
X96789761Y-50419523D01*
X96837380Y-50514761D01*
X96837380Y-50610000D01*
X96789761Y-50705238D01*
X96742142Y-50752857D01*
X96646904Y-50800476D01*
X96456428Y-50848095D01*
X96218333Y-50848095D01*
X96027857Y-50800476D01*
X95932619Y-50752857D01*
X95885000Y-50705238D01*
X95837380Y-50610000D01*
X96837380Y-49324285D02*
X96837380Y-49895714D01*
X96837380Y-49610000D02*
X95837380Y-49610000D01*
X95980238Y-49705238D01*
X96075476Y-49800476D01*
X96123095Y-49895714D01*
X96456428Y-48895714D02*
X96456428Y-48133809D01*
X96789761Y-47705238D02*
X96837380Y-47562380D01*
X96837380Y-47324285D01*
X96789761Y-47229047D01*
X96742142Y-47181428D01*
X96646904Y-47133809D01*
X96551666Y-47133809D01*
X96456428Y-47181428D01*
X96408809Y-47229047D01*
X96361190Y-47324285D01*
X96313571Y-47514761D01*
X96265952Y-47610000D01*
X96218333Y-47657619D01*
X96123095Y-47705238D01*
X96027857Y-47705238D01*
X95932619Y-47657619D01*
X95885000Y-47610000D01*
X95837380Y-47514761D01*
X95837380Y-47276666D01*
X95885000Y-47133809D01*
X96456428Y-46705238D02*
X96456428Y-45943333D01*
X96789761Y-45514761D02*
X96837380Y-45371904D01*
X96837380Y-45133809D01*
X96789761Y-45038571D01*
X96742142Y-44990952D01*
X96646904Y-44943333D01*
X96551666Y-44943333D01*
X96456428Y-44990952D01*
X96408809Y-45038571D01*
X96361190Y-45133809D01*
X96313571Y-45324285D01*
X96265952Y-45419523D01*
X96218333Y-45467142D01*
X96123095Y-45514761D01*
X96027857Y-45514761D01*
X95932619Y-45467142D01*
X95885000Y-45419523D01*
X95837380Y-45324285D01*
X95837380Y-45086190D01*
X95885000Y-44943333D01*
X96837380Y-44514761D02*
X95837380Y-44514761D01*
X96551666Y-44181428D01*
X95837380Y-43848095D01*
X96837380Y-43848095D01*
X96456428Y-43371904D02*
X96456428Y-42610000D01*
X95837380Y-42276666D02*
X95837380Y-41705238D01*
X96837380Y-41990952D02*
X95837380Y-41990952D01*
X96837380Y-40800476D02*
X96361190Y-41133809D01*
X96837380Y-41371904D02*
X95837380Y-41371904D01*
X95837380Y-40990952D01*
X95885000Y-40895714D01*
X95932619Y-40848095D01*
X96027857Y-40800476D01*
X96170714Y-40800476D01*
X96265952Y-40848095D01*
X96313571Y-40895714D01*
X96361190Y-40990952D01*
X96361190Y-41371904D01*
%TO.C,J9*%
X84067380Y-166545904D02*
X83067380Y-166545904D01*
X83543571Y-166545904D02*
X83543571Y-165974476D01*
X84067380Y-165974476D02*
X83067380Y-165974476D01*
X84067380Y-165498285D02*
X83067380Y-165498285D01*
X83067380Y-165260190D01*
X83115000Y-165117333D01*
X83210238Y-165022095D01*
X83305476Y-164974476D01*
X83495952Y-164926857D01*
X83638809Y-164926857D01*
X83829285Y-164974476D01*
X83924523Y-165022095D01*
X84019761Y-165117333D01*
X84067380Y-165260190D01*
X84067380Y-165498285D01*
X84067380Y-164498285D02*
X83067380Y-164498285D01*
X83781666Y-164164952D01*
X83067380Y-163831619D01*
X84067380Y-163831619D01*
X84067380Y-162784000D02*
X83591190Y-163117333D01*
X84067380Y-163355428D02*
X83067380Y-163355428D01*
X83067380Y-162974476D01*
X83115000Y-162879238D01*
X83162619Y-162831619D01*
X83257857Y-162784000D01*
X83400714Y-162784000D01*
X83495952Y-162831619D01*
X83543571Y-162879238D01*
X83591190Y-162974476D01*
X83591190Y-163355428D01*
X83686428Y-162355428D02*
X83686428Y-161593523D01*
X84067380Y-160593523D02*
X84067380Y-161164952D01*
X84067380Y-160879238D02*
X83067380Y-160879238D01*
X83210238Y-160974476D01*
X83305476Y-161069714D01*
X83353095Y-161164952D01*
X84067380Y-160117333D02*
X84067380Y-159926857D01*
X84019761Y-159831619D01*
X83972142Y-159784000D01*
X83829285Y-159688761D01*
X83638809Y-159641142D01*
X83257857Y-159641142D01*
X83162619Y-159688761D01*
X83115000Y-159736380D01*
X83067380Y-159831619D01*
X83067380Y-160022095D01*
X83115000Y-160117333D01*
X83162619Y-160164952D01*
X83257857Y-160212571D01*
X83495952Y-160212571D01*
X83591190Y-160164952D01*
X83638809Y-160117333D01*
X83686428Y-160022095D01*
X83686428Y-159831619D01*
X83638809Y-159736380D01*
X83591190Y-159688761D01*
X83495952Y-159641142D01*
X83686428Y-159212571D02*
X83686428Y-158450666D01*
X83067380Y-157784000D02*
X83067380Y-157688761D01*
X83115000Y-157593523D01*
X83162619Y-157545904D01*
X83257857Y-157498285D01*
X83448333Y-157450666D01*
X83686428Y-157450666D01*
X83876904Y-157498285D01*
X83972142Y-157545904D01*
X84019761Y-157593523D01*
X84067380Y-157688761D01*
X84067380Y-157784000D01*
X84019761Y-157879238D01*
X83972142Y-157926857D01*
X83876904Y-157974476D01*
X83686428Y-158022095D01*
X83448333Y-158022095D01*
X83257857Y-157974476D01*
X83162619Y-157926857D01*
X83115000Y-157879238D01*
X83067380Y-157784000D01*
X84067380Y-156498285D02*
X84067380Y-157069714D01*
X84067380Y-156784000D02*
X83067380Y-156784000D01*
X83210238Y-156879238D01*
X83305476Y-156974476D01*
X83353095Y-157069714D01*
X83686428Y-156069714D02*
X83686428Y-155307809D01*
X84019761Y-154879238D02*
X84067380Y-154736380D01*
X84067380Y-154498285D01*
X84019761Y-154403047D01*
X83972142Y-154355428D01*
X83876904Y-154307809D01*
X83781666Y-154307809D01*
X83686428Y-154355428D01*
X83638809Y-154403047D01*
X83591190Y-154498285D01*
X83543571Y-154688761D01*
X83495952Y-154784000D01*
X83448333Y-154831619D01*
X83353095Y-154879238D01*
X83257857Y-154879238D01*
X83162619Y-154831619D01*
X83115000Y-154784000D01*
X83067380Y-154688761D01*
X83067380Y-154450666D01*
X83115000Y-154307809D01*
X83686428Y-153879238D02*
X83686428Y-153117333D01*
X84019761Y-152688761D02*
X84067380Y-152545904D01*
X84067380Y-152307809D01*
X84019761Y-152212571D01*
X83972142Y-152164952D01*
X83876904Y-152117333D01*
X83781666Y-152117333D01*
X83686428Y-152164952D01*
X83638809Y-152212571D01*
X83591190Y-152307809D01*
X83543571Y-152498285D01*
X83495952Y-152593523D01*
X83448333Y-152641142D01*
X83353095Y-152688761D01*
X83257857Y-152688761D01*
X83162619Y-152641142D01*
X83115000Y-152593523D01*
X83067380Y-152498285D01*
X83067380Y-152260190D01*
X83115000Y-152117333D01*
X84067380Y-151688761D02*
X83067380Y-151688761D01*
X83781666Y-151355428D01*
X83067380Y-151022095D01*
X84067380Y-151022095D01*
X83686428Y-150545904D02*
X83686428Y-149784000D01*
X83067380Y-149450666D02*
X83067380Y-148879238D01*
X84067380Y-149164952D02*
X83067380Y-149164952D01*
X84067380Y-147974476D02*
X83591190Y-148307809D01*
X84067380Y-148545904D02*
X83067380Y-148545904D01*
X83067380Y-148164952D01*
X83115000Y-148069714D01*
X83162619Y-148022095D01*
X83257857Y-147974476D01*
X83400714Y-147974476D01*
X83495952Y-148022095D01*
X83543571Y-148069714D01*
X83591190Y-148164952D01*
X83591190Y-148545904D01*
%TO.C,H3*%
X98428571Y-189252380D02*
X98428571Y-188252380D01*
X98761904Y-188966666D01*
X99095238Y-188252380D01*
X99095238Y-189252380D01*
X99714285Y-189252380D02*
X99619047Y-189204761D01*
X99571428Y-189157142D01*
X99523809Y-189061904D01*
X99523809Y-188776190D01*
X99571428Y-188680952D01*
X99619047Y-188633333D01*
X99714285Y-188585714D01*
X99857142Y-188585714D01*
X99952380Y-188633333D01*
X100000000Y-188680952D01*
X100047619Y-188776190D01*
X100047619Y-189061904D01*
X100000000Y-189157142D01*
X99952380Y-189204761D01*
X99857142Y-189252380D01*
X99714285Y-189252380D01*
X100904761Y-188585714D02*
X100904761Y-189252380D01*
X100476190Y-188585714D02*
X100476190Y-189109523D01*
X100523809Y-189204761D01*
X100619047Y-189252380D01*
X100761904Y-189252380D01*
X100857142Y-189204761D01*
X100904761Y-189157142D01*
X101380952Y-188585714D02*
X101380952Y-189252380D01*
X101380952Y-188680952D02*
X101428571Y-188633333D01*
X101523809Y-188585714D01*
X101666666Y-188585714D01*
X101761904Y-188633333D01*
X101809523Y-188728571D01*
X101809523Y-189252380D01*
X102142857Y-188585714D02*
X102523809Y-188585714D01*
X102285714Y-188252380D02*
X102285714Y-189109523D01*
X102333333Y-189204761D01*
X102428571Y-189252380D01*
X102523809Y-189252380D01*
X102857142Y-189252380D02*
X102857142Y-188585714D01*
X102857142Y-188252380D02*
X102809523Y-188300000D01*
X102857142Y-188347619D01*
X102904761Y-188300000D01*
X102857142Y-188252380D01*
X102857142Y-188347619D01*
X103333333Y-188585714D02*
X103333333Y-189252380D01*
X103333333Y-188680952D02*
X103380952Y-188633333D01*
X103476190Y-188585714D01*
X103619047Y-188585714D01*
X103714285Y-188633333D01*
X103761904Y-188728571D01*
X103761904Y-189252380D01*
X104666666Y-188585714D02*
X104666666Y-189395238D01*
X104619047Y-189490476D01*
X104571428Y-189538095D01*
X104476190Y-189585714D01*
X104333333Y-189585714D01*
X104238095Y-189538095D01*
X104666666Y-189204761D02*
X104571428Y-189252380D01*
X104380952Y-189252380D01*
X104285714Y-189204761D01*
X104238095Y-189157142D01*
X104190476Y-189061904D01*
X104190476Y-188776190D01*
X104238095Y-188680952D01*
X104285714Y-188633333D01*
X104380952Y-188585714D01*
X104571428Y-188585714D01*
X104666666Y-188633333D01*
X105142857Y-189252380D02*
X105142857Y-188252380D01*
X105142857Y-188728571D02*
X105714285Y-188728571D01*
X105714285Y-189252380D02*
X105714285Y-188252380D01*
X106333333Y-189252380D02*
X106238095Y-189204761D01*
X106190476Y-189157142D01*
X106142857Y-189061904D01*
X106142857Y-188776190D01*
X106190476Y-188680952D01*
X106238095Y-188633333D01*
X106333333Y-188585714D01*
X106476190Y-188585714D01*
X106571428Y-188633333D01*
X106619047Y-188680952D01*
X106666666Y-188776190D01*
X106666666Y-189061904D01*
X106619047Y-189157142D01*
X106571428Y-189204761D01*
X106476190Y-189252380D01*
X106333333Y-189252380D01*
X107238095Y-189252380D02*
X107142857Y-189204761D01*
X107095238Y-189109523D01*
X107095238Y-188252380D01*
X108000000Y-189204761D02*
X107904761Y-189252380D01*
X107714285Y-189252380D01*
X107619047Y-189204761D01*
X107571428Y-189109523D01*
X107571428Y-188728571D01*
X107619047Y-188633333D01*
X107714285Y-188585714D01*
X107904761Y-188585714D01*
X108000000Y-188633333D01*
X108047619Y-188728571D01*
X108047619Y-188823809D01*
X107571428Y-188919047D01*
X108238095Y-189347619D02*
X109000000Y-189347619D01*
X109238095Y-189252380D02*
X109238095Y-188252380D01*
X109619047Y-188252380D01*
X109714285Y-188300000D01*
X109761904Y-188347619D01*
X109809523Y-188442857D01*
X109809523Y-188585714D01*
X109761904Y-188680952D01*
X109714285Y-188728571D01*
X109619047Y-188776190D01*
X109238095Y-188776190D01*
X110666666Y-189252380D02*
X110666666Y-188728571D01*
X110619047Y-188633333D01*
X110523809Y-188585714D01*
X110333333Y-188585714D01*
X110238095Y-188633333D01*
X110666666Y-189204761D02*
X110571428Y-189252380D01*
X110333333Y-189252380D01*
X110238095Y-189204761D01*
X110190476Y-189109523D01*
X110190476Y-189014285D01*
X110238095Y-188919047D01*
X110333333Y-188871428D01*
X110571428Y-188871428D01*
X110666666Y-188823809D01*
X111571428Y-189252380D02*
X111571428Y-188252380D01*
X111571428Y-189204761D02*
X111476190Y-189252380D01*
X111285714Y-189252380D01*
X111190476Y-189204761D01*
X111142857Y-189157142D01*
X111095238Y-189061904D01*
X111095238Y-188776190D01*
X111142857Y-188680952D01*
X111190476Y-188633333D01*
X111285714Y-188585714D01*
X111476190Y-188585714D01*
X111571428Y-188633333D01*
X104238095Y-185452380D02*
X104238095Y-184452380D01*
X104238095Y-184928571D02*
X104809523Y-184928571D01*
X104809523Y-185452380D02*
X104809523Y-184452380D01*
X105190476Y-184452380D02*
X105809523Y-184452380D01*
X105476190Y-184833333D01*
X105619047Y-184833333D01*
X105714285Y-184880952D01*
X105761904Y-184928571D01*
X105809523Y-185023809D01*
X105809523Y-185261904D01*
X105761904Y-185357142D01*
X105714285Y-185404761D01*
X105619047Y-185452380D01*
X105333333Y-185452380D01*
X105238095Y-185404761D01*
X105190476Y-185357142D01*
%TO.C,H4*%
X68428571Y-189252380D02*
X68428571Y-188252380D01*
X68761904Y-188966666D01*
X69095238Y-188252380D01*
X69095238Y-189252380D01*
X69714285Y-189252380D02*
X69619047Y-189204761D01*
X69571428Y-189157142D01*
X69523809Y-189061904D01*
X69523809Y-188776190D01*
X69571428Y-188680952D01*
X69619047Y-188633333D01*
X69714285Y-188585714D01*
X69857142Y-188585714D01*
X69952380Y-188633333D01*
X70000000Y-188680952D01*
X70047619Y-188776190D01*
X70047619Y-189061904D01*
X70000000Y-189157142D01*
X69952380Y-189204761D01*
X69857142Y-189252380D01*
X69714285Y-189252380D01*
X70904761Y-188585714D02*
X70904761Y-189252380D01*
X70476190Y-188585714D02*
X70476190Y-189109523D01*
X70523809Y-189204761D01*
X70619047Y-189252380D01*
X70761904Y-189252380D01*
X70857142Y-189204761D01*
X70904761Y-189157142D01*
X71380952Y-188585714D02*
X71380952Y-189252380D01*
X71380952Y-188680952D02*
X71428571Y-188633333D01*
X71523809Y-188585714D01*
X71666666Y-188585714D01*
X71761904Y-188633333D01*
X71809523Y-188728571D01*
X71809523Y-189252380D01*
X72142857Y-188585714D02*
X72523809Y-188585714D01*
X72285714Y-188252380D02*
X72285714Y-189109523D01*
X72333333Y-189204761D01*
X72428571Y-189252380D01*
X72523809Y-189252380D01*
X72857142Y-189252380D02*
X72857142Y-188585714D01*
X72857142Y-188252380D02*
X72809523Y-188300000D01*
X72857142Y-188347619D01*
X72904761Y-188300000D01*
X72857142Y-188252380D01*
X72857142Y-188347619D01*
X73333333Y-188585714D02*
X73333333Y-189252380D01*
X73333333Y-188680952D02*
X73380952Y-188633333D01*
X73476190Y-188585714D01*
X73619047Y-188585714D01*
X73714285Y-188633333D01*
X73761904Y-188728571D01*
X73761904Y-189252380D01*
X74666666Y-188585714D02*
X74666666Y-189395238D01*
X74619047Y-189490476D01*
X74571428Y-189538095D01*
X74476190Y-189585714D01*
X74333333Y-189585714D01*
X74238095Y-189538095D01*
X74666666Y-189204761D02*
X74571428Y-189252380D01*
X74380952Y-189252380D01*
X74285714Y-189204761D01*
X74238095Y-189157142D01*
X74190476Y-189061904D01*
X74190476Y-188776190D01*
X74238095Y-188680952D01*
X74285714Y-188633333D01*
X74380952Y-188585714D01*
X74571428Y-188585714D01*
X74666666Y-188633333D01*
X75142857Y-189252380D02*
X75142857Y-188252380D01*
X75142857Y-188728571D02*
X75714285Y-188728571D01*
X75714285Y-189252380D02*
X75714285Y-188252380D01*
X76333333Y-189252380D02*
X76238095Y-189204761D01*
X76190476Y-189157142D01*
X76142857Y-189061904D01*
X76142857Y-188776190D01*
X76190476Y-188680952D01*
X76238095Y-188633333D01*
X76333333Y-188585714D01*
X76476190Y-188585714D01*
X76571428Y-188633333D01*
X76619047Y-188680952D01*
X76666666Y-188776190D01*
X76666666Y-189061904D01*
X76619047Y-189157142D01*
X76571428Y-189204761D01*
X76476190Y-189252380D01*
X76333333Y-189252380D01*
X77238095Y-189252380D02*
X77142857Y-189204761D01*
X77095238Y-189109523D01*
X77095238Y-188252380D01*
X78000000Y-189204761D02*
X77904761Y-189252380D01*
X77714285Y-189252380D01*
X77619047Y-189204761D01*
X77571428Y-189109523D01*
X77571428Y-188728571D01*
X77619047Y-188633333D01*
X77714285Y-188585714D01*
X77904761Y-188585714D01*
X78000000Y-188633333D01*
X78047619Y-188728571D01*
X78047619Y-188823809D01*
X77571428Y-188919047D01*
X78238095Y-189347619D02*
X79000000Y-189347619D01*
X79238095Y-189252380D02*
X79238095Y-188252380D01*
X79619047Y-188252380D01*
X79714285Y-188300000D01*
X79761904Y-188347619D01*
X79809523Y-188442857D01*
X79809523Y-188585714D01*
X79761904Y-188680952D01*
X79714285Y-188728571D01*
X79619047Y-188776190D01*
X79238095Y-188776190D01*
X80666666Y-189252380D02*
X80666666Y-188728571D01*
X80619047Y-188633333D01*
X80523809Y-188585714D01*
X80333333Y-188585714D01*
X80238095Y-188633333D01*
X80666666Y-189204761D02*
X80571428Y-189252380D01*
X80333333Y-189252380D01*
X80238095Y-189204761D01*
X80190476Y-189109523D01*
X80190476Y-189014285D01*
X80238095Y-188919047D01*
X80333333Y-188871428D01*
X80571428Y-188871428D01*
X80666666Y-188823809D01*
X81571428Y-189252380D02*
X81571428Y-188252380D01*
X81571428Y-189204761D02*
X81476190Y-189252380D01*
X81285714Y-189252380D01*
X81190476Y-189204761D01*
X81142857Y-189157142D01*
X81095238Y-189061904D01*
X81095238Y-188776190D01*
X81142857Y-188680952D01*
X81190476Y-188633333D01*
X81285714Y-188585714D01*
X81476190Y-188585714D01*
X81571428Y-188633333D01*
X74238095Y-185452380D02*
X74238095Y-184452380D01*
X74238095Y-184928571D02*
X74809523Y-184928571D01*
X74809523Y-185452380D02*
X74809523Y-184452380D01*
X75714285Y-184785714D02*
X75714285Y-185452380D01*
X75476190Y-184404761D02*
X75238095Y-185119047D01*
X75857142Y-185119047D01*
%TO.C,J8*%
X96927380Y-127189904D02*
X95927380Y-127189904D01*
X96403571Y-127189904D02*
X96403571Y-126618476D01*
X96927380Y-126618476D02*
X95927380Y-126618476D01*
X96927380Y-126142285D02*
X95927380Y-126142285D01*
X95927380Y-125904190D01*
X95975000Y-125761333D01*
X96070238Y-125666095D01*
X96165476Y-125618476D01*
X96355952Y-125570857D01*
X96498809Y-125570857D01*
X96689285Y-125618476D01*
X96784523Y-125666095D01*
X96879761Y-125761333D01*
X96927380Y-125904190D01*
X96927380Y-126142285D01*
X96927380Y-125142285D02*
X95927380Y-125142285D01*
X96641666Y-124808952D01*
X95927380Y-124475619D01*
X96927380Y-124475619D01*
X96927380Y-123428000D02*
X96451190Y-123761333D01*
X96927380Y-123999428D02*
X95927380Y-123999428D01*
X95927380Y-123618476D01*
X95975000Y-123523238D01*
X96022619Y-123475619D01*
X96117857Y-123428000D01*
X96260714Y-123428000D01*
X96355952Y-123475619D01*
X96403571Y-123523238D01*
X96451190Y-123618476D01*
X96451190Y-123999428D01*
X96546428Y-122999428D02*
X96546428Y-122237523D01*
X96927380Y-121237523D02*
X96927380Y-121808952D01*
X96927380Y-121523238D02*
X95927380Y-121523238D01*
X96070238Y-121618476D01*
X96165476Y-121713714D01*
X96213095Y-121808952D01*
X96927380Y-120761333D02*
X96927380Y-120570857D01*
X96879761Y-120475619D01*
X96832142Y-120428000D01*
X96689285Y-120332761D01*
X96498809Y-120285142D01*
X96117857Y-120285142D01*
X96022619Y-120332761D01*
X95975000Y-120380380D01*
X95927380Y-120475619D01*
X95927380Y-120666095D01*
X95975000Y-120761333D01*
X96022619Y-120808952D01*
X96117857Y-120856571D01*
X96355952Y-120856571D01*
X96451190Y-120808952D01*
X96498809Y-120761333D01*
X96546428Y-120666095D01*
X96546428Y-120475619D01*
X96498809Y-120380380D01*
X96451190Y-120332761D01*
X96355952Y-120285142D01*
X96546428Y-119856571D02*
X96546428Y-119094666D01*
X95927380Y-118428000D02*
X95927380Y-118332761D01*
X95975000Y-118237523D01*
X96022619Y-118189904D01*
X96117857Y-118142285D01*
X96308333Y-118094666D01*
X96546428Y-118094666D01*
X96736904Y-118142285D01*
X96832142Y-118189904D01*
X96879761Y-118237523D01*
X96927380Y-118332761D01*
X96927380Y-118428000D01*
X96879761Y-118523238D01*
X96832142Y-118570857D01*
X96736904Y-118618476D01*
X96546428Y-118666095D01*
X96308333Y-118666095D01*
X96117857Y-118618476D01*
X96022619Y-118570857D01*
X95975000Y-118523238D01*
X95927380Y-118428000D01*
X96927380Y-117142285D02*
X96927380Y-117713714D01*
X96927380Y-117428000D02*
X95927380Y-117428000D01*
X96070238Y-117523238D01*
X96165476Y-117618476D01*
X96213095Y-117713714D01*
X96546428Y-116713714D02*
X96546428Y-115951809D01*
X96879761Y-115523238D02*
X96927380Y-115380380D01*
X96927380Y-115142285D01*
X96879761Y-115047047D01*
X96832142Y-114999428D01*
X96736904Y-114951809D01*
X96641666Y-114951809D01*
X96546428Y-114999428D01*
X96498809Y-115047047D01*
X96451190Y-115142285D01*
X96403571Y-115332761D01*
X96355952Y-115428000D01*
X96308333Y-115475619D01*
X96213095Y-115523238D01*
X96117857Y-115523238D01*
X96022619Y-115475619D01*
X95975000Y-115428000D01*
X95927380Y-115332761D01*
X95927380Y-115094666D01*
X95975000Y-114951809D01*
X96546428Y-114523238D02*
X96546428Y-113761333D01*
X96879761Y-113332761D02*
X96927380Y-113189904D01*
X96927380Y-112951809D01*
X96879761Y-112856571D01*
X96832142Y-112808952D01*
X96736904Y-112761333D01*
X96641666Y-112761333D01*
X96546428Y-112808952D01*
X96498809Y-112856571D01*
X96451190Y-112951809D01*
X96403571Y-113142285D01*
X96355952Y-113237523D01*
X96308333Y-113285142D01*
X96213095Y-113332761D01*
X96117857Y-113332761D01*
X96022619Y-113285142D01*
X95975000Y-113237523D01*
X95927380Y-113142285D01*
X95927380Y-112904190D01*
X95975000Y-112761333D01*
X96927380Y-112332761D02*
X95927380Y-112332761D01*
X96641666Y-111999428D01*
X95927380Y-111666095D01*
X96927380Y-111666095D01*
X96546428Y-111189904D02*
X96546428Y-110428000D01*
X95927380Y-110094666D02*
X95927380Y-109523238D01*
X96927380Y-109808952D02*
X95927380Y-109808952D01*
X96927380Y-108618476D02*
X96451190Y-108951809D01*
X96927380Y-109189904D02*
X95927380Y-109189904D01*
X95927380Y-108808952D01*
X95975000Y-108713714D01*
X96022619Y-108666095D01*
X96117857Y-108618476D01*
X96260714Y-108618476D01*
X96355952Y-108666095D01*
X96403571Y-108713714D01*
X96451190Y-108808952D01*
X96451190Y-109189904D01*
%TO.C,J6*%
X96927380Y-104583904D02*
X95927380Y-104583904D01*
X96403571Y-104583904D02*
X96403571Y-104012476D01*
X96927380Y-104012476D02*
X95927380Y-104012476D01*
X96927380Y-103536285D02*
X95927380Y-103536285D01*
X95927380Y-103298190D01*
X95975000Y-103155333D01*
X96070238Y-103060095D01*
X96165476Y-103012476D01*
X96355952Y-102964857D01*
X96498809Y-102964857D01*
X96689285Y-103012476D01*
X96784523Y-103060095D01*
X96879761Y-103155333D01*
X96927380Y-103298190D01*
X96927380Y-103536285D01*
X96927380Y-102536285D02*
X95927380Y-102536285D01*
X96641666Y-102202952D01*
X95927380Y-101869619D01*
X96927380Y-101869619D01*
X96927380Y-100822000D02*
X96451190Y-101155333D01*
X96927380Y-101393428D02*
X95927380Y-101393428D01*
X95927380Y-101012476D01*
X95975000Y-100917238D01*
X96022619Y-100869619D01*
X96117857Y-100822000D01*
X96260714Y-100822000D01*
X96355952Y-100869619D01*
X96403571Y-100917238D01*
X96451190Y-101012476D01*
X96451190Y-101393428D01*
X96546428Y-100393428D02*
X96546428Y-99631523D01*
X96927380Y-98631523D02*
X96927380Y-99202952D01*
X96927380Y-98917238D02*
X95927380Y-98917238D01*
X96070238Y-99012476D01*
X96165476Y-99107714D01*
X96213095Y-99202952D01*
X96927380Y-98155333D02*
X96927380Y-97964857D01*
X96879761Y-97869619D01*
X96832142Y-97822000D01*
X96689285Y-97726761D01*
X96498809Y-97679142D01*
X96117857Y-97679142D01*
X96022619Y-97726761D01*
X95975000Y-97774380D01*
X95927380Y-97869619D01*
X95927380Y-98060095D01*
X95975000Y-98155333D01*
X96022619Y-98202952D01*
X96117857Y-98250571D01*
X96355952Y-98250571D01*
X96451190Y-98202952D01*
X96498809Y-98155333D01*
X96546428Y-98060095D01*
X96546428Y-97869619D01*
X96498809Y-97774380D01*
X96451190Y-97726761D01*
X96355952Y-97679142D01*
X96546428Y-97250571D02*
X96546428Y-96488666D01*
X95927380Y-95822000D02*
X95927380Y-95726761D01*
X95975000Y-95631523D01*
X96022619Y-95583904D01*
X96117857Y-95536285D01*
X96308333Y-95488666D01*
X96546428Y-95488666D01*
X96736904Y-95536285D01*
X96832142Y-95583904D01*
X96879761Y-95631523D01*
X96927380Y-95726761D01*
X96927380Y-95822000D01*
X96879761Y-95917238D01*
X96832142Y-95964857D01*
X96736904Y-96012476D01*
X96546428Y-96060095D01*
X96308333Y-96060095D01*
X96117857Y-96012476D01*
X96022619Y-95964857D01*
X95975000Y-95917238D01*
X95927380Y-95822000D01*
X96927380Y-94536285D02*
X96927380Y-95107714D01*
X96927380Y-94822000D02*
X95927380Y-94822000D01*
X96070238Y-94917238D01*
X96165476Y-95012476D01*
X96213095Y-95107714D01*
X96546428Y-94107714D02*
X96546428Y-93345809D01*
X96879761Y-92917238D02*
X96927380Y-92774380D01*
X96927380Y-92536285D01*
X96879761Y-92441047D01*
X96832142Y-92393428D01*
X96736904Y-92345809D01*
X96641666Y-92345809D01*
X96546428Y-92393428D01*
X96498809Y-92441047D01*
X96451190Y-92536285D01*
X96403571Y-92726761D01*
X96355952Y-92822000D01*
X96308333Y-92869619D01*
X96213095Y-92917238D01*
X96117857Y-92917238D01*
X96022619Y-92869619D01*
X95975000Y-92822000D01*
X95927380Y-92726761D01*
X95927380Y-92488666D01*
X95975000Y-92345809D01*
X96546428Y-91917238D02*
X96546428Y-91155333D01*
X96879761Y-90726761D02*
X96927380Y-90583904D01*
X96927380Y-90345809D01*
X96879761Y-90250571D01*
X96832142Y-90202952D01*
X96736904Y-90155333D01*
X96641666Y-90155333D01*
X96546428Y-90202952D01*
X96498809Y-90250571D01*
X96451190Y-90345809D01*
X96403571Y-90536285D01*
X96355952Y-90631523D01*
X96308333Y-90679142D01*
X96213095Y-90726761D01*
X96117857Y-90726761D01*
X96022619Y-90679142D01*
X95975000Y-90631523D01*
X95927380Y-90536285D01*
X95927380Y-90298190D01*
X95975000Y-90155333D01*
X96927380Y-89726761D02*
X95927380Y-89726761D01*
X96641666Y-89393428D01*
X95927380Y-89060095D01*
X96927380Y-89060095D01*
X96546428Y-88583904D02*
X96546428Y-87822000D01*
X95927380Y-87488666D02*
X95927380Y-86917238D01*
X96927380Y-87202952D02*
X95927380Y-87202952D01*
X96927380Y-86012476D02*
X96451190Y-86345809D01*
X96927380Y-86583904D02*
X95927380Y-86583904D01*
X95927380Y-86202952D01*
X95975000Y-86107714D01*
X96022619Y-86060095D01*
X96117857Y-86012476D01*
X96260714Y-86012476D01*
X96355952Y-86060095D01*
X96403571Y-86107714D01*
X96451190Y-86202952D01*
X96451190Y-86583904D01*
%TO.C,J12*%
X96927380Y-172401904D02*
X95927380Y-172401904D01*
X96403571Y-172401904D02*
X96403571Y-171830476D01*
X96927380Y-171830476D02*
X95927380Y-171830476D01*
X96927380Y-171354285D02*
X95927380Y-171354285D01*
X95927380Y-171116190D01*
X95975000Y-170973333D01*
X96070238Y-170878095D01*
X96165476Y-170830476D01*
X96355952Y-170782857D01*
X96498809Y-170782857D01*
X96689285Y-170830476D01*
X96784523Y-170878095D01*
X96879761Y-170973333D01*
X96927380Y-171116190D01*
X96927380Y-171354285D01*
X96927380Y-170354285D02*
X95927380Y-170354285D01*
X96641666Y-170020952D01*
X95927380Y-169687619D01*
X96927380Y-169687619D01*
X96927380Y-168640000D02*
X96451190Y-168973333D01*
X96927380Y-169211428D02*
X95927380Y-169211428D01*
X95927380Y-168830476D01*
X95975000Y-168735238D01*
X96022619Y-168687619D01*
X96117857Y-168640000D01*
X96260714Y-168640000D01*
X96355952Y-168687619D01*
X96403571Y-168735238D01*
X96451190Y-168830476D01*
X96451190Y-169211428D01*
X96546428Y-168211428D02*
X96546428Y-167449523D01*
X96927380Y-166449523D02*
X96927380Y-167020952D01*
X96927380Y-166735238D02*
X95927380Y-166735238D01*
X96070238Y-166830476D01*
X96165476Y-166925714D01*
X96213095Y-167020952D01*
X96927380Y-165973333D02*
X96927380Y-165782857D01*
X96879761Y-165687619D01*
X96832142Y-165640000D01*
X96689285Y-165544761D01*
X96498809Y-165497142D01*
X96117857Y-165497142D01*
X96022619Y-165544761D01*
X95975000Y-165592380D01*
X95927380Y-165687619D01*
X95927380Y-165878095D01*
X95975000Y-165973333D01*
X96022619Y-166020952D01*
X96117857Y-166068571D01*
X96355952Y-166068571D01*
X96451190Y-166020952D01*
X96498809Y-165973333D01*
X96546428Y-165878095D01*
X96546428Y-165687619D01*
X96498809Y-165592380D01*
X96451190Y-165544761D01*
X96355952Y-165497142D01*
X96546428Y-165068571D02*
X96546428Y-164306666D01*
X95927380Y-163640000D02*
X95927380Y-163544761D01*
X95975000Y-163449523D01*
X96022619Y-163401904D01*
X96117857Y-163354285D01*
X96308333Y-163306666D01*
X96546428Y-163306666D01*
X96736904Y-163354285D01*
X96832142Y-163401904D01*
X96879761Y-163449523D01*
X96927380Y-163544761D01*
X96927380Y-163640000D01*
X96879761Y-163735238D01*
X96832142Y-163782857D01*
X96736904Y-163830476D01*
X96546428Y-163878095D01*
X96308333Y-163878095D01*
X96117857Y-163830476D01*
X96022619Y-163782857D01*
X95975000Y-163735238D01*
X95927380Y-163640000D01*
X96927380Y-162354285D02*
X96927380Y-162925714D01*
X96927380Y-162640000D02*
X95927380Y-162640000D01*
X96070238Y-162735238D01*
X96165476Y-162830476D01*
X96213095Y-162925714D01*
X96546428Y-161925714D02*
X96546428Y-161163809D01*
X96879761Y-160735238D02*
X96927380Y-160592380D01*
X96927380Y-160354285D01*
X96879761Y-160259047D01*
X96832142Y-160211428D01*
X96736904Y-160163809D01*
X96641666Y-160163809D01*
X96546428Y-160211428D01*
X96498809Y-160259047D01*
X96451190Y-160354285D01*
X96403571Y-160544761D01*
X96355952Y-160640000D01*
X96308333Y-160687619D01*
X96213095Y-160735238D01*
X96117857Y-160735238D01*
X96022619Y-160687619D01*
X95975000Y-160640000D01*
X95927380Y-160544761D01*
X95927380Y-160306666D01*
X95975000Y-160163809D01*
X96546428Y-159735238D02*
X96546428Y-158973333D01*
X96879761Y-158544761D02*
X96927380Y-158401904D01*
X96927380Y-158163809D01*
X96879761Y-158068571D01*
X96832142Y-158020952D01*
X96736904Y-157973333D01*
X96641666Y-157973333D01*
X96546428Y-158020952D01*
X96498809Y-158068571D01*
X96451190Y-158163809D01*
X96403571Y-158354285D01*
X96355952Y-158449523D01*
X96308333Y-158497142D01*
X96213095Y-158544761D01*
X96117857Y-158544761D01*
X96022619Y-158497142D01*
X95975000Y-158449523D01*
X95927380Y-158354285D01*
X95927380Y-158116190D01*
X95975000Y-157973333D01*
X96927380Y-157544761D02*
X95927380Y-157544761D01*
X96641666Y-157211428D01*
X95927380Y-156878095D01*
X96927380Y-156878095D01*
X96546428Y-156401904D02*
X96546428Y-155640000D01*
X95927380Y-155306666D02*
X95927380Y-154735238D01*
X96927380Y-155020952D02*
X95927380Y-155020952D01*
X96927380Y-153830476D02*
X96451190Y-154163809D01*
X96927380Y-154401904D02*
X95927380Y-154401904D01*
X95927380Y-154020952D01*
X95975000Y-153925714D01*
X96022619Y-153878095D01*
X96117857Y-153830476D01*
X96260714Y-153830476D01*
X96355952Y-153878095D01*
X96403571Y-153925714D01*
X96451190Y-154020952D01*
X96451190Y-154401904D01*
%TO.C,J3*%
X84067380Y-98727904D02*
X83067380Y-98727904D01*
X83543571Y-98727904D02*
X83543571Y-98156476D01*
X84067380Y-98156476D02*
X83067380Y-98156476D01*
X84067380Y-97680285D02*
X83067380Y-97680285D01*
X83067380Y-97442190D01*
X83115000Y-97299333D01*
X83210238Y-97204095D01*
X83305476Y-97156476D01*
X83495952Y-97108857D01*
X83638809Y-97108857D01*
X83829285Y-97156476D01*
X83924523Y-97204095D01*
X84019761Y-97299333D01*
X84067380Y-97442190D01*
X84067380Y-97680285D01*
X84067380Y-96680285D02*
X83067380Y-96680285D01*
X83781666Y-96346952D01*
X83067380Y-96013619D01*
X84067380Y-96013619D01*
X84067380Y-94966000D02*
X83591190Y-95299333D01*
X84067380Y-95537428D02*
X83067380Y-95537428D01*
X83067380Y-95156476D01*
X83115000Y-95061238D01*
X83162619Y-95013619D01*
X83257857Y-94966000D01*
X83400714Y-94966000D01*
X83495952Y-95013619D01*
X83543571Y-95061238D01*
X83591190Y-95156476D01*
X83591190Y-95537428D01*
X83686428Y-94537428D02*
X83686428Y-93775523D01*
X84067380Y-92775523D02*
X84067380Y-93346952D01*
X84067380Y-93061238D02*
X83067380Y-93061238D01*
X83210238Y-93156476D01*
X83305476Y-93251714D01*
X83353095Y-93346952D01*
X84067380Y-92299333D02*
X84067380Y-92108857D01*
X84019761Y-92013619D01*
X83972142Y-91966000D01*
X83829285Y-91870761D01*
X83638809Y-91823142D01*
X83257857Y-91823142D01*
X83162619Y-91870761D01*
X83115000Y-91918380D01*
X83067380Y-92013619D01*
X83067380Y-92204095D01*
X83115000Y-92299333D01*
X83162619Y-92346952D01*
X83257857Y-92394571D01*
X83495952Y-92394571D01*
X83591190Y-92346952D01*
X83638809Y-92299333D01*
X83686428Y-92204095D01*
X83686428Y-92013619D01*
X83638809Y-91918380D01*
X83591190Y-91870761D01*
X83495952Y-91823142D01*
X83686428Y-91394571D02*
X83686428Y-90632666D01*
X83067380Y-89966000D02*
X83067380Y-89870761D01*
X83115000Y-89775523D01*
X83162619Y-89727904D01*
X83257857Y-89680285D01*
X83448333Y-89632666D01*
X83686428Y-89632666D01*
X83876904Y-89680285D01*
X83972142Y-89727904D01*
X84019761Y-89775523D01*
X84067380Y-89870761D01*
X84067380Y-89966000D01*
X84019761Y-90061238D01*
X83972142Y-90108857D01*
X83876904Y-90156476D01*
X83686428Y-90204095D01*
X83448333Y-90204095D01*
X83257857Y-90156476D01*
X83162619Y-90108857D01*
X83115000Y-90061238D01*
X83067380Y-89966000D01*
X84067380Y-88680285D02*
X84067380Y-89251714D01*
X84067380Y-88966000D02*
X83067380Y-88966000D01*
X83210238Y-89061238D01*
X83305476Y-89156476D01*
X83353095Y-89251714D01*
X83686428Y-88251714D02*
X83686428Y-87489809D01*
X84019761Y-87061238D02*
X84067380Y-86918380D01*
X84067380Y-86680285D01*
X84019761Y-86585047D01*
X83972142Y-86537428D01*
X83876904Y-86489809D01*
X83781666Y-86489809D01*
X83686428Y-86537428D01*
X83638809Y-86585047D01*
X83591190Y-86680285D01*
X83543571Y-86870761D01*
X83495952Y-86966000D01*
X83448333Y-87013619D01*
X83353095Y-87061238D01*
X83257857Y-87061238D01*
X83162619Y-87013619D01*
X83115000Y-86966000D01*
X83067380Y-86870761D01*
X83067380Y-86632666D01*
X83115000Y-86489809D01*
X83686428Y-86061238D02*
X83686428Y-85299333D01*
X84019761Y-84870761D02*
X84067380Y-84727904D01*
X84067380Y-84489809D01*
X84019761Y-84394571D01*
X83972142Y-84346952D01*
X83876904Y-84299333D01*
X83781666Y-84299333D01*
X83686428Y-84346952D01*
X83638809Y-84394571D01*
X83591190Y-84489809D01*
X83543571Y-84680285D01*
X83495952Y-84775523D01*
X83448333Y-84823142D01*
X83353095Y-84870761D01*
X83257857Y-84870761D01*
X83162619Y-84823142D01*
X83115000Y-84775523D01*
X83067380Y-84680285D01*
X83067380Y-84442190D01*
X83115000Y-84299333D01*
X84067380Y-83870761D02*
X83067380Y-83870761D01*
X83781666Y-83537428D01*
X83067380Y-83204095D01*
X84067380Y-83204095D01*
X83686428Y-82727904D02*
X83686428Y-81966000D01*
X83067380Y-81632666D02*
X83067380Y-81061238D01*
X84067380Y-81346952D02*
X83067380Y-81346952D01*
X84067380Y-80156476D02*
X83591190Y-80489809D01*
X84067380Y-80727904D02*
X83067380Y-80727904D01*
X83067380Y-80346952D01*
X83115000Y-80251714D01*
X83162619Y-80204095D01*
X83257857Y-80156476D01*
X83400714Y-80156476D01*
X83495952Y-80204095D01*
X83543571Y-80251714D01*
X83591190Y-80346952D01*
X83591190Y-80727904D01*
%TO.C,J1*%
X83977380Y-76121904D02*
X82977380Y-76121904D01*
X83453571Y-76121904D02*
X83453571Y-75550476D01*
X83977380Y-75550476D02*
X82977380Y-75550476D01*
X83977380Y-75074285D02*
X82977380Y-75074285D01*
X82977380Y-74836190D01*
X83025000Y-74693333D01*
X83120238Y-74598095D01*
X83215476Y-74550476D01*
X83405952Y-74502857D01*
X83548809Y-74502857D01*
X83739285Y-74550476D01*
X83834523Y-74598095D01*
X83929761Y-74693333D01*
X83977380Y-74836190D01*
X83977380Y-75074285D01*
X83977380Y-74074285D02*
X82977380Y-74074285D01*
X83691666Y-73740952D01*
X82977380Y-73407619D01*
X83977380Y-73407619D01*
X83977380Y-72360000D02*
X83501190Y-72693333D01*
X83977380Y-72931428D02*
X82977380Y-72931428D01*
X82977380Y-72550476D01*
X83025000Y-72455238D01*
X83072619Y-72407619D01*
X83167857Y-72360000D01*
X83310714Y-72360000D01*
X83405952Y-72407619D01*
X83453571Y-72455238D01*
X83501190Y-72550476D01*
X83501190Y-72931428D01*
X83596428Y-71931428D02*
X83596428Y-71169523D01*
X83977380Y-70169523D02*
X83977380Y-70740952D01*
X83977380Y-70455238D02*
X82977380Y-70455238D01*
X83120238Y-70550476D01*
X83215476Y-70645714D01*
X83263095Y-70740952D01*
X83977380Y-69693333D02*
X83977380Y-69502857D01*
X83929761Y-69407619D01*
X83882142Y-69360000D01*
X83739285Y-69264761D01*
X83548809Y-69217142D01*
X83167857Y-69217142D01*
X83072619Y-69264761D01*
X83025000Y-69312380D01*
X82977380Y-69407619D01*
X82977380Y-69598095D01*
X83025000Y-69693333D01*
X83072619Y-69740952D01*
X83167857Y-69788571D01*
X83405952Y-69788571D01*
X83501190Y-69740952D01*
X83548809Y-69693333D01*
X83596428Y-69598095D01*
X83596428Y-69407619D01*
X83548809Y-69312380D01*
X83501190Y-69264761D01*
X83405952Y-69217142D01*
X83596428Y-68788571D02*
X83596428Y-68026666D01*
X82977380Y-67360000D02*
X82977380Y-67264761D01*
X83025000Y-67169523D01*
X83072619Y-67121904D01*
X83167857Y-67074285D01*
X83358333Y-67026666D01*
X83596428Y-67026666D01*
X83786904Y-67074285D01*
X83882142Y-67121904D01*
X83929761Y-67169523D01*
X83977380Y-67264761D01*
X83977380Y-67360000D01*
X83929761Y-67455238D01*
X83882142Y-67502857D01*
X83786904Y-67550476D01*
X83596428Y-67598095D01*
X83358333Y-67598095D01*
X83167857Y-67550476D01*
X83072619Y-67502857D01*
X83025000Y-67455238D01*
X82977380Y-67360000D01*
X83977380Y-66074285D02*
X83977380Y-66645714D01*
X83977380Y-66360000D02*
X82977380Y-66360000D01*
X83120238Y-66455238D01*
X83215476Y-66550476D01*
X83263095Y-66645714D01*
X83596428Y-65645714D02*
X83596428Y-64883809D01*
X83929761Y-64455238D02*
X83977380Y-64312380D01*
X83977380Y-64074285D01*
X83929761Y-63979047D01*
X83882142Y-63931428D01*
X83786904Y-63883809D01*
X83691666Y-63883809D01*
X83596428Y-63931428D01*
X83548809Y-63979047D01*
X83501190Y-64074285D01*
X83453571Y-64264761D01*
X83405952Y-64360000D01*
X83358333Y-64407619D01*
X83263095Y-64455238D01*
X83167857Y-64455238D01*
X83072619Y-64407619D01*
X83025000Y-64360000D01*
X82977380Y-64264761D01*
X82977380Y-64026666D01*
X83025000Y-63883809D01*
X83596428Y-63455238D02*
X83596428Y-62693333D01*
X83929761Y-62264761D02*
X83977380Y-62121904D01*
X83977380Y-61883809D01*
X83929761Y-61788571D01*
X83882142Y-61740952D01*
X83786904Y-61693333D01*
X83691666Y-61693333D01*
X83596428Y-61740952D01*
X83548809Y-61788571D01*
X83501190Y-61883809D01*
X83453571Y-62074285D01*
X83405952Y-62169523D01*
X83358333Y-62217142D01*
X83263095Y-62264761D01*
X83167857Y-62264761D01*
X83072619Y-62217142D01*
X83025000Y-62169523D01*
X82977380Y-62074285D01*
X82977380Y-61836190D01*
X83025000Y-61693333D01*
X83977380Y-61264761D02*
X82977380Y-61264761D01*
X83691666Y-60931428D01*
X82977380Y-60598095D01*
X83977380Y-60598095D01*
X83596428Y-60121904D02*
X83596428Y-59360000D01*
X82977380Y-59026666D02*
X82977380Y-58455238D01*
X83977380Y-58740952D02*
X82977380Y-58740952D01*
X83977380Y-57550476D02*
X83501190Y-57883809D01*
X83977380Y-58121904D02*
X82977380Y-58121904D01*
X82977380Y-57740952D01*
X83025000Y-57645714D01*
X83072619Y-57598095D01*
X83167857Y-57550476D01*
X83310714Y-57550476D01*
X83405952Y-57598095D01*
X83453571Y-57645714D01*
X83501190Y-57740952D01*
X83501190Y-58121904D01*
%TO.C,H2*%
X98428571Y-49252380D02*
X98428571Y-48252380D01*
X98761904Y-48966666D01*
X99095238Y-48252380D01*
X99095238Y-49252380D01*
X99714285Y-49252380D02*
X99619047Y-49204761D01*
X99571428Y-49157142D01*
X99523809Y-49061904D01*
X99523809Y-48776190D01*
X99571428Y-48680952D01*
X99619047Y-48633333D01*
X99714285Y-48585714D01*
X99857142Y-48585714D01*
X99952380Y-48633333D01*
X100000000Y-48680952D01*
X100047619Y-48776190D01*
X100047619Y-49061904D01*
X100000000Y-49157142D01*
X99952380Y-49204761D01*
X99857142Y-49252380D01*
X99714285Y-49252380D01*
X100904761Y-48585714D02*
X100904761Y-49252380D01*
X100476190Y-48585714D02*
X100476190Y-49109523D01*
X100523809Y-49204761D01*
X100619047Y-49252380D01*
X100761904Y-49252380D01*
X100857142Y-49204761D01*
X100904761Y-49157142D01*
X101380952Y-48585714D02*
X101380952Y-49252380D01*
X101380952Y-48680952D02*
X101428571Y-48633333D01*
X101523809Y-48585714D01*
X101666666Y-48585714D01*
X101761904Y-48633333D01*
X101809523Y-48728571D01*
X101809523Y-49252380D01*
X102142857Y-48585714D02*
X102523809Y-48585714D01*
X102285714Y-48252380D02*
X102285714Y-49109523D01*
X102333333Y-49204761D01*
X102428571Y-49252380D01*
X102523809Y-49252380D01*
X102857142Y-49252380D02*
X102857142Y-48585714D01*
X102857142Y-48252380D02*
X102809523Y-48300000D01*
X102857142Y-48347619D01*
X102904761Y-48300000D01*
X102857142Y-48252380D01*
X102857142Y-48347619D01*
X103333333Y-48585714D02*
X103333333Y-49252380D01*
X103333333Y-48680952D02*
X103380952Y-48633333D01*
X103476190Y-48585714D01*
X103619047Y-48585714D01*
X103714285Y-48633333D01*
X103761904Y-48728571D01*
X103761904Y-49252380D01*
X104666666Y-48585714D02*
X104666666Y-49395238D01*
X104619047Y-49490476D01*
X104571428Y-49538095D01*
X104476190Y-49585714D01*
X104333333Y-49585714D01*
X104238095Y-49538095D01*
X104666666Y-49204761D02*
X104571428Y-49252380D01*
X104380952Y-49252380D01*
X104285714Y-49204761D01*
X104238095Y-49157142D01*
X104190476Y-49061904D01*
X104190476Y-48776190D01*
X104238095Y-48680952D01*
X104285714Y-48633333D01*
X104380952Y-48585714D01*
X104571428Y-48585714D01*
X104666666Y-48633333D01*
X105142857Y-49252380D02*
X105142857Y-48252380D01*
X105142857Y-48728571D02*
X105714285Y-48728571D01*
X105714285Y-49252380D02*
X105714285Y-48252380D01*
X106333333Y-49252380D02*
X106238095Y-49204761D01*
X106190476Y-49157142D01*
X106142857Y-49061904D01*
X106142857Y-48776190D01*
X106190476Y-48680952D01*
X106238095Y-48633333D01*
X106333333Y-48585714D01*
X106476190Y-48585714D01*
X106571428Y-48633333D01*
X106619047Y-48680952D01*
X106666666Y-48776190D01*
X106666666Y-49061904D01*
X106619047Y-49157142D01*
X106571428Y-49204761D01*
X106476190Y-49252380D01*
X106333333Y-49252380D01*
X107238095Y-49252380D02*
X107142857Y-49204761D01*
X107095238Y-49109523D01*
X107095238Y-48252380D01*
X108000000Y-49204761D02*
X107904761Y-49252380D01*
X107714285Y-49252380D01*
X107619047Y-49204761D01*
X107571428Y-49109523D01*
X107571428Y-48728571D01*
X107619047Y-48633333D01*
X107714285Y-48585714D01*
X107904761Y-48585714D01*
X108000000Y-48633333D01*
X108047619Y-48728571D01*
X108047619Y-48823809D01*
X107571428Y-48919047D01*
X108238095Y-49347619D02*
X109000000Y-49347619D01*
X109238095Y-49252380D02*
X109238095Y-48252380D01*
X109619047Y-48252380D01*
X109714285Y-48300000D01*
X109761904Y-48347619D01*
X109809523Y-48442857D01*
X109809523Y-48585714D01*
X109761904Y-48680952D01*
X109714285Y-48728571D01*
X109619047Y-48776190D01*
X109238095Y-48776190D01*
X110666666Y-49252380D02*
X110666666Y-48728571D01*
X110619047Y-48633333D01*
X110523809Y-48585714D01*
X110333333Y-48585714D01*
X110238095Y-48633333D01*
X110666666Y-49204761D02*
X110571428Y-49252380D01*
X110333333Y-49252380D01*
X110238095Y-49204761D01*
X110190476Y-49109523D01*
X110190476Y-49014285D01*
X110238095Y-48919047D01*
X110333333Y-48871428D01*
X110571428Y-48871428D01*
X110666666Y-48823809D01*
X111571428Y-49252380D02*
X111571428Y-48252380D01*
X111571428Y-49204761D02*
X111476190Y-49252380D01*
X111285714Y-49252380D01*
X111190476Y-49204761D01*
X111142857Y-49157142D01*
X111095238Y-49061904D01*
X111095238Y-48776190D01*
X111142857Y-48680952D01*
X111190476Y-48633333D01*
X111285714Y-48585714D01*
X111476190Y-48585714D01*
X111571428Y-48633333D01*
X104238095Y-45452380D02*
X104238095Y-44452380D01*
X104238095Y-44928571D02*
X104809523Y-44928571D01*
X104809523Y-45452380D02*
X104809523Y-44452380D01*
X105238095Y-44547619D02*
X105285714Y-44500000D01*
X105380952Y-44452380D01*
X105619047Y-44452380D01*
X105714285Y-44500000D01*
X105761904Y-44547619D01*
X105809523Y-44642857D01*
X105809523Y-44738095D01*
X105761904Y-44880952D01*
X105190476Y-45452380D01*
X105809523Y-45452380D01*
%TO.C,J7*%
X84067380Y-143939904D02*
X83067380Y-143939904D01*
X83543571Y-143939904D02*
X83543571Y-143368476D01*
X84067380Y-143368476D02*
X83067380Y-143368476D01*
X84067380Y-142892285D02*
X83067380Y-142892285D01*
X83067380Y-142654190D01*
X83115000Y-142511333D01*
X83210238Y-142416095D01*
X83305476Y-142368476D01*
X83495952Y-142320857D01*
X83638809Y-142320857D01*
X83829285Y-142368476D01*
X83924523Y-142416095D01*
X84019761Y-142511333D01*
X84067380Y-142654190D01*
X84067380Y-142892285D01*
X84067380Y-141892285D02*
X83067380Y-141892285D01*
X83781666Y-141558952D01*
X83067380Y-141225619D01*
X84067380Y-141225619D01*
X84067380Y-140178000D02*
X83591190Y-140511333D01*
X84067380Y-140749428D02*
X83067380Y-140749428D01*
X83067380Y-140368476D01*
X83115000Y-140273238D01*
X83162619Y-140225619D01*
X83257857Y-140178000D01*
X83400714Y-140178000D01*
X83495952Y-140225619D01*
X83543571Y-140273238D01*
X83591190Y-140368476D01*
X83591190Y-140749428D01*
X83686428Y-139749428D02*
X83686428Y-138987523D01*
X84067380Y-137987523D02*
X84067380Y-138558952D01*
X84067380Y-138273238D02*
X83067380Y-138273238D01*
X83210238Y-138368476D01*
X83305476Y-138463714D01*
X83353095Y-138558952D01*
X84067380Y-137511333D02*
X84067380Y-137320857D01*
X84019761Y-137225619D01*
X83972142Y-137178000D01*
X83829285Y-137082761D01*
X83638809Y-137035142D01*
X83257857Y-137035142D01*
X83162619Y-137082761D01*
X83115000Y-137130380D01*
X83067380Y-137225619D01*
X83067380Y-137416095D01*
X83115000Y-137511333D01*
X83162619Y-137558952D01*
X83257857Y-137606571D01*
X83495952Y-137606571D01*
X83591190Y-137558952D01*
X83638809Y-137511333D01*
X83686428Y-137416095D01*
X83686428Y-137225619D01*
X83638809Y-137130380D01*
X83591190Y-137082761D01*
X83495952Y-137035142D01*
X83686428Y-136606571D02*
X83686428Y-135844666D01*
X83067380Y-135178000D02*
X83067380Y-135082761D01*
X83115000Y-134987523D01*
X83162619Y-134939904D01*
X83257857Y-134892285D01*
X83448333Y-134844666D01*
X83686428Y-134844666D01*
X83876904Y-134892285D01*
X83972142Y-134939904D01*
X84019761Y-134987523D01*
X84067380Y-135082761D01*
X84067380Y-135178000D01*
X84019761Y-135273238D01*
X83972142Y-135320857D01*
X83876904Y-135368476D01*
X83686428Y-135416095D01*
X83448333Y-135416095D01*
X83257857Y-135368476D01*
X83162619Y-135320857D01*
X83115000Y-135273238D01*
X83067380Y-135178000D01*
X84067380Y-133892285D02*
X84067380Y-134463714D01*
X84067380Y-134178000D02*
X83067380Y-134178000D01*
X83210238Y-134273238D01*
X83305476Y-134368476D01*
X83353095Y-134463714D01*
X83686428Y-133463714D02*
X83686428Y-132701809D01*
X84019761Y-132273238D02*
X84067380Y-132130380D01*
X84067380Y-131892285D01*
X84019761Y-131797047D01*
X83972142Y-131749428D01*
X83876904Y-131701809D01*
X83781666Y-131701809D01*
X83686428Y-131749428D01*
X83638809Y-131797047D01*
X83591190Y-131892285D01*
X83543571Y-132082761D01*
X83495952Y-132178000D01*
X83448333Y-132225619D01*
X83353095Y-132273238D01*
X83257857Y-132273238D01*
X83162619Y-132225619D01*
X83115000Y-132178000D01*
X83067380Y-132082761D01*
X83067380Y-131844666D01*
X83115000Y-131701809D01*
X83686428Y-131273238D02*
X83686428Y-130511333D01*
X84019761Y-130082761D02*
X84067380Y-129939904D01*
X84067380Y-129701809D01*
X84019761Y-129606571D01*
X83972142Y-129558952D01*
X83876904Y-129511333D01*
X83781666Y-129511333D01*
X83686428Y-129558952D01*
X83638809Y-129606571D01*
X83591190Y-129701809D01*
X83543571Y-129892285D01*
X83495952Y-129987523D01*
X83448333Y-130035142D01*
X83353095Y-130082761D01*
X83257857Y-130082761D01*
X83162619Y-130035142D01*
X83115000Y-129987523D01*
X83067380Y-129892285D01*
X83067380Y-129654190D01*
X83115000Y-129511333D01*
X84067380Y-129082761D02*
X83067380Y-129082761D01*
X83781666Y-128749428D01*
X83067380Y-128416095D01*
X84067380Y-128416095D01*
X83686428Y-127939904D02*
X83686428Y-127178000D01*
X83067380Y-126844666D02*
X83067380Y-126273238D01*
X84067380Y-126558952D02*
X83067380Y-126558952D01*
X84067380Y-125368476D02*
X83591190Y-125701809D01*
X84067380Y-125939904D02*
X83067380Y-125939904D01*
X83067380Y-125558952D01*
X83115000Y-125463714D01*
X83162619Y-125416095D01*
X83257857Y-125368476D01*
X83400714Y-125368476D01*
X83495952Y-125416095D01*
X83543571Y-125463714D01*
X83591190Y-125558952D01*
X83591190Y-125939904D01*
%TO.C,J11*%
X84067380Y-189151904D02*
X83067380Y-189151904D01*
X83543571Y-189151904D02*
X83543571Y-188580476D01*
X84067380Y-188580476D02*
X83067380Y-188580476D01*
X84067380Y-188104285D02*
X83067380Y-188104285D01*
X83067380Y-187866190D01*
X83115000Y-187723333D01*
X83210238Y-187628095D01*
X83305476Y-187580476D01*
X83495952Y-187532857D01*
X83638809Y-187532857D01*
X83829285Y-187580476D01*
X83924523Y-187628095D01*
X84019761Y-187723333D01*
X84067380Y-187866190D01*
X84067380Y-188104285D01*
X84067380Y-187104285D02*
X83067380Y-187104285D01*
X83781666Y-186770952D01*
X83067380Y-186437619D01*
X84067380Y-186437619D01*
X84067380Y-185390000D02*
X83591190Y-185723333D01*
X84067380Y-185961428D02*
X83067380Y-185961428D01*
X83067380Y-185580476D01*
X83115000Y-185485238D01*
X83162619Y-185437619D01*
X83257857Y-185390000D01*
X83400714Y-185390000D01*
X83495952Y-185437619D01*
X83543571Y-185485238D01*
X83591190Y-185580476D01*
X83591190Y-185961428D01*
X83686428Y-184961428D02*
X83686428Y-184199523D01*
X84067380Y-183199523D02*
X84067380Y-183770952D01*
X84067380Y-183485238D02*
X83067380Y-183485238D01*
X83210238Y-183580476D01*
X83305476Y-183675714D01*
X83353095Y-183770952D01*
X84067380Y-182723333D02*
X84067380Y-182532857D01*
X84019761Y-182437619D01*
X83972142Y-182390000D01*
X83829285Y-182294761D01*
X83638809Y-182247142D01*
X83257857Y-182247142D01*
X83162619Y-182294761D01*
X83115000Y-182342380D01*
X83067380Y-182437619D01*
X83067380Y-182628095D01*
X83115000Y-182723333D01*
X83162619Y-182770952D01*
X83257857Y-182818571D01*
X83495952Y-182818571D01*
X83591190Y-182770952D01*
X83638809Y-182723333D01*
X83686428Y-182628095D01*
X83686428Y-182437619D01*
X83638809Y-182342380D01*
X83591190Y-182294761D01*
X83495952Y-182247142D01*
X83686428Y-181818571D02*
X83686428Y-181056666D01*
X83067380Y-180390000D02*
X83067380Y-180294761D01*
X83115000Y-180199523D01*
X83162619Y-180151904D01*
X83257857Y-180104285D01*
X83448333Y-180056666D01*
X83686428Y-180056666D01*
X83876904Y-180104285D01*
X83972142Y-180151904D01*
X84019761Y-180199523D01*
X84067380Y-180294761D01*
X84067380Y-180390000D01*
X84019761Y-180485238D01*
X83972142Y-180532857D01*
X83876904Y-180580476D01*
X83686428Y-180628095D01*
X83448333Y-180628095D01*
X83257857Y-180580476D01*
X83162619Y-180532857D01*
X83115000Y-180485238D01*
X83067380Y-180390000D01*
X84067380Y-179104285D02*
X84067380Y-179675714D01*
X84067380Y-179390000D02*
X83067380Y-179390000D01*
X83210238Y-179485238D01*
X83305476Y-179580476D01*
X83353095Y-179675714D01*
X83686428Y-178675714D02*
X83686428Y-177913809D01*
X84019761Y-177485238D02*
X84067380Y-177342380D01*
X84067380Y-177104285D01*
X84019761Y-177009047D01*
X83972142Y-176961428D01*
X83876904Y-176913809D01*
X83781666Y-176913809D01*
X83686428Y-176961428D01*
X83638809Y-177009047D01*
X83591190Y-177104285D01*
X83543571Y-177294761D01*
X83495952Y-177390000D01*
X83448333Y-177437619D01*
X83353095Y-177485238D01*
X83257857Y-177485238D01*
X83162619Y-177437619D01*
X83115000Y-177390000D01*
X83067380Y-177294761D01*
X83067380Y-177056666D01*
X83115000Y-176913809D01*
X83686428Y-176485238D02*
X83686428Y-175723333D01*
X84019761Y-175294761D02*
X84067380Y-175151904D01*
X84067380Y-174913809D01*
X84019761Y-174818571D01*
X83972142Y-174770952D01*
X83876904Y-174723333D01*
X83781666Y-174723333D01*
X83686428Y-174770952D01*
X83638809Y-174818571D01*
X83591190Y-174913809D01*
X83543571Y-175104285D01*
X83495952Y-175199523D01*
X83448333Y-175247142D01*
X83353095Y-175294761D01*
X83257857Y-175294761D01*
X83162619Y-175247142D01*
X83115000Y-175199523D01*
X83067380Y-175104285D01*
X83067380Y-174866190D01*
X83115000Y-174723333D01*
X84067380Y-174294761D02*
X83067380Y-174294761D01*
X83781666Y-173961428D01*
X83067380Y-173628095D01*
X84067380Y-173628095D01*
X83686428Y-173151904D02*
X83686428Y-172390000D01*
X83067380Y-172056666D02*
X83067380Y-171485238D01*
X84067380Y-171770952D02*
X83067380Y-171770952D01*
X84067380Y-170580476D02*
X83591190Y-170913809D01*
X84067380Y-171151904D02*
X83067380Y-171151904D01*
X83067380Y-170770952D01*
X83115000Y-170675714D01*
X83162619Y-170628095D01*
X83257857Y-170580476D01*
X83400714Y-170580476D01*
X83495952Y-170628095D01*
X83543571Y-170675714D01*
X83591190Y-170770952D01*
X83591190Y-171151904D01*
%TO.C,H1*%
X68428571Y-49252380D02*
X68428571Y-48252380D01*
X68761904Y-48966666D01*
X69095238Y-48252380D01*
X69095238Y-49252380D01*
X69714285Y-49252380D02*
X69619047Y-49204761D01*
X69571428Y-49157142D01*
X69523809Y-49061904D01*
X69523809Y-48776190D01*
X69571428Y-48680952D01*
X69619047Y-48633333D01*
X69714285Y-48585714D01*
X69857142Y-48585714D01*
X69952380Y-48633333D01*
X70000000Y-48680952D01*
X70047619Y-48776190D01*
X70047619Y-49061904D01*
X70000000Y-49157142D01*
X69952380Y-49204761D01*
X69857142Y-49252380D01*
X69714285Y-49252380D01*
X70904761Y-48585714D02*
X70904761Y-49252380D01*
X70476190Y-48585714D02*
X70476190Y-49109523D01*
X70523809Y-49204761D01*
X70619047Y-49252380D01*
X70761904Y-49252380D01*
X70857142Y-49204761D01*
X70904761Y-49157142D01*
X71380952Y-48585714D02*
X71380952Y-49252380D01*
X71380952Y-48680952D02*
X71428571Y-48633333D01*
X71523809Y-48585714D01*
X71666666Y-48585714D01*
X71761904Y-48633333D01*
X71809523Y-48728571D01*
X71809523Y-49252380D01*
X72142857Y-48585714D02*
X72523809Y-48585714D01*
X72285714Y-48252380D02*
X72285714Y-49109523D01*
X72333333Y-49204761D01*
X72428571Y-49252380D01*
X72523809Y-49252380D01*
X72857142Y-49252380D02*
X72857142Y-48585714D01*
X72857142Y-48252380D02*
X72809523Y-48300000D01*
X72857142Y-48347619D01*
X72904761Y-48300000D01*
X72857142Y-48252380D01*
X72857142Y-48347619D01*
X73333333Y-48585714D02*
X73333333Y-49252380D01*
X73333333Y-48680952D02*
X73380952Y-48633333D01*
X73476190Y-48585714D01*
X73619047Y-48585714D01*
X73714285Y-48633333D01*
X73761904Y-48728571D01*
X73761904Y-49252380D01*
X74666666Y-48585714D02*
X74666666Y-49395238D01*
X74619047Y-49490476D01*
X74571428Y-49538095D01*
X74476190Y-49585714D01*
X74333333Y-49585714D01*
X74238095Y-49538095D01*
X74666666Y-49204761D02*
X74571428Y-49252380D01*
X74380952Y-49252380D01*
X74285714Y-49204761D01*
X74238095Y-49157142D01*
X74190476Y-49061904D01*
X74190476Y-48776190D01*
X74238095Y-48680952D01*
X74285714Y-48633333D01*
X74380952Y-48585714D01*
X74571428Y-48585714D01*
X74666666Y-48633333D01*
X75142857Y-49252380D02*
X75142857Y-48252380D01*
X75142857Y-48728571D02*
X75714285Y-48728571D01*
X75714285Y-49252380D02*
X75714285Y-48252380D01*
X76333333Y-49252380D02*
X76238095Y-49204761D01*
X76190476Y-49157142D01*
X76142857Y-49061904D01*
X76142857Y-48776190D01*
X76190476Y-48680952D01*
X76238095Y-48633333D01*
X76333333Y-48585714D01*
X76476190Y-48585714D01*
X76571428Y-48633333D01*
X76619047Y-48680952D01*
X76666666Y-48776190D01*
X76666666Y-49061904D01*
X76619047Y-49157142D01*
X76571428Y-49204761D01*
X76476190Y-49252380D01*
X76333333Y-49252380D01*
X77238095Y-49252380D02*
X77142857Y-49204761D01*
X77095238Y-49109523D01*
X77095238Y-48252380D01*
X78000000Y-49204761D02*
X77904761Y-49252380D01*
X77714285Y-49252380D01*
X77619047Y-49204761D01*
X77571428Y-49109523D01*
X77571428Y-48728571D01*
X77619047Y-48633333D01*
X77714285Y-48585714D01*
X77904761Y-48585714D01*
X78000000Y-48633333D01*
X78047619Y-48728571D01*
X78047619Y-48823809D01*
X77571428Y-48919047D01*
X78238095Y-49347619D02*
X79000000Y-49347619D01*
X79238095Y-49252380D02*
X79238095Y-48252380D01*
X79619047Y-48252380D01*
X79714285Y-48300000D01*
X79761904Y-48347619D01*
X79809523Y-48442857D01*
X79809523Y-48585714D01*
X79761904Y-48680952D01*
X79714285Y-48728571D01*
X79619047Y-48776190D01*
X79238095Y-48776190D01*
X80666666Y-49252380D02*
X80666666Y-48728571D01*
X80619047Y-48633333D01*
X80523809Y-48585714D01*
X80333333Y-48585714D01*
X80238095Y-48633333D01*
X80666666Y-49204761D02*
X80571428Y-49252380D01*
X80333333Y-49252380D01*
X80238095Y-49204761D01*
X80190476Y-49109523D01*
X80190476Y-49014285D01*
X80238095Y-48919047D01*
X80333333Y-48871428D01*
X80571428Y-48871428D01*
X80666666Y-48823809D01*
X81571428Y-49252380D02*
X81571428Y-48252380D01*
X81571428Y-49204761D02*
X81476190Y-49252380D01*
X81285714Y-49252380D01*
X81190476Y-49204761D01*
X81142857Y-49157142D01*
X81095238Y-49061904D01*
X81095238Y-48776190D01*
X81142857Y-48680952D01*
X81190476Y-48633333D01*
X81285714Y-48585714D01*
X81476190Y-48585714D01*
X81571428Y-48633333D01*
X74238095Y-45452380D02*
X74238095Y-44452380D01*
X74238095Y-44928571D02*
X74809523Y-44928571D01*
X74809523Y-45452380D02*
X74809523Y-44452380D01*
X75809523Y-45452380D02*
X75238095Y-45452380D01*
X75523809Y-45452380D02*
X75523809Y-44452380D01*
X75428571Y-44595238D01*
X75333333Y-44690476D01*
X75238095Y-44738095D01*
%TO.C,J4*%
X96927380Y-81977904D02*
X95927380Y-81977904D01*
X96403571Y-81977904D02*
X96403571Y-81406476D01*
X96927380Y-81406476D02*
X95927380Y-81406476D01*
X96927380Y-80930285D02*
X95927380Y-80930285D01*
X95927380Y-80692190D01*
X95975000Y-80549333D01*
X96070238Y-80454095D01*
X96165476Y-80406476D01*
X96355952Y-80358857D01*
X96498809Y-80358857D01*
X96689285Y-80406476D01*
X96784523Y-80454095D01*
X96879761Y-80549333D01*
X96927380Y-80692190D01*
X96927380Y-80930285D01*
X96927380Y-79930285D02*
X95927380Y-79930285D01*
X96641666Y-79596952D01*
X95927380Y-79263619D01*
X96927380Y-79263619D01*
X96927380Y-78216000D02*
X96451190Y-78549333D01*
X96927380Y-78787428D02*
X95927380Y-78787428D01*
X95927380Y-78406476D01*
X95975000Y-78311238D01*
X96022619Y-78263619D01*
X96117857Y-78216000D01*
X96260714Y-78216000D01*
X96355952Y-78263619D01*
X96403571Y-78311238D01*
X96451190Y-78406476D01*
X96451190Y-78787428D01*
X96546428Y-77787428D02*
X96546428Y-77025523D01*
X96927380Y-76025523D02*
X96927380Y-76596952D01*
X96927380Y-76311238D02*
X95927380Y-76311238D01*
X96070238Y-76406476D01*
X96165476Y-76501714D01*
X96213095Y-76596952D01*
X96927380Y-75549333D02*
X96927380Y-75358857D01*
X96879761Y-75263619D01*
X96832142Y-75216000D01*
X96689285Y-75120761D01*
X96498809Y-75073142D01*
X96117857Y-75073142D01*
X96022619Y-75120761D01*
X95975000Y-75168380D01*
X95927380Y-75263619D01*
X95927380Y-75454095D01*
X95975000Y-75549333D01*
X96022619Y-75596952D01*
X96117857Y-75644571D01*
X96355952Y-75644571D01*
X96451190Y-75596952D01*
X96498809Y-75549333D01*
X96546428Y-75454095D01*
X96546428Y-75263619D01*
X96498809Y-75168380D01*
X96451190Y-75120761D01*
X96355952Y-75073142D01*
X96546428Y-74644571D02*
X96546428Y-73882666D01*
X95927380Y-73216000D02*
X95927380Y-73120761D01*
X95975000Y-73025523D01*
X96022619Y-72977904D01*
X96117857Y-72930285D01*
X96308333Y-72882666D01*
X96546428Y-72882666D01*
X96736904Y-72930285D01*
X96832142Y-72977904D01*
X96879761Y-73025523D01*
X96927380Y-73120761D01*
X96927380Y-73216000D01*
X96879761Y-73311238D01*
X96832142Y-73358857D01*
X96736904Y-73406476D01*
X96546428Y-73454095D01*
X96308333Y-73454095D01*
X96117857Y-73406476D01*
X96022619Y-73358857D01*
X95975000Y-73311238D01*
X95927380Y-73216000D01*
X96927380Y-71930285D02*
X96927380Y-72501714D01*
X96927380Y-72216000D02*
X95927380Y-72216000D01*
X96070238Y-72311238D01*
X96165476Y-72406476D01*
X96213095Y-72501714D01*
X96546428Y-71501714D02*
X96546428Y-70739809D01*
X96879761Y-70311238D02*
X96927380Y-70168380D01*
X96927380Y-69930285D01*
X96879761Y-69835047D01*
X96832142Y-69787428D01*
X96736904Y-69739809D01*
X96641666Y-69739809D01*
X96546428Y-69787428D01*
X96498809Y-69835047D01*
X96451190Y-69930285D01*
X96403571Y-70120761D01*
X96355952Y-70216000D01*
X96308333Y-70263619D01*
X96213095Y-70311238D01*
X96117857Y-70311238D01*
X96022619Y-70263619D01*
X95975000Y-70216000D01*
X95927380Y-70120761D01*
X95927380Y-69882666D01*
X95975000Y-69739809D01*
X96546428Y-69311238D02*
X96546428Y-68549333D01*
X96879761Y-68120761D02*
X96927380Y-67977904D01*
X96927380Y-67739809D01*
X96879761Y-67644571D01*
X96832142Y-67596952D01*
X96736904Y-67549333D01*
X96641666Y-67549333D01*
X96546428Y-67596952D01*
X96498809Y-67644571D01*
X96451190Y-67739809D01*
X96403571Y-67930285D01*
X96355952Y-68025523D01*
X96308333Y-68073142D01*
X96213095Y-68120761D01*
X96117857Y-68120761D01*
X96022619Y-68073142D01*
X95975000Y-68025523D01*
X95927380Y-67930285D01*
X95927380Y-67692190D01*
X95975000Y-67549333D01*
X96927380Y-67120761D02*
X95927380Y-67120761D01*
X96641666Y-66787428D01*
X95927380Y-66454095D01*
X96927380Y-66454095D01*
X96546428Y-65977904D02*
X96546428Y-65216000D01*
X95927380Y-64882666D02*
X95927380Y-64311238D01*
X96927380Y-64596952D02*
X95927380Y-64596952D01*
X96927380Y-63406476D02*
X96451190Y-63739809D01*
X96927380Y-63977904D02*
X95927380Y-63977904D01*
X95927380Y-63596952D01*
X95975000Y-63501714D01*
X96022619Y-63454095D01*
X96117857Y-63406476D01*
X96260714Y-63406476D01*
X96355952Y-63454095D01*
X96403571Y-63501714D01*
X96451190Y-63596952D01*
X96451190Y-63977904D01*
%TO.C,J10*%
X96927380Y-149795904D02*
X95927380Y-149795904D01*
X96403571Y-149795904D02*
X96403571Y-149224476D01*
X96927380Y-149224476D02*
X95927380Y-149224476D01*
X96927380Y-148748285D02*
X95927380Y-148748285D01*
X95927380Y-148510190D01*
X95975000Y-148367333D01*
X96070238Y-148272095D01*
X96165476Y-148224476D01*
X96355952Y-148176857D01*
X96498809Y-148176857D01*
X96689285Y-148224476D01*
X96784523Y-148272095D01*
X96879761Y-148367333D01*
X96927380Y-148510190D01*
X96927380Y-148748285D01*
X96927380Y-147748285D02*
X95927380Y-147748285D01*
X96641666Y-147414952D01*
X95927380Y-147081619D01*
X96927380Y-147081619D01*
X96927380Y-146034000D02*
X96451190Y-146367333D01*
X96927380Y-146605428D02*
X95927380Y-146605428D01*
X95927380Y-146224476D01*
X95975000Y-146129238D01*
X96022619Y-146081619D01*
X96117857Y-146034000D01*
X96260714Y-146034000D01*
X96355952Y-146081619D01*
X96403571Y-146129238D01*
X96451190Y-146224476D01*
X96451190Y-146605428D01*
X96546428Y-145605428D02*
X96546428Y-144843523D01*
X96927380Y-143843523D02*
X96927380Y-144414952D01*
X96927380Y-144129238D02*
X95927380Y-144129238D01*
X96070238Y-144224476D01*
X96165476Y-144319714D01*
X96213095Y-144414952D01*
X96927380Y-143367333D02*
X96927380Y-143176857D01*
X96879761Y-143081619D01*
X96832142Y-143034000D01*
X96689285Y-142938761D01*
X96498809Y-142891142D01*
X96117857Y-142891142D01*
X96022619Y-142938761D01*
X95975000Y-142986380D01*
X95927380Y-143081619D01*
X95927380Y-143272095D01*
X95975000Y-143367333D01*
X96022619Y-143414952D01*
X96117857Y-143462571D01*
X96355952Y-143462571D01*
X96451190Y-143414952D01*
X96498809Y-143367333D01*
X96546428Y-143272095D01*
X96546428Y-143081619D01*
X96498809Y-142986380D01*
X96451190Y-142938761D01*
X96355952Y-142891142D01*
X96546428Y-142462571D02*
X96546428Y-141700666D01*
X95927380Y-141034000D02*
X95927380Y-140938761D01*
X95975000Y-140843523D01*
X96022619Y-140795904D01*
X96117857Y-140748285D01*
X96308333Y-140700666D01*
X96546428Y-140700666D01*
X96736904Y-140748285D01*
X96832142Y-140795904D01*
X96879761Y-140843523D01*
X96927380Y-140938761D01*
X96927380Y-141034000D01*
X96879761Y-141129238D01*
X96832142Y-141176857D01*
X96736904Y-141224476D01*
X96546428Y-141272095D01*
X96308333Y-141272095D01*
X96117857Y-141224476D01*
X96022619Y-141176857D01*
X95975000Y-141129238D01*
X95927380Y-141034000D01*
X96927380Y-139748285D02*
X96927380Y-140319714D01*
X96927380Y-140034000D02*
X95927380Y-140034000D01*
X96070238Y-140129238D01*
X96165476Y-140224476D01*
X96213095Y-140319714D01*
X96546428Y-139319714D02*
X96546428Y-138557809D01*
X96879761Y-138129238D02*
X96927380Y-137986380D01*
X96927380Y-137748285D01*
X96879761Y-137653047D01*
X96832142Y-137605428D01*
X96736904Y-137557809D01*
X96641666Y-137557809D01*
X96546428Y-137605428D01*
X96498809Y-137653047D01*
X96451190Y-137748285D01*
X96403571Y-137938761D01*
X96355952Y-138034000D01*
X96308333Y-138081619D01*
X96213095Y-138129238D01*
X96117857Y-138129238D01*
X96022619Y-138081619D01*
X95975000Y-138034000D01*
X95927380Y-137938761D01*
X95927380Y-137700666D01*
X95975000Y-137557809D01*
X96546428Y-137129238D02*
X96546428Y-136367333D01*
X96879761Y-135938761D02*
X96927380Y-135795904D01*
X96927380Y-135557809D01*
X96879761Y-135462571D01*
X96832142Y-135414952D01*
X96736904Y-135367333D01*
X96641666Y-135367333D01*
X96546428Y-135414952D01*
X96498809Y-135462571D01*
X96451190Y-135557809D01*
X96403571Y-135748285D01*
X96355952Y-135843523D01*
X96308333Y-135891142D01*
X96213095Y-135938761D01*
X96117857Y-135938761D01*
X96022619Y-135891142D01*
X95975000Y-135843523D01*
X95927380Y-135748285D01*
X95927380Y-135510190D01*
X95975000Y-135367333D01*
X96927380Y-134938761D02*
X95927380Y-134938761D01*
X96641666Y-134605428D01*
X95927380Y-134272095D01*
X96927380Y-134272095D01*
X96546428Y-133795904D02*
X96546428Y-133034000D01*
X95927380Y-132700666D02*
X95927380Y-132129238D01*
X96927380Y-132414952D02*
X95927380Y-132414952D01*
X96927380Y-131224476D02*
X96451190Y-131557809D01*
X96927380Y-131795904D02*
X95927380Y-131795904D01*
X95927380Y-131414952D01*
X95975000Y-131319714D01*
X96022619Y-131272095D01*
X96117857Y-131224476D01*
X96260714Y-131224476D01*
X96355952Y-131272095D01*
X96403571Y-131319714D01*
X96451190Y-131414952D01*
X96451190Y-131795904D01*
%TO.C,J5*%
X84067380Y-121333904D02*
X83067380Y-121333904D01*
X83543571Y-121333904D02*
X83543571Y-120762476D01*
X84067380Y-120762476D02*
X83067380Y-120762476D01*
X84067380Y-120286285D02*
X83067380Y-120286285D01*
X83067380Y-120048190D01*
X83115000Y-119905333D01*
X83210238Y-119810095D01*
X83305476Y-119762476D01*
X83495952Y-119714857D01*
X83638809Y-119714857D01*
X83829285Y-119762476D01*
X83924523Y-119810095D01*
X84019761Y-119905333D01*
X84067380Y-120048190D01*
X84067380Y-120286285D01*
X84067380Y-119286285D02*
X83067380Y-119286285D01*
X83781666Y-118952952D01*
X83067380Y-118619619D01*
X84067380Y-118619619D01*
X84067380Y-117572000D02*
X83591190Y-117905333D01*
X84067380Y-118143428D02*
X83067380Y-118143428D01*
X83067380Y-117762476D01*
X83115000Y-117667238D01*
X83162619Y-117619619D01*
X83257857Y-117572000D01*
X83400714Y-117572000D01*
X83495952Y-117619619D01*
X83543571Y-117667238D01*
X83591190Y-117762476D01*
X83591190Y-118143428D01*
X83686428Y-117143428D02*
X83686428Y-116381523D01*
X84067380Y-115381523D02*
X84067380Y-115952952D01*
X84067380Y-115667238D02*
X83067380Y-115667238D01*
X83210238Y-115762476D01*
X83305476Y-115857714D01*
X83353095Y-115952952D01*
X84067380Y-114905333D02*
X84067380Y-114714857D01*
X84019761Y-114619619D01*
X83972142Y-114572000D01*
X83829285Y-114476761D01*
X83638809Y-114429142D01*
X83257857Y-114429142D01*
X83162619Y-114476761D01*
X83115000Y-114524380D01*
X83067380Y-114619619D01*
X83067380Y-114810095D01*
X83115000Y-114905333D01*
X83162619Y-114952952D01*
X83257857Y-115000571D01*
X83495952Y-115000571D01*
X83591190Y-114952952D01*
X83638809Y-114905333D01*
X83686428Y-114810095D01*
X83686428Y-114619619D01*
X83638809Y-114524380D01*
X83591190Y-114476761D01*
X83495952Y-114429142D01*
X83686428Y-114000571D02*
X83686428Y-113238666D01*
X83067380Y-112572000D02*
X83067380Y-112476761D01*
X83115000Y-112381523D01*
X83162619Y-112333904D01*
X83257857Y-112286285D01*
X83448333Y-112238666D01*
X83686428Y-112238666D01*
X83876904Y-112286285D01*
X83972142Y-112333904D01*
X84019761Y-112381523D01*
X84067380Y-112476761D01*
X84067380Y-112572000D01*
X84019761Y-112667238D01*
X83972142Y-112714857D01*
X83876904Y-112762476D01*
X83686428Y-112810095D01*
X83448333Y-112810095D01*
X83257857Y-112762476D01*
X83162619Y-112714857D01*
X83115000Y-112667238D01*
X83067380Y-112572000D01*
X84067380Y-111286285D02*
X84067380Y-111857714D01*
X84067380Y-111572000D02*
X83067380Y-111572000D01*
X83210238Y-111667238D01*
X83305476Y-111762476D01*
X83353095Y-111857714D01*
X83686428Y-110857714D02*
X83686428Y-110095809D01*
X84019761Y-109667238D02*
X84067380Y-109524380D01*
X84067380Y-109286285D01*
X84019761Y-109191047D01*
X83972142Y-109143428D01*
X83876904Y-109095809D01*
X83781666Y-109095809D01*
X83686428Y-109143428D01*
X83638809Y-109191047D01*
X83591190Y-109286285D01*
X83543571Y-109476761D01*
X83495952Y-109572000D01*
X83448333Y-109619619D01*
X83353095Y-109667238D01*
X83257857Y-109667238D01*
X83162619Y-109619619D01*
X83115000Y-109572000D01*
X83067380Y-109476761D01*
X83067380Y-109238666D01*
X83115000Y-109095809D01*
X83686428Y-108667238D02*
X83686428Y-107905333D01*
X84019761Y-107476761D02*
X84067380Y-107333904D01*
X84067380Y-107095809D01*
X84019761Y-107000571D01*
X83972142Y-106952952D01*
X83876904Y-106905333D01*
X83781666Y-106905333D01*
X83686428Y-106952952D01*
X83638809Y-107000571D01*
X83591190Y-107095809D01*
X83543571Y-107286285D01*
X83495952Y-107381523D01*
X83448333Y-107429142D01*
X83353095Y-107476761D01*
X83257857Y-107476761D01*
X83162619Y-107429142D01*
X83115000Y-107381523D01*
X83067380Y-107286285D01*
X83067380Y-107048190D01*
X83115000Y-106905333D01*
X84067380Y-106476761D02*
X83067380Y-106476761D01*
X83781666Y-106143428D01*
X83067380Y-105810095D01*
X84067380Y-105810095D01*
X83686428Y-105333904D02*
X83686428Y-104572000D01*
X83067380Y-104238666D02*
X83067380Y-103667238D01*
X84067380Y-103952952D02*
X83067380Y-103952952D01*
X84067380Y-102762476D02*
X83591190Y-103095809D01*
X84067380Y-103333904D02*
X83067380Y-103333904D01*
X83067380Y-102952952D01*
X83115000Y-102857714D01*
X83162619Y-102810095D01*
X83257857Y-102762476D01*
X83400714Y-102762476D01*
X83495952Y-102810095D01*
X83543571Y-102857714D01*
X83591190Y-102952952D01*
X83591190Y-103333904D01*
D11*
%TO.C,J2*%
X97690000Y-65990000D02*
X109860000Y-65990000D01*
X109860000Y-65990000D02*
X109860000Y-50980000D01*
X109860000Y-50980000D02*
X97690000Y-50980000D01*
X97690000Y-50980000D02*
X97690000Y-65990000D01*
D12*
X96846000Y-53985000D02*
G75*
G03*
X96846000Y-53985000I-100000J0D01*
G01*
D11*
%TO.C,J9*%
X82310000Y-156414000D02*
X82310000Y-141404000D01*
X70140000Y-156414000D02*
X82310000Y-156414000D01*
X82310000Y-141404000D02*
X70140000Y-141404000D01*
X70140000Y-141404000D02*
X70140000Y-156414000D01*
D12*
X83354000Y-153409000D02*
G75*
G03*
X83354000Y-153409000I-100000J0D01*
G01*
D11*
%TO.C,J8*%
X109950000Y-118798000D02*
X97780000Y-118798000D01*
X97780000Y-133808000D02*
X109950000Y-133808000D01*
X97780000Y-118798000D02*
X97780000Y-133808000D01*
X109950000Y-133808000D02*
X109950000Y-118798000D01*
D12*
X96936000Y-121803000D02*
G75*
G03*
X96936000Y-121803000I-100000J0D01*
G01*
D11*
%TO.C,J6*%
X97780000Y-96192000D02*
X97780000Y-111202000D01*
X97780000Y-111202000D02*
X109950000Y-111202000D01*
X109950000Y-111202000D02*
X109950000Y-96192000D01*
X109950000Y-96192000D02*
X97780000Y-96192000D01*
D12*
X96936000Y-99197000D02*
G75*
G03*
X96936000Y-99197000I-100000J0D01*
G01*
D11*
%TO.C,J12*%
X109950000Y-179020000D02*
X109950000Y-164010000D01*
X97780000Y-164010000D02*
X97780000Y-179020000D01*
X109950000Y-164010000D02*
X97780000Y-164010000D01*
X97780000Y-179020000D02*
X109950000Y-179020000D01*
D12*
X96936000Y-167015000D02*
G75*
G03*
X96936000Y-167015000I-100000J0D01*
G01*
D11*
%TO.C,J3*%
X70140000Y-88596000D02*
X82310000Y-88596000D01*
X70140000Y-73586000D02*
X70140000Y-88596000D01*
X82310000Y-88596000D02*
X82310000Y-73586000D01*
X82310000Y-73586000D02*
X70140000Y-73586000D01*
D12*
X83354000Y-85591000D02*
G75*
G03*
X83354000Y-85591000I-100000J0D01*
G01*
D11*
%TO.C,J1*%
X70050000Y-50980000D02*
X70050000Y-65990000D01*
X70050000Y-65990000D02*
X82220000Y-65990000D01*
X82220000Y-50980000D02*
X70050000Y-50980000D01*
X82220000Y-65990000D02*
X82220000Y-50980000D01*
D12*
X83264000Y-62985000D02*
G75*
G03*
X83264000Y-62985000I-100000J0D01*
G01*
D11*
%TO.C,J7*%
X70140000Y-133808000D02*
X82310000Y-133808000D01*
X82310000Y-133808000D02*
X82310000Y-118798000D01*
X70140000Y-118798000D02*
X70140000Y-133808000D01*
X82310000Y-118798000D02*
X70140000Y-118798000D01*
D12*
X83354000Y-130803000D02*
G75*
G03*
X83354000Y-130803000I-100000J0D01*
G01*
D11*
%TO.C,J11*%
X70140000Y-164010000D02*
X70140000Y-179020000D01*
X82310000Y-164010000D02*
X70140000Y-164010000D01*
X70140000Y-179020000D02*
X82310000Y-179020000D01*
X82310000Y-179020000D02*
X82310000Y-164010000D01*
D12*
X83354000Y-176015000D02*
G75*
G03*
X83354000Y-176015000I-100000J0D01*
G01*
D11*
%TO.C,J4*%
X109950000Y-73586000D02*
X97780000Y-73586000D01*
X97780000Y-88596000D02*
X109950000Y-88596000D01*
X97780000Y-73586000D02*
X97780000Y-88596000D01*
X109950000Y-88596000D02*
X109950000Y-73586000D01*
D12*
X96936000Y-76591000D02*
G75*
G03*
X96936000Y-76591000I-100000J0D01*
G01*
D11*
%TO.C,J10*%
X109950000Y-156414000D02*
X109950000Y-141404000D01*
X97780000Y-156414000D02*
X109950000Y-156414000D01*
X97780000Y-141404000D02*
X97780000Y-156414000D01*
X109950000Y-141404000D02*
X97780000Y-141404000D01*
D12*
X96936000Y-144409000D02*
G75*
G03*
X96936000Y-144409000I-100000J0D01*
G01*
D11*
%TO.C,J5*%
X82310000Y-111202000D02*
X82310000Y-96192000D01*
X70140000Y-96192000D02*
X70140000Y-111202000D01*
X82310000Y-96192000D02*
X70140000Y-96192000D01*
X70140000Y-111202000D02*
X82310000Y-111202000D01*
D12*
X83354000Y-108197000D02*
G75*
G03*
X83354000Y-108197000I-100000J0D01*
G01*
%TD*%
M02*
