%TF.GenerationSoftware,KiCad,Pcbnew,6.0.7-1.fc36*%
%TF.CreationDate,2022-07-28T17:35:04+01:00*%
%TF.ProjectId,pc070_aida_hdmi_rpc_hdmi,70633037-305f-4616-9964-615f68646d69,rev?*%
%TF.SameCoordinates,Original*%
%TF.FileFunction,Copper,L4,Bot*%
%TF.FilePolarity,Positive*%
%FSLAX46Y46*%
G04 Gerber Fmt 4.6, Leading zero omitted, Abs format (unit mm)*
G04 Created by KiCad (PCBNEW 6.0.7-1.fc36) date 2022-07-28 17:35:04*
%MOMM*%
%LPD*%
G01*
G04 APERTURE LIST*
%TA.AperFunction,ComponentPad*%
%ADD10O,3.200000X1.600000*%
%TD*%
%TA.AperFunction,ComponentPad*%
%ADD11O,2.820000X1.410000*%
%TD*%
%TA.AperFunction,ConnectorPad*%
%ADD12C,5.600000*%
%TD*%
%TA.AperFunction,ComponentPad*%
%ADD13C,3.600000*%
%TD*%
%TA.AperFunction,ViaPad*%
%ADD14C,0.800000*%
%TD*%
%TA.AperFunction,Conductor*%
%ADD15C,0.250000*%
%TD*%
G04 APERTURE END LIST*
D10*
%TO.P,J2,S1,SHIELD*%
%TO.N,GND*%
X99300000Y-65735000D03*
%TO.P,J2,S2,SHIELD*%
X99300000Y-51235000D03*
D11*
%TO.P,J2,S3,SHIELD*%
X105260000Y-65735000D03*
%TO.P,J2,S4,SHIELD*%
X105260000Y-51235000D03*
%TD*%
D10*
%TO.P,J9,S1,SHIELD*%
%TO.N,GND*%
X80700000Y-141659000D03*
%TO.P,J9,S2,SHIELD*%
X80700000Y-156159000D03*
D11*
%TO.P,J9,S3,SHIELD*%
X74740000Y-141659000D03*
%TO.P,J9,S4,SHIELD*%
X74740000Y-156159000D03*
%TD*%
D12*
%TO.P,H3,1,1*%
%TO.N,GND*%
X105000000Y-185000000D03*
D13*
X105000000Y-185000000D03*
%TD*%
%TO.P,H4,1,1*%
%TO.N,GND*%
X75000000Y-185000000D03*
D12*
X75000000Y-185000000D03*
%TD*%
D10*
%TO.P,J8,S1,SHIELD*%
%TO.N,GND*%
X99390000Y-133553000D03*
%TO.P,J8,S2,SHIELD*%
X99390000Y-119053000D03*
D11*
%TO.P,J8,S3,SHIELD*%
X105350000Y-133553000D03*
%TO.P,J8,S4,SHIELD*%
X105350000Y-119053000D03*
%TD*%
D10*
%TO.P,J6,S1,SHIELD*%
%TO.N,GND*%
X99390000Y-110947000D03*
%TO.P,J6,S2,SHIELD*%
X99390000Y-96447000D03*
D11*
%TO.P,J6,S3,SHIELD*%
X105350000Y-110947000D03*
%TO.P,J6,S4,SHIELD*%
X105350000Y-96447000D03*
%TD*%
D10*
%TO.P,J12,S1,SHIELD*%
%TO.N,GND*%
X99390000Y-178765000D03*
%TO.P,J12,S2,SHIELD*%
X99390000Y-164265000D03*
D11*
%TO.P,J12,S3,SHIELD*%
X105350000Y-178765000D03*
%TO.P,J12,S4,SHIELD*%
X105350000Y-164265000D03*
%TD*%
D10*
%TO.P,J3,S1,SHIELD*%
%TO.N,GND*%
X80700000Y-73841000D03*
%TO.P,J3,S2,SHIELD*%
X80700000Y-88341000D03*
D11*
%TO.P,J3,S3,SHIELD*%
X74740000Y-73841000D03*
%TO.P,J3,S4,SHIELD*%
X74740000Y-88341000D03*
%TD*%
D10*
%TO.P,J1,S1,SHIELD*%
%TO.N,GND*%
X80610000Y-51235000D03*
%TO.P,J1,S2,SHIELD*%
X80610000Y-65735000D03*
D11*
%TO.P,J1,S3,SHIELD*%
X74650000Y-51235000D03*
%TO.P,J1,S4,SHIELD*%
X74650000Y-65735000D03*
%TD*%
D13*
%TO.P,H2,1,1*%
%TO.N,GND*%
X105000000Y-45000000D03*
D12*
X105000000Y-45000000D03*
%TD*%
D10*
%TO.P,J7,S1,SHIELD*%
%TO.N,GND*%
X80700000Y-119053000D03*
%TO.P,J7,S2,SHIELD*%
X80700000Y-133553000D03*
D11*
%TO.P,J7,S3,SHIELD*%
X74740000Y-119053000D03*
%TO.P,J7,S4,SHIELD*%
X74740000Y-133553000D03*
%TD*%
D10*
%TO.P,J11,S1,SHIELD*%
%TO.N,GND*%
X80700000Y-164265000D03*
%TO.P,J11,S2,SHIELD*%
X80700000Y-178765000D03*
D11*
%TO.P,J11,S3,SHIELD*%
X74740000Y-164265000D03*
%TO.P,J11,S4,SHIELD*%
X74740000Y-178765000D03*
%TD*%
D12*
%TO.P,H1,1,1*%
%TO.N,GND*%
X75000000Y-45000000D03*
D13*
X75000000Y-45000000D03*
%TD*%
D10*
%TO.P,J4,S1,SHIELD*%
%TO.N,GND*%
X99390000Y-88341000D03*
%TO.P,J4,S2,SHIELD*%
X99390000Y-73841000D03*
D11*
%TO.P,J4,S3,SHIELD*%
X105350000Y-88341000D03*
%TO.P,J4,S4,SHIELD*%
X105350000Y-73841000D03*
%TD*%
D10*
%TO.P,J10,S1,SHIELD*%
%TO.N,GND*%
X99390000Y-156159000D03*
%TO.P,J10,S2,SHIELD*%
X99390000Y-141659000D03*
D11*
%TO.P,J10,S3,SHIELD*%
X105350000Y-156159000D03*
%TO.P,J10,S4,SHIELD*%
X105350000Y-141659000D03*
%TD*%
D10*
%TO.P,J5,S1,SHIELD*%
%TO.N,GND*%
X80700000Y-96447000D03*
%TO.P,J5,S2,SHIELD*%
X80700000Y-110947000D03*
D11*
%TO.P,J5,S3,SHIELD*%
X74740000Y-96447000D03*
%TO.P,J5,S4,SHIELD*%
X74740000Y-110947000D03*
%TD*%
D14*
%TO.N,GND*%
X100425915Y-149417874D03*
X100425915Y-104205874D03*
X100425915Y-81599874D03*
X100425915Y-172023874D03*
X100425915Y-126811874D03*
X100335915Y-58993874D03*
X79654084Y-128826148D03*
X79654084Y-151432148D03*
X79564084Y-61008148D03*
X79654084Y-83614148D03*
X79654084Y-174038148D03*
X79654084Y-106220148D03*
X100432439Y-146390915D03*
X100432439Y-101178915D03*
X100432439Y-168996915D03*
X100432439Y-78572915D03*
X100432439Y-123784915D03*
X100342439Y-55966915D03*
X100425915Y-147917874D03*
X100425915Y-102705874D03*
X100425915Y-170523874D03*
X100425915Y-80099874D03*
X100425915Y-125311874D03*
X100335915Y-57493874D03*
X79658515Y-125786285D03*
X79658515Y-148392285D03*
X79658515Y-80574285D03*
X79658515Y-170998285D03*
X79658515Y-103180285D03*
X79568515Y-57968285D03*
X79663533Y-152899359D03*
X79663533Y-85081359D03*
X79663533Y-175505359D03*
X79663533Y-107687359D03*
X79663533Y-130293359D03*
X79573533Y-62475359D03*
X100422359Y-99701005D03*
X100422359Y-167519005D03*
X100422359Y-77095005D03*
X100422359Y-122307005D03*
X100422359Y-144913005D03*
X100332359Y-54489005D03*
X79653478Y-127278958D03*
X79653478Y-149884958D03*
X79653478Y-82066958D03*
X79653478Y-172490958D03*
X79653478Y-104672958D03*
X79563478Y-59460958D03*
%TO.N,/pc070_aida_hdmi_rpc_hdmi_single/CLK*%
X86400000Y-57585000D03*
X86400000Y-53735000D03*
%TO.N,/pc070_aida_hdmi_rpc_hdmi_single/CLK\u002A*%
X85300000Y-54485000D03*
X85300000Y-57485000D03*
%TO.N,/pc070_aida_hdmi_rpc_hdmi_single/CONT*%
X91200000Y-55535000D03*
X89424951Y-56334549D03*
%TO.N,/pc070_aida_hdmi_rpc_hdmi_single/BUSY*%
X94950000Y-57235000D03*
X94950000Y-63035000D03*
%TO.N,/pc070_aida_hdmi_rpc_hdmi_single/BUSY\u002A*%
X93850000Y-57760500D03*
X93850000Y-62935000D03*
%TO.N,/pc070_aida_hdmi_rpc_hdmi_single/SPARE*%
X91200000Y-58485000D03*
X89500000Y-59985000D03*
%TO.N,/pc070_aida_hdmi_rpc_hdmi_single/TRIG*%
X87600000Y-60709500D03*
X86150000Y-61485000D03*
%TO.N,/pc070_aida_hdmi_rpc_hdmi_single1/CLK*%
X86490000Y-80191000D03*
X86490000Y-76341000D03*
%TO.N,/pc070_aida_hdmi_rpc_hdmi_single1/CLK\u002A*%
X85390000Y-77091000D03*
X85390000Y-80091000D03*
%TO.N,/pc070_aida_hdmi_rpc_hdmi_single1/CONT*%
X91290000Y-78141000D03*
X89514951Y-78940549D03*
%TO.N,/pc070_aida_hdmi_rpc_hdmi_single1/BUSY*%
X95040000Y-79841000D03*
X95040000Y-85641000D03*
%TO.N,/pc070_aida_hdmi_rpc_hdmi_single1/BUSY\u002A*%
X93940000Y-80366500D03*
X93940000Y-85541000D03*
%TO.N,/pc070_aida_hdmi_rpc_hdmi_single1/SPARE*%
X90382356Y-81334144D03*
X89317008Y-82317992D03*
%TO.N,/pc070_aida_hdmi_rpc_hdmi_single1/TRIG*%
X87690000Y-83315500D03*
X86240000Y-84091000D03*
%TO.N,/pc070_aida_hdmi_rpc_hdmi_single2/CLK*%
X86490000Y-102797000D03*
X86490000Y-98947000D03*
%TO.N,/pc070_aida_hdmi_rpc_hdmi_single2/CLK\u002A*%
X85390000Y-99697000D03*
X85390000Y-102697000D03*
%TO.N,/pc070_aida_hdmi_rpc_hdmi_single2/CONT*%
X91290000Y-100747000D03*
X89514951Y-101546549D03*
%TO.N,/pc070_aida_hdmi_rpc_hdmi_single2/BUSY*%
X95040000Y-102447000D03*
X95040000Y-108247000D03*
%TO.N,/pc070_aida_hdmi_rpc_hdmi_single2/BUSY\u002A*%
X93940000Y-102972500D03*
X93940000Y-108147000D03*
%TO.N,/pc070_aida_hdmi_rpc_hdmi_single2/SPARE*%
X91290000Y-103697000D03*
X89590000Y-105197000D03*
%TO.N,/pc070_aida_hdmi_rpc_hdmi_single2/TRIG*%
X87690000Y-105921500D03*
X86240000Y-106697000D03*
%TO.N,/pc070_aida_hdmi_rpc_hdmi_single4/CLK*%
X86490000Y-125403000D03*
X86490000Y-121553000D03*
%TO.N,/pc070_aida_hdmi_rpc_hdmi_single4/CLK\u002A*%
X85390000Y-122303000D03*
X85390000Y-125303000D03*
%TO.N,/pc070_aida_hdmi_rpc_hdmi_single4/CONT*%
X91290000Y-123353000D03*
X89514951Y-124152549D03*
%TO.N,/pc070_aida_hdmi_rpc_hdmi_single4/BUSY*%
X95040000Y-125053000D03*
X95040000Y-130853000D03*
%TO.N,/pc070_aida_hdmi_rpc_hdmi_single4/BUSY\u002A*%
X93940000Y-125578500D03*
X93940000Y-130753000D03*
%TO.N,/pc070_aida_hdmi_rpc_hdmi_single4/SPARE*%
X91290000Y-126303000D03*
X89590000Y-127803000D03*
%TO.N,/pc070_aida_hdmi_rpc_hdmi_single4/TRIG*%
X87690000Y-128527500D03*
X86240000Y-129303000D03*
%TO.N,/pc070_aida_hdmi_rpc_hdmi_single5/CLK*%
X86490000Y-148009000D03*
X86490000Y-144159000D03*
%TO.N,/pc070_aida_hdmi_rpc_hdmi_single5/CLK\u002A*%
X85390000Y-144909000D03*
X85390000Y-147909000D03*
%TO.N,/pc070_aida_hdmi_rpc_hdmi_single5/CONT*%
X91290000Y-145959000D03*
X89514951Y-146758549D03*
%TO.N,/pc070_aida_hdmi_rpc_hdmi_single5/BUSY*%
X95040000Y-147659000D03*
X95040000Y-153459000D03*
%TO.N,/pc070_aida_hdmi_rpc_hdmi_single5/BUSY\u002A*%
X93940000Y-148184500D03*
X93940000Y-153359000D03*
%TO.N,/pc070_aida_hdmi_rpc_hdmi_single5/SPARE*%
X91290000Y-148909000D03*
X89590000Y-150409000D03*
%TO.N,/pc070_aida_hdmi_rpc_hdmi_single5/TRIG*%
X87690000Y-151133500D03*
X86240000Y-151909000D03*
%TO.N,/pc070_aida_hdmi_rpc_hdmi_single3/CLK*%
X86490000Y-170615000D03*
X86490000Y-166765000D03*
%TO.N,/pc070_aida_hdmi_rpc_hdmi_single3/CLK\u002A*%
X85390000Y-167515000D03*
X85390000Y-170515000D03*
%TO.N,/pc070_aida_hdmi_rpc_hdmi_single3/CONT*%
X91290000Y-168565000D03*
X89514951Y-169364549D03*
%TO.N,/pc070_aida_hdmi_rpc_hdmi_single3/BUSY*%
X95040000Y-170265000D03*
X95040000Y-176065000D03*
%TO.N,/pc070_aida_hdmi_rpc_hdmi_single3/BUSY\u002A*%
X93940000Y-170790500D03*
X93940000Y-175965000D03*
%TO.N,/pc070_aida_hdmi_rpc_hdmi_single3/SPARE*%
X91290000Y-171515000D03*
X89590000Y-173015000D03*
%TO.N,/pc070_aida_hdmi_rpc_hdmi_single3/TRIG*%
X87690000Y-173739500D03*
X86240000Y-174515000D03*
%TD*%
D15*
%TO.N,/pc070_aida_hdmi_rpc_hdmi_single/CLK*%
X85850000Y-57010386D02*
X85850000Y-54959614D01*
X85987307Y-54147693D02*
X86400000Y-53735000D01*
X86024511Y-54785103D02*
X86024511Y-54184897D01*
X85850000Y-54959614D02*
X86024511Y-54785103D01*
X86024511Y-57209511D02*
X86024511Y-57184897D01*
X86024511Y-57184897D02*
X85850000Y-57010386D01*
X86024511Y-54184897D02*
X85987307Y-54147693D01*
X86400000Y-57585000D02*
X86024511Y-57209511D01*
%TO.N,/pc070_aida_hdmi_rpc_hdmi_single/CLK\u002A*%
X85400480Y-54585480D02*
X85300000Y-54485000D01*
X85300000Y-57485000D02*
X85400480Y-57384520D01*
X85400480Y-57384520D02*
X85400480Y-54585480D01*
%TO.N,/pc070_aida_hdmi_rpc_hdmi_single/CONT*%
X89424951Y-56334549D02*
X90400451Y-56334549D01*
X90400451Y-56334549D02*
X91200000Y-55535000D01*
%TO.N,/pc070_aida_hdmi_rpc_hdmi_single/BUSY*%
X94600000Y-62685000D02*
X94600000Y-57585000D01*
X94600000Y-57585000D02*
X94950000Y-57235000D01*
X94950000Y-63035000D02*
X94600000Y-62685000D01*
%TO.N,/pc070_aida_hdmi_rpc_hdmi_single/BUSY\u002A*%
X94150480Y-62634520D02*
X94150480Y-58060980D01*
X94150480Y-58060980D02*
X93850000Y-57760500D01*
X93850000Y-62935000D02*
X94150480Y-62634520D01*
%TO.N,/pc070_aida_hdmi_rpc_hdmi_single/SPARE*%
X89700000Y-59985000D02*
X91200000Y-58485000D01*
X89600000Y-59985000D02*
X89700000Y-59985000D01*
X89500000Y-59985000D02*
X89600000Y-59985000D01*
%TO.N,/pc070_aida_hdmi_rpc_hdmi_single/TRIG*%
X86925500Y-60709500D02*
X86150000Y-61485000D01*
X87600000Y-60709500D02*
X86925500Y-60709500D01*
%TO.N,/pc070_aida_hdmi_rpc_hdmi_single1/CLK*%
X85940000Y-79616386D02*
X85940000Y-77565614D01*
X86077307Y-76753693D02*
X86490000Y-76341000D01*
X86114511Y-77391103D02*
X86114511Y-76790897D01*
X85940000Y-77565614D02*
X86114511Y-77391103D01*
X86114511Y-79815511D02*
X86114511Y-79790897D01*
X86114511Y-79790897D02*
X85940000Y-79616386D01*
X86114511Y-76790897D02*
X86077307Y-76753693D01*
X86490000Y-80191000D02*
X86114511Y-79815511D01*
%TO.N,/pc070_aida_hdmi_rpc_hdmi_single1/CLK\u002A*%
X85490480Y-77191480D02*
X85390000Y-77091000D01*
X85390000Y-80091000D02*
X85490480Y-79990520D01*
X85490480Y-79990520D02*
X85490480Y-77191480D01*
%TO.N,/pc070_aida_hdmi_rpc_hdmi_single1/CONT*%
X89514951Y-78940549D02*
X90490451Y-78940549D01*
X90490451Y-78940549D02*
X91290000Y-78141000D01*
%TO.N,/pc070_aida_hdmi_rpc_hdmi_single1/BUSY*%
X94690000Y-85291000D02*
X94690000Y-80191000D01*
X94690000Y-80191000D02*
X95040000Y-79841000D01*
X95040000Y-85641000D02*
X94690000Y-85291000D01*
%TO.N,/pc070_aida_hdmi_rpc_hdmi_single1/BUSY\u002A*%
X94240480Y-85240520D02*
X94240480Y-80666980D01*
X94240480Y-80666980D02*
X93940000Y-80366500D01*
X93940000Y-85541000D02*
X94240480Y-85240520D01*
%TO.N,/pc070_aida_hdmi_rpc_hdmi_single1/SPARE*%
X90300856Y-81334144D02*
X89317008Y-82317992D01*
X90382356Y-81334144D02*
X90300856Y-81334144D01*
%TO.N,/pc070_aida_hdmi_rpc_hdmi_single1/TRIG*%
X87015500Y-83315500D02*
X86240000Y-84091000D01*
X87690000Y-83315500D02*
X87015500Y-83315500D01*
%TO.N,/pc070_aida_hdmi_rpc_hdmi_single2/CLK*%
X85940000Y-102222386D02*
X85940000Y-100171614D01*
X86077307Y-99359693D02*
X86490000Y-98947000D01*
X86114511Y-99997103D02*
X86114511Y-99396897D01*
X85940000Y-100171614D02*
X86114511Y-99997103D01*
X86114511Y-102421511D02*
X86114511Y-102396897D01*
X86114511Y-102396897D02*
X85940000Y-102222386D01*
X86114511Y-99396897D02*
X86077307Y-99359693D01*
X86490000Y-102797000D02*
X86114511Y-102421511D01*
%TO.N,/pc070_aida_hdmi_rpc_hdmi_single2/CLK\u002A*%
X85490480Y-99797480D02*
X85390000Y-99697000D01*
X85390000Y-102697000D02*
X85490480Y-102596520D01*
X85490480Y-102596520D02*
X85490480Y-99797480D01*
%TO.N,/pc070_aida_hdmi_rpc_hdmi_single2/CONT*%
X89514951Y-101546549D02*
X90490451Y-101546549D01*
X90490451Y-101546549D02*
X91290000Y-100747000D01*
%TO.N,/pc070_aida_hdmi_rpc_hdmi_single2/BUSY*%
X94690000Y-107897000D02*
X94690000Y-102797000D01*
X94690000Y-102797000D02*
X95040000Y-102447000D01*
X95040000Y-108247000D02*
X94690000Y-107897000D01*
X94664511Y-107897000D02*
X94639022Y-107897000D01*
%TO.N,/pc070_aida_hdmi_rpc_hdmi_single2/BUSY\u002A*%
X94240480Y-107846520D02*
X94240480Y-103272980D01*
X94240480Y-103272980D02*
X93940000Y-102972500D01*
X93940000Y-108147000D02*
X94240480Y-107846520D01*
%TO.N,/pc070_aida_hdmi_rpc_hdmi_single2/SPARE*%
X89790000Y-105197000D02*
X91290000Y-103697000D01*
X89690000Y-105197000D02*
X89790000Y-105197000D01*
X89590000Y-105197000D02*
X89690000Y-105197000D01*
%TO.N,/pc070_aida_hdmi_rpc_hdmi_single2/TRIG*%
X87015500Y-105921500D02*
X86240000Y-106697000D01*
X87690000Y-105921500D02*
X87015500Y-105921500D01*
%TO.N,/pc070_aida_hdmi_rpc_hdmi_single4/CLK*%
X85940000Y-124828386D02*
X85940000Y-122777614D01*
X86077307Y-121965693D02*
X86490000Y-121553000D01*
X86114511Y-122603103D02*
X86114511Y-122002897D01*
X85940000Y-122777614D02*
X86114511Y-122603103D01*
X86114511Y-125027511D02*
X86114511Y-125002897D01*
X86114511Y-125002897D02*
X85940000Y-124828386D01*
X86114511Y-122002897D02*
X86077307Y-121965693D01*
X86490000Y-125403000D02*
X86114511Y-125027511D01*
%TO.N,/pc070_aida_hdmi_rpc_hdmi_single4/CLK\u002A*%
X85490480Y-122403480D02*
X85390000Y-122303000D01*
X85390000Y-125303000D02*
X85490480Y-125202520D01*
X85490480Y-125202520D02*
X85490480Y-122403480D01*
%TO.N,/pc070_aida_hdmi_rpc_hdmi_single4/CONT*%
X89514951Y-124152549D02*
X90490451Y-124152549D01*
X90490451Y-124152549D02*
X91290000Y-123353000D01*
%TO.N,/pc070_aida_hdmi_rpc_hdmi_single4/BUSY*%
X94690000Y-130503000D02*
X94690000Y-125403000D01*
X94690000Y-125403000D02*
X95040000Y-125053000D01*
X95040000Y-130853000D02*
X94690000Y-130503000D01*
%TO.N,/pc070_aida_hdmi_rpc_hdmi_single4/BUSY\u002A*%
X94240480Y-130452520D02*
X94240480Y-125878980D01*
X94240480Y-125878980D02*
X93940000Y-125578500D01*
X93940000Y-130753000D02*
X94240480Y-130452520D01*
%TO.N,/pc070_aida_hdmi_rpc_hdmi_single4/SPARE*%
X89790000Y-127803000D02*
X91290000Y-126303000D01*
X89690000Y-127803000D02*
X89790000Y-127803000D01*
X89590000Y-127803000D02*
X89690000Y-127803000D01*
%TO.N,/pc070_aida_hdmi_rpc_hdmi_single4/TRIG*%
X87015500Y-128527500D02*
X86240000Y-129303000D01*
X87690000Y-128527500D02*
X87015500Y-128527500D01*
%TO.N,/pc070_aida_hdmi_rpc_hdmi_single5/CLK*%
X85940000Y-147434386D02*
X85940000Y-145383614D01*
X86077307Y-144571693D02*
X86490000Y-144159000D01*
X86114511Y-145209103D02*
X86114511Y-144608897D01*
X85940000Y-145383614D02*
X86114511Y-145209103D01*
X86114511Y-147633511D02*
X86114511Y-147608897D01*
X86114511Y-147608897D02*
X85940000Y-147434386D01*
X86114511Y-144608897D02*
X86077307Y-144571693D01*
X86490000Y-148009000D02*
X86114511Y-147633511D01*
%TO.N,/pc070_aida_hdmi_rpc_hdmi_single5/CLK\u002A*%
X85490480Y-145009480D02*
X85390000Y-144909000D01*
X85390000Y-147909000D02*
X85490480Y-147808520D01*
X85490480Y-147808520D02*
X85490480Y-145009480D01*
%TO.N,/pc070_aida_hdmi_rpc_hdmi_single5/CONT*%
X89514951Y-146758549D02*
X90490451Y-146758549D01*
X90490451Y-146758549D02*
X91290000Y-145959000D01*
%TO.N,/pc070_aida_hdmi_rpc_hdmi_single5/BUSY*%
X94690000Y-153109000D02*
X94690000Y-148009000D01*
X94690000Y-148009000D02*
X95040000Y-147659000D01*
X95040000Y-153459000D02*
X94690000Y-153109000D01*
%TO.N,/pc070_aida_hdmi_rpc_hdmi_single5/BUSY\u002A*%
X94240480Y-153058520D02*
X94240480Y-148484980D01*
X94240480Y-148484980D02*
X93940000Y-148184500D01*
X93940000Y-153359000D02*
X94240480Y-153058520D01*
%TO.N,/pc070_aida_hdmi_rpc_hdmi_single5/SPARE*%
X89790000Y-150409000D02*
X91290000Y-148909000D01*
X89690000Y-150409000D02*
X89790000Y-150409000D01*
X89590000Y-150409000D02*
X89690000Y-150409000D01*
%TO.N,/pc070_aida_hdmi_rpc_hdmi_single5/TRIG*%
X87015500Y-151133500D02*
X86240000Y-151909000D01*
X87690000Y-151133500D02*
X87015500Y-151133500D01*
%TO.N,/pc070_aida_hdmi_rpc_hdmi_single3/CLK*%
X85940000Y-170040386D02*
X85940000Y-167989614D01*
X86077307Y-167177693D02*
X86490000Y-166765000D01*
X86114511Y-167815103D02*
X86114511Y-167214897D01*
X85940000Y-167989614D02*
X86114511Y-167815103D01*
X86114511Y-170239511D02*
X86114511Y-170214897D01*
X86114511Y-170214897D02*
X85940000Y-170040386D01*
X86114511Y-167214897D02*
X86077307Y-167177693D01*
X86490000Y-170615000D02*
X86114511Y-170239511D01*
%TO.N,/pc070_aida_hdmi_rpc_hdmi_single3/CLK\u002A*%
X85490480Y-167615480D02*
X85390000Y-167515000D01*
X85390000Y-170515000D02*
X85490480Y-170414520D01*
X85490480Y-170414520D02*
X85490480Y-167615480D01*
%TO.N,/pc070_aida_hdmi_rpc_hdmi_single3/CONT*%
X89514951Y-169364549D02*
X90490451Y-169364549D01*
X90490451Y-169364549D02*
X91290000Y-168565000D01*
%TO.N,/pc070_aida_hdmi_rpc_hdmi_single3/BUSY*%
X94690000Y-175715000D02*
X94690000Y-170615000D01*
X94690000Y-170615000D02*
X95040000Y-170265000D01*
X95040000Y-176065000D02*
X94690000Y-175715000D01*
%TO.N,/pc070_aida_hdmi_rpc_hdmi_single3/BUSY\u002A*%
X94240480Y-175664520D02*
X94240480Y-171090980D01*
X94240480Y-171090980D02*
X93940000Y-170790500D01*
X93940000Y-175965000D02*
X94240480Y-175664520D01*
%TO.N,/pc070_aida_hdmi_rpc_hdmi_single3/SPARE*%
X89790000Y-173015000D02*
X91290000Y-171515000D01*
X89690000Y-173015000D02*
X89790000Y-173015000D01*
X89590000Y-173015000D02*
X89690000Y-173015000D01*
%TO.N,/pc070_aida_hdmi_rpc_hdmi_single3/TRIG*%
X87015500Y-173739500D02*
X86240000Y-174515000D01*
X87690000Y-173739500D02*
X87015500Y-173739500D01*
%TD*%
M02*
