%TF.GenerationSoftware,KiCad,Pcbnew,(6.0.4-0)*%
%TF.CreationDate,2022-07-15T02:34:07+01:00*%
%TF.ProjectId,pc070_aida_hdmi_dp,70633037-305f-4616-9964-615f68646d69,rev?*%
%TF.SameCoordinates,Original*%
%TF.FileFunction,Copper,L1,Top*%
%TF.FilePolarity,Positive*%
%FSLAX46Y46*%
G04 Gerber Fmt 4.6, Leading zero omitted, Abs format (unit mm)*
G04 Created by KiCad (PCBNEW (6.0.4-0)) date 2022-07-15 02:34:07*
%MOMM*%
%LPD*%
G01*
G04 APERTURE LIST*
%TA.AperFunction,SMDPad,CuDef*%
%ADD10R,2.350000X0.280000*%
%TD*%
%TA.AperFunction,ComponentPad*%
%ADD11O,3.200000X1.600000*%
%TD*%
%TA.AperFunction,ComponentPad*%
%ADD12O,2.820000X1.410000*%
%TD*%
%TA.AperFunction,ComponentPad*%
%ADD13C,3.600000*%
%TD*%
%TA.AperFunction,ConnectorPad*%
%ADD14C,5.600000*%
%TD*%
%TA.AperFunction,SMDPad,CuDef*%
%ADD15R,2.400000X0.280000*%
%TD*%
%TA.AperFunction,ComponentPad*%
%ADD16O,2.800000X1.400000*%
%TD*%
%TA.AperFunction,ComponentPad*%
%ADD17O,2.400000X1.200000*%
%TD*%
%TA.AperFunction,ViaPad*%
%ADD18C,0.800000*%
%TD*%
%TA.AperFunction,Conductor*%
%ADD19C,0.250000*%
%TD*%
G04 APERTURE END LIST*
D10*
%TO.P,J12,01,01*%
%TO.N,/pc070_aida_hdmi_dp_single3/CLK*%
X99675000Y-167015000D03*
%TO.P,J12,02,02*%
%TO.N,GND*%
X99675000Y-167515000D03*
%TO.P,J12,03,03*%
%TO.N,/pc070_aida_hdmi_dp_single3/CLK\u002A*%
X99675000Y-168015000D03*
%TO.P,J12,04,04*%
%TO.N,/pc070_aida_hdmi_dp_single3/CONT*%
X99675000Y-168515000D03*
%TO.P,J12,05,05*%
%TO.N,GND*%
X99675000Y-169015000D03*
%TO.P,J12,06,06*%
%TO.N,/pc070_aida_hdmi_dp_single3/CONT\u002A*%
X99675000Y-169515000D03*
%TO.P,J12,07,07*%
%TO.N,/pc070_aida_hdmi_dp_single3/BUSY*%
X99675000Y-170015000D03*
%TO.P,J12,08,08*%
%TO.N,GND*%
X99675000Y-170515000D03*
%TO.P,J12,09,09*%
%TO.N,/pc070_aida_hdmi_dp_single3/BUSY\u002A*%
X99675000Y-171015000D03*
%TO.P,J12,10,10*%
%TO.N,/pc070_aida_hdmi_dp_single3/SPARE*%
X99675000Y-171515000D03*
%TO.P,J12,11,11*%
%TO.N,GND*%
X99675000Y-172015000D03*
%TO.P,J12,12,12*%
%TO.N,/pc070_aida_hdmi_dp_single3/SPARE\u002A*%
X99675000Y-172515000D03*
%TO.P,J12,13,13*%
%TO.N,unconnected-(J12-Pad13)*%
X99675000Y-173015000D03*
%TO.P,J12,14,14*%
%TO.N,unconnected-(J12-Pad14)*%
X99675000Y-173515000D03*
%TO.P,J12,15,15*%
%TO.N,/pc070_aida_hdmi_dp_single3/TRIG*%
X99675000Y-174015000D03*
%TO.P,J12,16,16*%
%TO.N,GND*%
X99675000Y-174515000D03*
%TO.P,J12,17,17*%
%TO.N,/pc070_aida_hdmi_dp_single3/TRIG\u002A*%
X99675000Y-175015000D03*
%TO.P,J12,18,18*%
%TO.N,unconnected-(J12-Pad18)*%
X99675000Y-175515000D03*
%TO.P,J12,19,19*%
%TO.N,unconnected-(J12-Pad19)*%
X99675000Y-176015000D03*
D11*
%TO.P,J12,S1,SHIELD*%
%TO.N,GND*%
X100300000Y-178765000D03*
%TO.P,J12,S2,SHIELD*%
X100300000Y-164265000D03*
D12*
%TO.P,J12,S3,SHIELD*%
X106260000Y-178765000D03*
%TO.P,J12,S4,SHIELD*%
X106260000Y-164265000D03*
%TD*%
D10*
%TO.P,J10,01,01*%
%TO.N,/pc070_aida_hdmi_dp_single4/CLK*%
X99675000Y-144409000D03*
%TO.P,J10,02,02*%
%TO.N,GND*%
X99675000Y-144909000D03*
%TO.P,J10,03,03*%
%TO.N,/pc070_aida_hdmi_dp_single4/CLK\u002A*%
X99675000Y-145409000D03*
%TO.P,J10,04,04*%
%TO.N,/pc070_aida_hdmi_dp_single4/CONT*%
X99675000Y-145909000D03*
%TO.P,J10,05,05*%
%TO.N,GND*%
X99675000Y-146409000D03*
%TO.P,J10,06,06*%
%TO.N,/pc070_aida_hdmi_dp_single4/CONT\u002A*%
X99675000Y-146909000D03*
%TO.P,J10,07,07*%
%TO.N,/pc070_aida_hdmi_dp_single4/BUSY*%
X99675000Y-147409000D03*
%TO.P,J10,08,08*%
%TO.N,GND*%
X99675000Y-147909000D03*
%TO.P,J10,09,09*%
%TO.N,/pc070_aida_hdmi_dp_single4/BUSY\u002A*%
X99675000Y-148409000D03*
%TO.P,J10,10,10*%
%TO.N,/pc070_aida_hdmi_dp_single4/SPARE*%
X99675000Y-148909000D03*
%TO.P,J10,11,11*%
%TO.N,GND*%
X99675000Y-149409000D03*
%TO.P,J10,12,12*%
%TO.N,/pc070_aida_hdmi_dp_single4/SPARE\u002A*%
X99675000Y-149909000D03*
%TO.P,J10,13,13*%
%TO.N,unconnected-(J10-Pad13)*%
X99675000Y-150409000D03*
%TO.P,J10,14,14*%
%TO.N,unconnected-(J10-Pad14)*%
X99675000Y-150909000D03*
%TO.P,J10,15,15*%
%TO.N,/pc070_aida_hdmi_dp_single4/TRIG*%
X99675000Y-151409000D03*
%TO.P,J10,16,16*%
%TO.N,GND*%
X99675000Y-151909000D03*
%TO.P,J10,17,17*%
%TO.N,/pc070_aida_hdmi_dp_single4/TRIG\u002A*%
X99675000Y-152409000D03*
%TO.P,J10,18,18*%
%TO.N,unconnected-(J10-Pad18)*%
X99675000Y-152909000D03*
%TO.P,J10,19,19*%
%TO.N,unconnected-(J10-Pad19)*%
X99675000Y-153409000D03*
D11*
%TO.P,J10,S1,SHIELD*%
%TO.N,GND*%
X100300000Y-156159000D03*
%TO.P,J10,S2,SHIELD*%
X100300000Y-141659000D03*
D12*
%TO.P,J10,S3,SHIELD*%
X106260000Y-156159000D03*
%TO.P,J10,S4,SHIELD*%
X106260000Y-141659000D03*
%TD*%
D10*
%TO.P,J8,01,01*%
%TO.N,/pc070_aida_hdmi_dp_single5/CLK*%
X99675000Y-121803000D03*
%TO.P,J8,02,02*%
%TO.N,GND*%
X99675000Y-122303000D03*
%TO.P,J8,03,03*%
%TO.N,/pc070_aida_hdmi_dp_single5/CLK\u002A*%
X99675000Y-122803000D03*
%TO.P,J8,04,04*%
%TO.N,/pc070_aida_hdmi_dp_single5/CONT*%
X99675000Y-123303000D03*
%TO.P,J8,05,05*%
%TO.N,GND*%
X99675000Y-123803000D03*
%TO.P,J8,06,06*%
%TO.N,/pc070_aida_hdmi_dp_single5/CONT\u002A*%
X99675000Y-124303000D03*
%TO.P,J8,07,07*%
%TO.N,/pc070_aida_hdmi_dp_single5/BUSY*%
X99675000Y-124803000D03*
%TO.P,J8,08,08*%
%TO.N,GND*%
X99675000Y-125303000D03*
%TO.P,J8,09,09*%
%TO.N,/pc070_aida_hdmi_dp_single5/BUSY\u002A*%
X99675000Y-125803000D03*
%TO.P,J8,10,10*%
%TO.N,/pc070_aida_hdmi_dp_single5/SPARE*%
X99675000Y-126303000D03*
%TO.P,J8,11,11*%
%TO.N,GND*%
X99675000Y-126803000D03*
%TO.P,J8,12,12*%
%TO.N,/pc070_aida_hdmi_dp_single5/SPARE\u002A*%
X99675000Y-127303000D03*
%TO.P,J8,13,13*%
%TO.N,unconnected-(J8-Pad13)*%
X99675000Y-127803000D03*
%TO.P,J8,14,14*%
%TO.N,unconnected-(J8-Pad14)*%
X99675000Y-128303000D03*
%TO.P,J8,15,15*%
%TO.N,/pc070_aida_hdmi_dp_single5/TRIG*%
X99675000Y-128803000D03*
%TO.P,J8,16,16*%
%TO.N,GND*%
X99675000Y-129303000D03*
%TO.P,J8,17,17*%
%TO.N,/pc070_aida_hdmi_dp_single5/TRIG\u002A*%
X99675000Y-129803000D03*
%TO.P,J8,18,18*%
%TO.N,unconnected-(J8-Pad18)*%
X99675000Y-130303000D03*
%TO.P,J8,19,19*%
%TO.N,unconnected-(J8-Pad19)*%
X99675000Y-130803000D03*
D11*
%TO.P,J8,S1,SHIELD*%
%TO.N,GND*%
X100300000Y-133553000D03*
%TO.P,J8,S2,SHIELD*%
X100300000Y-119053000D03*
D12*
%TO.P,J8,S3,SHIELD*%
X106260000Y-133553000D03*
%TO.P,J8,S4,SHIELD*%
X106260000Y-119053000D03*
%TD*%
D10*
%TO.P,J6,01,01*%
%TO.N,/pc070_aida_hdmi_dp_single2/CLK*%
X99675000Y-99197000D03*
%TO.P,J6,02,02*%
%TO.N,GND*%
X99675000Y-99697000D03*
%TO.P,J6,03,03*%
%TO.N,/pc070_aida_hdmi_dp_single2/CLK\u002A*%
X99675000Y-100197000D03*
%TO.P,J6,04,04*%
%TO.N,/pc070_aida_hdmi_dp_single2/CONT*%
X99675000Y-100697000D03*
%TO.P,J6,05,05*%
%TO.N,GND*%
X99675000Y-101197000D03*
%TO.P,J6,06,06*%
%TO.N,/pc070_aida_hdmi_dp_single2/CONT\u002A*%
X99675000Y-101697000D03*
%TO.P,J6,07,07*%
%TO.N,/pc070_aida_hdmi_dp_single2/BUSY*%
X99675000Y-102197000D03*
%TO.P,J6,08,08*%
%TO.N,GND*%
X99675000Y-102697000D03*
%TO.P,J6,09,09*%
%TO.N,/pc070_aida_hdmi_dp_single2/BUSY\u002A*%
X99675000Y-103197000D03*
%TO.P,J6,10,10*%
%TO.N,/pc070_aida_hdmi_dp_single2/SPARE*%
X99675000Y-103697000D03*
%TO.P,J6,11,11*%
%TO.N,GND*%
X99675000Y-104197000D03*
%TO.P,J6,12,12*%
%TO.N,/pc070_aida_hdmi_dp_single2/SPARE\u002A*%
X99675000Y-104697000D03*
%TO.P,J6,13,13*%
%TO.N,unconnected-(J6-Pad13)*%
X99675000Y-105197000D03*
%TO.P,J6,14,14*%
%TO.N,unconnected-(J6-Pad14)*%
X99675000Y-105697000D03*
%TO.P,J6,15,15*%
%TO.N,/pc070_aida_hdmi_dp_single2/TRIG*%
X99675000Y-106197000D03*
%TO.P,J6,16,16*%
%TO.N,GND*%
X99675000Y-106697000D03*
%TO.P,J6,17,17*%
%TO.N,/pc070_aida_hdmi_dp_single2/TRIG\u002A*%
X99675000Y-107197000D03*
%TO.P,J6,18,18*%
%TO.N,unconnected-(J6-Pad18)*%
X99675000Y-107697000D03*
%TO.P,J6,19,19*%
%TO.N,unconnected-(J6-Pad19)*%
X99675000Y-108197000D03*
D11*
%TO.P,J6,S1,SHIELD*%
%TO.N,GND*%
X100300000Y-110947000D03*
%TO.P,J6,S2,SHIELD*%
X100300000Y-96447000D03*
D12*
%TO.P,J6,S3,SHIELD*%
X106260000Y-110947000D03*
%TO.P,J6,S4,SHIELD*%
X106260000Y-96447000D03*
%TD*%
D10*
%TO.P,J4,01,01*%
%TO.N,/pc070_aida_hdmi_dp_single1/CLK*%
X99675000Y-76591000D03*
%TO.P,J4,02,02*%
%TO.N,GND*%
X99675000Y-77091000D03*
%TO.P,J4,03,03*%
%TO.N,/pc070_aida_hdmi_dp_single1/CLK\u002A*%
X99675000Y-77591000D03*
%TO.P,J4,04,04*%
%TO.N,/pc070_aida_hdmi_dp_single1/CONT*%
X99675000Y-78091000D03*
%TO.P,J4,05,05*%
%TO.N,GND*%
X99675000Y-78591000D03*
%TO.P,J4,06,06*%
%TO.N,/pc070_aida_hdmi_dp_single1/CONT\u002A*%
X99675000Y-79091000D03*
%TO.P,J4,07,07*%
%TO.N,/pc070_aida_hdmi_dp_single1/BUSY*%
X99675000Y-79591000D03*
%TO.P,J4,08,08*%
%TO.N,GND*%
X99675000Y-80091000D03*
%TO.P,J4,09,09*%
%TO.N,/pc070_aida_hdmi_dp_single1/BUSY\u002A*%
X99675000Y-80591000D03*
%TO.P,J4,10,10*%
%TO.N,/pc070_aida_hdmi_dp_single1/SPARE*%
X99675000Y-81091000D03*
%TO.P,J4,11,11*%
%TO.N,GND*%
X99675000Y-81591000D03*
%TO.P,J4,12,12*%
%TO.N,/pc070_aida_hdmi_dp_single1/SPARE\u002A*%
X99675000Y-82091000D03*
%TO.P,J4,13,13*%
%TO.N,unconnected-(J4-Pad13)*%
X99675000Y-82591000D03*
%TO.P,J4,14,14*%
%TO.N,unconnected-(J4-Pad14)*%
X99675000Y-83091000D03*
%TO.P,J4,15,15*%
%TO.N,/pc070_aida_hdmi_dp_single1/TRIG*%
X99675000Y-83591000D03*
%TO.P,J4,16,16*%
%TO.N,GND*%
X99675000Y-84091000D03*
%TO.P,J4,17,17*%
%TO.N,/pc070_aida_hdmi_dp_single1/TRIG\u002A*%
X99675000Y-84591000D03*
%TO.P,J4,18,18*%
%TO.N,unconnected-(J4-Pad18)*%
X99675000Y-85091000D03*
%TO.P,J4,19,19*%
%TO.N,unconnected-(J4-Pad19)*%
X99675000Y-85591000D03*
D11*
%TO.P,J4,S1,SHIELD*%
%TO.N,GND*%
X100300000Y-88341000D03*
%TO.P,J4,S2,SHIELD*%
X100300000Y-73841000D03*
D12*
%TO.P,J4,S3,SHIELD*%
X106260000Y-88341000D03*
%TO.P,J4,S4,SHIELD*%
X106260000Y-73841000D03*
%TD*%
D10*
%TO.P,J2,01,01*%
%TO.N,/pc070_aida_hdmi_dp_single/CLK*%
X99675000Y-53985000D03*
%TO.P,J2,02,02*%
%TO.N,GND*%
X99675000Y-54485000D03*
%TO.P,J2,03,03*%
%TO.N,/pc070_aida_hdmi_dp_single/CLK\u002A*%
X99675000Y-54985000D03*
%TO.P,J2,04,04*%
%TO.N,/pc070_aida_hdmi_dp_single/CONT*%
X99675000Y-55485000D03*
%TO.P,J2,05,05*%
%TO.N,GND*%
X99675000Y-55985000D03*
%TO.P,J2,06,06*%
%TO.N,/pc070_aida_hdmi_dp_single/CONT\u002A*%
X99675000Y-56485000D03*
%TO.P,J2,07,07*%
%TO.N,/pc070_aida_hdmi_dp_single/BUSY*%
X99675000Y-56985000D03*
%TO.P,J2,08,08*%
%TO.N,GND*%
X99675000Y-57485000D03*
%TO.P,J2,09,09*%
%TO.N,/pc070_aida_hdmi_dp_single/BUSY\u002A*%
X99675000Y-57985000D03*
%TO.P,J2,10,10*%
%TO.N,/pc070_aida_hdmi_dp_single/SPARE*%
X99675000Y-58485000D03*
%TO.P,J2,11,11*%
%TO.N,GND*%
X99675000Y-58985000D03*
%TO.P,J2,12,12*%
%TO.N,/pc070_aida_hdmi_dp_single/SPARE\u002A*%
X99675000Y-59485000D03*
%TO.P,J2,13,13*%
%TO.N,unconnected-(J2-Pad13)*%
X99675000Y-59985000D03*
%TO.P,J2,14,14*%
%TO.N,unconnected-(J2-Pad14)*%
X99675000Y-60485000D03*
%TO.P,J2,15,15*%
%TO.N,/pc070_aida_hdmi_dp_single/TRIG*%
X99675000Y-60985000D03*
%TO.P,J2,16,16*%
%TO.N,GND*%
X99675000Y-61485000D03*
%TO.P,J2,17,17*%
%TO.N,/pc070_aida_hdmi_dp_single/TRIG\u002A*%
X99675000Y-61985000D03*
%TO.P,J2,18,18*%
%TO.N,unconnected-(J2-Pad18)*%
X99675000Y-62485000D03*
%TO.P,J2,19,19*%
%TO.N,unconnected-(J2-Pad19)*%
X99675000Y-62985000D03*
D11*
%TO.P,J2,S1,SHIELD*%
%TO.N,GND*%
X100300000Y-65735000D03*
%TO.P,J2,S2,SHIELD*%
X100300000Y-51235000D03*
D12*
%TO.P,J2,S3,SHIELD*%
X106260000Y-65735000D03*
%TO.P,J2,S4,SHIELD*%
X106260000Y-51235000D03*
%TD*%
D13*
%TO.P,H4,1,1*%
%TO.N,GND*%
X75000000Y-185000000D03*
D14*
X75000000Y-185000000D03*
%TD*%
D13*
%TO.P,H3,1,1*%
%TO.N,GND*%
X105000000Y-185000000D03*
D14*
X105000000Y-185000000D03*
%TD*%
D13*
%TO.P,H2,1,1*%
%TO.N,GND*%
X105000000Y-45000000D03*
D14*
X105000000Y-45000000D03*
%TD*%
D13*
%TO.P,H1,1,1*%
%TO.N,GND*%
X75000000Y-45000000D03*
D14*
X75000000Y-45000000D03*
%TD*%
D15*
%TO.P,J11,1,1*%
%TO.N,/pc070_aida_hdmi_dp_single3/CLK*%
X83560000Y-177015000D03*
%TO.P,J11,2,2*%
%TO.N,GND*%
X83560000Y-176515000D03*
%TO.P,J11,3,3*%
%TO.N,/pc070_aida_hdmi_dp_single3/CLK\u002A*%
X83560000Y-176015000D03*
%TO.P,J11,4,4*%
%TO.N,/pc070_aida_hdmi_dp_single3/CONT*%
X83560000Y-175515000D03*
%TO.P,J11,5,5*%
%TO.N,GND*%
X83560000Y-175015000D03*
%TO.P,J11,6,6*%
%TO.N,/pc070_aida_hdmi_dp_single3/CONT\u002A*%
X83560000Y-174515000D03*
%TO.P,J11,7,7*%
%TO.N,/pc070_aida_hdmi_dp_single3/BUSY*%
X83560000Y-174015000D03*
%TO.P,J11,8,8*%
%TO.N,GND*%
X83560000Y-173515000D03*
%TO.P,J11,9,9*%
%TO.N,/pc070_aida_hdmi_dp_single3/BUSY\u002A*%
X83560000Y-173015000D03*
%TO.P,J11,10,10*%
%TO.N,/pc070_aida_hdmi_dp_single3/SPARE*%
X83560000Y-172515000D03*
%TO.P,J11,11,11*%
%TO.N,GND*%
X83560000Y-172015000D03*
%TO.P,J11,12,12*%
%TO.N,/pc070_aida_hdmi_dp_single3/SPARE\u002A*%
X83560000Y-171515000D03*
%TO.P,J11,13,13*%
%TO.N,unconnected-(J11-Pad13)*%
X83560000Y-171015000D03*
%TO.P,J11,14,14*%
%TO.N,unconnected-(J11-Pad14)*%
X83560000Y-170515000D03*
%TO.P,J11,15,15*%
%TO.N,/pc070_aida_hdmi_dp_single3/TRIG*%
X83560000Y-170015000D03*
%TO.P,J11,16,16*%
%TO.N,/pc070_aida_hdmi_dp_single3/TRIG\u002A*%
X83560000Y-169515000D03*
%TO.P,J11,17,17*%
%TO.N,GND*%
X83560000Y-169015000D03*
%TO.P,J11,18,18*%
%TO.N,unconnected-(J11-Pad18)*%
X83560000Y-168515000D03*
%TO.P,J11,19,19*%
%TO.N,unconnected-(J11-Pad19)*%
X83560000Y-168015000D03*
%TO.P,J11,20,20*%
%TO.N,unconnected-(J11-Pad20)*%
X83560000Y-167515000D03*
D16*
%TO.P,J11,S1,SHIELD*%
%TO.N,GND*%
X80960000Y-163265000D03*
%TO.P,J11,S2,SHIELD*%
X80960000Y-179765000D03*
D17*
%TO.P,J11,S3,SHIELD*%
X74180000Y-163265000D03*
%TO.P,J11,S4,SHIELD*%
X74180000Y-179765000D03*
%TD*%
D15*
%TO.P,J9,1,1*%
%TO.N,/pc070_aida_hdmi_dp_single4/CLK*%
X83560000Y-154409000D03*
%TO.P,J9,2,2*%
%TO.N,GND*%
X83560000Y-153909000D03*
%TO.P,J9,3,3*%
%TO.N,/pc070_aida_hdmi_dp_single4/CLK\u002A*%
X83560000Y-153409000D03*
%TO.P,J9,4,4*%
%TO.N,/pc070_aida_hdmi_dp_single4/CONT*%
X83560000Y-152909000D03*
%TO.P,J9,5,5*%
%TO.N,GND*%
X83560000Y-152409000D03*
%TO.P,J9,6,6*%
%TO.N,/pc070_aida_hdmi_dp_single4/CONT\u002A*%
X83560000Y-151909000D03*
%TO.P,J9,7,7*%
%TO.N,/pc070_aida_hdmi_dp_single4/BUSY*%
X83560000Y-151409000D03*
%TO.P,J9,8,8*%
%TO.N,GND*%
X83560000Y-150909000D03*
%TO.P,J9,9,9*%
%TO.N,/pc070_aida_hdmi_dp_single4/BUSY\u002A*%
X83560000Y-150409000D03*
%TO.P,J9,10,10*%
%TO.N,/pc070_aida_hdmi_dp_single4/SPARE*%
X83560000Y-149909000D03*
%TO.P,J9,11,11*%
%TO.N,GND*%
X83560000Y-149409000D03*
%TO.P,J9,12,12*%
%TO.N,/pc070_aida_hdmi_dp_single4/SPARE\u002A*%
X83560000Y-148909000D03*
%TO.P,J9,13,13*%
%TO.N,unconnected-(J9-Pad13)*%
X83560000Y-148409000D03*
%TO.P,J9,14,14*%
%TO.N,unconnected-(J9-Pad14)*%
X83560000Y-147909000D03*
%TO.P,J9,15,15*%
%TO.N,/pc070_aida_hdmi_dp_single4/TRIG*%
X83560000Y-147409000D03*
%TO.P,J9,16,16*%
%TO.N,/pc070_aida_hdmi_dp_single4/TRIG\u002A*%
X83560000Y-146909000D03*
%TO.P,J9,17,17*%
%TO.N,GND*%
X83560000Y-146409000D03*
%TO.P,J9,18,18*%
%TO.N,unconnected-(J9-Pad18)*%
X83560000Y-145909000D03*
%TO.P,J9,19,19*%
%TO.N,unconnected-(J9-Pad19)*%
X83560000Y-145409000D03*
%TO.P,J9,20,20*%
%TO.N,unconnected-(J9-Pad20)*%
X83560000Y-144909000D03*
D16*
%TO.P,J9,S1,SHIELD*%
%TO.N,GND*%
X80960000Y-140659000D03*
%TO.P,J9,S2,SHIELD*%
X80960000Y-157159000D03*
D17*
%TO.P,J9,S3,SHIELD*%
X74180000Y-140659000D03*
%TO.P,J9,S4,SHIELD*%
X74180000Y-157159000D03*
%TD*%
D15*
%TO.P,J7,1,1*%
%TO.N,/pc070_aida_hdmi_dp_single5/CLK*%
X83560000Y-131803000D03*
%TO.P,J7,2,2*%
%TO.N,GND*%
X83560000Y-131303000D03*
%TO.P,J7,3,3*%
%TO.N,/pc070_aida_hdmi_dp_single5/CLK\u002A*%
X83560000Y-130803000D03*
%TO.P,J7,4,4*%
%TO.N,/pc070_aida_hdmi_dp_single5/CONT*%
X83560000Y-130303000D03*
%TO.P,J7,5,5*%
%TO.N,GND*%
X83560000Y-129803000D03*
%TO.P,J7,6,6*%
%TO.N,/pc070_aida_hdmi_dp_single5/CONT\u002A*%
X83560000Y-129303000D03*
%TO.P,J7,7,7*%
%TO.N,/pc070_aida_hdmi_dp_single5/BUSY*%
X83560000Y-128803000D03*
%TO.P,J7,8,8*%
%TO.N,GND*%
X83560000Y-128303000D03*
%TO.P,J7,9,9*%
%TO.N,/pc070_aida_hdmi_dp_single5/BUSY\u002A*%
X83560000Y-127803000D03*
%TO.P,J7,10,10*%
%TO.N,/pc070_aida_hdmi_dp_single5/SPARE*%
X83560000Y-127303000D03*
%TO.P,J7,11,11*%
%TO.N,GND*%
X83560000Y-126803000D03*
%TO.P,J7,12,12*%
%TO.N,/pc070_aida_hdmi_dp_single5/SPARE\u002A*%
X83560000Y-126303000D03*
%TO.P,J7,13,13*%
%TO.N,unconnected-(J7-Pad13)*%
X83560000Y-125803000D03*
%TO.P,J7,14,14*%
%TO.N,unconnected-(J7-Pad14)*%
X83560000Y-125303000D03*
%TO.P,J7,15,15*%
%TO.N,/pc070_aida_hdmi_dp_single5/TRIG*%
X83560000Y-124803000D03*
%TO.P,J7,16,16*%
%TO.N,/pc070_aida_hdmi_dp_single5/TRIG\u002A*%
X83560000Y-124303000D03*
%TO.P,J7,17,17*%
%TO.N,GND*%
X83560000Y-123803000D03*
%TO.P,J7,18,18*%
%TO.N,unconnected-(J7-Pad18)*%
X83560000Y-123303000D03*
%TO.P,J7,19,19*%
%TO.N,unconnected-(J7-Pad19)*%
X83560000Y-122803000D03*
%TO.P,J7,20,20*%
%TO.N,unconnected-(J7-Pad20)*%
X83560000Y-122303000D03*
D16*
%TO.P,J7,S1,SHIELD*%
%TO.N,GND*%
X80960000Y-118053000D03*
%TO.P,J7,S2,SHIELD*%
X80960000Y-134553000D03*
D17*
%TO.P,J7,S3,SHIELD*%
X74180000Y-118053000D03*
%TO.P,J7,S4,SHIELD*%
X74180000Y-134553000D03*
%TD*%
D15*
%TO.P,J5,1,1*%
%TO.N,/pc070_aida_hdmi_dp_single2/CLK*%
X83560000Y-109197000D03*
%TO.P,J5,2,2*%
%TO.N,GND*%
X83560000Y-108697000D03*
%TO.P,J5,3,3*%
%TO.N,/pc070_aida_hdmi_dp_single2/CLK\u002A*%
X83560000Y-108197000D03*
%TO.P,J5,4,4*%
%TO.N,/pc070_aida_hdmi_dp_single2/CONT*%
X83560000Y-107697000D03*
%TO.P,J5,5,5*%
%TO.N,GND*%
X83560000Y-107197000D03*
%TO.P,J5,6,6*%
%TO.N,/pc070_aida_hdmi_dp_single2/CONT\u002A*%
X83560000Y-106697000D03*
%TO.P,J5,7,7*%
%TO.N,/pc070_aida_hdmi_dp_single2/BUSY*%
X83560000Y-106197000D03*
%TO.P,J5,8,8*%
%TO.N,GND*%
X83560000Y-105697000D03*
%TO.P,J5,9,9*%
%TO.N,/pc070_aida_hdmi_dp_single2/BUSY\u002A*%
X83560000Y-105197000D03*
%TO.P,J5,10,10*%
%TO.N,/pc070_aida_hdmi_dp_single2/SPARE*%
X83560000Y-104697000D03*
%TO.P,J5,11,11*%
%TO.N,GND*%
X83560000Y-104197000D03*
%TO.P,J5,12,12*%
%TO.N,/pc070_aida_hdmi_dp_single2/SPARE\u002A*%
X83560000Y-103697000D03*
%TO.P,J5,13,13*%
%TO.N,unconnected-(J5-Pad13)*%
X83560000Y-103197000D03*
%TO.P,J5,14,14*%
%TO.N,unconnected-(J5-Pad14)*%
X83560000Y-102697000D03*
%TO.P,J5,15,15*%
%TO.N,/pc070_aida_hdmi_dp_single2/TRIG*%
X83560000Y-102197000D03*
%TO.P,J5,16,16*%
%TO.N,/pc070_aida_hdmi_dp_single2/TRIG\u002A*%
X83560000Y-101697000D03*
%TO.P,J5,17,17*%
%TO.N,GND*%
X83560000Y-101197000D03*
%TO.P,J5,18,18*%
%TO.N,unconnected-(J5-Pad18)*%
X83560000Y-100697000D03*
%TO.P,J5,19,19*%
%TO.N,unconnected-(J5-Pad19)*%
X83560000Y-100197000D03*
%TO.P,J5,20,20*%
%TO.N,unconnected-(J5-Pad20)*%
X83560000Y-99697000D03*
D16*
%TO.P,J5,S1,SHIELD*%
%TO.N,GND*%
X80960000Y-95447000D03*
%TO.P,J5,S2,SHIELD*%
X80960000Y-111947000D03*
D17*
%TO.P,J5,S3,SHIELD*%
X74180000Y-95447000D03*
%TO.P,J5,S4,SHIELD*%
X74180000Y-111947000D03*
%TD*%
D15*
%TO.P,J3,1,1*%
%TO.N,/pc070_aida_hdmi_dp_single1/CLK*%
X83560000Y-86591000D03*
%TO.P,J3,2,2*%
%TO.N,GND*%
X83560000Y-86091000D03*
%TO.P,J3,3,3*%
%TO.N,/pc070_aida_hdmi_dp_single1/CLK\u002A*%
X83560000Y-85591000D03*
%TO.P,J3,4,4*%
%TO.N,/pc070_aida_hdmi_dp_single1/CONT*%
X83560000Y-85091000D03*
%TO.P,J3,5,5*%
%TO.N,GND*%
X83560000Y-84591000D03*
%TO.P,J3,6,6*%
%TO.N,/pc070_aida_hdmi_dp_single1/CONT\u002A*%
X83560000Y-84091000D03*
%TO.P,J3,7,7*%
%TO.N,/pc070_aida_hdmi_dp_single1/BUSY*%
X83560000Y-83591000D03*
%TO.P,J3,8,8*%
%TO.N,GND*%
X83560000Y-83091000D03*
%TO.P,J3,9,9*%
%TO.N,/pc070_aida_hdmi_dp_single1/BUSY\u002A*%
X83560000Y-82591000D03*
%TO.P,J3,10,10*%
%TO.N,/pc070_aida_hdmi_dp_single1/SPARE*%
X83560000Y-82091000D03*
%TO.P,J3,11,11*%
%TO.N,GND*%
X83560000Y-81591000D03*
%TO.P,J3,12,12*%
%TO.N,/pc070_aida_hdmi_dp_single1/SPARE\u002A*%
X83560000Y-81091000D03*
%TO.P,J3,13,13*%
%TO.N,unconnected-(J3-Pad13)*%
X83560000Y-80591000D03*
%TO.P,J3,14,14*%
%TO.N,unconnected-(J3-Pad14)*%
X83560000Y-80091000D03*
%TO.P,J3,15,15*%
%TO.N,/pc070_aida_hdmi_dp_single1/TRIG*%
X83560000Y-79591000D03*
%TO.P,J3,16,16*%
%TO.N,/pc070_aida_hdmi_dp_single1/TRIG\u002A*%
X83560000Y-79091000D03*
%TO.P,J3,17,17*%
%TO.N,GND*%
X83560000Y-78591000D03*
%TO.P,J3,18,18*%
%TO.N,unconnected-(J3-Pad18)*%
X83560000Y-78091000D03*
%TO.P,J3,19,19*%
%TO.N,unconnected-(J3-Pad19)*%
X83560000Y-77591000D03*
%TO.P,J3,20,20*%
%TO.N,unconnected-(J3-Pad20)*%
X83560000Y-77091000D03*
D16*
%TO.P,J3,S1,SHIELD*%
%TO.N,GND*%
X80960000Y-72841000D03*
%TO.P,J3,S2,SHIELD*%
X80960000Y-89341000D03*
D17*
%TO.P,J3,S3,SHIELD*%
X74180000Y-72841000D03*
%TO.P,J3,S4,SHIELD*%
X74180000Y-89341000D03*
%TD*%
D15*
%TO.P,J1,1,1*%
%TO.N,/pc070_aida_hdmi_dp_single/CLK*%
X83560000Y-63985000D03*
%TO.P,J1,2,2*%
%TO.N,GND*%
X83560000Y-63485000D03*
%TO.P,J1,3,3*%
%TO.N,/pc070_aida_hdmi_dp_single/CLK\u002A*%
X83560000Y-62985000D03*
%TO.P,J1,4,4*%
%TO.N,/pc070_aida_hdmi_dp_single/CONT*%
X83560000Y-62485000D03*
%TO.P,J1,5,5*%
%TO.N,GND*%
X83560000Y-61985000D03*
%TO.P,J1,6,6*%
%TO.N,/pc070_aida_hdmi_dp_single/CONT\u002A*%
X83560000Y-61485000D03*
%TO.P,J1,7,7*%
%TO.N,/pc070_aida_hdmi_dp_single/BUSY*%
X83560000Y-60985000D03*
%TO.P,J1,8,8*%
%TO.N,GND*%
X83560000Y-60485000D03*
%TO.P,J1,9,9*%
%TO.N,/pc070_aida_hdmi_dp_single/BUSY\u002A*%
X83560000Y-59985000D03*
%TO.P,J1,10,10*%
%TO.N,/pc070_aida_hdmi_dp_single/SPARE*%
X83560000Y-59485000D03*
%TO.P,J1,11,11*%
%TO.N,GND*%
X83560000Y-58985000D03*
%TO.P,J1,12,12*%
%TO.N,/pc070_aida_hdmi_dp_single/SPARE\u002A*%
X83560000Y-58485000D03*
%TO.P,J1,13,13*%
%TO.N,unconnected-(J1-Pad13)*%
X83560000Y-57985000D03*
%TO.P,J1,14,14*%
%TO.N,unconnected-(J1-Pad14)*%
X83560000Y-57485000D03*
%TO.P,J1,15,15*%
%TO.N,/pc070_aida_hdmi_dp_single/TRIG*%
X83560000Y-56985000D03*
%TO.P,J1,16,16*%
%TO.N,/pc070_aida_hdmi_dp_single/TRIG\u002A*%
X83560000Y-56485000D03*
%TO.P,J1,17,17*%
%TO.N,GND*%
X83560000Y-55985000D03*
%TO.P,J1,18,18*%
%TO.N,unconnected-(J1-Pad18)*%
X83560000Y-55485000D03*
%TO.P,J1,19,19*%
%TO.N,unconnected-(J1-Pad19)*%
X83560000Y-54985000D03*
%TO.P,J1,20,20*%
%TO.N,unconnected-(J1-Pad20)*%
X83560000Y-54485000D03*
D16*
%TO.P,J1,S1,SHIELD*%
%TO.N,GND*%
X80960000Y-50235000D03*
%TO.P,J1,S2,SHIELD*%
X80960000Y-66735000D03*
D17*
%TO.P,J1,S3,SHIELD*%
X74180000Y-50235000D03*
%TO.P,J1,S4,SHIELD*%
X74180000Y-66735000D03*
%TD*%
D18*
%TO.N,GND*%
X81825000Y-123818000D03*
X81873021Y-126792647D03*
X81863782Y-128326593D03*
X81870174Y-129788648D03*
X81878041Y-131299536D03*
X101343316Y-122283648D03*
X101340978Y-123787010D03*
X101334707Y-125295789D03*
X101333441Y-126808477D03*
X101333027Y-129298087D03*
%TO.N,/pc070_aida_hdmi_dp_single5/BUSY*%
X94100000Y-127078500D03*
X94150000Y-128618000D03*
%TO.N,/pc070_aida_hdmi_dp_single5/SPARE*%
X92625000Y-129527511D03*
X91850000Y-127078500D03*
%TO.N,/pc070_aida_hdmi_dp_single5/SPARE\u002A*%
X90950000Y-126293000D03*
X91850000Y-130243000D03*
%TO.N,/pc070_aida_hdmi_dp_single5/CONT\u002A*%
X89675000Y-129743000D03*
X90150000Y-124142500D03*
%TO.N,/pc070_aida_hdmi_dp_single5/CONT*%
X88525000Y-130293000D03*
X90975000Y-123418000D03*
%TO.N,/pc070_aida_hdmi_dp_single5/CLK\u002A*%
X96550000Y-122618500D03*
X95900000Y-130943000D03*
%TO.N,/pc070_aida_hdmi_dp_single5/CLK*%
X95307341Y-131825341D03*
X95100000Y-122118000D03*
%TO.N,/pc070_aida_hdmi_dp_single5/TRIG\u002A*%
X88775000Y-133468000D03*
X86775000Y-124368000D03*
%TO.N,/pc070_aida_hdmi_dp_single5/TRIG*%
X88462299Y-132430701D03*
X87525000Y-125343000D03*
%TO.N,GND*%
X87825000Y-123993000D03*
X90150000Y-122618000D03*
X94175000Y-122768000D03*
X91875000Y-125818000D03*
X96378614Y-130065541D03*
X90400000Y-130518500D03*
X89862106Y-132505894D03*
X94050000Y-125918000D03*
X81825000Y-146424000D03*
X81873021Y-149398647D03*
X81863782Y-150932593D03*
X81870174Y-152394648D03*
X81878041Y-153905536D03*
X101343316Y-144889648D03*
X101340978Y-146393010D03*
X101334707Y-147901789D03*
X101333441Y-149414477D03*
X101333027Y-151904087D03*
%TO.N,/pc070_aida_hdmi_dp_single4/BUSY*%
X94100000Y-149684500D03*
X94150000Y-151224000D03*
%TO.N,/pc070_aida_hdmi_dp_single4/SPARE*%
X92625000Y-152133511D03*
X91850000Y-149684500D03*
%TO.N,/pc070_aida_hdmi_dp_single4/SPARE\u002A*%
X90950000Y-148899000D03*
X91850000Y-152849000D03*
%TO.N,/pc070_aida_hdmi_dp_single4/CONT\u002A*%
X89675000Y-152349000D03*
X90150000Y-146748500D03*
%TO.N,/pc070_aida_hdmi_dp_single4/CONT*%
X88525000Y-152899000D03*
X90975000Y-146024000D03*
%TO.N,/pc070_aida_hdmi_dp_single4/CLK\u002A*%
X96550000Y-145224500D03*
X95900000Y-153549000D03*
%TO.N,/pc070_aida_hdmi_dp_single4/CLK*%
X95307341Y-154431341D03*
X95100000Y-144724000D03*
%TO.N,/pc070_aida_hdmi_dp_single4/TRIG\u002A*%
X88775000Y-156074000D03*
X86775000Y-146974000D03*
%TO.N,/pc070_aida_hdmi_dp_single4/TRIG*%
X88462299Y-155036701D03*
X87525000Y-147949000D03*
%TO.N,GND*%
X87825000Y-146599000D03*
X90150000Y-145224000D03*
X94175000Y-145374000D03*
X91875000Y-148424000D03*
X96378614Y-152671541D03*
X90400000Y-153124500D03*
X89862106Y-155111894D03*
X94050000Y-148524000D03*
X81825000Y-169030000D03*
X81873021Y-172004647D03*
X81863782Y-173538593D03*
X81870174Y-175000648D03*
X81878041Y-176511536D03*
X101343316Y-167495648D03*
X101340978Y-168999010D03*
X101334707Y-170507789D03*
X101333441Y-172020477D03*
X101333027Y-174510087D03*
%TO.N,/pc070_aida_hdmi_dp_single3/BUSY*%
X94100000Y-172290500D03*
X94150000Y-173830000D03*
%TO.N,/pc070_aida_hdmi_dp_single3/SPARE*%
X92625000Y-174739511D03*
X91850000Y-172290500D03*
%TO.N,/pc070_aida_hdmi_dp_single3/SPARE\u002A*%
X90950000Y-171505000D03*
X91850000Y-175455000D03*
%TO.N,/pc070_aida_hdmi_dp_single3/CONT\u002A*%
X89675000Y-174955000D03*
X90150000Y-169354500D03*
%TO.N,/pc070_aida_hdmi_dp_single3/CONT*%
X88525000Y-175505000D03*
X90975000Y-168630000D03*
%TO.N,/pc070_aida_hdmi_dp_single3/CLK\u002A*%
X96550000Y-167830500D03*
X95900000Y-176155000D03*
%TO.N,/pc070_aida_hdmi_dp_single3/CLK*%
X95307341Y-177037341D03*
X95100000Y-167330000D03*
%TO.N,/pc070_aida_hdmi_dp_single3/TRIG\u002A*%
X88775000Y-178680000D03*
X86775000Y-169580000D03*
%TO.N,/pc070_aida_hdmi_dp_single3/TRIG*%
X88462299Y-177642701D03*
X87525000Y-170555000D03*
%TO.N,GND*%
X87825000Y-169205000D03*
X90150000Y-167830000D03*
X94175000Y-167980000D03*
X91875000Y-171030000D03*
X96378614Y-175277541D03*
X90400000Y-175730500D03*
X89862106Y-177717894D03*
X94050000Y-171130000D03*
X81825000Y-101212000D03*
X81873021Y-104186647D03*
X81863782Y-105720593D03*
X81870174Y-107182648D03*
X81878041Y-108693536D03*
X101343316Y-99677648D03*
X101340978Y-101181010D03*
X101334707Y-102689789D03*
X101333441Y-104202477D03*
X101333027Y-106692087D03*
%TO.N,/pc070_aida_hdmi_dp_single2/BUSY*%
X94100000Y-104472500D03*
X94150000Y-106012000D03*
%TO.N,/pc070_aida_hdmi_dp_single2/SPARE*%
X92625000Y-106921511D03*
X91850000Y-104472500D03*
%TO.N,/pc070_aida_hdmi_dp_single2/SPARE\u002A*%
X90950000Y-103687000D03*
X91850000Y-107637000D03*
%TO.N,/pc070_aida_hdmi_dp_single2/CONT\u002A*%
X89675000Y-107137000D03*
X90150000Y-101536500D03*
%TO.N,/pc070_aida_hdmi_dp_single2/CONT*%
X88525000Y-107687000D03*
X90975000Y-100812000D03*
%TO.N,/pc070_aida_hdmi_dp_single2/CLK\u002A*%
X96550000Y-100012500D03*
X95900000Y-108337000D03*
%TO.N,/pc070_aida_hdmi_dp_single2/CLK*%
X95307341Y-109219341D03*
X95100000Y-99512000D03*
%TO.N,/pc070_aida_hdmi_dp_single2/TRIG\u002A*%
X88775000Y-110862000D03*
X86775000Y-101762000D03*
%TO.N,/pc070_aida_hdmi_dp_single2/TRIG*%
X88462299Y-109824701D03*
X87525000Y-102737000D03*
%TO.N,GND*%
X87825000Y-101387000D03*
X90150000Y-100012000D03*
X94175000Y-100162000D03*
X91875000Y-103212000D03*
X96378614Y-107459541D03*
X90400000Y-107912500D03*
X89862106Y-109899894D03*
X94050000Y-103312000D03*
X81825000Y-78606000D03*
X81873021Y-81580647D03*
X81863782Y-83114593D03*
X81870174Y-84576648D03*
X81878041Y-86087536D03*
X101343316Y-77071648D03*
X101340978Y-78575010D03*
X101334707Y-80083789D03*
X101333441Y-81596477D03*
X101333027Y-84086087D03*
%TO.N,/pc070_aida_hdmi_dp_single1/BUSY*%
X94100000Y-81866500D03*
X94150000Y-83406000D03*
%TO.N,/pc070_aida_hdmi_dp_single1/SPARE*%
X92625000Y-84315511D03*
X91850000Y-81866500D03*
%TO.N,/pc070_aida_hdmi_dp_single1/SPARE\u002A*%
X90950000Y-81081000D03*
X91850000Y-85031000D03*
%TO.N,/pc070_aida_hdmi_dp_single1/CONT\u002A*%
X89675000Y-84531000D03*
X90150000Y-78930500D03*
%TO.N,/pc070_aida_hdmi_dp_single1/CONT*%
X88525000Y-85081000D03*
X90975000Y-78206000D03*
%TO.N,/pc070_aida_hdmi_dp_single1/CLK\u002A*%
X96550000Y-77406500D03*
X95900000Y-85731000D03*
%TO.N,/pc070_aida_hdmi_dp_single1/CLK*%
X95307341Y-86613341D03*
X95100000Y-76906000D03*
%TO.N,/pc070_aida_hdmi_dp_single1/TRIG\u002A*%
X88775000Y-88256000D03*
X86775000Y-79156000D03*
%TO.N,/pc070_aida_hdmi_dp_single1/TRIG*%
X88462299Y-87218701D03*
X87525000Y-80131000D03*
%TO.N,GND*%
X87825000Y-78781000D03*
X90150000Y-77406000D03*
X94175000Y-77556000D03*
X91875000Y-80606000D03*
X96378614Y-84853541D03*
X90400000Y-85306500D03*
X89862106Y-87293894D03*
X94050000Y-80706000D03*
X94050000Y-58100000D03*
X89862106Y-64687894D03*
X90400000Y-62700500D03*
X96378614Y-62247541D03*
X91875000Y-58000000D03*
X94175000Y-54950000D03*
X90150000Y-54800000D03*
X87825000Y-56175000D03*
%TO.N,/pc070_aida_hdmi_dp_single/TRIG*%
X87525000Y-57525000D03*
X88462299Y-64612701D03*
%TO.N,/pc070_aida_hdmi_dp_single/TRIG\u002A*%
X86775000Y-56550000D03*
X88775000Y-65650000D03*
%TO.N,/pc070_aida_hdmi_dp_single/CLK*%
X95100000Y-54300000D03*
X95307341Y-64007341D03*
%TO.N,/pc070_aida_hdmi_dp_single/CLK\u002A*%
X95900000Y-63125000D03*
X96550000Y-54800500D03*
%TO.N,/pc070_aida_hdmi_dp_single/CONT*%
X90975000Y-55600000D03*
X88525000Y-62475000D03*
%TO.N,/pc070_aida_hdmi_dp_single/CONT\u002A*%
X90150000Y-56324500D03*
X89675000Y-61925000D03*
%TO.N,/pc070_aida_hdmi_dp_single/SPARE\u002A*%
X91850000Y-62425000D03*
X90950000Y-58475000D03*
%TO.N,/pc070_aida_hdmi_dp_single/SPARE*%
X91850000Y-59260500D03*
X92625000Y-61709511D03*
%TO.N,/pc070_aida_hdmi_dp_single/BUSY*%
X94150000Y-60800000D03*
X94100000Y-59260500D03*
%TO.N,GND*%
X101333027Y-61480087D03*
X101333441Y-58990477D03*
X101334707Y-57477789D03*
X101340978Y-55969010D03*
X101343316Y-54465648D03*
X81878041Y-63481536D03*
X81870174Y-61970648D03*
X81863782Y-60508593D03*
X81873021Y-58974647D03*
X81825000Y-56000000D03*
%TD*%
D19*
%TO.N,/pc070_aida_hdmi_dp_single3/BUSY\u002A*%
X83560000Y-173015000D02*
X85042345Y-173015000D01*
X85042345Y-173015000D02*
X85227825Y-173200480D01*
X85227825Y-173200480D02*
X93754906Y-173200480D01*
X93754906Y-173200480D02*
X93849897Y-173105489D01*
X93849897Y-173105489D02*
X94899511Y-173105489D01*
X94899511Y-173105489D02*
X96990000Y-171015000D01*
X96990000Y-171015000D02*
X99675000Y-171015000D01*
%TO.N,/pc070_aida_hdmi_dp_single3/BUSY*%
X94150000Y-173830000D02*
X93970000Y-173650000D01*
X93970000Y-173650000D02*
X85414022Y-173650000D01*
X85414022Y-173650000D02*
X85049022Y-174015000D01*
X85049022Y-174015000D02*
X83560000Y-174015000D01*
%TO.N,/pc070_aida_hdmi_dp_single4/BUSY\u002A*%
X85130345Y-150409000D02*
X85271825Y-150550480D01*
X85271825Y-150550480D02*
X93798906Y-150550480D01*
X93798906Y-150550480D02*
X93849897Y-150499489D01*
X96990000Y-148409000D02*
X99675000Y-148409000D01*
X93849897Y-150499489D02*
X94899511Y-150499489D01*
X83560000Y-150409000D02*
X85130345Y-150409000D01*
X94899511Y-150499489D02*
X96990000Y-148409000D01*
%TO.N,/pc070_aida_hdmi_dp_single4/BUSY*%
X94150000Y-151224000D02*
X93926000Y-151000000D01*
X85458022Y-151000000D02*
X85049022Y-151409000D01*
X93926000Y-151000000D02*
X85458022Y-151000000D01*
X85049022Y-151409000D02*
X83560000Y-151409000D01*
%TO.N,/pc070_aida_hdmi_dp_single5/BUSY\u002A*%
X85265825Y-127950480D02*
X93792906Y-127950480D01*
X85118345Y-127803000D02*
X85265825Y-127950480D01*
X83560000Y-127803000D02*
X85118345Y-127803000D01*
X93792906Y-127950480D02*
X93849897Y-127893489D01*
X93849897Y-127893489D02*
X94899511Y-127893489D01*
X94899511Y-127893489D02*
X96990000Y-125803000D01*
X96990000Y-125803000D02*
X99675000Y-125803000D01*
%TO.N,/pc070_aida_hdmi_dp_single5/BUSY*%
X94150000Y-128618000D02*
X93932000Y-128400000D01*
X93932000Y-128400000D02*
X85452022Y-128400000D01*
X85049022Y-128803000D02*
X83560000Y-128803000D01*
X85452022Y-128400000D02*
X85049022Y-128803000D01*
%TO.N,/pc070_aida_hdmi_dp_single2/BUSY\u002A*%
X83560000Y-105197000D02*
X85106345Y-105197000D01*
X85106345Y-105197000D02*
X85259825Y-105350480D01*
X85259825Y-105350480D02*
X93786906Y-105350480D01*
X93786906Y-105350480D02*
X93849897Y-105287489D01*
X94899511Y-105287489D02*
X96990000Y-103197000D01*
X93849897Y-105287489D02*
X94899511Y-105287489D01*
X96990000Y-103197000D02*
X99675000Y-103197000D01*
%TO.N,/pc070_aida_hdmi_dp_single2/BUSY*%
X94150000Y-106012000D02*
X93938000Y-105800000D01*
X93938000Y-105800000D02*
X85446022Y-105800000D01*
X85049022Y-106197000D02*
X83560000Y-106197000D01*
X85446022Y-105800000D02*
X85049022Y-106197000D01*
%TO.N,/pc070_aida_hdmi_dp_single1/BUSY\u002A*%
X84994345Y-82591000D02*
X85203825Y-82800480D01*
X93730906Y-82800480D02*
X93849897Y-82681489D01*
X83560000Y-82591000D02*
X84994345Y-82591000D01*
X93849897Y-82681489D02*
X94899511Y-82681489D01*
X85203825Y-82800480D02*
X93730906Y-82800480D01*
X94899511Y-82681489D02*
X96990000Y-80591000D01*
X96990000Y-80591000D02*
X99675000Y-80591000D01*
%TO.N,/pc070_aida_hdmi_dp_single1/BUSY*%
X94150000Y-83406000D02*
X93994000Y-83250000D01*
X85390022Y-83250000D02*
X85049022Y-83591000D01*
X93994000Y-83250000D02*
X85390022Y-83250000D01*
X85049022Y-83591000D02*
X83560000Y-83591000D01*
%TO.N,/pc070_aida_hdmi_dp_single/BUSY\u002A*%
X83560000Y-59985000D02*
X85182345Y-59985000D01*
X85182345Y-59985000D02*
X85297825Y-60100480D01*
X93824906Y-60100480D02*
X93849897Y-60075489D01*
X85297825Y-60100480D02*
X93824906Y-60100480D01*
X94899511Y-60075489D02*
X96990000Y-57985000D01*
X93849897Y-60075489D02*
X94899511Y-60075489D01*
X96990000Y-57985000D02*
X99675000Y-57985000D01*
%TO.N,/pc070_aida_hdmi_dp_single/BUSY*%
X94150000Y-60800000D02*
X93900000Y-60550000D01*
X93900000Y-60550000D02*
X85484022Y-60550000D01*
X85484022Y-60550000D02*
X85049022Y-60985000D01*
X85049022Y-60985000D02*
X83560000Y-60985000D01*
%TO.N,GND*%
X83560000Y-123803000D02*
X81840000Y-123803000D01*
X81840000Y-123803000D02*
X81825000Y-123818000D01*
X83560000Y-126803000D02*
X81883374Y-126803000D01*
X81883374Y-126803000D02*
X81873021Y-126792647D01*
X83560000Y-128303000D02*
X81887375Y-128303000D01*
X81887375Y-128303000D02*
X81863782Y-128326593D01*
X83560000Y-129803000D02*
X81884526Y-129803000D01*
X81884526Y-129803000D02*
X81870174Y-129788648D01*
X83560000Y-131303000D02*
X81881505Y-131303000D01*
X81881505Y-131303000D02*
X81878041Y-131299536D01*
X99675000Y-122303000D02*
X101323964Y-122303000D01*
X101323964Y-122303000D02*
X101343316Y-122283648D01*
X99675000Y-123803000D02*
X101324988Y-123803000D01*
X101324988Y-123803000D02*
X101340978Y-123787010D01*
X99675000Y-125303000D02*
X101327496Y-125303000D01*
X101327496Y-125303000D02*
X101334707Y-125295789D01*
X99675000Y-126803000D02*
X101327964Y-126803000D01*
X101327964Y-126803000D02*
X101333441Y-126808477D01*
X99675000Y-129303000D02*
X101328114Y-129303000D01*
X101328114Y-129303000D02*
X101333027Y-129298087D01*
%TO.N,/pc070_aida_hdmi_dp_single5/CLK\u002A*%
X98150500Y-122618500D02*
X98375000Y-122843000D01*
X96550000Y-122618500D02*
X98150500Y-122618500D01*
X98415000Y-122803000D02*
X98375000Y-122843000D01*
X99675000Y-122803000D02*
X98415000Y-122803000D01*
%TO.N,/pc070_aida_hdmi_dp_single5/CLK*%
X96335000Y-121803000D02*
X99675000Y-121803000D01*
X96325000Y-121793000D02*
X96335000Y-121803000D01*
X95100000Y-122118000D02*
X96000000Y-122118000D01*
X96000000Y-122118000D02*
X96325000Y-121793000D01*
%TO.N,/pc070_aida_hdmi_dp_single5/CONT*%
X85049022Y-130303000D02*
X83560000Y-130303000D01*
X85334022Y-130018000D02*
X85049022Y-130303000D01*
X88250000Y-130018000D02*
X85334022Y-130018000D01*
X88525000Y-130293000D02*
X88250000Y-130018000D01*
%TO.N,/pc070_aida_hdmi_dp_single5/CONT\u002A*%
X84882345Y-129303000D02*
X83560000Y-129303000D01*
X85147825Y-129568480D02*
X84882345Y-129303000D01*
X89500480Y-129568480D02*
X85147825Y-129568480D01*
X89675000Y-129743000D02*
X89500480Y-129568480D01*
%TO.N,/pc070_aida_hdmi_dp_single5/SPARE*%
X85284022Y-127068000D02*
X85049022Y-127303000D01*
X91839500Y-127068000D02*
X85284022Y-127068000D01*
X85049022Y-127303000D02*
X83560000Y-127303000D01*
X91850000Y-127078500D02*
X91839500Y-127068000D01*
%TO.N,/pc070_aida_hdmi_dp_single5/SPARE\u002A*%
X85049022Y-126303000D02*
X83560000Y-126303000D01*
X85364502Y-126618480D02*
X85049022Y-126303000D01*
X90624520Y-126618480D02*
X85364502Y-126618480D01*
X90950000Y-126293000D02*
X90624520Y-126618480D01*
%TO.N,/pc070_aida_hdmi_dp_single5/CONT\u002A*%
X91374614Y-124043000D02*
X97800000Y-124043000D01*
X98060000Y-124303000D02*
X99675000Y-124303000D01*
X91275114Y-124142500D02*
X91374614Y-124043000D01*
X97800000Y-124043000D02*
X98060000Y-124303000D01*
X90150000Y-124142500D02*
X91275114Y-124142500D01*
%TO.N,/pc070_aida_hdmi_dp_single5/CONT*%
X98215489Y-123303000D02*
X99675000Y-123303000D01*
X97925009Y-123593480D02*
X98215489Y-123303000D01*
X91150480Y-123593480D02*
X97925009Y-123593480D01*
X90975000Y-123418000D02*
X91150480Y-123593480D01*
%TO.N,/pc070_aida_hdmi_dp_single5/SPARE\u002A*%
X97640000Y-127303000D02*
X99675000Y-127303000D01*
X94965979Y-129977020D02*
X97640000Y-127303000D01*
X93200105Y-129977020D02*
X94965979Y-129977020D01*
X92925103Y-130252022D02*
X93200105Y-129977020D01*
X91859022Y-130252022D02*
X92925103Y-130252022D01*
X91850000Y-130243000D02*
X91859022Y-130252022D01*
%TO.N,/pc070_aida_hdmi_dp_single5/SPARE*%
X98004282Y-126303000D02*
X99675000Y-126303000D01*
X94779782Y-129527500D02*
X98004282Y-126303000D01*
X92625011Y-129527500D02*
X94779782Y-129527500D01*
X92625000Y-129527511D02*
X92625011Y-129527500D01*
%TO.N,/pc070_aida_hdmi_dp_single5/CLK\u002A*%
X94425386Y-130943000D02*
X95900000Y-130943000D01*
X85925000Y-131243000D02*
X94125386Y-131243000D01*
X94125386Y-131243000D02*
X94425386Y-130943000D01*
X85485000Y-130803000D02*
X85925000Y-131243000D01*
X83560000Y-130803000D02*
X85485000Y-130803000D01*
%TO.N,/pc070_aida_hdmi_dp_single5/TRIG\u002A*%
X83560000Y-124303000D02*
X86710000Y-124303000D01*
X86710000Y-124303000D02*
X86775000Y-124368000D01*
%TO.N,/pc070_aida_hdmi_dp_single5/TRIG*%
X86185386Y-124803000D02*
X86725386Y-125343000D01*
X83560000Y-124803000D02*
X86185386Y-124803000D01*
X86725386Y-125343000D02*
X87525000Y-125343000D01*
%TO.N,/pc070_aida_hdmi_dp_single5/BUSY*%
X97354282Y-124803000D02*
X99675000Y-124803000D01*
X95078782Y-127078500D02*
X97354282Y-124803000D01*
X94100000Y-127078500D02*
X95078782Y-127078500D01*
%TO.N,/pc070_aida_hdmi_dp_single5/TRIG\u002A*%
X97650000Y-131142999D02*
X97650000Y-129843000D01*
X97650000Y-129843000D02*
X98425000Y-129843000D01*
X94874999Y-133918000D02*
X97650000Y-131142999D01*
X89225000Y-133918000D02*
X94874999Y-133918000D01*
X88775000Y-133468000D02*
X89225000Y-133918000D01*
%TO.N,/pc070_aida_hdmi_dp_single5/TRIG*%
X97715000Y-128803000D02*
X99675000Y-128803000D01*
X94688802Y-133468480D02*
X97200480Y-130956802D01*
X89800094Y-133468480D02*
X94688802Y-133468480D01*
X88762315Y-132430701D02*
X89800094Y-133468480D01*
X97200480Y-129317520D02*
X97715000Y-128803000D01*
X97200480Y-130956802D02*
X97200480Y-129317520D01*
X88462299Y-132430701D02*
X88762315Y-132430701D01*
%TO.N,/pc070_aida_hdmi_dp_single5/CLK*%
X85590000Y-131803000D02*
X83560000Y-131803000D01*
X85700000Y-131693000D02*
X85590000Y-131803000D01*
X95175000Y-131693000D02*
X85700000Y-131693000D01*
X95307341Y-131825341D02*
X95175000Y-131693000D01*
%TO.N,GND*%
X83560000Y-146409000D02*
X81840000Y-146409000D01*
X81840000Y-146409000D02*
X81825000Y-146424000D01*
X83560000Y-149409000D02*
X81883374Y-149409000D01*
X81883374Y-149409000D02*
X81873021Y-149398647D01*
X83560000Y-150909000D02*
X81887375Y-150909000D01*
X81887375Y-150909000D02*
X81863782Y-150932593D01*
X83560000Y-152409000D02*
X81884526Y-152409000D01*
X81884526Y-152409000D02*
X81870174Y-152394648D01*
X83560000Y-153909000D02*
X81881505Y-153909000D01*
X81881505Y-153909000D02*
X81878041Y-153905536D01*
X99675000Y-144909000D02*
X101323964Y-144909000D01*
X101323964Y-144909000D02*
X101343316Y-144889648D01*
X99675000Y-146409000D02*
X101324988Y-146409000D01*
X101324988Y-146409000D02*
X101340978Y-146393010D01*
X99675000Y-147909000D02*
X101327496Y-147909000D01*
X101327496Y-147909000D02*
X101334707Y-147901789D01*
X99675000Y-149409000D02*
X101327964Y-149409000D01*
X101327964Y-149409000D02*
X101333441Y-149414477D01*
X99675000Y-151909000D02*
X101328114Y-151909000D01*
X101328114Y-151909000D02*
X101333027Y-151904087D01*
%TO.N,/pc070_aida_hdmi_dp_single4/CLK\u002A*%
X98150500Y-145224500D02*
X98375000Y-145449000D01*
X96550000Y-145224500D02*
X98150500Y-145224500D01*
X98415000Y-145409000D02*
X98375000Y-145449000D01*
X99675000Y-145409000D02*
X98415000Y-145409000D01*
%TO.N,/pc070_aida_hdmi_dp_single4/CLK*%
X96335000Y-144409000D02*
X99675000Y-144409000D01*
X96325000Y-144399000D02*
X96335000Y-144409000D01*
X95100000Y-144724000D02*
X96000000Y-144724000D01*
X96000000Y-144724000D02*
X96325000Y-144399000D01*
%TO.N,/pc070_aida_hdmi_dp_single4/CONT*%
X85049022Y-152909000D02*
X83560000Y-152909000D01*
X85334022Y-152624000D02*
X85049022Y-152909000D01*
X88250000Y-152624000D02*
X85334022Y-152624000D01*
X88525000Y-152899000D02*
X88250000Y-152624000D01*
%TO.N,/pc070_aida_hdmi_dp_single4/CONT\u002A*%
X84882345Y-151909000D02*
X83560000Y-151909000D01*
X85147825Y-152174480D02*
X84882345Y-151909000D01*
X89500480Y-152174480D02*
X85147825Y-152174480D01*
X89675000Y-152349000D02*
X89500480Y-152174480D01*
%TO.N,/pc070_aida_hdmi_dp_single4/SPARE*%
X85284022Y-149674000D02*
X85049022Y-149909000D01*
X91839500Y-149674000D02*
X85284022Y-149674000D01*
X85049022Y-149909000D02*
X83560000Y-149909000D01*
X91850000Y-149684500D02*
X91839500Y-149674000D01*
%TO.N,/pc070_aida_hdmi_dp_single4/SPARE\u002A*%
X85049022Y-148909000D02*
X83560000Y-148909000D01*
X85364502Y-149224480D02*
X85049022Y-148909000D01*
X90624520Y-149224480D02*
X85364502Y-149224480D01*
X90950000Y-148899000D02*
X90624520Y-149224480D01*
%TO.N,/pc070_aida_hdmi_dp_single4/CONT\u002A*%
X91374614Y-146649000D02*
X97800000Y-146649000D01*
X98060000Y-146909000D02*
X99675000Y-146909000D01*
X91275114Y-146748500D02*
X91374614Y-146649000D01*
X97800000Y-146649000D02*
X98060000Y-146909000D01*
X90150000Y-146748500D02*
X91275114Y-146748500D01*
%TO.N,/pc070_aida_hdmi_dp_single4/CONT*%
X98215489Y-145909000D02*
X99675000Y-145909000D01*
X97925009Y-146199480D02*
X98215489Y-145909000D01*
X91150480Y-146199480D02*
X97925009Y-146199480D01*
X90975000Y-146024000D02*
X91150480Y-146199480D01*
%TO.N,/pc070_aida_hdmi_dp_single4/SPARE\u002A*%
X97640000Y-149909000D02*
X99675000Y-149909000D01*
X94965979Y-152583020D02*
X97640000Y-149909000D01*
X93200105Y-152583020D02*
X94965979Y-152583020D01*
X92925103Y-152858022D02*
X93200105Y-152583020D01*
X91859022Y-152858022D02*
X92925103Y-152858022D01*
X91850000Y-152849000D02*
X91859022Y-152858022D01*
%TO.N,/pc070_aida_hdmi_dp_single4/SPARE*%
X98004282Y-148909000D02*
X99675000Y-148909000D01*
X94779782Y-152133500D02*
X98004282Y-148909000D01*
X92625011Y-152133500D02*
X94779782Y-152133500D01*
X92625000Y-152133511D02*
X92625011Y-152133500D01*
%TO.N,/pc070_aida_hdmi_dp_single4/CLK\u002A*%
X94425386Y-153549000D02*
X95900000Y-153549000D01*
X85925000Y-153849000D02*
X94125386Y-153849000D01*
X94125386Y-153849000D02*
X94425386Y-153549000D01*
X85485000Y-153409000D02*
X85925000Y-153849000D01*
X83560000Y-153409000D02*
X85485000Y-153409000D01*
%TO.N,/pc070_aida_hdmi_dp_single4/TRIG\u002A*%
X83560000Y-146909000D02*
X86710000Y-146909000D01*
X86710000Y-146909000D02*
X86775000Y-146974000D01*
%TO.N,/pc070_aida_hdmi_dp_single4/TRIG*%
X86185386Y-147409000D02*
X86725386Y-147949000D01*
X83560000Y-147409000D02*
X86185386Y-147409000D01*
X86725386Y-147949000D02*
X87525000Y-147949000D01*
%TO.N,/pc070_aida_hdmi_dp_single4/BUSY*%
X97354282Y-147409000D02*
X99675000Y-147409000D01*
X95078782Y-149684500D02*
X97354282Y-147409000D01*
X94100000Y-149684500D02*
X95078782Y-149684500D01*
%TO.N,/pc070_aida_hdmi_dp_single4/TRIG\u002A*%
X97650000Y-153748999D02*
X97650000Y-152449000D01*
X97650000Y-152449000D02*
X98425000Y-152449000D01*
X94874999Y-156524000D02*
X97650000Y-153748999D01*
X89225000Y-156524000D02*
X94874999Y-156524000D01*
X88775000Y-156074000D02*
X89225000Y-156524000D01*
%TO.N,/pc070_aida_hdmi_dp_single4/TRIG*%
X97715000Y-151409000D02*
X99675000Y-151409000D01*
X94688802Y-156074480D02*
X97200480Y-153562802D01*
X89800094Y-156074480D02*
X94688802Y-156074480D01*
X88762315Y-155036701D02*
X89800094Y-156074480D01*
X97200480Y-151923520D02*
X97715000Y-151409000D01*
X97200480Y-153562802D02*
X97200480Y-151923520D01*
X88462299Y-155036701D02*
X88762315Y-155036701D01*
%TO.N,/pc070_aida_hdmi_dp_single4/CLK*%
X85590000Y-154409000D02*
X83560000Y-154409000D01*
X85700000Y-154299000D02*
X85590000Y-154409000D01*
X95175000Y-154299000D02*
X85700000Y-154299000D01*
X95307341Y-154431341D02*
X95175000Y-154299000D01*
%TO.N,GND*%
X83560000Y-169015000D02*
X81840000Y-169015000D01*
X81840000Y-169015000D02*
X81825000Y-169030000D01*
X83560000Y-172015000D02*
X81883374Y-172015000D01*
X81883374Y-172015000D02*
X81873021Y-172004647D01*
X83560000Y-173515000D02*
X81887375Y-173515000D01*
X81887375Y-173515000D02*
X81863782Y-173538593D01*
X83560000Y-175015000D02*
X81884526Y-175015000D01*
X81884526Y-175015000D02*
X81870174Y-175000648D01*
X83560000Y-176515000D02*
X81881505Y-176515000D01*
X81881505Y-176515000D02*
X81878041Y-176511536D01*
X99675000Y-167515000D02*
X101323964Y-167515000D01*
X101323964Y-167515000D02*
X101343316Y-167495648D01*
X99675000Y-169015000D02*
X101324988Y-169015000D01*
X101324988Y-169015000D02*
X101340978Y-168999010D01*
X99675000Y-170515000D02*
X101327496Y-170515000D01*
X101327496Y-170515000D02*
X101334707Y-170507789D01*
X99675000Y-172015000D02*
X101327964Y-172015000D01*
X101327964Y-172015000D02*
X101333441Y-172020477D01*
X99675000Y-174515000D02*
X101328114Y-174515000D01*
X101328114Y-174515000D02*
X101333027Y-174510087D01*
%TO.N,/pc070_aida_hdmi_dp_single3/CLK\u002A*%
X98150500Y-167830500D02*
X98375000Y-168055000D01*
X96550000Y-167830500D02*
X98150500Y-167830500D01*
X98415000Y-168015000D02*
X98375000Y-168055000D01*
X99675000Y-168015000D02*
X98415000Y-168015000D01*
%TO.N,/pc070_aida_hdmi_dp_single3/CLK*%
X96335000Y-167015000D02*
X99675000Y-167015000D01*
X96325000Y-167005000D02*
X96335000Y-167015000D01*
X95100000Y-167330000D02*
X96000000Y-167330000D01*
X96000000Y-167330000D02*
X96325000Y-167005000D01*
%TO.N,/pc070_aida_hdmi_dp_single3/CONT*%
X85049022Y-175515000D02*
X83560000Y-175515000D01*
X85334022Y-175230000D02*
X85049022Y-175515000D01*
X88250000Y-175230000D02*
X85334022Y-175230000D01*
X88525000Y-175505000D02*
X88250000Y-175230000D01*
%TO.N,/pc070_aida_hdmi_dp_single3/CONT\u002A*%
X84882345Y-174515000D02*
X83560000Y-174515000D01*
X85147825Y-174780480D02*
X84882345Y-174515000D01*
X89500480Y-174780480D02*
X85147825Y-174780480D01*
X89675000Y-174955000D02*
X89500480Y-174780480D01*
%TO.N,/pc070_aida_hdmi_dp_single3/SPARE*%
X85284022Y-172280000D02*
X85049022Y-172515000D01*
X91839500Y-172280000D02*
X85284022Y-172280000D01*
X85049022Y-172515000D02*
X83560000Y-172515000D01*
X91850000Y-172290500D02*
X91839500Y-172280000D01*
%TO.N,/pc070_aida_hdmi_dp_single3/SPARE\u002A*%
X85049022Y-171515000D02*
X83560000Y-171515000D01*
X85364502Y-171830480D02*
X85049022Y-171515000D01*
X90624520Y-171830480D02*
X85364502Y-171830480D01*
X90950000Y-171505000D02*
X90624520Y-171830480D01*
%TO.N,/pc070_aida_hdmi_dp_single3/CONT\u002A*%
X91374614Y-169255000D02*
X97800000Y-169255000D01*
X98060000Y-169515000D02*
X99675000Y-169515000D01*
X91275114Y-169354500D02*
X91374614Y-169255000D01*
X97800000Y-169255000D02*
X98060000Y-169515000D01*
X90150000Y-169354500D02*
X91275114Y-169354500D01*
%TO.N,/pc070_aida_hdmi_dp_single3/CONT*%
X98215489Y-168515000D02*
X99675000Y-168515000D01*
X97925009Y-168805480D02*
X98215489Y-168515000D01*
X91150480Y-168805480D02*
X97925009Y-168805480D01*
X90975000Y-168630000D02*
X91150480Y-168805480D01*
%TO.N,/pc070_aida_hdmi_dp_single3/SPARE\u002A*%
X97640000Y-172515000D02*
X99675000Y-172515000D01*
X94965979Y-175189020D02*
X97640000Y-172515000D01*
X93200105Y-175189020D02*
X94965979Y-175189020D01*
X92925103Y-175464022D02*
X93200105Y-175189020D01*
X91859022Y-175464022D02*
X92925103Y-175464022D01*
X91850000Y-175455000D02*
X91859022Y-175464022D01*
%TO.N,/pc070_aida_hdmi_dp_single3/SPARE*%
X98004282Y-171515000D02*
X99675000Y-171515000D01*
X94779782Y-174739500D02*
X98004282Y-171515000D01*
X92625011Y-174739500D02*
X94779782Y-174739500D01*
X92625000Y-174739511D02*
X92625011Y-174739500D01*
%TO.N,/pc070_aida_hdmi_dp_single3/CLK\u002A*%
X94425386Y-176155000D02*
X95900000Y-176155000D01*
X85925000Y-176455000D02*
X94125386Y-176455000D01*
X94125386Y-176455000D02*
X94425386Y-176155000D01*
X85485000Y-176015000D02*
X85925000Y-176455000D01*
X83560000Y-176015000D02*
X85485000Y-176015000D01*
%TO.N,/pc070_aida_hdmi_dp_single3/TRIG\u002A*%
X83560000Y-169515000D02*
X86710000Y-169515000D01*
X86710000Y-169515000D02*
X86775000Y-169580000D01*
%TO.N,/pc070_aida_hdmi_dp_single3/TRIG*%
X86185386Y-170015000D02*
X86725386Y-170555000D01*
X83560000Y-170015000D02*
X86185386Y-170015000D01*
X86725386Y-170555000D02*
X87525000Y-170555000D01*
%TO.N,/pc070_aida_hdmi_dp_single3/BUSY*%
X97354282Y-170015000D02*
X99675000Y-170015000D01*
X95078782Y-172290500D02*
X97354282Y-170015000D01*
X94100000Y-172290500D02*
X95078782Y-172290500D01*
%TO.N,/pc070_aida_hdmi_dp_single3/TRIG\u002A*%
X97650000Y-176354999D02*
X97650000Y-175055000D01*
X97650000Y-175055000D02*
X98425000Y-175055000D01*
X94874999Y-179130000D02*
X97650000Y-176354999D01*
X89225000Y-179130000D02*
X94874999Y-179130000D01*
X88775000Y-178680000D02*
X89225000Y-179130000D01*
%TO.N,/pc070_aida_hdmi_dp_single3/TRIG*%
X97715000Y-174015000D02*
X99675000Y-174015000D01*
X94688802Y-178680480D02*
X97200480Y-176168802D01*
X89800094Y-178680480D02*
X94688802Y-178680480D01*
X88762315Y-177642701D02*
X89800094Y-178680480D01*
X97200480Y-174529520D02*
X97715000Y-174015000D01*
X97200480Y-176168802D02*
X97200480Y-174529520D01*
X88462299Y-177642701D02*
X88762315Y-177642701D01*
%TO.N,/pc070_aida_hdmi_dp_single3/CLK*%
X85590000Y-177015000D02*
X83560000Y-177015000D01*
X85700000Y-176905000D02*
X85590000Y-177015000D01*
X95175000Y-176905000D02*
X85700000Y-176905000D01*
X95307341Y-177037341D02*
X95175000Y-176905000D01*
%TO.N,GND*%
X83560000Y-101197000D02*
X81840000Y-101197000D01*
X81840000Y-101197000D02*
X81825000Y-101212000D01*
X83560000Y-104197000D02*
X81883374Y-104197000D01*
X81883374Y-104197000D02*
X81873021Y-104186647D01*
X83560000Y-105697000D02*
X81887375Y-105697000D01*
X81887375Y-105697000D02*
X81863782Y-105720593D01*
X83560000Y-107197000D02*
X81884526Y-107197000D01*
X81884526Y-107197000D02*
X81870174Y-107182648D01*
X83560000Y-108697000D02*
X81881505Y-108697000D01*
X81881505Y-108697000D02*
X81878041Y-108693536D01*
X99675000Y-99697000D02*
X101323964Y-99697000D01*
X101323964Y-99697000D02*
X101343316Y-99677648D01*
X99675000Y-101197000D02*
X101324988Y-101197000D01*
X101324988Y-101197000D02*
X101340978Y-101181010D01*
X99675000Y-102697000D02*
X101327496Y-102697000D01*
X101327496Y-102697000D02*
X101334707Y-102689789D01*
X99675000Y-104197000D02*
X101327964Y-104197000D01*
X101327964Y-104197000D02*
X101333441Y-104202477D01*
X99675000Y-106697000D02*
X101328114Y-106697000D01*
X101328114Y-106697000D02*
X101333027Y-106692087D01*
%TO.N,/pc070_aida_hdmi_dp_single2/CLK\u002A*%
X98150500Y-100012500D02*
X98375000Y-100237000D01*
X96550000Y-100012500D02*
X98150500Y-100012500D01*
X98415000Y-100197000D02*
X98375000Y-100237000D01*
X99675000Y-100197000D02*
X98415000Y-100197000D01*
%TO.N,/pc070_aida_hdmi_dp_single2/CLK*%
X96335000Y-99197000D02*
X99675000Y-99197000D01*
X96325000Y-99187000D02*
X96335000Y-99197000D01*
X95100000Y-99512000D02*
X96000000Y-99512000D01*
X96000000Y-99512000D02*
X96325000Y-99187000D01*
%TO.N,/pc070_aida_hdmi_dp_single2/CONT*%
X85049022Y-107697000D02*
X83560000Y-107697000D01*
X85334022Y-107412000D02*
X85049022Y-107697000D01*
X88250000Y-107412000D02*
X85334022Y-107412000D01*
X88525000Y-107687000D02*
X88250000Y-107412000D01*
%TO.N,/pc070_aida_hdmi_dp_single2/CONT\u002A*%
X84882345Y-106697000D02*
X83560000Y-106697000D01*
X85147825Y-106962480D02*
X84882345Y-106697000D01*
X89500480Y-106962480D02*
X85147825Y-106962480D01*
X89675000Y-107137000D02*
X89500480Y-106962480D01*
%TO.N,/pc070_aida_hdmi_dp_single2/SPARE*%
X85284022Y-104462000D02*
X85049022Y-104697000D01*
X91839500Y-104462000D02*
X85284022Y-104462000D01*
X85049022Y-104697000D02*
X83560000Y-104697000D01*
X91850000Y-104472500D02*
X91839500Y-104462000D01*
%TO.N,/pc070_aida_hdmi_dp_single2/SPARE\u002A*%
X85049022Y-103697000D02*
X83560000Y-103697000D01*
X85364502Y-104012480D02*
X85049022Y-103697000D01*
X90624520Y-104012480D02*
X85364502Y-104012480D01*
X90950000Y-103687000D02*
X90624520Y-104012480D01*
%TO.N,/pc070_aida_hdmi_dp_single2/CONT\u002A*%
X91374614Y-101437000D02*
X97800000Y-101437000D01*
X98060000Y-101697000D02*
X99675000Y-101697000D01*
X91275114Y-101536500D02*
X91374614Y-101437000D01*
X97800000Y-101437000D02*
X98060000Y-101697000D01*
X90150000Y-101536500D02*
X91275114Y-101536500D01*
%TO.N,/pc070_aida_hdmi_dp_single2/CONT*%
X98215489Y-100697000D02*
X99675000Y-100697000D01*
X97925009Y-100987480D02*
X98215489Y-100697000D01*
X91150480Y-100987480D02*
X97925009Y-100987480D01*
X90975000Y-100812000D02*
X91150480Y-100987480D01*
%TO.N,/pc070_aida_hdmi_dp_single2/SPARE\u002A*%
X97640000Y-104697000D02*
X99675000Y-104697000D01*
X94965979Y-107371020D02*
X97640000Y-104697000D01*
X93200105Y-107371020D02*
X94965979Y-107371020D01*
X92925103Y-107646022D02*
X93200105Y-107371020D01*
X91859022Y-107646022D02*
X92925103Y-107646022D01*
X91850000Y-107637000D02*
X91859022Y-107646022D01*
%TO.N,/pc070_aida_hdmi_dp_single2/SPARE*%
X98004282Y-103697000D02*
X99675000Y-103697000D01*
X94779782Y-106921500D02*
X98004282Y-103697000D01*
X92625011Y-106921500D02*
X94779782Y-106921500D01*
X92625000Y-106921511D02*
X92625011Y-106921500D01*
%TO.N,/pc070_aida_hdmi_dp_single2/CLK\u002A*%
X94425386Y-108337000D02*
X95900000Y-108337000D01*
X85925000Y-108637000D02*
X94125386Y-108637000D01*
X94125386Y-108637000D02*
X94425386Y-108337000D01*
X85485000Y-108197000D02*
X85925000Y-108637000D01*
X83560000Y-108197000D02*
X85485000Y-108197000D01*
%TO.N,/pc070_aida_hdmi_dp_single2/TRIG\u002A*%
X83560000Y-101697000D02*
X86710000Y-101697000D01*
X86710000Y-101697000D02*
X86775000Y-101762000D01*
%TO.N,/pc070_aida_hdmi_dp_single2/TRIG*%
X86185386Y-102197000D02*
X86725386Y-102737000D01*
X83560000Y-102197000D02*
X86185386Y-102197000D01*
X86725386Y-102737000D02*
X87525000Y-102737000D01*
%TO.N,/pc070_aida_hdmi_dp_single2/BUSY*%
X97354282Y-102197000D02*
X99675000Y-102197000D01*
X95078782Y-104472500D02*
X97354282Y-102197000D01*
X94100000Y-104472500D02*
X95078782Y-104472500D01*
%TO.N,/pc070_aida_hdmi_dp_single2/TRIG\u002A*%
X97650000Y-108536999D02*
X97650000Y-107237000D01*
X97650000Y-107237000D02*
X98425000Y-107237000D01*
X94874999Y-111312000D02*
X97650000Y-108536999D01*
X89225000Y-111312000D02*
X94874999Y-111312000D01*
X88775000Y-110862000D02*
X89225000Y-111312000D01*
%TO.N,/pc070_aida_hdmi_dp_single2/TRIG*%
X97715000Y-106197000D02*
X99675000Y-106197000D01*
X94688802Y-110862480D02*
X97200480Y-108350802D01*
X89800094Y-110862480D02*
X94688802Y-110862480D01*
X88762315Y-109824701D02*
X89800094Y-110862480D01*
X97200480Y-106711520D02*
X97715000Y-106197000D01*
X97200480Y-108350802D02*
X97200480Y-106711520D01*
X88462299Y-109824701D02*
X88762315Y-109824701D01*
%TO.N,/pc070_aida_hdmi_dp_single2/CLK*%
X85590000Y-109197000D02*
X83560000Y-109197000D01*
X85700000Y-109087000D02*
X85590000Y-109197000D01*
X95175000Y-109087000D02*
X85700000Y-109087000D01*
X95307341Y-109219341D02*
X95175000Y-109087000D01*
%TO.N,GND*%
X83560000Y-78591000D02*
X81840000Y-78591000D01*
X81840000Y-78591000D02*
X81825000Y-78606000D01*
X83560000Y-81591000D02*
X81883374Y-81591000D01*
X81883374Y-81591000D02*
X81873021Y-81580647D01*
X83560000Y-83091000D02*
X81887375Y-83091000D01*
X81887375Y-83091000D02*
X81863782Y-83114593D01*
X83560000Y-84591000D02*
X81884526Y-84591000D01*
X81884526Y-84591000D02*
X81870174Y-84576648D01*
X83560000Y-86091000D02*
X81881505Y-86091000D01*
X81881505Y-86091000D02*
X81878041Y-86087536D01*
X99675000Y-77091000D02*
X101323964Y-77091000D01*
X101323964Y-77091000D02*
X101343316Y-77071648D01*
X99675000Y-78591000D02*
X101324988Y-78591000D01*
X101324988Y-78591000D02*
X101340978Y-78575010D01*
X99675000Y-80091000D02*
X101327496Y-80091000D01*
X101327496Y-80091000D02*
X101334707Y-80083789D01*
X99675000Y-81591000D02*
X101327964Y-81591000D01*
X101327964Y-81591000D02*
X101333441Y-81596477D01*
X99675000Y-84091000D02*
X101328114Y-84091000D01*
X101328114Y-84091000D02*
X101333027Y-84086087D01*
%TO.N,/pc070_aida_hdmi_dp_single1/CLK\u002A*%
X98150500Y-77406500D02*
X98375000Y-77631000D01*
X96550000Y-77406500D02*
X98150500Y-77406500D01*
X98415000Y-77591000D02*
X98375000Y-77631000D01*
X99675000Y-77591000D02*
X98415000Y-77591000D01*
%TO.N,/pc070_aida_hdmi_dp_single1/CLK*%
X96335000Y-76591000D02*
X99675000Y-76591000D01*
X96325000Y-76581000D02*
X96335000Y-76591000D01*
X95100000Y-76906000D02*
X96000000Y-76906000D01*
X96000000Y-76906000D02*
X96325000Y-76581000D01*
%TO.N,/pc070_aida_hdmi_dp_single1/CONT*%
X85049022Y-85091000D02*
X83560000Y-85091000D01*
X85334022Y-84806000D02*
X85049022Y-85091000D01*
X88250000Y-84806000D02*
X85334022Y-84806000D01*
X88525000Y-85081000D02*
X88250000Y-84806000D01*
%TO.N,/pc070_aida_hdmi_dp_single1/CONT\u002A*%
X84882345Y-84091000D02*
X83560000Y-84091000D01*
X85147825Y-84356480D02*
X84882345Y-84091000D01*
X89500480Y-84356480D02*
X85147825Y-84356480D01*
X89675000Y-84531000D02*
X89500480Y-84356480D01*
%TO.N,/pc070_aida_hdmi_dp_single1/SPARE*%
X85284022Y-81856000D02*
X85049022Y-82091000D01*
X91839500Y-81856000D02*
X85284022Y-81856000D01*
X85049022Y-82091000D02*
X83560000Y-82091000D01*
X91850000Y-81866500D02*
X91839500Y-81856000D01*
%TO.N,/pc070_aida_hdmi_dp_single1/SPARE\u002A*%
X85049022Y-81091000D02*
X83560000Y-81091000D01*
X85364502Y-81406480D02*
X85049022Y-81091000D01*
X90624520Y-81406480D02*
X85364502Y-81406480D01*
X90950000Y-81081000D02*
X90624520Y-81406480D01*
%TO.N,/pc070_aida_hdmi_dp_single1/CONT\u002A*%
X91374614Y-78831000D02*
X97800000Y-78831000D01*
X98060000Y-79091000D02*
X99675000Y-79091000D01*
X91275114Y-78930500D02*
X91374614Y-78831000D01*
X97800000Y-78831000D02*
X98060000Y-79091000D01*
X90150000Y-78930500D02*
X91275114Y-78930500D01*
%TO.N,/pc070_aida_hdmi_dp_single1/CONT*%
X98215489Y-78091000D02*
X99675000Y-78091000D01*
X97925009Y-78381480D02*
X98215489Y-78091000D01*
X91150480Y-78381480D02*
X97925009Y-78381480D01*
X90975000Y-78206000D02*
X91150480Y-78381480D01*
%TO.N,/pc070_aida_hdmi_dp_single1/SPARE\u002A*%
X97640000Y-82091000D02*
X99675000Y-82091000D01*
X94965979Y-84765020D02*
X97640000Y-82091000D01*
X93200105Y-84765020D02*
X94965979Y-84765020D01*
X92925103Y-85040022D02*
X93200105Y-84765020D01*
X91859022Y-85040022D02*
X92925103Y-85040022D01*
X91850000Y-85031000D02*
X91859022Y-85040022D01*
%TO.N,/pc070_aida_hdmi_dp_single1/SPARE*%
X98004282Y-81091000D02*
X99675000Y-81091000D01*
X94779782Y-84315500D02*
X98004282Y-81091000D01*
X92625011Y-84315500D02*
X94779782Y-84315500D01*
X92625000Y-84315511D02*
X92625011Y-84315500D01*
%TO.N,/pc070_aida_hdmi_dp_single1/CLK\u002A*%
X94425386Y-85731000D02*
X95900000Y-85731000D01*
X85925000Y-86031000D02*
X94125386Y-86031000D01*
X94125386Y-86031000D02*
X94425386Y-85731000D01*
X85485000Y-85591000D02*
X85925000Y-86031000D01*
X83560000Y-85591000D02*
X85485000Y-85591000D01*
%TO.N,/pc070_aida_hdmi_dp_single1/TRIG\u002A*%
X83560000Y-79091000D02*
X86710000Y-79091000D01*
X86710000Y-79091000D02*
X86775000Y-79156000D01*
%TO.N,/pc070_aida_hdmi_dp_single1/TRIG*%
X86185386Y-79591000D02*
X86725386Y-80131000D01*
X83560000Y-79591000D02*
X86185386Y-79591000D01*
X86725386Y-80131000D02*
X87525000Y-80131000D01*
%TO.N,/pc070_aida_hdmi_dp_single1/BUSY*%
X97354282Y-79591000D02*
X99675000Y-79591000D01*
X95078782Y-81866500D02*
X97354282Y-79591000D01*
X94100000Y-81866500D02*
X95078782Y-81866500D01*
%TO.N,/pc070_aida_hdmi_dp_single1/TRIG\u002A*%
X97650000Y-85930999D02*
X97650000Y-84631000D01*
X97650000Y-84631000D02*
X98425000Y-84631000D01*
X94874999Y-88706000D02*
X97650000Y-85930999D01*
X89225000Y-88706000D02*
X94874999Y-88706000D01*
X88775000Y-88256000D02*
X89225000Y-88706000D01*
%TO.N,/pc070_aida_hdmi_dp_single1/TRIG*%
X97715000Y-83591000D02*
X99675000Y-83591000D01*
X94688802Y-88256480D02*
X97200480Y-85744802D01*
X89800094Y-88256480D02*
X94688802Y-88256480D01*
X88762315Y-87218701D02*
X89800094Y-88256480D01*
X97200480Y-84105520D02*
X97715000Y-83591000D01*
X97200480Y-85744802D02*
X97200480Y-84105520D01*
X88462299Y-87218701D02*
X88762315Y-87218701D01*
%TO.N,/pc070_aida_hdmi_dp_single1/CLK*%
X85590000Y-86591000D02*
X83560000Y-86591000D01*
X85700000Y-86481000D02*
X85590000Y-86591000D01*
X95175000Y-86481000D02*
X85700000Y-86481000D01*
X95307341Y-86613341D02*
X95175000Y-86481000D01*
%TO.N,/pc070_aida_hdmi_dp_single/CLK*%
X95307341Y-64007341D02*
X95175000Y-63875000D01*
X95175000Y-63875000D02*
X85700000Y-63875000D01*
X85700000Y-63875000D02*
X85590000Y-63985000D01*
X85590000Y-63985000D02*
X83560000Y-63985000D01*
%TO.N,/pc070_aida_hdmi_dp_single/TRIG*%
X88462299Y-64612701D02*
X88762315Y-64612701D01*
X97200480Y-63138802D02*
X97200480Y-61499520D01*
X97200480Y-61499520D02*
X97715000Y-60985000D01*
X88762315Y-64612701D02*
X89800094Y-65650480D01*
X89800094Y-65650480D02*
X94688802Y-65650480D01*
X94688802Y-65650480D02*
X97200480Y-63138802D01*
X97715000Y-60985000D02*
X99675000Y-60985000D01*
%TO.N,/pc070_aida_hdmi_dp_single/TRIG\u002A*%
X88775000Y-65650000D02*
X89225000Y-66100000D01*
X89225000Y-66100000D02*
X94874999Y-66100000D01*
X94874999Y-66100000D02*
X97650000Y-63324999D01*
X97650000Y-62025000D02*
X98425000Y-62025000D01*
X97650000Y-63324999D02*
X97650000Y-62025000D01*
%TO.N,/pc070_aida_hdmi_dp_single/BUSY*%
X94100000Y-59260500D02*
X95078782Y-59260500D01*
X95078782Y-59260500D02*
X97354282Y-56985000D01*
X97354282Y-56985000D02*
X99675000Y-56985000D01*
%TO.N,/pc070_aida_hdmi_dp_single/TRIG*%
X86725386Y-57525000D02*
X87525000Y-57525000D01*
X83560000Y-56985000D02*
X86185386Y-56985000D01*
X86185386Y-56985000D02*
X86725386Y-57525000D01*
%TO.N,/pc070_aida_hdmi_dp_single/TRIG\u002A*%
X86710000Y-56485000D02*
X86775000Y-56550000D01*
X83560000Y-56485000D02*
X86710000Y-56485000D01*
%TO.N,/pc070_aida_hdmi_dp_single/CLK\u002A*%
X83560000Y-62985000D02*
X85485000Y-62985000D01*
X85485000Y-62985000D02*
X85925000Y-63425000D01*
X94125386Y-63425000D02*
X94425386Y-63125000D01*
X85925000Y-63425000D02*
X94125386Y-63425000D01*
X94425386Y-63125000D02*
X95900000Y-63125000D01*
%TO.N,/pc070_aida_hdmi_dp_single/SPARE*%
X92625000Y-61709511D02*
X92625011Y-61709500D01*
X92625011Y-61709500D02*
X94779782Y-61709500D01*
X94779782Y-61709500D02*
X98004282Y-58485000D01*
X98004282Y-58485000D02*
X99675000Y-58485000D01*
%TO.N,/pc070_aida_hdmi_dp_single/SPARE\u002A*%
X91850000Y-62425000D02*
X91859022Y-62434022D01*
X91859022Y-62434022D02*
X92925103Y-62434022D01*
X92925103Y-62434022D02*
X93200105Y-62159020D01*
X93200105Y-62159020D02*
X94965979Y-62159020D01*
X94965979Y-62159020D02*
X97640000Y-59485000D01*
X97640000Y-59485000D02*
X99675000Y-59485000D01*
%TO.N,/pc070_aida_hdmi_dp_single/CONT*%
X90975000Y-55600000D02*
X91150480Y-55775480D01*
X91150480Y-55775480D02*
X97925009Y-55775480D01*
X97925009Y-55775480D02*
X98215489Y-55485000D01*
X98215489Y-55485000D02*
X99675000Y-55485000D01*
%TO.N,/pc070_aida_hdmi_dp_single/CONT\u002A*%
X90150000Y-56324500D02*
X91275114Y-56324500D01*
X97800000Y-56225000D02*
X98060000Y-56485000D01*
X91275114Y-56324500D02*
X91374614Y-56225000D01*
X98060000Y-56485000D02*
X99675000Y-56485000D01*
X91374614Y-56225000D02*
X97800000Y-56225000D01*
%TO.N,/pc070_aida_hdmi_dp_single/SPARE\u002A*%
X90950000Y-58475000D02*
X90624520Y-58800480D01*
X90624520Y-58800480D02*
X85364502Y-58800480D01*
X85364502Y-58800480D02*
X85049022Y-58485000D01*
X85049022Y-58485000D02*
X83560000Y-58485000D01*
%TO.N,/pc070_aida_hdmi_dp_single/SPARE*%
X91850000Y-59260500D02*
X91839500Y-59250000D01*
X85049022Y-59485000D02*
X83560000Y-59485000D01*
X91839500Y-59250000D02*
X85284022Y-59250000D01*
X85284022Y-59250000D02*
X85049022Y-59485000D01*
%TO.N,/pc070_aida_hdmi_dp_single/CONT\u002A*%
X89675000Y-61925000D02*
X89500480Y-61750480D01*
X89500480Y-61750480D02*
X85147825Y-61750480D01*
X85147825Y-61750480D02*
X84882345Y-61485000D01*
X84882345Y-61485000D02*
X83560000Y-61485000D01*
%TO.N,/pc070_aida_hdmi_dp_single/CONT*%
X88525000Y-62475000D02*
X88250000Y-62200000D01*
X88250000Y-62200000D02*
X85334022Y-62200000D01*
X85334022Y-62200000D02*
X85049022Y-62485000D01*
X85049022Y-62485000D02*
X83560000Y-62485000D01*
%TO.N,/pc070_aida_hdmi_dp_single/CLK*%
X96000000Y-54300000D02*
X96325000Y-53975000D01*
X95100000Y-54300000D02*
X96000000Y-54300000D01*
X96325000Y-53975000D02*
X96335000Y-53985000D01*
X96335000Y-53985000D02*
X99675000Y-53985000D01*
%TO.N,/pc070_aida_hdmi_dp_single/CLK\u002A*%
X99675000Y-54985000D02*
X98415000Y-54985000D01*
X98415000Y-54985000D02*
X98375000Y-55025000D01*
X96550000Y-54800500D02*
X98150500Y-54800500D01*
X98150500Y-54800500D02*
X98375000Y-55025000D01*
%TO.N,GND*%
X101328114Y-61485000D02*
X101333027Y-61480087D01*
X99675000Y-61485000D02*
X101328114Y-61485000D01*
X101327964Y-58985000D02*
X101333441Y-58990477D01*
X99675000Y-58985000D02*
X101327964Y-58985000D01*
X101327496Y-57485000D02*
X101334707Y-57477789D01*
X99675000Y-57485000D02*
X101327496Y-57485000D01*
X101324988Y-55985000D02*
X101340978Y-55969010D01*
X99675000Y-55985000D02*
X101324988Y-55985000D01*
X101323964Y-54485000D02*
X101343316Y-54465648D01*
X99675000Y-54485000D02*
X101323964Y-54485000D01*
X81881505Y-63485000D02*
X81878041Y-63481536D01*
X83560000Y-63485000D02*
X81881505Y-63485000D01*
X81884526Y-61985000D02*
X81870174Y-61970648D01*
X83560000Y-61985000D02*
X81884526Y-61985000D01*
X81887375Y-60485000D02*
X81863782Y-60508593D01*
X83560000Y-60485000D02*
X81887375Y-60485000D01*
X81883374Y-58985000D02*
X81873021Y-58974647D01*
X83560000Y-58985000D02*
X81883374Y-58985000D01*
X81840000Y-55985000D02*
X81825000Y-56000000D01*
X83560000Y-55985000D02*
X81840000Y-55985000D01*
%TD*%
M02*
