%TF.GenerationSoftware,KiCad,Pcbnew,(6.0.4-0)*%
%TF.CreationDate,2022-07-15T02:34:09+01:00*%
%TF.ProjectId,pc070_aida_hdmi_dp,70633037-305f-4616-9964-615f68646d69,rev?*%
%TF.SameCoordinates,Original*%
%TF.FileFunction,Other,Comment*%
%FSLAX46Y46*%
G04 Gerber Fmt 4.6, Leading zero omitted, Abs format (unit mm)*
G04 Created by KiCad (PCBNEW (6.0.4-0)) date 2022-07-15 02:34:09*
%MOMM*%
%LPD*%
G01*
G04 APERTURE LIST*
%ADD10C,0.300000*%
%ADD11C,0.150000*%
G04 APERTURE END LIST*
D10*
X181171428Y-175528571D02*
X181171428Y-174028571D01*
X181171428Y-174742857D02*
X182028571Y-174742857D01*
X182028571Y-175528571D02*
X182028571Y-174028571D01*
X182742857Y-175528571D02*
X182742857Y-174028571D01*
X183100000Y-174028571D01*
X183314285Y-174100000D01*
X183457142Y-174242857D01*
X183528571Y-174385714D01*
X183600000Y-174671428D01*
X183600000Y-174885714D01*
X183528571Y-175171428D01*
X183457142Y-175314285D01*
X183314285Y-175457142D01*
X183100000Y-175528571D01*
X182742857Y-175528571D01*
X184242857Y-175528571D02*
X184242857Y-174028571D01*
X184742857Y-175100000D01*
X185242857Y-174028571D01*
X185242857Y-175528571D01*
X185957142Y-175528571D02*
X185957142Y-174028571D01*
X187814285Y-174957142D02*
X188957142Y-174957142D01*
X189671428Y-174957142D02*
X190814285Y-174957142D01*
X192671428Y-175528571D02*
X192671428Y-174028571D01*
X193028571Y-174028571D01*
X193242857Y-174100000D01*
X193385714Y-174242857D01*
X193457142Y-174385714D01*
X193528571Y-174671428D01*
X193528571Y-174885714D01*
X193457142Y-175171428D01*
X193385714Y-175314285D01*
X193242857Y-175457142D01*
X193028571Y-175528571D01*
X192671428Y-175528571D01*
X194171428Y-175528571D02*
X194171428Y-174528571D01*
X194171428Y-174028571D02*
X194100000Y-174100000D01*
X194171428Y-174171428D01*
X194242857Y-174100000D01*
X194171428Y-174028571D01*
X194171428Y-174171428D01*
X194814285Y-175457142D02*
X194957142Y-175528571D01*
X195242857Y-175528571D01*
X195385714Y-175457142D01*
X195457142Y-175314285D01*
X195457142Y-175242857D01*
X195385714Y-175100000D01*
X195242857Y-175028571D01*
X195028571Y-175028571D01*
X194885714Y-174957142D01*
X194814285Y-174814285D01*
X194814285Y-174742857D01*
X194885714Y-174600000D01*
X195028571Y-174528571D01*
X195242857Y-174528571D01*
X195385714Y-174600000D01*
X196100000Y-174528571D02*
X196100000Y-176028571D01*
X196100000Y-174600000D02*
X196242857Y-174528571D01*
X196528571Y-174528571D01*
X196671428Y-174600000D01*
X196742857Y-174671428D01*
X196814285Y-174814285D01*
X196814285Y-175242857D01*
X196742857Y-175385714D01*
X196671428Y-175457142D01*
X196528571Y-175528571D01*
X196242857Y-175528571D01*
X196100000Y-175457142D01*
X197671428Y-175528571D02*
X197528571Y-175457142D01*
X197457142Y-175314285D01*
X197457142Y-174028571D01*
X198885714Y-175528571D02*
X198885714Y-174742857D01*
X198814285Y-174600000D01*
X198671428Y-174528571D01*
X198385714Y-174528571D01*
X198242857Y-174600000D01*
X198885714Y-175457142D02*
X198742857Y-175528571D01*
X198385714Y-175528571D01*
X198242857Y-175457142D01*
X198171428Y-175314285D01*
X198171428Y-175171428D01*
X198242857Y-175028571D01*
X198385714Y-174957142D01*
X198742857Y-174957142D01*
X198885714Y-174885714D01*
X199457142Y-174528571D02*
X199814285Y-175528571D01*
X200171428Y-174528571D02*
X199814285Y-175528571D01*
X199671428Y-175885714D01*
X199600000Y-175957142D01*
X199457142Y-176028571D01*
X201885714Y-175528571D02*
X201885714Y-174028571D01*
X202457142Y-174028571D01*
X202600000Y-174100000D01*
X202671428Y-174171428D01*
X202742857Y-174314285D01*
X202742857Y-174528571D01*
X202671428Y-174671428D01*
X202600000Y-174742857D01*
X202457142Y-174814285D01*
X201885714Y-174814285D01*
X203600000Y-175528571D02*
X203457142Y-175457142D01*
X203385714Y-175385714D01*
X203314285Y-175242857D01*
X203314285Y-174814285D01*
X203385714Y-174671428D01*
X203457142Y-174600000D01*
X203600000Y-174528571D01*
X203814285Y-174528571D01*
X203957142Y-174600000D01*
X204028571Y-174671428D01*
X204100000Y-174814285D01*
X204100000Y-175242857D01*
X204028571Y-175385714D01*
X203957142Y-175457142D01*
X203814285Y-175528571D01*
X203600000Y-175528571D01*
X204742857Y-175528571D02*
X204742857Y-174528571D01*
X204742857Y-174814285D02*
X204814285Y-174671428D01*
X204885714Y-174600000D01*
X205028571Y-174528571D01*
X205171428Y-174528571D01*
X205457142Y-174528571D02*
X206028571Y-174528571D01*
X205671428Y-174028571D02*
X205671428Y-175314285D01*
X205742857Y-175457142D01*
X205885714Y-175528571D01*
X206028571Y-175528571D01*
X208314285Y-175528571D02*
X208314285Y-174742857D01*
X208242857Y-174600000D01*
X208100000Y-174528571D01*
X207814285Y-174528571D01*
X207671428Y-174600000D01*
X208314285Y-175457142D02*
X208171428Y-175528571D01*
X207814285Y-175528571D01*
X207671428Y-175457142D01*
X207600000Y-175314285D01*
X207600000Y-175171428D01*
X207671428Y-175028571D01*
X207814285Y-174957142D01*
X208171428Y-174957142D01*
X208314285Y-174885714D01*
X209671428Y-175528571D02*
X209671428Y-174028571D01*
X209671428Y-175457142D02*
X209528571Y-175528571D01*
X209242857Y-175528571D01*
X209100000Y-175457142D01*
X209028571Y-175385714D01*
X208957142Y-175242857D01*
X208957142Y-174814285D01*
X209028571Y-174671428D01*
X209100000Y-174600000D01*
X209242857Y-174528571D01*
X209528571Y-174528571D01*
X209671428Y-174600000D01*
X211028571Y-175528571D02*
X211028571Y-174742857D01*
X210957142Y-174600000D01*
X210814285Y-174528571D01*
X210528571Y-174528571D01*
X210385714Y-174600000D01*
X211028571Y-175457142D02*
X210885714Y-175528571D01*
X210528571Y-175528571D01*
X210385714Y-175457142D01*
X210314285Y-175314285D01*
X210314285Y-175171428D01*
X210385714Y-175028571D01*
X210528571Y-174957142D01*
X210885714Y-174957142D01*
X211028571Y-174885714D01*
X211742857Y-174528571D02*
X211742857Y-176028571D01*
X211742857Y-174600000D02*
X211885714Y-174528571D01*
X212171428Y-174528571D01*
X212314285Y-174600000D01*
X212385714Y-174671428D01*
X212457142Y-174814285D01*
X212457142Y-175242857D01*
X212385714Y-175385714D01*
X212314285Y-175457142D01*
X212171428Y-175528571D01*
X211885714Y-175528571D01*
X211742857Y-175457142D01*
X212885714Y-174528571D02*
X213457142Y-174528571D01*
X213100000Y-174028571D02*
X213100000Y-175314285D01*
X213171428Y-175457142D01*
X213314285Y-175528571D01*
X213457142Y-175528571D01*
X214171428Y-175528571D02*
X214028571Y-175457142D01*
X213957142Y-175385714D01*
X213885714Y-175242857D01*
X213885714Y-174814285D01*
X213957142Y-174671428D01*
X214028571Y-174600000D01*
X214171428Y-174528571D01*
X214385714Y-174528571D01*
X214528571Y-174600000D01*
X214600000Y-174671428D01*
X214671428Y-174814285D01*
X214671428Y-175242857D01*
X214600000Y-175385714D01*
X214528571Y-175457142D01*
X214385714Y-175528571D01*
X214171428Y-175528571D01*
X215314285Y-175528571D02*
X215314285Y-174528571D01*
X215314285Y-174814285D02*
X215385714Y-174671428D01*
X215457142Y-174600000D01*
X215600000Y-174528571D01*
X215742857Y-174528571D01*
X217385714Y-175528571D02*
X217385714Y-174028571D01*
X217385714Y-174600000D02*
X217528571Y-174528571D01*
X217814285Y-174528571D01*
X217957142Y-174600000D01*
X218028571Y-174671428D01*
X218100000Y-174814285D01*
X218100000Y-175242857D01*
X218028571Y-175385714D01*
X217957142Y-175457142D01*
X217814285Y-175528571D01*
X217528571Y-175528571D01*
X217385714Y-175457142D01*
X218957142Y-175528571D02*
X218814285Y-175457142D01*
X218742857Y-175385714D01*
X218671428Y-175242857D01*
X218671428Y-174814285D01*
X218742857Y-174671428D01*
X218814285Y-174600000D01*
X218957142Y-174528571D01*
X219171428Y-174528571D01*
X219314285Y-174600000D01*
X219385714Y-174671428D01*
X219457142Y-174814285D01*
X219457142Y-175242857D01*
X219385714Y-175385714D01*
X219314285Y-175457142D01*
X219171428Y-175528571D01*
X218957142Y-175528571D01*
X220742857Y-175528571D02*
X220742857Y-174742857D01*
X220671428Y-174600000D01*
X220528571Y-174528571D01*
X220242857Y-174528571D01*
X220100000Y-174600000D01*
X220742857Y-175457142D02*
X220600000Y-175528571D01*
X220242857Y-175528571D01*
X220100000Y-175457142D01*
X220028571Y-175314285D01*
X220028571Y-175171428D01*
X220100000Y-175028571D01*
X220242857Y-174957142D01*
X220600000Y-174957142D01*
X220742857Y-174885714D01*
X221457142Y-175528571D02*
X221457142Y-174528571D01*
X221457142Y-174814285D02*
X221528571Y-174671428D01*
X221600000Y-174600000D01*
X221742857Y-174528571D01*
X221885714Y-174528571D01*
X223028571Y-175528571D02*
X223028571Y-174028571D01*
X223028571Y-175457142D02*
X222885714Y-175528571D01*
X222600000Y-175528571D01*
X222457142Y-175457142D01*
X222385714Y-175385714D01*
X222314285Y-175242857D01*
X222314285Y-174814285D01*
X222385714Y-174671428D01*
X222457142Y-174600000D01*
X222600000Y-174528571D01*
X222885714Y-174528571D01*
X223028571Y-174600000D01*
D11*
X115302380Y-53290119D02*
X115302380Y-53861547D01*
X115302380Y-53575833D02*
X114302380Y-53575833D01*
X114445238Y-53671071D01*
X114540476Y-53766309D01*
X114588095Y-53861547D01*
X114730952Y-52718690D02*
X114683333Y-52813928D01*
X114635714Y-52861547D01*
X114540476Y-52909166D01*
X114492857Y-52909166D01*
X114397619Y-52861547D01*
X114350000Y-52813928D01*
X114302380Y-52718690D01*
X114302380Y-52528214D01*
X114350000Y-52432976D01*
X114397619Y-52385357D01*
X114492857Y-52337738D01*
X114540476Y-52337738D01*
X114635714Y-52385357D01*
X114683333Y-52432976D01*
X114730952Y-52528214D01*
X114730952Y-52718690D01*
X114778571Y-52813928D01*
X114826190Y-52861547D01*
X114921428Y-52909166D01*
X115111904Y-52909166D01*
X115207142Y-52861547D01*
X115254761Y-52813928D01*
X115302380Y-52718690D01*
X115302380Y-52528214D01*
X115254761Y-52432976D01*
X115207142Y-52385357D01*
X115111904Y-52337738D01*
X114921428Y-52337738D01*
X114826190Y-52385357D01*
X114778571Y-52432976D01*
X114730952Y-52528214D01*
X115207142Y-51909166D02*
X115254761Y-51861547D01*
X115302380Y-51909166D01*
X115254761Y-51956785D01*
X115207142Y-51909166D01*
X115302380Y-51909166D01*
X114635714Y-51004404D02*
X115302380Y-51004404D01*
X114254761Y-51242500D02*
X114969047Y-51480595D01*
X114969047Y-50861547D01*
X114730952Y-50337738D02*
X114683333Y-50432976D01*
X114635714Y-50480595D01*
X114540476Y-50528214D01*
X114492857Y-50528214D01*
X114397619Y-50480595D01*
X114350000Y-50432976D01*
X114302380Y-50337738D01*
X114302380Y-50147261D01*
X114350000Y-50052023D01*
X114397619Y-50004404D01*
X114492857Y-49956785D01*
X114540476Y-49956785D01*
X114635714Y-50004404D01*
X114683333Y-50052023D01*
X114730952Y-50147261D01*
X114730952Y-50337738D01*
X114778571Y-50432976D01*
X114826190Y-50480595D01*
X114921428Y-50528214D01*
X115111904Y-50528214D01*
X115207142Y-50480595D01*
X115254761Y-50432976D01*
X115302380Y-50337738D01*
X115302380Y-50147261D01*
X115254761Y-50052023D01*
X115207142Y-50004404D01*
X115111904Y-49956785D01*
X114921428Y-49956785D01*
X114826190Y-50004404D01*
X114778571Y-50052023D01*
X114730952Y-50147261D01*
X114302380Y-49052023D02*
X114302380Y-49528214D01*
X114778571Y-49575833D01*
X114730952Y-49528214D01*
X114683333Y-49432976D01*
X114683333Y-49194880D01*
X114730952Y-49099642D01*
X114778571Y-49052023D01*
X114873809Y-49004404D01*
X115111904Y-49004404D01*
X115207142Y-49052023D01*
X115254761Y-49099642D01*
X115302380Y-49194880D01*
X115302380Y-49432976D01*
X115254761Y-49528214D01*
X115207142Y-49575833D01*
X114302380Y-48385357D02*
X114302380Y-48290119D01*
X114350000Y-48194880D01*
X114397619Y-48147261D01*
X114492857Y-48099642D01*
X114683333Y-48052023D01*
X114921428Y-48052023D01*
X115111904Y-48099642D01*
X115207142Y-48147261D01*
X115254761Y-48194880D01*
X115302380Y-48290119D01*
X115302380Y-48385357D01*
X115254761Y-48480595D01*
X115207142Y-48528214D01*
X115111904Y-48575833D01*
X114921428Y-48623452D01*
X114683333Y-48623452D01*
X114492857Y-48575833D01*
X114397619Y-48528214D01*
X114350000Y-48480595D01*
X114302380Y-48385357D01*
X115302380Y-46861547D02*
X114635714Y-46861547D01*
X114730952Y-46861547D02*
X114683333Y-46813928D01*
X114635714Y-46718690D01*
X114635714Y-46575833D01*
X114683333Y-46480595D01*
X114778571Y-46432976D01*
X115302380Y-46432976D01*
X114778571Y-46432976D02*
X114683333Y-46385357D01*
X114635714Y-46290119D01*
X114635714Y-46147261D01*
X114683333Y-46052023D01*
X114778571Y-46004404D01*
X115302380Y-46004404D01*
X115302380Y-45528214D02*
X114635714Y-45528214D01*
X114730952Y-45528214D02*
X114683333Y-45480595D01*
X114635714Y-45385357D01*
X114635714Y-45242500D01*
X114683333Y-45147261D01*
X114778571Y-45099642D01*
X115302380Y-45099642D01*
X114778571Y-45099642D02*
X114683333Y-45052023D01*
X114635714Y-44956785D01*
X114635714Y-44813928D01*
X114683333Y-44718690D01*
X114778571Y-44671071D01*
X115302380Y-44671071D01*
X110500000Y-58485000D02*
X116586420Y-58485000D01*
X110500000Y-40000000D02*
X116586420Y-40000000D01*
X116000000Y-58485000D02*
X116000000Y-40000000D01*
X116000000Y-58485000D02*
X116000000Y-40000000D01*
X116000000Y-58485000D02*
X116586421Y-57358496D01*
X116000000Y-58485000D02*
X115413579Y-57358496D01*
X116000000Y-40000000D02*
X115413579Y-41126504D01*
X116000000Y-40000000D02*
X116586421Y-41126504D01*
X58802381Y-53290119D02*
X58802381Y-53861547D01*
X58802381Y-53575833D02*
X57802381Y-53575833D01*
X57945239Y-53671071D01*
X58040477Y-53766309D01*
X58088096Y-53861547D01*
X58230953Y-52718690D02*
X58183334Y-52813928D01*
X58135715Y-52861547D01*
X58040477Y-52909166D01*
X57992858Y-52909166D01*
X57897620Y-52861547D01*
X57850001Y-52813928D01*
X57802381Y-52718690D01*
X57802381Y-52528214D01*
X57850001Y-52432976D01*
X57897620Y-52385357D01*
X57992858Y-52337738D01*
X58040477Y-52337738D01*
X58135715Y-52385357D01*
X58183334Y-52432976D01*
X58230953Y-52528214D01*
X58230953Y-52718690D01*
X58278572Y-52813928D01*
X58326191Y-52861547D01*
X58421429Y-52909166D01*
X58611905Y-52909166D01*
X58707143Y-52861547D01*
X58754762Y-52813928D01*
X58802381Y-52718690D01*
X58802381Y-52528214D01*
X58754762Y-52432976D01*
X58707143Y-52385357D01*
X58611905Y-52337738D01*
X58421429Y-52337738D01*
X58326191Y-52385357D01*
X58278572Y-52432976D01*
X58230953Y-52528214D01*
X58707143Y-51909166D02*
X58754762Y-51861547D01*
X58802381Y-51909166D01*
X58754762Y-51956785D01*
X58707143Y-51909166D01*
X58802381Y-51909166D01*
X58135715Y-51004404D02*
X58802381Y-51004404D01*
X57754762Y-51242500D02*
X58469048Y-51480595D01*
X58469048Y-50861547D01*
X58230953Y-50337738D02*
X58183334Y-50432976D01*
X58135715Y-50480595D01*
X58040477Y-50528214D01*
X57992858Y-50528214D01*
X57897620Y-50480595D01*
X57850001Y-50432976D01*
X57802381Y-50337738D01*
X57802381Y-50147261D01*
X57850001Y-50052023D01*
X57897620Y-50004404D01*
X57992858Y-49956785D01*
X58040477Y-49956785D01*
X58135715Y-50004404D01*
X58183334Y-50052023D01*
X58230953Y-50147261D01*
X58230953Y-50337738D01*
X58278572Y-50432976D01*
X58326191Y-50480595D01*
X58421429Y-50528214D01*
X58611905Y-50528214D01*
X58707143Y-50480595D01*
X58754762Y-50432976D01*
X58802381Y-50337738D01*
X58802381Y-50147261D01*
X58754762Y-50052023D01*
X58707143Y-50004404D01*
X58611905Y-49956785D01*
X58421429Y-49956785D01*
X58326191Y-50004404D01*
X58278572Y-50052023D01*
X58230953Y-50147261D01*
X57802381Y-49052023D02*
X57802381Y-49528214D01*
X58278572Y-49575833D01*
X58230953Y-49528214D01*
X58183334Y-49432976D01*
X58183334Y-49194880D01*
X58230953Y-49099642D01*
X58278572Y-49052023D01*
X58373810Y-49004404D01*
X58611905Y-49004404D01*
X58707143Y-49052023D01*
X58754762Y-49099642D01*
X58802381Y-49194880D01*
X58802381Y-49432976D01*
X58754762Y-49528214D01*
X58707143Y-49575833D01*
X57802381Y-48385357D02*
X57802381Y-48290119D01*
X57850001Y-48194880D01*
X57897620Y-48147261D01*
X57992858Y-48099642D01*
X58183334Y-48052023D01*
X58421429Y-48052023D01*
X58611905Y-48099642D01*
X58707143Y-48147261D01*
X58754762Y-48194880D01*
X58802381Y-48290119D01*
X58802381Y-48385357D01*
X58754762Y-48480595D01*
X58707143Y-48528214D01*
X58611905Y-48575833D01*
X58421429Y-48623452D01*
X58183334Y-48623452D01*
X57992858Y-48575833D01*
X57897620Y-48528214D01*
X57850001Y-48480595D01*
X57802381Y-48385357D01*
X58802381Y-46861547D02*
X58135715Y-46861547D01*
X58230953Y-46861547D02*
X58183334Y-46813928D01*
X58135715Y-46718690D01*
X58135715Y-46575833D01*
X58183334Y-46480595D01*
X58278572Y-46432976D01*
X58802381Y-46432976D01*
X58278572Y-46432976D02*
X58183334Y-46385357D01*
X58135715Y-46290119D01*
X58135715Y-46147261D01*
X58183334Y-46052023D01*
X58278572Y-46004404D01*
X58802381Y-46004404D01*
X58802381Y-45528214D02*
X58135715Y-45528214D01*
X58230953Y-45528214D02*
X58183334Y-45480595D01*
X58135715Y-45385357D01*
X58135715Y-45242500D01*
X58183334Y-45147261D01*
X58278572Y-45099642D01*
X58802381Y-45099642D01*
X58278572Y-45099642D02*
X58183334Y-45052023D01*
X58135715Y-44956785D01*
X58135715Y-44813928D01*
X58183334Y-44718690D01*
X58278572Y-44671071D01*
X58802381Y-44671071D01*
X69500000Y-40000000D02*
X58913581Y-40000000D01*
X69500000Y-58485000D02*
X58913581Y-58485000D01*
X59500001Y-40000000D02*
X59500001Y-58485000D01*
X59500001Y-40000000D02*
X59500001Y-58485000D01*
X59500001Y-40000000D02*
X58913580Y-41126504D01*
X59500001Y-40000000D02*
X60086422Y-41126504D01*
X59500001Y-58485000D02*
X60086422Y-57358496D01*
X59500001Y-58485000D02*
X58913580Y-57358496D01*
X46302380Y-46119047D02*
X46302380Y-46595238D01*
X46778571Y-46642857D01*
X46730952Y-46595238D01*
X46683333Y-46500000D01*
X46683333Y-46261904D01*
X46730952Y-46166666D01*
X46778571Y-46119047D01*
X46873809Y-46071428D01*
X47111904Y-46071428D01*
X47207142Y-46119047D01*
X47254761Y-46166666D01*
X47302380Y-46261904D01*
X47302380Y-46500000D01*
X47254761Y-46595238D01*
X47207142Y-46642857D01*
X47207142Y-45642857D02*
X47254761Y-45595238D01*
X47302380Y-45642857D01*
X47254761Y-45690476D01*
X47207142Y-45642857D01*
X47302380Y-45642857D01*
X46302380Y-44976190D02*
X46302380Y-44880952D01*
X46350000Y-44785714D01*
X46397619Y-44738095D01*
X46492857Y-44690476D01*
X46683333Y-44642857D01*
X46921428Y-44642857D01*
X47111904Y-44690476D01*
X47207142Y-44738095D01*
X47254761Y-44785714D01*
X47302380Y-44880952D01*
X47302380Y-44976190D01*
X47254761Y-45071428D01*
X47207142Y-45119047D01*
X47111904Y-45166666D01*
X46921428Y-45214285D01*
X46683333Y-45214285D01*
X46492857Y-45166666D01*
X46397619Y-45119047D01*
X46350000Y-45071428D01*
X46302380Y-44976190D01*
X46302380Y-44023809D02*
X46302380Y-43928571D01*
X46350000Y-43833333D01*
X46397619Y-43785714D01*
X46492857Y-43738095D01*
X46683333Y-43690476D01*
X46921428Y-43690476D01*
X47111904Y-43738095D01*
X47207142Y-43785714D01*
X47254761Y-43833333D01*
X47302380Y-43928571D01*
X47302380Y-44023809D01*
X47254761Y-44119047D01*
X47207142Y-44166666D01*
X47111904Y-44214285D01*
X46921428Y-44261904D01*
X46683333Y-44261904D01*
X46492857Y-44214285D01*
X46397619Y-44166666D01*
X46350000Y-44119047D01*
X46302380Y-44023809D01*
X46302380Y-43071428D02*
X46302380Y-42976190D01*
X46350000Y-42880952D01*
X46397619Y-42833333D01*
X46492857Y-42785714D01*
X46683333Y-42738095D01*
X46921428Y-42738095D01*
X47111904Y-42785714D01*
X47207142Y-42833333D01*
X47254761Y-42880952D01*
X47302380Y-42976190D01*
X47302380Y-43071428D01*
X47254761Y-43166666D01*
X47207142Y-43214285D01*
X47111904Y-43261904D01*
X46921428Y-43309523D01*
X46683333Y-43309523D01*
X46492857Y-43261904D01*
X46397619Y-43214285D01*
X46350000Y-43166666D01*
X46302380Y-43071428D01*
X46302380Y-42119047D02*
X46302380Y-42023809D01*
X46350000Y-41928571D01*
X46397619Y-41880952D01*
X46492857Y-41833333D01*
X46683333Y-41785714D01*
X46921428Y-41785714D01*
X47111904Y-41833333D01*
X47207142Y-41880952D01*
X47254761Y-41928571D01*
X47302380Y-42023809D01*
X47302380Y-42119047D01*
X47254761Y-42214285D01*
X47207142Y-42261904D01*
X47111904Y-42309523D01*
X46921428Y-42357142D01*
X46683333Y-42357142D01*
X46492857Y-42309523D01*
X46397619Y-42261904D01*
X46350000Y-42214285D01*
X46302380Y-42119047D01*
X47302380Y-40595238D02*
X46635714Y-40595238D01*
X46730952Y-40595238D02*
X46683333Y-40547619D01*
X46635714Y-40452380D01*
X46635714Y-40309523D01*
X46683333Y-40214285D01*
X46778571Y-40166666D01*
X47302380Y-40166666D01*
X46778571Y-40166666D02*
X46683333Y-40119047D01*
X46635714Y-40023809D01*
X46635714Y-39880952D01*
X46683333Y-39785714D01*
X46778571Y-39738095D01*
X47302380Y-39738095D01*
X47302380Y-39261904D02*
X46635714Y-39261904D01*
X46730952Y-39261904D02*
X46683333Y-39214285D01*
X46635714Y-39119047D01*
X46635714Y-38976190D01*
X46683333Y-38880952D01*
X46778571Y-38833333D01*
X47302380Y-38833333D01*
X46778571Y-38833333D02*
X46683333Y-38785714D01*
X46635714Y-38690476D01*
X46635714Y-38547619D01*
X46683333Y-38452380D01*
X46778571Y-38404761D01*
X47302380Y-38404761D01*
X74500000Y-45000000D02*
X47413580Y-45000000D01*
X74500000Y-40000000D02*
X47413580Y-40000000D01*
X48000000Y-45000000D02*
X48000000Y-40000000D01*
X48000000Y-45000000D02*
X48000000Y-40000000D01*
X48000000Y-45000000D02*
X48586421Y-43873496D01*
X48000000Y-45000000D02*
X47413579Y-43873496D01*
X48000000Y-40000000D02*
X47413579Y-41126504D01*
X48000000Y-40000000D02*
X48586421Y-41126504D01*
X68880952Y-25302380D02*
X68404761Y-25302380D01*
X68357142Y-25778571D01*
X68404761Y-25730952D01*
X68500000Y-25683333D01*
X68738095Y-25683333D01*
X68833333Y-25730952D01*
X68880952Y-25778571D01*
X68928571Y-25873809D01*
X68928571Y-26111904D01*
X68880952Y-26207142D01*
X68833333Y-26254761D01*
X68738095Y-26302380D01*
X68500000Y-26302380D01*
X68404761Y-26254761D01*
X68357142Y-26207142D01*
X69357142Y-26207142D02*
X69404761Y-26254761D01*
X69357142Y-26302380D01*
X69309523Y-26254761D01*
X69357142Y-26207142D01*
X69357142Y-26302380D01*
X70023809Y-25302380D02*
X70119047Y-25302380D01*
X70214285Y-25350000D01*
X70261904Y-25397619D01*
X70309523Y-25492857D01*
X70357142Y-25683333D01*
X70357142Y-25921428D01*
X70309523Y-26111904D01*
X70261904Y-26207142D01*
X70214285Y-26254761D01*
X70119047Y-26302380D01*
X70023809Y-26302380D01*
X69928571Y-26254761D01*
X69880952Y-26207142D01*
X69833333Y-26111904D01*
X69785714Y-25921428D01*
X69785714Y-25683333D01*
X69833333Y-25492857D01*
X69880952Y-25397619D01*
X69928571Y-25350000D01*
X70023809Y-25302380D01*
X70976190Y-25302380D02*
X71071428Y-25302380D01*
X71166666Y-25350000D01*
X71214285Y-25397619D01*
X71261904Y-25492857D01*
X71309523Y-25683333D01*
X71309523Y-25921428D01*
X71261904Y-26111904D01*
X71214285Y-26207142D01*
X71166666Y-26254761D01*
X71071428Y-26302380D01*
X70976190Y-26302380D01*
X70880952Y-26254761D01*
X70833333Y-26207142D01*
X70785714Y-26111904D01*
X70738095Y-25921428D01*
X70738095Y-25683333D01*
X70785714Y-25492857D01*
X70833333Y-25397619D01*
X70880952Y-25350000D01*
X70976190Y-25302380D01*
X71928571Y-25302380D02*
X72023809Y-25302380D01*
X72119047Y-25350000D01*
X72166666Y-25397619D01*
X72214285Y-25492857D01*
X72261904Y-25683333D01*
X72261904Y-25921428D01*
X72214285Y-26111904D01*
X72166666Y-26207142D01*
X72119047Y-26254761D01*
X72023809Y-26302380D01*
X71928571Y-26302380D01*
X71833333Y-26254761D01*
X71785714Y-26207142D01*
X71738095Y-26111904D01*
X71690476Y-25921428D01*
X71690476Y-25683333D01*
X71738095Y-25492857D01*
X71785714Y-25397619D01*
X71833333Y-25350000D01*
X71928571Y-25302380D01*
X72880952Y-25302380D02*
X72976190Y-25302380D01*
X73071428Y-25350000D01*
X73119047Y-25397619D01*
X73166666Y-25492857D01*
X73214285Y-25683333D01*
X73214285Y-25921428D01*
X73166666Y-26111904D01*
X73119047Y-26207142D01*
X73071428Y-26254761D01*
X72976190Y-26302380D01*
X72880952Y-26302380D01*
X72785714Y-26254761D01*
X72738095Y-26207142D01*
X72690476Y-26111904D01*
X72642857Y-25921428D01*
X72642857Y-25683333D01*
X72690476Y-25492857D01*
X72738095Y-25397619D01*
X72785714Y-25350000D01*
X72880952Y-25302380D01*
X74404761Y-26302380D02*
X74404761Y-25635714D01*
X74404761Y-25730952D02*
X74452380Y-25683333D01*
X74547619Y-25635714D01*
X74690476Y-25635714D01*
X74785714Y-25683333D01*
X74833333Y-25778571D01*
X74833333Y-26302380D01*
X74833333Y-25778571D02*
X74880952Y-25683333D01*
X74976190Y-25635714D01*
X75119047Y-25635714D01*
X75214285Y-25683333D01*
X75261904Y-25778571D01*
X75261904Y-26302380D01*
X75738095Y-26302380D02*
X75738095Y-25635714D01*
X75738095Y-25730952D02*
X75785714Y-25683333D01*
X75880952Y-25635714D01*
X76023809Y-25635714D01*
X76119047Y-25683333D01*
X76166666Y-25778571D01*
X76166666Y-26302380D01*
X76166666Y-25778571D02*
X76214285Y-25683333D01*
X76309523Y-25635714D01*
X76452380Y-25635714D01*
X76547619Y-25683333D01*
X76595238Y-25778571D01*
X76595238Y-26302380D01*
X75000000Y-44500000D02*
X75000000Y-26413580D01*
X70000000Y-44500000D02*
X70000000Y-26413580D01*
X75000000Y-27000000D02*
X70000000Y-27000000D01*
X75000000Y-27000000D02*
X70000000Y-27000000D01*
X75000000Y-27000000D02*
X73873496Y-26413579D01*
X75000000Y-27000000D02*
X73873496Y-27586421D01*
X70000000Y-27000000D02*
X71126504Y-27586421D01*
X70000000Y-27000000D02*
X71126504Y-26413579D01*
X85857142Y-32635714D02*
X85857142Y-33302380D01*
X85619047Y-32254761D02*
X85380952Y-32969047D01*
X86000000Y-32969047D01*
X86571428Y-32302380D02*
X86666666Y-32302380D01*
X86761904Y-32350000D01*
X86809523Y-32397619D01*
X86857142Y-32492857D01*
X86904761Y-32683333D01*
X86904761Y-32921428D01*
X86857142Y-33111904D01*
X86809523Y-33207142D01*
X86761904Y-33254761D01*
X86666666Y-33302380D01*
X86571428Y-33302380D01*
X86476190Y-33254761D01*
X86428571Y-33207142D01*
X86380952Y-33111904D01*
X86333333Y-32921428D01*
X86333333Y-32683333D01*
X86380952Y-32492857D01*
X86428571Y-32397619D01*
X86476190Y-32350000D01*
X86571428Y-32302380D01*
X87333333Y-33207142D02*
X87380952Y-33254761D01*
X87333333Y-33302380D01*
X87285714Y-33254761D01*
X87333333Y-33207142D01*
X87333333Y-33302380D01*
X88000000Y-32302380D02*
X88095238Y-32302380D01*
X88190476Y-32350000D01*
X88238095Y-32397619D01*
X88285714Y-32492857D01*
X88333333Y-32683333D01*
X88333333Y-32921428D01*
X88285714Y-33111904D01*
X88238095Y-33207142D01*
X88190476Y-33254761D01*
X88095238Y-33302380D01*
X88000000Y-33302380D01*
X87904761Y-33254761D01*
X87857142Y-33207142D01*
X87809523Y-33111904D01*
X87761904Y-32921428D01*
X87761904Y-32683333D01*
X87809523Y-32492857D01*
X87857142Y-32397619D01*
X87904761Y-32350000D01*
X88000000Y-32302380D01*
X88952380Y-32302380D02*
X89047619Y-32302380D01*
X89142857Y-32350000D01*
X89190476Y-32397619D01*
X89238095Y-32492857D01*
X89285714Y-32683333D01*
X89285714Y-32921428D01*
X89238095Y-33111904D01*
X89190476Y-33207142D01*
X89142857Y-33254761D01*
X89047619Y-33302380D01*
X88952380Y-33302380D01*
X88857142Y-33254761D01*
X88809523Y-33207142D01*
X88761904Y-33111904D01*
X88714285Y-32921428D01*
X88714285Y-32683333D01*
X88761904Y-32492857D01*
X88809523Y-32397619D01*
X88857142Y-32350000D01*
X88952380Y-32302380D01*
X89904761Y-32302380D02*
X90000000Y-32302380D01*
X90095238Y-32350000D01*
X90142857Y-32397619D01*
X90190476Y-32492857D01*
X90238095Y-32683333D01*
X90238095Y-32921428D01*
X90190476Y-33111904D01*
X90142857Y-33207142D01*
X90095238Y-33254761D01*
X90000000Y-33302380D01*
X89904761Y-33302380D01*
X89809523Y-33254761D01*
X89761904Y-33207142D01*
X89714285Y-33111904D01*
X89666666Y-32921428D01*
X89666666Y-32683333D01*
X89714285Y-32492857D01*
X89761904Y-32397619D01*
X89809523Y-32350000D01*
X89904761Y-32302380D01*
X90857142Y-32302380D02*
X90952380Y-32302380D01*
X91047619Y-32350000D01*
X91095238Y-32397619D01*
X91142857Y-32492857D01*
X91190476Y-32683333D01*
X91190476Y-32921428D01*
X91142857Y-33111904D01*
X91095238Y-33207142D01*
X91047619Y-33254761D01*
X90952380Y-33302380D01*
X90857142Y-33302380D01*
X90761904Y-33254761D01*
X90714285Y-33207142D01*
X90666666Y-33111904D01*
X90619047Y-32921428D01*
X90619047Y-32683333D01*
X90666666Y-32492857D01*
X90714285Y-32397619D01*
X90761904Y-32350000D01*
X90857142Y-32302380D01*
X92380952Y-33302380D02*
X92380952Y-32635714D01*
X92380952Y-32730952D02*
X92428571Y-32683333D01*
X92523809Y-32635714D01*
X92666666Y-32635714D01*
X92761904Y-32683333D01*
X92809523Y-32778571D01*
X92809523Y-33302380D01*
X92809523Y-32778571D02*
X92857142Y-32683333D01*
X92952380Y-32635714D01*
X93095238Y-32635714D01*
X93190476Y-32683333D01*
X93238095Y-32778571D01*
X93238095Y-33302380D01*
X93714285Y-33302380D02*
X93714285Y-32635714D01*
X93714285Y-32730952D02*
X93761904Y-32683333D01*
X93857142Y-32635714D01*
X94000000Y-32635714D01*
X94095238Y-32683333D01*
X94142857Y-32778571D01*
X94142857Y-33302380D01*
X94142857Y-32778571D02*
X94190476Y-32683333D01*
X94285714Y-32635714D01*
X94428571Y-32635714D01*
X94523809Y-32683333D01*
X94571428Y-32778571D01*
X94571428Y-33302380D01*
X70000000Y-39500000D02*
X70000000Y-33413580D01*
X110000000Y-39500000D02*
X110000000Y-33413580D01*
X70000000Y-34000000D02*
X110000000Y-34000000D01*
X70000000Y-34000000D02*
X110000000Y-34000000D01*
X70000000Y-34000000D02*
X71126504Y-34586421D01*
X70000000Y-34000000D02*
X71126504Y-33413579D01*
X110000000Y-34000000D02*
X108873496Y-33413579D01*
X110000000Y-34000000D02*
X108873496Y-34586421D01*
X53302381Y-119523809D02*
X53302381Y-120095238D01*
X53302381Y-119809523D02*
X52302381Y-119809523D01*
X52445239Y-119904761D01*
X52540477Y-120000000D01*
X52588096Y-120095238D01*
X52302381Y-118619047D02*
X52302381Y-119095238D01*
X52778572Y-119142857D01*
X52730953Y-119095238D01*
X52683334Y-119000000D01*
X52683334Y-118761904D01*
X52730953Y-118666666D01*
X52778572Y-118619047D01*
X52873810Y-118571428D01*
X53111905Y-118571428D01*
X53207143Y-118619047D01*
X53254762Y-118666666D01*
X53302381Y-118761904D01*
X53302381Y-119000000D01*
X53254762Y-119095238D01*
X53207143Y-119142857D01*
X52302381Y-117952380D02*
X52302381Y-117857142D01*
X52350001Y-117761904D01*
X52397620Y-117714285D01*
X52492858Y-117666666D01*
X52683334Y-117619047D01*
X52921429Y-117619047D01*
X53111905Y-117666666D01*
X53207143Y-117714285D01*
X53254762Y-117761904D01*
X53302381Y-117857142D01*
X53302381Y-117952380D01*
X53254762Y-118047619D01*
X53207143Y-118095238D01*
X53111905Y-118142857D01*
X52921429Y-118190476D01*
X52683334Y-118190476D01*
X52492858Y-118142857D01*
X52397620Y-118095238D01*
X52350001Y-118047619D01*
X52302381Y-117952380D01*
X53207143Y-117190476D02*
X53254762Y-117142857D01*
X53302381Y-117190476D01*
X53254762Y-117238095D01*
X53207143Y-117190476D01*
X53302381Y-117190476D01*
X52302381Y-116523809D02*
X52302381Y-116428571D01*
X52350001Y-116333333D01*
X52397620Y-116285714D01*
X52492858Y-116238095D01*
X52683334Y-116190476D01*
X52921429Y-116190476D01*
X53111905Y-116238095D01*
X53207143Y-116285714D01*
X53254762Y-116333333D01*
X53302381Y-116428571D01*
X53302381Y-116523809D01*
X53254762Y-116619047D01*
X53207143Y-116666666D01*
X53111905Y-116714285D01*
X52921429Y-116761904D01*
X52683334Y-116761904D01*
X52492858Y-116714285D01*
X52397620Y-116666666D01*
X52350001Y-116619047D01*
X52302381Y-116523809D01*
X52302381Y-115571428D02*
X52302381Y-115476190D01*
X52350001Y-115380952D01*
X52397620Y-115333333D01*
X52492858Y-115285714D01*
X52683334Y-115238095D01*
X52921429Y-115238095D01*
X53111905Y-115285714D01*
X53207143Y-115333333D01*
X53254762Y-115380952D01*
X53302381Y-115476190D01*
X53302381Y-115571428D01*
X53254762Y-115666666D01*
X53207143Y-115714285D01*
X53111905Y-115761904D01*
X52921429Y-115809523D01*
X52683334Y-115809523D01*
X52492858Y-115761904D01*
X52397620Y-115714285D01*
X52350001Y-115666666D01*
X52302381Y-115571428D01*
X52302381Y-114619047D02*
X52302381Y-114523809D01*
X52350001Y-114428571D01*
X52397620Y-114380952D01*
X52492858Y-114333333D01*
X52683334Y-114285714D01*
X52921429Y-114285714D01*
X53111905Y-114333333D01*
X53207143Y-114380952D01*
X53254762Y-114428571D01*
X53302381Y-114523809D01*
X53302381Y-114619047D01*
X53254762Y-114714285D01*
X53207143Y-114761904D01*
X53111905Y-114809523D01*
X52921429Y-114857142D01*
X52683334Y-114857142D01*
X52492858Y-114809523D01*
X52397620Y-114761904D01*
X52350001Y-114714285D01*
X52302381Y-114619047D01*
X52302381Y-113666666D02*
X52302381Y-113571428D01*
X52350001Y-113476190D01*
X52397620Y-113428571D01*
X52492858Y-113380952D01*
X52683334Y-113333333D01*
X52921429Y-113333333D01*
X53111905Y-113380952D01*
X53207143Y-113428571D01*
X53254762Y-113476190D01*
X53302381Y-113571428D01*
X53302381Y-113666666D01*
X53254762Y-113761904D01*
X53207143Y-113809523D01*
X53111905Y-113857142D01*
X52921429Y-113904761D01*
X52683334Y-113904761D01*
X52492858Y-113857142D01*
X52397620Y-113809523D01*
X52350001Y-113761904D01*
X52302381Y-113666666D01*
X53302381Y-112142857D02*
X52635715Y-112142857D01*
X52730953Y-112142857D02*
X52683334Y-112095238D01*
X52635715Y-112000000D01*
X52635715Y-111857142D01*
X52683334Y-111761904D01*
X52778572Y-111714285D01*
X53302381Y-111714285D01*
X52778572Y-111714285D02*
X52683334Y-111666666D01*
X52635715Y-111571428D01*
X52635715Y-111428571D01*
X52683334Y-111333333D01*
X52778572Y-111285714D01*
X53302381Y-111285714D01*
X53302381Y-110809523D02*
X52635715Y-110809523D01*
X52730953Y-110809523D02*
X52683334Y-110761904D01*
X52635715Y-110666666D01*
X52635715Y-110523809D01*
X52683334Y-110428571D01*
X52778572Y-110380952D01*
X53302381Y-110380952D01*
X52778572Y-110380952D02*
X52683334Y-110333333D01*
X52635715Y-110238095D01*
X52635715Y-110095238D01*
X52683334Y-110000000D01*
X52778572Y-109952380D01*
X53302381Y-109952380D01*
X69500000Y-40000000D02*
X53413581Y-40000000D01*
X69500000Y-190000000D02*
X53413581Y-190000000D01*
X54000001Y-40000000D02*
X54000001Y-190000000D01*
X54000001Y-40000000D02*
X54000001Y-190000000D01*
X54000001Y-40000000D02*
X53413580Y-41126504D01*
X54000001Y-40000000D02*
X54586422Y-41126504D01*
X54000001Y-190000000D02*
X54586422Y-188873496D01*
X54000001Y-190000000D02*
X53413580Y-188873496D01*
X57897620Y-74407047D02*
X57850001Y-74359428D01*
X57802381Y-74264190D01*
X57802381Y-74026095D01*
X57850001Y-73930857D01*
X57897620Y-73883238D01*
X57992858Y-73835619D01*
X58088096Y-73835619D01*
X58230953Y-73883238D01*
X58802381Y-74454666D01*
X58802381Y-73835619D01*
X57897620Y-73454666D02*
X57850001Y-73407047D01*
X57802381Y-73311809D01*
X57802381Y-73073714D01*
X57850001Y-72978476D01*
X57897620Y-72930857D01*
X57992858Y-72883238D01*
X58088096Y-72883238D01*
X58230953Y-72930857D01*
X58802381Y-73502285D01*
X58802381Y-72883238D01*
X58707143Y-72454666D02*
X58754762Y-72407047D01*
X58802381Y-72454666D01*
X58754762Y-72502285D01*
X58707143Y-72454666D01*
X58802381Y-72454666D01*
X57802381Y-71549904D02*
X57802381Y-71740380D01*
X57850001Y-71835619D01*
X57897620Y-71883238D01*
X58040477Y-71978476D01*
X58230953Y-72026095D01*
X58611905Y-72026095D01*
X58707143Y-71978476D01*
X58754762Y-71930857D01*
X58802381Y-71835619D01*
X58802381Y-71645142D01*
X58754762Y-71549904D01*
X58707143Y-71502285D01*
X58611905Y-71454666D01*
X58373810Y-71454666D01*
X58278572Y-71502285D01*
X58230953Y-71549904D01*
X58183334Y-71645142D01*
X58183334Y-71835619D01*
X58230953Y-71930857D01*
X58278572Y-71978476D01*
X58373810Y-72026095D01*
X57802381Y-70835619D02*
X57802381Y-70740380D01*
X57850001Y-70645142D01*
X57897620Y-70597523D01*
X57992858Y-70549904D01*
X58183334Y-70502285D01*
X58421429Y-70502285D01*
X58611905Y-70549904D01*
X58707143Y-70597523D01*
X58754762Y-70645142D01*
X58802381Y-70740380D01*
X58802381Y-70835619D01*
X58754762Y-70930857D01*
X58707143Y-70978476D01*
X58611905Y-71026095D01*
X58421429Y-71073714D01*
X58183334Y-71073714D01*
X57992858Y-71026095D01*
X57897620Y-70978476D01*
X57850001Y-70930857D01*
X57802381Y-70835619D01*
X57802381Y-69645142D02*
X57802381Y-69835619D01*
X57850001Y-69930857D01*
X57897620Y-69978476D01*
X58040477Y-70073714D01*
X58230953Y-70121333D01*
X58611905Y-70121333D01*
X58707143Y-70073714D01*
X58754762Y-70026095D01*
X58802381Y-69930857D01*
X58802381Y-69740380D01*
X58754762Y-69645142D01*
X58707143Y-69597523D01*
X58611905Y-69549904D01*
X58373810Y-69549904D01*
X58278572Y-69597523D01*
X58230953Y-69645142D01*
X58183334Y-69740380D01*
X58183334Y-69930857D01*
X58230953Y-70026095D01*
X58278572Y-70073714D01*
X58373810Y-70121333D01*
X57802381Y-68930857D02*
X57802381Y-68835619D01*
X57850001Y-68740380D01*
X57897620Y-68692761D01*
X57992858Y-68645142D01*
X58183334Y-68597523D01*
X58421429Y-68597523D01*
X58611905Y-68645142D01*
X58707143Y-68692761D01*
X58754762Y-68740380D01*
X58802381Y-68835619D01*
X58802381Y-68930857D01*
X58754762Y-69026095D01*
X58707143Y-69073714D01*
X58611905Y-69121333D01*
X58421429Y-69168952D01*
X58183334Y-69168952D01*
X57992858Y-69121333D01*
X57897620Y-69073714D01*
X57850001Y-69026095D01*
X57802381Y-68930857D01*
X58802381Y-67407047D02*
X58135715Y-67407047D01*
X58230953Y-67407047D02*
X58183334Y-67359428D01*
X58135715Y-67264190D01*
X58135715Y-67121333D01*
X58183334Y-67026095D01*
X58278572Y-66978476D01*
X58802381Y-66978476D01*
X58278572Y-66978476D02*
X58183334Y-66930857D01*
X58135715Y-66835619D01*
X58135715Y-66692761D01*
X58183334Y-66597523D01*
X58278572Y-66549904D01*
X58802381Y-66549904D01*
X58802381Y-66073714D02*
X58135715Y-66073714D01*
X58230953Y-66073714D02*
X58183334Y-66026095D01*
X58135715Y-65930857D01*
X58135715Y-65788000D01*
X58183334Y-65692761D01*
X58278572Y-65645142D01*
X58802381Y-65645142D01*
X58278572Y-65645142D02*
X58183334Y-65597523D01*
X58135715Y-65502285D01*
X58135715Y-65359428D01*
X58183334Y-65264190D01*
X58278572Y-65216571D01*
X58802381Y-65216571D01*
X69500000Y-58485000D02*
X58913581Y-58485000D01*
X69500000Y-81091000D02*
X58913581Y-81091000D01*
X59500001Y-58485000D02*
X59500001Y-81091000D01*
X59500001Y-58485000D02*
X59500001Y-81091000D01*
X59500001Y-58485000D02*
X58913580Y-59611504D01*
X59500001Y-58485000D02*
X60086422Y-59611504D01*
X59500001Y-81091000D02*
X60086422Y-79964496D01*
X59500001Y-81091000D02*
X58913580Y-79964496D01*
%TO.C,H4*%
X77800000Y-185000000D02*
G75*
G03*
X77800000Y-185000000I-2800000J0D01*
G01*
%TO.C,H3*%
X107800000Y-185000000D02*
G75*
G03*
X107800000Y-185000000I-2800000J0D01*
G01*
%TO.C,H2*%
X107800000Y-45000000D02*
G75*
G03*
X107800000Y-45000000I-2800000J0D01*
G01*
%TO.C,H1*%
X77800000Y-45000000D02*
G75*
G03*
X77800000Y-45000000I-2800000J0D01*
G01*
%TD*%
M02*
