M48
; DRILL file {KiCad 6.0.8-2.fc36} date Thu 20 Oct 2022 17:48:18 BST
; FORMAT={-:-/ absolute / metric / decimal}
; #@! TF.CreationDate,2022-10-20T17:48:18+01:00
; #@! TF.GenerationSoftware,Kicad,Pcbnew,6.0.8-2.fc36
; #@! TF.FileFunction,Plated,1,2,PTH
FMAT,2
METRIC
; #@! TA.AperFunction,Plated,PTH,ViaDrill
T1C0.400
; #@! TA.AperFunction,Plated,PTH,ComponentDrill
T2C0.500
; #@! TA.AperFunction,Plated,PTH,ComponentDrill
T3C0.800
; #@! TA.AperFunction,Plated,PTH,ComponentDrill
T4C0.900
; #@! TA.AperFunction,Plated,PTH,ComponentDrill
T5C3.200
%
G90
G05
T1
X81.864Y-60.509
X81.864Y-83.115
X81.864Y-105.721
X81.864Y-128.327
X81.864Y-150.933
X81.864Y-173.539
X81.87Y-61.971
X81.87Y-84.577
X81.87Y-107.183
X81.87Y-129.789
X81.87Y-152.395
X81.87Y-175.001
X81.873Y-58.975
X81.873Y-81.581
X81.873Y-104.187
X81.873Y-126.793
X81.873Y-149.399
X81.873Y-172.005
X81.878Y-63.482
X81.878Y-86.088
X81.878Y-108.694
X81.878Y-131.3
X81.878Y-153.906
X81.878Y-176.512
X85.6Y-56.65
X85.6Y-79.256
X85.6Y-101.862
X85.6Y-124.468
X85.6Y-147.074
X85.6Y-169.68
X101.333Y-58.99
X101.333Y-81.596
X101.333Y-104.202
X101.333Y-126.808
X101.333Y-149.414
X101.333Y-172.02
X101.335Y-57.478
X101.335Y-80.084
X101.335Y-102.69
X101.335Y-125.296
X101.335Y-147.902
X101.335Y-170.508
X101.341Y-55.969
X101.341Y-78.575
X101.341Y-101.181
X101.341Y-123.787
X101.341Y-146.393
X101.341Y-168.999
X101.343Y-54.466
X101.343Y-77.072
X101.343Y-99.678
X101.343Y-122.284
X101.343Y-144.89
X101.343Y-167.496
T2
X87.85Y-55.4
X87.85Y-78.006
X87.85Y-100.612
X87.85Y-123.218
X87.85Y-145.824
X87.85Y-168.43
X88.85Y-65.65
X88.85Y-68.15
X88.85Y-70.15
X88.85Y-88.256
X88.85Y-90.756
X88.85Y-92.756
X88.85Y-110.862
X88.85Y-113.362
X88.85Y-115.362
X88.85Y-133.468
X88.85Y-135.968
X88.85Y-137.968
X88.85Y-156.074
X88.85Y-158.574
X88.85Y-160.574
X88.85Y-178.68
X88.85Y-181.18
X88.85Y-183.18
X89.85Y-55.4
X89.85Y-78.006
X89.85Y-100.612
X89.85Y-123.218
X89.85Y-145.824
X89.85Y-168.43
X90.1Y-57.9
X90.1Y-80.506
X90.1Y-103.112
X90.1Y-125.718
X90.1Y-148.324
X90.1Y-170.93
X91.1Y-52.15
X91.1Y-74.756
X91.1Y-97.362
X91.1Y-119.968
X91.1Y-142.574
X91.1Y-165.18
X92.1Y-57.9
X92.1Y-60.4
X92.1Y-62.9
X92.1Y-80.506
X92.1Y-83.006
X92.1Y-85.506
X92.1Y-103.112
X92.1Y-105.612
X92.1Y-108.112
X92.1Y-125.718
X92.1Y-128.218
X92.1Y-130.718
X92.1Y-148.324
X92.1Y-150.824
X92.1Y-153.324
X92.1Y-170.93
X92.1Y-173.43
X92.1Y-175.93
X94.1Y-60.4
X94.1Y-62.9
X94.1Y-83.006
X94.1Y-85.506
X94.1Y-105.612
X94.1Y-108.112
X94.1Y-128.218
X94.1Y-130.718
X94.1Y-150.824
X94.1Y-153.324
X94.1Y-173.43
X94.1Y-175.93
T5
X75.0Y-45.0
X75.0Y-185.0
X105.0Y-45.0
X105.0Y-185.0
T3
G00X74.63Y-50.235
M15
G01X73.73Y-50.235
M16
G05
G00X74.63Y-66.735
M15
G01X73.73Y-66.735
M16
G05
G00X74.63Y-72.841
M15
G01X73.73Y-72.841
M16
G05
G00X74.63Y-89.341
M15
G01X73.73Y-89.341
M16
G05
G00X74.63Y-95.447
M15
G01X73.73Y-95.447
M16
G05
G00X74.63Y-111.947
M15
G01X73.73Y-111.947
M16
G05
G00X74.63Y-118.053
M15
G01X73.73Y-118.053
M16
G05
G00X74.63Y-134.553
M15
G01X73.73Y-134.553
M16
G05
G00X74.63Y-140.659
M15
G01X73.73Y-140.659
M16
G05
G00X74.63Y-157.159
M15
G01X73.73Y-157.159
M16
G05
G00X74.63Y-163.265
M15
G01X73.73Y-163.265
M16
G05
G00X74.63Y-179.765
M15
G01X73.73Y-179.765
M16
G05
G00X81.66Y-50.235
M15
G01X80.26Y-50.235
M16
G05
G00X81.66Y-66.735
M15
G01X80.26Y-66.735
M16
G05
G00X81.66Y-72.841
M15
G01X80.26Y-72.841
M16
G05
G00X81.66Y-89.341
M15
G01X80.26Y-89.341
M16
G05
G00X81.66Y-95.447
M15
G01X80.26Y-95.447
M16
G05
G00X81.66Y-111.947
M15
G01X80.26Y-111.947
M16
G05
G00X81.66Y-118.053
M15
G01X80.26Y-118.053
M16
G05
G00X81.66Y-134.553
M15
G01X80.26Y-134.553
M16
G05
G00X81.66Y-140.659
M15
G01X80.26Y-140.659
M16
G05
G00X81.66Y-157.159
M15
G01X80.26Y-157.159
M16
G05
G00X81.66Y-163.265
M15
G01X80.26Y-163.265
M16
G05
G00X81.66Y-179.765
M15
G01X80.26Y-179.765
M16
G05
T4
G00X99.4Y-51.235
M15
G01X101.2Y-51.235
M16
G05
G00X99.4Y-65.735
M15
G01X101.2Y-65.735
M16
G05
G00X99.4Y-73.841
M15
G01X101.2Y-73.841
M16
G05
G00X99.4Y-88.341
M15
G01X101.2Y-88.341
M16
G05
G00X99.4Y-96.447
M15
G01X101.2Y-96.447
M16
G05
G00X99.4Y-110.947
M15
G01X101.2Y-110.947
M16
G05
G00X99.4Y-119.053
M15
G01X101.2Y-119.053
M16
G05
G00X99.4Y-133.553
M15
G01X101.2Y-133.553
M16
G05
G00X99.4Y-141.659
M15
G01X101.2Y-141.659
M16
G05
G00X99.4Y-156.159
M15
G01X101.2Y-156.159
M16
G05
G00X99.4Y-164.265
M15
G01X101.2Y-164.265
M16
G05
G00X99.4Y-178.765
M15
G01X101.2Y-178.765
M16
G05
G00X105.66Y-51.235
M15
G01X106.86Y-51.235
M16
G05
G00X105.66Y-65.735
M15
G01X106.86Y-65.735
M16
G05
G00X105.66Y-73.841
M15
G01X106.86Y-73.841
M16
G05
G00X105.66Y-88.341
M15
G01X106.86Y-88.341
M16
G05
G00X105.66Y-96.447
M15
G01X106.86Y-96.447
M16
G05
G00X105.66Y-110.947
M15
G01X106.86Y-110.947
M16
G05
G00X105.66Y-119.053
M15
G01X106.86Y-119.053
M16
G05
G00X105.66Y-133.553
M15
G01X106.86Y-133.553
M16
G05
G00X105.66Y-141.659
M15
G01X106.86Y-141.659
M16
G05
G00X105.66Y-156.159
M15
G01X106.86Y-156.159
M16
G05
G00X105.66Y-164.265
M15
G01X106.86Y-164.265
M16
G05
G00X105.66Y-178.765
M15
G01X106.86Y-178.765
M16
G05
T0
M30
