%TF.GenerationSoftware,KiCad,Pcbnew,6.0.7-1.fc36*%
%TF.CreationDate,2022-07-28T15:58:56+01:00*%
%TF.ProjectId,pc070_aida_hdmi_dp,70633037-305f-4616-9964-615f68646d69,rev?*%
%TF.SameCoordinates,Original*%
%TF.FileFunction,Paste,Top*%
%TF.FilePolarity,Positive*%
%FSLAX46Y46*%
G04 Gerber Fmt 4.6, Leading zero omitted, Abs format (unit mm)*
G04 Created by KiCad (PCBNEW 6.0.7-1.fc36) date 2022-07-28 15:58:56*
%MOMM*%
%LPD*%
G01*
G04 APERTURE LIST*
%ADD10R,2.350000X0.280000*%
%ADD11R,2.400000X0.280000*%
G04 APERTURE END LIST*
D10*
%TO.C,J6*%
X99675000Y-99197000D03*
X99675000Y-99697000D03*
X99675000Y-100197000D03*
X99675000Y-100697000D03*
X99675000Y-101197000D03*
X99675000Y-101697000D03*
X99675000Y-102197000D03*
X99675000Y-102697000D03*
X99675000Y-103197000D03*
X99675000Y-103697000D03*
X99675000Y-104197000D03*
X99675000Y-104697000D03*
X99675000Y-105197000D03*
X99675000Y-105697000D03*
X99675000Y-106197000D03*
X99675000Y-106697000D03*
X99675000Y-107197000D03*
X99675000Y-107697000D03*
X99675000Y-108197000D03*
%TD*%
%TO.C,J8*%
X99675000Y-121803000D03*
X99675000Y-122303000D03*
X99675000Y-122803000D03*
X99675000Y-123303000D03*
X99675000Y-123803000D03*
X99675000Y-124303000D03*
X99675000Y-124803000D03*
X99675000Y-125303000D03*
X99675000Y-125803000D03*
X99675000Y-126303000D03*
X99675000Y-126803000D03*
X99675000Y-127303000D03*
X99675000Y-127803000D03*
X99675000Y-128303000D03*
X99675000Y-128803000D03*
X99675000Y-129303000D03*
X99675000Y-129803000D03*
X99675000Y-130303000D03*
X99675000Y-130803000D03*
%TD*%
D11*
%TO.C,J7*%
X83560000Y-131803000D03*
X83560000Y-131303000D03*
X83560000Y-130803000D03*
X83560000Y-130303000D03*
X83560000Y-129803000D03*
X83560000Y-129303000D03*
X83560000Y-128803000D03*
X83560000Y-128303000D03*
X83560000Y-127803000D03*
X83560000Y-127303000D03*
X83560000Y-126803000D03*
X83560000Y-126303000D03*
X83560000Y-125803000D03*
X83560000Y-125303000D03*
X83560000Y-124803000D03*
X83560000Y-124303000D03*
X83560000Y-123803000D03*
X83560000Y-123303000D03*
X83560000Y-122803000D03*
X83560000Y-122303000D03*
%TD*%
D10*
%TO.C,J2*%
X99675000Y-53985000D03*
X99675000Y-54485000D03*
X99675000Y-54985000D03*
X99675000Y-55485000D03*
X99675000Y-55985000D03*
X99675000Y-56485000D03*
X99675000Y-56985000D03*
X99675000Y-57485000D03*
X99675000Y-57985000D03*
X99675000Y-58485000D03*
X99675000Y-58985000D03*
X99675000Y-59485000D03*
X99675000Y-59985000D03*
X99675000Y-60485000D03*
X99675000Y-60985000D03*
X99675000Y-61485000D03*
X99675000Y-61985000D03*
X99675000Y-62485000D03*
X99675000Y-62985000D03*
%TD*%
D11*
%TO.C,J9*%
X83560000Y-154409000D03*
X83560000Y-153909000D03*
X83560000Y-153409000D03*
X83560000Y-152909000D03*
X83560000Y-152409000D03*
X83560000Y-151909000D03*
X83560000Y-151409000D03*
X83560000Y-150909000D03*
X83560000Y-150409000D03*
X83560000Y-149909000D03*
X83560000Y-149409000D03*
X83560000Y-148909000D03*
X83560000Y-148409000D03*
X83560000Y-147909000D03*
X83560000Y-147409000D03*
X83560000Y-146909000D03*
X83560000Y-146409000D03*
X83560000Y-145909000D03*
X83560000Y-145409000D03*
X83560000Y-144909000D03*
%TD*%
D10*
%TO.C,J4*%
X99675000Y-76591000D03*
X99675000Y-77091000D03*
X99675000Y-77591000D03*
X99675000Y-78091000D03*
X99675000Y-78591000D03*
X99675000Y-79091000D03*
X99675000Y-79591000D03*
X99675000Y-80091000D03*
X99675000Y-80591000D03*
X99675000Y-81091000D03*
X99675000Y-81591000D03*
X99675000Y-82091000D03*
X99675000Y-82591000D03*
X99675000Y-83091000D03*
X99675000Y-83591000D03*
X99675000Y-84091000D03*
X99675000Y-84591000D03*
X99675000Y-85091000D03*
X99675000Y-85591000D03*
%TD*%
%TO.C,J10*%
X99675000Y-144409000D03*
X99675000Y-144909000D03*
X99675000Y-145409000D03*
X99675000Y-145909000D03*
X99675000Y-146409000D03*
X99675000Y-146909000D03*
X99675000Y-147409000D03*
X99675000Y-147909000D03*
X99675000Y-148409000D03*
X99675000Y-148909000D03*
X99675000Y-149409000D03*
X99675000Y-149909000D03*
X99675000Y-150409000D03*
X99675000Y-150909000D03*
X99675000Y-151409000D03*
X99675000Y-151909000D03*
X99675000Y-152409000D03*
X99675000Y-152909000D03*
X99675000Y-153409000D03*
%TD*%
%TO.C,J12*%
X99675000Y-167015000D03*
X99675000Y-167515000D03*
X99675000Y-168015000D03*
X99675000Y-168515000D03*
X99675000Y-169015000D03*
X99675000Y-169515000D03*
X99675000Y-170015000D03*
X99675000Y-170515000D03*
X99675000Y-171015000D03*
X99675000Y-171515000D03*
X99675000Y-172015000D03*
X99675000Y-172515000D03*
X99675000Y-173015000D03*
X99675000Y-173515000D03*
X99675000Y-174015000D03*
X99675000Y-174515000D03*
X99675000Y-175015000D03*
X99675000Y-175515000D03*
X99675000Y-176015000D03*
%TD*%
D11*
%TO.C,J1*%
X83560000Y-63985000D03*
X83560000Y-63485000D03*
X83560000Y-62985000D03*
X83560000Y-62485000D03*
X83560000Y-61985000D03*
X83560000Y-61485000D03*
X83560000Y-60985000D03*
X83560000Y-60485000D03*
X83560000Y-59985000D03*
X83560000Y-59485000D03*
X83560000Y-58985000D03*
X83560000Y-58485000D03*
X83560000Y-57985000D03*
X83560000Y-57485000D03*
X83560000Y-56985000D03*
X83560000Y-56485000D03*
X83560000Y-55985000D03*
X83560000Y-55485000D03*
X83560000Y-54985000D03*
X83560000Y-54485000D03*
%TD*%
%TO.C,J3*%
X83560000Y-86591000D03*
X83560000Y-86091000D03*
X83560000Y-85591000D03*
X83560000Y-85091000D03*
X83560000Y-84591000D03*
X83560000Y-84091000D03*
X83560000Y-83591000D03*
X83560000Y-83091000D03*
X83560000Y-82591000D03*
X83560000Y-82091000D03*
X83560000Y-81591000D03*
X83560000Y-81091000D03*
X83560000Y-80591000D03*
X83560000Y-80091000D03*
X83560000Y-79591000D03*
X83560000Y-79091000D03*
X83560000Y-78591000D03*
X83560000Y-78091000D03*
X83560000Y-77591000D03*
X83560000Y-77091000D03*
%TD*%
%TO.C,J5*%
X83560000Y-109197000D03*
X83560000Y-108697000D03*
X83560000Y-108197000D03*
X83560000Y-107697000D03*
X83560000Y-107197000D03*
X83560000Y-106697000D03*
X83560000Y-106197000D03*
X83560000Y-105697000D03*
X83560000Y-105197000D03*
X83560000Y-104697000D03*
X83560000Y-104197000D03*
X83560000Y-103697000D03*
X83560000Y-103197000D03*
X83560000Y-102697000D03*
X83560000Y-102197000D03*
X83560000Y-101697000D03*
X83560000Y-101197000D03*
X83560000Y-100697000D03*
X83560000Y-100197000D03*
X83560000Y-99697000D03*
%TD*%
%TO.C,J11*%
X83560000Y-177015000D03*
X83560000Y-176515000D03*
X83560000Y-176015000D03*
X83560000Y-175515000D03*
X83560000Y-175015000D03*
X83560000Y-174515000D03*
X83560000Y-174015000D03*
X83560000Y-173515000D03*
X83560000Y-173015000D03*
X83560000Y-172515000D03*
X83560000Y-172015000D03*
X83560000Y-171515000D03*
X83560000Y-171015000D03*
X83560000Y-170515000D03*
X83560000Y-170015000D03*
X83560000Y-169515000D03*
X83560000Y-169015000D03*
X83560000Y-168515000D03*
X83560000Y-168015000D03*
X83560000Y-167515000D03*
%TD*%
M02*
