M48
; DRILL file {KiCad 6.0.7-5.fc36} date Fri 30 Sep 2022 15:57:35 BST
; FORMAT={-:-/ absolute / metric / decimal}
; #@! TF.CreationDate,2022-09-30T15:57:35+01:00
; #@! TF.GenerationSoftware,Kicad,Pcbnew,6.0.7-5.fc36
; #@! TF.FileFunction,Plated,1,2,PTH
FMAT,2
METRIC
; #@! TA.AperFunction,Plated,PTH,ViaDrill
T1C0.400
; #@! TA.AperFunction,Plated,PTH,ComponentDrill
T2C0.600
; #@! TA.AperFunction,Plated,PTH,ComponentDrill
T3C0.900
; #@! TA.AperFunction,Plated,PTH,ComponentDrill
T4C3.200
%
G90
G05
T1
X81.768Y-55.721
X81.768Y-78.327
X81.768Y-100.933
X81.768Y-123.539
X81.768Y-146.145
X81.768Y-168.751
X81.864Y-60.509
X81.864Y-83.115
X81.864Y-105.721
X81.864Y-128.327
X81.864Y-150.933
X81.864Y-173.539
X81.87Y-61.971
X81.87Y-84.577
X81.87Y-107.183
X81.87Y-129.789
X81.87Y-152.395
X81.87Y-175.001
X81.873Y-58.975
X81.873Y-81.581
X81.873Y-104.187
X81.873Y-126.793
X81.873Y-149.399
X81.873Y-172.005
X81.878Y-63.482
X81.878Y-86.088
X81.878Y-108.694
X81.878Y-131.3
X81.878Y-153.906
X81.878Y-176.512
X101.333Y-61.48
X101.333Y-84.086
X101.333Y-106.692
X101.333Y-129.298
X101.333Y-151.904
X101.333Y-174.51
X101.333Y-58.99
X101.333Y-81.596
X101.333Y-104.202
X101.333Y-126.808
X101.333Y-149.414
X101.333Y-172.02
X101.335Y-57.478
X101.335Y-80.084
X101.335Y-102.69
X101.335Y-125.296
X101.335Y-147.902
X101.335Y-170.508
X101.341Y-55.969
X101.341Y-78.575
X101.341Y-101.181
X101.341Y-123.787
X101.341Y-146.393
X101.341Y-168.999
X101.343Y-54.466
X101.343Y-77.072
X101.343Y-99.678
X101.343Y-122.284
X101.343Y-144.89
X101.343Y-167.496
T4
X75.0Y-45.0
X75.0Y-185.0
X105.0Y-45.0
X105.0Y-185.0
T2
G00X74.73Y-50.235
M15
G01X73.63Y-50.235
M16
G05
G00X74.73Y-66.735
M15
G01X73.63Y-66.735
M16
G05
G00X74.73Y-72.841
M15
G01X73.63Y-72.841
M16
G05
G00X74.73Y-89.341
M15
G01X73.63Y-89.341
M16
G05
G00X74.73Y-95.447
M15
G01X73.63Y-95.447
M16
G05
G00X74.73Y-111.947
M15
G01X73.63Y-111.947
M16
G05
G00X74.73Y-118.053
M15
G01X73.63Y-118.053
M16
G05
G00X74.73Y-134.553
M15
G01X73.63Y-134.553
M16
G05
G00X74.73Y-140.659
M15
G01X73.63Y-140.659
M16
G05
G00X74.73Y-157.159
M15
G01X73.63Y-157.159
M16
G05
G00X74.73Y-163.265
M15
G01X73.63Y-163.265
M16
G05
G00X74.73Y-179.765
M15
G01X73.63Y-179.765
M16
G05
G00X81.76Y-50.235
M15
G01X80.16Y-50.235
M16
G05
G00X81.76Y-66.735
M15
G01X80.16Y-66.735
M16
G05
G00X81.76Y-72.841
M15
G01X80.16Y-72.841
M16
G05
G00X81.76Y-89.341
M15
G01X80.16Y-89.341
M16
G05
G00X81.76Y-95.447
M15
G01X80.16Y-95.447
M16
G05
G00X81.76Y-111.947
M15
G01X80.16Y-111.947
M16
G05
G00X81.76Y-118.053
M15
G01X80.16Y-118.053
M16
G05
G00X81.76Y-134.553
M15
G01X80.16Y-134.553
M16
G05
G00X81.76Y-140.659
M15
G01X80.16Y-140.659
M16
G05
G00X81.76Y-157.159
M15
G01X80.16Y-157.159
M16
G05
G00X81.76Y-163.265
M15
G01X80.16Y-163.265
M16
G05
G00X81.76Y-179.765
M15
G01X80.16Y-179.765
M16
G05
T3
G00X99.4Y-51.235
M15
G01X101.2Y-51.235
M16
G05
G00X99.4Y-65.735
M15
G01X101.2Y-65.735
M16
G05
G00X99.4Y-73.841
M15
G01X101.2Y-73.841
M16
G05
G00X99.4Y-88.341
M15
G01X101.2Y-88.341
M16
G05
G00X99.4Y-96.447
M15
G01X101.2Y-96.447
M16
G05
G00X99.4Y-110.947
M15
G01X101.2Y-110.947
M16
G05
G00X99.4Y-119.053
M15
G01X101.2Y-119.053
M16
G05
G00X99.4Y-133.553
M15
G01X101.2Y-133.553
M16
G05
G00X99.4Y-141.659
M15
G01X101.2Y-141.659
M16
G05
G00X99.4Y-156.159
M15
G01X101.2Y-156.159
M16
G05
G00X99.4Y-164.265
M15
G01X101.2Y-164.265
M16
G05
G00X99.4Y-178.765
M15
G01X101.2Y-178.765
M16
G05
G00X105.66Y-51.235
M15
G01X106.86Y-51.235
M16
G05
G00X105.66Y-65.735
M15
G01X106.86Y-65.735
M16
G05
G00X105.66Y-73.841
M15
G01X106.86Y-73.841
M16
G05
G00X105.66Y-88.341
M15
G01X106.86Y-88.341
M16
G05
G00X105.66Y-96.447
M15
G01X106.86Y-96.447
M16
G05
G00X105.66Y-110.947
M15
G01X106.86Y-110.947
M16
G05
G00X105.66Y-119.053
M15
G01X106.86Y-119.053
M16
G05
G00X105.66Y-133.553
M15
G01X106.86Y-133.553
M16
G05
G00X105.66Y-141.659
M15
G01X106.86Y-141.659
M16
G05
G00X105.66Y-156.159
M15
G01X106.86Y-156.159
M16
G05
G00X105.66Y-164.265
M15
G01X106.86Y-164.265
M16
G05
G00X105.66Y-178.765
M15
G01X106.86Y-178.765
M16
G05
T0
M30
