M48
; DRILL file {KiCad (6.0.4-0)} date Friday, 15 July 2022 at 02:36:09
; FORMAT={-:-/ absolute / metric / decimal}
; #@! TF.CreationDate,2022-07-15T02:36:09+01:00
; #@! TF.GenerationSoftware,Kicad,Pcbnew,(6.0.4-0)
; #@! TF.FileFunction,Plated,1,4,PTH
FMAT,2
METRIC
; #@! TA.AperFunction,Plated,PTH,ViaDrill
T1C0.400
; #@! TA.AperFunction,Plated,PTH,ComponentDrill
T2C0.600
; #@! TA.AperFunction,Plated,PTH,ComponentDrill
T3C0.900
; #@! TA.AperFunction,Plated,PTH,ComponentDrill
T4C3.200
%
G90
G05
T1
X81.825Y-56.0
X81.825Y-78.606
X81.825Y-101.212
X81.825Y-123.818
X81.825Y-146.424
X81.825Y-169.03
X81.864Y-60.509
X81.864Y-83.115
X81.864Y-105.721
X81.864Y-128.327
X81.864Y-150.933
X81.864Y-173.539
X81.87Y-61.971
X81.87Y-84.577
X81.87Y-107.183
X81.87Y-129.789
X81.87Y-152.395
X81.87Y-175.001
X81.873Y-58.975
X81.873Y-81.581
X81.873Y-104.187
X81.873Y-126.793
X81.873Y-149.399
X81.873Y-172.005
X81.878Y-63.482
X81.878Y-86.088
X81.878Y-108.694
X81.878Y-131.3
X81.878Y-153.906
X81.878Y-176.512
X86.775Y-56.55
X86.775Y-79.156
X86.775Y-101.762
X86.775Y-124.368
X86.775Y-146.974
X86.775Y-169.58
X87.525Y-57.525
X87.525Y-80.131
X87.525Y-102.737
X87.525Y-125.343
X87.525Y-147.949
X87.525Y-170.555
X87.825Y-56.175
X87.825Y-78.781
X87.825Y-101.387
X87.825Y-123.993
X87.825Y-146.599
X87.825Y-169.205
X88.462Y-64.613
X88.462Y-87.219
X88.462Y-109.825
X88.462Y-132.431
X88.462Y-155.037
X88.462Y-177.643
X88.525Y-62.475
X88.525Y-85.081
X88.525Y-107.687
X88.525Y-130.293
X88.525Y-152.899
X88.525Y-175.505
X88.775Y-65.65
X88.775Y-88.256
X88.775Y-110.862
X88.775Y-133.468
X88.775Y-156.074
X88.775Y-178.68
X89.675Y-61.925
X89.675Y-84.531
X89.675Y-107.137
X89.675Y-129.743
X89.675Y-152.349
X89.675Y-174.955
X89.862Y-64.688
X89.862Y-87.294
X89.862Y-109.9
X89.862Y-132.506
X89.862Y-155.112
X89.862Y-177.718
X90.15Y-54.8
X90.15Y-56.325
X90.15Y-77.406
X90.15Y-78.93
X90.15Y-100.012
X90.15Y-101.536
X90.15Y-122.618
X90.15Y-124.142
X90.15Y-145.224
X90.15Y-146.749
X90.15Y-167.83
X90.15Y-169.355
X90.4Y-62.7
X90.4Y-85.306
X90.4Y-107.912
X90.4Y-130.518
X90.4Y-153.124
X90.4Y-175.73
X90.95Y-58.475
X90.95Y-81.081
X90.95Y-103.687
X90.95Y-126.293
X90.95Y-148.899
X90.95Y-171.505
X90.975Y-55.6
X90.975Y-78.206
X90.975Y-100.812
X90.975Y-123.418
X90.975Y-146.024
X90.975Y-168.63
X91.85Y-59.261
X91.85Y-62.425
X91.85Y-81.867
X91.85Y-85.031
X91.85Y-104.472
X91.85Y-107.637
X91.85Y-127.078
X91.85Y-130.243
X91.85Y-149.684
X91.85Y-152.849
X91.85Y-172.29
X91.85Y-175.455
X91.875Y-58.0
X91.875Y-80.606
X91.875Y-103.212
X91.875Y-125.818
X91.875Y-148.424
X91.875Y-171.03
X92.625Y-61.71
X92.625Y-84.316
X92.625Y-106.922
X92.625Y-129.528
X92.625Y-152.134
X92.625Y-174.74
X94.05Y-58.1
X94.05Y-80.706
X94.05Y-103.312
X94.05Y-125.918
X94.05Y-148.524
X94.05Y-171.13
X94.1Y-59.261
X94.1Y-81.867
X94.1Y-104.472
X94.1Y-127.078
X94.1Y-149.684
X94.1Y-172.29
X94.15Y-60.8
X94.15Y-83.406
X94.15Y-106.012
X94.15Y-128.618
X94.15Y-151.224
X94.15Y-173.83
X94.175Y-54.95
X94.175Y-77.556
X94.175Y-100.162
X94.175Y-122.768
X94.175Y-145.374
X94.175Y-167.98
X95.1Y-54.3
X95.1Y-76.906
X95.1Y-99.512
X95.1Y-122.118
X95.1Y-144.724
X95.1Y-167.33
X95.307Y-64.007
X95.307Y-86.613
X95.307Y-109.219
X95.307Y-131.825
X95.307Y-154.431
X95.307Y-177.037
X95.9Y-63.125
X95.9Y-85.731
X95.9Y-108.337
X95.9Y-130.943
X95.9Y-153.549
X95.9Y-176.155
X96.379Y-62.248
X96.379Y-84.854
X96.379Y-107.46
X96.379Y-130.066
X96.379Y-152.672
X96.379Y-175.278
X96.55Y-54.8
X96.55Y-77.406
X96.55Y-100.012
X96.55Y-122.618
X96.55Y-145.225
X96.55Y-167.831
X101.333Y-61.48
X101.333Y-84.086
X101.333Y-106.692
X101.333Y-129.298
X101.333Y-151.904
X101.333Y-174.51
X101.333Y-58.99
X101.333Y-81.596
X101.333Y-104.202
X101.333Y-126.808
X101.333Y-149.414
X101.333Y-172.02
X101.335Y-57.478
X101.335Y-80.084
X101.335Y-102.69
X101.335Y-125.296
X101.335Y-147.902
X101.335Y-170.508
X101.341Y-55.969
X101.341Y-78.575
X101.341Y-101.181
X101.341Y-123.787
X101.341Y-146.393
X101.341Y-168.999
X101.343Y-54.466
X101.343Y-77.072
X101.343Y-99.678
X101.343Y-122.284
X101.343Y-144.89
X101.343Y-167.496
T4
X75.0Y-45.0
X75.0Y-185.0
X105.0Y-45.0
X105.0Y-185.0
T2
G00X74.73Y-50.235
M15
G01X73.63Y-50.235
M16
G05
G00X74.73Y-66.735
M15
G01X73.63Y-66.735
M16
G05
G00X74.73Y-72.841
M15
G01X73.63Y-72.841
M16
G05
G00X74.73Y-89.341
M15
G01X73.63Y-89.341
M16
G05
G00X74.73Y-95.447
M15
G01X73.63Y-95.447
M16
G05
G00X74.73Y-111.947
M15
G01X73.63Y-111.947
M16
G05
G00X74.73Y-118.053
M15
G01X73.63Y-118.053
M16
G05
G00X74.73Y-134.553
M15
G01X73.63Y-134.553
M16
G05
G00X74.73Y-140.659
M15
G01X73.63Y-140.659
M16
G05
G00X74.73Y-157.159
M15
G01X73.63Y-157.159
M16
G05
G00X74.73Y-163.265
M15
G01X73.63Y-163.265
M16
G05
G00X74.73Y-179.765
M15
G01X73.63Y-179.765
M16
G05
G00X81.76Y-50.235
M15
G01X80.16Y-50.235
M16
G05
G00X81.76Y-66.735
M15
G01X80.16Y-66.735
M16
G05
G00X81.76Y-72.841
M15
G01X80.16Y-72.841
M16
G05
G00X81.76Y-89.341
M15
G01X80.16Y-89.341
M16
G05
G00X81.76Y-95.447
M15
G01X80.16Y-95.447
M16
G05
G00X81.76Y-111.947
M15
G01X80.16Y-111.947
M16
G05
G00X81.76Y-118.053
M15
G01X80.16Y-118.053
M16
G05
G00X81.76Y-134.553
M15
G01X80.16Y-134.553
M16
G05
G00X81.76Y-140.659
M15
G01X80.16Y-140.659
M16
G05
G00X81.76Y-157.159
M15
G01X80.16Y-157.159
M16
G05
G00X81.76Y-163.265
M15
G01X80.16Y-163.265
M16
G05
G00X81.76Y-179.765
M15
G01X80.16Y-179.765
M16
G05
T3
G00X99.4Y-51.235
M15
G01X101.2Y-51.235
M16
G05
G00X99.4Y-65.735
M15
G01X101.2Y-65.735
M16
G05
G00X99.4Y-73.841
M15
G01X101.2Y-73.841
M16
G05
G00X99.4Y-88.341
M15
G01X101.2Y-88.341
M16
G05
G00X99.4Y-96.447
M15
G01X101.2Y-96.447
M16
G05
G00X99.4Y-110.947
M15
G01X101.2Y-110.947
M16
G05
G00X99.4Y-119.053
M15
G01X101.2Y-119.053
M16
G05
G00X99.4Y-133.553
M15
G01X101.2Y-133.553
M16
G05
G00X99.4Y-141.659
M15
G01X101.2Y-141.659
M16
G05
G00X99.4Y-156.159
M15
G01X101.2Y-156.159
M16
G05
G00X99.4Y-164.265
M15
G01X101.2Y-164.265
M16
G05
G00X99.4Y-178.765
M15
G01X101.2Y-178.765
M16
G05
G00X105.66Y-51.235
M15
G01X106.86Y-51.235
M16
G05
G00X105.66Y-65.735
M15
G01X106.86Y-65.735
M16
G05
G00X105.66Y-73.841
M15
G01X106.86Y-73.841
M16
G05
G00X105.66Y-88.341
M15
G01X106.86Y-88.341
M16
G05
G00X105.66Y-96.447
M15
G01X106.86Y-96.447
M16
G05
G00X105.66Y-110.947
M15
G01X106.86Y-110.947
M16
G05
G00X105.66Y-119.053
M15
G01X106.86Y-119.053
M16
G05
G00X105.66Y-133.553
M15
G01X106.86Y-133.553
M16
G05
G00X105.66Y-141.659
M15
G01X106.86Y-141.659
M16
G05
G00X105.66Y-156.159
M15
G01X106.86Y-156.159
M16
G05
G00X105.66Y-164.265
M15
G01X106.86Y-164.265
M16
G05
G00X105.66Y-178.765
M15
G01X106.86Y-178.765
M16
G05
T0
M30
