%TF.GenerationSoftware,KiCad,Pcbnew,6.0.8-2.fc36*%
%TF.CreationDate,2022-10-20T17:48:41+01:00*%
%TF.ProjectId,pc070_aida_hdmi_dp,70633037-305f-4616-9964-615f68646d69,rev?*%
%TF.SameCoordinates,Original*%
%TF.FileFunction,Copper,L1,Top*%
%TF.FilePolarity,Positive*%
%FSLAX46Y46*%
G04 Gerber Fmt 4.6, Leading zero omitted, Abs format (unit mm)*
G04 Created by KiCad (PCBNEW 6.0.8-2.fc36) date 2022-10-20 17:48:41*
%MOMM*%
%LPD*%
G01*
G04 APERTURE LIST*
%TA.AperFunction,ComponentPad*%
%ADD10O,2.400000X1.400000*%
%TD*%
%TA.AperFunction,ComponentPad*%
%ADD11O,2.800000X1.400000*%
%TD*%
%TA.AperFunction,SMDPad,CuDef*%
%ADD12R,2.400000X0.280000*%
%TD*%
%TA.AperFunction,ComponentPad*%
%ADD13R,1.000000X1.000000*%
%TD*%
%TA.AperFunction,SMDPad,CuDef*%
%ADD14R,2.350000X0.280000*%
%TD*%
%TA.AperFunction,ComponentPad*%
%ADD15O,3.200000X1.600000*%
%TD*%
%TA.AperFunction,ComponentPad*%
%ADD16O,2.820000X1.410000*%
%TD*%
%TA.AperFunction,ComponentPad*%
%ADD17C,3.600000*%
%TD*%
%TA.AperFunction,ConnectorPad*%
%ADD18C,5.600000*%
%TD*%
%TA.AperFunction,ViaPad*%
%ADD19C,0.800000*%
%TD*%
%TA.AperFunction,Conductor*%
%ADD20C,0.250000*%
%TD*%
G04 APERTURE END LIST*
D10*
%TO.P,J1,S4,SHIELD*%
%TO.N,GND*%
X74180000Y-66735000D03*
%TO.P,J1,S3,SHIELD*%
X74180000Y-50235000D03*
D11*
%TO.P,J1,S2,SHIELD*%
X80960000Y-66735000D03*
%TO.P,J1,S1,SHIELD*%
X80960000Y-50235000D03*
D12*
%TO.P,J1,20,20*%
%TO.N,unconnected-(J1-Pad20)*%
X83560000Y-54485000D03*
%TO.P,J1,19,19*%
%TO.N,unconnected-(J1-Pad19)*%
X83560000Y-54985000D03*
%TO.P,J1,18,18*%
%TO.N,unconnected-(J1-Pad18)*%
X83560000Y-55485000D03*
%TO.P,J1,17,17*%
%TO.N,/pc070_aida_hdmi_dp_single/TRIG\u002A*%
X83560000Y-55985000D03*
%TO.P,J1,16,16*%
%TO.N,GND*%
X83560000Y-56485000D03*
%TO.P,J1,15,15*%
%TO.N,/pc070_aida_hdmi_dp_single/TRIG*%
X83560000Y-56985000D03*
%TO.P,J1,14,14*%
%TO.N,unconnected-(J1-Pad14)*%
X83560000Y-57485000D03*
%TO.P,J1,13,13*%
%TO.N,unconnected-(J1-Pad13)*%
X83560000Y-57985000D03*
%TO.P,J1,12,12*%
%TO.N,/pc070_aida_hdmi_dp_single/CLK*%
X83560000Y-58485000D03*
%TO.P,J1,11,11*%
%TO.N,GND*%
X83560000Y-58985000D03*
%TO.P,J1,10,10*%
%TO.N,/pc070_aida_hdmi_dp_single/CLK\u002A*%
X83560000Y-59485000D03*
%TO.P,J1,9,9*%
%TO.N,/pc070_aida_hdmi_dp_single/CONT*%
X83560000Y-59985000D03*
%TO.P,J1,8,8*%
%TO.N,GND*%
X83560000Y-60485000D03*
%TO.P,J1,7,7*%
%TO.N,/pc070_aida_hdmi_dp_single/CONT\u002A*%
X83560000Y-60985000D03*
%TO.P,J1,6,6*%
%TO.N,/pc070_aida_hdmi_dp_single/BUSY*%
X83560000Y-61485000D03*
%TO.P,J1,5,5*%
%TO.N,GND*%
X83560000Y-61985000D03*
%TO.P,J1,4,4*%
%TO.N,/pc070_aida_hdmi_dp_single/BUSY\u002A*%
X83560000Y-62485000D03*
%TO.P,J1,3,3*%
%TO.N,/pc070_aida_hdmi_dp_single/SPARE*%
X83560000Y-62985000D03*
%TO.P,J1,2,2*%
%TO.N,GND*%
X83560000Y-63485000D03*
%TO.P,J1,1,1*%
%TO.N,/pc070_aida_hdmi_dp_single/SPARE\u002A*%
X83560000Y-63985000D03*
%TD*%
D13*
%TO.P,TP53,1,1*%
%TO.N,/pc070_aida_hdmi_dp_single4/TRIG*%
X88850000Y-158574000D03*
%TD*%
%TO.P,TP68,1,1*%
%TO.N,/pc070_aida_hdmi_dp_single3/BUSY\u002A*%
X94100000Y-173430000D03*
%TD*%
%TO.P,TP16,1,1*%
%TO.N,/pc070_aida_hdmi_dp_single1/CLK\u002A*%
X89850000Y-78006000D03*
%TD*%
%TO.P,TP43,1,1*%
%TO.N,/pc070_aida_hdmi_dp_single5/BUSY*%
X92100000Y-128218000D03*
%TD*%
%TO.P,TP46,1,1*%
%TO.N,/pc070_aida_hdmi_dp_single5/CONT\u002A*%
X92100000Y-125718000D03*
%TD*%
D14*
%TO.P,J6,01,01*%
%TO.N,/pc070_aida_hdmi_dp_single2/CLK*%
X99675000Y-99197000D03*
%TO.P,J6,02,02*%
%TO.N,GND*%
X99675000Y-99697000D03*
%TO.P,J6,03,03*%
%TO.N,/pc070_aida_hdmi_dp_single2/CLK\u002A*%
X99675000Y-100197000D03*
%TO.P,J6,04,04*%
%TO.N,/pc070_aida_hdmi_dp_single2/CONT*%
X99675000Y-100697000D03*
%TO.P,J6,05,05*%
%TO.N,GND*%
X99675000Y-101197000D03*
%TO.P,J6,06,06*%
%TO.N,/pc070_aida_hdmi_dp_single2/CONT\u002A*%
X99675000Y-101697000D03*
%TO.P,J6,07,07*%
%TO.N,/pc070_aida_hdmi_dp_single2/BUSY*%
X99675000Y-102197000D03*
%TO.P,J6,08,08*%
%TO.N,GND*%
X99675000Y-102697000D03*
%TO.P,J6,09,09*%
%TO.N,/pc070_aida_hdmi_dp_single2/BUSY\u002A*%
X99675000Y-103197000D03*
%TO.P,J6,10,10*%
%TO.N,/pc070_aida_hdmi_dp_single2/SPARE*%
X99675000Y-103697000D03*
%TO.P,J6,11,11*%
%TO.N,GND*%
X99675000Y-104197000D03*
%TO.P,J6,12,12*%
%TO.N,/pc070_aida_hdmi_dp_single2/SPARE\u002A*%
X99675000Y-104697000D03*
%TO.P,J6,13,13*%
%TO.N,unconnected-(J6-Pad13)*%
X99675000Y-105197000D03*
%TO.P,J6,14,14*%
%TO.N,unconnected-(J6-Pad14)*%
X99675000Y-105697000D03*
%TO.P,J6,15,15*%
%TO.N,/pc070_aida_hdmi_dp_single2/TRIG*%
X99675000Y-106197000D03*
%TO.P,J6,16,16*%
%TO.N,/pc070_aida_hdmi_dp_single2/TRIG\u002A*%
X99675000Y-106697000D03*
%TO.P,J6,17,17*%
%TO.N,unconnected-(J6-Pad17)*%
X99675000Y-107197000D03*
%TO.P,J6,18,18*%
%TO.N,unconnected-(J6-Pad18)*%
X99675000Y-107697000D03*
%TO.P,J6,19,19*%
%TO.N,unconnected-(J6-Pad19)*%
X99675000Y-108197000D03*
D15*
%TO.P,J6,S1,SHIELD*%
%TO.N,GND*%
X100300000Y-110947000D03*
%TO.P,J6,S2,SHIELD*%
X100300000Y-96447000D03*
D16*
%TO.P,J6,S3,SHIELD*%
X106260000Y-110947000D03*
%TO.P,J6,S4,SHIELD*%
X106260000Y-96447000D03*
%TD*%
D13*
%TO.P,TP50,1,1*%
%TO.N,GND*%
X88850000Y-156074000D03*
%TD*%
%TO.P,TP22,1,1*%
%TO.N,/pc070_aida_hdmi_dp_single1/CONT\u002A*%
X92100000Y-80506000D03*
%TD*%
%TO.P,TP69,1,1*%
%TO.N,/pc070_aida_hdmi_dp_single3/CONT*%
X90100000Y-170930000D03*
%TD*%
D17*
%TO.P,H3,1,1*%
%TO.N,GND*%
X105000000Y-185000000D03*
D18*
X105000000Y-185000000D03*
%TD*%
D13*
%TO.P,TP21,1,1*%
%TO.N,/pc070_aida_hdmi_dp_single1/CONT*%
X90100000Y-80506000D03*
%TD*%
%TO.P,TP62,1,1*%
%TO.N,GND*%
X88850000Y-178680000D03*
%TD*%
D18*
%TO.P,H4,1,1*%
%TO.N,GND*%
X75000000Y-185000000D03*
D17*
X75000000Y-185000000D03*
%TD*%
D13*
%TO.P,TP55,1,1*%
%TO.N,/pc070_aida_hdmi_dp_single4/BUSY*%
X92100000Y-150824000D03*
%TD*%
%TO.P,TP45,1,1*%
%TO.N,/pc070_aida_hdmi_dp_single5/CONT*%
X90100000Y-125718000D03*
%TD*%
D14*
%TO.P,J8,01,01*%
%TO.N,/pc070_aida_hdmi_dp_single5/CLK*%
X99675000Y-121803000D03*
%TO.P,J8,02,02*%
%TO.N,GND*%
X99675000Y-122303000D03*
%TO.P,J8,03,03*%
%TO.N,/pc070_aida_hdmi_dp_single5/CLK\u002A*%
X99675000Y-122803000D03*
%TO.P,J8,04,04*%
%TO.N,/pc070_aida_hdmi_dp_single5/CONT*%
X99675000Y-123303000D03*
%TO.P,J8,05,05*%
%TO.N,GND*%
X99675000Y-123803000D03*
%TO.P,J8,06,06*%
%TO.N,/pc070_aida_hdmi_dp_single5/CONT\u002A*%
X99675000Y-124303000D03*
%TO.P,J8,07,07*%
%TO.N,/pc070_aida_hdmi_dp_single5/BUSY*%
X99675000Y-124803000D03*
%TO.P,J8,08,08*%
%TO.N,GND*%
X99675000Y-125303000D03*
%TO.P,J8,09,09*%
%TO.N,/pc070_aida_hdmi_dp_single5/BUSY\u002A*%
X99675000Y-125803000D03*
%TO.P,J8,10,10*%
%TO.N,/pc070_aida_hdmi_dp_single5/SPARE*%
X99675000Y-126303000D03*
%TO.P,J8,11,11*%
%TO.N,GND*%
X99675000Y-126803000D03*
%TO.P,J8,12,12*%
%TO.N,/pc070_aida_hdmi_dp_single5/SPARE\u002A*%
X99675000Y-127303000D03*
%TO.P,J8,13,13*%
%TO.N,unconnected-(J8-Pad13)*%
X99675000Y-127803000D03*
%TO.P,J8,14,14*%
%TO.N,unconnected-(J8-Pad14)*%
X99675000Y-128303000D03*
%TO.P,J8,15,15*%
%TO.N,/pc070_aida_hdmi_dp_single5/TRIG*%
X99675000Y-128803000D03*
%TO.P,J8,16,16*%
%TO.N,/pc070_aida_hdmi_dp_single5/TRIG\u002A*%
X99675000Y-129303000D03*
%TO.P,J8,17,17*%
%TO.N,unconnected-(J8-Pad17)*%
X99675000Y-129803000D03*
%TO.P,J8,18,18*%
%TO.N,unconnected-(J8-Pad18)*%
X99675000Y-130303000D03*
%TO.P,J8,19,19*%
%TO.N,unconnected-(J8-Pad19)*%
X99675000Y-130803000D03*
D15*
%TO.P,J8,S1,SHIELD*%
%TO.N,GND*%
X100300000Y-133553000D03*
%TO.P,J8,S2,SHIELD*%
X100300000Y-119053000D03*
D16*
%TO.P,J8,S3,SHIELD*%
X106260000Y-133553000D03*
%TO.P,J8,S4,SHIELD*%
X106260000Y-119053000D03*
%TD*%
D12*
%TO.P,J7,1,1*%
%TO.N,/pc070_aida_hdmi_dp_single5/SPARE\u002A*%
X83560000Y-131803000D03*
%TO.P,J7,2,2*%
%TO.N,GND*%
X83560000Y-131303000D03*
%TO.P,J7,3,3*%
%TO.N,/pc070_aida_hdmi_dp_single5/SPARE*%
X83560000Y-130803000D03*
%TO.P,J7,4,4*%
%TO.N,/pc070_aida_hdmi_dp_single5/BUSY\u002A*%
X83560000Y-130303000D03*
%TO.P,J7,5,5*%
%TO.N,GND*%
X83560000Y-129803000D03*
%TO.P,J7,6,6*%
%TO.N,/pc070_aida_hdmi_dp_single5/BUSY*%
X83560000Y-129303000D03*
%TO.P,J7,7,7*%
%TO.N,/pc070_aida_hdmi_dp_single5/CONT\u002A*%
X83560000Y-128803000D03*
%TO.P,J7,8,8*%
%TO.N,GND*%
X83560000Y-128303000D03*
%TO.P,J7,9,9*%
%TO.N,/pc070_aida_hdmi_dp_single5/CONT*%
X83560000Y-127803000D03*
%TO.P,J7,10,10*%
%TO.N,/pc070_aida_hdmi_dp_single5/CLK\u002A*%
X83560000Y-127303000D03*
%TO.P,J7,11,11*%
%TO.N,GND*%
X83560000Y-126803000D03*
%TO.P,J7,12,12*%
%TO.N,/pc070_aida_hdmi_dp_single5/CLK*%
X83560000Y-126303000D03*
%TO.P,J7,13,13*%
%TO.N,unconnected-(J7-Pad13)*%
X83560000Y-125803000D03*
%TO.P,J7,14,14*%
%TO.N,unconnected-(J7-Pad14)*%
X83560000Y-125303000D03*
%TO.P,J7,15,15*%
%TO.N,/pc070_aida_hdmi_dp_single5/TRIG*%
X83560000Y-124803000D03*
%TO.P,J7,16,16*%
%TO.N,GND*%
X83560000Y-124303000D03*
%TO.P,J7,17,17*%
%TO.N,/pc070_aida_hdmi_dp_single5/TRIG\u002A*%
X83560000Y-123803000D03*
%TO.P,J7,18,18*%
%TO.N,unconnected-(J7-Pad18)*%
X83560000Y-123303000D03*
%TO.P,J7,19,19*%
%TO.N,unconnected-(J7-Pad19)*%
X83560000Y-122803000D03*
%TO.P,J7,20,20*%
%TO.N,unconnected-(J7-Pad20)*%
X83560000Y-122303000D03*
D11*
%TO.P,J7,S1,SHIELD*%
%TO.N,GND*%
X80960000Y-118053000D03*
%TO.P,J7,S2,SHIELD*%
X80960000Y-134553000D03*
D10*
%TO.P,J7,S3,SHIELD*%
X74180000Y-118053000D03*
%TO.P,J7,S4,SHIELD*%
X74180000Y-134553000D03*
%TD*%
D13*
%TO.P,TP26,1,1*%
%TO.N,GND*%
X88850000Y-110862000D03*
%TD*%
%TO.P,TP7,1,1*%
%TO.N,/pc070_aida_hdmi_dp_single/BUSY*%
X92100000Y-60400000D03*
%TD*%
%TO.P,TP33,1,1*%
%TO.N,/pc070_aida_hdmi_dp_single2/CONT*%
X90100000Y-103112000D03*
%TD*%
%TO.P,TP12,1,1*%
%TO.N,/pc070_aida_hdmi_dp_single/SPARE\u002A*%
X94100000Y-62900000D03*
%TD*%
%TO.P,TP29,1,1*%
%TO.N,/pc070_aida_hdmi_dp_single2/TRIG*%
X88850000Y-113362000D03*
%TD*%
%TO.P,TP10,1,1*%
%TO.N,/pc070_aida_hdmi_dp_single/CONT\u002A*%
X92100000Y-57900000D03*
%TD*%
%TO.P,TP59,1,1*%
%TO.N,/pc070_aida_hdmi_dp_single4/SPARE*%
X92100000Y-153324000D03*
%TD*%
%TO.P,TP57,1,1*%
%TO.N,/pc070_aida_hdmi_dp_single4/CONT*%
X90100000Y-148324000D03*
%TD*%
%TO.P,TP34,1,1*%
%TO.N,/pc070_aida_hdmi_dp_single2/CONT\u002A*%
X92100000Y-103112000D03*
%TD*%
%TO.P,TP23,1,1*%
%TO.N,/pc070_aida_hdmi_dp_single1/SPARE*%
X92100000Y-85506000D03*
%TD*%
%TO.P,TP30,1,1*%
%TO.N,/pc070_aida_hdmi_dp_single2/TRIG\u002A*%
X88850000Y-115362000D03*
%TD*%
%TO.P,TP66,1,1*%
%TO.N,/pc070_aida_hdmi_dp_single3/TRIG\u002A*%
X88850000Y-183180000D03*
%TD*%
D14*
%TO.P,J2,01,01*%
%TO.N,/pc070_aida_hdmi_dp_single/CLK*%
X99675000Y-53985000D03*
%TO.P,J2,02,02*%
%TO.N,GND*%
X99675000Y-54485000D03*
%TO.P,J2,03,03*%
%TO.N,/pc070_aida_hdmi_dp_single/CLK\u002A*%
X99675000Y-54985000D03*
%TO.P,J2,04,04*%
%TO.N,/pc070_aida_hdmi_dp_single/CONT*%
X99675000Y-55485000D03*
%TO.P,J2,05,05*%
%TO.N,GND*%
X99675000Y-55985000D03*
%TO.P,J2,06,06*%
%TO.N,/pc070_aida_hdmi_dp_single/CONT\u002A*%
X99675000Y-56485000D03*
%TO.P,J2,07,07*%
%TO.N,/pc070_aida_hdmi_dp_single/BUSY*%
X99675000Y-56985000D03*
%TO.P,J2,08,08*%
%TO.N,GND*%
X99675000Y-57485000D03*
%TO.P,J2,09,09*%
%TO.N,/pc070_aida_hdmi_dp_single/BUSY\u002A*%
X99675000Y-57985000D03*
%TO.P,J2,10,10*%
%TO.N,/pc070_aida_hdmi_dp_single/SPARE*%
X99675000Y-58485000D03*
%TO.P,J2,11,11*%
%TO.N,GND*%
X99675000Y-58985000D03*
%TO.P,J2,12,12*%
%TO.N,/pc070_aida_hdmi_dp_single/SPARE\u002A*%
X99675000Y-59485000D03*
%TO.P,J2,13,13*%
%TO.N,unconnected-(J2-Pad13)*%
X99675000Y-59985000D03*
%TO.P,J2,14,14*%
%TO.N,unconnected-(J2-Pad14)*%
X99675000Y-60485000D03*
%TO.P,J2,15,15*%
%TO.N,/pc070_aida_hdmi_dp_single/TRIG*%
X99675000Y-60985000D03*
%TO.P,J2,16,16*%
%TO.N,/pc070_aida_hdmi_dp_single/TRIG\u002A*%
X99675000Y-61485000D03*
%TO.P,J2,17,17*%
%TO.N,unconnected-(J2-Pad17)*%
X99675000Y-61985000D03*
%TO.P,J2,18,18*%
%TO.N,unconnected-(J2-Pad18)*%
X99675000Y-62485000D03*
%TO.P,J2,19,19*%
%TO.N,unconnected-(J2-Pad19)*%
X99675000Y-62985000D03*
D15*
%TO.P,J2,S1,SHIELD*%
%TO.N,GND*%
X100300000Y-65735000D03*
%TO.P,J2,S2,SHIELD*%
X100300000Y-51235000D03*
D16*
%TO.P,J2,S3,SHIELD*%
X106260000Y-65735000D03*
%TO.P,J2,S4,SHIELD*%
X106260000Y-51235000D03*
%TD*%
D13*
%TO.P,TP2,1,1*%
%TO.N,GND*%
X88850000Y-65650000D03*
%TD*%
%TO.P,TP65,1,1*%
%TO.N,/pc070_aida_hdmi_dp_single3/TRIG*%
X88850000Y-181180000D03*
%TD*%
%TO.P,TP60,1,1*%
%TO.N,/pc070_aida_hdmi_dp_single4/SPARE\u002A*%
X94100000Y-153324000D03*
%TD*%
D17*
%TO.P,H2,1,1*%
%TO.N,GND*%
X105000000Y-45000000D03*
D18*
X105000000Y-45000000D03*
%TD*%
D13*
%TO.P,TP11,1,1*%
%TO.N,/pc070_aida_hdmi_dp_single/SPARE*%
X92100000Y-62900000D03*
%TD*%
%TO.P,TP28,1,1*%
%TO.N,/pc070_aida_hdmi_dp_single2/CLK\u002A*%
X89850000Y-100612000D03*
%TD*%
%TO.P,TP8,1,1*%
%TO.N,/pc070_aida_hdmi_dp_single/BUSY\u002A*%
X94100000Y-60400000D03*
%TD*%
%TO.P,TP64,1,1*%
%TO.N,/pc070_aida_hdmi_dp_single3/CLK\u002A*%
X89850000Y-168430000D03*
%TD*%
%TO.P,TP56,1,1*%
%TO.N,/pc070_aida_hdmi_dp_single4/BUSY\u002A*%
X94100000Y-150824000D03*
%TD*%
%TO.P,TP47,1,1*%
%TO.N,/pc070_aida_hdmi_dp_single5/SPARE*%
X92100000Y-130718000D03*
%TD*%
%TO.P,TP9,1,1*%
%TO.N,/pc070_aida_hdmi_dp_single/CONT*%
X90100000Y-57900000D03*
%TD*%
%TO.P,TP37,1,1*%
%TO.N,GND*%
X91100000Y-119968000D03*
%TD*%
%TO.P,TP52,1,1*%
%TO.N,/pc070_aida_hdmi_dp_single4/CLK\u002A*%
X89850000Y-145824000D03*
%TD*%
%TO.P,TP25,1,1*%
%TO.N,GND*%
X91100000Y-97362000D03*
%TD*%
D12*
%TO.P,J9,1,1*%
%TO.N,/pc070_aida_hdmi_dp_single4/SPARE\u002A*%
X83560000Y-154409000D03*
%TO.P,J9,2,2*%
%TO.N,GND*%
X83560000Y-153909000D03*
%TO.P,J9,3,3*%
%TO.N,/pc070_aida_hdmi_dp_single4/SPARE*%
X83560000Y-153409000D03*
%TO.P,J9,4,4*%
%TO.N,/pc070_aida_hdmi_dp_single4/BUSY\u002A*%
X83560000Y-152909000D03*
%TO.P,J9,5,5*%
%TO.N,GND*%
X83560000Y-152409000D03*
%TO.P,J9,6,6*%
%TO.N,/pc070_aida_hdmi_dp_single4/BUSY*%
X83560000Y-151909000D03*
%TO.P,J9,7,7*%
%TO.N,/pc070_aida_hdmi_dp_single4/CONT\u002A*%
X83560000Y-151409000D03*
%TO.P,J9,8,8*%
%TO.N,GND*%
X83560000Y-150909000D03*
%TO.P,J9,9,9*%
%TO.N,/pc070_aida_hdmi_dp_single4/CONT*%
X83560000Y-150409000D03*
%TO.P,J9,10,10*%
%TO.N,/pc070_aida_hdmi_dp_single4/CLK\u002A*%
X83560000Y-149909000D03*
%TO.P,J9,11,11*%
%TO.N,GND*%
X83560000Y-149409000D03*
%TO.P,J9,12,12*%
%TO.N,/pc070_aida_hdmi_dp_single4/CLK*%
X83560000Y-148909000D03*
%TO.P,J9,13,13*%
%TO.N,unconnected-(J9-Pad13)*%
X83560000Y-148409000D03*
%TO.P,J9,14,14*%
%TO.N,unconnected-(J9-Pad14)*%
X83560000Y-147909000D03*
%TO.P,J9,15,15*%
%TO.N,/pc070_aida_hdmi_dp_single4/TRIG*%
X83560000Y-147409000D03*
%TO.P,J9,16,16*%
%TO.N,GND*%
X83560000Y-146909000D03*
%TO.P,J9,17,17*%
%TO.N,/pc070_aida_hdmi_dp_single4/TRIG\u002A*%
X83560000Y-146409000D03*
%TO.P,J9,18,18*%
%TO.N,unconnected-(J9-Pad18)*%
X83560000Y-145909000D03*
%TO.P,J9,19,19*%
%TO.N,unconnected-(J9-Pad19)*%
X83560000Y-145409000D03*
%TO.P,J9,20,20*%
%TO.N,unconnected-(J9-Pad20)*%
X83560000Y-144909000D03*
D11*
%TO.P,J9,S1,SHIELD*%
%TO.N,GND*%
X80960000Y-140659000D03*
%TO.P,J9,S2,SHIELD*%
X80960000Y-157159000D03*
D10*
%TO.P,J9,S3,SHIELD*%
X74180000Y-140659000D03*
%TO.P,J9,S4,SHIELD*%
X74180000Y-157159000D03*
%TD*%
D13*
%TO.P,TP31,1,1*%
%TO.N,/pc070_aida_hdmi_dp_single2/BUSY*%
X92100000Y-105612000D03*
%TD*%
%TO.P,TP14,1,1*%
%TO.N,GND*%
X88850000Y-88256000D03*
%TD*%
%TO.P,TP58,1,1*%
%TO.N,/pc070_aida_hdmi_dp_single4/CONT\u002A*%
X92100000Y-148324000D03*
%TD*%
%TO.P,TP32,1,1*%
%TO.N,/pc070_aida_hdmi_dp_single2/BUSY\u002A*%
X94100000Y-105612000D03*
%TD*%
%TO.P,TP5,1,1*%
%TO.N,/pc070_aida_hdmi_dp_single/TRIG*%
X88850000Y-68150000D03*
%TD*%
%TO.P,TP63,1,1*%
%TO.N,/pc070_aida_hdmi_dp_single3/CLK*%
X87850000Y-168430000D03*
%TD*%
%TO.P,TP24,1,1*%
%TO.N,/pc070_aida_hdmi_dp_single1/SPARE\u002A*%
X94100000Y-85506000D03*
%TD*%
%TO.P,TP27,1,1*%
%TO.N,/pc070_aida_hdmi_dp_single2/CLK*%
X87850000Y-100612000D03*
%TD*%
%TO.P,TP6,1,1*%
%TO.N,/pc070_aida_hdmi_dp_single/TRIG\u002A*%
X88850000Y-70150000D03*
%TD*%
%TO.P,TP48,1,1*%
%TO.N,/pc070_aida_hdmi_dp_single5/SPARE\u002A*%
X94100000Y-130718000D03*
%TD*%
%TO.P,TP72,1,1*%
%TO.N,/pc070_aida_hdmi_dp_single3/SPARE\u002A*%
X94100000Y-175930000D03*
%TD*%
%TO.P,TP17,1,1*%
%TO.N,/pc070_aida_hdmi_dp_single1/TRIG*%
X88850000Y-90756000D03*
%TD*%
%TO.P,TP67,1,1*%
%TO.N,/pc070_aida_hdmi_dp_single3/BUSY*%
X92100000Y-173430000D03*
%TD*%
%TO.P,TP38,1,1*%
%TO.N,GND*%
X88850000Y-133468000D03*
%TD*%
D17*
%TO.P,H1,1,1*%
%TO.N,GND*%
X75000000Y-45000000D03*
D18*
X75000000Y-45000000D03*
%TD*%
D14*
%TO.P,J4,01,01*%
%TO.N,/pc070_aida_hdmi_dp_single1/CLK*%
X99675000Y-76591000D03*
%TO.P,J4,02,02*%
%TO.N,GND*%
X99675000Y-77091000D03*
%TO.P,J4,03,03*%
%TO.N,/pc070_aida_hdmi_dp_single1/CLK\u002A*%
X99675000Y-77591000D03*
%TO.P,J4,04,04*%
%TO.N,/pc070_aida_hdmi_dp_single1/CONT*%
X99675000Y-78091000D03*
%TO.P,J4,05,05*%
%TO.N,GND*%
X99675000Y-78591000D03*
%TO.P,J4,06,06*%
%TO.N,/pc070_aida_hdmi_dp_single1/CONT\u002A*%
X99675000Y-79091000D03*
%TO.P,J4,07,07*%
%TO.N,/pc070_aida_hdmi_dp_single1/BUSY*%
X99675000Y-79591000D03*
%TO.P,J4,08,08*%
%TO.N,GND*%
X99675000Y-80091000D03*
%TO.P,J4,09,09*%
%TO.N,/pc070_aida_hdmi_dp_single1/BUSY\u002A*%
X99675000Y-80591000D03*
%TO.P,J4,10,10*%
%TO.N,/pc070_aida_hdmi_dp_single1/SPARE*%
X99675000Y-81091000D03*
%TO.P,J4,11,11*%
%TO.N,GND*%
X99675000Y-81591000D03*
%TO.P,J4,12,12*%
%TO.N,/pc070_aida_hdmi_dp_single1/SPARE\u002A*%
X99675000Y-82091000D03*
%TO.P,J4,13,13*%
%TO.N,unconnected-(J4-Pad13)*%
X99675000Y-82591000D03*
%TO.P,J4,14,14*%
%TO.N,unconnected-(J4-Pad14)*%
X99675000Y-83091000D03*
%TO.P,J4,15,15*%
%TO.N,/pc070_aida_hdmi_dp_single1/TRIG*%
X99675000Y-83591000D03*
%TO.P,J4,16,16*%
%TO.N,/pc070_aida_hdmi_dp_single1/TRIG\u002A*%
X99675000Y-84091000D03*
%TO.P,J4,17,17*%
%TO.N,unconnected-(J4-Pad17)*%
X99675000Y-84591000D03*
%TO.P,J4,18,18*%
%TO.N,unconnected-(J4-Pad18)*%
X99675000Y-85091000D03*
%TO.P,J4,19,19*%
%TO.N,unconnected-(J4-Pad19)*%
X99675000Y-85591000D03*
D15*
%TO.P,J4,S1,SHIELD*%
%TO.N,GND*%
X100300000Y-88341000D03*
%TO.P,J4,S2,SHIELD*%
X100300000Y-73841000D03*
D16*
%TO.P,J4,S3,SHIELD*%
X106260000Y-88341000D03*
%TO.P,J4,S4,SHIELD*%
X106260000Y-73841000D03*
%TD*%
D13*
%TO.P,TP40,1,1*%
%TO.N,/pc070_aida_hdmi_dp_single5/CLK\u002A*%
X89850000Y-123218000D03*
%TD*%
D14*
%TO.P,J10,01,01*%
%TO.N,/pc070_aida_hdmi_dp_single4/CLK*%
X99675000Y-144409000D03*
%TO.P,J10,02,02*%
%TO.N,GND*%
X99675000Y-144909000D03*
%TO.P,J10,03,03*%
%TO.N,/pc070_aida_hdmi_dp_single4/CLK\u002A*%
X99675000Y-145409000D03*
%TO.P,J10,04,04*%
%TO.N,/pc070_aida_hdmi_dp_single4/CONT*%
X99675000Y-145909000D03*
%TO.P,J10,05,05*%
%TO.N,GND*%
X99675000Y-146409000D03*
%TO.P,J10,06,06*%
%TO.N,/pc070_aida_hdmi_dp_single4/CONT\u002A*%
X99675000Y-146909000D03*
%TO.P,J10,07,07*%
%TO.N,/pc070_aida_hdmi_dp_single4/BUSY*%
X99675000Y-147409000D03*
%TO.P,J10,08,08*%
%TO.N,GND*%
X99675000Y-147909000D03*
%TO.P,J10,09,09*%
%TO.N,/pc070_aida_hdmi_dp_single4/BUSY\u002A*%
X99675000Y-148409000D03*
%TO.P,J10,10,10*%
%TO.N,/pc070_aida_hdmi_dp_single4/SPARE*%
X99675000Y-148909000D03*
%TO.P,J10,11,11*%
%TO.N,GND*%
X99675000Y-149409000D03*
%TO.P,J10,12,12*%
%TO.N,/pc070_aida_hdmi_dp_single4/SPARE\u002A*%
X99675000Y-149909000D03*
%TO.P,J10,13,13*%
%TO.N,unconnected-(J10-Pad13)*%
X99675000Y-150409000D03*
%TO.P,J10,14,14*%
%TO.N,unconnected-(J10-Pad14)*%
X99675000Y-150909000D03*
%TO.P,J10,15,15*%
%TO.N,/pc070_aida_hdmi_dp_single4/TRIG*%
X99675000Y-151409000D03*
%TO.P,J10,16,16*%
%TO.N,/pc070_aida_hdmi_dp_single4/TRIG\u002A*%
X99675000Y-151909000D03*
%TO.P,J10,17,17*%
%TO.N,unconnected-(J10-Pad17)*%
X99675000Y-152409000D03*
%TO.P,J10,18,18*%
%TO.N,unconnected-(J10-Pad18)*%
X99675000Y-152909000D03*
%TO.P,J10,19,19*%
%TO.N,unconnected-(J10-Pad19)*%
X99675000Y-153409000D03*
D15*
%TO.P,J10,S1,SHIELD*%
%TO.N,GND*%
X100300000Y-156159000D03*
%TO.P,J10,S2,SHIELD*%
X100300000Y-141659000D03*
D16*
%TO.P,J10,S3,SHIELD*%
X106260000Y-156159000D03*
%TO.P,J10,S4,SHIELD*%
X106260000Y-141659000D03*
%TD*%
D13*
%TO.P,TP36,1,1*%
%TO.N,/pc070_aida_hdmi_dp_single2/SPARE\u002A*%
X94100000Y-108112000D03*
%TD*%
D14*
%TO.P,J12,01,01*%
%TO.N,/pc070_aida_hdmi_dp_single3/CLK*%
X99675000Y-167015000D03*
%TO.P,J12,02,02*%
%TO.N,GND*%
X99675000Y-167515000D03*
%TO.P,J12,03,03*%
%TO.N,/pc070_aida_hdmi_dp_single3/CLK\u002A*%
X99675000Y-168015000D03*
%TO.P,J12,04,04*%
%TO.N,/pc070_aida_hdmi_dp_single3/CONT*%
X99675000Y-168515000D03*
%TO.P,J12,05,05*%
%TO.N,GND*%
X99675000Y-169015000D03*
%TO.P,J12,06,06*%
%TO.N,/pc070_aida_hdmi_dp_single3/CONT\u002A*%
X99675000Y-169515000D03*
%TO.P,J12,07,07*%
%TO.N,/pc070_aida_hdmi_dp_single3/BUSY*%
X99675000Y-170015000D03*
%TO.P,J12,08,08*%
%TO.N,GND*%
X99675000Y-170515000D03*
%TO.P,J12,09,09*%
%TO.N,/pc070_aida_hdmi_dp_single3/BUSY\u002A*%
X99675000Y-171015000D03*
%TO.P,J12,10,10*%
%TO.N,/pc070_aida_hdmi_dp_single3/SPARE*%
X99675000Y-171515000D03*
%TO.P,J12,11,11*%
%TO.N,GND*%
X99675000Y-172015000D03*
%TO.P,J12,12,12*%
%TO.N,/pc070_aida_hdmi_dp_single3/SPARE\u002A*%
X99675000Y-172515000D03*
%TO.P,J12,13,13*%
%TO.N,unconnected-(J12-Pad13)*%
X99675000Y-173015000D03*
%TO.P,J12,14,14*%
%TO.N,unconnected-(J12-Pad14)*%
X99675000Y-173515000D03*
%TO.P,J12,15,15*%
%TO.N,/pc070_aida_hdmi_dp_single3/TRIG*%
X99675000Y-174015000D03*
%TO.P,J12,16,16*%
%TO.N,/pc070_aida_hdmi_dp_single3/TRIG\u002A*%
X99675000Y-174515000D03*
%TO.P,J12,17,17*%
%TO.N,unconnected-(J12-Pad17)*%
X99675000Y-175015000D03*
%TO.P,J12,18,18*%
%TO.N,unconnected-(J12-Pad18)*%
X99675000Y-175515000D03*
%TO.P,J12,19,19*%
%TO.N,unconnected-(J12-Pad19)*%
X99675000Y-176015000D03*
D15*
%TO.P,J12,S1,SHIELD*%
%TO.N,GND*%
X100300000Y-178765000D03*
%TO.P,J12,S2,SHIELD*%
X100300000Y-164265000D03*
D16*
%TO.P,J12,S3,SHIELD*%
X106260000Y-178765000D03*
%TO.P,J12,S4,SHIELD*%
X106260000Y-164265000D03*
%TD*%
D13*
%TO.P,TP1,1,1*%
%TO.N,GND*%
X91100000Y-52150000D03*
%TD*%
%TO.P,TP41,1,1*%
%TO.N,/pc070_aida_hdmi_dp_single5/TRIG*%
X88850000Y-135968000D03*
%TD*%
D12*
%TO.P,J3,1,1*%
%TO.N,/pc070_aida_hdmi_dp_single1/SPARE\u002A*%
X83560000Y-86591000D03*
%TO.P,J3,2,2*%
%TO.N,GND*%
X83560000Y-86091000D03*
%TO.P,J3,3,3*%
%TO.N,/pc070_aida_hdmi_dp_single1/SPARE*%
X83560000Y-85591000D03*
%TO.P,J3,4,4*%
%TO.N,/pc070_aida_hdmi_dp_single1/BUSY\u002A*%
X83560000Y-85091000D03*
%TO.P,J3,5,5*%
%TO.N,GND*%
X83560000Y-84591000D03*
%TO.P,J3,6,6*%
%TO.N,/pc070_aida_hdmi_dp_single1/BUSY*%
X83560000Y-84091000D03*
%TO.P,J3,7,7*%
%TO.N,/pc070_aida_hdmi_dp_single1/CONT\u002A*%
X83560000Y-83591000D03*
%TO.P,J3,8,8*%
%TO.N,GND*%
X83560000Y-83091000D03*
%TO.P,J3,9,9*%
%TO.N,/pc070_aida_hdmi_dp_single1/CONT*%
X83560000Y-82591000D03*
%TO.P,J3,10,10*%
%TO.N,/pc070_aida_hdmi_dp_single1/CLK\u002A*%
X83560000Y-82091000D03*
%TO.P,J3,11,11*%
%TO.N,GND*%
X83560000Y-81591000D03*
%TO.P,J3,12,12*%
%TO.N,/pc070_aida_hdmi_dp_single1/CLK*%
X83560000Y-81091000D03*
%TO.P,J3,13,13*%
%TO.N,unconnected-(J3-Pad13)*%
X83560000Y-80591000D03*
%TO.P,J3,14,14*%
%TO.N,unconnected-(J3-Pad14)*%
X83560000Y-80091000D03*
%TO.P,J3,15,15*%
%TO.N,/pc070_aida_hdmi_dp_single1/TRIG*%
X83560000Y-79591000D03*
%TO.P,J3,16,16*%
%TO.N,GND*%
X83560000Y-79091000D03*
%TO.P,J3,17,17*%
%TO.N,/pc070_aida_hdmi_dp_single1/TRIG\u002A*%
X83560000Y-78591000D03*
%TO.P,J3,18,18*%
%TO.N,unconnected-(J3-Pad18)*%
X83560000Y-78091000D03*
%TO.P,J3,19,19*%
%TO.N,unconnected-(J3-Pad19)*%
X83560000Y-77591000D03*
%TO.P,J3,20,20*%
%TO.N,unconnected-(J3-Pad20)*%
X83560000Y-77091000D03*
D11*
%TO.P,J3,S1,SHIELD*%
%TO.N,GND*%
X80960000Y-72841000D03*
%TO.P,J3,S2,SHIELD*%
X80960000Y-89341000D03*
D10*
%TO.P,J3,S3,SHIELD*%
X74180000Y-72841000D03*
%TO.P,J3,S4,SHIELD*%
X74180000Y-89341000D03*
%TD*%
D13*
%TO.P,TP18,1,1*%
%TO.N,/pc070_aida_hdmi_dp_single1/TRIG\u002A*%
X88850000Y-92756000D03*
%TD*%
%TO.P,TP49,1,1*%
%TO.N,GND*%
X91100000Y-142574000D03*
%TD*%
%TO.P,TP70,1,1*%
%TO.N,/pc070_aida_hdmi_dp_single3/CONT\u002A*%
X92100000Y-170930000D03*
%TD*%
%TO.P,TP71,1,1*%
%TO.N,/pc070_aida_hdmi_dp_single3/SPARE*%
X92100000Y-175930000D03*
%TD*%
D12*
%TO.P,J5,1,1*%
%TO.N,/pc070_aida_hdmi_dp_single2/SPARE\u002A*%
X83560000Y-109197000D03*
%TO.P,J5,2,2*%
%TO.N,GND*%
X83560000Y-108697000D03*
%TO.P,J5,3,3*%
%TO.N,/pc070_aida_hdmi_dp_single2/SPARE*%
X83560000Y-108197000D03*
%TO.P,J5,4,4*%
%TO.N,/pc070_aida_hdmi_dp_single2/BUSY\u002A*%
X83560000Y-107697000D03*
%TO.P,J5,5,5*%
%TO.N,GND*%
X83560000Y-107197000D03*
%TO.P,J5,6,6*%
%TO.N,/pc070_aida_hdmi_dp_single2/BUSY*%
X83560000Y-106697000D03*
%TO.P,J5,7,7*%
%TO.N,/pc070_aida_hdmi_dp_single2/CONT\u002A*%
X83560000Y-106197000D03*
%TO.P,J5,8,8*%
%TO.N,GND*%
X83560000Y-105697000D03*
%TO.P,J5,9,9*%
%TO.N,/pc070_aida_hdmi_dp_single2/CONT*%
X83560000Y-105197000D03*
%TO.P,J5,10,10*%
%TO.N,/pc070_aida_hdmi_dp_single2/CLK\u002A*%
X83560000Y-104697000D03*
%TO.P,J5,11,11*%
%TO.N,GND*%
X83560000Y-104197000D03*
%TO.P,J5,12,12*%
%TO.N,/pc070_aida_hdmi_dp_single2/CLK*%
X83560000Y-103697000D03*
%TO.P,J5,13,13*%
%TO.N,unconnected-(J5-Pad13)*%
X83560000Y-103197000D03*
%TO.P,J5,14,14*%
%TO.N,unconnected-(J5-Pad14)*%
X83560000Y-102697000D03*
%TO.P,J5,15,15*%
%TO.N,/pc070_aida_hdmi_dp_single2/TRIG*%
X83560000Y-102197000D03*
%TO.P,J5,16,16*%
%TO.N,GND*%
X83560000Y-101697000D03*
%TO.P,J5,17,17*%
%TO.N,/pc070_aida_hdmi_dp_single2/TRIG\u002A*%
X83560000Y-101197000D03*
%TO.P,J5,18,18*%
%TO.N,unconnected-(J5-Pad18)*%
X83560000Y-100697000D03*
%TO.P,J5,19,19*%
%TO.N,unconnected-(J5-Pad19)*%
X83560000Y-100197000D03*
%TO.P,J5,20,20*%
%TO.N,unconnected-(J5-Pad20)*%
X83560000Y-99697000D03*
D11*
%TO.P,J5,S1,SHIELD*%
%TO.N,GND*%
X80960000Y-95447000D03*
%TO.P,J5,S2,SHIELD*%
X80960000Y-111947000D03*
D10*
%TO.P,J5,S3,SHIELD*%
X74180000Y-95447000D03*
%TO.P,J5,S4,SHIELD*%
X74180000Y-111947000D03*
%TD*%
D13*
%TO.P,TP39,1,1*%
%TO.N,/pc070_aida_hdmi_dp_single5/CLK*%
X87850000Y-123218000D03*
%TD*%
D12*
%TO.P,J11,1,1*%
%TO.N,/pc070_aida_hdmi_dp_single3/SPARE\u002A*%
X83560000Y-177015000D03*
%TO.P,J11,2,2*%
%TO.N,GND*%
X83560000Y-176515000D03*
%TO.P,J11,3,3*%
%TO.N,/pc070_aida_hdmi_dp_single3/SPARE*%
X83560000Y-176015000D03*
%TO.P,J11,4,4*%
%TO.N,/pc070_aida_hdmi_dp_single3/BUSY\u002A*%
X83560000Y-175515000D03*
%TO.P,J11,5,5*%
%TO.N,GND*%
X83560000Y-175015000D03*
%TO.P,J11,6,6*%
%TO.N,/pc070_aida_hdmi_dp_single3/BUSY*%
X83560000Y-174515000D03*
%TO.P,J11,7,7*%
%TO.N,/pc070_aida_hdmi_dp_single3/CONT\u002A*%
X83560000Y-174015000D03*
%TO.P,J11,8,8*%
%TO.N,GND*%
X83560000Y-173515000D03*
%TO.P,J11,9,9*%
%TO.N,/pc070_aida_hdmi_dp_single3/CONT*%
X83560000Y-173015000D03*
%TO.P,J11,10,10*%
%TO.N,/pc070_aida_hdmi_dp_single3/CLK\u002A*%
X83560000Y-172515000D03*
%TO.P,J11,11,11*%
%TO.N,GND*%
X83560000Y-172015000D03*
%TO.P,J11,12,12*%
%TO.N,/pc070_aida_hdmi_dp_single3/CLK*%
X83560000Y-171515000D03*
%TO.P,J11,13,13*%
%TO.N,unconnected-(J11-Pad13)*%
X83560000Y-171015000D03*
%TO.P,J11,14,14*%
%TO.N,unconnected-(J11-Pad14)*%
X83560000Y-170515000D03*
%TO.P,J11,15,15*%
%TO.N,/pc070_aida_hdmi_dp_single3/TRIG*%
X83560000Y-170015000D03*
%TO.P,J11,16,16*%
%TO.N,GND*%
X83560000Y-169515000D03*
%TO.P,J11,17,17*%
%TO.N,/pc070_aida_hdmi_dp_single3/TRIG\u002A*%
X83560000Y-169015000D03*
%TO.P,J11,18,18*%
%TO.N,unconnected-(J11-Pad18)*%
X83560000Y-168515000D03*
%TO.P,J11,19,19*%
%TO.N,unconnected-(J11-Pad19)*%
X83560000Y-168015000D03*
%TO.P,J11,20,20*%
%TO.N,unconnected-(J11-Pad20)*%
X83560000Y-167515000D03*
D11*
%TO.P,J11,S1,SHIELD*%
%TO.N,GND*%
X80960000Y-163265000D03*
%TO.P,J11,S2,SHIELD*%
X80960000Y-179765000D03*
D10*
%TO.P,J11,S3,SHIELD*%
X74180000Y-163265000D03*
%TO.P,J11,S4,SHIELD*%
X74180000Y-179765000D03*
%TD*%
D13*
%TO.P,TP54,1,1*%
%TO.N,/pc070_aida_hdmi_dp_single4/TRIG\u002A*%
X88850000Y-160574000D03*
%TD*%
%TO.P,TP15,1,1*%
%TO.N,/pc070_aida_hdmi_dp_single1/CLK*%
X87850000Y-78006000D03*
%TD*%
%TO.P,TP20,1,1*%
%TO.N,/pc070_aida_hdmi_dp_single1/BUSY\u002A*%
X94100000Y-83006000D03*
%TD*%
%TO.P,TP42,1,1*%
%TO.N,/pc070_aida_hdmi_dp_single5/TRIG\u002A*%
X88850000Y-137968000D03*
%TD*%
%TO.P,TP61,1,1*%
%TO.N,GND*%
X91100000Y-165180000D03*
%TD*%
%TO.P,TP4,1,1*%
%TO.N,/pc070_aida_hdmi_dp_single/CLK\u002A*%
X89850000Y-55400000D03*
%TD*%
%TO.P,TP44,1,1*%
%TO.N,/pc070_aida_hdmi_dp_single5/BUSY\u002A*%
X94100000Y-128218000D03*
%TD*%
%TO.P,TP35,1,1*%
%TO.N,/pc070_aida_hdmi_dp_single2/SPARE*%
X92100000Y-108112000D03*
%TD*%
%TO.P,TP3,1,1*%
%TO.N,/pc070_aida_hdmi_dp_single/CLK*%
X87850000Y-55400000D03*
%TD*%
%TO.P,TP19,1,1*%
%TO.N,/pc070_aida_hdmi_dp_single1/BUSY*%
X92100000Y-83006000D03*
%TD*%
%TO.P,TP51,1,1*%
%TO.N,/pc070_aida_hdmi_dp_single4/CLK*%
X87850000Y-145824000D03*
%TD*%
%TO.P,TP13,1,1*%
%TO.N,GND*%
X91100000Y-74756000D03*
%TD*%
D19*
%TO.N,GND*%
X81873021Y-126792647D03*
X85600000Y-124468000D03*
X101343316Y-122283648D03*
X81870174Y-129788648D03*
X81863782Y-128326593D03*
X101334707Y-125295789D03*
X101340978Y-123787010D03*
X101333441Y-126808477D03*
X81878041Y-131299536D03*
X81873021Y-149398647D03*
X85600000Y-147074000D03*
X101343316Y-144889648D03*
X81870174Y-152394648D03*
X81863782Y-150932593D03*
X101334707Y-147901789D03*
X101340978Y-146393010D03*
X101333441Y-149414477D03*
X81878041Y-153905536D03*
X81873021Y-172004647D03*
X85600000Y-169680000D03*
X101343316Y-167495648D03*
X81870174Y-175000648D03*
X81863782Y-173538593D03*
X101334707Y-170507789D03*
X101340978Y-168999010D03*
X101333441Y-172020477D03*
X81878041Y-176511536D03*
X81873021Y-104186647D03*
X85600000Y-101862000D03*
X101343316Y-99677648D03*
X81870174Y-107182648D03*
X81863782Y-105720593D03*
X101334707Y-102689789D03*
X101340978Y-101181010D03*
X101333441Y-104202477D03*
X81878041Y-108693536D03*
X81873021Y-81580647D03*
X85600000Y-79256000D03*
X101343316Y-77071648D03*
X81870174Y-84576648D03*
X81863782Y-83114593D03*
X101334707Y-80083789D03*
X101340978Y-78575010D03*
X101333441Y-81596477D03*
X81878041Y-86087536D03*
X81878041Y-63481536D03*
X101333441Y-58990477D03*
X101340978Y-55969010D03*
X101334707Y-57477789D03*
X81863782Y-60508593D03*
X81870174Y-61970648D03*
X101343316Y-54465648D03*
X85600000Y-56650000D03*
X81873021Y-58974647D03*
%TD*%
D20*
%TO.N,/pc070_aida_hdmi_dp_single5/CLK*%
X88950000Y-122118000D02*
X87850000Y-123218000D01*
X97535000Y-122118000D02*
X88950000Y-122118000D01*
X83560000Y-126303000D02*
X86128604Y-126303000D01*
X86128604Y-126303000D02*
X87850000Y-124581604D01*
X97850000Y-121803000D02*
X97535000Y-122118000D01*
X99675000Y-121803000D02*
X97850000Y-121803000D01*
X87850000Y-124581604D02*
X87850000Y-123218000D01*
%TO.N,/pc070_aida_hdmi_dp_single5/CLK\u002A*%
X97678198Y-122803000D02*
X97443198Y-122568000D01*
X90500000Y-122568000D02*
X89850000Y-123218000D01*
X83560000Y-127303000D02*
X85765000Y-127303000D01*
X85765000Y-127303000D02*
X89850000Y-123218000D01*
X99675000Y-122803000D02*
X97678198Y-122803000D01*
X97443198Y-122568000D02*
X90500000Y-122568000D01*
%TO.N,/pc070_aida_hdmi_dp_single5/CONT*%
X85397345Y-128018000D02*
X87800000Y-128018000D01*
X92225000Y-123593000D02*
X90100000Y-125718000D01*
X83560000Y-127803000D02*
X85182345Y-127803000D01*
X98215489Y-123303000D02*
X97925489Y-123593000D01*
X85182345Y-127803000D02*
X85397345Y-128018000D01*
X97925489Y-123593000D02*
X92225000Y-123593000D01*
X87800000Y-128018000D02*
X90100000Y-125718000D01*
X99675000Y-123303000D02*
X98215489Y-123303000D01*
%TO.N,/pc070_aida_hdmi_dp_single5/CONT\u002A*%
X87986396Y-128468000D02*
X89736396Y-126718000D01*
X85049022Y-128803000D02*
X85384022Y-128468000D01*
X83560000Y-128803000D02*
X85049022Y-128803000D01*
X97800000Y-124043000D02*
X92525000Y-124043000D01*
X85384022Y-128468000D02*
X87986396Y-128468000D01*
X98060000Y-124303000D02*
X97800000Y-124043000D01*
X89736396Y-126718000D02*
X91100000Y-126718000D01*
X99675000Y-124303000D02*
X98060000Y-124303000D01*
X92525000Y-124043000D02*
X92100000Y-124468000D01*
X91100000Y-126718000D02*
X92100000Y-125718000D01*
X92100000Y-124468000D02*
X92100000Y-125718000D01*
%TO.N,/pc070_aida_hdmi_dp_single5/BUSY*%
X89249520Y-129568480D02*
X90600000Y-128218000D01*
X92100000Y-128218000D02*
X90600000Y-128218000D01*
X98175000Y-124968000D02*
X95350000Y-124968000D01*
X83560000Y-129303000D02*
X84882345Y-129303000D01*
X95350000Y-124968000D02*
X92100000Y-128218000D01*
X99675000Y-124803000D02*
X98340000Y-124803000D01*
X98340000Y-124803000D02*
X98175000Y-124968000D01*
X84882345Y-129303000D02*
X85147825Y-129568480D01*
X85147825Y-129568480D02*
X89249520Y-129568480D01*
%TO.N,/pc070_aida_hdmi_dp_single5/BUSY\u002A*%
X95486396Y-125468000D02*
X94100000Y-126854396D01*
X94100000Y-126854396D02*
X94100000Y-128218000D01*
X93275000Y-129043000D02*
X90411396Y-129043000D01*
X94100000Y-128218000D02*
X93275000Y-129043000D01*
X99675000Y-125803000D02*
X98210000Y-125803000D01*
X85333542Y-130018480D02*
X85049022Y-130303000D01*
X98210000Y-125803000D02*
X97875000Y-125468000D01*
X90411396Y-129043000D02*
X89435916Y-130018480D01*
X97875000Y-125468000D02*
X95486396Y-125468000D01*
X89435916Y-130018480D02*
X85333542Y-130018480D01*
X85049022Y-130303000D02*
X83560000Y-130303000D01*
%TO.N,/pc070_aida_hdmi_dp_single5/SPARE*%
X97050000Y-126518000D02*
X98061396Y-126518000D01*
X95850000Y-127718000D02*
X97050000Y-126518000D01*
X85485000Y-130803000D02*
X85925000Y-131243000D01*
X95850000Y-128968000D02*
X95850000Y-127718000D01*
X93100000Y-129718000D02*
X95100000Y-129718000D01*
X98061396Y-126518000D02*
X98276396Y-126303000D01*
X95100000Y-129718000D02*
X95850000Y-128968000D01*
X91575000Y-131243000D02*
X92100000Y-130718000D01*
X83560000Y-130803000D02*
X85485000Y-130803000D01*
X92100000Y-130718000D02*
X93100000Y-129718000D01*
X85925000Y-131243000D02*
X91575000Y-131243000D01*
X98276396Y-126303000D02*
X99675000Y-126303000D01*
%TO.N,/pc070_aida_hdmi_dp_single5/SPARE\u002A*%
X93125000Y-131693000D02*
X94100000Y-130718000D01*
X96300000Y-128018000D02*
X96300000Y-129154396D01*
X85590000Y-131803000D02*
X83560000Y-131803000D01*
X97350000Y-126968000D02*
X96300000Y-128018000D01*
X94736396Y-130718000D02*
X94100000Y-130718000D01*
X97875000Y-126968000D02*
X97350000Y-126968000D01*
X99675000Y-127303000D02*
X98210000Y-127303000D01*
X93763604Y-130518000D02*
X93788604Y-130518000D01*
X98210000Y-127303000D02*
X97875000Y-126968000D01*
X85700000Y-131693000D02*
X93125000Y-131693000D01*
X96300000Y-129154396D02*
X94736396Y-130718000D01*
X85700000Y-131693000D02*
X85590000Y-131803000D01*
%TO.N,/pc070_aida_hdmi_dp_single5/TRIG*%
X96900000Y-130918000D02*
X91850000Y-135968000D01*
X83560000Y-124803000D02*
X79451396Y-124803000D01*
X96900000Y-130031604D02*
X96900000Y-130918000D01*
X86950000Y-137118000D02*
X88100000Y-135968000D01*
X77850000Y-126404396D02*
X77850000Y-134968000D01*
X99675000Y-128803000D02*
X98128604Y-128803000D01*
X80000000Y-137118000D02*
X86950000Y-137118000D01*
X79451396Y-124803000D02*
X77850000Y-126404396D01*
X77850000Y-134968000D02*
X80000000Y-137118000D01*
X91850000Y-135968000D02*
X88850000Y-135968000D01*
X98128604Y-128803000D02*
X96900000Y-130031604D01*
X88100000Y-135968000D02*
X88850000Y-135968000D01*
%TO.N,/pc070_aida_hdmi_dp_single5/TRIG\u002A*%
X83560000Y-123803000D02*
X79765000Y-123803000D01*
X77400000Y-126168000D02*
X77400000Y-135154396D01*
X98265000Y-129303000D02*
X97350000Y-130218000D01*
X99675000Y-129303000D02*
X98265000Y-129303000D01*
X87850000Y-137968000D02*
X88850000Y-137968000D01*
X90486396Y-137968000D02*
X88850000Y-137968000D01*
X77400000Y-135154396D02*
X79963604Y-137718000D01*
X97350000Y-131104396D02*
X90486396Y-137968000D01*
X97350000Y-130218000D02*
X97350000Y-131104396D01*
X87600000Y-137718000D02*
X87850000Y-137968000D01*
X79963604Y-137718000D02*
X87600000Y-137718000D01*
X79765000Y-123803000D02*
X77400000Y-126168000D01*
%TO.N,GND*%
X101323964Y-122303000D02*
X101343316Y-122283648D01*
X99675000Y-122303000D02*
X101323964Y-122303000D01*
X101324988Y-123803000D02*
X101340978Y-123787010D01*
X99675000Y-123803000D02*
X101324988Y-123803000D01*
X85435000Y-124303000D02*
X85600000Y-124468000D01*
X83560000Y-128303000D02*
X81887375Y-128303000D01*
X99675000Y-126803000D02*
X101327964Y-126803000D01*
X83560000Y-131303000D02*
X81881505Y-131303000D01*
X99675000Y-125303000D02*
X101327496Y-125303000D01*
X83560000Y-124303000D02*
X85435000Y-124303000D01*
X83560000Y-126803000D02*
X81883374Y-126803000D01*
X81883374Y-126803000D02*
X81873021Y-126792647D01*
X83560000Y-129803000D02*
X81884526Y-129803000D01*
X101327964Y-126803000D02*
X101333441Y-126808477D01*
X81884526Y-129803000D02*
X81870174Y-129788648D01*
X81887375Y-128303000D02*
X81863782Y-128326593D01*
X81881505Y-131303000D02*
X81878041Y-131299536D01*
X101327496Y-125303000D02*
X101334707Y-125295789D01*
%TO.N,/pc070_aida_hdmi_dp_single4/CLK*%
X88950000Y-144724000D02*
X87850000Y-145824000D01*
X97535000Y-144724000D02*
X88950000Y-144724000D01*
X83560000Y-148909000D02*
X86128604Y-148909000D01*
X86128604Y-148909000D02*
X87850000Y-147187604D01*
X97850000Y-144409000D02*
X97535000Y-144724000D01*
X99675000Y-144409000D02*
X97850000Y-144409000D01*
X87850000Y-147187604D02*
X87850000Y-145824000D01*
%TO.N,/pc070_aida_hdmi_dp_single4/CLK\u002A*%
X97678198Y-145409000D02*
X97443198Y-145174000D01*
X90500000Y-145174000D02*
X89850000Y-145824000D01*
X83560000Y-149909000D02*
X85765000Y-149909000D01*
X85765000Y-149909000D02*
X89850000Y-145824000D01*
X99675000Y-145409000D02*
X97678198Y-145409000D01*
X97443198Y-145174000D02*
X90500000Y-145174000D01*
%TO.N,/pc070_aida_hdmi_dp_single4/CONT*%
X85397345Y-150624000D02*
X87800000Y-150624000D01*
X92225000Y-146199000D02*
X90100000Y-148324000D01*
X83560000Y-150409000D02*
X85182345Y-150409000D01*
X98215489Y-145909000D02*
X97925489Y-146199000D01*
X85182345Y-150409000D02*
X85397345Y-150624000D01*
X97925489Y-146199000D02*
X92225000Y-146199000D01*
X87800000Y-150624000D02*
X90100000Y-148324000D01*
X99675000Y-145909000D02*
X98215489Y-145909000D01*
%TO.N,/pc070_aida_hdmi_dp_single4/CONT\u002A*%
X87986396Y-151074000D02*
X89736396Y-149324000D01*
X85049022Y-151409000D02*
X85384022Y-151074000D01*
X83560000Y-151409000D02*
X85049022Y-151409000D01*
X97800000Y-146649000D02*
X92525000Y-146649000D01*
X85384022Y-151074000D02*
X87986396Y-151074000D01*
X98060000Y-146909000D02*
X97800000Y-146649000D01*
X89736396Y-149324000D02*
X91100000Y-149324000D01*
X99675000Y-146909000D02*
X98060000Y-146909000D01*
X92525000Y-146649000D02*
X92100000Y-147074000D01*
X91100000Y-149324000D02*
X92100000Y-148324000D01*
X92100000Y-147074000D02*
X92100000Y-148324000D01*
%TO.N,/pc070_aida_hdmi_dp_single4/BUSY*%
X89249520Y-152174480D02*
X90600000Y-150824000D01*
X92100000Y-150824000D02*
X90600000Y-150824000D01*
X98175000Y-147574000D02*
X95350000Y-147574000D01*
X83560000Y-151909000D02*
X84882345Y-151909000D01*
X95350000Y-147574000D02*
X92100000Y-150824000D01*
X99675000Y-147409000D02*
X98340000Y-147409000D01*
X98340000Y-147409000D02*
X98175000Y-147574000D01*
X84882345Y-151909000D02*
X85147825Y-152174480D01*
X85147825Y-152174480D02*
X89249520Y-152174480D01*
%TO.N,/pc070_aida_hdmi_dp_single4/BUSY\u002A*%
X95486396Y-148074000D02*
X94100000Y-149460396D01*
X94100000Y-149460396D02*
X94100000Y-150824000D01*
X93275000Y-151649000D02*
X90411396Y-151649000D01*
X94100000Y-150824000D02*
X93275000Y-151649000D01*
X99675000Y-148409000D02*
X98210000Y-148409000D01*
X85333542Y-152624480D02*
X85049022Y-152909000D01*
X98210000Y-148409000D02*
X97875000Y-148074000D01*
X90411396Y-151649000D02*
X89435916Y-152624480D01*
X97875000Y-148074000D02*
X95486396Y-148074000D01*
X89435916Y-152624480D02*
X85333542Y-152624480D01*
X85049022Y-152909000D02*
X83560000Y-152909000D01*
%TO.N,/pc070_aida_hdmi_dp_single4/SPARE*%
X97050000Y-149124000D02*
X98061396Y-149124000D01*
X95850000Y-150324000D02*
X97050000Y-149124000D01*
X85485000Y-153409000D02*
X85925000Y-153849000D01*
X95850000Y-151574000D02*
X95850000Y-150324000D01*
X93100000Y-152324000D02*
X95100000Y-152324000D01*
X98061396Y-149124000D02*
X98276396Y-148909000D01*
X95100000Y-152324000D02*
X95850000Y-151574000D01*
X91575000Y-153849000D02*
X92100000Y-153324000D01*
X83560000Y-153409000D02*
X85485000Y-153409000D01*
X92100000Y-153324000D02*
X93100000Y-152324000D01*
X85925000Y-153849000D02*
X91575000Y-153849000D01*
X98276396Y-148909000D02*
X99675000Y-148909000D01*
%TO.N,/pc070_aida_hdmi_dp_single4/SPARE\u002A*%
X93125000Y-154299000D02*
X94100000Y-153324000D01*
X96300000Y-150624000D02*
X96300000Y-151760396D01*
X85590000Y-154409000D02*
X83560000Y-154409000D01*
X97350000Y-149574000D02*
X96300000Y-150624000D01*
X94736396Y-153324000D02*
X94100000Y-153324000D01*
X97875000Y-149574000D02*
X97350000Y-149574000D01*
X99675000Y-149909000D02*
X98210000Y-149909000D01*
X93763604Y-153124000D02*
X93788604Y-153124000D01*
X98210000Y-149909000D02*
X97875000Y-149574000D01*
X85700000Y-154299000D02*
X93125000Y-154299000D01*
X96300000Y-151760396D02*
X94736396Y-153324000D01*
X85700000Y-154299000D02*
X85590000Y-154409000D01*
%TO.N,/pc070_aida_hdmi_dp_single4/TRIG*%
X96900000Y-153524000D02*
X91850000Y-158574000D01*
X83560000Y-147409000D02*
X79451396Y-147409000D01*
X96900000Y-152637604D02*
X96900000Y-153524000D01*
X86950000Y-159724000D02*
X88100000Y-158574000D01*
X77850000Y-149010396D02*
X77850000Y-157574000D01*
X99675000Y-151409000D02*
X98128604Y-151409000D01*
X80000000Y-159724000D02*
X86950000Y-159724000D01*
X79451396Y-147409000D02*
X77850000Y-149010396D01*
X77850000Y-157574000D02*
X80000000Y-159724000D01*
X91850000Y-158574000D02*
X88850000Y-158574000D01*
X98128604Y-151409000D02*
X96900000Y-152637604D01*
X88100000Y-158574000D02*
X88850000Y-158574000D01*
%TO.N,/pc070_aida_hdmi_dp_single4/TRIG\u002A*%
X83560000Y-146409000D02*
X79765000Y-146409000D01*
X77400000Y-148774000D02*
X77400000Y-157760396D01*
X98265000Y-151909000D02*
X97350000Y-152824000D01*
X99675000Y-151909000D02*
X98265000Y-151909000D01*
X87850000Y-160574000D02*
X88850000Y-160574000D01*
X90486396Y-160574000D02*
X88850000Y-160574000D01*
X77400000Y-157760396D02*
X79963604Y-160324000D01*
X97350000Y-153710396D02*
X90486396Y-160574000D01*
X97350000Y-152824000D02*
X97350000Y-153710396D01*
X87600000Y-160324000D02*
X87850000Y-160574000D01*
X79963604Y-160324000D02*
X87600000Y-160324000D01*
X79765000Y-146409000D02*
X77400000Y-148774000D01*
%TO.N,GND*%
X101323964Y-144909000D02*
X101343316Y-144889648D01*
X99675000Y-144909000D02*
X101323964Y-144909000D01*
X101324988Y-146409000D02*
X101340978Y-146393010D01*
X99675000Y-146409000D02*
X101324988Y-146409000D01*
X85435000Y-146909000D02*
X85600000Y-147074000D01*
X83560000Y-150909000D02*
X81887375Y-150909000D01*
X99675000Y-149409000D02*
X101327964Y-149409000D01*
X83560000Y-153909000D02*
X81881505Y-153909000D01*
X99675000Y-147909000D02*
X101327496Y-147909000D01*
X83560000Y-146909000D02*
X85435000Y-146909000D01*
X83560000Y-149409000D02*
X81883374Y-149409000D01*
X81883374Y-149409000D02*
X81873021Y-149398647D01*
X83560000Y-152409000D02*
X81884526Y-152409000D01*
X101327964Y-149409000D02*
X101333441Y-149414477D01*
X81884526Y-152409000D02*
X81870174Y-152394648D01*
X81887375Y-150909000D02*
X81863782Y-150932593D01*
X81881505Y-153909000D02*
X81878041Y-153905536D01*
X101327496Y-147909000D02*
X101334707Y-147901789D01*
%TO.N,/pc070_aida_hdmi_dp_single3/CLK*%
X88950000Y-167330000D02*
X87850000Y-168430000D01*
X97535000Y-167330000D02*
X88950000Y-167330000D01*
X83560000Y-171515000D02*
X86128604Y-171515000D01*
X86128604Y-171515000D02*
X87850000Y-169793604D01*
X97850000Y-167015000D02*
X97535000Y-167330000D01*
X99675000Y-167015000D02*
X97850000Y-167015000D01*
X87850000Y-169793604D02*
X87850000Y-168430000D01*
%TO.N,/pc070_aida_hdmi_dp_single3/CLK\u002A*%
X97678198Y-168015000D02*
X97443198Y-167780000D01*
X90500000Y-167780000D02*
X89850000Y-168430000D01*
X83560000Y-172515000D02*
X85765000Y-172515000D01*
X85765000Y-172515000D02*
X89850000Y-168430000D01*
X99675000Y-168015000D02*
X97678198Y-168015000D01*
X97443198Y-167780000D02*
X90500000Y-167780000D01*
%TO.N,/pc070_aida_hdmi_dp_single3/CONT*%
X85397345Y-173230000D02*
X87800000Y-173230000D01*
X92225000Y-168805000D02*
X90100000Y-170930000D01*
X83560000Y-173015000D02*
X85182345Y-173015000D01*
X98215489Y-168515000D02*
X97925489Y-168805000D01*
X85182345Y-173015000D02*
X85397345Y-173230000D01*
X97925489Y-168805000D02*
X92225000Y-168805000D01*
X87800000Y-173230000D02*
X90100000Y-170930000D01*
X99675000Y-168515000D02*
X98215489Y-168515000D01*
%TO.N,/pc070_aida_hdmi_dp_single3/CONT\u002A*%
X87986396Y-173680000D02*
X89736396Y-171930000D01*
X85049022Y-174015000D02*
X85384022Y-173680000D01*
X83560000Y-174015000D02*
X85049022Y-174015000D01*
X97800000Y-169255000D02*
X92525000Y-169255000D01*
X85384022Y-173680000D02*
X87986396Y-173680000D01*
X98060000Y-169515000D02*
X97800000Y-169255000D01*
X89736396Y-171930000D02*
X91100000Y-171930000D01*
X99675000Y-169515000D02*
X98060000Y-169515000D01*
X92525000Y-169255000D02*
X92100000Y-169680000D01*
X91100000Y-171930000D02*
X92100000Y-170930000D01*
X92100000Y-169680000D02*
X92100000Y-170930000D01*
%TO.N,/pc070_aida_hdmi_dp_single3/BUSY*%
X89249520Y-174780480D02*
X90600000Y-173430000D01*
X92100000Y-173430000D02*
X90600000Y-173430000D01*
X98175000Y-170180000D02*
X95350000Y-170180000D01*
X83560000Y-174515000D02*
X84882345Y-174515000D01*
X95350000Y-170180000D02*
X92100000Y-173430000D01*
X99675000Y-170015000D02*
X98340000Y-170015000D01*
X98340000Y-170015000D02*
X98175000Y-170180000D01*
X84882345Y-174515000D02*
X85147825Y-174780480D01*
X85147825Y-174780480D02*
X89249520Y-174780480D01*
%TO.N,/pc070_aida_hdmi_dp_single3/BUSY\u002A*%
X95486396Y-170680000D02*
X94100000Y-172066396D01*
X94100000Y-172066396D02*
X94100000Y-173430000D01*
X93275000Y-174255000D02*
X90411396Y-174255000D01*
X94100000Y-173430000D02*
X93275000Y-174255000D01*
X99675000Y-171015000D02*
X98210000Y-171015000D01*
X85333542Y-175230480D02*
X85049022Y-175515000D01*
X98210000Y-171015000D02*
X97875000Y-170680000D01*
X90411396Y-174255000D02*
X89435916Y-175230480D01*
X97875000Y-170680000D02*
X95486396Y-170680000D01*
X89435916Y-175230480D02*
X85333542Y-175230480D01*
X85049022Y-175515000D02*
X83560000Y-175515000D01*
%TO.N,/pc070_aida_hdmi_dp_single3/SPARE*%
X97050000Y-171730000D02*
X98061396Y-171730000D01*
X95850000Y-172930000D02*
X97050000Y-171730000D01*
X85485000Y-176015000D02*
X85925000Y-176455000D01*
X95850000Y-174180000D02*
X95850000Y-172930000D01*
X93100000Y-174930000D02*
X95100000Y-174930000D01*
X98061396Y-171730000D02*
X98276396Y-171515000D01*
X95100000Y-174930000D02*
X95850000Y-174180000D01*
X91575000Y-176455000D02*
X92100000Y-175930000D01*
X83560000Y-176015000D02*
X85485000Y-176015000D01*
X92100000Y-175930000D02*
X93100000Y-174930000D01*
X85925000Y-176455000D02*
X91575000Y-176455000D01*
X98276396Y-171515000D02*
X99675000Y-171515000D01*
%TO.N,/pc070_aida_hdmi_dp_single3/SPARE\u002A*%
X93125000Y-176905000D02*
X94100000Y-175930000D01*
X96300000Y-173230000D02*
X96300000Y-174366396D01*
X85590000Y-177015000D02*
X83560000Y-177015000D01*
X97350000Y-172180000D02*
X96300000Y-173230000D01*
X94736396Y-175930000D02*
X94100000Y-175930000D01*
X97875000Y-172180000D02*
X97350000Y-172180000D01*
X99675000Y-172515000D02*
X98210000Y-172515000D01*
X93763604Y-175730000D02*
X93788604Y-175730000D01*
X98210000Y-172515000D02*
X97875000Y-172180000D01*
X85700000Y-176905000D02*
X93125000Y-176905000D01*
X96300000Y-174366396D02*
X94736396Y-175930000D01*
X85700000Y-176905000D02*
X85590000Y-177015000D01*
%TO.N,/pc070_aida_hdmi_dp_single3/TRIG*%
X96900000Y-176130000D02*
X91850000Y-181180000D01*
X83560000Y-170015000D02*
X79451396Y-170015000D01*
X96900000Y-175243604D02*
X96900000Y-176130000D01*
X86950000Y-182330000D02*
X88100000Y-181180000D01*
X77850000Y-171616396D02*
X77850000Y-180180000D01*
X99675000Y-174015000D02*
X98128604Y-174015000D01*
X80000000Y-182330000D02*
X86950000Y-182330000D01*
X79451396Y-170015000D02*
X77850000Y-171616396D01*
X77850000Y-180180000D02*
X80000000Y-182330000D01*
X91850000Y-181180000D02*
X88850000Y-181180000D01*
X98128604Y-174015000D02*
X96900000Y-175243604D01*
X88100000Y-181180000D02*
X88850000Y-181180000D01*
%TO.N,/pc070_aida_hdmi_dp_single3/TRIG\u002A*%
X83560000Y-169015000D02*
X79765000Y-169015000D01*
X77400000Y-171380000D02*
X77400000Y-180366396D01*
X98265000Y-174515000D02*
X97350000Y-175430000D01*
X99675000Y-174515000D02*
X98265000Y-174515000D01*
X87850000Y-183180000D02*
X88850000Y-183180000D01*
X90486396Y-183180000D02*
X88850000Y-183180000D01*
X77400000Y-180366396D02*
X79963604Y-182930000D01*
X97350000Y-176316396D02*
X90486396Y-183180000D01*
X97350000Y-175430000D02*
X97350000Y-176316396D01*
X87600000Y-182930000D02*
X87850000Y-183180000D01*
X79963604Y-182930000D02*
X87600000Y-182930000D01*
X79765000Y-169015000D02*
X77400000Y-171380000D01*
%TO.N,GND*%
X101323964Y-167515000D02*
X101343316Y-167495648D01*
X99675000Y-167515000D02*
X101323964Y-167515000D01*
X101324988Y-169015000D02*
X101340978Y-168999010D01*
X99675000Y-169015000D02*
X101324988Y-169015000D01*
X85435000Y-169515000D02*
X85600000Y-169680000D01*
X83560000Y-173515000D02*
X81887375Y-173515000D01*
X99675000Y-172015000D02*
X101327964Y-172015000D01*
X83560000Y-176515000D02*
X81881505Y-176515000D01*
X99675000Y-170515000D02*
X101327496Y-170515000D01*
X83560000Y-169515000D02*
X85435000Y-169515000D01*
X83560000Y-172015000D02*
X81883374Y-172015000D01*
X81883374Y-172015000D02*
X81873021Y-172004647D01*
X83560000Y-175015000D02*
X81884526Y-175015000D01*
X101327964Y-172015000D02*
X101333441Y-172020477D01*
X81884526Y-175015000D02*
X81870174Y-175000648D01*
X81887375Y-173515000D02*
X81863782Y-173538593D01*
X81881505Y-176515000D02*
X81878041Y-176511536D01*
X101327496Y-170515000D02*
X101334707Y-170507789D01*
%TO.N,/pc070_aida_hdmi_dp_single2/CLK*%
X88950000Y-99512000D02*
X87850000Y-100612000D01*
X97535000Y-99512000D02*
X88950000Y-99512000D01*
X83560000Y-103697000D02*
X86128604Y-103697000D01*
X86128604Y-103697000D02*
X87850000Y-101975604D01*
X97850000Y-99197000D02*
X97535000Y-99512000D01*
X99675000Y-99197000D02*
X97850000Y-99197000D01*
X87850000Y-101975604D02*
X87850000Y-100612000D01*
%TO.N,/pc070_aida_hdmi_dp_single2/CLK\u002A*%
X97678198Y-100197000D02*
X97443198Y-99962000D01*
X90500000Y-99962000D02*
X89850000Y-100612000D01*
X83560000Y-104697000D02*
X85765000Y-104697000D01*
X85765000Y-104697000D02*
X89850000Y-100612000D01*
X99675000Y-100197000D02*
X97678198Y-100197000D01*
X97443198Y-99962000D02*
X90500000Y-99962000D01*
%TO.N,/pc070_aida_hdmi_dp_single2/CONT*%
X85397345Y-105412000D02*
X87800000Y-105412000D01*
X92225000Y-100987000D02*
X90100000Y-103112000D01*
X83560000Y-105197000D02*
X85182345Y-105197000D01*
X98215489Y-100697000D02*
X97925489Y-100987000D01*
X85182345Y-105197000D02*
X85397345Y-105412000D01*
X97925489Y-100987000D02*
X92225000Y-100987000D01*
X87800000Y-105412000D02*
X90100000Y-103112000D01*
X99675000Y-100697000D02*
X98215489Y-100697000D01*
%TO.N,/pc070_aida_hdmi_dp_single2/CONT\u002A*%
X87986396Y-105862000D02*
X89736396Y-104112000D01*
X85049022Y-106197000D02*
X85384022Y-105862000D01*
X83560000Y-106197000D02*
X85049022Y-106197000D01*
X97800000Y-101437000D02*
X92525000Y-101437000D01*
X85384022Y-105862000D02*
X87986396Y-105862000D01*
X98060000Y-101697000D02*
X97800000Y-101437000D01*
X89736396Y-104112000D02*
X91100000Y-104112000D01*
X99675000Y-101697000D02*
X98060000Y-101697000D01*
X92525000Y-101437000D02*
X92100000Y-101862000D01*
X91100000Y-104112000D02*
X92100000Y-103112000D01*
X92100000Y-101862000D02*
X92100000Y-103112000D01*
%TO.N,/pc070_aida_hdmi_dp_single2/BUSY*%
X89249520Y-106962480D02*
X90600000Y-105612000D01*
X92100000Y-105612000D02*
X90600000Y-105612000D01*
X98175000Y-102362000D02*
X95350000Y-102362000D01*
X83560000Y-106697000D02*
X84882345Y-106697000D01*
X95350000Y-102362000D02*
X92100000Y-105612000D01*
X99675000Y-102197000D02*
X98340000Y-102197000D01*
X98340000Y-102197000D02*
X98175000Y-102362000D01*
X84882345Y-106697000D02*
X85147825Y-106962480D01*
X85147825Y-106962480D02*
X89249520Y-106962480D01*
%TO.N,/pc070_aida_hdmi_dp_single2/BUSY\u002A*%
X95486396Y-102862000D02*
X94100000Y-104248396D01*
X94100000Y-104248396D02*
X94100000Y-105612000D01*
X93275000Y-106437000D02*
X90411396Y-106437000D01*
X94100000Y-105612000D02*
X93275000Y-106437000D01*
X99675000Y-103197000D02*
X98210000Y-103197000D01*
X85333542Y-107412480D02*
X85049022Y-107697000D01*
X98210000Y-103197000D02*
X97875000Y-102862000D01*
X90411396Y-106437000D02*
X89435916Y-107412480D01*
X97875000Y-102862000D02*
X95486396Y-102862000D01*
X89435916Y-107412480D02*
X85333542Y-107412480D01*
X85049022Y-107697000D02*
X83560000Y-107697000D01*
%TO.N,/pc070_aida_hdmi_dp_single2/SPARE*%
X97050000Y-103912000D02*
X98061396Y-103912000D01*
X95850000Y-105112000D02*
X97050000Y-103912000D01*
X85485000Y-108197000D02*
X85925000Y-108637000D01*
X95850000Y-106362000D02*
X95850000Y-105112000D01*
X93100000Y-107112000D02*
X95100000Y-107112000D01*
X98061396Y-103912000D02*
X98276396Y-103697000D01*
X95100000Y-107112000D02*
X95850000Y-106362000D01*
X91575000Y-108637000D02*
X92100000Y-108112000D01*
X83560000Y-108197000D02*
X85485000Y-108197000D01*
X92100000Y-108112000D02*
X93100000Y-107112000D01*
X85925000Y-108637000D02*
X91575000Y-108637000D01*
X98276396Y-103697000D02*
X99675000Y-103697000D01*
%TO.N,/pc070_aida_hdmi_dp_single2/SPARE\u002A*%
X93125000Y-109087000D02*
X94100000Y-108112000D01*
X96300000Y-105412000D02*
X96300000Y-106548396D01*
X85590000Y-109197000D02*
X83560000Y-109197000D01*
X97350000Y-104362000D02*
X96300000Y-105412000D01*
X94736396Y-108112000D02*
X94100000Y-108112000D01*
X97875000Y-104362000D02*
X97350000Y-104362000D01*
X99675000Y-104697000D02*
X98210000Y-104697000D01*
X93763604Y-107912000D02*
X93788604Y-107912000D01*
X98210000Y-104697000D02*
X97875000Y-104362000D01*
X85700000Y-109087000D02*
X93125000Y-109087000D01*
X96300000Y-106548396D02*
X94736396Y-108112000D01*
X85700000Y-109087000D02*
X85590000Y-109197000D01*
%TO.N,/pc070_aida_hdmi_dp_single2/TRIG*%
X96900000Y-108312000D02*
X91850000Y-113362000D01*
X83560000Y-102197000D02*
X79451396Y-102197000D01*
X96900000Y-107425604D02*
X96900000Y-108312000D01*
X86950000Y-114512000D02*
X88100000Y-113362000D01*
X77850000Y-103798396D02*
X77850000Y-112362000D01*
X99675000Y-106197000D02*
X98128604Y-106197000D01*
X80000000Y-114512000D02*
X86950000Y-114512000D01*
X79451396Y-102197000D02*
X77850000Y-103798396D01*
X77850000Y-112362000D02*
X80000000Y-114512000D01*
X91850000Y-113362000D02*
X88850000Y-113362000D01*
X98128604Y-106197000D02*
X96900000Y-107425604D01*
X88100000Y-113362000D02*
X88850000Y-113362000D01*
%TO.N,/pc070_aida_hdmi_dp_single2/TRIG\u002A*%
X83560000Y-101197000D02*
X79765000Y-101197000D01*
X77400000Y-103562000D02*
X77400000Y-112548396D01*
X98265000Y-106697000D02*
X97350000Y-107612000D01*
X99675000Y-106697000D02*
X98265000Y-106697000D01*
X87850000Y-115362000D02*
X88850000Y-115362000D01*
X90486396Y-115362000D02*
X88850000Y-115362000D01*
X77400000Y-112548396D02*
X79963604Y-115112000D01*
X97350000Y-108498396D02*
X90486396Y-115362000D01*
X97350000Y-107612000D02*
X97350000Y-108498396D01*
X87600000Y-115112000D02*
X87850000Y-115362000D01*
X79963604Y-115112000D02*
X87600000Y-115112000D01*
X79765000Y-101197000D02*
X77400000Y-103562000D01*
%TO.N,GND*%
X101323964Y-99697000D02*
X101343316Y-99677648D01*
X99675000Y-99697000D02*
X101323964Y-99697000D01*
X101324988Y-101197000D02*
X101340978Y-101181010D01*
X99675000Y-101197000D02*
X101324988Y-101197000D01*
X85435000Y-101697000D02*
X85600000Y-101862000D01*
X83560000Y-105697000D02*
X81887375Y-105697000D01*
X99675000Y-104197000D02*
X101327964Y-104197000D01*
X83560000Y-108697000D02*
X81881505Y-108697000D01*
X99675000Y-102697000D02*
X101327496Y-102697000D01*
X83560000Y-101697000D02*
X85435000Y-101697000D01*
X83560000Y-104197000D02*
X81883374Y-104197000D01*
X81883374Y-104197000D02*
X81873021Y-104186647D01*
X83560000Y-107197000D02*
X81884526Y-107197000D01*
X101327964Y-104197000D02*
X101333441Y-104202477D01*
X81884526Y-107197000D02*
X81870174Y-107182648D01*
X81887375Y-105697000D02*
X81863782Y-105720593D01*
X81881505Y-108697000D02*
X81878041Y-108693536D01*
X101327496Y-102697000D02*
X101334707Y-102689789D01*
%TO.N,/pc070_aida_hdmi_dp_single1/CLK*%
X88950000Y-76906000D02*
X87850000Y-78006000D01*
X97535000Y-76906000D02*
X88950000Y-76906000D01*
X83560000Y-81091000D02*
X86128604Y-81091000D01*
X86128604Y-81091000D02*
X87850000Y-79369604D01*
X97850000Y-76591000D02*
X97535000Y-76906000D01*
X99675000Y-76591000D02*
X97850000Y-76591000D01*
X87850000Y-79369604D02*
X87850000Y-78006000D01*
%TO.N,/pc070_aida_hdmi_dp_single1/CLK\u002A*%
X97678198Y-77591000D02*
X97443198Y-77356000D01*
X90500000Y-77356000D02*
X89850000Y-78006000D01*
X83560000Y-82091000D02*
X85765000Y-82091000D01*
X85765000Y-82091000D02*
X89850000Y-78006000D01*
X99675000Y-77591000D02*
X97678198Y-77591000D01*
X97443198Y-77356000D02*
X90500000Y-77356000D01*
%TO.N,/pc070_aida_hdmi_dp_single1/CONT*%
X85397345Y-82806000D02*
X87800000Y-82806000D01*
X92225000Y-78381000D02*
X90100000Y-80506000D01*
X83560000Y-82591000D02*
X85182345Y-82591000D01*
X98215489Y-78091000D02*
X97925489Y-78381000D01*
X85182345Y-82591000D02*
X85397345Y-82806000D01*
X97925489Y-78381000D02*
X92225000Y-78381000D01*
X87800000Y-82806000D02*
X90100000Y-80506000D01*
X99675000Y-78091000D02*
X98215489Y-78091000D01*
%TO.N,/pc070_aida_hdmi_dp_single1/CONT\u002A*%
X87986396Y-83256000D02*
X89736396Y-81506000D01*
X85049022Y-83591000D02*
X85384022Y-83256000D01*
X83560000Y-83591000D02*
X85049022Y-83591000D01*
X97800000Y-78831000D02*
X92525000Y-78831000D01*
X85384022Y-83256000D02*
X87986396Y-83256000D01*
X98060000Y-79091000D02*
X97800000Y-78831000D01*
X89736396Y-81506000D02*
X91100000Y-81506000D01*
X99675000Y-79091000D02*
X98060000Y-79091000D01*
X92525000Y-78831000D02*
X92100000Y-79256000D01*
X91100000Y-81506000D02*
X92100000Y-80506000D01*
X92100000Y-79256000D02*
X92100000Y-80506000D01*
%TO.N,/pc070_aida_hdmi_dp_single1/BUSY*%
X89249520Y-84356480D02*
X90600000Y-83006000D01*
X92100000Y-83006000D02*
X90600000Y-83006000D01*
X98175000Y-79756000D02*
X95350000Y-79756000D01*
X83560000Y-84091000D02*
X84882345Y-84091000D01*
X95350000Y-79756000D02*
X92100000Y-83006000D01*
X99675000Y-79591000D02*
X98340000Y-79591000D01*
X98340000Y-79591000D02*
X98175000Y-79756000D01*
X84882345Y-84091000D02*
X85147825Y-84356480D01*
X85147825Y-84356480D02*
X89249520Y-84356480D01*
%TO.N,/pc070_aida_hdmi_dp_single1/BUSY\u002A*%
X95486396Y-80256000D02*
X94100000Y-81642396D01*
X94100000Y-81642396D02*
X94100000Y-83006000D01*
X93275000Y-83831000D02*
X90411396Y-83831000D01*
X94100000Y-83006000D02*
X93275000Y-83831000D01*
X99675000Y-80591000D02*
X98210000Y-80591000D01*
X85333542Y-84806480D02*
X85049022Y-85091000D01*
X98210000Y-80591000D02*
X97875000Y-80256000D01*
X90411396Y-83831000D02*
X89435916Y-84806480D01*
X97875000Y-80256000D02*
X95486396Y-80256000D01*
X89435916Y-84806480D02*
X85333542Y-84806480D01*
X85049022Y-85091000D02*
X83560000Y-85091000D01*
%TO.N,/pc070_aida_hdmi_dp_single1/SPARE*%
X97050000Y-81306000D02*
X98061396Y-81306000D01*
X95850000Y-82506000D02*
X97050000Y-81306000D01*
X85485000Y-85591000D02*
X85925000Y-86031000D01*
X95850000Y-83756000D02*
X95850000Y-82506000D01*
X93100000Y-84506000D02*
X95100000Y-84506000D01*
X98061396Y-81306000D02*
X98276396Y-81091000D01*
X95100000Y-84506000D02*
X95850000Y-83756000D01*
X91575000Y-86031000D02*
X92100000Y-85506000D01*
X83560000Y-85591000D02*
X85485000Y-85591000D01*
X92100000Y-85506000D02*
X93100000Y-84506000D01*
X85925000Y-86031000D02*
X91575000Y-86031000D01*
X98276396Y-81091000D02*
X99675000Y-81091000D01*
%TO.N,/pc070_aida_hdmi_dp_single1/SPARE\u002A*%
X93125000Y-86481000D02*
X94100000Y-85506000D01*
X96300000Y-82806000D02*
X96300000Y-83942396D01*
X85590000Y-86591000D02*
X83560000Y-86591000D01*
X97350000Y-81756000D02*
X96300000Y-82806000D01*
X94736396Y-85506000D02*
X94100000Y-85506000D01*
X97875000Y-81756000D02*
X97350000Y-81756000D01*
X99675000Y-82091000D02*
X98210000Y-82091000D01*
X93763604Y-85306000D02*
X93788604Y-85306000D01*
X98210000Y-82091000D02*
X97875000Y-81756000D01*
X85700000Y-86481000D02*
X93125000Y-86481000D01*
X96300000Y-83942396D02*
X94736396Y-85506000D01*
X85700000Y-86481000D02*
X85590000Y-86591000D01*
%TO.N,/pc070_aida_hdmi_dp_single1/TRIG*%
X96900000Y-85706000D02*
X91850000Y-90756000D01*
X83560000Y-79591000D02*
X79451396Y-79591000D01*
X96900000Y-84819604D02*
X96900000Y-85706000D01*
X86950000Y-91906000D02*
X88100000Y-90756000D01*
X77850000Y-81192396D02*
X77850000Y-89756000D01*
X99675000Y-83591000D02*
X98128604Y-83591000D01*
X80000000Y-91906000D02*
X86950000Y-91906000D01*
X79451396Y-79591000D02*
X77850000Y-81192396D01*
X77850000Y-89756000D02*
X80000000Y-91906000D01*
X91850000Y-90756000D02*
X88850000Y-90756000D01*
X98128604Y-83591000D02*
X96900000Y-84819604D01*
X88100000Y-90756000D02*
X88850000Y-90756000D01*
%TO.N,/pc070_aida_hdmi_dp_single1/TRIG\u002A*%
X83560000Y-78591000D02*
X79765000Y-78591000D01*
X77400000Y-80956000D02*
X77400000Y-89942396D01*
X98265000Y-84091000D02*
X97350000Y-85006000D01*
X99675000Y-84091000D02*
X98265000Y-84091000D01*
X87850000Y-92756000D02*
X88850000Y-92756000D01*
X90486396Y-92756000D02*
X88850000Y-92756000D01*
X77400000Y-89942396D02*
X79963604Y-92506000D01*
X97350000Y-85892396D02*
X90486396Y-92756000D01*
X97350000Y-85006000D02*
X97350000Y-85892396D01*
X87600000Y-92506000D02*
X87850000Y-92756000D01*
X79963604Y-92506000D02*
X87600000Y-92506000D01*
X79765000Y-78591000D02*
X77400000Y-80956000D01*
%TO.N,GND*%
X101323964Y-77091000D02*
X101343316Y-77071648D01*
X99675000Y-77091000D02*
X101323964Y-77091000D01*
X101324988Y-78591000D02*
X101340978Y-78575010D01*
X99675000Y-78591000D02*
X101324988Y-78591000D01*
X85435000Y-79091000D02*
X85600000Y-79256000D01*
X83560000Y-83091000D02*
X81887375Y-83091000D01*
X99675000Y-81591000D02*
X101327964Y-81591000D01*
X83560000Y-86091000D02*
X81881505Y-86091000D01*
X99675000Y-80091000D02*
X101327496Y-80091000D01*
X83560000Y-79091000D02*
X85435000Y-79091000D01*
X83560000Y-81591000D02*
X81883374Y-81591000D01*
X81883374Y-81591000D02*
X81873021Y-81580647D01*
X83560000Y-84591000D02*
X81884526Y-84591000D01*
X101327964Y-81591000D02*
X101333441Y-81596477D01*
X81884526Y-84591000D02*
X81870174Y-84576648D01*
X81887375Y-83091000D02*
X81863782Y-83114593D01*
X81881505Y-86091000D02*
X81878041Y-86087536D01*
X101327496Y-80091000D02*
X101334707Y-80083789D01*
X101327496Y-57485000D02*
X101334707Y-57477789D01*
X81881505Y-63485000D02*
X81878041Y-63481536D01*
X81887375Y-60485000D02*
X81863782Y-60508593D01*
X81884526Y-61985000D02*
X81870174Y-61970648D01*
X101327964Y-58985000D02*
X101333441Y-58990477D01*
X83560000Y-61985000D02*
X81884526Y-61985000D01*
X81883374Y-58985000D02*
X81873021Y-58974647D01*
X83560000Y-58985000D02*
X81883374Y-58985000D01*
X83560000Y-56485000D02*
X85435000Y-56485000D01*
X99675000Y-57485000D02*
X101327496Y-57485000D01*
X83560000Y-63485000D02*
X81881505Y-63485000D01*
X99675000Y-58985000D02*
X101327964Y-58985000D01*
X83560000Y-60485000D02*
X81887375Y-60485000D01*
X85435000Y-56485000D02*
X85600000Y-56650000D01*
X99675000Y-55985000D02*
X101324988Y-55985000D01*
X101324988Y-55985000D02*
X101340978Y-55969010D01*
X99675000Y-54485000D02*
X101323964Y-54485000D01*
X101323964Y-54485000D02*
X101343316Y-54465648D01*
%TO.N,/pc070_aida_hdmi_dp_single/TRIG\u002A*%
X79765000Y-55985000D02*
X77400000Y-58350000D01*
X79963604Y-69900000D02*
X87600000Y-69900000D01*
X87600000Y-69900000D02*
X87850000Y-70150000D01*
X97350000Y-62400000D02*
X97350000Y-63286396D01*
X97350000Y-63286396D02*
X90486396Y-70150000D01*
X77400000Y-67336396D02*
X79963604Y-69900000D01*
X90486396Y-70150000D02*
X88850000Y-70150000D01*
X87850000Y-70150000D02*
X88850000Y-70150000D01*
X99675000Y-61485000D02*
X98265000Y-61485000D01*
X98265000Y-61485000D02*
X97350000Y-62400000D01*
X77400000Y-58350000D02*
X77400000Y-67336396D01*
X83560000Y-55985000D02*
X79765000Y-55985000D01*
%TO.N,/pc070_aida_hdmi_dp_single/TRIG*%
X88100000Y-68150000D02*
X88850000Y-68150000D01*
X98128604Y-60985000D02*
X96900000Y-62213604D01*
X91850000Y-68150000D02*
X88850000Y-68150000D01*
X77850000Y-67150000D02*
X80000000Y-69300000D01*
X79451396Y-56985000D02*
X77850000Y-58586396D01*
X80000000Y-69300000D02*
X86950000Y-69300000D01*
X99675000Y-60985000D02*
X98128604Y-60985000D01*
X77850000Y-58586396D02*
X77850000Y-67150000D01*
X86950000Y-69300000D02*
X88100000Y-68150000D01*
X96900000Y-62213604D02*
X96900000Y-63100000D01*
X83560000Y-56985000D02*
X79451396Y-56985000D01*
X96900000Y-63100000D02*
X91850000Y-68150000D01*
%TO.N,/pc070_aida_hdmi_dp_single/SPARE\u002A*%
X85700000Y-63875000D02*
X85590000Y-63985000D01*
X96300000Y-61336396D02*
X94736396Y-62900000D01*
X85700000Y-63875000D02*
X93125000Y-63875000D01*
X98210000Y-59485000D02*
X97875000Y-59150000D01*
X93763604Y-62700000D02*
X93788604Y-62700000D01*
X99675000Y-59485000D02*
X98210000Y-59485000D01*
X97875000Y-59150000D02*
X97350000Y-59150000D01*
X94736396Y-62900000D02*
X94100000Y-62900000D01*
X97350000Y-59150000D02*
X96300000Y-60200000D01*
X85590000Y-63985000D02*
X83560000Y-63985000D01*
X96300000Y-60200000D02*
X96300000Y-61336396D01*
X93125000Y-63875000D02*
X94100000Y-62900000D01*
%TO.N,/pc070_aida_hdmi_dp_single/SPARE*%
X98276396Y-58485000D02*
X99675000Y-58485000D01*
X85925000Y-63425000D02*
X91575000Y-63425000D01*
X92100000Y-62900000D02*
X93100000Y-61900000D01*
X83560000Y-62985000D02*
X85485000Y-62985000D01*
X91575000Y-63425000D02*
X92100000Y-62900000D01*
X95100000Y-61900000D02*
X95850000Y-61150000D01*
X98061396Y-58700000D02*
X98276396Y-58485000D01*
X93100000Y-61900000D02*
X95100000Y-61900000D01*
X95850000Y-61150000D02*
X95850000Y-59900000D01*
X85485000Y-62985000D02*
X85925000Y-63425000D01*
X95850000Y-59900000D02*
X97050000Y-58700000D01*
X97050000Y-58700000D02*
X98061396Y-58700000D01*
%TO.N,/pc070_aida_hdmi_dp_single/BUSY\u002A*%
X85049022Y-62485000D02*
X83560000Y-62485000D01*
X89435916Y-62200480D02*
X85333542Y-62200480D01*
X97875000Y-57650000D02*
X95486396Y-57650000D01*
X90411396Y-61225000D02*
X89435916Y-62200480D01*
X98210000Y-57985000D02*
X97875000Y-57650000D01*
X85333542Y-62200480D02*
X85049022Y-62485000D01*
X99675000Y-57985000D02*
X98210000Y-57985000D01*
X94100000Y-60400000D02*
X93275000Y-61225000D01*
X93275000Y-61225000D02*
X90411396Y-61225000D01*
X94100000Y-59036396D02*
X94100000Y-60400000D01*
X95486396Y-57650000D02*
X94100000Y-59036396D01*
%TO.N,/pc070_aida_hdmi_dp_single/BUSY*%
X85147825Y-61750480D02*
X89249520Y-61750480D01*
X84882345Y-61485000D02*
X85147825Y-61750480D01*
X98340000Y-56985000D02*
X98175000Y-57150000D01*
X99675000Y-56985000D02*
X98340000Y-56985000D01*
X95350000Y-57150000D02*
X92100000Y-60400000D01*
X83560000Y-61485000D02*
X84882345Y-61485000D01*
X98175000Y-57150000D02*
X95350000Y-57150000D01*
X92100000Y-60400000D02*
X90600000Y-60400000D01*
X89249520Y-61750480D02*
X90600000Y-60400000D01*
%TO.N,/pc070_aida_hdmi_dp_single/CONT\u002A*%
X92100000Y-56650000D02*
X92100000Y-57900000D01*
X91100000Y-58900000D02*
X92100000Y-57900000D01*
X92525000Y-56225000D02*
X92100000Y-56650000D01*
X99675000Y-56485000D02*
X98060000Y-56485000D01*
X89736396Y-58900000D02*
X91100000Y-58900000D01*
X98060000Y-56485000D02*
X97800000Y-56225000D01*
X85384022Y-60650000D02*
X87986396Y-60650000D01*
X97800000Y-56225000D02*
X92525000Y-56225000D01*
X83560000Y-60985000D02*
X85049022Y-60985000D01*
X85049022Y-60985000D02*
X85384022Y-60650000D01*
X87986396Y-60650000D02*
X89736396Y-58900000D01*
%TO.N,/pc070_aida_hdmi_dp_single/CONT*%
X99675000Y-55485000D02*
X98215489Y-55485000D01*
X87800000Y-60200000D02*
X90100000Y-57900000D01*
X97925489Y-55775000D02*
X92225000Y-55775000D01*
X85182345Y-59985000D02*
X85397345Y-60200000D01*
X98215489Y-55485000D02*
X97925489Y-55775000D01*
X83560000Y-59985000D02*
X85182345Y-59985000D01*
X92225000Y-55775000D02*
X90100000Y-57900000D01*
X85397345Y-60200000D02*
X87800000Y-60200000D01*
%TO.N,/pc070_aida_hdmi_dp_single/CLK\u002A*%
X97443198Y-54750000D02*
X90500000Y-54750000D01*
X99675000Y-54985000D02*
X97678198Y-54985000D01*
X85765000Y-59485000D02*
X89850000Y-55400000D01*
X83560000Y-59485000D02*
X85765000Y-59485000D01*
X90500000Y-54750000D02*
X89850000Y-55400000D01*
X97678198Y-54985000D02*
X97443198Y-54750000D01*
%TO.N,/pc070_aida_hdmi_dp_single/CLK*%
X87850000Y-56763604D02*
X87850000Y-55400000D01*
X99675000Y-53985000D02*
X97850000Y-53985000D01*
X97850000Y-53985000D02*
X97535000Y-54300000D01*
X86128604Y-58485000D02*
X87850000Y-56763604D01*
X83560000Y-58485000D02*
X86128604Y-58485000D01*
X97535000Y-54300000D02*
X88950000Y-54300000D01*
X88950000Y-54300000D02*
X87850000Y-55400000D01*
%TD*%
M02*
