%TF.GenerationSoftware,KiCad,Pcbnew,6.0.7-5.fc36*%
%TF.CreationDate,2022-09-30T16:01:05+01:00*%
%TF.ProjectId,pc070_aida_hdmi_dp,70633037-305f-4616-9964-615f68646d69,rev?*%
%TF.SameCoordinates,Original*%
%TF.FileFunction,Soldermask,Bot*%
%TF.FilePolarity,Negative*%
%FSLAX46Y46*%
G04 Gerber Fmt 4.6, Leading zero omitted, Abs format (unit mm)*
G04 Created by KiCad (PCBNEW 6.0.7-5.fc36) date 2022-09-30 16:01:05*
%MOMM*%
%LPD*%
G01*
G04 APERTURE LIST*
%ADD10O,3.200000X1.600000*%
%ADD11O,2.820000X1.410000*%
%ADD12C,3.600000*%
%ADD13C,5.600000*%
%ADD14C,1.400000*%
%ADD15O,2.800000X1.400000*%
%ADD16O,2.400000X1.200000*%
G04 APERTURE END LIST*
D10*
%TO.C,J6*%
X100300000Y-110947000D03*
X100300000Y-96447000D03*
D11*
X106260000Y-110947000D03*
X106260000Y-96447000D03*
%TD*%
D12*
%TO.C,H3*%
X105000000Y-185000000D03*
D13*
X105000000Y-185000000D03*
%TD*%
%TO.C,H4*%
X75000000Y-185000000D03*
D12*
X75000000Y-185000000D03*
%TD*%
D10*
%TO.C,J8*%
X100300000Y-133553000D03*
X100300000Y-119053000D03*
D11*
X106260000Y-133553000D03*
X106260000Y-119053000D03*
%TD*%
D14*
%TO.C,J7*%
X73280000Y-126303000D03*
D15*
X80960000Y-118053000D03*
X80960000Y-134553000D03*
D16*
X74180000Y-118053000D03*
X74180000Y-134553000D03*
%TD*%
D10*
%TO.C,J2*%
X100300000Y-65735000D03*
X100300000Y-51235000D03*
D11*
X106260000Y-65735000D03*
X106260000Y-51235000D03*
%TD*%
D12*
%TO.C,H2*%
X105000000Y-45000000D03*
D13*
X105000000Y-45000000D03*
%TD*%
D14*
%TO.C,J9*%
X73280000Y-148909000D03*
D15*
X80960000Y-140659000D03*
X80960000Y-157159000D03*
D16*
X74180000Y-140659000D03*
X74180000Y-157159000D03*
%TD*%
D12*
%TO.C,H1*%
X75000000Y-45000000D03*
D13*
X75000000Y-45000000D03*
%TD*%
D10*
%TO.C,J4*%
X100300000Y-88341000D03*
X100300000Y-73841000D03*
D11*
X106260000Y-88341000D03*
X106260000Y-73841000D03*
%TD*%
D10*
%TO.C,J10*%
X100300000Y-156159000D03*
X100300000Y-141659000D03*
D11*
X106260000Y-156159000D03*
X106260000Y-141659000D03*
%TD*%
D10*
%TO.C,J12*%
X100300000Y-178765000D03*
X100300000Y-164265000D03*
D11*
X106260000Y-178765000D03*
X106260000Y-164265000D03*
%TD*%
D14*
%TO.C,J1*%
X73280000Y-58485000D03*
D15*
X80960000Y-50235000D03*
X80960000Y-66735000D03*
D16*
X74180000Y-50235000D03*
X74180000Y-66735000D03*
%TD*%
D14*
%TO.C,J3*%
X73280000Y-81091000D03*
D15*
X80960000Y-72841000D03*
X80960000Y-89341000D03*
D16*
X74180000Y-72841000D03*
X74180000Y-89341000D03*
%TD*%
D14*
%TO.C,J5*%
X73280000Y-103697000D03*
D15*
X80960000Y-95447000D03*
X80960000Y-111947000D03*
D16*
X74180000Y-95447000D03*
X74180000Y-111947000D03*
%TD*%
D14*
%TO.C,J11*%
X73280000Y-171515000D03*
D15*
X80960000Y-163265000D03*
X80960000Y-179765000D03*
D16*
X74180000Y-163265000D03*
X74180000Y-179765000D03*
%TD*%
M02*
