%TF.GenerationSoftware,KiCad,Pcbnew,6.0.8-2.fc36*%
%TF.CreationDate,2022-10-20T17:48:41+01:00*%
%TF.ProjectId,pc070_aida_hdmi_dp,70633037-305f-4616-9964-615f68646d69,rev?*%
%TF.SameCoordinates,Original*%
%TF.FileFunction,Legend,Top*%
%TF.FilePolarity,Positive*%
%FSLAX46Y46*%
G04 Gerber Fmt 4.6, Leading zero omitted, Abs format (unit mm)*
G04 Created by KiCad (PCBNEW 6.0.8-2.fc36) date 2022-10-20 17:48:41*
%MOMM*%
%LPD*%
G01*
G04 APERTURE LIST*
%ADD10C,0.300000*%
%ADD11C,0.150000*%
%ADD12C,0.200000*%
%ADD13C,0.127000*%
%ADD14C,0.120000*%
G04 APERTURE END LIST*
D10*
X78885714Y-42663571D02*
X78885714Y-44163571D01*
X78885714Y-42735000D02*
X79028571Y-42663571D01*
X79314285Y-42663571D01*
X79457142Y-42735000D01*
X79528571Y-42806428D01*
X79599999Y-42949285D01*
X79599999Y-43377857D01*
X79528571Y-43520714D01*
X79457142Y-43592142D01*
X79314285Y-43663571D01*
X79028571Y-43663571D01*
X78885714Y-43592142D01*
X80885714Y-43592142D02*
X80742857Y-43663571D01*
X80457142Y-43663571D01*
X80314285Y-43592142D01*
X80242857Y-43520714D01*
X80171428Y-43377857D01*
X80171428Y-42949285D01*
X80242857Y-42806428D01*
X80314285Y-42735000D01*
X80457142Y-42663571D01*
X80742857Y-42663571D01*
X80885714Y-42735000D01*
X81814285Y-42163571D02*
X81957142Y-42163571D01*
X82099999Y-42235000D01*
X82171428Y-42306428D01*
X82242857Y-42449285D01*
X82314285Y-42735000D01*
X82314285Y-43092142D01*
X82242857Y-43377857D01*
X82171428Y-43520714D01*
X82099999Y-43592142D01*
X81957142Y-43663571D01*
X81814285Y-43663571D01*
X81671428Y-43592142D01*
X81599999Y-43520714D01*
X81528571Y-43377857D01*
X81457142Y-43092142D01*
X81457142Y-42735000D01*
X81528571Y-42449285D01*
X81599999Y-42306428D01*
X81671428Y-42235000D01*
X81814285Y-42163571D01*
X82814285Y-42163571D02*
X83814285Y-42163571D01*
X83171428Y-43663571D01*
X84671428Y-42163571D02*
X84814285Y-42163571D01*
X84957142Y-42235000D01*
X85028571Y-42306428D01*
X85099999Y-42449285D01*
X85171428Y-42735000D01*
X85171428Y-43092142D01*
X85099999Y-43377857D01*
X85028571Y-43520714D01*
X84957142Y-43592142D01*
X84814285Y-43663571D01*
X84671428Y-43663571D01*
X84528571Y-43592142D01*
X84457142Y-43520714D01*
X84385714Y-43377857D01*
X84314285Y-43092142D01*
X84314285Y-42735000D01*
X84385714Y-42449285D01*
X84457142Y-42306428D01*
X84528571Y-42235000D01*
X84671428Y-42163571D01*
X85457142Y-43806428D02*
X86599999Y-43806428D01*
X87599999Y-43663571D02*
X87599999Y-42877857D01*
X87528571Y-42735000D01*
X87385714Y-42663571D01*
X87099999Y-42663571D01*
X86957142Y-42735000D01*
X87599999Y-43592142D02*
X87457142Y-43663571D01*
X87099999Y-43663571D01*
X86957142Y-43592142D01*
X86885714Y-43449285D01*
X86885714Y-43306428D01*
X86957142Y-43163571D01*
X87099999Y-43092142D01*
X87457142Y-43092142D01*
X87599999Y-43020714D01*
X88314285Y-43663571D02*
X88314285Y-42663571D01*
X88314285Y-42163571D02*
X88242857Y-42235000D01*
X88314285Y-42306428D01*
X88385714Y-42235000D01*
X88314285Y-42163571D01*
X88314285Y-42306428D01*
X89671428Y-43663571D02*
X89671428Y-42163571D01*
X89671428Y-43592142D02*
X89528571Y-43663571D01*
X89242857Y-43663571D01*
X89099999Y-43592142D01*
X89028571Y-43520714D01*
X88957142Y-43377857D01*
X88957142Y-42949285D01*
X89028571Y-42806428D01*
X89099999Y-42735000D01*
X89242857Y-42663571D01*
X89528571Y-42663571D01*
X89671428Y-42735000D01*
X91028571Y-43663571D02*
X91028571Y-42877857D01*
X90957142Y-42735000D01*
X90814285Y-42663571D01*
X90528571Y-42663571D01*
X90385714Y-42735000D01*
X91028571Y-43592142D02*
X90885714Y-43663571D01*
X90528571Y-43663571D01*
X90385714Y-43592142D01*
X90314285Y-43449285D01*
X90314285Y-43306428D01*
X90385714Y-43163571D01*
X90528571Y-43092142D01*
X90885714Y-43092142D01*
X91028571Y-43020714D01*
X91385714Y-43806428D02*
X92528571Y-43806428D01*
X92885714Y-43663571D02*
X92885714Y-42163571D01*
X93528571Y-43663571D02*
X93528571Y-42877857D01*
X93457142Y-42735000D01*
X93314285Y-42663571D01*
X93099999Y-42663571D01*
X92957142Y-42735000D01*
X92885714Y-42806428D01*
X94885714Y-43663571D02*
X94885714Y-42163571D01*
X94885714Y-43592142D02*
X94742857Y-43663571D01*
X94457142Y-43663571D01*
X94314285Y-43592142D01*
X94242857Y-43520714D01*
X94171428Y-43377857D01*
X94171428Y-42949285D01*
X94242857Y-42806428D01*
X94314285Y-42735000D01*
X94457142Y-42663571D01*
X94742857Y-42663571D01*
X94885714Y-42735000D01*
X95599999Y-43663571D02*
X95599999Y-42663571D01*
X95599999Y-42806428D02*
X95671428Y-42735000D01*
X95814285Y-42663571D01*
X96028571Y-42663571D01*
X96171428Y-42735000D01*
X96242857Y-42877857D01*
X96242857Y-43663571D01*
X96242857Y-42877857D02*
X96314285Y-42735000D01*
X96457142Y-42663571D01*
X96671428Y-42663571D01*
X96814285Y-42735000D01*
X96885714Y-42877857D01*
X96885714Y-43663571D01*
X97599999Y-43663571D02*
X97599999Y-42663571D01*
X97599999Y-42163571D02*
X97528571Y-42235000D01*
X97599999Y-42306428D01*
X97671428Y-42235000D01*
X97599999Y-42163571D01*
X97599999Y-42306428D01*
X99314285Y-42663571D02*
X99671428Y-43663571D01*
X100028571Y-42663571D01*
X100457142Y-42163571D02*
X101385714Y-42163571D01*
X100885714Y-42735000D01*
X101099999Y-42735000D01*
X101242857Y-42806428D01*
X101314285Y-42877857D01*
X101385714Y-43020714D01*
X101385714Y-43377857D01*
X101314285Y-43520714D01*
X101242857Y-43592142D01*
X101099999Y-43663571D01*
X100671428Y-43663571D01*
X100528571Y-43592142D01*
X100457142Y-43520714D01*
X84528571Y-44721428D02*
X84600000Y-44650000D01*
X84742857Y-44578571D01*
X85100000Y-44578571D01*
X85242857Y-44650000D01*
X85314285Y-44721428D01*
X85385714Y-44864285D01*
X85385714Y-45007142D01*
X85314285Y-45221428D01*
X84457142Y-46078571D01*
X85385714Y-46078571D01*
X86314285Y-44578571D02*
X86457142Y-44578571D01*
X86600000Y-44650000D01*
X86671428Y-44721428D01*
X86742857Y-44864285D01*
X86814285Y-45150000D01*
X86814285Y-45507142D01*
X86742857Y-45792857D01*
X86671428Y-45935714D01*
X86600000Y-46007142D01*
X86457142Y-46078571D01*
X86314285Y-46078571D01*
X86171428Y-46007142D01*
X86100000Y-45935714D01*
X86028571Y-45792857D01*
X85957142Y-45507142D01*
X85957142Y-45150000D01*
X86028571Y-44864285D01*
X86100000Y-44721428D01*
X86171428Y-44650000D01*
X86314285Y-44578571D01*
X88885714Y-44578571D02*
X89171428Y-44578571D01*
X89314285Y-44650000D01*
X89457142Y-44792857D01*
X89528571Y-45078571D01*
X89528571Y-45578571D01*
X89457142Y-45864285D01*
X89314285Y-46007142D01*
X89171428Y-46078571D01*
X88885714Y-46078571D01*
X88742857Y-46007142D01*
X88600000Y-45864285D01*
X88528571Y-45578571D01*
X88528571Y-45078571D01*
X88600000Y-44792857D01*
X88742857Y-44650000D01*
X88885714Y-44578571D01*
X90814285Y-46007142D02*
X90671428Y-46078571D01*
X90385714Y-46078571D01*
X90242857Y-46007142D01*
X90171428Y-45935714D01*
X90100000Y-45792857D01*
X90100000Y-45364285D01*
X90171428Y-45221428D01*
X90242857Y-45150000D01*
X90385714Y-45078571D01*
X90671428Y-45078571D01*
X90814285Y-45150000D01*
X91242857Y-45078571D02*
X91814285Y-45078571D01*
X91457142Y-44578571D02*
X91457142Y-45864285D01*
X91528571Y-46007142D01*
X91671428Y-46078571D01*
X91814285Y-46078571D01*
X93385714Y-44721428D02*
X93457142Y-44650000D01*
X93600000Y-44578571D01*
X93957142Y-44578571D01*
X94100000Y-44650000D01*
X94171428Y-44721428D01*
X94242857Y-44864285D01*
X94242857Y-45007142D01*
X94171428Y-45221428D01*
X93314285Y-46078571D01*
X94242857Y-46078571D01*
X94814285Y-44721428D02*
X94885714Y-44650000D01*
X95028571Y-44578571D01*
X95385714Y-44578571D01*
X95528571Y-44650000D01*
X95600000Y-44721428D01*
X95671428Y-44864285D01*
X95671428Y-45007142D01*
X95600000Y-45221428D01*
X94742857Y-46078571D01*
X95671428Y-46078571D01*
X84171428Y-48493571D02*
X84171428Y-46993571D01*
X84528571Y-46993571D01*
X84742857Y-47065000D01*
X84885714Y-47207857D01*
X84957142Y-47350714D01*
X85028571Y-47636428D01*
X85028571Y-47850714D01*
X84957142Y-48136428D01*
X84885714Y-48279285D01*
X84742857Y-48422142D01*
X84528571Y-48493571D01*
X84171428Y-48493571D01*
X85671428Y-48350714D02*
X85742857Y-48422142D01*
X85671428Y-48493571D01*
X85600000Y-48422142D01*
X85671428Y-48350714D01*
X85671428Y-48493571D01*
X88385714Y-48350714D02*
X88314285Y-48422142D01*
X88100000Y-48493571D01*
X87957142Y-48493571D01*
X87742857Y-48422142D01*
X87600000Y-48279285D01*
X87528571Y-48136428D01*
X87457142Y-47850714D01*
X87457142Y-47636428D01*
X87528571Y-47350714D01*
X87600000Y-47207857D01*
X87742857Y-47065000D01*
X87957142Y-46993571D01*
X88100000Y-46993571D01*
X88314285Y-47065000D01*
X88385714Y-47136428D01*
X89671428Y-47493571D02*
X89671428Y-48493571D01*
X89028571Y-47493571D02*
X89028571Y-48279285D01*
X89100000Y-48422142D01*
X89242857Y-48493571D01*
X89457142Y-48493571D01*
X89600000Y-48422142D01*
X89671428Y-48350714D01*
X90314285Y-48422142D02*
X90457142Y-48493571D01*
X90742857Y-48493571D01*
X90885714Y-48422142D01*
X90957142Y-48279285D01*
X90957142Y-48207857D01*
X90885714Y-48065000D01*
X90742857Y-47993571D01*
X90528571Y-47993571D01*
X90385714Y-47922142D01*
X90314285Y-47779285D01*
X90314285Y-47707857D01*
X90385714Y-47565000D01*
X90528571Y-47493571D01*
X90742857Y-47493571D01*
X90885714Y-47565000D01*
X91528571Y-48422142D02*
X91671428Y-48493571D01*
X91957142Y-48493571D01*
X92100000Y-48422142D01*
X92171428Y-48279285D01*
X92171428Y-48207857D01*
X92100000Y-48065000D01*
X91957142Y-47993571D01*
X91742857Y-47993571D01*
X91600000Y-47922142D01*
X91528571Y-47779285D01*
X91528571Y-47707857D01*
X91600000Y-47565000D01*
X91742857Y-47493571D01*
X91957142Y-47493571D01*
X92100000Y-47565000D01*
X93457142Y-48493571D02*
X93457142Y-47707857D01*
X93385714Y-47565000D01*
X93242857Y-47493571D01*
X92957142Y-47493571D01*
X92814285Y-47565000D01*
X93457142Y-48422142D02*
X93314285Y-48493571D01*
X92957142Y-48493571D01*
X92814285Y-48422142D01*
X92742857Y-48279285D01*
X92742857Y-48136428D01*
X92814285Y-47993571D01*
X92957142Y-47922142D01*
X93314285Y-47922142D01*
X93457142Y-47850714D01*
X94171428Y-47493571D02*
X94171428Y-48493571D01*
X94171428Y-47636428D02*
X94242857Y-47565000D01*
X94385714Y-47493571D01*
X94600000Y-47493571D01*
X94742857Y-47565000D01*
X94814285Y-47707857D01*
X94814285Y-48493571D01*
X95457142Y-48422142D02*
X95600000Y-48493571D01*
X95885714Y-48493571D01*
X96028571Y-48422142D01*
X96100000Y-48279285D01*
X96100000Y-48207857D01*
X96028571Y-48065000D01*
X95885714Y-47993571D01*
X95671428Y-47993571D01*
X95528571Y-47922142D01*
X95457142Y-47779285D01*
X95457142Y-47707857D01*
X95528571Y-47565000D01*
X95671428Y-47493571D01*
X95885714Y-47493571D01*
X96028571Y-47565000D01*
D11*
%TO.C,J1*%
X85766666Y-50852380D02*
X85766666Y-51566666D01*
X85719047Y-51709523D01*
X85623809Y-51804761D01*
X85480952Y-51852380D01*
X85385714Y-51852380D01*
X86766666Y-51852380D02*
X86195238Y-51852380D01*
X86480952Y-51852380D02*
X86480952Y-50852380D01*
X86385714Y-50995238D01*
X86290476Y-51090476D01*
X86195238Y-51138095D01*
%TO.C,TP53*%
X89861904Y-158026380D02*
X90433333Y-158026380D01*
X90147619Y-159026380D02*
X90147619Y-158026380D01*
X90766666Y-159026380D02*
X90766666Y-158026380D01*
X91147619Y-158026380D01*
X91242857Y-158074000D01*
X91290476Y-158121619D01*
X91338095Y-158216857D01*
X91338095Y-158359714D01*
X91290476Y-158454952D01*
X91242857Y-158502571D01*
X91147619Y-158550190D01*
X90766666Y-158550190D01*
X92242857Y-158026380D02*
X91766666Y-158026380D01*
X91719047Y-158502571D01*
X91766666Y-158454952D01*
X91861904Y-158407333D01*
X92100000Y-158407333D01*
X92195238Y-158454952D01*
X92242857Y-158502571D01*
X92290476Y-158597809D01*
X92290476Y-158835904D01*
X92242857Y-158931142D01*
X92195238Y-158978761D01*
X92100000Y-159026380D01*
X91861904Y-159026380D01*
X91766666Y-158978761D01*
X91719047Y-158931142D01*
X92623809Y-158026380D02*
X93242857Y-158026380D01*
X92909523Y-158407333D01*
X93052380Y-158407333D01*
X93147619Y-158454952D01*
X93195238Y-158502571D01*
X93242857Y-158597809D01*
X93242857Y-158835904D01*
X93195238Y-158931142D01*
X93147619Y-158978761D01*
X93052380Y-159026380D01*
X92766666Y-159026380D01*
X92671428Y-158978761D01*
X92623809Y-158931142D01*
%TO.C,TP68*%
X94611904Y-172882380D02*
X95183333Y-172882380D01*
X94897619Y-173882380D02*
X94897619Y-172882380D01*
X95516666Y-173882380D02*
X95516666Y-172882380D01*
X95897619Y-172882380D01*
X95992857Y-172930000D01*
X96040476Y-172977619D01*
X96088095Y-173072857D01*
X96088095Y-173215714D01*
X96040476Y-173310952D01*
X95992857Y-173358571D01*
X95897619Y-173406190D01*
X95516666Y-173406190D01*
X96945238Y-172882380D02*
X96754761Y-172882380D01*
X96659523Y-172930000D01*
X96611904Y-172977619D01*
X96516666Y-173120476D01*
X96469047Y-173310952D01*
X96469047Y-173691904D01*
X96516666Y-173787142D01*
X96564285Y-173834761D01*
X96659523Y-173882380D01*
X96850000Y-173882380D01*
X96945238Y-173834761D01*
X96992857Y-173787142D01*
X97040476Y-173691904D01*
X97040476Y-173453809D01*
X96992857Y-173358571D01*
X96945238Y-173310952D01*
X96850000Y-173263333D01*
X96659523Y-173263333D01*
X96564285Y-173310952D01*
X96516666Y-173358571D01*
X96469047Y-173453809D01*
X97611904Y-173310952D02*
X97516666Y-173263333D01*
X97469047Y-173215714D01*
X97421428Y-173120476D01*
X97421428Y-173072857D01*
X97469047Y-172977619D01*
X97516666Y-172930000D01*
X97611904Y-172882380D01*
X97802380Y-172882380D01*
X97897619Y-172930000D01*
X97945238Y-172977619D01*
X97992857Y-173072857D01*
X97992857Y-173120476D01*
X97945238Y-173215714D01*
X97897619Y-173263333D01*
X97802380Y-173310952D01*
X97611904Y-173310952D01*
X97516666Y-173358571D01*
X97469047Y-173406190D01*
X97421428Y-173501428D01*
X97421428Y-173691904D01*
X97469047Y-173787142D01*
X97516666Y-173834761D01*
X97611904Y-173882380D01*
X97802380Y-173882380D01*
X97897619Y-173834761D01*
X97945238Y-173787142D01*
X97992857Y-173691904D01*
X97992857Y-173501428D01*
X97945238Y-173406190D01*
X97897619Y-173358571D01*
X97802380Y-173310952D01*
%TO.C,TP16*%
X90611904Y-77708380D02*
X91183333Y-77708380D01*
X90897619Y-78708380D02*
X90897619Y-77708380D01*
X91516666Y-78708380D02*
X91516666Y-77708380D01*
X91897619Y-77708380D01*
X91992857Y-77756000D01*
X92040476Y-77803619D01*
X92088095Y-77898857D01*
X92088095Y-78041714D01*
X92040476Y-78136952D01*
X91992857Y-78184571D01*
X91897619Y-78232190D01*
X91516666Y-78232190D01*
X93040476Y-78708380D02*
X92469047Y-78708380D01*
X92754761Y-78708380D02*
X92754761Y-77708380D01*
X92659523Y-77851238D01*
X92564285Y-77946476D01*
X92469047Y-77994095D01*
X93897619Y-77708380D02*
X93707142Y-77708380D01*
X93611904Y-77756000D01*
X93564285Y-77803619D01*
X93469047Y-77946476D01*
X93421428Y-78136952D01*
X93421428Y-78517904D01*
X93469047Y-78613142D01*
X93516666Y-78660761D01*
X93611904Y-78708380D01*
X93802380Y-78708380D01*
X93897619Y-78660761D01*
X93945238Y-78613142D01*
X93992857Y-78517904D01*
X93992857Y-78279809D01*
X93945238Y-78184571D01*
X93897619Y-78136952D01*
X93802380Y-78089333D01*
X93611904Y-78089333D01*
X93516666Y-78136952D01*
X93469047Y-78184571D01*
X93421428Y-78279809D01*
%TO.C,TP43*%
X87611904Y-127670380D02*
X88183333Y-127670380D01*
X87897619Y-128670380D02*
X87897619Y-127670380D01*
X88516666Y-128670380D02*
X88516666Y-127670380D01*
X88897619Y-127670380D01*
X88992857Y-127718000D01*
X89040476Y-127765619D01*
X89088095Y-127860857D01*
X89088095Y-128003714D01*
X89040476Y-128098952D01*
X88992857Y-128146571D01*
X88897619Y-128194190D01*
X88516666Y-128194190D01*
X89945238Y-128003714D02*
X89945238Y-128670380D01*
X89707142Y-127622761D02*
X89469047Y-128337047D01*
X90088095Y-128337047D01*
X90373809Y-127670380D02*
X90992857Y-127670380D01*
X90659523Y-128051333D01*
X90802380Y-128051333D01*
X90897619Y-128098952D01*
X90945238Y-128146571D01*
X90992857Y-128241809D01*
X90992857Y-128479904D01*
X90945238Y-128575142D01*
X90897619Y-128622761D01*
X90802380Y-128670380D01*
X90516666Y-128670380D01*
X90421428Y-128622761D01*
X90373809Y-128575142D01*
%TO.C,TP46*%
X93361904Y-125420380D02*
X93933333Y-125420380D01*
X93647619Y-126420380D02*
X93647619Y-125420380D01*
X94266666Y-126420380D02*
X94266666Y-125420380D01*
X94647619Y-125420380D01*
X94742857Y-125468000D01*
X94790476Y-125515619D01*
X94838095Y-125610857D01*
X94838095Y-125753714D01*
X94790476Y-125848952D01*
X94742857Y-125896571D01*
X94647619Y-125944190D01*
X94266666Y-125944190D01*
X95695238Y-125753714D02*
X95695238Y-126420380D01*
X95457142Y-125372761D02*
X95219047Y-126087047D01*
X95838095Y-126087047D01*
X96647619Y-125420380D02*
X96457142Y-125420380D01*
X96361904Y-125468000D01*
X96314285Y-125515619D01*
X96219047Y-125658476D01*
X96171428Y-125848952D01*
X96171428Y-126229904D01*
X96219047Y-126325142D01*
X96266666Y-126372761D01*
X96361904Y-126420380D01*
X96552380Y-126420380D01*
X96647619Y-126372761D01*
X96695238Y-126325142D01*
X96742857Y-126229904D01*
X96742857Y-125991809D01*
X96695238Y-125896571D01*
X96647619Y-125848952D01*
X96552380Y-125801333D01*
X96361904Y-125801333D01*
X96266666Y-125848952D01*
X96219047Y-125896571D01*
X96171428Y-125991809D01*
%TO.C,J6*%
X99802380Y-114483333D02*
X100516666Y-114483333D01*
X100659523Y-114530952D01*
X100754761Y-114626190D01*
X100802380Y-114769047D01*
X100802380Y-114864285D01*
X99802380Y-113578571D02*
X99802380Y-113769047D01*
X99850000Y-113864285D01*
X99897619Y-113911904D01*
X100040476Y-114007142D01*
X100230952Y-114054761D01*
X100611904Y-114054761D01*
X100707142Y-114007142D01*
X100754761Y-113959523D01*
X100802380Y-113864285D01*
X100802380Y-113673809D01*
X100754761Y-113578571D01*
X100707142Y-113530952D01*
X100611904Y-113483333D01*
X100373809Y-113483333D01*
X100278571Y-113530952D01*
X100230952Y-113578571D01*
X100183333Y-113673809D01*
X100183333Y-113864285D01*
X100230952Y-113959523D01*
X100278571Y-114007142D01*
X100373809Y-114054761D01*
%TO.C,TP50*%
X89861904Y-156276380D02*
X90433333Y-156276380D01*
X90147619Y-157276380D02*
X90147619Y-156276380D01*
X90766666Y-157276380D02*
X90766666Y-156276380D01*
X91147619Y-156276380D01*
X91242857Y-156324000D01*
X91290476Y-156371619D01*
X91338095Y-156466857D01*
X91338095Y-156609714D01*
X91290476Y-156704952D01*
X91242857Y-156752571D01*
X91147619Y-156800190D01*
X90766666Y-156800190D01*
X92242857Y-156276380D02*
X91766666Y-156276380D01*
X91719047Y-156752571D01*
X91766666Y-156704952D01*
X91861904Y-156657333D01*
X92100000Y-156657333D01*
X92195238Y-156704952D01*
X92242857Y-156752571D01*
X92290476Y-156847809D01*
X92290476Y-157085904D01*
X92242857Y-157181142D01*
X92195238Y-157228761D01*
X92100000Y-157276380D01*
X91861904Y-157276380D01*
X91766666Y-157228761D01*
X91719047Y-157181142D01*
X92909523Y-156276380D02*
X93004761Y-156276380D01*
X93100000Y-156324000D01*
X93147619Y-156371619D01*
X93195238Y-156466857D01*
X93242857Y-156657333D01*
X93242857Y-156895428D01*
X93195238Y-157085904D01*
X93147619Y-157181142D01*
X93100000Y-157228761D01*
X93004761Y-157276380D01*
X92909523Y-157276380D01*
X92814285Y-157228761D01*
X92766666Y-157181142D01*
X92719047Y-157085904D01*
X92671428Y-156895428D01*
X92671428Y-156657333D01*
X92719047Y-156466857D01*
X92766666Y-156371619D01*
X92814285Y-156324000D01*
X92909523Y-156276380D01*
%TO.C,TP22*%
X93361904Y-80208380D02*
X93933333Y-80208380D01*
X93647619Y-81208380D02*
X93647619Y-80208380D01*
X94266666Y-81208380D02*
X94266666Y-80208380D01*
X94647619Y-80208380D01*
X94742857Y-80256000D01*
X94790476Y-80303619D01*
X94838095Y-80398857D01*
X94838095Y-80541714D01*
X94790476Y-80636952D01*
X94742857Y-80684571D01*
X94647619Y-80732190D01*
X94266666Y-80732190D01*
X95219047Y-80303619D02*
X95266666Y-80256000D01*
X95361904Y-80208380D01*
X95600000Y-80208380D01*
X95695238Y-80256000D01*
X95742857Y-80303619D01*
X95790476Y-80398857D01*
X95790476Y-80494095D01*
X95742857Y-80636952D01*
X95171428Y-81208380D01*
X95790476Y-81208380D01*
X96171428Y-80303619D02*
X96219047Y-80256000D01*
X96314285Y-80208380D01*
X96552380Y-80208380D01*
X96647619Y-80256000D01*
X96695238Y-80303619D01*
X96742857Y-80398857D01*
X96742857Y-80494095D01*
X96695238Y-80636952D01*
X96123809Y-81208380D01*
X96742857Y-81208380D01*
%TO.C,TP69*%
X85861904Y-170382380D02*
X86433333Y-170382380D01*
X86147619Y-171382380D02*
X86147619Y-170382380D01*
X86766666Y-171382380D02*
X86766666Y-170382380D01*
X87147619Y-170382380D01*
X87242857Y-170430000D01*
X87290476Y-170477619D01*
X87338095Y-170572857D01*
X87338095Y-170715714D01*
X87290476Y-170810952D01*
X87242857Y-170858571D01*
X87147619Y-170906190D01*
X86766666Y-170906190D01*
X88195238Y-170382380D02*
X88004761Y-170382380D01*
X87909523Y-170430000D01*
X87861904Y-170477619D01*
X87766666Y-170620476D01*
X87719047Y-170810952D01*
X87719047Y-171191904D01*
X87766666Y-171287142D01*
X87814285Y-171334761D01*
X87909523Y-171382380D01*
X88100000Y-171382380D01*
X88195238Y-171334761D01*
X88242857Y-171287142D01*
X88290476Y-171191904D01*
X88290476Y-170953809D01*
X88242857Y-170858571D01*
X88195238Y-170810952D01*
X88100000Y-170763333D01*
X87909523Y-170763333D01*
X87814285Y-170810952D01*
X87766666Y-170858571D01*
X87719047Y-170953809D01*
X88766666Y-171382380D02*
X88957142Y-171382380D01*
X89052380Y-171334761D01*
X89100000Y-171287142D01*
X89195238Y-171144285D01*
X89242857Y-170953809D01*
X89242857Y-170572857D01*
X89195238Y-170477619D01*
X89147619Y-170430000D01*
X89052380Y-170382380D01*
X88861904Y-170382380D01*
X88766666Y-170430000D01*
X88719047Y-170477619D01*
X88671428Y-170572857D01*
X88671428Y-170810952D01*
X88719047Y-170906190D01*
X88766666Y-170953809D01*
X88861904Y-171001428D01*
X89052380Y-171001428D01*
X89147619Y-170953809D01*
X89195238Y-170906190D01*
X89242857Y-170810952D01*
%TO.C,H3*%
X104238095Y-181652380D02*
X104238095Y-180652380D01*
X104238095Y-181128571D02*
X104809523Y-181128571D01*
X104809523Y-181652380D02*
X104809523Y-180652380D01*
X105190476Y-180652380D02*
X105809523Y-180652380D01*
X105476190Y-181033333D01*
X105619047Y-181033333D01*
X105714285Y-181080952D01*
X105761904Y-181128571D01*
X105809523Y-181223809D01*
X105809523Y-181461904D01*
X105761904Y-181557142D01*
X105714285Y-181604761D01*
X105619047Y-181652380D01*
X105333333Y-181652380D01*
X105238095Y-181604761D01*
X105190476Y-181557142D01*
%TO.C,TP21*%
X85861904Y-79958380D02*
X86433333Y-79958380D01*
X86147619Y-80958380D02*
X86147619Y-79958380D01*
X86766666Y-80958380D02*
X86766666Y-79958380D01*
X87147619Y-79958380D01*
X87242857Y-80006000D01*
X87290476Y-80053619D01*
X87338095Y-80148857D01*
X87338095Y-80291714D01*
X87290476Y-80386952D01*
X87242857Y-80434571D01*
X87147619Y-80482190D01*
X86766666Y-80482190D01*
X87719047Y-80053619D02*
X87766666Y-80006000D01*
X87861904Y-79958380D01*
X88100000Y-79958380D01*
X88195238Y-80006000D01*
X88242857Y-80053619D01*
X88290476Y-80148857D01*
X88290476Y-80244095D01*
X88242857Y-80386952D01*
X87671428Y-80958380D01*
X88290476Y-80958380D01*
X89242857Y-80958380D02*
X88671428Y-80958380D01*
X88957142Y-80958380D02*
X88957142Y-79958380D01*
X88861904Y-80101238D01*
X88766666Y-80196476D01*
X88671428Y-80244095D01*
%TO.C,TP62*%
X89861904Y-178882380D02*
X90433333Y-178882380D01*
X90147619Y-179882380D02*
X90147619Y-178882380D01*
X90766666Y-179882380D02*
X90766666Y-178882380D01*
X91147619Y-178882380D01*
X91242857Y-178930000D01*
X91290476Y-178977619D01*
X91338095Y-179072857D01*
X91338095Y-179215714D01*
X91290476Y-179310952D01*
X91242857Y-179358571D01*
X91147619Y-179406190D01*
X90766666Y-179406190D01*
X92195238Y-178882380D02*
X92004761Y-178882380D01*
X91909523Y-178930000D01*
X91861904Y-178977619D01*
X91766666Y-179120476D01*
X91719047Y-179310952D01*
X91719047Y-179691904D01*
X91766666Y-179787142D01*
X91814285Y-179834761D01*
X91909523Y-179882380D01*
X92100000Y-179882380D01*
X92195238Y-179834761D01*
X92242857Y-179787142D01*
X92290476Y-179691904D01*
X92290476Y-179453809D01*
X92242857Y-179358571D01*
X92195238Y-179310952D01*
X92100000Y-179263333D01*
X91909523Y-179263333D01*
X91814285Y-179310952D01*
X91766666Y-179358571D01*
X91719047Y-179453809D01*
X92671428Y-178977619D02*
X92719047Y-178930000D01*
X92814285Y-178882380D01*
X93052380Y-178882380D01*
X93147619Y-178930000D01*
X93195238Y-178977619D01*
X93242857Y-179072857D01*
X93242857Y-179168095D01*
X93195238Y-179310952D01*
X92623809Y-179882380D01*
X93242857Y-179882380D01*
%TO.C,H4*%
X74238095Y-181652380D02*
X74238095Y-180652380D01*
X74238095Y-181128571D02*
X74809523Y-181128571D01*
X74809523Y-181652380D02*
X74809523Y-180652380D01*
X75714285Y-180985714D02*
X75714285Y-181652380D01*
X75476190Y-180604761D02*
X75238095Y-181319047D01*
X75857142Y-181319047D01*
%TO.C,TP55*%
X87611904Y-150276380D02*
X88183333Y-150276380D01*
X87897619Y-151276380D02*
X87897619Y-150276380D01*
X88516666Y-151276380D02*
X88516666Y-150276380D01*
X88897619Y-150276380D01*
X88992857Y-150324000D01*
X89040476Y-150371619D01*
X89088095Y-150466857D01*
X89088095Y-150609714D01*
X89040476Y-150704952D01*
X88992857Y-150752571D01*
X88897619Y-150800190D01*
X88516666Y-150800190D01*
X89992857Y-150276380D02*
X89516666Y-150276380D01*
X89469047Y-150752571D01*
X89516666Y-150704952D01*
X89611904Y-150657333D01*
X89850000Y-150657333D01*
X89945238Y-150704952D01*
X89992857Y-150752571D01*
X90040476Y-150847809D01*
X90040476Y-151085904D01*
X89992857Y-151181142D01*
X89945238Y-151228761D01*
X89850000Y-151276380D01*
X89611904Y-151276380D01*
X89516666Y-151228761D01*
X89469047Y-151181142D01*
X90945238Y-150276380D02*
X90469047Y-150276380D01*
X90421428Y-150752571D01*
X90469047Y-150704952D01*
X90564285Y-150657333D01*
X90802380Y-150657333D01*
X90897619Y-150704952D01*
X90945238Y-150752571D01*
X90992857Y-150847809D01*
X90992857Y-151085904D01*
X90945238Y-151181142D01*
X90897619Y-151228761D01*
X90802380Y-151276380D01*
X90564285Y-151276380D01*
X90469047Y-151228761D01*
X90421428Y-151181142D01*
%TO.C,TP45*%
X85861904Y-125170380D02*
X86433333Y-125170380D01*
X86147619Y-126170380D02*
X86147619Y-125170380D01*
X86766666Y-126170380D02*
X86766666Y-125170380D01*
X87147619Y-125170380D01*
X87242857Y-125218000D01*
X87290476Y-125265619D01*
X87338095Y-125360857D01*
X87338095Y-125503714D01*
X87290476Y-125598952D01*
X87242857Y-125646571D01*
X87147619Y-125694190D01*
X86766666Y-125694190D01*
X88195238Y-125503714D02*
X88195238Y-126170380D01*
X87957142Y-125122761D02*
X87719047Y-125837047D01*
X88338095Y-125837047D01*
X89195238Y-125170380D02*
X88719047Y-125170380D01*
X88671428Y-125646571D01*
X88719047Y-125598952D01*
X88814285Y-125551333D01*
X89052380Y-125551333D01*
X89147619Y-125598952D01*
X89195238Y-125646571D01*
X89242857Y-125741809D01*
X89242857Y-125979904D01*
X89195238Y-126075142D01*
X89147619Y-126122761D01*
X89052380Y-126170380D01*
X88814285Y-126170380D01*
X88719047Y-126122761D01*
X88671428Y-126075142D01*
%TO.C,J8*%
X99802380Y-137233333D02*
X100516666Y-137233333D01*
X100659523Y-137280952D01*
X100754761Y-137376190D01*
X100802380Y-137519047D01*
X100802380Y-137614285D01*
X100230952Y-136614285D02*
X100183333Y-136709523D01*
X100135714Y-136757142D01*
X100040476Y-136804761D01*
X99992857Y-136804761D01*
X99897619Y-136757142D01*
X99850000Y-136709523D01*
X99802380Y-136614285D01*
X99802380Y-136423809D01*
X99850000Y-136328571D01*
X99897619Y-136280952D01*
X99992857Y-136233333D01*
X100040476Y-136233333D01*
X100135714Y-136280952D01*
X100183333Y-136328571D01*
X100230952Y-136423809D01*
X100230952Y-136614285D01*
X100278571Y-136709523D01*
X100326190Y-136757142D01*
X100421428Y-136804761D01*
X100611904Y-136804761D01*
X100707142Y-136757142D01*
X100754761Y-136709523D01*
X100802380Y-136614285D01*
X100802380Y-136423809D01*
X100754761Y-136328571D01*
X100707142Y-136280952D01*
X100611904Y-136233333D01*
X100421428Y-136233333D01*
X100326190Y-136280952D01*
X100278571Y-136328571D01*
X100230952Y-136423809D01*
%TO.C,J7*%
X85287380Y-120611333D02*
X86001666Y-120611333D01*
X86144523Y-120658952D01*
X86239761Y-120754190D01*
X86287380Y-120897047D01*
X86287380Y-120992285D01*
X85287380Y-120230380D02*
X85287380Y-119563714D01*
X86287380Y-119992285D01*
%TO.C,TP26*%
X89861904Y-111064380D02*
X90433333Y-111064380D01*
X90147619Y-112064380D02*
X90147619Y-111064380D01*
X90766666Y-112064380D02*
X90766666Y-111064380D01*
X91147619Y-111064380D01*
X91242857Y-111112000D01*
X91290476Y-111159619D01*
X91338095Y-111254857D01*
X91338095Y-111397714D01*
X91290476Y-111492952D01*
X91242857Y-111540571D01*
X91147619Y-111588190D01*
X90766666Y-111588190D01*
X91719047Y-111159619D02*
X91766666Y-111112000D01*
X91861904Y-111064380D01*
X92100000Y-111064380D01*
X92195238Y-111112000D01*
X92242857Y-111159619D01*
X92290476Y-111254857D01*
X92290476Y-111350095D01*
X92242857Y-111492952D01*
X91671428Y-112064380D01*
X92290476Y-112064380D01*
X93147619Y-111064380D02*
X92957142Y-111064380D01*
X92861904Y-111112000D01*
X92814285Y-111159619D01*
X92719047Y-111302476D01*
X92671428Y-111492952D01*
X92671428Y-111873904D01*
X92719047Y-111969142D01*
X92766666Y-112016761D01*
X92861904Y-112064380D01*
X93052380Y-112064380D01*
X93147619Y-112016761D01*
X93195238Y-111969142D01*
X93242857Y-111873904D01*
X93242857Y-111635809D01*
X93195238Y-111540571D01*
X93147619Y-111492952D01*
X93052380Y-111445333D01*
X92861904Y-111445333D01*
X92766666Y-111492952D01*
X92719047Y-111540571D01*
X92671428Y-111635809D01*
%TO.C,TP7*%
X88088095Y-59852380D02*
X88659523Y-59852380D01*
X88373809Y-60852380D02*
X88373809Y-59852380D01*
X88992857Y-60852380D02*
X88992857Y-59852380D01*
X89373809Y-59852380D01*
X89469047Y-59900000D01*
X89516666Y-59947619D01*
X89564285Y-60042857D01*
X89564285Y-60185714D01*
X89516666Y-60280952D01*
X89469047Y-60328571D01*
X89373809Y-60376190D01*
X88992857Y-60376190D01*
X89897619Y-59852380D02*
X90564285Y-59852380D01*
X90135714Y-60852380D01*
%TO.C,TP33*%
X85861904Y-102564380D02*
X86433333Y-102564380D01*
X86147619Y-103564380D02*
X86147619Y-102564380D01*
X86766666Y-103564380D02*
X86766666Y-102564380D01*
X87147619Y-102564380D01*
X87242857Y-102612000D01*
X87290476Y-102659619D01*
X87338095Y-102754857D01*
X87338095Y-102897714D01*
X87290476Y-102992952D01*
X87242857Y-103040571D01*
X87147619Y-103088190D01*
X86766666Y-103088190D01*
X87671428Y-102564380D02*
X88290476Y-102564380D01*
X87957142Y-102945333D01*
X88100000Y-102945333D01*
X88195238Y-102992952D01*
X88242857Y-103040571D01*
X88290476Y-103135809D01*
X88290476Y-103373904D01*
X88242857Y-103469142D01*
X88195238Y-103516761D01*
X88100000Y-103564380D01*
X87814285Y-103564380D01*
X87719047Y-103516761D01*
X87671428Y-103469142D01*
X88623809Y-102564380D02*
X89242857Y-102564380D01*
X88909523Y-102945333D01*
X89052380Y-102945333D01*
X89147619Y-102992952D01*
X89195238Y-103040571D01*
X89242857Y-103135809D01*
X89242857Y-103373904D01*
X89195238Y-103469142D01*
X89147619Y-103516761D01*
X89052380Y-103564380D01*
X88766666Y-103564380D01*
X88671428Y-103516761D01*
X88623809Y-103469142D01*
%TO.C,TP12*%
X94111904Y-64102380D02*
X94683333Y-64102380D01*
X94397619Y-65102380D02*
X94397619Y-64102380D01*
X95016666Y-65102380D02*
X95016666Y-64102380D01*
X95397619Y-64102380D01*
X95492857Y-64150000D01*
X95540476Y-64197619D01*
X95588095Y-64292857D01*
X95588095Y-64435714D01*
X95540476Y-64530952D01*
X95492857Y-64578571D01*
X95397619Y-64626190D01*
X95016666Y-64626190D01*
X96540476Y-65102380D02*
X95969047Y-65102380D01*
X96254761Y-65102380D02*
X96254761Y-64102380D01*
X96159523Y-64245238D01*
X96064285Y-64340476D01*
X95969047Y-64388095D01*
X96921428Y-64197619D02*
X96969047Y-64150000D01*
X97064285Y-64102380D01*
X97302380Y-64102380D01*
X97397619Y-64150000D01*
X97445238Y-64197619D01*
X97492857Y-64292857D01*
X97492857Y-64388095D01*
X97445238Y-64530952D01*
X96873809Y-65102380D01*
X97492857Y-65102380D01*
%TO.C,TP29*%
X89861904Y-112814380D02*
X90433333Y-112814380D01*
X90147619Y-113814380D02*
X90147619Y-112814380D01*
X90766666Y-113814380D02*
X90766666Y-112814380D01*
X91147619Y-112814380D01*
X91242857Y-112862000D01*
X91290476Y-112909619D01*
X91338095Y-113004857D01*
X91338095Y-113147714D01*
X91290476Y-113242952D01*
X91242857Y-113290571D01*
X91147619Y-113338190D01*
X90766666Y-113338190D01*
X91719047Y-112909619D02*
X91766666Y-112862000D01*
X91861904Y-112814380D01*
X92100000Y-112814380D01*
X92195238Y-112862000D01*
X92242857Y-112909619D01*
X92290476Y-113004857D01*
X92290476Y-113100095D01*
X92242857Y-113242952D01*
X91671428Y-113814380D01*
X92290476Y-113814380D01*
X92766666Y-113814380D02*
X92957142Y-113814380D01*
X93052380Y-113766761D01*
X93100000Y-113719142D01*
X93195238Y-113576285D01*
X93242857Y-113385809D01*
X93242857Y-113004857D01*
X93195238Y-112909619D01*
X93147619Y-112862000D01*
X93052380Y-112814380D01*
X92861904Y-112814380D01*
X92766666Y-112862000D01*
X92719047Y-112909619D01*
X92671428Y-113004857D01*
X92671428Y-113242952D01*
X92719047Y-113338190D01*
X92766666Y-113385809D01*
X92861904Y-113433428D01*
X93052380Y-113433428D01*
X93147619Y-113385809D01*
X93195238Y-113338190D01*
X93242857Y-113242952D01*
%TO.C,TP10*%
X93361904Y-57602380D02*
X93933333Y-57602380D01*
X93647619Y-58602380D02*
X93647619Y-57602380D01*
X94266666Y-58602380D02*
X94266666Y-57602380D01*
X94647619Y-57602380D01*
X94742857Y-57650000D01*
X94790476Y-57697619D01*
X94838095Y-57792857D01*
X94838095Y-57935714D01*
X94790476Y-58030952D01*
X94742857Y-58078571D01*
X94647619Y-58126190D01*
X94266666Y-58126190D01*
X95790476Y-58602380D02*
X95219047Y-58602380D01*
X95504761Y-58602380D02*
X95504761Y-57602380D01*
X95409523Y-57745238D01*
X95314285Y-57840476D01*
X95219047Y-57888095D01*
X96409523Y-57602380D02*
X96504761Y-57602380D01*
X96600000Y-57650000D01*
X96647619Y-57697619D01*
X96695238Y-57792857D01*
X96742857Y-57983333D01*
X96742857Y-58221428D01*
X96695238Y-58411904D01*
X96647619Y-58507142D01*
X96600000Y-58554761D01*
X96504761Y-58602380D01*
X96409523Y-58602380D01*
X96314285Y-58554761D01*
X96266666Y-58507142D01*
X96219047Y-58411904D01*
X96171428Y-58221428D01*
X96171428Y-57983333D01*
X96219047Y-57792857D01*
X96266666Y-57697619D01*
X96314285Y-57650000D01*
X96409523Y-57602380D01*
%TO.C,TP59*%
X87611904Y-152776380D02*
X88183333Y-152776380D01*
X87897619Y-153776380D02*
X87897619Y-152776380D01*
X88516666Y-153776380D02*
X88516666Y-152776380D01*
X88897619Y-152776380D01*
X88992857Y-152824000D01*
X89040476Y-152871619D01*
X89088095Y-152966857D01*
X89088095Y-153109714D01*
X89040476Y-153204952D01*
X88992857Y-153252571D01*
X88897619Y-153300190D01*
X88516666Y-153300190D01*
X89992857Y-152776380D02*
X89516666Y-152776380D01*
X89469047Y-153252571D01*
X89516666Y-153204952D01*
X89611904Y-153157333D01*
X89850000Y-153157333D01*
X89945238Y-153204952D01*
X89992857Y-153252571D01*
X90040476Y-153347809D01*
X90040476Y-153585904D01*
X89992857Y-153681142D01*
X89945238Y-153728761D01*
X89850000Y-153776380D01*
X89611904Y-153776380D01*
X89516666Y-153728761D01*
X89469047Y-153681142D01*
X90516666Y-153776380D02*
X90707142Y-153776380D01*
X90802380Y-153728761D01*
X90850000Y-153681142D01*
X90945238Y-153538285D01*
X90992857Y-153347809D01*
X90992857Y-152966857D01*
X90945238Y-152871619D01*
X90897619Y-152824000D01*
X90802380Y-152776380D01*
X90611904Y-152776380D01*
X90516666Y-152824000D01*
X90469047Y-152871619D01*
X90421428Y-152966857D01*
X90421428Y-153204952D01*
X90469047Y-153300190D01*
X90516666Y-153347809D01*
X90611904Y-153395428D01*
X90802380Y-153395428D01*
X90897619Y-153347809D01*
X90945238Y-153300190D01*
X90992857Y-153204952D01*
%TO.C,TP57*%
X85861904Y-147776380D02*
X86433333Y-147776380D01*
X86147619Y-148776380D02*
X86147619Y-147776380D01*
X86766666Y-148776380D02*
X86766666Y-147776380D01*
X87147619Y-147776380D01*
X87242857Y-147824000D01*
X87290476Y-147871619D01*
X87338095Y-147966857D01*
X87338095Y-148109714D01*
X87290476Y-148204952D01*
X87242857Y-148252571D01*
X87147619Y-148300190D01*
X86766666Y-148300190D01*
X88242857Y-147776380D02*
X87766666Y-147776380D01*
X87719047Y-148252571D01*
X87766666Y-148204952D01*
X87861904Y-148157333D01*
X88100000Y-148157333D01*
X88195238Y-148204952D01*
X88242857Y-148252571D01*
X88290476Y-148347809D01*
X88290476Y-148585904D01*
X88242857Y-148681142D01*
X88195238Y-148728761D01*
X88100000Y-148776380D01*
X87861904Y-148776380D01*
X87766666Y-148728761D01*
X87719047Y-148681142D01*
X88623809Y-147776380D02*
X89290476Y-147776380D01*
X88861904Y-148776380D01*
%TO.C,TP34*%
X93361904Y-102814380D02*
X93933333Y-102814380D01*
X93647619Y-103814380D02*
X93647619Y-102814380D01*
X94266666Y-103814380D02*
X94266666Y-102814380D01*
X94647619Y-102814380D01*
X94742857Y-102862000D01*
X94790476Y-102909619D01*
X94838095Y-103004857D01*
X94838095Y-103147714D01*
X94790476Y-103242952D01*
X94742857Y-103290571D01*
X94647619Y-103338190D01*
X94266666Y-103338190D01*
X95171428Y-102814380D02*
X95790476Y-102814380D01*
X95457142Y-103195333D01*
X95600000Y-103195333D01*
X95695238Y-103242952D01*
X95742857Y-103290571D01*
X95790476Y-103385809D01*
X95790476Y-103623904D01*
X95742857Y-103719142D01*
X95695238Y-103766761D01*
X95600000Y-103814380D01*
X95314285Y-103814380D01*
X95219047Y-103766761D01*
X95171428Y-103719142D01*
X96647619Y-103147714D02*
X96647619Y-103814380D01*
X96409523Y-102766761D02*
X96171428Y-103481047D01*
X96790476Y-103481047D01*
%TO.C,TP23*%
X87611904Y-84958380D02*
X88183333Y-84958380D01*
X87897619Y-85958380D02*
X87897619Y-84958380D01*
X88516666Y-85958380D02*
X88516666Y-84958380D01*
X88897619Y-84958380D01*
X88992857Y-85006000D01*
X89040476Y-85053619D01*
X89088095Y-85148857D01*
X89088095Y-85291714D01*
X89040476Y-85386952D01*
X88992857Y-85434571D01*
X88897619Y-85482190D01*
X88516666Y-85482190D01*
X89469047Y-85053619D02*
X89516666Y-85006000D01*
X89611904Y-84958380D01*
X89850000Y-84958380D01*
X89945238Y-85006000D01*
X89992857Y-85053619D01*
X90040476Y-85148857D01*
X90040476Y-85244095D01*
X89992857Y-85386952D01*
X89421428Y-85958380D01*
X90040476Y-85958380D01*
X90373809Y-84958380D02*
X90992857Y-84958380D01*
X90659523Y-85339333D01*
X90802380Y-85339333D01*
X90897619Y-85386952D01*
X90945238Y-85434571D01*
X90992857Y-85529809D01*
X90992857Y-85767904D01*
X90945238Y-85863142D01*
X90897619Y-85910761D01*
X90802380Y-85958380D01*
X90516666Y-85958380D01*
X90421428Y-85910761D01*
X90373809Y-85863142D01*
%TO.C,TP30*%
X89861904Y-114814380D02*
X90433333Y-114814380D01*
X90147619Y-115814380D02*
X90147619Y-114814380D01*
X90766666Y-115814380D02*
X90766666Y-114814380D01*
X91147619Y-114814380D01*
X91242857Y-114862000D01*
X91290476Y-114909619D01*
X91338095Y-115004857D01*
X91338095Y-115147714D01*
X91290476Y-115242952D01*
X91242857Y-115290571D01*
X91147619Y-115338190D01*
X90766666Y-115338190D01*
X91671428Y-114814380D02*
X92290476Y-114814380D01*
X91957142Y-115195333D01*
X92100000Y-115195333D01*
X92195238Y-115242952D01*
X92242857Y-115290571D01*
X92290476Y-115385809D01*
X92290476Y-115623904D01*
X92242857Y-115719142D01*
X92195238Y-115766761D01*
X92100000Y-115814380D01*
X91814285Y-115814380D01*
X91719047Y-115766761D01*
X91671428Y-115719142D01*
X92909523Y-114814380D02*
X93004761Y-114814380D01*
X93100000Y-114862000D01*
X93147619Y-114909619D01*
X93195238Y-115004857D01*
X93242857Y-115195333D01*
X93242857Y-115433428D01*
X93195238Y-115623904D01*
X93147619Y-115719142D01*
X93100000Y-115766761D01*
X93004761Y-115814380D01*
X92909523Y-115814380D01*
X92814285Y-115766761D01*
X92766666Y-115719142D01*
X92719047Y-115623904D01*
X92671428Y-115433428D01*
X92671428Y-115195333D01*
X92719047Y-115004857D01*
X92766666Y-114909619D01*
X92814285Y-114862000D01*
X92909523Y-114814380D01*
%TO.C,TP66*%
X89861904Y-182632380D02*
X90433333Y-182632380D01*
X90147619Y-183632380D02*
X90147619Y-182632380D01*
X90766666Y-183632380D02*
X90766666Y-182632380D01*
X91147619Y-182632380D01*
X91242857Y-182680000D01*
X91290476Y-182727619D01*
X91338095Y-182822857D01*
X91338095Y-182965714D01*
X91290476Y-183060952D01*
X91242857Y-183108571D01*
X91147619Y-183156190D01*
X90766666Y-183156190D01*
X92195238Y-182632380D02*
X92004761Y-182632380D01*
X91909523Y-182680000D01*
X91861904Y-182727619D01*
X91766666Y-182870476D01*
X91719047Y-183060952D01*
X91719047Y-183441904D01*
X91766666Y-183537142D01*
X91814285Y-183584761D01*
X91909523Y-183632380D01*
X92100000Y-183632380D01*
X92195238Y-183584761D01*
X92242857Y-183537142D01*
X92290476Y-183441904D01*
X92290476Y-183203809D01*
X92242857Y-183108571D01*
X92195238Y-183060952D01*
X92100000Y-183013333D01*
X91909523Y-183013333D01*
X91814285Y-183060952D01*
X91766666Y-183108571D01*
X91719047Y-183203809D01*
X93147619Y-182632380D02*
X92957142Y-182632380D01*
X92861904Y-182680000D01*
X92814285Y-182727619D01*
X92719047Y-182870476D01*
X92671428Y-183060952D01*
X92671428Y-183441904D01*
X92719047Y-183537142D01*
X92766666Y-183584761D01*
X92861904Y-183632380D01*
X93052380Y-183632380D01*
X93147619Y-183584761D01*
X93195238Y-183537142D01*
X93242857Y-183441904D01*
X93242857Y-183203809D01*
X93195238Y-183108571D01*
X93147619Y-183060952D01*
X93052380Y-183013333D01*
X92861904Y-183013333D01*
X92766666Y-183060952D01*
X92719047Y-183108571D01*
X92671428Y-183203809D01*
%TO.C,J2*%
X99766666Y-68102380D02*
X99766666Y-68816666D01*
X99719047Y-68959523D01*
X99623809Y-69054761D01*
X99480952Y-69102380D01*
X99385714Y-69102380D01*
X100195238Y-68197619D02*
X100242857Y-68150000D01*
X100338095Y-68102380D01*
X100576190Y-68102380D01*
X100671428Y-68150000D01*
X100719047Y-68197619D01*
X100766666Y-68292857D01*
X100766666Y-68388095D01*
X100719047Y-68530952D01*
X100147619Y-69102380D01*
X100766666Y-69102380D01*
%TO.C,TP2*%
X90338095Y-65852380D02*
X90909523Y-65852380D01*
X90623809Y-66852380D02*
X90623809Y-65852380D01*
X91242857Y-66852380D02*
X91242857Y-65852380D01*
X91623809Y-65852380D01*
X91719047Y-65900000D01*
X91766666Y-65947619D01*
X91814285Y-66042857D01*
X91814285Y-66185714D01*
X91766666Y-66280952D01*
X91719047Y-66328571D01*
X91623809Y-66376190D01*
X91242857Y-66376190D01*
X92195238Y-65947619D02*
X92242857Y-65900000D01*
X92338095Y-65852380D01*
X92576190Y-65852380D01*
X92671428Y-65900000D01*
X92719047Y-65947619D01*
X92766666Y-66042857D01*
X92766666Y-66138095D01*
X92719047Y-66280952D01*
X92147619Y-66852380D01*
X92766666Y-66852380D01*
%TO.C,TP65*%
X89861904Y-180632380D02*
X90433333Y-180632380D01*
X90147619Y-181632380D02*
X90147619Y-180632380D01*
X90766666Y-181632380D02*
X90766666Y-180632380D01*
X91147619Y-180632380D01*
X91242857Y-180680000D01*
X91290476Y-180727619D01*
X91338095Y-180822857D01*
X91338095Y-180965714D01*
X91290476Y-181060952D01*
X91242857Y-181108571D01*
X91147619Y-181156190D01*
X90766666Y-181156190D01*
X92195238Y-180632380D02*
X92004761Y-180632380D01*
X91909523Y-180680000D01*
X91861904Y-180727619D01*
X91766666Y-180870476D01*
X91719047Y-181060952D01*
X91719047Y-181441904D01*
X91766666Y-181537142D01*
X91814285Y-181584761D01*
X91909523Y-181632380D01*
X92100000Y-181632380D01*
X92195238Y-181584761D01*
X92242857Y-181537142D01*
X92290476Y-181441904D01*
X92290476Y-181203809D01*
X92242857Y-181108571D01*
X92195238Y-181060952D01*
X92100000Y-181013333D01*
X91909523Y-181013333D01*
X91814285Y-181060952D01*
X91766666Y-181108571D01*
X91719047Y-181203809D01*
X93195238Y-180632380D02*
X92719047Y-180632380D01*
X92671428Y-181108571D01*
X92719047Y-181060952D01*
X92814285Y-181013333D01*
X93052380Y-181013333D01*
X93147619Y-181060952D01*
X93195238Y-181108571D01*
X93242857Y-181203809D01*
X93242857Y-181441904D01*
X93195238Y-181537142D01*
X93147619Y-181584761D01*
X93052380Y-181632380D01*
X92814285Y-181632380D01*
X92719047Y-181584761D01*
X92671428Y-181537142D01*
%TO.C,TP60*%
X94111904Y-154526380D02*
X94683333Y-154526380D01*
X94397619Y-155526380D02*
X94397619Y-154526380D01*
X95016666Y-155526380D02*
X95016666Y-154526380D01*
X95397619Y-154526380D01*
X95492857Y-154574000D01*
X95540476Y-154621619D01*
X95588095Y-154716857D01*
X95588095Y-154859714D01*
X95540476Y-154954952D01*
X95492857Y-155002571D01*
X95397619Y-155050190D01*
X95016666Y-155050190D01*
X96445238Y-154526380D02*
X96254761Y-154526380D01*
X96159523Y-154574000D01*
X96111904Y-154621619D01*
X96016666Y-154764476D01*
X95969047Y-154954952D01*
X95969047Y-155335904D01*
X96016666Y-155431142D01*
X96064285Y-155478761D01*
X96159523Y-155526380D01*
X96350000Y-155526380D01*
X96445238Y-155478761D01*
X96492857Y-155431142D01*
X96540476Y-155335904D01*
X96540476Y-155097809D01*
X96492857Y-155002571D01*
X96445238Y-154954952D01*
X96350000Y-154907333D01*
X96159523Y-154907333D01*
X96064285Y-154954952D01*
X96016666Y-155002571D01*
X95969047Y-155097809D01*
X97159523Y-154526380D02*
X97254761Y-154526380D01*
X97350000Y-154574000D01*
X97397619Y-154621619D01*
X97445238Y-154716857D01*
X97492857Y-154907333D01*
X97492857Y-155145428D01*
X97445238Y-155335904D01*
X97397619Y-155431142D01*
X97350000Y-155478761D01*
X97254761Y-155526380D01*
X97159523Y-155526380D01*
X97064285Y-155478761D01*
X97016666Y-155431142D01*
X96969047Y-155335904D01*
X96921428Y-155145428D01*
X96921428Y-154907333D01*
X96969047Y-154716857D01*
X97016666Y-154621619D01*
X97064285Y-154574000D01*
X97159523Y-154526380D01*
%TO.C,H2*%
X104238095Y-41652380D02*
X104238095Y-40652380D01*
X104238095Y-41128571D02*
X104809523Y-41128571D01*
X104809523Y-41652380D02*
X104809523Y-40652380D01*
X105238095Y-40747619D02*
X105285714Y-40700000D01*
X105380952Y-40652380D01*
X105619047Y-40652380D01*
X105714285Y-40700000D01*
X105761904Y-40747619D01*
X105809523Y-40842857D01*
X105809523Y-40938095D01*
X105761904Y-41080952D01*
X105190476Y-41652380D01*
X105809523Y-41652380D01*
%TO.C,TP11*%
X87611904Y-62352380D02*
X88183333Y-62352380D01*
X87897619Y-63352380D02*
X87897619Y-62352380D01*
X88516666Y-63352380D02*
X88516666Y-62352380D01*
X88897619Y-62352380D01*
X88992857Y-62400000D01*
X89040476Y-62447619D01*
X89088095Y-62542857D01*
X89088095Y-62685714D01*
X89040476Y-62780952D01*
X88992857Y-62828571D01*
X88897619Y-62876190D01*
X88516666Y-62876190D01*
X90040476Y-63352380D02*
X89469047Y-63352380D01*
X89754761Y-63352380D02*
X89754761Y-62352380D01*
X89659523Y-62495238D01*
X89564285Y-62590476D01*
X89469047Y-62638095D01*
X90992857Y-63352380D02*
X90421428Y-63352380D01*
X90707142Y-63352380D02*
X90707142Y-62352380D01*
X90611904Y-62495238D01*
X90516666Y-62590476D01*
X90421428Y-62638095D01*
%TO.C,TP28*%
X90611904Y-100314380D02*
X91183333Y-100314380D01*
X90897619Y-101314380D02*
X90897619Y-100314380D01*
X91516666Y-101314380D02*
X91516666Y-100314380D01*
X91897619Y-100314380D01*
X91992857Y-100362000D01*
X92040476Y-100409619D01*
X92088095Y-100504857D01*
X92088095Y-100647714D01*
X92040476Y-100742952D01*
X91992857Y-100790571D01*
X91897619Y-100838190D01*
X91516666Y-100838190D01*
X92469047Y-100409619D02*
X92516666Y-100362000D01*
X92611904Y-100314380D01*
X92850000Y-100314380D01*
X92945238Y-100362000D01*
X92992857Y-100409619D01*
X93040476Y-100504857D01*
X93040476Y-100600095D01*
X92992857Y-100742952D01*
X92421428Y-101314380D01*
X93040476Y-101314380D01*
X93611904Y-100742952D02*
X93516666Y-100695333D01*
X93469047Y-100647714D01*
X93421428Y-100552476D01*
X93421428Y-100504857D01*
X93469047Y-100409619D01*
X93516666Y-100362000D01*
X93611904Y-100314380D01*
X93802380Y-100314380D01*
X93897619Y-100362000D01*
X93945238Y-100409619D01*
X93992857Y-100504857D01*
X93992857Y-100552476D01*
X93945238Y-100647714D01*
X93897619Y-100695333D01*
X93802380Y-100742952D01*
X93611904Y-100742952D01*
X93516666Y-100790571D01*
X93469047Y-100838190D01*
X93421428Y-100933428D01*
X93421428Y-101123904D01*
X93469047Y-101219142D01*
X93516666Y-101266761D01*
X93611904Y-101314380D01*
X93802380Y-101314380D01*
X93897619Y-101266761D01*
X93945238Y-101219142D01*
X93992857Y-101123904D01*
X93992857Y-100933428D01*
X93945238Y-100838190D01*
X93897619Y-100790571D01*
X93802380Y-100742952D01*
%TO.C,TP8*%
X95088095Y-59852380D02*
X95659523Y-59852380D01*
X95373809Y-60852380D02*
X95373809Y-59852380D01*
X95992857Y-60852380D02*
X95992857Y-59852380D01*
X96373809Y-59852380D01*
X96469047Y-59900000D01*
X96516666Y-59947619D01*
X96564285Y-60042857D01*
X96564285Y-60185714D01*
X96516666Y-60280952D01*
X96469047Y-60328571D01*
X96373809Y-60376190D01*
X95992857Y-60376190D01*
X97135714Y-60280952D02*
X97040476Y-60233333D01*
X96992857Y-60185714D01*
X96945238Y-60090476D01*
X96945238Y-60042857D01*
X96992857Y-59947619D01*
X97040476Y-59900000D01*
X97135714Y-59852380D01*
X97326190Y-59852380D01*
X97421428Y-59900000D01*
X97469047Y-59947619D01*
X97516666Y-60042857D01*
X97516666Y-60090476D01*
X97469047Y-60185714D01*
X97421428Y-60233333D01*
X97326190Y-60280952D01*
X97135714Y-60280952D01*
X97040476Y-60328571D01*
X96992857Y-60376190D01*
X96945238Y-60471428D01*
X96945238Y-60661904D01*
X96992857Y-60757142D01*
X97040476Y-60804761D01*
X97135714Y-60852380D01*
X97326190Y-60852380D01*
X97421428Y-60804761D01*
X97469047Y-60757142D01*
X97516666Y-60661904D01*
X97516666Y-60471428D01*
X97469047Y-60376190D01*
X97421428Y-60328571D01*
X97326190Y-60280952D01*
%TO.C,TP64*%
X90611904Y-168132380D02*
X91183333Y-168132380D01*
X90897619Y-169132380D02*
X90897619Y-168132380D01*
X91516666Y-169132380D02*
X91516666Y-168132380D01*
X91897619Y-168132380D01*
X91992857Y-168180000D01*
X92040476Y-168227619D01*
X92088095Y-168322857D01*
X92088095Y-168465714D01*
X92040476Y-168560952D01*
X91992857Y-168608571D01*
X91897619Y-168656190D01*
X91516666Y-168656190D01*
X92945238Y-168132380D02*
X92754761Y-168132380D01*
X92659523Y-168180000D01*
X92611904Y-168227619D01*
X92516666Y-168370476D01*
X92469047Y-168560952D01*
X92469047Y-168941904D01*
X92516666Y-169037142D01*
X92564285Y-169084761D01*
X92659523Y-169132380D01*
X92850000Y-169132380D01*
X92945238Y-169084761D01*
X92992857Y-169037142D01*
X93040476Y-168941904D01*
X93040476Y-168703809D01*
X92992857Y-168608571D01*
X92945238Y-168560952D01*
X92850000Y-168513333D01*
X92659523Y-168513333D01*
X92564285Y-168560952D01*
X92516666Y-168608571D01*
X92469047Y-168703809D01*
X93897619Y-168465714D02*
X93897619Y-169132380D01*
X93659523Y-168084761D02*
X93421428Y-168799047D01*
X94040476Y-168799047D01*
%TO.C,TP56*%
X94611904Y-150276380D02*
X95183333Y-150276380D01*
X94897619Y-151276380D02*
X94897619Y-150276380D01*
X95516666Y-151276380D02*
X95516666Y-150276380D01*
X95897619Y-150276380D01*
X95992857Y-150324000D01*
X96040476Y-150371619D01*
X96088095Y-150466857D01*
X96088095Y-150609714D01*
X96040476Y-150704952D01*
X95992857Y-150752571D01*
X95897619Y-150800190D01*
X95516666Y-150800190D01*
X96992857Y-150276380D02*
X96516666Y-150276380D01*
X96469047Y-150752571D01*
X96516666Y-150704952D01*
X96611904Y-150657333D01*
X96850000Y-150657333D01*
X96945238Y-150704952D01*
X96992857Y-150752571D01*
X97040476Y-150847809D01*
X97040476Y-151085904D01*
X96992857Y-151181142D01*
X96945238Y-151228761D01*
X96850000Y-151276380D01*
X96611904Y-151276380D01*
X96516666Y-151228761D01*
X96469047Y-151181142D01*
X97897619Y-150276380D02*
X97707142Y-150276380D01*
X97611904Y-150324000D01*
X97564285Y-150371619D01*
X97469047Y-150514476D01*
X97421428Y-150704952D01*
X97421428Y-151085904D01*
X97469047Y-151181142D01*
X97516666Y-151228761D01*
X97611904Y-151276380D01*
X97802380Y-151276380D01*
X97897619Y-151228761D01*
X97945238Y-151181142D01*
X97992857Y-151085904D01*
X97992857Y-150847809D01*
X97945238Y-150752571D01*
X97897619Y-150704952D01*
X97802380Y-150657333D01*
X97611904Y-150657333D01*
X97516666Y-150704952D01*
X97469047Y-150752571D01*
X97421428Y-150847809D01*
%TO.C,TP47*%
X87611904Y-130170380D02*
X88183333Y-130170380D01*
X87897619Y-131170380D02*
X87897619Y-130170380D01*
X88516666Y-131170380D02*
X88516666Y-130170380D01*
X88897619Y-130170380D01*
X88992857Y-130218000D01*
X89040476Y-130265619D01*
X89088095Y-130360857D01*
X89088095Y-130503714D01*
X89040476Y-130598952D01*
X88992857Y-130646571D01*
X88897619Y-130694190D01*
X88516666Y-130694190D01*
X89945238Y-130503714D02*
X89945238Y-131170380D01*
X89707142Y-130122761D02*
X89469047Y-130837047D01*
X90088095Y-130837047D01*
X90373809Y-130170380D02*
X91040476Y-130170380D01*
X90611904Y-131170380D01*
%TO.C,TP9*%
X86338095Y-57352380D02*
X86909523Y-57352380D01*
X86623809Y-58352380D02*
X86623809Y-57352380D01*
X87242857Y-58352380D02*
X87242857Y-57352380D01*
X87623809Y-57352380D01*
X87719047Y-57400000D01*
X87766666Y-57447619D01*
X87814285Y-57542857D01*
X87814285Y-57685714D01*
X87766666Y-57780952D01*
X87719047Y-57828571D01*
X87623809Y-57876190D01*
X87242857Y-57876190D01*
X88290476Y-58352380D02*
X88480952Y-58352380D01*
X88576190Y-58304761D01*
X88623809Y-58257142D01*
X88719047Y-58114285D01*
X88766666Y-57923809D01*
X88766666Y-57542857D01*
X88719047Y-57447619D01*
X88671428Y-57400000D01*
X88576190Y-57352380D01*
X88385714Y-57352380D01*
X88290476Y-57400000D01*
X88242857Y-57447619D01*
X88195238Y-57542857D01*
X88195238Y-57780952D01*
X88242857Y-57876190D01*
X88290476Y-57923809D01*
X88385714Y-57971428D01*
X88576190Y-57971428D01*
X88671428Y-57923809D01*
X88719047Y-57876190D01*
X88766666Y-57780952D01*
%TO.C,TP37*%
X89361904Y-117972380D02*
X89933333Y-117972380D01*
X89647619Y-118972380D02*
X89647619Y-117972380D01*
X90266666Y-118972380D02*
X90266666Y-117972380D01*
X90647619Y-117972380D01*
X90742857Y-118020000D01*
X90790476Y-118067619D01*
X90838095Y-118162857D01*
X90838095Y-118305714D01*
X90790476Y-118400952D01*
X90742857Y-118448571D01*
X90647619Y-118496190D01*
X90266666Y-118496190D01*
X91171428Y-117972380D02*
X91790476Y-117972380D01*
X91457142Y-118353333D01*
X91600000Y-118353333D01*
X91695238Y-118400952D01*
X91742857Y-118448571D01*
X91790476Y-118543809D01*
X91790476Y-118781904D01*
X91742857Y-118877142D01*
X91695238Y-118924761D01*
X91600000Y-118972380D01*
X91314285Y-118972380D01*
X91219047Y-118924761D01*
X91171428Y-118877142D01*
X92123809Y-117972380D02*
X92790476Y-117972380D01*
X92361904Y-118972380D01*
%TO.C,TP52*%
X90611904Y-145526380D02*
X91183333Y-145526380D01*
X90897619Y-146526380D02*
X90897619Y-145526380D01*
X91516666Y-146526380D02*
X91516666Y-145526380D01*
X91897619Y-145526380D01*
X91992857Y-145574000D01*
X92040476Y-145621619D01*
X92088095Y-145716857D01*
X92088095Y-145859714D01*
X92040476Y-145954952D01*
X91992857Y-146002571D01*
X91897619Y-146050190D01*
X91516666Y-146050190D01*
X92992857Y-145526380D02*
X92516666Y-145526380D01*
X92469047Y-146002571D01*
X92516666Y-145954952D01*
X92611904Y-145907333D01*
X92850000Y-145907333D01*
X92945238Y-145954952D01*
X92992857Y-146002571D01*
X93040476Y-146097809D01*
X93040476Y-146335904D01*
X92992857Y-146431142D01*
X92945238Y-146478761D01*
X92850000Y-146526380D01*
X92611904Y-146526380D01*
X92516666Y-146478761D01*
X92469047Y-146431142D01*
X93421428Y-145621619D02*
X93469047Y-145574000D01*
X93564285Y-145526380D01*
X93802380Y-145526380D01*
X93897619Y-145574000D01*
X93945238Y-145621619D01*
X93992857Y-145716857D01*
X93992857Y-145812095D01*
X93945238Y-145954952D01*
X93373809Y-146526380D01*
X93992857Y-146526380D01*
%TO.C,TP25*%
X89361904Y-95366380D02*
X89933333Y-95366380D01*
X89647619Y-96366380D02*
X89647619Y-95366380D01*
X90266666Y-96366380D02*
X90266666Y-95366380D01*
X90647619Y-95366380D01*
X90742857Y-95414000D01*
X90790476Y-95461619D01*
X90838095Y-95556857D01*
X90838095Y-95699714D01*
X90790476Y-95794952D01*
X90742857Y-95842571D01*
X90647619Y-95890190D01*
X90266666Y-95890190D01*
X91219047Y-95461619D02*
X91266666Y-95414000D01*
X91361904Y-95366380D01*
X91600000Y-95366380D01*
X91695238Y-95414000D01*
X91742857Y-95461619D01*
X91790476Y-95556857D01*
X91790476Y-95652095D01*
X91742857Y-95794952D01*
X91171428Y-96366380D01*
X91790476Y-96366380D01*
X92695238Y-95366380D02*
X92219047Y-95366380D01*
X92171428Y-95842571D01*
X92219047Y-95794952D01*
X92314285Y-95747333D01*
X92552380Y-95747333D01*
X92647619Y-95794952D01*
X92695238Y-95842571D01*
X92742857Y-95937809D01*
X92742857Y-96175904D01*
X92695238Y-96271142D01*
X92647619Y-96318761D01*
X92552380Y-96366380D01*
X92314285Y-96366380D01*
X92219047Y-96318761D01*
X92171428Y-96271142D01*
%TO.C,J9*%
X85287380Y-143217333D02*
X86001666Y-143217333D01*
X86144523Y-143264952D01*
X86239761Y-143360190D01*
X86287380Y-143503047D01*
X86287380Y-143598285D01*
X86287380Y-142693523D02*
X86287380Y-142503047D01*
X86239761Y-142407809D01*
X86192142Y-142360190D01*
X86049285Y-142264952D01*
X85858809Y-142217333D01*
X85477857Y-142217333D01*
X85382619Y-142264952D01*
X85335000Y-142312571D01*
X85287380Y-142407809D01*
X85287380Y-142598285D01*
X85335000Y-142693523D01*
X85382619Y-142741142D01*
X85477857Y-142788761D01*
X85715952Y-142788761D01*
X85811190Y-142741142D01*
X85858809Y-142693523D01*
X85906428Y-142598285D01*
X85906428Y-142407809D01*
X85858809Y-142312571D01*
X85811190Y-142264952D01*
X85715952Y-142217333D01*
%TO.C,TP31*%
X87611904Y-105064380D02*
X88183333Y-105064380D01*
X87897619Y-106064380D02*
X87897619Y-105064380D01*
X88516666Y-106064380D02*
X88516666Y-105064380D01*
X88897619Y-105064380D01*
X88992857Y-105112000D01*
X89040476Y-105159619D01*
X89088095Y-105254857D01*
X89088095Y-105397714D01*
X89040476Y-105492952D01*
X88992857Y-105540571D01*
X88897619Y-105588190D01*
X88516666Y-105588190D01*
X89421428Y-105064380D02*
X90040476Y-105064380D01*
X89707142Y-105445333D01*
X89850000Y-105445333D01*
X89945238Y-105492952D01*
X89992857Y-105540571D01*
X90040476Y-105635809D01*
X90040476Y-105873904D01*
X89992857Y-105969142D01*
X89945238Y-106016761D01*
X89850000Y-106064380D01*
X89564285Y-106064380D01*
X89469047Y-106016761D01*
X89421428Y-105969142D01*
X90992857Y-106064380D02*
X90421428Y-106064380D01*
X90707142Y-106064380D02*
X90707142Y-105064380D01*
X90611904Y-105207238D01*
X90516666Y-105302476D01*
X90421428Y-105350095D01*
%TO.C,TP14*%
X89861904Y-88458380D02*
X90433333Y-88458380D01*
X90147619Y-89458380D02*
X90147619Y-88458380D01*
X90766666Y-89458380D02*
X90766666Y-88458380D01*
X91147619Y-88458380D01*
X91242857Y-88506000D01*
X91290476Y-88553619D01*
X91338095Y-88648857D01*
X91338095Y-88791714D01*
X91290476Y-88886952D01*
X91242857Y-88934571D01*
X91147619Y-88982190D01*
X90766666Y-88982190D01*
X92290476Y-89458380D02*
X91719047Y-89458380D01*
X92004761Y-89458380D02*
X92004761Y-88458380D01*
X91909523Y-88601238D01*
X91814285Y-88696476D01*
X91719047Y-88744095D01*
X93147619Y-88791714D02*
X93147619Y-89458380D01*
X92909523Y-88410761D02*
X92671428Y-89125047D01*
X93290476Y-89125047D01*
%TO.C,TP58*%
X93361904Y-148026380D02*
X93933333Y-148026380D01*
X93647619Y-149026380D02*
X93647619Y-148026380D01*
X94266666Y-149026380D02*
X94266666Y-148026380D01*
X94647619Y-148026380D01*
X94742857Y-148074000D01*
X94790476Y-148121619D01*
X94838095Y-148216857D01*
X94838095Y-148359714D01*
X94790476Y-148454952D01*
X94742857Y-148502571D01*
X94647619Y-148550190D01*
X94266666Y-148550190D01*
X95742857Y-148026380D02*
X95266666Y-148026380D01*
X95219047Y-148502571D01*
X95266666Y-148454952D01*
X95361904Y-148407333D01*
X95600000Y-148407333D01*
X95695238Y-148454952D01*
X95742857Y-148502571D01*
X95790476Y-148597809D01*
X95790476Y-148835904D01*
X95742857Y-148931142D01*
X95695238Y-148978761D01*
X95600000Y-149026380D01*
X95361904Y-149026380D01*
X95266666Y-148978761D01*
X95219047Y-148931142D01*
X96361904Y-148454952D02*
X96266666Y-148407333D01*
X96219047Y-148359714D01*
X96171428Y-148264476D01*
X96171428Y-148216857D01*
X96219047Y-148121619D01*
X96266666Y-148074000D01*
X96361904Y-148026380D01*
X96552380Y-148026380D01*
X96647619Y-148074000D01*
X96695238Y-148121619D01*
X96742857Y-148216857D01*
X96742857Y-148264476D01*
X96695238Y-148359714D01*
X96647619Y-148407333D01*
X96552380Y-148454952D01*
X96361904Y-148454952D01*
X96266666Y-148502571D01*
X96219047Y-148550190D01*
X96171428Y-148645428D01*
X96171428Y-148835904D01*
X96219047Y-148931142D01*
X96266666Y-148978761D01*
X96361904Y-149026380D01*
X96552380Y-149026380D01*
X96647619Y-148978761D01*
X96695238Y-148931142D01*
X96742857Y-148835904D01*
X96742857Y-148645428D01*
X96695238Y-148550190D01*
X96647619Y-148502571D01*
X96552380Y-148454952D01*
%TO.C,TP32*%
X94611904Y-105064380D02*
X95183333Y-105064380D01*
X94897619Y-106064380D02*
X94897619Y-105064380D01*
X95516666Y-106064380D02*
X95516666Y-105064380D01*
X95897619Y-105064380D01*
X95992857Y-105112000D01*
X96040476Y-105159619D01*
X96088095Y-105254857D01*
X96088095Y-105397714D01*
X96040476Y-105492952D01*
X95992857Y-105540571D01*
X95897619Y-105588190D01*
X95516666Y-105588190D01*
X96421428Y-105064380D02*
X97040476Y-105064380D01*
X96707142Y-105445333D01*
X96850000Y-105445333D01*
X96945238Y-105492952D01*
X96992857Y-105540571D01*
X97040476Y-105635809D01*
X97040476Y-105873904D01*
X96992857Y-105969142D01*
X96945238Y-106016761D01*
X96850000Y-106064380D01*
X96564285Y-106064380D01*
X96469047Y-106016761D01*
X96421428Y-105969142D01*
X97421428Y-105159619D02*
X97469047Y-105112000D01*
X97564285Y-105064380D01*
X97802380Y-105064380D01*
X97897619Y-105112000D01*
X97945238Y-105159619D01*
X97992857Y-105254857D01*
X97992857Y-105350095D01*
X97945238Y-105492952D01*
X97373809Y-106064380D01*
X97992857Y-106064380D01*
%TO.C,TP5*%
X90338095Y-67602380D02*
X90909523Y-67602380D01*
X90623809Y-68602380D02*
X90623809Y-67602380D01*
X91242857Y-68602380D02*
X91242857Y-67602380D01*
X91623809Y-67602380D01*
X91719047Y-67650000D01*
X91766666Y-67697619D01*
X91814285Y-67792857D01*
X91814285Y-67935714D01*
X91766666Y-68030952D01*
X91719047Y-68078571D01*
X91623809Y-68126190D01*
X91242857Y-68126190D01*
X92719047Y-67602380D02*
X92242857Y-67602380D01*
X92195238Y-68078571D01*
X92242857Y-68030952D01*
X92338095Y-67983333D01*
X92576190Y-67983333D01*
X92671428Y-68030952D01*
X92719047Y-68078571D01*
X92766666Y-68173809D01*
X92766666Y-68411904D01*
X92719047Y-68507142D01*
X92671428Y-68554761D01*
X92576190Y-68602380D01*
X92338095Y-68602380D01*
X92242857Y-68554761D01*
X92195238Y-68507142D01*
%TO.C,TP63*%
X86111904Y-166382380D02*
X86683333Y-166382380D01*
X86397619Y-167382380D02*
X86397619Y-166382380D01*
X87016666Y-167382380D02*
X87016666Y-166382380D01*
X87397619Y-166382380D01*
X87492857Y-166430000D01*
X87540476Y-166477619D01*
X87588095Y-166572857D01*
X87588095Y-166715714D01*
X87540476Y-166810952D01*
X87492857Y-166858571D01*
X87397619Y-166906190D01*
X87016666Y-166906190D01*
X88445238Y-166382380D02*
X88254761Y-166382380D01*
X88159523Y-166430000D01*
X88111904Y-166477619D01*
X88016666Y-166620476D01*
X87969047Y-166810952D01*
X87969047Y-167191904D01*
X88016666Y-167287142D01*
X88064285Y-167334761D01*
X88159523Y-167382380D01*
X88350000Y-167382380D01*
X88445238Y-167334761D01*
X88492857Y-167287142D01*
X88540476Y-167191904D01*
X88540476Y-166953809D01*
X88492857Y-166858571D01*
X88445238Y-166810952D01*
X88350000Y-166763333D01*
X88159523Y-166763333D01*
X88064285Y-166810952D01*
X88016666Y-166858571D01*
X87969047Y-166953809D01*
X88873809Y-166382380D02*
X89492857Y-166382380D01*
X89159523Y-166763333D01*
X89302380Y-166763333D01*
X89397619Y-166810952D01*
X89445238Y-166858571D01*
X89492857Y-166953809D01*
X89492857Y-167191904D01*
X89445238Y-167287142D01*
X89397619Y-167334761D01*
X89302380Y-167382380D01*
X89016666Y-167382380D01*
X88921428Y-167334761D01*
X88873809Y-167287142D01*
%TO.C,TP24*%
X94111904Y-86708380D02*
X94683333Y-86708380D01*
X94397619Y-87708380D02*
X94397619Y-86708380D01*
X95016666Y-87708380D02*
X95016666Y-86708380D01*
X95397619Y-86708380D01*
X95492857Y-86756000D01*
X95540476Y-86803619D01*
X95588095Y-86898857D01*
X95588095Y-87041714D01*
X95540476Y-87136952D01*
X95492857Y-87184571D01*
X95397619Y-87232190D01*
X95016666Y-87232190D01*
X95969047Y-86803619D02*
X96016666Y-86756000D01*
X96111904Y-86708380D01*
X96350000Y-86708380D01*
X96445238Y-86756000D01*
X96492857Y-86803619D01*
X96540476Y-86898857D01*
X96540476Y-86994095D01*
X96492857Y-87136952D01*
X95921428Y-87708380D01*
X96540476Y-87708380D01*
X97397619Y-87041714D02*
X97397619Y-87708380D01*
X97159523Y-86660761D02*
X96921428Y-87375047D01*
X97540476Y-87375047D01*
%TO.C,TP27*%
X86111904Y-98564380D02*
X86683333Y-98564380D01*
X86397619Y-99564380D02*
X86397619Y-98564380D01*
X87016666Y-99564380D02*
X87016666Y-98564380D01*
X87397619Y-98564380D01*
X87492857Y-98612000D01*
X87540476Y-98659619D01*
X87588095Y-98754857D01*
X87588095Y-98897714D01*
X87540476Y-98992952D01*
X87492857Y-99040571D01*
X87397619Y-99088190D01*
X87016666Y-99088190D01*
X87969047Y-98659619D02*
X88016666Y-98612000D01*
X88111904Y-98564380D01*
X88350000Y-98564380D01*
X88445238Y-98612000D01*
X88492857Y-98659619D01*
X88540476Y-98754857D01*
X88540476Y-98850095D01*
X88492857Y-98992952D01*
X87921428Y-99564380D01*
X88540476Y-99564380D01*
X88873809Y-98564380D02*
X89540476Y-98564380D01*
X89111904Y-99564380D01*
%TO.C,TP6*%
X90338095Y-69602380D02*
X90909523Y-69602380D01*
X90623809Y-70602380D02*
X90623809Y-69602380D01*
X91242857Y-70602380D02*
X91242857Y-69602380D01*
X91623809Y-69602380D01*
X91719047Y-69650000D01*
X91766666Y-69697619D01*
X91814285Y-69792857D01*
X91814285Y-69935714D01*
X91766666Y-70030952D01*
X91719047Y-70078571D01*
X91623809Y-70126190D01*
X91242857Y-70126190D01*
X92671428Y-69602380D02*
X92480952Y-69602380D01*
X92385714Y-69650000D01*
X92338095Y-69697619D01*
X92242857Y-69840476D01*
X92195238Y-70030952D01*
X92195238Y-70411904D01*
X92242857Y-70507142D01*
X92290476Y-70554761D01*
X92385714Y-70602380D01*
X92576190Y-70602380D01*
X92671428Y-70554761D01*
X92719047Y-70507142D01*
X92766666Y-70411904D01*
X92766666Y-70173809D01*
X92719047Y-70078571D01*
X92671428Y-70030952D01*
X92576190Y-69983333D01*
X92385714Y-69983333D01*
X92290476Y-70030952D01*
X92242857Y-70078571D01*
X92195238Y-70173809D01*
%TO.C,TP48*%
X94111904Y-131920380D02*
X94683333Y-131920380D01*
X94397619Y-132920380D02*
X94397619Y-131920380D01*
X95016666Y-132920380D02*
X95016666Y-131920380D01*
X95397619Y-131920380D01*
X95492857Y-131968000D01*
X95540476Y-132015619D01*
X95588095Y-132110857D01*
X95588095Y-132253714D01*
X95540476Y-132348952D01*
X95492857Y-132396571D01*
X95397619Y-132444190D01*
X95016666Y-132444190D01*
X96445238Y-132253714D02*
X96445238Y-132920380D01*
X96207142Y-131872761D02*
X95969047Y-132587047D01*
X96588095Y-132587047D01*
X97111904Y-132348952D02*
X97016666Y-132301333D01*
X96969047Y-132253714D01*
X96921428Y-132158476D01*
X96921428Y-132110857D01*
X96969047Y-132015619D01*
X97016666Y-131968000D01*
X97111904Y-131920380D01*
X97302380Y-131920380D01*
X97397619Y-131968000D01*
X97445238Y-132015619D01*
X97492857Y-132110857D01*
X97492857Y-132158476D01*
X97445238Y-132253714D01*
X97397619Y-132301333D01*
X97302380Y-132348952D01*
X97111904Y-132348952D01*
X97016666Y-132396571D01*
X96969047Y-132444190D01*
X96921428Y-132539428D01*
X96921428Y-132729904D01*
X96969047Y-132825142D01*
X97016666Y-132872761D01*
X97111904Y-132920380D01*
X97302380Y-132920380D01*
X97397619Y-132872761D01*
X97445238Y-132825142D01*
X97492857Y-132729904D01*
X97492857Y-132539428D01*
X97445238Y-132444190D01*
X97397619Y-132396571D01*
X97302380Y-132348952D01*
%TO.C,TP72*%
X94111904Y-177132380D02*
X94683333Y-177132380D01*
X94397619Y-178132380D02*
X94397619Y-177132380D01*
X95016666Y-178132380D02*
X95016666Y-177132380D01*
X95397619Y-177132380D01*
X95492857Y-177180000D01*
X95540476Y-177227619D01*
X95588095Y-177322857D01*
X95588095Y-177465714D01*
X95540476Y-177560952D01*
X95492857Y-177608571D01*
X95397619Y-177656190D01*
X95016666Y-177656190D01*
X95921428Y-177132380D02*
X96588095Y-177132380D01*
X96159523Y-178132380D01*
X96921428Y-177227619D02*
X96969047Y-177180000D01*
X97064285Y-177132380D01*
X97302380Y-177132380D01*
X97397619Y-177180000D01*
X97445238Y-177227619D01*
X97492857Y-177322857D01*
X97492857Y-177418095D01*
X97445238Y-177560952D01*
X96873809Y-178132380D01*
X97492857Y-178132380D01*
%TO.C,TP17*%
X89861904Y-90208380D02*
X90433333Y-90208380D01*
X90147619Y-91208380D02*
X90147619Y-90208380D01*
X90766666Y-91208380D02*
X90766666Y-90208380D01*
X91147619Y-90208380D01*
X91242857Y-90256000D01*
X91290476Y-90303619D01*
X91338095Y-90398857D01*
X91338095Y-90541714D01*
X91290476Y-90636952D01*
X91242857Y-90684571D01*
X91147619Y-90732190D01*
X90766666Y-90732190D01*
X92290476Y-91208380D02*
X91719047Y-91208380D01*
X92004761Y-91208380D02*
X92004761Y-90208380D01*
X91909523Y-90351238D01*
X91814285Y-90446476D01*
X91719047Y-90494095D01*
X92623809Y-90208380D02*
X93290476Y-90208380D01*
X92861904Y-91208380D01*
%TO.C,TP67*%
X87611904Y-172882380D02*
X88183333Y-172882380D01*
X87897619Y-173882380D02*
X87897619Y-172882380D01*
X88516666Y-173882380D02*
X88516666Y-172882380D01*
X88897619Y-172882380D01*
X88992857Y-172930000D01*
X89040476Y-172977619D01*
X89088095Y-173072857D01*
X89088095Y-173215714D01*
X89040476Y-173310952D01*
X88992857Y-173358571D01*
X88897619Y-173406190D01*
X88516666Y-173406190D01*
X89945238Y-172882380D02*
X89754761Y-172882380D01*
X89659523Y-172930000D01*
X89611904Y-172977619D01*
X89516666Y-173120476D01*
X89469047Y-173310952D01*
X89469047Y-173691904D01*
X89516666Y-173787142D01*
X89564285Y-173834761D01*
X89659523Y-173882380D01*
X89850000Y-173882380D01*
X89945238Y-173834761D01*
X89992857Y-173787142D01*
X90040476Y-173691904D01*
X90040476Y-173453809D01*
X89992857Y-173358571D01*
X89945238Y-173310952D01*
X89850000Y-173263333D01*
X89659523Y-173263333D01*
X89564285Y-173310952D01*
X89516666Y-173358571D01*
X89469047Y-173453809D01*
X90373809Y-172882380D02*
X91040476Y-172882380D01*
X90611904Y-173882380D01*
%TO.C,TP38*%
X89861904Y-133670380D02*
X90433333Y-133670380D01*
X90147619Y-134670380D02*
X90147619Y-133670380D01*
X90766666Y-134670380D02*
X90766666Y-133670380D01*
X91147619Y-133670380D01*
X91242857Y-133718000D01*
X91290476Y-133765619D01*
X91338095Y-133860857D01*
X91338095Y-134003714D01*
X91290476Y-134098952D01*
X91242857Y-134146571D01*
X91147619Y-134194190D01*
X90766666Y-134194190D01*
X91671428Y-133670380D02*
X92290476Y-133670380D01*
X91957142Y-134051333D01*
X92100000Y-134051333D01*
X92195238Y-134098952D01*
X92242857Y-134146571D01*
X92290476Y-134241809D01*
X92290476Y-134479904D01*
X92242857Y-134575142D01*
X92195238Y-134622761D01*
X92100000Y-134670380D01*
X91814285Y-134670380D01*
X91719047Y-134622761D01*
X91671428Y-134575142D01*
X92861904Y-134098952D02*
X92766666Y-134051333D01*
X92719047Y-134003714D01*
X92671428Y-133908476D01*
X92671428Y-133860857D01*
X92719047Y-133765619D01*
X92766666Y-133718000D01*
X92861904Y-133670380D01*
X93052380Y-133670380D01*
X93147619Y-133718000D01*
X93195238Y-133765619D01*
X93242857Y-133860857D01*
X93242857Y-133908476D01*
X93195238Y-134003714D01*
X93147619Y-134051333D01*
X93052380Y-134098952D01*
X92861904Y-134098952D01*
X92766666Y-134146571D01*
X92719047Y-134194190D01*
X92671428Y-134289428D01*
X92671428Y-134479904D01*
X92719047Y-134575142D01*
X92766666Y-134622761D01*
X92861904Y-134670380D01*
X93052380Y-134670380D01*
X93147619Y-134622761D01*
X93195238Y-134575142D01*
X93242857Y-134479904D01*
X93242857Y-134289428D01*
X93195238Y-134194190D01*
X93147619Y-134146571D01*
X93052380Y-134098952D01*
%TO.C,H1*%
X74238095Y-41652380D02*
X74238095Y-40652380D01*
X74238095Y-41128571D02*
X74809523Y-41128571D01*
X74809523Y-41652380D02*
X74809523Y-40652380D01*
X75809523Y-41652380D02*
X75238095Y-41652380D01*
X75523809Y-41652380D02*
X75523809Y-40652380D01*
X75428571Y-40795238D01*
X75333333Y-40890476D01*
X75238095Y-40938095D01*
%TO.C,J4*%
X99802380Y-91733333D02*
X100516666Y-91733333D01*
X100659523Y-91780952D01*
X100754761Y-91876190D01*
X100802380Y-92019047D01*
X100802380Y-92114285D01*
X100135714Y-90828571D02*
X100802380Y-90828571D01*
X99754761Y-91066666D02*
X100469047Y-91304761D01*
X100469047Y-90685714D01*
%TO.C,TP40*%
X90611904Y-122920380D02*
X91183333Y-122920380D01*
X90897619Y-123920380D02*
X90897619Y-122920380D01*
X91516666Y-123920380D02*
X91516666Y-122920380D01*
X91897619Y-122920380D01*
X91992857Y-122968000D01*
X92040476Y-123015619D01*
X92088095Y-123110857D01*
X92088095Y-123253714D01*
X92040476Y-123348952D01*
X91992857Y-123396571D01*
X91897619Y-123444190D01*
X91516666Y-123444190D01*
X92945238Y-123253714D02*
X92945238Y-123920380D01*
X92707142Y-122872761D02*
X92469047Y-123587047D01*
X93088095Y-123587047D01*
X93659523Y-122920380D02*
X93754761Y-122920380D01*
X93850000Y-122968000D01*
X93897619Y-123015619D01*
X93945238Y-123110857D01*
X93992857Y-123301333D01*
X93992857Y-123539428D01*
X93945238Y-123729904D01*
X93897619Y-123825142D01*
X93850000Y-123872761D01*
X93754761Y-123920380D01*
X93659523Y-123920380D01*
X93564285Y-123872761D01*
X93516666Y-123825142D01*
X93469047Y-123729904D01*
X93421428Y-123539428D01*
X93421428Y-123301333D01*
X93469047Y-123110857D01*
X93516666Y-123015619D01*
X93564285Y-122968000D01*
X93659523Y-122920380D01*
%TO.C,J10*%
X99802380Y-160209523D02*
X100516666Y-160209523D01*
X100659523Y-160257142D01*
X100754761Y-160352380D01*
X100802380Y-160495238D01*
X100802380Y-160590476D01*
X100802380Y-159209523D02*
X100802380Y-159780952D01*
X100802380Y-159495238D02*
X99802380Y-159495238D01*
X99945238Y-159590476D01*
X100040476Y-159685714D01*
X100088095Y-159780952D01*
X99802380Y-158590476D02*
X99802380Y-158495238D01*
X99850000Y-158400000D01*
X99897619Y-158352380D01*
X99992857Y-158304761D01*
X100183333Y-158257142D01*
X100421428Y-158257142D01*
X100611904Y-158304761D01*
X100707142Y-158352380D01*
X100754761Y-158400000D01*
X100802380Y-158495238D01*
X100802380Y-158590476D01*
X100754761Y-158685714D01*
X100707142Y-158733333D01*
X100611904Y-158780952D01*
X100421428Y-158828571D01*
X100183333Y-158828571D01*
X99992857Y-158780952D01*
X99897619Y-158733333D01*
X99850000Y-158685714D01*
X99802380Y-158590476D01*
%TO.C,TP36*%
X94111904Y-109314380D02*
X94683333Y-109314380D01*
X94397619Y-110314380D02*
X94397619Y-109314380D01*
X95016666Y-110314380D02*
X95016666Y-109314380D01*
X95397619Y-109314380D01*
X95492857Y-109362000D01*
X95540476Y-109409619D01*
X95588095Y-109504857D01*
X95588095Y-109647714D01*
X95540476Y-109742952D01*
X95492857Y-109790571D01*
X95397619Y-109838190D01*
X95016666Y-109838190D01*
X95921428Y-109314380D02*
X96540476Y-109314380D01*
X96207142Y-109695333D01*
X96350000Y-109695333D01*
X96445238Y-109742952D01*
X96492857Y-109790571D01*
X96540476Y-109885809D01*
X96540476Y-110123904D01*
X96492857Y-110219142D01*
X96445238Y-110266761D01*
X96350000Y-110314380D01*
X96064285Y-110314380D01*
X95969047Y-110266761D01*
X95921428Y-110219142D01*
X97397619Y-109314380D02*
X97207142Y-109314380D01*
X97111904Y-109362000D01*
X97064285Y-109409619D01*
X96969047Y-109552476D01*
X96921428Y-109742952D01*
X96921428Y-110123904D01*
X96969047Y-110219142D01*
X97016666Y-110266761D01*
X97111904Y-110314380D01*
X97302380Y-110314380D01*
X97397619Y-110266761D01*
X97445238Y-110219142D01*
X97492857Y-110123904D01*
X97492857Y-109885809D01*
X97445238Y-109790571D01*
X97397619Y-109742952D01*
X97302380Y-109695333D01*
X97111904Y-109695333D01*
X97016666Y-109742952D01*
X96969047Y-109790571D01*
X96921428Y-109885809D01*
%TO.C,J12*%
X99052380Y-183209523D02*
X99766666Y-183209523D01*
X99909523Y-183257142D01*
X100004761Y-183352380D01*
X100052380Y-183495238D01*
X100052380Y-183590476D01*
X100052380Y-182209523D02*
X100052380Y-182780952D01*
X100052380Y-182495238D02*
X99052380Y-182495238D01*
X99195238Y-182590476D01*
X99290476Y-182685714D01*
X99338095Y-182780952D01*
X99147619Y-181828571D02*
X99100000Y-181780952D01*
X99052380Y-181685714D01*
X99052380Y-181447619D01*
X99100000Y-181352380D01*
X99147619Y-181304761D01*
X99242857Y-181257142D01*
X99338095Y-181257142D01*
X99480952Y-181304761D01*
X100052380Y-181876190D01*
X100052380Y-181257142D01*
%TO.C,TP1*%
X89838095Y-50154380D02*
X90409523Y-50154380D01*
X90123809Y-51154380D02*
X90123809Y-50154380D01*
X90742857Y-51154380D02*
X90742857Y-50154380D01*
X91123809Y-50154380D01*
X91219047Y-50202000D01*
X91266666Y-50249619D01*
X91314285Y-50344857D01*
X91314285Y-50487714D01*
X91266666Y-50582952D01*
X91219047Y-50630571D01*
X91123809Y-50678190D01*
X90742857Y-50678190D01*
X92266666Y-51154380D02*
X91695238Y-51154380D01*
X91980952Y-51154380D02*
X91980952Y-50154380D01*
X91885714Y-50297238D01*
X91790476Y-50392476D01*
X91695238Y-50440095D01*
%TO.C,TP41*%
X89861904Y-135420380D02*
X90433333Y-135420380D01*
X90147619Y-136420380D02*
X90147619Y-135420380D01*
X90766666Y-136420380D02*
X90766666Y-135420380D01*
X91147619Y-135420380D01*
X91242857Y-135468000D01*
X91290476Y-135515619D01*
X91338095Y-135610857D01*
X91338095Y-135753714D01*
X91290476Y-135848952D01*
X91242857Y-135896571D01*
X91147619Y-135944190D01*
X90766666Y-135944190D01*
X92195238Y-135753714D02*
X92195238Y-136420380D01*
X91957142Y-135372761D02*
X91719047Y-136087047D01*
X92338095Y-136087047D01*
X93242857Y-136420380D02*
X92671428Y-136420380D01*
X92957142Y-136420380D02*
X92957142Y-135420380D01*
X92861904Y-135563238D01*
X92766666Y-135658476D01*
X92671428Y-135706095D01*
%TO.C,J3*%
X85287380Y-75399333D02*
X86001666Y-75399333D01*
X86144523Y-75446952D01*
X86239761Y-75542190D01*
X86287380Y-75685047D01*
X86287380Y-75780285D01*
X85287380Y-75018380D02*
X85287380Y-74399333D01*
X85668333Y-74732666D01*
X85668333Y-74589809D01*
X85715952Y-74494571D01*
X85763571Y-74446952D01*
X85858809Y-74399333D01*
X86096904Y-74399333D01*
X86192142Y-74446952D01*
X86239761Y-74494571D01*
X86287380Y-74589809D01*
X86287380Y-74875523D01*
X86239761Y-74970761D01*
X86192142Y-75018380D01*
%TO.C,TP18*%
X89861904Y-92208380D02*
X90433333Y-92208380D01*
X90147619Y-93208380D02*
X90147619Y-92208380D01*
X90766666Y-93208380D02*
X90766666Y-92208380D01*
X91147619Y-92208380D01*
X91242857Y-92256000D01*
X91290476Y-92303619D01*
X91338095Y-92398857D01*
X91338095Y-92541714D01*
X91290476Y-92636952D01*
X91242857Y-92684571D01*
X91147619Y-92732190D01*
X90766666Y-92732190D01*
X92290476Y-93208380D02*
X91719047Y-93208380D01*
X92004761Y-93208380D02*
X92004761Y-92208380D01*
X91909523Y-92351238D01*
X91814285Y-92446476D01*
X91719047Y-92494095D01*
X92861904Y-92636952D02*
X92766666Y-92589333D01*
X92719047Y-92541714D01*
X92671428Y-92446476D01*
X92671428Y-92398857D01*
X92719047Y-92303619D01*
X92766666Y-92256000D01*
X92861904Y-92208380D01*
X93052380Y-92208380D01*
X93147619Y-92256000D01*
X93195238Y-92303619D01*
X93242857Y-92398857D01*
X93242857Y-92446476D01*
X93195238Y-92541714D01*
X93147619Y-92589333D01*
X93052380Y-92636952D01*
X92861904Y-92636952D01*
X92766666Y-92684571D01*
X92719047Y-92732190D01*
X92671428Y-92827428D01*
X92671428Y-93017904D01*
X92719047Y-93113142D01*
X92766666Y-93160761D01*
X92861904Y-93208380D01*
X93052380Y-93208380D01*
X93147619Y-93160761D01*
X93195238Y-93113142D01*
X93242857Y-93017904D01*
X93242857Y-92827428D01*
X93195238Y-92732190D01*
X93147619Y-92684571D01*
X93052380Y-92636952D01*
%TO.C,TP49*%
X89361904Y-140578380D02*
X89933333Y-140578380D01*
X89647619Y-141578380D02*
X89647619Y-140578380D01*
X90266666Y-141578380D02*
X90266666Y-140578380D01*
X90647619Y-140578380D01*
X90742857Y-140626000D01*
X90790476Y-140673619D01*
X90838095Y-140768857D01*
X90838095Y-140911714D01*
X90790476Y-141006952D01*
X90742857Y-141054571D01*
X90647619Y-141102190D01*
X90266666Y-141102190D01*
X91695238Y-140911714D02*
X91695238Y-141578380D01*
X91457142Y-140530761D02*
X91219047Y-141245047D01*
X91838095Y-141245047D01*
X92266666Y-141578380D02*
X92457142Y-141578380D01*
X92552380Y-141530761D01*
X92600000Y-141483142D01*
X92695238Y-141340285D01*
X92742857Y-141149809D01*
X92742857Y-140768857D01*
X92695238Y-140673619D01*
X92647619Y-140626000D01*
X92552380Y-140578380D01*
X92361904Y-140578380D01*
X92266666Y-140626000D01*
X92219047Y-140673619D01*
X92171428Y-140768857D01*
X92171428Y-141006952D01*
X92219047Y-141102190D01*
X92266666Y-141149809D01*
X92361904Y-141197428D01*
X92552380Y-141197428D01*
X92647619Y-141149809D01*
X92695238Y-141102190D01*
X92742857Y-141006952D01*
%TO.C,TP70*%
X93361904Y-170632380D02*
X93933333Y-170632380D01*
X93647619Y-171632380D02*
X93647619Y-170632380D01*
X94266666Y-171632380D02*
X94266666Y-170632380D01*
X94647619Y-170632380D01*
X94742857Y-170680000D01*
X94790476Y-170727619D01*
X94838095Y-170822857D01*
X94838095Y-170965714D01*
X94790476Y-171060952D01*
X94742857Y-171108571D01*
X94647619Y-171156190D01*
X94266666Y-171156190D01*
X95171428Y-170632380D02*
X95838095Y-170632380D01*
X95409523Y-171632380D01*
X96409523Y-170632380D02*
X96504761Y-170632380D01*
X96600000Y-170680000D01*
X96647619Y-170727619D01*
X96695238Y-170822857D01*
X96742857Y-171013333D01*
X96742857Y-171251428D01*
X96695238Y-171441904D01*
X96647619Y-171537142D01*
X96600000Y-171584761D01*
X96504761Y-171632380D01*
X96409523Y-171632380D01*
X96314285Y-171584761D01*
X96266666Y-171537142D01*
X96219047Y-171441904D01*
X96171428Y-171251428D01*
X96171428Y-171013333D01*
X96219047Y-170822857D01*
X96266666Y-170727619D01*
X96314285Y-170680000D01*
X96409523Y-170632380D01*
%TO.C,TP71*%
X87611904Y-175382380D02*
X88183333Y-175382380D01*
X87897619Y-176382380D02*
X87897619Y-175382380D01*
X88516666Y-176382380D02*
X88516666Y-175382380D01*
X88897619Y-175382380D01*
X88992857Y-175430000D01*
X89040476Y-175477619D01*
X89088095Y-175572857D01*
X89088095Y-175715714D01*
X89040476Y-175810952D01*
X88992857Y-175858571D01*
X88897619Y-175906190D01*
X88516666Y-175906190D01*
X89421428Y-175382380D02*
X90088095Y-175382380D01*
X89659523Y-176382380D01*
X90992857Y-176382380D02*
X90421428Y-176382380D01*
X90707142Y-176382380D02*
X90707142Y-175382380D01*
X90611904Y-175525238D01*
X90516666Y-175620476D01*
X90421428Y-175668095D01*
%TO.C,J5*%
X85287380Y-98005333D02*
X86001666Y-98005333D01*
X86144523Y-98052952D01*
X86239761Y-98148190D01*
X86287380Y-98291047D01*
X86287380Y-98386285D01*
X85287380Y-97052952D02*
X85287380Y-97529142D01*
X85763571Y-97576761D01*
X85715952Y-97529142D01*
X85668333Y-97433904D01*
X85668333Y-97195809D01*
X85715952Y-97100571D01*
X85763571Y-97052952D01*
X85858809Y-97005333D01*
X86096904Y-97005333D01*
X86192142Y-97052952D01*
X86239761Y-97100571D01*
X86287380Y-97195809D01*
X86287380Y-97433904D01*
X86239761Y-97529142D01*
X86192142Y-97576761D01*
%TO.C,TP39*%
X86111904Y-121170380D02*
X86683333Y-121170380D01*
X86397619Y-122170380D02*
X86397619Y-121170380D01*
X87016666Y-122170380D02*
X87016666Y-121170380D01*
X87397619Y-121170380D01*
X87492857Y-121218000D01*
X87540476Y-121265619D01*
X87588095Y-121360857D01*
X87588095Y-121503714D01*
X87540476Y-121598952D01*
X87492857Y-121646571D01*
X87397619Y-121694190D01*
X87016666Y-121694190D01*
X87921428Y-121170380D02*
X88540476Y-121170380D01*
X88207142Y-121551333D01*
X88350000Y-121551333D01*
X88445238Y-121598952D01*
X88492857Y-121646571D01*
X88540476Y-121741809D01*
X88540476Y-121979904D01*
X88492857Y-122075142D01*
X88445238Y-122122761D01*
X88350000Y-122170380D01*
X88064285Y-122170380D01*
X87969047Y-122122761D01*
X87921428Y-122075142D01*
X89016666Y-122170380D02*
X89207142Y-122170380D01*
X89302380Y-122122761D01*
X89350000Y-122075142D01*
X89445238Y-121932285D01*
X89492857Y-121741809D01*
X89492857Y-121360857D01*
X89445238Y-121265619D01*
X89397619Y-121218000D01*
X89302380Y-121170380D01*
X89111904Y-121170380D01*
X89016666Y-121218000D01*
X88969047Y-121265619D01*
X88921428Y-121360857D01*
X88921428Y-121598952D01*
X88969047Y-121694190D01*
X89016666Y-121741809D01*
X89111904Y-121789428D01*
X89302380Y-121789428D01*
X89397619Y-121741809D01*
X89445238Y-121694190D01*
X89492857Y-121598952D01*
%TO.C,J11*%
X85287380Y-166299523D02*
X86001666Y-166299523D01*
X86144523Y-166347142D01*
X86239761Y-166442380D01*
X86287380Y-166585238D01*
X86287380Y-166680476D01*
X86287380Y-165299523D02*
X86287380Y-165870952D01*
X86287380Y-165585238D02*
X85287380Y-165585238D01*
X85430238Y-165680476D01*
X85525476Y-165775714D01*
X85573095Y-165870952D01*
X86287380Y-164347142D02*
X86287380Y-164918571D01*
X86287380Y-164632857D02*
X85287380Y-164632857D01*
X85430238Y-164728095D01*
X85525476Y-164823333D01*
X85573095Y-164918571D01*
%TO.C,TP54*%
X89861904Y-160026380D02*
X90433333Y-160026380D01*
X90147619Y-161026380D02*
X90147619Y-160026380D01*
X90766666Y-161026380D02*
X90766666Y-160026380D01*
X91147619Y-160026380D01*
X91242857Y-160074000D01*
X91290476Y-160121619D01*
X91338095Y-160216857D01*
X91338095Y-160359714D01*
X91290476Y-160454952D01*
X91242857Y-160502571D01*
X91147619Y-160550190D01*
X90766666Y-160550190D01*
X92242857Y-160026380D02*
X91766666Y-160026380D01*
X91719047Y-160502571D01*
X91766666Y-160454952D01*
X91861904Y-160407333D01*
X92100000Y-160407333D01*
X92195238Y-160454952D01*
X92242857Y-160502571D01*
X92290476Y-160597809D01*
X92290476Y-160835904D01*
X92242857Y-160931142D01*
X92195238Y-160978761D01*
X92100000Y-161026380D01*
X91861904Y-161026380D01*
X91766666Y-160978761D01*
X91719047Y-160931142D01*
X93147619Y-160359714D02*
X93147619Y-161026380D01*
X92909523Y-159978761D02*
X92671428Y-160693047D01*
X93290476Y-160693047D01*
%TO.C,TP15*%
X86111904Y-75958380D02*
X86683333Y-75958380D01*
X86397619Y-76958380D02*
X86397619Y-75958380D01*
X87016666Y-76958380D02*
X87016666Y-75958380D01*
X87397619Y-75958380D01*
X87492857Y-76006000D01*
X87540476Y-76053619D01*
X87588095Y-76148857D01*
X87588095Y-76291714D01*
X87540476Y-76386952D01*
X87492857Y-76434571D01*
X87397619Y-76482190D01*
X87016666Y-76482190D01*
X88540476Y-76958380D02*
X87969047Y-76958380D01*
X88254761Y-76958380D02*
X88254761Y-75958380D01*
X88159523Y-76101238D01*
X88064285Y-76196476D01*
X87969047Y-76244095D01*
X89445238Y-75958380D02*
X88969047Y-75958380D01*
X88921428Y-76434571D01*
X88969047Y-76386952D01*
X89064285Y-76339333D01*
X89302380Y-76339333D01*
X89397619Y-76386952D01*
X89445238Y-76434571D01*
X89492857Y-76529809D01*
X89492857Y-76767904D01*
X89445238Y-76863142D01*
X89397619Y-76910761D01*
X89302380Y-76958380D01*
X89064285Y-76958380D01*
X88969047Y-76910761D01*
X88921428Y-76863142D01*
%TO.C,TP20*%
X94611904Y-82458380D02*
X95183333Y-82458380D01*
X94897619Y-83458380D02*
X94897619Y-82458380D01*
X95516666Y-83458380D02*
X95516666Y-82458380D01*
X95897619Y-82458380D01*
X95992857Y-82506000D01*
X96040476Y-82553619D01*
X96088095Y-82648857D01*
X96088095Y-82791714D01*
X96040476Y-82886952D01*
X95992857Y-82934571D01*
X95897619Y-82982190D01*
X95516666Y-82982190D01*
X96469047Y-82553619D02*
X96516666Y-82506000D01*
X96611904Y-82458380D01*
X96850000Y-82458380D01*
X96945238Y-82506000D01*
X96992857Y-82553619D01*
X97040476Y-82648857D01*
X97040476Y-82744095D01*
X96992857Y-82886952D01*
X96421428Y-83458380D01*
X97040476Y-83458380D01*
X97659523Y-82458380D02*
X97754761Y-82458380D01*
X97850000Y-82506000D01*
X97897619Y-82553619D01*
X97945238Y-82648857D01*
X97992857Y-82839333D01*
X97992857Y-83077428D01*
X97945238Y-83267904D01*
X97897619Y-83363142D01*
X97850000Y-83410761D01*
X97754761Y-83458380D01*
X97659523Y-83458380D01*
X97564285Y-83410761D01*
X97516666Y-83363142D01*
X97469047Y-83267904D01*
X97421428Y-83077428D01*
X97421428Y-82839333D01*
X97469047Y-82648857D01*
X97516666Y-82553619D01*
X97564285Y-82506000D01*
X97659523Y-82458380D01*
%TO.C,TP42*%
X89861904Y-137420380D02*
X90433333Y-137420380D01*
X90147619Y-138420380D02*
X90147619Y-137420380D01*
X90766666Y-138420380D02*
X90766666Y-137420380D01*
X91147619Y-137420380D01*
X91242857Y-137468000D01*
X91290476Y-137515619D01*
X91338095Y-137610857D01*
X91338095Y-137753714D01*
X91290476Y-137848952D01*
X91242857Y-137896571D01*
X91147619Y-137944190D01*
X90766666Y-137944190D01*
X92195238Y-137753714D02*
X92195238Y-138420380D01*
X91957142Y-137372761D02*
X91719047Y-138087047D01*
X92338095Y-138087047D01*
X92671428Y-137515619D02*
X92719047Y-137468000D01*
X92814285Y-137420380D01*
X93052380Y-137420380D01*
X93147619Y-137468000D01*
X93195238Y-137515619D01*
X93242857Y-137610857D01*
X93242857Y-137706095D01*
X93195238Y-137848952D01*
X92623809Y-138420380D01*
X93242857Y-138420380D01*
%TO.C,TP61*%
X89361904Y-163184380D02*
X89933333Y-163184380D01*
X89647619Y-164184380D02*
X89647619Y-163184380D01*
X90266666Y-164184380D02*
X90266666Y-163184380D01*
X90647619Y-163184380D01*
X90742857Y-163232000D01*
X90790476Y-163279619D01*
X90838095Y-163374857D01*
X90838095Y-163517714D01*
X90790476Y-163612952D01*
X90742857Y-163660571D01*
X90647619Y-163708190D01*
X90266666Y-163708190D01*
X91695238Y-163184380D02*
X91504761Y-163184380D01*
X91409523Y-163232000D01*
X91361904Y-163279619D01*
X91266666Y-163422476D01*
X91219047Y-163612952D01*
X91219047Y-163993904D01*
X91266666Y-164089142D01*
X91314285Y-164136761D01*
X91409523Y-164184380D01*
X91600000Y-164184380D01*
X91695238Y-164136761D01*
X91742857Y-164089142D01*
X91790476Y-163993904D01*
X91790476Y-163755809D01*
X91742857Y-163660571D01*
X91695238Y-163612952D01*
X91600000Y-163565333D01*
X91409523Y-163565333D01*
X91314285Y-163612952D01*
X91266666Y-163660571D01*
X91219047Y-163755809D01*
X92742857Y-164184380D02*
X92171428Y-164184380D01*
X92457142Y-164184380D02*
X92457142Y-163184380D01*
X92361904Y-163327238D01*
X92266666Y-163422476D01*
X92171428Y-163470095D01*
%TO.C,TP4*%
X91088095Y-55102380D02*
X91659523Y-55102380D01*
X91373809Y-56102380D02*
X91373809Y-55102380D01*
X91992857Y-56102380D02*
X91992857Y-55102380D01*
X92373809Y-55102380D01*
X92469047Y-55150000D01*
X92516666Y-55197619D01*
X92564285Y-55292857D01*
X92564285Y-55435714D01*
X92516666Y-55530952D01*
X92469047Y-55578571D01*
X92373809Y-55626190D01*
X91992857Y-55626190D01*
X93421428Y-55435714D02*
X93421428Y-56102380D01*
X93183333Y-55054761D02*
X92945238Y-55769047D01*
X93564285Y-55769047D01*
%TO.C,TP44*%
X94611904Y-127670380D02*
X95183333Y-127670380D01*
X94897619Y-128670380D02*
X94897619Y-127670380D01*
X95516666Y-128670380D02*
X95516666Y-127670380D01*
X95897619Y-127670380D01*
X95992857Y-127718000D01*
X96040476Y-127765619D01*
X96088095Y-127860857D01*
X96088095Y-128003714D01*
X96040476Y-128098952D01*
X95992857Y-128146571D01*
X95897619Y-128194190D01*
X95516666Y-128194190D01*
X96945238Y-128003714D02*
X96945238Y-128670380D01*
X96707142Y-127622761D02*
X96469047Y-128337047D01*
X97088095Y-128337047D01*
X97897619Y-128003714D02*
X97897619Y-128670380D01*
X97659523Y-127622761D02*
X97421428Y-128337047D01*
X98040476Y-128337047D01*
%TO.C,TP35*%
X87611904Y-107564380D02*
X88183333Y-107564380D01*
X87897619Y-108564380D02*
X87897619Y-107564380D01*
X88516666Y-108564380D02*
X88516666Y-107564380D01*
X88897619Y-107564380D01*
X88992857Y-107612000D01*
X89040476Y-107659619D01*
X89088095Y-107754857D01*
X89088095Y-107897714D01*
X89040476Y-107992952D01*
X88992857Y-108040571D01*
X88897619Y-108088190D01*
X88516666Y-108088190D01*
X89421428Y-107564380D02*
X90040476Y-107564380D01*
X89707142Y-107945333D01*
X89850000Y-107945333D01*
X89945238Y-107992952D01*
X89992857Y-108040571D01*
X90040476Y-108135809D01*
X90040476Y-108373904D01*
X89992857Y-108469142D01*
X89945238Y-108516761D01*
X89850000Y-108564380D01*
X89564285Y-108564380D01*
X89469047Y-108516761D01*
X89421428Y-108469142D01*
X90945238Y-107564380D02*
X90469047Y-107564380D01*
X90421428Y-108040571D01*
X90469047Y-107992952D01*
X90564285Y-107945333D01*
X90802380Y-107945333D01*
X90897619Y-107992952D01*
X90945238Y-108040571D01*
X90992857Y-108135809D01*
X90992857Y-108373904D01*
X90945238Y-108469142D01*
X90897619Y-108516761D01*
X90802380Y-108564380D01*
X90564285Y-108564380D01*
X90469047Y-108516761D01*
X90421428Y-108469142D01*
%TO.C,TP3*%
X86588095Y-53352380D02*
X87159523Y-53352380D01*
X86873809Y-54352380D02*
X86873809Y-53352380D01*
X87492857Y-54352380D02*
X87492857Y-53352380D01*
X87873809Y-53352380D01*
X87969047Y-53400000D01*
X88016666Y-53447619D01*
X88064285Y-53542857D01*
X88064285Y-53685714D01*
X88016666Y-53780952D01*
X87969047Y-53828571D01*
X87873809Y-53876190D01*
X87492857Y-53876190D01*
X88397619Y-53352380D02*
X89016666Y-53352380D01*
X88683333Y-53733333D01*
X88826190Y-53733333D01*
X88921428Y-53780952D01*
X88969047Y-53828571D01*
X89016666Y-53923809D01*
X89016666Y-54161904D01*
X88969047Y-54257142D01*
X88921428Y-54304761D01*
X88826190Y-54352380D01*
X88540476Y-54352380D01*
X88445238Y-54304761D01*
X88397619Y-54257142D01*
%TO.C,TP19*%
X87611904Y-82458380D02*
X88183333Y-82458380D01*
X87897619Y-83458380D02*
X87897619Y-82458380D01*
X88516666Y-83458380D02*
X88516666Y-82458380D01*
X88897619Y-82458380D01*
X88992857Y-82506000D01*
X89040476Y-82553619D01*
X89088095Y-82648857D01*
X89088095Y-82791714D01*
X89040476Y-82886952D01*
X88992857Y-82934571D01*
X88897619Y-82982190D01*
X88516666Y-82982190D01*
X90040476Y-83458380D02*
X89469047Y-83458380D01*
X89754761Y-83458380D02*
X89754761Y-82458380D01*
X89659523Y-82601238D01*
X89564285Y-82696476D01*
X89469047Y-82744095D01*
X90516666Y-83458380D02*
X90707142Y-83458380D01*
X90802380Y-83410761D01*
X90850000Y-83363142D01*
X90945238Y-83220285D01*
X90992857Y-83029809D01*
X90992857Y-82648857D01*
X90945238Y-82553619D01*
X90897619Y-82506000D01*
X90802380Y-82458380D01*
X90611904Y-82458380D01*
X90516666Y-82506000D01*
X90469047Y-82553619D01*
X90421428Y-82648857D01*
X90421428Y-82886952D01*
X90469047Y-82982190D01*
X90516666Y-83029809D01*
X90611904Y-83077428D01*
X90802380Y-83077428D01*
X90897619Y-83029809D01*
X90945238Y-82982190D01*
X90992857Y-82886952D01*
%TO.C,TP51*%
X86111904Y-143776380D02*
X86683333Y-143776380D01*
X86397619Y-144776380D02*
X86397619Y-143776380D01*
X87016666Y-144776380D02*
X87016666Y-143776380D01*
X87397619Y-143776380D01*
X87492857Y-143824000D01*
X87540476Y-143871619D01*
X87588095Y-143966857D01*
X87588095Y-144109714D01*
X87540476Y-144204952D01*
X87492857Y-144252571D01*
X87397619Y-144300190D01*
X87016666Y-144300190D01*
X88492857Y-143776380D02*
X88016666Y-143776380D01*
X87969047Y-144252571D01*
X88016666Y-144204952D01*
X88111904Y-144157333D01*
X88350000Y-144157333D01*
X88445238Y-144204952D01*
X88492857Y-144252571D01*
X88540476Y-144347809D01*
X88540476Y-144585904D01*
X88492857Y-144681142D01*
X88445238Y-144728761D01*
X88350000Y-144776380D01*
X88111904Y-144776380D01*
X88016666Y-144728761D01*
X87969047Y-144681142D01*
X89492857Y-144776380D02*
X88921428Y-144776380D01*
X89207142Y-144776380D02*
X89207142Y-143776380D01*
X89111904Y-143919238D01*
X89016666Y-144014476D01*
X88921428Y-144062095D01*
%TO.C,TP13*%
X89361904Y-72760380D02*
X89933333Y-72760380D01*
X89647619Y-73760380D02*
X89647619Y-72760380D01*
X90266666Y-73760380D02*
X90266666Y-72760380D01*
X90647619Y-72760380D01*
X90742857Y-72808000D01*
X90790476Y-72855619D01*
X90838095Y-72950857D01*
X90838095Y-73093714D01*
X90790476Y-73188952D01*
X90742857Y-73236571D01*
X90647619Y-73284190D01*
X90266666Y-73284190D01*
X91790476Y-73760380D02*
X91219047Y-73760380D01*
X91504761Y-73760380D02*
X91504761Y-72760380D01*
X91409523Y-72903238D01*
X91314285Y-72998476D01*
X91219047Y-73046095D01*
X92123809Y-72760380D02*
X92742857Y-72760380D01*
X92409523Y-73141333D01*
X92552380Y-73141333D01*
X92647619Y-73188952D01*
X92695238Y-73236571D01*
X92742857Y-73331809D01*
X92742857Y-73569904D01*
X92695238Y-73665142D01*
X92647619Y-73712761D01*
X92552380Y-73760380D01*
X92266666Y-73760380D01*
X92171428Y-73712761D01*
X92123809Y-73665142D01*
D12*
%TO.C,J1*%
X85500000Y-63985000D02*
G75*
G03*
X85500000Y-63985000I-100000J0D01*
G01*
D13*
X83370000Y-66935000D02*
X82670000Y-66935000D01*
X72660000Y-66935000D02*
X70000000Y-66935000D01*
X72660000Y-50035000D02*
X70000000Y-50035000D01*
X70000000Y-50035000D02*
X70000000Y-66935000D01*
X83370000Y-50035000D02*
X82670000Y-50035000D01*
X79240000Y-66935000D02*
X75690000Y-66935000D01*
X83370000Y-66935000D02*
X83370000Y-64435000D01*
X83370000Y-54035000D02*
X83370000Y-50035000D01*
X79240000Y-50035000D02*
X75690000Y-50035000D01*
D14*
%TO.C,TP53*%
X89550000Y-157874000D02*
X89550000Y-159274000D01*
X89550000Y-159274000D02*
X88150000Y-159274000D01*
X88150000Y-159274000D02*
X88150000Y-157874000D01*
X88150000Y-157874000D02*
X89550000Y-157874000D01*
%TO.C,TP68*%
X93400000Y-172730000D02*
X94800000Y-172730000D01*
X94800000Y-172730000D02*
X94800000Y-174130000D01*
X94800000Y-174130000D02*
X93400000Y-174130000D01*
X93400000Y-174130000D02*
X93400000Y-172730000D01*
%TO.C,TP16*%
X89150000Y-78706000D02*
X89150000Y-77306000D01*
X89150000Y-77306000D02*
X90550000Y-77306000D01*
X90550000Y-77306000D02*
X90550000Y-78706000D01*
X90550000Y-78706000D02*
X89150000Y-78706000D01*
%TO.C,TP43*%
X92800000Y-128918000D02*
X91400000Y-128918000D01*
X92800000Y-127518000D02*
X92800000Y-128918000D01*
X91400000Y-127518000D02*
X92800000Y-127518000D01*
X91400000Y-128918000D02*
X91400000Y-127518000D01*
%TO.C,TP46*%
X92800000Y-126418000D02*
X91400000Y-126418000D01*
X91400000Y-125018000D02*
X92800000Y-125018000D01*
X91400000Y-126418000D02*
X91400000Y-125018000D01*
X92800000Y-125018000D02*
X92800000Y-126418000D01*
D12*
%TO.C,J6*%
X104250000Y-111202000D02*
X102800000Y-111202000D01*
X110860000Y-111202000D02*
X110860000Y-96192000D01*
X110860000Y-96192000D02*
X108150000Y-96192000D01*
X108150000Y-111202000D02*
X110860000Y-111202000D01*
X104250000Y-96192000D02*
X102800000Y-96192000D01*
X97846000Y-99197000D02*
G75*
G03*
X97846000Y-99197000I-100000J0D01*
G01*
D14*
%TO.C,TP50*%
X88150000Y-156774000D02*
X88150000Y-155374000D01*
X88150000Y-155374000D02*
X89550000Y-155374000D01*
X89550000Y-156774000D02*
X88150000Y-156774000D01*
X89550000Y-155374000D02*
X89550000Y-156774000D01*
%TO.C,TP22*%
X91400000Y-79806000D02*
X92800000Y-79806000D01*
X91400000Y-81206000D02*
X91400000Y-79806000D01*
X92800000Y-79806000D02*
X92800000Y-81206000D01*
X92800000Y-81206000D02*
X91400000Y-81206000D01*
%TO.C,TP69*%
X89400000Y-171630000D02*
X89400000Y-170230000D01*
X90800000Y-170230000D02*
X90800000Y-171630000D01*
X90800000Y-171630000D02*
X89400000Y-171630000D01*
X89400000Y-170230000D02*
X90800000Y-170230000D01*
%TO.C,TP21*%
X89400000Y-79806000D02*
X90800000Y-79806000D01*
X89400000Y-81206000D02*
X89400000Y-79806000D01*
X90800000Y-81206000D02*
X89400000Y-81206000D01*
X90800000Y-79806000D02*
X90800000Y-81206000D01*
%TO.C,TP62*%
X89550000Y-179380000D02*
X88150000Y-179380000D01*
X88150000Y-177980000D02*
X89550000Y-177980000D01*
X88150000Y-179380000D02*
X88150000Y-177980000D01*
X89550000Y-177980000D02*
X89550000Y-179380000D01*
%TO.C,TP55*%
X92800000Y-151524000D02*
X91400000Y-151524000D01*
X91400000Y-150124000D02*
X92800000Y-150124000D01*
X91400000Y-151524000D02*
X91400000Y-150124000D01*
X92800000Y-150124000D02*
X92800000Y-151524000D01*
%TO.C,TP45*%
X89400000Y-125018000D02*
X90800000Y-125018000D01*
X89400000Y-126418000D02*
X89400000Y-125018000D01*
X90800000Y-126418000D02*
X89400000Y-126418000D01*
X90800000Y-125018000D02*
X90800000Y-126418000D01*
D12*
%TO.C,J8*%
X104250000Y-133808000D02*
X102800000Y-133808000D01*
X108150000Y-133808000D02*
X110860000Y-133808000D01*
X110860000Y-133808000D02*
X110860000Y-118798000D01*
X104250000Y-118798000D02*
X102800000Y-118798000D01*
X110860000Y-118798000D02*
X108150000Y-118798000D01*
X97846000Y-121803000D02*
G75*
G03*
X97846000Y-121803000I-100000J0D01*
G01*
D13*
%TO.C,J7*%
X83370000Y-117853000D02*
X82670000Y-117853000D01*
X79240000Y-134753000D02*
X75690000Y-134753000D01*
X70000000Y-117853000D02*
X70000000Y-134753000D01*
X79240000Y-117853000D02*
X75690000Y-117853000D01*
X72660000Y-134753000D02*
X70000000Y-134753000D01*
X83370000Y-121853000D02*
X83370000Y-117853000D01*
X72660000Y-117853000D02*
X70000000Y-117853000D01*
X83370000Y-134753000D02*
X83370000Y-132253000D01*
X83370000Y-134753000D02*
X82670000Y-134753000D01*
D12*
X85500000Y-131803000D02*
G75*
G03*
X85500000Y-131803000I-100000J0D01*
G01*
D14*
%TO.C,TP26*%
X89550000Y-110162000D02*
X89550000Y-111562000D01*
X88150000Y-110162000D02*
X89550000Y-110162000D01*
X89550000Y-111562000D02*
X88150000Y-111562000D01*
X88150000Y-111562000D02*
X88150000Y-110162000D01*
%TO.C,TP7*%
X92800000Y-59700000D02*
X92800000Y-61100000D01*
X91400000Y-59700000D02*
X92800000Y-59700000D01*
X91400000Y-61100000D02*
X91400000Y-59700000D01*
X92800000Y-61100000D02*
X91400000Y-61100000D01*
%TO.C,TP33*%
X89400000Y-102412000D02*
X90800000Y-102412000D01*
X90800000Y-102412000D02*
X90800000Y-103812000D01*
X89400000Y-103812000D02*
X89400000Y-102412000D01*
X90800000Y-103812000D02*
X89400000Y-103812000D01*
%TO.C,TP12*%
X93400000Y-63600000D02*
X93400000Y-62200000D01*
X93400000Y-62200000D02*
X94800000Y-62200000D01*
X94800000Y-63600000D02*
X93400000Y-63600000D01*
X94800000Y-62200000D02*
X94800000Y-63600000D01*
%TO.C,TP29*%
X89550000Y-114062000D02*
X88150000Y-114062000D01*
X88150000Y-112662000D02*
X89550000Y-112662000D01*
X89550000Y-112662000D02*
X89550000Y-114062000D01*
X88150000Y-114062000D02*
X88150000Y-112662000D01*
%TO.C,TP10*%
X91400000Y-58600000D02*
X91400000Y-57200000D01*
X91400000Y-57200000D02*
X92800000Y-57200000D01*
X92800000Y-58600000D02*
X91400000Y-58600000D01*
X92800000Y-57200000D02*
X92800000Y-58600000D01*
%TO.C,TP59*%
X91400000Y-152624000D02*
X92800000Y-152624000D01*
X92800000Y-152624000D02*
X92800000Y-154024000D01*
X91400000Y-154024000D02*
X91400000Y-152624000D01*
X92800000Y-154024000D02*
X91400000Y-154024000D01*
%TO.C,TP57*%
X89400000Y-149024000D02*
X89400000Y-147624000D01*
X89400000Y-147624000D02*
X90800000Y-147624000D01*
X90800000Y-147624000D02*
X90800000Y-149024000D01*
X90800000Y-149024000D02*
X89400000Y-149024000D01*
%TO.C,TP34*%
X91400000Y-102412000D02*
X92800000Y-102412000D01*
X92800000Y-103812000D02*
X91400000Y-103812000D01*
X92800000Y-102412000D02*
X92800000Y-103812000D01*
X91400000Y-103812000D02*
X91400000Y-102412000D01*
%TO.C,TP23*%
X91400000Y-86206000D02*
X91400000Y-84806000D01*
X92800000Y-86206000D02*
X91400000Y-86206000D01*
X92800000Y-84806000D02*
X92800000Y-86206000D01*
X91400000Y-84806000D02*
X92800000Y-84806000D01*
%TO.C,TP30*%
X88150000Y-114662000D02*
X89550000Y-114662000D01*
X88150000Y-116062000D02*
X88150000Y-114662000D01*
X89550000Y-114662000D02*
X89550000Y-116062000D01*
X89550000Y-116062000D02*
X88150000Y-116062000D01*
%TO.C,TP66*%
X88150000Y-183880000D02*
X88150000Y-182480000D01*
X89550000Y-183880000D02*
X88150000Y-183880000D01*
X88150000Y-182480000D02*
X89550000Y-182480000D01*
X89550000Y-182480000D02*
X89550000Y-183880000D01*
D12*
%TO.C,J2*%
X110860000Y-50980000D02*
X108150000Y-50980000D01*
X104250000Y-50980000D02*
X102800000Y-50980000D01*
X104250000Y-65990000D02*
X102800000Y-65990000D01*
X108150000Y-65990000D02*
X110860000Y-65990000D01*
X110860000Y-65990000D02*
X110860000Y-50980000D01*
X97846000Y-53985000D02*
G75*
G03*
X97846000Y-53985000I-100000J0D01*
G01*
D14*
%TO.C,TP2*%
X89550000Y-66350000D02*
X88150000Y-66350000D01*
X88150000Y-64950000D02*
X89550000Y-64950000D01*
X88150000Y-66350000D02*
X88150000Y-64950000D01*
X89550000Y-64950000D02*
X89550000Y-66350000D01*
%TO.C,TP65*%
X89550000Y-181880000D02*
X88150000Y-181880000D01*
X89550000Y-180480000D02*
X89550000Y-181880000D01*
X88150000Y-181880000D02*
X88150000Y-180480000D01*
X88150000Y-180480000D02*
X89550000Y-180480000D01*
%TO.C,TP60*%
X94800000Y-152624000D02*
X94800000Y-154024000D01*
X93400000Y-154024000D02*
X93400000Y-152624000D01*
X94800000Y-154024000D02*
X93400000Y-154024000D01*
X93400000Y-152624000D02*
X94800000Y-152624000D01*
%TO.C,TP11*%
X91400000Y-63600000D02*
X91400000Y-62200000D01*
X91400000Y-62200000D02*
X92800000Y-62200000D01*
X92800000Y-63600000D02*
X91400000Y-63600000D01*
X92800000Y-62200000D02*
X92800000Y-63600000D01*
%TO.C,TP28*%
X90550000Y-99912000D02*
X90550000Y-101312000D01*
X89150000Y-101312000D02*
X89150000Y-99912000D01*
X90550000Y-101312000D02*
X89150000Y-101312000D01*
X89150000Y-99912000D02*
X90550000Y-99912000D01*
%TO.C,TP8*%
X94800000Y-61100000D02*
X93400000Y-61100000D01*
X94800000Y-59700000D02*
X94800000Y-61100000D01*
X93400000Y-59700000D02*
X94800000Y-59700000D01*
X93400000Y-61100000D02*
X93400000Y-59700000D01*
%TO.C,TP64*%
X90550000Y-167730000D02*
X90550000Y-169130000D01*
X90550000Y-169130000D02*
X89150000Y-169130000D01*
X89150000Y-167730000D02*
X90550000Y-167730000D01*
X89150000Y-169130000D02*
X89150000Y-167730000D01*
%TO.C,TP56*%
X93400000Y-151524000D02*
X93400000Y-150124000D01*
X93400000Y-150124000D02*
X94800000Y-150124000D01*
X94800000Y-150124000D02*
X94800000Y-151524000D01*
X94800000Y-151524000D02*
X93400000Y-151524000D01*
%TO.C,TP47*%
X92800000Y-131418000D02*
X91400000Y-131418000D01*
X91400000Y-131418000D02*
X91400000Y-130018000D01*
X92800000Y-130018000D02*
X92800000Y-131418000D01*
X91400000Y-130018000D02*
X92800000Y-130018000D01*
%TO.C,TP9*%
X89400000Y-57200000D02*
X90800000Y-57200000D01*
X90800000Y-58600000D02*
X89400000Y-58600000D01*
X90800000Y-57200000D02*
X90800000Y-58600000D01*
X89400000Y-58600000D02*
X89400000Y-57200000D01*
%TO.C,TP37*%
X90400000Y-120668000D02*
X90400000Y-119268000D01*
X91800000Y-119268000D02*
X91800000Y-120668000D01*
X91800000Y-120668000D02*
X90400000Y-120668000D01*
X90400000Y-119268000D02*
X91800000Y-119268000D01*
%TO.C,TP52*%
X89150000Y-145124000D02*
X90550000Y-145124000D01*
X90550000Y-146524000D02*
X89150000Y-146524000D01*
X89150000Y-146524000D02*
X89150000Y-145124000D01*
X90550000Y-145124000D02*
X90550000Y-146524000D01*
%TO.C,TP25*%
X91800000Y-96662000D02*
X91800000Y-98062000D01*
X90400000Y-96662000D02*
X91800000Y-96662000D01*
X90400000Y-98062000D02*
X90400000Y-96662000D01*
X91800000Y-98062000D02*
X90400000Y-98062000D01*
D13*
%TO.C,J9*%
X79240000Y-140459000D02*
X75690000Y-140459000D01*
X83370000Y-144459000D02*
X83370000Y-140459000D01*
X72660000Y-140459000D02*
X70000000Y-140459000D01*
X70000000Y-140459000D02*
X70000000Y-157359000D01*
X83370000Y-157359000D02*
X82670000Y-157359000D01*
X83370000Y-157359000D02*
X83370000Y-154859000D01*
X83370000Y-140459000D02*
X82670000Y-140459000D01*
X79240000Y-157359000D02*
X75690000Y-157359000D01*
X72660000Y-157359000D02*
X70000000Y-157359000D01*
D12*
X85500000Y-154409000D02*
G75*
G03*
X85500000Y-154409000I-100000J0D01*
G01*
D14*
%TO.C,TP31*%
X92800000Y-106312000D02*
X91400000Y-106312000D01*
X91400000Y-106312000D02*
X91400000Y-104912000D01*
X92800000Y-104912000D02*
X92800000Y-106312000D01*
X91400000Y-104912000D02*
X92800000Y-104912000D01*
%TO.C,TP14*%
X89550000Y-88956000D02*
X88150000Y-88956000D01*
X88150000Y-88956000D02*
X88150000Y-87556000D01*
X89550000Y-87556000D02*
X89550000Y-88956000D01*
X88150000Y-87556000D02*
X89550000Y-87556000D01*
%TO.C,TP58*%
X91400000Y-147624000D02*
X92800000Y-147624000D01*
X92800000Y-147624000D02*
X92800000Y-149024000D01*
X91400000Y-149024000D02*
X91400000Y-147624000D01*
X92800000Y-149024000D02*
X91400000Y-149024000D01*
%TO.C,TP32*%
X94800000Y-106312000D02*
X93400000Y-106312000D01*
X94800000Y-104912000D02*
X94800000Y-106312000D01*
X93400000Y-104912000D02*
X94800000Y-104912000D01*
X93400000Y-106312000D02*
X93400000Y-104912000D01*
%TO.C,TP5*%
X89550000Y-67450000D02*
X89550000Y-68850000D01*
X88150000Y-68850000D02*
X88150000Y-67450000D01*
X89550000Y-68850000D02*
X88150000Y-68850000D01*
X88150000Y-67450000D02*
X89550000Y-67450000D01*
%TO.C,TP63*%
X87150000Y-169130000D02*
X87150000Y-167730000D01*
X87150000Y-167730000D02*
X88550000Y-167730000D01*
X88550000Y-167730000D02*
X88550000Y-169130000D01*
X88550000Y-169130000D02*
X87150000Y-169130000D01*
%TO.C,TP24*%
X94800000Y-84806000D02*
X94800000Y-86206000D01*
X93400000Y-84806000D02*
X94800000Y-84806000D01*
X94800000Y-86206000D02*
X93400000Y-86206000D01*
X93400000Y-86206000D02*
X93400000Y-84806000D01*
%TO.C,TP27*%
X88550000Y-101312000D02*
X87150000Y-101312000D01*
X88550000Y-99912000D02*
X88550000Y-101312000D01*
X87150000Y-101312000D02*
X87150000Y-99912000D01*
X87150000Y-99912000D02*
X88550000Y-99912000D01*
%TO.C,TP6*%
X88150000Y-69450000D02*
X89550000Y-69450000D01*
X88150000Y-70850000D02*
X88150000Y-69450000D01*
X89550000Y-69450000D02*
X89550000Y-70850000D01*
X89550000Y-70850000D02*
X88150000Y-70850000D01*
%TO.C,TP48*%
X93400000Y-130018000D02*
X94800000Y-130018000D01*
X94800000Y-130018000D02*
X94800000Y-131418000D01*
X93400000Y-131418000D02*
X93400000Y-130018000D01*
X94800000Y-131418000D02*
X93400000Y-131418000D01*
%TO.C,TP72*%
X94800000Y-175230000D02*
X94800000Y-176630000D01*
X94800000Y-176630000D02*
X93400000Y-176630000D01*
X93400000Y-175230000D02*
X94800000Y-175230000D01*
X93400000Y-176630000D02*
X93400000Y-175230000D01*
%TO.C,TP17*%
X89550000Y-90056000D02*
X89550000Y-91456000D01*
X88150000Y-90056000D02*
X89550000Y-90056000D01*
X89550000Y-91456000D02*
X88150000Y-91456000D01*
X88150000Y-91456000D02*
X88150000Y-90056000D01*
%TO.C,TP67*%
X91400000Y-172730000D02*
X92800000Y-172730000D01*
X92800000Y-172730000D02*
X92800000Y-174130000D01*
X92800000Y-174130000D02*
X91400000Y-174130000D01*
X91400000Y-174130000D02*
X91400000Y-172730000D01*
%TO.C,TP38*%
X88150000Y-134168000D02*
X88150000Y-132768000D01*
X89550000Y-132768000D02*
X89550000Y-134168000D01*
X88150000Y-132768000D02*
X89550000Y-132768000D01*
X89550000Y-134168000D02*
X88150000Y-134168000D01*
D12*
%TO.C,J4*%
X104250000Y-73586000D02*
X102800000Y-73586000D01*
X110860000Y-73586000D02*
X108150000Y-73586000D01*
X108150000Y-88596000D02*
X110860000Y-88596000D01*
X110860000Y-88596000D02*
X110860000Y-73586000D01*
X104250000Y-88596000D02*
X102800000Y-88596000D01*
X97846000Y-76591000D02*
G75*
G03*
X97846000Y-76591000I-100000J0D01*
G01*
D14*
%TO.C,TP40*%
X90550000Y-122518000D02*
X90550000Y-123918000D01*
X90550000Y-123918000D02*
X89150000Y-123918000D01*
X89150000Y-123918000D02*
X89150000Y-122518000D01*
X89150000Y-122518000D02*
X90550000Y-122518000D01*
D12*
%TO.C,J10*%
X110860000Y-141404000D02*
X108150000Y-141404000D01*
X110860000Y-156414000D02*
X110860000Y-141404000D01*
X104250000Y-141404000D02*
X102800000Y-141404000D01*
X104250000Y-156414000D02*
X102800000Y-156414000D01*
X108150000Y-156414000D02*
X110860000Y-156414000D01*
X97846000Y-144409000D02*
G75*
G03*
X97846000Y-144409000I-100000J0D01*
G01*
D14*
%TO.C,TP36*%
X93400000Y-107412000D02*
X94800000Y-107412000D01*
X94800000Y-107412000D02*
X94800000Y-108812000D01*
X93400000Y-108812000D02*
X93400000Y-107412000D01*
X94800000Y-108812000D02*
X93400000Y-108812000D01*
D12*
%TO.C,J12*%
X110860000Y-179020000D02*
X110860000Y-164010000D01*
X104250000Y-164010000D02*
X102800000Y-164010000D01*
X110860000Y-164010000D02*
X108150000Y-164010000D01*
X104250000Y-179020000D02*
X102800000Y-179020000D01*
X108150000Y-179020000D02*
X110860000Y-179020000D01*
X97846000Y-167015000D02*
G75*
G03*
X97846000Y-167015000I-100000J0D01*
G01*
D14*
%TO.C,TP1*%
X90400000Y-52850000D02*
X90400000Y-51450000D01*
X91800000Y-51450000D02*
X91800000Y-52850000D01*
X91800000Y-52850000D02*
X90400000Y-52850000D01*
X90400000Y-51450000D02*
X91800000Y-51450000D01*
%TO.C,TP41*%
X88150000Y-135268000D02*
X89550000Y-135268000D01*
X89550000Y-135268000D02*
X89550000Y-136668000D01*
X89550000Y-136668000D02*
X88150000Y-136668000D01*
X88150000Y-136668000D02*
X88150000Y-135268000D01*
D13*
%TO.C,J3*%
X83370000Y-89541000D02*
X82670000Y-89541000D01*
X83370000Y-89541000D02*
X83370000Y-87041000D01*
X72660000Y-89541000D02*
X70000000Y-89541000D01*
X83370000Y-72641000D02*
X82670000Y-72641000D01*
X70000000Y-72641000D02*
X70000000Y-89541000D01*
X79240000Y-72641000D02*
X75690000Y-72641000D01*
X72660000Y-72641000D02*
X70000000Y-72641000D01*
X79240000Y-89541000D02*
X75690000Y-89541000D01*
X83370000Y-76641000D02*
X83370000Y-72641000D01*
D12*
X85500000Y-86591000D02*
G75*
G03*
X85500000Y-86591000I-100000J0D01*
G01*
D14*
%TO.C,TP18*%
X88150000Y-92056000D02*
X89550000Y-92056000D01*
X88150000Y-93456000D02*
X88150000Y-92056000D01*
X89550000Y-93456000D02*
X88150000Y-93456000D01*
X89550000Y-92056000D02*
X89550000Y-93456000D01*
%TO.C,TP49*%
X91800000Y-141874000D02*
X91800000Y-143274000D01*
X90400000Y-141874000D02*
X91800000Y-141874000D01*
X90400000Y-143274000D02*
X90400000Y-141874000D01*
X91800000Y-143274000D02*
X90400000Y-143274000D01*
%TO.C,TP70*%
X91400000Y-170230000D02*
X92800000Y-170230000D01*
X92800000Y-170230000D02*
X92800000Y-171630000D01*
X92800000Y-171630000D02*
X91400000Y-171630000D01*
X91400000Y-171630000D02*
X91400000Y-170230000D01*
%TO.C,TP71*%
X91400000Y-175230000D02*
X92800000Y-175230000D01*
X92800000Y-175230000D02*
X92800000Y-176630000D01*
X92800000Y-176630000D02*
X91400000Y-176630000D01*
X91400000Y-176630000D02*
X91400000Y-175230000D01*
D13*
%TO.C,J5*%
X79240000Y-95247000D02*
X75690000Y-95247000D01*
X83370000Y-99247000D02*
X83370000Y-95247000D01*
X72660000Y-112147000D02*
X70000000Y-112147000D01*
X72660000Y-95247000D02*
X70000000Y-95247000D01*
X83370000Y-112147000D02*
X82670000Y-112147000D01*
X79240000Y-112147000D02*
X75690000Y-112147000D01*
X83370000Y-112147000D02*
X83370000Y-109647000D01*
X70000000Y-95247000D02*
X70000000Y-112147000D01*
X83370000Y-95247000D02*
X82670000Y-95247000D01*
D12*
X85500000Y-109197000D02*
G75*
G03*
X85500000Y-109197000I-100000J0D01*
G01*
D14*
%TO.C,TP39*%
X88550000Y-122518000D02*
X88550000Y-123918000D01*
X88550000Y-123918000D02*
X87150000Y-123918000D01*
X87150000Y-123918000D02*
X87150000Y-122518000D01*
X87150000Y-122518000D02*
X88550000Y-122518000D01*
D13*
%TO.C,J11*%
X72660000Y-179965000D02*
X70000000Y-179965000D01*
X79240000Y-163065000D02*
X75690000Y-163065000D01*
X83370000Y-163065000D02*
X82670000Y-163065000D01*
X83370000Y-167065000D02*
X83370000Y-163065000D01*
X79240000Y-179965000D02*
X75690000Y-179965000D01*
X83370000Y-179965000D02*
X82670000Y-179965000D01*
X70000000Y-163065000D02*
X70000000Y-179965000D01*
X83370000Y-179965000D02*
X83370000Y-177465000D01*
X72660000Y-163065000D02*
X70000000Y-163065000D01*
D12*
X85500000Y-177015000D02*
G75*
G03*
X85500000Y-177015000I-100000J0D01*
G01*
D14*
%TO.C,TP54*%
X88150000Y-161274000D02*
X88150000Y-159874000D01*
X89550000Y-161274000D02*
X88150000Y-161274000D01*
X89550000Y-159874000D02*
X89550000Y-161274000D01*
X88150000Y-159874000D02*
X89550000Y-159874000D01*
%TO.C,TP15*%
X88550000Y-78706000D02*
X87150000Y-78706000D01*
X88550000Y-77306000D02*
X88550000Y-78706000D01*
X87150000Y-77306000D02*
X88550000Y-77306000D01*
X87150000Y-78706000D02*
X87150000Y-77306000D01*
%TO.C,TP20*%
X93400000Y-82306000D02*
X94800000Y-82306000D01*
X94800000Y-82306000D02*
X94800000Y-83706000D01*
X94800000Y-83706000D02*
X93400000Y-83706000D01*
X93400000Y-83706000D02*
X93400000Y-82306000D01*
%TO.C,TP42*%
X89550000Y-138668000D02*
X88150000Y-138668000D01*
X88150000Y-137268000D02*
X89550000Y-137268000D01*
X89550000Y-137268000D02*
X89550000Y-138668000D01*
X88150000Y-138668000D02*
X88150000Y-137268000D01*
%TO.C,TP61*%
X90400000Y-165880000D02*
X90400000Y-164480000D01*
X90400000Y-164480000D02*
X91800000Y-164480000D01*
X91800000Y-165880000D02*
X90400000Y-165880000D01*
X91800000Y-164480000D02*
X91800000Y-165880000D01*
%TO.C,TP4*%
X89150000Y-56100000D02*
X89150000Y-54700000D01*
X89150000Y-54700000D02*
X90550000Y-54700000D01*
X90550000Y-56100000D02*
X89150000Y-56100000D01*
X90550000Y-54700000D02*
X90550000Y-56100000D01*
%TO.C,TP44*%
X94800000Y-127518000D02*
X94800000Y-128918000D01*
X94800000Y-128918000D02*
X93400000Y-128918000D01*
X93400000Y-128918000D02*
X93400000Y-127518000D01*
X93400000Y-127518000D02*
X94800000Y-127518000D01*
%TO.C,TP35*%
X92800000Y-108812000D02*
X91400000Y-108812000D01*
X92800000Y-107412000D02*
X92800000Y-108812000D01*
X91400000Y-107412000D02*
X92800000Y-107412000D01*
X91400000Y-108812000D02*
X91400000Y-107412000D01*
%TO.C,TP3*%
X87150000Y-56100000D02*
X87150000Y-54700000D01*
X87150000Y-54700000D02*
X88550000Y-54700000D01*
X88550000Y-54700000D02*
X88550000Y-56100000D01*
X88550000Y-56100000D02*
X87150000Y-56100000D01*
%TO.C,TP19*%
X91400000Y-83706000D02*
X91400000Y-82306000D01*
X92800000Y-83706000D02*
X91400000Y-83706000D01*
X91400000Y-82306000D02*
X92800000Y-82306000D01*
X92800000Y-82306000D02*
X92800000Y-83706000D01*
%TO.C,TP51*%
X88550000Y-145124000D02*
X88550000Y-146524000D01*
X87150000Y-146524000D02*
X87150000Y-145124000D01*
X88550000Y-146524000D02*
X87150000Y-146524000D01*
X87150000Y-145124000D02*
X88550000Y-145124000D01*
%TO.C,TP13*%
X91800000Y-75456000D02*
X90400000Y-75456000D01*
X91800000Y-74056000D02*
X91800000Y-75456000D01*
X90400000Y-75456000D02*
X90400000Y-74056000D01*
X90400000Y-74056000D02*
X91800000Y-74056000D01*
%TD*%
M02*
