%TF.GenerationSoftware,KiCad,Pcbnew,6.0.7-5.fc36*%
%TF.CreationDate,2022-09-30T16:01:04+01:00*%
%TF.ProjectId,pc070_aida_hdmi_dp,70633037-305f-4616-9964-615f68646d69,rev?*%
%TF.SameCoordinates,Original*%
%TF.FileFunction,Copper,L2,Bot*%
%TF.FilePolarity,Positive*%
%FSLAX46Y46*%
G04 Gerber Fmt 4.6, Leading zero omitted, Abs format (unit mm)*
G04 Created by KiCad (PCBNEW 6.0.7-5.fc36) date 2022-09-30 16:01:04*
%MOMM*%
%LPD*%
G01*
G04 APERTURE LIST*
%TA.AperFunction,ComponentPad*%
%ADD10O,3.200000X1.600000*%
%TD*%
%TA.AperFunction,ComponentPad*%
%ADD11O,2.820000X1.410000*%
%TD*%
%TA.AperFunction,ComponentPad*%
%ADD12C,3.600000*%
%TD*%
%TA.AperFunction,ConnectorPad*%
%ADD13C,5.600000*%
%TD*%
%TA.AperFunction,ComponentPad*%
%ADD14O,2.800000X1.400000*%
%TD*%
%TA.AperFunction,ComponentPad*%
%ADD15O,2.400000X1.200000*%
%TD*%
%TA.AperFunction,ViaPad*%
%ADD16C,0.800000*%
%TD*%
G04 APERTURE END LIST*
D10*
%TO.P,J6,S1,SHIELD*%
%TO.N,GND*%
X100300000Y-110947000D03*
%TO.P,J6,S2,SHIELD*%
X100300000Y-96447000D03*
D11*
%TO.P,J6,S3,SHIELD*%
X106260000Y-110947000D03*
%TO.P,J6,S4,SHIELD*%
X106260000Y-96447000D03*
%TD*%
D12*
%TO.P,H3,1,1*%
%TO.N,GND*%
X105000000Y-185000000D03*
D13*
X105000000Y-185000000D03*
%TD*%
%TO.P,H4,1,1*%
%TO.N,GND*%
X75000000Y-185000000D03*
D12*
X75000000Y-185000000D03*
%TD*%
D10*
%TO.P,J8,S1,SHIELD*%
%TO.N,GND*%
X100300000Y-133553000D03*
%TO.P,J8,S2,SHIELD*%
X100300000Y-119053000D03*
D11*
%TO.P,J8,S3,SHIELD*%
X106260000Y-133553000D03*
%TO.P,J8,S4,SHIELD*%
X106260000Y-119053000D03*
%TD*%
D14*
%TO.P,J7,S1,SHIELD*%
%TO.N,GND*%
X80960000Y-118053000D03*
%TO.P,J7,S2,SHIELD*%
X80960000Y-134553000D03*
D15*
%TO.P,J7,S3,SHIELD*%
X74180000Y-118053000D03*
%TO.P,J7,S4,SHIELD*%
X74180000Y-134553000D03*
%TD*%
D10*
%TO.P,J2,S1,SHIELD*%
%TO.N,GND*%
X100300000Y-65735000D03*
%TO.P,J2,S2,SHIELD*%
X100300000Y-51235000D03*
D11*
%TO.P,J2,S3,SHIELD*%
X106260000Y-65735000D03*
%TO.P,J2,S4,SHIELD*%
X106260000Y-51235000D03*
%TD*%
D12*
%TO.P,H2,1,1*%
%TO.N,GND*%
X105000000Y-45000000D03*
D13*
X105000000Y-45000000D03*
%TD*%
D14*
%TO.P,J9,S1,SHIELD*%
%TO.N,GND*%
X80960000Y-140659000D03*
%TO.P,J9,S2,SHIELD*%
X80960000Y-157159000D03*
D15*
%TO.P,J9,S3,SHIELD*%
X74180000Y-140659000D03*
%TO.P,J9,S4,SHIELD*%
X74180000Y-157159000D03*
%TD*%
D12*
%TO.P,H1,1,1*%
%TO.N,GND*%
X75000000Y-45000000D03*
D13*
X75000000Y-45000000D03*
%TD*%
D10*
%TO.P,J4,S1,SHIELD*%
%TO.N,GND*%
X100300000Y-88341000D03*
%TO.P,J4,S2,SHIELD*%
X100300000Y-73841000D03*
D11*
%TO.P,J4,S3,SHIELD*%
X106260000Y-88341000D03*
%TO.P,J4,S4,SHIELD*%
X106260000Y-73841000D03*
%TD*%
D10*
%TO.P,J10,S1,SHIELD*%
%TO.N,GND*%
X100300000Y-156159000D03*
%TO.P,J10,S2,SHIELD*%
X100300000Y-141659000D03*
D11*
%TO.P,J10,S3,SHIELD*%
X106260000Y-156159000D03*
%TO.P,J10,S4,SHIELD*%
X106260000Y-141659000D03*
%TD*%
D10*
%TO.P,J12,S1,SHIELD*%
%TO.N,GND*%
X100300000Y-178765000D03*
%TO.P,J12,S2,SHIELD*%
X100300000Y-164265000D03*
D11*
%TO.P,J12,S3,SHIELD*%
X106260000Y-178765000D03*
%TO.P,J12,S4,SHIELD*%
X106260000Y-164265000D03*
%TD*%
D14*
%TO.P,J1,S1,SHIELD*%
%TO.N,GND*%
X80960000Y-50235000D03*
%TO.P,J1,S2,SHIELD*%
X80960000Y-66735000D03*
D15*
%TO.P,J1,S3,SHIELD*%
X74180000Y-50235000D03*
%TO.P,J1,S4,SHIELD*%
X74180000Y-66735000D03*
%TD*%
D14*
%TO.P,J3,S1,SHIELD*%
%TO.N,GND*%
X80960000Y-72841000D03*
%TO.P,J3,S2,SHIELD*%
X80960000Y-89341000D03*
D15*
%TO.P,J3,S3,SHIELD*%
X74180000Y-72841000D03*
%TO.P,J3,S4,SHIELD*%
X74180000Y-89341000D03*
%TD*%
D14*
%TO.P,J5,S1,SHIELD*%
%TO.N,GND*%
X80960000Y-95447000D03*
%TO.P,J5,S2,SHIELD*%
X80960000Y-111947000D03*
D15*
%TO.P,J5,S3,SHIELD*%
X74180000Y-95447000D03*
%TO.P,J5,S4,SHIELD*%
X74180000Y-111947000D03*
%TD*%
D14*
%TO.P,J11,S1,SHIELD*%
%TO.N,GND*%
X80960000Y-163265000D03*
%TO.P,J11,S2,SHIELD*%
X80960000Y-179765000D03*
D15*
%TO.P,J11,S3,SHIELD*%
X74180000Y-163265000D03*
%TO.P,J11,S4,SHIELD*%
X74180000Y-179765000D03*
%TD*%
D16*
%TO.N,GND*%
X81863782Y-128326593D03*
X101343316Y-122283648D03*
X81870174Y-129788648D03*
X101334707Y-125295789D03*
X81768312Y-123539471D03*
X101340978Y-123787010D03*
X101333441Y-126808477D03*
X81878041Y-131299536D03*
X81873021Y-126792647D03*
X101333027Y-129298087D03*
X81863782Y-150932593D03*
X101343316Y-144889648D03*
X81870174Y-152394648D03*
X101334707Y-147901789D03*
X81768312Y-146145471D03*
X101340978Y-146393010D03*
X101333441Y-149414477D03*
X81878041Y-153905536D03*
X81873021Y-149398647D03*
X101333027Y-151904087D03*
X81863782Y-173538593D03*
X101343316Y-167495648D03*
X81870174Y-175000648D03*
X101334707Y-170507789D03*
X81768312Y-168751471D03*
X101340978Y-168999010D03*
X101333441Y-172020477D03*
X81878041Y-176511536D03*
X81873021Y-172004647D03*
X101333027Y-174510087D03*
X81863782Y-105720593D03*
X101343316Y-99677648D03*
X81870174Y-107182648D03*
X101334707Y-102689789D03*
X81768312Y-100933471D03*
X101340978Y-101181010D03*
X101333441Y-104202477D03*
X81878041Y-108693536D03*
X81873021Y-104186647D03*
X101333027Y-106692087D03*
X81863782Y-83114593D03*
X101343316Y-77071648D03*
X81870174Y-84576648D03*
X101334707Y-80083789D03*
X81768312Y-78327471D03*
X101340978Y-78575010D03*
X101333441Y-81596477D03*
X81878041Y-86087536D03*
X81873021Y-81580647D03*
X101333027Y-84086087D03*
X101333027Y-61480087D03*
X81873021Y-58974647D03*
X81878041Y-63481536D03*
X101333441Y-58990477D03*
X101340978Y-55969010D03*
X81768312Y-55721471D03*
X101334707Y-57477789D03*
X81870174Y-61970648D03*
X101343316Y-54465648D03*
X81863782Y-60508593D03*
%TD*%
%TA.AperFunction,Conductor*%
%TO.N,GND*%
G36*
X109042121Y-40920002D02*
G01*
X109088614Y-40973658D01*
X109100000Y-41026000D01*
X109100000Y-189024000D01*
X109079998Y-189092121D01*
X109026342Y-189138614D01*
X108974000Y-189150000D01*
X70976000Y-189150000D01*
X70907879Y-189129998D01*
X70861386Y-189076342D01*
X70850000Y-189024000D01*
X70850000Y-187516381D01*
X72849160Y-187516381D01*
X72849237Y-187517470D01*
X72851698Y-187521206D01*
X73125632Y-187731404D01*
X73131262Y-187735259D01*
X73431591Y-187917862D01*
X73437593Y-187921080D01*
X73755897Y-188070184D01*
X73762202Y-188072732D01*
X74094743Y-188186587D01*
X74101313Y-188188446D01*
X74444183Y-188265714D01*
X74450912Y-188266853D01*
X74800143Y-188306643D01*
X74806933Y-188307046D01*
X75158419Y-188308886D01*
X75165220Y-188308554D01*
X75514853Y-188272423D01*
X75521581Y-188271357D01*
X75865274Y-188197676D01*
X75871822Y-188195897D01*
X76205549Y-188085527D01*
X76211891Y-188083041D01*
X76531718Y-187937288D01*
X76537777Y-187934121D01*
X76839995Y-187754676D01*
X76845659Y-187750884D01*
X77126732Y-187539849D01*
X77131958Y-187535464D01*
X77141613Y-187526428D01*
X77147540Y-187516381D01*
X102849160Y-187516381D01*
X102849237Y-187517470D01*
X102851698Y-187521206D01*
X103125632Y-187731404D01*
X103131262Y-187735259D01*
X103431591Y-187917862D01*
X103437593Y-187921080D01*
X103755897Y-188070184D01*
X103762202Y-188072732D01*
X104094743Y-188186587D01*
X104101313Y-188188446D01*
X104444183Y-188265714D01*
X104450912Y-188266853D01*
X104800143Y-188306643D01*
X104806933Y-188307046D01*
X105158419Y-188308886D01*
X105165220Y-188308554D01*
X105514853Y-188272423D01*
X105521581Y-188271357D01*
X105865274Y-188197676D01*
X105871822Y-188195897D01*
X106205549Y-188085527D01*
X106211891Y-188083041D01*
X106531718Y-187937288D01*
X106537777Y-187934121D01*
X106839995Y-187754676D01*
X106845659Y-187750884D01*
X107126732Y-187539849D01*
X107131958Y-187535464D01*
X107141613Y-187526428D01*
X107149682Y-187512750D01*
X107149654Y-187512024D01*
X107144512Y-187503723D01*
X105012810Y-185372020D01*
X104998869Y-185364408D01*
X104997034Y-185364539D01*
X104990420Y-185368790D01*
X102856774Y-187502437D01*
X102849160Y-187516381D01*
X77147540Y-187516381D01*
X77149682Y-187512750D01*
X77149654Y-187512024D01*
X77144512Y-187503723D01*
X75012810Y-185372020D01*
X74998869Y-185364408D01*
X74997034Y-185364539D01*
X74990420Y-185368790D01*
X72856774Y-187502437D01*
X72849160Y-187516381D01*
X70850000Y-187516381D01*
X70850000Y-184991832D01*
X71687333Y-184991832D01*
X71705117Y-185342893D01*
X71705827Y-185349649D01*
X71761420Y-185696723D01*
X71762859Y-185703378D01*
X71855608Y-186042410D01*
X71857757Y-186048871D01*
X71986581Y-186375912D01*
X71989412Y-186382095D01*
X72152803Y-186693310D01*
X72156286Y-186699152D01*
X72352330Y-186990896D01*
X72356433Y-186996340D01*
X72476425Y-187138836D01*
X72489164Y-187147279D01*
X72499608Y-187141181D01*
X74627980Y-185012810D01*
X74634357Y-185001131D01*
X75364408Y-185001131D01*
X75364539Y-185002966D01*
X75368790Y-185009580D01*
X77499009Y-187139798D01*
X77512605Y-187147223D01*
X77522218Y-187140522D01*
X77622518Y-187023912D01*
X77626676Y-187018514D01*
X77825762Y-186728840D01*
X77829310Y-186723029D01*
X77995942Y-186413559D01*
X77998849Y-186407381D01*
X78131090Y-186081713D01*
X78133304Y-186075283D01*
X78229598Y-185737237D01*
X78231105Y-185730607D01*
X78290332Y-185384118D01*
X78291112Y-185377378D01*
X78312668Y-185024925D01*
X78312784Y-185021323D01*
X78312853Y-185001819D01*
X78312761Y-184998194D01*
X78312416Y-184991832D01*
X101687333Y-184991832D01*
X101705117Y-185342893D01*
X101705827Y-185349649D01*
X101761420Y-185696723D01*
X101762859Y-185703378D01*
X101855608Y-186042410D01*
X101857757Y-186048871D01*
X101986581Y-186375912D01*
X101989412Y-186382095D01*
X102152803Y-186693310D01*
X102156286Y-186699152D01*
X102352330Y-186990896D01*
X102356433Y-186996340D01*
X102476425Y-187138836D01*
X102489164Y-187147279D01*
X102499608Y-187141181D01*
X104627980Y-185012810D01*
X104634357Y-185001131D01*
X105364408Y-185001131D01*
X105364539Y-185002966D01*
X105368790Y-185009580D01*
X107499009Y-187139798D01*
X107512605Y-187147223D01*
X107522218Y-187140522D01*
X107622518Y-187023912D01*
X107626676Y-187018514D01*
X107825762Y-186728840D01*
X107829310Y-186723029D01*
X107995942Y-186413559D01*
X107998849Y-186407381D01*
X108131090Y-186081713D01*
X108133304Y-186075283D01*
X108229598Y-185737237D01*
X108231105Y-185730607D01*
X108290332Y-185384118D01*
X108291112Y-185377378D01*
X108312668Y-185024925D01*
X108312784Y-185021323D01*
X108312853Y-185001819D01*
X108312761Y-184998194D01*
X108293666Y-184645615D01*
X108292931Y-184638849D01*
X108236130Y-184291985D01*
X108234663Y-184285313D01*
X108140736Y-183946627D01*
X108138562Y-183940163D01*
X108008598Y-183613578D01*
X108005742Y-183607398D01*
X107841269Y-183296763D01*
X107837769Y-183290937D01*
X107640697Y-182999862D01*
X107636590Y-182994453D01*
X107523565Y-182861179D01*
X107510740Y-182852743D01*
X107500416Y-182858795D01*
X105372020Y-184987190D01*
X105364408Y-185001131D01*
X104634357Y-185001131D01*
X104635592Y-184998869D01*
X104635461Y-184997034D01*
X104631210Y-184990420D01*
X102500992Y-182860203D01*
X102487455Y-182852811D01*
X102477753Y-182859599D01*
X102370430Y-182985257D01*
X102366296Y-182990664D01*
X102168215Y-183281041D01*
X102164697Y-183286851D01*
X101999134Y-183596922D01*
X101996259Y-183603087D01*
X101865155Y-183929218D01*
X101862962Y-183935658D01*
X101767846Y-184274044D01*
X101766363Y-184280679D01*
X101708350Y-184627354D01*
X101707591Y-184634126D01*
X101687357Y-184985037D01*
X101687333Y-184991832D01*
X78312416Y-184991832D01*
X78293666Y-184645615D01*
X78292931Y-184638849D01*
X78236130Y-184291985D01*
X78234663Y-184285313D01*
X78140736Y-183946627D01*
X78138562Y-183940163D01*
X78008598Y-183613578D01*
X78005742Y-183607398D01*
X77841269Y-183296763D01*
X77837769Y-183290937D01*
X77640697Y-182999862D01*
X77636590Y-182994453D01*
X77523565Y-182861179D01*
X77510740Y-182852743D01*
X77500416Y-182858795D01*
X75372020Y-184987190D01*
X75364408Y-185001131D01*
X74634357Y-185001131D01*
X74635592Y-184998869D01*
X74635461Y-184997034D01*
X74631210Y-184990420D01*
X72500992Y-182860203D01*
X72487455Y-182852811D01*
X72477753Y-182859599D01*
X72370430Y-182985257D01*
X72366296Y-182990664D01*
X72168215Y-183281041D01*
X72164697Y-183286851D01*
X71999134Y-183596922D01*
X71996259Y-183603087D01*
X71865155Y-183929218D01*
X71862962Y-183935658D01*
X71767846Y-184274044D01*
X71766363Y-184280679D01*
X71708350Y-184627354D01*
X71707591Y-184634126D01*
X71687357Y-184985037D01*
X71687333Y-184991832D01*
X70850000Y-184991832D01*
X70850000Y-182486862D01*
X72849950Y-182486862D01*
X72849986Y-182487704D01*
X72855037Y-182495826D01*
X74291589Y-183932379D01*
X74987190Y-184627980D01*
X75001131Y-184635592D01*
X75002966Y-184635461D01*
X75009580Y-184631210D01*
X77142798Y-182497991D01*
X77148875Y-182486862D01*
X102849950Y-182486862D01*
X102849986Y-182487704D01*
X102855037Y-182495826D01*
X104291589Y-183932379D01*
X104987190Y-184627980D01*
X105001131Y-184635592D01*
X105002966Y-184635461D01*
X105009580Y-184631210D01*
X105708411Y-183932379D01*
X107142798Y-182497991D01*
X107150412Y-182484047D01*
X107150344Y-182483090D01*
X107145834Y-182476271D01*
X107144418Y-182475065D01*
X106864813Y-182262064D01*
X106859187Y-182258240D01*
X106558214Y-182076681D01*
X106552202Y-182073484D01*
X106233370Y-181925487D01*
X106227070Y-181922967D01*
X105894129Y-181810273D01*
X105887551Y-181808437D01*
X105544417Y-181732367D01*
X105537678Y-181731251D01*
X105188310Y-181692680D01*
X105181529Y-181692301D01*
X104830015Y-181691687D01*
X104823242Y-181692042D01*
X104473720Y-181729395D01*
X104467010Y-181730482D01*
X104123586Y-181805361D01*
X104117011Y-181807172D01*
X103783683Y-181918702D01*
X103777361Y-181921205D01*
X103458034Y-182068079D01*
X103451991Y-182071265D01*
X103150401Y-182251763D01*
X103144755Y-182255571D01*
X102864408Y-182467596D01*
X102859211Y-182471987D01*
X102857972Y-182473155D01*
X102849950Y-182486862D01*
X77148875Y-182486862D01*
X77150412Y-182484047D01*
X77150344Y-182483089D01*
X77145836Y-182476272D01*
X77144418Y-182475065D01*
X76864813Y-182262064D01*
X76859187Y-182258240D01*
X76558214Y-182076681D01*
X76552202Y-182073484D01*
X76233370Y-181925487D01*
X76227070Y-181922967D01*
X75894129Y-181810273D01*
X75887551Y-181808437D01*
X75544417Y-181732367D01*
X75537678Y-181731251D01*
X75188310Y-181692680D01*
X75181529Y-181692301D01*
X74830015Y-181691687D01*
X74823242Y-181692042D01*
X74473720Y-181729395D01*
X74467010Y-181730482D01*
X74123586Y-181805361D01*
X74117011Y-181807172D01*
X73783683Y-181918702D01*
X73777361Y-181921205D01*
X73458034Y-182068079D01*
X73451991Y-182071265D01*
X73150401Y-182251763D01*
X73144755Y-182255571D01*
X72864408Y-182467596D01*
X72859211Y-182471987D01*
X72857972Y-182473155D01*
X72849950Y-182486862D01*
X70850000Y-182486862D01*
X70850000Y-180032399D01*
X72504712Y-180032399D01*
X72526194Y-180121537D01*
X72530083Y-180132832D01*
X72612629Y-180314382D01*
X72618576Y-180324724D01*
X72733968Y-180487397D01*
X72741761Y-180496425D01*
X72885831Y-180634342D01*
X72895196Y-180641738D01*
X73062741Y-180749921D01*
X73073345Y-180755417D01*
X73258312Y-180829961D01*
X73269770Y-180833355D01*
X73466928Y-180871857D01*
X73475791Y-180872934D01*
X73478500Y-180873000D01*
X73907885Y-180873000D01*
X73923124Y-180868525D01*
X73924329Y-180867135D01*
X73926000Y-180859452D01*
X73926000Y-180854885D01*
X74434000Y-180854885D01*
X74438475Y-180870124D01*
X74439865Y-180871329D01*
X74447548Y-180873000D01*
X74829832Y-180873000D01*
X74835808Y-180872715D01*
X74984494Y-180858529D01*
X74996228Y-180856270D01*
X75187599Y-180800128D01*
X75198675Y-180795698D01*
X75375978Y-180704381D01*
X75386024Y-180697931D01*
X75542857Y-180574738D01*
X75551506Y-180566501D01*
X75682212Y-180415877D01*
X75689147Y-180406153D01*
X75789010Y-180233533D01*
X75793984Y-180222669D01*
X75859407Y-180034273D01*
X75859648Y-180033284D01*
X75859240Y-180030421D01*
X79077696Y-180030421D01*
X79135378Y-180217915D01*
X79139599Y-180228260D01*
X79233357Y-180409912D01*
X79239342Y-180419343D01*
X79363785Y-180581520D01*
X79371352Y-180589749D01*
X79522539Y-180727319D01*
X79531450Y-180734082D01*
X79704604Y-180842701D01*
X79714574Y-180847782D01*
X79904232Y-180924024D01*
X79914932Y-180927255D01*
X80116071Y-180968908D01*
X80125207Y-180970111D01*
X80173490Y-180972895D01*
X80177137Y-180973000D01*
X80687885Y-180973000D01*
X80703124Y-180968525D01*
X80704329Y-180967135D01*
X80706000Y-180959452D01*
X80706000Y-180954885D01*
X81214000Y-180954885D01*
X81218475Y-180970124D01*
X81219865Y-180971329D01*
X81227548Y-180973000D01*
X81711911Y-180973000D01*
X81717506Y-180972751D01*
X81869188Y-180959213D01*
X81880202Y-180957232D01*
X82077366Y-180903293D01*
X82087839Y-180899399D01*
X82272341Y-180811396D01*
X82281970Y-180805701D01*
X82447963Y-180686423D01*
X82456428Y-180679116D01*
X82598684Y-180532320D01*
X82605714Y-180523638D01*
X82719725Y-180353972D01*
X82725117Y-180344163D01*
X82807275Y-180157001D01*
X82810841Y-180146406D01*
X82837200Y-180036615D01*
X82836495Y-180022530D01*
X82827616Y-180019000D01*
X81232115Y-180019000D01*
X81216876Y-180023475D01*
X81215671Y-180024865D01*
X81214000Y-180032548D01*
X81214000Y-180954885D01*
X80706000Y-180954885D01*
X80706000Y-180037115D01*
X80701525Y-180021876D01*
X80700135Y-180020671D01*
X80692452Y-180019000D01*
X79092298Y-180019000D01*
X79078767Y-180022973D01*
X79077696Y-180030421D01*
X75859240Y-180030421D01*
X75858180Y-180022992D01*
X75844615Y-180019000D01*
X74452115Y-180019000D01*
X74436876Y-180023475D01*
X74435671Y-180024865D01*
X74434000Y-180032548D01*
X74434000Y-180854885D01*
X73926000Y-180854885D01*
X73926000Y-180037115D01*
X73921525Y-180021876D01*
X73920135Y-180020671D01*
X73912452Y-180019000D01*
X72519598Y-180019000D01*
X72506067Y-180022973D01*
X72504712Y-180032399D01*
X70850000Y-180032399D01*
X70850000Y-179496716D01*
X72500352Y-179496716D01*
X72501820Y-179507008D01*
X72515385Y-179511000D01*
X73907885Y-179511000D01*
X73923124Y-179506525D01*
X73924329Y-179505135D01*
X73926000Y-179497452D01*
X73926000Y-179492885D01*
X74434000Y-179492885D01*
X74438475Y-179508124D01*
X74439865Y-179509329D01*
X74447548Y-179511000D01*
X75840402Y-179511000D01*
X75853933Y-179507027D01*
X75855288Y-179497601D01*
X75854272Y-179493385D01*
X79082800Y-179493385D01*
X79083505Y-179507470D01*
X79092384Y-179511000D01*
X80687885Y-179511000D01*
X80703124Y-179506525D01*
X80704329Y-179505135D01*
X80706000Y-179497452D01*
X80706000Y-179492885D01*
X81214000Y-179492885D01*
X81218475Y-179508124D01*
X81219865Y-179509329D01*
X81227548Y-179511000D01*
X82827702Y-179511000D01*
X82841233Y-179507027D01*
X82842304Y-179499579D01*
X82784622Y-179312085D01*
X82780401Y-179301740D01*
X82686643Y-179120088D01*
X82680658Y-179110657D01*
X82619935Y-179031522D01*
X98217273Y-179031522D01*
X98264764Y-179208761D01*
X98268510Y-179219053D01*
X98360586Y-179416511D01*
X98366069Y-179426007D01*
X98491028Y-179604467D01*
X98498084Y-179612875D01*
X98652125Y-179766916D01*
X98660533Y-179773972D01*
X98838993Y-179898931D01*
X98848489Y-179904414D01*
X99045947Y-179996490D01*
X99056239Y-180000236D01*
X99266688Y-180056625D01*
X99277481Y-180058528D01*
X99440170Y-180072762D01*
X99445635Y-180073000D01*
X100027885Y-180073000D01*
X100043124Y-180068525D01*
X100044329Y-180067135D01*
X100046000Y-180059452D01*
X100046000Y-180054885D01*
X100554000Y-180054885D01*
X100558475Y-180070124D01*
X100559865Y-180071329D01*
X100567548Y-180073000D01*
X101154365Y-180073000D01*
X101159830Y-180072762D01*
X101322519Y-180058528D01*
X101333312Y-180056625D01*
X101543761Y-180000236D01*
X101554053Y-179996490D01*
X101751511Y-179904414D01*
X101761007Y-179898931D01*
X101939467Y-179773972D01*
X101947875Y-179766916D01*
X102101916Y-179612875D01*
X102108972Y-179604467D01*
X102233931Y-179426007D01*
X102239414Y-179416511D01*
X102331490Y-179219053D01*
X102335236Y-179208761D01*
X102381394Y-179036497D01*
X102381249Y-179030421D01*
X104367465Y-179030421D01*
X104425730Y-179219811D01*
X104429951Y-179230157D01*
X104524119Y-179412604D01*
X104530105Y-179422035D01*
X104655089Y-179584918D01*
X104662651Y-179593141D01*
X104814511Y-179731323D01*
X104823411Y-179738078D01*
X104997328Y-179847177D01*
X105007294Y-179852254D01*
X105197773Y-179928826D01*
X105208488Y-179932061D01*
X105410494Y-179973895D01*
X105419630Y-179975098D01*
X105468140Y-179977895D01*
X105471787Y-179978000D01*
X105987885Y-179978000D01*
X106003124Y-179973525D01*
X106004329Y-179972135D01*
X106006000Y-179964452D01*
X106006000Y-179959885D01*
X106514000Y-179959885D01*
X106518475Y-179975124D01*
X106519865Y-179976329D01*
X106527548Y-179978000D01*
X107017136Y-179978000D01*
X107022731Y-179977751D01*
X107175077Y-179964154D01*
X107186091Y-179962172D01*
X107384111Y-179908001D01*
X107394592Y-179904103D01*
X107579903Y-179815713D01*
X107589517Y-179810028D01*
X107756245Y-179690223D01*
X107764710Y-179682915D01*
X107907579Y-179535484D01*
X107914622Y-179526787D01*
X108029126Y-179356389D01*
X108034512Y-179346592D01*
X108117035Y-179158598D01*
X108120600Y-179148006D01*
X108147342Y-179036616D01*
X108146637Y-179022530D01*
X108137758Y-179019000D01*
X106532115Y-179019000D01*
X106516876Y-179023475D01*
X106515671Y-179024865D01*
X106514000Y-179032548D01*
X106514000Y-179959885D01*
X106006000Y-179959885D01*
X106006000Y-179037115D01*
X106001525Y-179021876D01*
X106000135Y-179020671D01*
X105992452Y-179019000D01*
X104382067Y-179019000D01*
X104368536Y-179022973D01*
X104367465Y-179030421D01*
X102381249Y-179030421D01*
X102381058Y-179022401D01*
X102373116Y-179019000D01*
X100572115Y-179019000D01*
X100556876Y-179023475D01*
X100555671Y-179024865D01*
X100554000Y-179032548D01*
X100554000Y-180054885D01*
X100046000Y-180054885D01*
X100046000Y-179037115D01*
X100041525Y-179021876D01*
X100040135Y-179020671D01*
X100032452Y-179019000D01*
X98232033Y-179019000D01*
X98218502Y-179022973D01*
X98217273Y-179031522D01*
X82619935Y-179031522D01*
X82556215Y-178948480D01*
X82548648Y-178940251D01*
X82397461Y-178802681D01*
X82388550Y-178795918D01*
X82215396Y-178687299D01*
X82205426Y-178682218D01*
X82015768Y-178605976D01*
X82005068Y-178602745D01*
X81803929Y-178561092D01*
X81794793Y-178559889D01*
X81746510Y-178557105D01*
X81742863Y-178557000D01*
X81232115Y-178557000D01*
X81216876Y-178561475D01*
X81215671Y-178562865D01*
X81214000Y-178570548D01*
X81214000Y-179492885D01*
X80706000Y-179492885D01*
X80706000Y-178575115D01*
X80701525Y-178559876D01*
X80700135Y-178558671D01*
X80692452Y-178557000D01*
X80208089Y-178557000D01*
X80202494Y-178557249D01*
X80050812Y-178570787D01*
X80039798Y-178572768D01*
X79842634Y-178626707D01*
X79832161Y-178630601D01*
X79647659Y-178718604D01*
X79638030Y-178724299D01*
X79472037Y-178843577D01*
X79463572Y-178850884D01*
X79321316Y-178997680D01*
X79314286Y-179006362D01*
X79200275Y-179176028D01*
X79194883Y-179185837D01*
X79112725Y-179372999D01*
X79109159Y-179383594D01*
X79082800Y-179493385D01*
X75854272Y-179493385D01*
X75833806Y-179408463D01*
X75829917Y-179397168D01*
X75747371Y-179215618D01*
X75741424Y-179205276D01*
X75626032Y-179042603D01*
X75618239Y-179033575D01*
X75474169Y-178895658D01*
X75464804Y-178888262D01*
X75297259Y-178780079D01*
X75286655Y-178774583D01*
X75101688Y-178700039D01*
X75090230Y-178696645D01*
X74893072Y-178658143D01*
X74884209Y-178657066D01*
X74881500Y-178657000D01*
X74452115Y-178657000D01*
X74436876Y-178661475D01*
X74435671Y-178662865D01*
X74434000Y-178670548D01*
X74434000Y-179492885D01*
X73926000Y-179492885D01*
X73926000Y-178675115D01*
X73921525Y-178659876D01*
X73920135Y-178658671D01*
X73912452Y-178657000D01*
X73530168Y-178657000D01*
X73524192Y-178657285D01*
X73375506Y-178671471D01*
X73363772Y-178673730D01*
X73172401Y-178729872D01*
X73161325Y-178734302D01*
X72984022Y-178825619D01*
X72973976Y-178832069D01*
X72817143Y-178955262D01*
X72808494Y-178963499D01*
X72677788Y-179114123D01*
X72670853Y-179123847D01*
X72570990Y-179296467D01*
X72566016Y-179307331D01*
X72500593Y-179495727D01*
X72500352Y-179496716D01*
X70850000Y-179496716D01*
X70850000Y-178493503D01*
X98218606Y-178493503D01*
X98218942Y-178507599D01*
X98226884Y-178511000D01*
X100027885Y-178511000D01*
X100043124Y-178506525D01*
X100044329Y-178505135D01*
X100046000Y-178497452D01*
X100046000Y-178492885D01*
X100554000Y-178492885D01*
X100558475Y-178508124D01*
X100559865Y-178509329D01*
X100567548Y-178511000D01*
X102367967Y-178511000D01*
X102381498Y-178507027D01*
X102382727Y-178498478D01*
X102381362Y-178493384D01*
X104372658Y-178493384D01*
X104373363Y-178507470D01*
X104382242Y-178511000D01*
X105987885Y-178511000D01*
X106003124Y-178506525D01*
X106004329Y-178505135D01*
X106006000Y-178497452D01*
X106006000Y-178492885D01*
X106514000Y-178492885D01*
X106518475Y-178508124D01*
X106519865Y-178509329D01*
X106527548Y-178511000D01*
X108137933Y-178511000D01*
X108151464Y-178507027D01*
X108152535Y-178499579D01*
X108094270Y-178310189D01*
X108090049Y-178299843D01*
X107995881Y-178117396D01*
X107989895Y-178107965D01*
X107864911Y-177945082D01*
X107857349Y-177936859D01*
X107705489Y-177798677D01*
X107696589Y-177791922D01*
X107522672Y-177682823D01*
X107512706Y-177677746D01*
X107322227Y-177601174D01*
X107311512Y-177597939D01*
X107109506Y-177556105D01*
X107100370Y-177554902D01*
X107051860Y-177552105D01*
X107048213Y-177552000D01*
X106532115Y-177552000D01*
X106516876Y-177556475D01*
X106515671Y-177557865D01*
X106514000Y-177565548D01*
X106514000Y-178492885D01*
X106006000Y-178492885D01*
X106006000Y-177570115D01*
X106001525Y-177554876D01*
X106000135Y-177553671D01*
X105992452Y-177552000D01*
X105502864Y-177552000D01*
X105497269Y-177552249D01*
X105344923Y-177565846D01*
X105333909Y-177567828D01*
X105135889Y-177621999D01*
X105125408Y-177625897D01*
X104940097Y-177714287D01*
X104930483Y-177719972D01*
X104763755Y-177839777D01*
X104755290Y-177847085D01*
X104612421Y-177994516D01*
X104605378Y-178003213D01*
X104490874Y-178173611D01*
X104485488Y-178183408D01*
X104402965Y-178371402D01*
X104399400Y-178381994D01*
X104372658Y-178493384D01*
X102381362Y-178493384D01*
X102335236Y-178321239D01*
X102331490Y-178310947D01*
X102239414Y-178113489D01*
X102233931Y-178103993D01*
X102108972Y-177925533D01*
X102101916Y-177917125D01*
X101947875Y-177763084D01*
X101939467Y-177756028D01*
X101761007Y-177631069D01*
X101751511Y-177625586D01*
X101554053Y-177533510D01*
X101543761Y-177529764D01*
X101333312Y-177473375D01*
X101322519Y-177471472D01*
X101159830Y-177457238D01*
X101154365Y-177457000D01*
X100572115Y-177457000D01*
X100556876Y-177461475D01*
X100555671Y-177462865D01*
X100554000Y-177470548D01*
X100554000Y-178492885D01*
X100046000Y-178492885D01*
X100046000Y-177475115D01*
X100041525Y-177459876D01*
X100040135Y-177458671D01*
X100032452Y-177457000D01*
X99445635Y-177457000D01*
X99440170Y-177457238D01*
X99277481Y-177471472D01*
X99266688Y-177473375D01*
X99056239Y-177529764D01*
X99045947Y-177533510D01*
X98848489Y-177625586D01*
X98838993Y-177631069D01*
X98660533Y-177756028D01*
X98652125Y-177763084D01*
X98498084Y-177917125D01*
X98491028Y-177925533D01*
X98366069Y-178103993D01*
X98360586Y-178113489D01*
X98268510Y-178310947D01*
X98264764Y-178321239D01*
X98218606Y-178493503D01*
X70850000Y-178493503D01*
X70850000Y-171553113D01*
X72067214Y-171553113D01*
X72093130Y-171767277D01*
X72156563Y-171973466D01*
X72255505Y-172165164D01*
X72258920Y-172169614D01*
X72383415Y-172331860D01*
X72383419Y-172331864D01*
X72386831Y-172336311D01*
X72390980Y-172340086D01*
X72542242Y-172477724D01*
X72542245Y-172477726D01*
X72546389Y-172481497D01*
X72551141Y-172484478D01*
X72724379Y-172593151D01*
X72724383Y-172593153D01*
X72729135Y-172596134D01*
X72929293Y-172676597D01*
X73140537Y-172720344D01*
X73145148Y-172720610D01*
X73145149Y-172720610D01*
X73193452Y-172723395D01*
X73193456Y-172723395D01*
X73195275Y-172723500D01*
X73334735Y-172723500D01*
X73337522Y-172723251D01*
X73337528Y-172723251D01*
X73404240Y-172717297D01*
X73494872Y-172709208D01*
X73621740Y-172674501D01*
X73697536Y-172653766D01*
X73697540Y-172653765D01*
X73702952Y-172652284D01*
X73897663Y-172559411D01*
X74072851Y-172433526D01*
X74222977Y-172278608D01*
X74343297Y-172099553D01*
X74430008Y-171902020D01*
X74480368Y-171692255D01*
X74492786Y-171476887D01*
X74466870Y-171262723D01*
X74403437Y-171056534D01*
X74304495Y-170864836D01*
X74253208Y-170797997D01*
X74176585Y-170698140D01*
X74176581Y-170698136D01*
X74173169Y-170693689D01*
X74066331Y-170596474D01*
X74017758Y-170552276D01*
X74017755Y-170552274D01*
X74013611Y-170548503D01*
X74008859Y-170545522D01*
X73835621Y-170436849D01*
X73835617Y-170436847D01*
X73830865Y-170433866D01*
X73630707Y-170353403D01*
X73419463Y-170309656D01*
X73414852Y-170309390D01*
X73414851Y-170309390D01*
X73366548Y-170306605D01*
X73366544Y-170306605D01*
X73364725Y-170306500D01*
X73225265Y-170306500D01*
X73222478Y-170306749D01*
X73222472Y-170306749D01*
X73155760Y-170312703D01*
X73065128Y-170320792D01*
X72950085Y-170352264D01*
X72862464Y-170376234D01*
X72862460Y-170376235D01*
X72857048Y-170377716D01*
X72662337Y-170470589D01*
X72487149Y-170596474D01*
X72337023Y-170751392D01*
X72216703Y-170930447D01*
X72129992Y-171127980D01*
X72079632Y-171337745D01*
X72067214Y-171553113D01*
X70850000Y-171553113D01*
X70850000Y-164531522D01*
X98217273Y-164531522D01*
X98264764Y-164708761D01*
X98268510Y-164719053D01*
X98360586Y-164916511D01*
X98366069Y-164926007D01*
X98491028Y-165104467D01*
X98498084Y-165112875D01*
X98652125Y-165266916D01*
X98660533Y-165273972D01*
X98838993Y-165398931D01*
X98848489Y-165404414D01*
X99045947Y-165496490D01*
X99056239Y-165500236D01*
X99266688Y-165556625D01*
X99277481Y-165558528D01*
X99440170Y-165572762D01*
X99445635Y-165573000D01*
X100027885Y-165573000D01*
X100043124Y-165568525D01*
X100044329Y-165567135D01*
X100046000Y-165559452D01*
X100046000Y-165554885D01*
X100554000Y-165554885D01*
X100558475Y-165570124D01*
X100559865Y-165571329D01*
X100567548Y-165573000D01*
X101154365Y-165573000D01*
X101159830Y-165572762D01*
X101322519Y-165558528D01*
X101333312Y-165556625D01*
X101543761Y-165500236D01*
X101554053Y-165496490D01*
X101751511Y-165404414D01*
X101761007Y-165398931D01*
X101939467Y-165273972D01*
X101947875Y-165266916D01*
X102101916Y-165112875D01*
X102108972Y-165104467D01*
X102233931Y-164926007D01*
X102239414Y-164916511D01*
X102331490Y-164719053D01*
X102335236Y-164708761D01*
X102381394Y-164536497D01*
X102381249Y-164530421D01*
X104367465Y-164530421D01*
X104425730Y-164719811D01*
X104429951Y-164730157D01*
X104524119Y-164912604D01*
X104530105Y-164922035D01*
X104655089Y-165084918D01*
X104662651Y-165093141D01*
X104814511Y-165231323D01*
X104823411Y-165238078D01*
X104997328Y-165347177D01*
X105007294Y-165352254D01*
X105197773Y-165428826D01*
X105208488Y-165432061D01*
X105410494Y-165473895D01*
X105419630Y-165475098D01*
X105468140Y-165477895D01*
X105471787Y-165478000D01*
X105987885Y-165478000D01*
X106003124Y-165473525D01*
X106004329Y-165472135D01*
X106006000Y-165464452D01*
X106006000Y-165459885D01*
X106514000Y-165459885D01*
X106518475Y-165475124D01*
X106519865Y-165476329D01*
X106527548Y-165478000D01*
X107017136Y-165478000D01*
X107022731Y-165477751D01*
X107175077Y-165464154D01*
X107186091Y-165462172D01*
X107384111Y-165408001D01*
X107394592Y-165404103D01*
X107579903Y-165315713D01*
X107589517Y-165310028D01*
X107756245Y-165190223D01*
X107764710Y-165182915D01*
X107907579Y-165035484D01*
X107914622Y-165026787D01*
X108029126Y-164856389D01*
X108034512Y-164846592D01*
X108117035Y-164658598D01*
X108120600Y-164648006D01*
X108147342Y-164536616D01*
X108146637Y-164522530D01*
X108137758Y-164519000D01*
X106532115Y-164519000D01*
X106516876Y-164523475D01*
X106515671Y-164524865D01*
X106514000Y-164532548D01*
X106514000Y-165459885D01*
X106006000Y-165459885D01*
X106006000Y-164537115D01*
X106001525Y-164521876D01*
X106000135Y-164520671D01*
X105992452Y-164519000D01*
X104382067Y-164519000D01*
X104368536Y-164522973D01*
X104367465Y-164530421D01*
X102381249Y-164530421D01*
X102381058Y-164522401D01*
X102373116Y-164519000D01*
X100572115Y-164519000D01*
X100556876Y-164523475D01*
X100555671Y-164524865D01*
X100554000Y-164532548D01*
X100554000Y-165554885D01*
X100046000Y-165554885D01*
X100046000Y-164537115D01*
X100041525Y-164521876D01*
X100040135Y-164520671D01*
X100032452Y-164519000D01*
X98232033Y-164519000D01*
X98218502Y-164522973D01*
X98217273Y-164531522D01*
X70850000Y-164531522D01*
X70850000Y-163532399D01*
X72504712Y-163532399D01*
X72526194Y-163621537D01*
X72530083Y-163632832D01*
X72612629Y-163814382D01*
X72618576Y-163824724D01*
X72733968Y-163987397D01*
X72741761Y-163996425D01*
X72885831Y-164134342D01*
X72895196Y-164141738D01*
X73062741Y-164249921D01*
X73073345Y-164255417D01*
X73258312Y-164329961D01*
X73269770Y-164333355D01*
X73466928Y-164371857D01*
X73475791Y-164372934D01*
X73478500Y-164373000D01*
X73907885Y-164373000D01*
X73923124Y-164368525D01*
X73924329Y-164367135D01*
X73926000Y-164359452D01*
X73926000Y-164354885D01*
X74434000Y-164354885D01*
X74438475Y-164370124D01*
X74439865Y-164371329D01*
X74447548Y-164373000D01*
X74829832Y-164373000D01*
X74835808Y-164372715D01*
X74984494Y-164358529D01*
X74996228Y-164356270D01*
X75187599Y-164300128D01*
X75198675Y-164295698D01*
X75375978Y-164204381D01*
X75386024Y-164197931D01*
X75542857Y-164074738D01*
X75551506Y-164066501D01*
X75682212Y-163915877D01*
X75689147Y-163906153D01*
X75789010Y-163733533D01*
X75793984Y-163722669D01*
X75859407Y-163534273D01*
X75859648Y-163533284D01*
X75859240Y-163530421D01*
X79077696Y-163530421D01*
X79135378Y-163717915D01*
X79139599Y-163728260D01*
X79233357Y-163909912D01*
X79239342Y-163919343D01*
X79363785Y-164081520D01*
X79371352Y-164089749D01*
X79522539Y-164227319D01*
X79531450Y-164234082D01*
X79704604Y-164342701D01*
X79714574Y-164347782D01*
X79904232Y-164424024D01*
X79914932Y-164427255D01*
X80116071Y-164468908D01*
X80125207Y-164470111D01*
X80173490Y-164472895D01*
X80177137Y-164473000D01*
X80687885Y-164473000D01*
X80703124Y-164468525D01*
X80704329Y-164467135D01*
X80706000Y-164459452D01*
X80706000Y-164454885D01*
X81214000Y-164454885D01*
X81218475Y-164470124D01*
X81219865Y-164471329D01*
X81227548Y-164473000D01*
X81711911Y-164473000D01*
X81717506Y-164472751D01*
X81869188Y-164459213D01*
X81880202Y-164457232D01*
X82077366Y-164403293D01*
X82087839Y-164399399D01*
X82272341Y-164311396D01*
X82281970Y-164305701D01*
X82447963Y-164186423D01*
X82456428Y-164179116D01*
X82598684Y-164032320D01*
X82605714Y-164023638D01*
X82625964Y-163993503D01*
X98218606Y-163993503D01*
X98218942Y-164007599D01*
X98226884Y-164011000D01*
X100027885Y-164011000D01*
X100043124Y-164006525D01*
X100044329Y-164005135D01*
X100046000Y-163997452D01*
X100046000Y-163992885D01*
X100554000Y-163992885D01*
X100558475Y-164008124D01*
X100559865Y-164009329D01*
X100567548Y-164011000D01*
X102367967Y-164011000D01*
X102381498Y-164007027D01*
X102382727Y-163998478D01*
X102381362Y-163993384D01*
X104372658Y-163993384D01*
X104373363Y-164007470D01*
X104382242Y-164011000D01*
X105987885Y-164011000D01*
X106003124Y-164006525D01*
X106004329Y-164005135D01*
X106006000Y-163997452D01*
X106006000Y-163992885D01*
X106514000Y-163992885D01*
X106518475Y-164008124D01*
X106519865Y-164009329D01*
X106527548Y-164011000D01*
X108137933Y-164011000D01*
X108151464Y-164007027D01*
X108152535Y-163999579D01*
X108094270Y-163810189D01*
X108090049Y-163799843D01*
X107995881Y-163617396D01*
X107989895Y-163607965D01*
X107864911Y-163445082D01*
X107857349Y-163436859D01*
X107705489Y-163298677D01*
X107696589Y-163291922D01*
X107522672Y-163182823D01*
X107512706Y-163177746D01*
X107322227Y-163101174D01*
X107311512Y-163097939D01*
X107109506Y-163056105D01*
X107100370Y-163054902D01*
X107051860Y-163052105D01*
X107048213Y-163052000D01*
X106532115Y-163052000D01*
X106516876Y-163056475D01*
X106515671Y-163057865D01*
X106514000Y-163065548D01*
X106514000Y-163992885D01*
X106006000Y-163992885D01*
X106006000Y-163070115D01*
X106001525Y-163054876D01*
X106000135Y-163053671D01*
X105992452Y-163052000D01*
X105502864Y-163052000D01*
X105497269Y-163052249D01*
X105344923Y-163065846D01*
X105333909Y-163067828D01*
X105135889Y-163121999D01*
X105125408Y-163125897D01*
X104940097Y-163214287D01*
X104930483Y-163219972D01*
X104763755Y-163339777D01*
X104755290Y-163347085D01*
X104612421Y-163494516D01*
X104605378Y-163503213D01*
X104490874Y-163673611D01*
X104485488Y-163683408D01*
X104402965Y-163871402D01*
X104399400Y-163881994D01*
X104372658Y-163993384D01*
X102381362Y-163993384D01*
X102335236Y-163821239D01*
X102331490Y-163810947D01*
X102239414Y-163613489D01*
X102233931Y-163603993D01*
X102108972Y-163425533D01*
X102101916Y-163417125D01*
X101947875Y-163263084D01*
X101939467Y-163256028D01*
X101761007Y-163131069D01*
X101751511Y-163125586D01*
X101554053Y-163033510D01*
X101543761Y-163029764D01*
X101333312Y-162973375D01*
X101322519Y-162971472D01*
X101159830Y-162957238D01*
X101154365Y-162957000D01*
X100572115Y-162957000D01*
X100556876Y-162961475D01*
X100555671Y-162962865D01*
X100554000Y-162970548D01*
X100554000Y-163992885D01*
X100046000Y-163992885D01*
X100046000Y-162975115D01*
X100041525Y-162959876D01*
X100040135Y-162958671D01*
X100032452Y-162957000D01*
X99445635Y-162957000D01*
X99440170Y-162957238D01*
X99277481Y-162971472D01*
X99266688Y-162973375D01*
X99056239Y-163029764D01*
X99045947Y-163033510D01*
X98848489Y-163125586D01*
X98838993Y-163131069D01*
X98660533Y-163256028D01*
X98652125Y-163263084D01*
X98498084Y-163417125D01*
X98491028Y-163425533D01*
X98366069Y-163603993D01*
X98360586Y-163613489D01*
X98268510Y-163810947D01*
X98264764Y-163821239D01*
X98218606Y-163993503D01*
X82625964Y-163993503D01*
X82719725Y-163853972D01*
X82725117Y-163844163D01*
X82807275Y-163657001D01*
X82810841Y-163646406D01*
X82837200Y-163536615D01*
X82836495Y-163522530D01*
X82827616Y-163519000D01*
X81232115Y-163519000D01*
X81216876Y-163523475D01*
X81215671Y-163524865D01*
X81214000Y-163532548D01*
X81214000Y-164454885D01*
X80706000Y-164454885D01*
X80706000Y-163537115D01*
X80701525Y-163521876D01*
X80700135Y-163520671D01*
X80692452Y-163519000D01*
X79092298Y-163519000D01*
X79078767Y-163522973D01*
X79077696Y-163530421D01*
X75859240Y-163530421D01*
X75858180Y-163522992D01*
X75844615Y-163519000D01*
X74452115Y-163519000D01*
X74436876Y-163523475D01*
X74435671Y-163524865D01*
X74434000Y-163532548D01*
X74434000Y-164354885D01*
X73926000Y-164354885D01*
X73926000Y-163537115D01*
X73921525Y-163521876D01*
X73920135Y-163520671D01*
X73912452Y-163519000D01*
X72519598Y-163519000D01*
X72506067Y-163522973D01*
X72504712Y-163532399D01*
X70850000Y-163532399D01*
X70850000Y-162996716D01*
X72500352Y-162996716D01*
X72501820Y-163007008D01*
X72515385Y-163011000D01*
X73907885Y-163011000D01*
X73923124Y-163006525D01*
X73924329Y-163005135D01*
X73926000Y-162997452D01*
X73926000Y-162992885D01*
X74434000Y-162992885D01*
X74438475Y-163008124D01*
X74439865Y-163009329D01*
X74447548Y-163011000D01*
X75840402Y-163011000D01*
X75853933Y-163007027D01*
X75855288Y-162997601D01*
X75854272Y-162993385D01*
X79082800Y-162993385D01*
X79083505Y-163007470D01*
X79092384Y-163011000D01*
X80687885Y-163011000D01*
X80703124Y-163006525D01*
X80704329Y-163005135D01*
X80706000Y-162997452D01*
X80706000Y-162992885D01*
X81214000Y-162992885D01*
X81218475Y-163008124D01*
X81219865Y-163009329D01*
X81227548Y-163011000D01*
X82827702Y-163011000D01*
X82841233Y-163007027D01*
X82842304Y-162999579D01*
X82784622Y-162812085D01*
X82780401Y-162801740D01*
X82686643Y-162620088D01*
X82680658Y-162610657D01*
X82556215Y-162448480D01*
X82548648Y-162440251D01*
X82397461Y-162302681D01*
X82388550Y-162295918D01*
X82215396Y-162187299D01*
X82205426Y-162182218D01*
X82015768Y-162105976D01*
X82005068Y-162102745D01*
X81803929Y-162061092D01*
X81794793Y-162059889D01*
X81746510Y-162057105D01*
X81742863Y-162057000D01*
X81232115Y-162057000D01*
X81216876Y-162061475D01*
X81215671Y-162062865D01*
X81214000Y-162070548D01*
X81214000Y-162992885D01*
X80706000Y-162992885D01*
X80706000Y-162075115D01*
X80701525Y-162059876D01*
X80700135Y-162058671D01*
X80692452Y-162057000D01*
X80208089Y-162057000D01*
X80202494Y-162057249D01*
X80050812Y-162070787D01*
X80039798Y-162072768D01*
X79842634Y-162126707D01*
X79832161Y-162130601D01*
X79647659Y-162218604D01*
X79638030Y-162224299D01*
X79472037Y-162343577D01*
X79463572Y-162350884D01*
X79321316Y-162497680D01*
X79314286Y-162506362D01*
X79200275Y-162676028D01*
X79194883Y-162685837D01*
X79112725Y-162872999D01*
X79109159Y-162883594D01*
X79082800Y-162993385D01*
X75854272Y-162993385D01*
X75833806Y-162908463D01*
X75829917Y-162897168D01*
X75747371Y-162715618D01*
X75741424Y-162705276D01*
X75626032Y-162542603D01*
X75618239Y-162533575D01*
X75474169Y-162395658D01*
X75464804Y-162388262D01*
X75297259Y-162280079D01*
X75286655Y-162274583D01*
X75101688Y-162200039D01*
X75090230Y-162196645D01*
X74893072Y-162158143D01*
X74884209Y-162157066D01*
X74881500Y-162157000D01*
X74452115Y-162157000D01*
X74436876Y-162161475D01*
X74435671Y-162162865D01*
X74434000Y-162170548D01*
X74434000Y-162992885D01*
X73926000Y-162992885D01*
X73926000Y-162175115D01*
X73921525Y-162159876D01*
X73920135Y-162158671D01*
X73912452Y-162157000D01*
X73530168Y-162157000D01*
X73524192Y-162157285D01*
X73375506Y-162171471D01*
X73363772Y-162173730D01*
X73172401Y-162229872D01*
X73161325Y-162234302D01*
X72984022Y-162325619D01*
X72973976Y-162332069D01*
X72817143Y-162455262D01*
X72808494Y-162463499D01*
X72677788Y-162614123D01*
X72670853Y-162623847D01*
X72570990Y-162796467D01*
X72566016Y-162807331D01*
X72500593Y-162995727D01*
X72500352Y-162996716D01*
X70850000Y-162996716D01*
X70850000Y-157426399D01*
X72504712Y-157426399D01*
X72526194Y-157515537D01*
X72530083Y-157526832D01*
X72612629Y-157708382D01*
X72618576Y-157718724D01*
X72733968Y-157881397D01*
X72741761Y-157890425D01*
X72885831Y-158028342D01*
X72895196Y-158035738D01*
X73062741Y-158143921D01*
X73073345Y-158149417D01*
X73258312Y-158223961D01*
X73269770Y-158227355D01*
X73466928Y-158265857D01*
X73475791Y-158266934D01*
X73478500Y-158267000D01*
X73907885Y-158267000D01*
X73923124Y-158262525D01*
X73924329Y-158261135D01*
X73926000Y-158253452D01*
X73926000Y-158248885D01*
X74434000Y-158248885D01*
X74438475Y-158264124D01*
X74439865Y-158265329D01*
X74447548Y-158267000D01*
X74829832Y-158267000D01*
X74835808Y-158266715D01*
X74984494Y-158252529D01*
X74996228Y-158250270D01*
X75187599Y-158194128D01*
X75198675Y-158189698D01*
X75375978Y-158098381D01*
X75386024Y-158091931D01*
X75542857Y-157968738D01*
X75551506Y-157960501D01*
X75682212Y-157809877D01*
X75689147Y-157800153D01*
X75789010Y-157627533D01*
X75793984Y-157616669D01*
X75859407Y-157428273D01*
X75859648Y-157427284D01*
X75859240Y-157424421D01*
X79077696Y-157424421D01*
X79135378Y-157611915D01*
X79139599Y-157622260D01*
X79233357Y-157803912D01*
X79239342Y-157813343D01*
X79363785Y-157975520D01*
X79371352Y-157983749D01*
X79522539Y-158121319D01*
X79531450Y-158128082D01*
X79704604Y-158236701D01*
X79714574Y-158241782D01*
X79904232Y-158318024D01*
X79914932Y-158321255D01*
X80116071Y-158362908D01*
X80125207Y-158364111D01*
X80173490Y-158366895D01*
X80177137Y-158367000D01*
X80687885Y-158367000D01*
X80703124Y-158362525D01*
X80704329Y-158361135D01*
X80706000Y-158353452D01*
X80706000Y-158348885D01*
X81214000Y-158348885D01*
X81218475Y-158364124D01*
X81219865Y-158365329D01*
X81227548Y-158367000D01*
X81711911Y-158367000D01*
X81717506Y-158366751D01*
X81869188Y-158353213D01*
X81880202Y-158351232D01*
X82077366Y-158297293D01*
X82087839Y-158293399D01*
X82272341Y-158205396D01*
X82281970Y-158199701D01*
X82447963Y-158080423D01*
X82456428Y-158073116D01*
X82598684Y-157926320D01*
X82605714Y-157917638D01*
X82719725Y-157747972D01*
X82725117Y-157738163D01*
X82807275Y-157551001D01*
X82810841Y-157540406D01*
X82837200Y-157430615D01*
X82836495Y-157416530D01*
X82827616Y-157413000D01*
X81232115Y-157413000D01*
X81216876Y-157417475D01*
X81215671Y-157418865D01*
X81214000Y-157426548D01*
X81214000Y-158348885D01*
X80706000Y-158348885D01*
X80706000Y-157431115D01*
X80701525Y-157415876D01*
X80700135Y-157414671D01*
X80692452Y-157413000D01*
X79092298Y-157413000D01*
X79078767Y-157416973D01*
X79077696Y-157424421D01*
X75859240Y-157424421D01*
X75858180Y-157416992D01*
X75844615Y-157413000D01*
X74452115Y-157413000D01*
X74436876Y-157417475D01*
X74435671Y-157418865D01*
X74434000Y-157426548D01*
X74434000Y-158248885D01*
X73926000Y-158248885D01*
X73926000Y-157431115D01*
X73921525Y-157415876D01*
X73920135Y-157414671D01*
X73912452Y-157413000D01*
X72519598Y-157413000D01*
X72506067Y-157416973D01*
X72504712Y-157426399D01*
X70850000Y-157426399D01*
X70850000Y-156890716D01*
X72500352Y-156890716D01*
X72501820Y-156901008D01*
X72515385Y-156905000D01*
X73907885Y-156905000D01*
X73923124Y-156900525D01*
X73924329Y-156899135D01*
X73926000Y-156891452D01*
X73926000Y-156886885D01*
X74434000Y-156886885D01*
X74438475Y-156902124D01*
X74439865Y-156903329D01*
X74447548Y-156905000D01*
X75840402Y-156905000D01*
X75853933Y-156901027D01*
X75855288Y-156891601D01*
X75854272Y-156887385D01*
X79082800Y-156887385D01*
X79083505Y-156901470D01*
X79092384Y-156905000D01*
X80687885Y-156905000D01*
X80703124Y-156900525D01*
X80704329Y-156899135D01*
X80706000Y-156891452D01*
X80706000Y-156886885D01*
X81214000Y-156886885D01*
X81218475Y-156902124D01*
X81219865Y-156903329D01*
X81227548Y-156905000D01*
X82827702Y-156905000D01*
X82841233Y-156901027D01*
X82842304Y-156893579D01*
X82784622Y-156706085D01*
X82780401Y-156695740D01*
X82686643Y-156514088D01*
X82680658Y-156504657D01*
X82619935Y-156425522D01*
X98217273Y-156425522D01*
X98264764Y-156602761D01*
X98268510Y-156613053D01*
X98360586Y-156810511D01*
X98366069Y-156820007D01*
X98491028Y-156998467D01*
X98498084Y-157006875D01*
X98652125Y-157160916D01*
X98660533Y-157167972D01*
X98838993Y-157292931D01*
X98848489Y-157298414D01*
X99045947Y-157390490D01*
X99056239Y-157394236D01*
X99266688Y-157450625D01*
X99277481Y-157452528D01*
X99440170Y-157466762D01*
X99445635Y-157467000D01*
X100027885Y-157467000D01*
X100043124Y-157462525D01*
X100044329Y-157461135D01*
X100046000Y-157453452D01*
X100046000Y-157448885D01*
X100554000Y-157448885D01*
X100558475Y-157464124D01*
X100559865Y-157465329D01*
X100567548Y-157467000D01*
X101154365Y-157467000D01*
X101159830Y-157466762D01*
X101322519Y-157452528D01*
X101333312Y-157450625D01*
X101543761Y-157394236D01*
X101554053Y-157390490D01*
X101751511Y-157298414D01*
X101761007Y-157292931D01*
X101939467Y-157167972D01*
X101947875Y-157160916D01*
X102101916Y-157006875D01*
X102108972Y-156998467D01*
X102233931Y-156820007D01*
X102239414Y-156810511D01*
X102331490Y-156613053D01*
X102335236Y-156602761D01*
X102381394Y-156430497D01*
X102381249Y-156424421D01*
X104367465Y-156424421D01*
X104425730Y-156613811D01*
X104429951Y-156624157D01*
X104524119Y-156806604D01*
X104530105Y-156816035D01*
X104655089Y-156978918D01*
X104662651Y-156987141D01*
X104814511Y-157125323D01*
X104823411Y-157132078D01*
X104997328Y-157241177D01*
X105007294Y-157246254D01*
X105197773Y-157322826D01*
X105208488Y-157326061D01*
X105410494Y-157367895D01*
X105419630Y-157369098D01*
X105468140Y-157371895D01*
X105471787Y-157372000D01*
X105987885Y-157372000D01*
X106003124Y-157367525D01*
X106004329Y-157366135D01*
X106006000Y-157358452D01*
X106006000Y-157353885D01*
X106514000Y-157353885D01*
X106518475Y-157369124D01*
X106519865Y-157370329D01*
X106527548Y-157372000D01*
X107017136Y-157372000D01*
X107022731Y-157371751D01*
X107175077Y-157358154D01*
X107186091Y-157356172D01*
X107384111Y-157302001D01*
X107394592Y-157298103D01*
X107579903Y-157209713D01*
X107589517Y-157204028D01*
X107756245Y-157084223D01*
X107764710Y-157076915D01*
X107907579Y-156929484D01*
X107914622Y-156920787D01*
X108029126Y-156750389D01*
X108034512Y-156740592D01*
X108117035Y-156552598D01*
X108120600Y-156542006D01*
X108147342Y-156430616D01*
X108146637Y-156416530D01*
X108137758Y-156413000D01*
X106532115Y-156413000D01*
X106516876Y-156417475D01*
X106515671Y-156418865D01*
X106514000Y-156426548D01*
X106514000Y-157353885D01*
X106006000Y-157353885D01*
X106006000Y-156431115D01*
X106001525Y-156415876D01*
X106000135Y-156414671D01*
X105992452Y-156413000D01*
X104382067Y-156413000D01*
X104368536Y-156416973D01*
X104367465Y-156424421D01*
X102381249Y-156424421D01*
X102381058Y-156416401D01*
X102373116Y-156413000D01*
X100572115Y-156413000D01*
X100556876Y-156417475D01*
X100555671Y-156418865D01*
X100554000Y-156426548D01*
X100554000Y-157448885D01*
X100046000Y-157448885D01*
X100046000Y-156431115D01*
X100041525Y-156415876D01*
X100040135Y-156414671D01*
X100032452Y-156413000D01*
X98232033Y-156413000D01*
X98218502Y-156416973D01*
X98217273Y-156425522D01*
X82619935Y-156425522D01*
X82556215Y-156342480D01*
X82548648Y-156334251D01*
X82397461Y-156196681D01*
X82388550Y-156189918D01*
X82215396Y-156081299D01*
X82205426Y-156076218D01*
X82015768Y-155999976D01*
X82005068Y-155996745D01*
X81803929Y-155955092D01*
X81794793Y-155953889D01*
X81746510Y-155951105D01*
X81742863Y-155951000D01*
X81232115Y-155951000D01*
X81216876Y-155955475D01*
X81215671Y-155956865D01*
X81214000Y-155964548D01*
X81214000Y-156886885D01*
X80706000Y-156886885D01*
X80706000Y-155969115D01*
X80701525Y-155953876D01*
X80700135Y-155952671D01*
X80692452Y-155951000D01*
X80208089Y-155951000D01*
X80202494Y-155951249D01*
X80050812Y-155964787D01*
X80039798Y-155966768D01*
X79842634Y-156020707D01*
X79832161Y-156024601D01*
X79647659Y-156112604D01*
X79638030Y-156118299D01*
X79472037Y-156237577D01*
X79463572Y-156244884D01*
X79321316Y-156391680D01*
X79314286Y-156400362D01*
X79200275Y-156570028D01*
X79194883Y-156579837D01*
X79112725Y-156766999D01*
X79109159Y-156777594D01*
X79082800Y-156887385D01*
X75854272Y-156887385D01*
X75833806Y-156802463D01*
X75829917Y-156791168D01*
X75747371Y-156609618D01*
X75741424Y-156599276D01*
X75626032Y-156436603D01*
X75618239Y-156427575D01*
X75474169Y-156289658D01*
X75464804Y-156282262D01*
X75297259Y-156174079D01*
X75286655Y-156168583D01*
X75101688Y-156094039D01*
X75090230Y-156090645D01*
X74893072Y-156052143D01*
X74884209Y-156051066D01*
X74881500Y-156051000D01*
X74452115Y-156051000D01*
X74436876Y-156055475D01*
X74435671Y-156056865D01*
X74434000Y-156064548D01*
X74434000Y-156886885D01*
X73926000Y-156886885D01*
X73926000Y-156069115D01*
X73921525Y-156053876D01*
X73920135Y-156052671D01*
X73912452Y-156051000D01*
X73530168Y-156051000D01*
X73524192Y-156051285D01*
X73375506Y-156065471D01*
X73363772Y-156067730D01*
X73172401Y-156123872D01*
X73161325Y-156128302D01*
X72984022Y-156219619D01*
X72973976Y-156226069D01*
X72817143Y-156349262D01*
X72808494Y-156357499D01*
X72677788Y-156508123D01*
X72670853Y-156517847D01*
X72570990Y-156690467D01*
X72566016Y-156701331D01*
X72500593Y-156889727D01*
X72500352Y-156890716D01*
X70850000Y-156890716D01*
X70850000Y-155887503D01*
X98218606Y-155887503D01*
X98218942Y-155901599D01*
X98226884Y-155905000D01*
X100027885Y-155905000D01*
X100043124Y-155900525D01*
X100044329Y-155899135D01*
X100046000Y-155891452D01*
X100046000Y-155886885D01*
X100554000Y-155886885D01*
X100558475Y-155902124D01*
X100559865Y-155903329D01*
X100567548Y-155905000D01*
X102367967Y-155905000D01*
X102381498Y-155901027D01*
X102382727Y-155892478D01*
X102381362Y-155887384D01*
X104372658Y-155887384D01*
X104373363Y-155901470D01*
X104382242Y-155905000D01*
X105987885Y-155905000D01*
X106003124Y-155900525D01*
X106004329Y-155899135D01*
X106006000Y-155891452D01*
X106006000Y-155886885D01*
X106514000Y-155886885D01*
X106518475Y-155902124D01*
X106519865Y-155903329D01*
X106527548Y-155905000D01*
X108137933Y-155905000D01*
X108151464Y-155901027D01*
X108152535Y-155893579D01*
X108094270Y-155704189D01*
X108090049Y-155693843D01*
X107995881Y-155511396D01*
X107989895Y-155501965D01*
X107864911Y-155339082D01*
X107857349Y-155330859D01*
X107705489Y-155192677D01*
X107696589Y-155185922D01*
X107522672Y-155076823D01*
X107512706Y-155071746D01*
X107322227Y-154995174D01*
X107311512Y-154991939D01*
X107109506Y-154950105D01*
X107100370Y-154948902D01*
X107051860Y-154946105D01*
X107048213Y-154946000D01*
X106532115Y-154946000D01*
X106516876Y-154950475D01*
X106515671Y-154951865D01*
X106514000Y-154959548D01*
X106514000Y-155886885D01*
X106006000Y-155886885D01*
X106006000Y-154964115D01*
X106001525Y-154948876D01*
X106000135Y-154947671D01*
X105992452Y-154946000D01*
X105502864Y-154946000D01*
X105497269Y-154946249D01*
X105344923Y-154959846D01*
X105333909Y-154961828D01*
X105135889Y-155015999D01*
X105125408Y-155019897D01*
X104940097Y-155108287D01*
X104930483Y-155113972D01*
X104763755Y-155233777D01*
X104755290Y-155241085D01*
X104612421Y-155388516D01*
X104605378Y-155397213D01*
X104490874Y-155567611D01*
X104485488Y-155577408D01*
X104402965Y-155765402D01*
X104399400Y-155775994D01*
X104372658Y-155887384D01*
X102381362Y-155887384D01*
X102335236Y-155715239D01*
X102331490Y-155704947D01*
X102239414Y-155507489D01*
X102233931Y-155497993D01*
X102108972Y-155319533D01*
X102101916Y-155311125D01*
X101947875Y-155157084D01*
X101939467Y-155150028D01*
X101761007Y-155025069D01*
X101751511Y-155019586D01*
X101554053Y-154927510D01*
X101543761Y-154923764D01*
X101333312Y-154867375D01*
X101322519Y-154865472D01*
X101159830Y-154851238D01*
X101154365Y-154851000D01*
X100572115Y-154851000D01*
X100556876Y-154855475D01*
X100555671Y-154856865D01*
X100554000Y-154864548D01*
X100554000Y-155886885D01*
X100046000Y-155886885D01*
X100046000Y-154869115D01*
X100041525Y-154853876D01*
X100040135Y-154852671D01*
X100032452Y-154851000D01*
X99445635Y-154851000D01*
X99440170Y-154851238D01*
X99277481Y-154865472D01*
X99266688Y-154867375D01*
X99056239Y-154923764D01*
X99045947Y-154927510D01*
X98848489Y-155019586D01*
X98838993Y-155025069D01*
X98660533Y-155150028D01*
X98652125Y-155157084D01*
X98498084Y-155311125D01*
X98491028Y-155319533D01*
X98366069Y-155497993D01*
X98360586Y-155507489D01*
X98268510Y-155704947D01*
X98264764Y-155715239D01*
X98218606Y-155887503D01*
X70850000Y-155887503D01*
X70850000Y-148947113D01*
X72067214Y-148947113D01*
X72093130Y-149161277D01*
X72156563Y-149367466D01*
X72255505Y-149559164D01*
X72258920Y-149563614D01*
X72383415Y-149725860D01*
X72383419Y-149725864D01*
X72386831Y-149730311D01*
X72390980Y-149734086D01*
X72542242Y-149871724D01*
X72542245Y-149871726D01*
X72546389Y-149875497D01*
X72551141Y-149878478D01*
X72724379Y-149987151D01*
X72724383Y-149987153D01*
X72729135Y-149990134D01*
X72929293Y-150070597D01*
X73140537Y-150114344D01*
X73145148Y-150114610D01*
X73145149Y-150114610D01*
X73193452Y-150117395D01*
X73193456Y-150117395D01*
X73195275Y-150117500D01*
X73334735Y-150117500D01*
X73337522Y-150117251D01*
X73337528Y-150117251D01*
X73404240Y-150111297D01*
X73494872Y-150103208D01*
X73621740Y-150068501D01*
X73697536Y-150047766D01*
X73697540Y-150047765D01*
X73702952Y-150046284D01*
X73897663Y-149953411D01*
X74072851Y-149827526D01*
X74222977Y-149672608D01*
X74343297Y-149493553D01*
X74430008Y-149296020D01*
X74480368Y-149086255D01*
X74492786Y-148870887D01*
X74466870Y-148656723D01*
X74403437Y-148450534D01*
X74304495Y-148258836D01*
X74253208Y-148191997D01*
X74176585Y-148092140D01*
X74176581Y-148092136D01*
X74173169Y-148087689D01*
X74066331Y-147990474D01*
X74017758Y-147946276D01*
X74017755Y-147946274D01*
X74013611Y-147942503D01*
X74008859Y-147939522D01*
X73835621Y-147830849D01*
X73835617Y-147830847D01*
X73830865Y-147827866D01*
X73630707Y-147747403D01*
X73419463Y-147703656D01*
X73414852Y-147703390D01*
X73414851Y-147703390D01*
X73366548Y-147700605D01*
X73366544Y-147700605D01*
X73364725Y-147700500D01*
X73225265Y-147700500D01*
X73222478Y-147700749D01*
X73222472Y-147700749D01*
X73155760Y-147706703D01*
X73065128Y-147714792D01*
X72950085Y-147746264D01*
X72862464Y-147770234D01*
X72862460Y-147770235D01*
X72857048Y-147771716D01*
X72662337Y-147864589D01*
X72487149Y-147990474D01*
X72337023Y-148145392D01*
X72216703Y-148324447D01*
X72129992Y-148521980D01*
X72079632Y-148731745D01*
X72067214Y-148947113D01*
X70850000Y-148947113D01*
X70850000Y-141925522D01*
X98217273Y-141925522D01*
X98264764Y-142102761D01*
X98268510Y-142113053D01*
X98360586Y-142310511D01*
X98366069Y-142320007D01*
X98491028Y-142498467D01*
X98498084Y-142506875D01*
X98652125Y-142660916D01*
X98660533Y-142667972D01*
X98838993Y-142792931D01*
X98848489Y-142798414D01*
X99045947Y-142890490D01*
X99056239Y-142894236D01*
X99266688Y-142950625D01*
X99277481Y-142952528D01*
X99440170Y-142966762D01*
X99445635Y-142967000D01*
X100027885Y-142967000D01*
X100043124Y-142962525D01*
X100044329Y-142961135D01*
X100046000Y-142953452D01*
X100046000Y-142948885D01*
X100554000Y-142948885D01*
X100558475Y-142964124D01*
X100559865Y-142965329D01*
X100567548Y-142967000D01*
X101154365Y-142967000D01*
X101159830Y-142966762D01*
X101322519Y-142952528D01*
X101333312Y-142950625D01*
X101543761Y-142894236D01*
X101554053Y-142890490D01*
X101751511Y-142798414D01*
X101761007Y-142792931D01*
X101939467Y-142667972D01*
X101947875Y-142660916D01*
X102101916Y-142506875D01*
X102108972Y-142498467D01*
X102233931Y-142320007D01*
X102239414Y-142310511D01*
X102331490Y-142113053D01*
X102335236Y-142102761D01*
X102381394Y-141930497D01*
X102381249Y-141924421D01*
X104367465Y-141924421D01*
X104425730Y-142113811D01*
X104429951Y-142124157D01*
X104524119Y-142306604D01*
X104530105Y-142316035D01*
X104655089Y-142478918D01*
X104662651Y-142487141D01*
X104814511Y-142625323D01*
X104823411Y-142632078D01*
X104997328Y-142741177D01*
X105007294Y-142746254D01*
X105197773Y-142822826D01*
X105208488Y-142826061D01*
X105410494Y-142867895D01*
X105419630Y-142869098D01*
X105468140Y-142871895D01*
X105471787Y-142872000D01*
X105987885Y-142872000D01*
X106003124Y-142867525D01*
X106004329Y-142866135D01*
X106006000Y-142858452D01*
X106006000Y-142853885D01*
X106514000Y-142853885D01*
X106518475Y-142869124D01*
X106519865Y-142870329D01*
X106527548Y-142872000D01*
X107017136Y-142872000D01*
X107022731Y-142871751D01*
X107175077Y-142858154D01*
X107186091Y-142856172D01*
X107384111Y-142802001D01*
X107394592Y-142798103D01*
X107579903Y-142709713D01*
X107589517Y-142704028D01*
X107756245Y-142584223D01*
X107764710Y-142576915D01*
X107907579Y-142429484D01*
X107914622Y-142420787D01*
X108029126Y-142250389D01*
X108034512Y-142240592D01*
X108117035Y-142052598D01*
X108120600Y-142042006D01*
X108147342Y-141930616D01*
X108146637Y-141916530D01*
X108137758Y-141913000D01*
X106532115Y-141913000D01*
X106516876Y-141917475D01*
X106515671Y-141918865D01*
X106514000Y-141926548D01*
X106514000Y-142853885D01*
X106006000Y-142853885D01*
X106006000Y-141931115D01*
X106001525Y-141915876D01*
X106000135Y-141914671D01*
X105992452Y-141913000D01*
X104382067Y-141913000D01*
X104368536Y-141916973D01*
X104367465Y-141924421D01*
X102381249Y-141924421D01*
X102381058Y-141916401D01*
X102373116Y-141913000D01*
X100572115Y-141913000D01*
X100556876Y-141917475D01*
X100555671Y-141918865D01*
X100554000Y-141926548D01*
X100554000Y-142948885D01*
X100046000Y-142948885D01*
X100046000Y-141931115D01*
X100041525Y-141915876D01*
X100040135Y-141914671D01*
X100032452Y-141913000D01*
X98232033Y-141913000D01*
X98218502Y-141916973D01*
X98217273Y-141925522D01*
X70850000Y-141925522D01*
X70850000Y-140926399D01*
X72504712Y-140926399D01*
X72526194Y-141015537D01*
X72530083Y-141026832D01*
X72612629Y-141208382D01*
X72618576Y-141218724D01*
X72733968Y-141381397D01*
X72741761Y-141390425D01*
X72885831Y-141528342D01*
X72895196Y-141535738D01*
X73062741Y-141643921D01*
X73073345Y-141649417D01*
X73258312Y-141723961D01*
X73269770Y-141727355D01*
X73466928Y-141765857D01*
X73475791Y-141766934D01*
X73478500Y-141767000D01*
X73907885Y-141767000D01*
X73923124Y-141762525D01*
X73924329Y-141761135D01*
X73926000Y-141753452D01*
X73926000Y-141748885D01*
X74434000Y-141748885D01*
X74438475Y-141764124D01*
X74439865Y-141765329D01*
X74447548Y-141767000D01*
X74829832Y-141767000D01*
X74835808Y-141766715D01*
X74984494Y-141752529D01*
X74996228Y-141750270D01*
X75187599Y-141694128D01*
X75198675Y-141689698D01*
X75375978Y-141598381D01*
X75386024Y-141591931D01*
X75542857Y-141468738D01*
X75551506Y-141460501D01*
X75682212Y-141309877D01*
X75689147Y-141300153D01*
X75789010Y-141127533D01*
X75793984Y-141116669D01*
X75859407Y-140928273D01*
X75859648Y-140927284D01*
X75859240Y-140924421D01*
X79077696Y-140924421D01*
X79135378Y-141111915D01*
X79139599Y-141122260D01*
X79233357Y-141303912D01*
X79239342Y-141313343D01*
X79363785Y-141475520D01*
X79371352Y-141483749D01*
X79522539Y-141621319D01*
X79531450Y-141628082D01*
X79704604Y-141736701D01*
X79714574Y-141741782D01*
X79904232Y-141818024D01*
X79914932Y-141821255D01*
X80116071Y-141862908D01*
X80125207Y-141864111D01*
X80173490Y-141866895D01*
X80177137Y-141867000D01*
X80687885Y-141867000D01*
X80703124Y-141862525D01*
X80704329Y-141861135D01*
X80706000Y-141853452D01*
X80706000Y-141848885D01*
X81214000Y-141848885D01*
X81218475Y-141864124D01*
X81219865Y-141865329D01*
X81227548Y-141867000D01*
X81711911Y-141867000D01*
X81717506Y-141866751D01*
X81869188Y-141853213D01*
X81880202Y-141851232D01*
X82077366Y-141797293D01*
X82087839Y-141793399D01*
X82272341Y-141705396D01*
X82281970Y-141699701D01*
X82447963Y-141580423D01*
X82456428Y-141573116D01*
X82598684Y-141426320D01*
X82605714Y-141417638D01*
X82625964Y-141387503D01*
X98218606Y-141387503D01*
X98218942Y-141401599D01*
X98226884Y-141405000D01*
X100027885Y-141405000D01*
X100043124Y-141400525D01*
X100044329Y-141399135D01*
X100046000Y-141391452D01*
X100046000Y-141386885D01*
X100554000Y-141386885D01*
X100558475Y-141402124D01*
X100559865Y-141403329D01*
X100567548Y-141405000D01*
X102367967Y-141405000D01*
X102381498Y-141401027D01*
X102382727Y-141392478D01*
X102381362Y-141387384D01*
X104372658Y-141387384D01*
X104373363Y-141401470D01*
X104382242Y-141405000D01*
X105987885Y-141405000D01*
X106003124Y-141400525D01*
X106004329Y-141399135D01*
X106006000Y-141391452D01*
X106006000Y-141386885D01*
X106514000Y-141386885D01*
X106518475Y-141402124D01*
X106519865Y-141403329D01*
X106527548Y-141405000D01*
X108137933Y-141405000D01*
X108151464Y-141401027D01*
X108152535Y-141393579D01*
X108094270Y-141204189D01*
X108090049Y-141193843D01*
X107995881Y-141011396D01*
X107989895Y-141001965D01*
X107864911Y-140839082D01*
X107857349Y-140830859D01*
X107705489Y-140692677D01*
X107696589Y-140685922D01*
X107522672Y-140576823D01*
X107512706Y-140571746D01*
X107322227Y-140495174D01*
X107311512Y-140491939D01*
X107109506Y-140450105D01*
X107100370Y-140448902D01*
X107051860Y-140446105D01*
X107048213Y-140446000D01*
X106532115Y-140446000D01*
X106516876Y-140450475D01*
X106515671Y-140451865D01*
X106514000Y-140459548D01*
X106514000Y-141386885D01*
X106006000Y-141386885D01*
X106006000Y-140464115D01*
X106001525Y-140448876D01*
X106000135Y-140447671D01*
X105992452Y-140446000D01*
X105502864Y-140446000D01*
X105497269Y-140446249D01*
X105344923Y-140459846D01*
X105333909Y-140461828D01*
X105135889Y-140515999D01*
X105125408Y-140519897D01*
X104940097Y-140608287D01*
X104930483Y-140613972D01*
X104763755Y-140733777D01*
X104755290Y-140741085D01*
X104612421Y-140888516D01*
X104605378Y-140897213D01*
X104490874Y-141067611D01*
X104485488Y-141077408D01*
X104402965Y-141265402D01*
X104399400Y-141275994D01*
X104372658Y-141387384D01*
X102381362Y-141387384D01*
X102335236Y-141215239D01*
X102331490Y-141204947D01*
X102239414Y-141007489D01*
X102233931Y-140997993D01*
X102108972Y-140819533D01*
X102101916Y-140811125D01*
X101947875Y-140657084D01*
X101939467Y-140650028D01*
X101761007Y-140525069D01*
X101751511Y-140519586D01*
X101554053Y-140427510D01*
X101543761Y-140423764D01*
X101333312Y-140367375D01*
X101322519Y-140365472D01*
X101159830Y-140351238D01*
X101154365Y-140351000D01*
X100572115Y-140351000D01*
X100556876Y-140355475D01*
X100555671Y-140356865D01*
X100554000Y-140364548D01*
X100554000Y-141386885D01*
X100046000Y-141386885D01*
X100046000Y-140369115D01*
X100041525Y-140353876D01*
X100040135Y-140352671D01*
X100032452Y-140351000D01*
X99445635Y-140351000D01*
X99440170Y-140351238D01*
X99277481Y-140365472D01*
X99266688Y-140367375D01*
X99056239Y-140423764D01*
X99045947Y-140427510D01*
X98848489Y-140519586D01*
X98838993Y-140525069D01*
X98660533Y-140650028D01*
X98652125Y-140657084D01*
X98498084Y-140811125D01*
X98491028Y-140819533D01*
X98366069Y-140997993D01*
X98360586Y-141007489D01*
X98268510Y-141204947D01*
X98264764Y-141215239D01*
X98218606Y-141387503D01*
X82625964Y-141387503D01*
X82719725Y-141247972D01*
X82725117Y-141238163D01*
X82807275Y-141051001D01*
X82810841Y-141040406D01*
X82837200Y-140930615D01*
X82836495Y-140916530D01*
X82827616Y-140913000D01*
X81232115Y-140913000D01*
X81216876Y-140917475D01*
X81215671Y-140918865D01*
X81214000Y-140926548D01*
X81214000Y-141848885D01*
X80706000Y-141848885D01*
X80706000Y-140931115D01*
X80701525Y-140915876D01*
X80700135Y-140914671D01*
X80692452Y-140913000D01*
X79092298Y-140913000D01*
X79078767Y-140916973D01*
X79077696Y-140924421D01*
X75859240Y-140924421D01*
X75858180Y-140916992D01*
X75844615Y-140913000D01*
X74452115Y-140913000D01*
X74436876Y-140917475D01*
X74435671Y-140918865D01*
X74434000Y-140926548D01*
X74434000Y-141748885D01*
X73926000Y-141748885D01*
X73926000Y-140931115D01*
X73921525Y-140915876D01*
X73920135Y-140914671D01*
X73912452Y-140913000D01*
X72519598Y-140913000D01*
X72506067Y-140916973D01*
X72504712Y-140926399D01*
X70850000Y-140926399D01*
X70850000Y-140390716D01*
X72500352Y-140390716D01*
X72501820Y-140401008D01*
X72515385Y-140405000D01*
X73907885Y-140405000D01*
X73923124Y-140400525D01*
X73924329Y-140399135D01*
X73926000Y-140391452D01*
X73926000Y-140386885D01*
X74434000Y-140386885D01*
X74438475Y-140402124D01*
X74439865Y-140403329D01*
X74447548Y-140405000D01*
X75840402Y-140405000D01*
X75853933Y-140401027D01*
X75855288Y-140391601D01*
X75854272Y-140387385D01*
X79082800Y-140387385D01*
X79083505Y-140401470D01*
X79092384Y-140405000D01*
X80687885Y-140405000D01*
X80703124Y-140400525D01*
X80704329Y-140399135D01*
X80706000Y-140391452D01*
X80706000Y-140386885D01*
X81214000Y-140386885D01*
X81218475Y-140402124D01*
X81219865Y-140403329D01*
X81227548Y-140405000D01*
X82827702Y-140405000D01*
X82841233Y-140401027D01*
X82842304Y-140393579D01*
X82784622Y-140206085D01*
X82780401Y-140195740D01*
X82686643Y-140014088D01*
X82680658Y-140004657D01*
X82556215Y-139842480D01*
X82548648Y-139834251D01*
X82397461Y-139696681D01*
X82388550Y-139689918D01*
X82215396Y-139581299D01*
X82205426Y-139576218D01*
X82015768Y-139499976D01*
X82005068Y-139496745D01*
X81803929Y-139455092D01*
X81794793Y-139453889D01*
X81746510Y-139451105D01*
X81742863Y-139451000D01*
X81232115Y-139451000D01*
X81216876Y-139455475D01*
X81215671Y-139456865D01*
X81214000Y-139464548D01*
X81214000Y-140386885D01*
X80706000Y-140386885D01*
X80706000Y-139469115D01*
X80701525Y-139453876D01*
X80700135Y-139452671D01*
X80692452Y-139451000D01*
X80208089Y-139451000D01*
X80202494Y-139451249D01*
X80050812Y-139464787D01*
X80039798Y-139466768D01*
X79842634Y-139520707D01*
X79832161Y-139524601D01*
X79647659Y-139612604D01*
X79638030Y-139618299D01*
X79472037Y-139737577D01*
X79463572Y-139744884D01*
X79321316Y-139891680D01*
X79314286Y-139900362D01*
X79200275Y-140070028D01*
X79194883Y-140079837D01*
X79112725Y-140266999D01*
X79109159Y-140277594D01*
X79082800Y-140387385D01*
X75854272Y-140387385D01*
X75833806Y-140302463D01*
X75829917Y-140291168D01*
X75747371Y-140109618D01*
X75741424Y-140099276D01*
X75626032Y-139936603D01*
X75618239Y-139927575D01*
X75474169Y-139789658D01*
X75464804Y-139782262D01*
X75297259Y-139674079D01*
X75286655Y-139668583D01*
X75101688Y-139594039D01*
X75090230Y-139590645D01*
X74893072Y-139552143D01*
X74884209Y-139551066D01*
X74881500Y-139551000D01*
X74452115Y-139551000D01*
X74436876Y-139555475D01*
X74435671Y-139556865D01*
X74434000Y-139564548D01*
X74434000Y-140386885D01*
X73926000Y-140386885D01*
X73926000Y-139569115D01*
X73921525Y-139553876D01*
X73920135Y-139552671D01*
X73912452Y-139551000D01*
X73530168Y-139551000D01*
X73524192Y-139551285D01*
X73375506Y-139565471D01*
X73363772Y-139567730D01*
X73172401Y-139623872D01*
X73161325Y-139628302D01*
X72984022Y-139719619D01*
X72973976Y-139726069D01*
X72817143Y-139849262D01*
X72808494Y-139857499D01*
X72677788Y-140008123D01*
X72670853Y-140017847D01*
X72570990Y-140190467D01*
X72566016Y-140201331D01*
X72500593Y-140389727D01*
X72500352Y-140390716D01*
X70850000Y-140390716D01*
X70850000Y-134820399D01*
X72504712Y-134820399D01*
X72526194Y-134909537D01*
X72530083Y-134920832D01*
X72612629Y-135102382D01*
X72618576Y-135112724D01*
X72733968Y-135275397D01*
X72741761Y-135284425D01*
X72885831Y-135422342D01*
X72895196Y-135429738D01*
X73062741Y-135537921D01*
X73073345Y-135543417D01*
X73258312Y-135617961D01*
X73269770Y-135621355D01*
X73466928Y-135659857D01*
X73475791Y-135660934D01*
X73478500Y-135661000D01*
X73907885Y-135661000D01*
X73923124Y-135656525D01*
X73924329Y-135655135D01*
X73926000Y-135647452D01*
X73926000Y-135642885D01*
X74434000Y-135642885D01*
X74438475Y-135658124D01*
X74439865Y-135659329D01*
X74447548Y-135661000D01*
X74829832Y-135661000D01*
X74835808Y-135660715D01*
X74984494Y-135646529D01*
X74996228Y-135644270D01*
X75187599Y-135588128D01*
X75198675Y-135583698D01*
X75375978Y-135492381D01*
X75386024Y-135485931D01*
X75542857Y-135362738D01*
X75551506Y-135354501D01*
X75682212Y-135203877D01*
X75689147Y-135194153D01*
X75789010Y-135021533D01*
X75793984Y-135010669D01*
X75859407Y-134822273D01*
X75859648Y-134821284D01*
X75859240Y-134818421D01*
X79077696Y-134818421D01*
X79135378Y-135005915D01*
X79139599Y-135016260D01*
X79233357Y-135197912D01*
X79239342Y-135207343D01*
X79363785Y-135369520D01*
X79371352Y-135377749D01*
X79522539Y-135515319D01*
X79531450Y-135522082D01*
X79704604Y-135630701D01*
X79714574Y-135635782D01*
X79904232Y-135712024D01*
X79914932Y-135715255D01*
X80116071Y-135756908D01*
X80125207Y-135758111D01*
X80173490Y-135760895D01*
X80177137Y-135761000D01*
X80687885Y-135761000D01*
X80703124Y-135756525D01*
X80704329Y-135755135D01*
X80706000Y-135747452D01*
X80706000Y-135742885D01*
X81214000Y-135742885D01*
X81218475Y-135758124D01*
X81219865Y-135759329D01*
X81227548Y-135761000D01*
X81711911Y-135761000D01*
X81717506Y-135760751D01*
X81869188Y-135747213D01*
X81880202Y-135745232D01*
X82077366Y-135691293D01*
X82087839Y-135687399D01*
X82272341Y-135599396D01*
X82281970Y-135593701D01*
X82447963Y-135474423D01*
X82456428Y-135467116D01*
X82598684Y-135320320D01*
X82605714Y-135311638D01*
X82719725Y-135141972D01*
X82725117Y-135132163D01*
X82807275Y-134945001D01*
X82810841Y-134934406D01*
X82837200Y-134824615D01*
X82836495Y-134810530D01*
X82827616Y-134807000D01*
X81232115Y-134807000D01*
X81216876Y-134811475D01*
X81215671Y-134812865D01*
X81214000Y-134820548D01*
X81214000Y-135742885D01*
X80706000Y-135742885D01*
X80706000Y-134825115D01*
X80701525Y-134809876D01*
X80700135Y-134808671D01*
X80692452Y-134807000D01*
X79092298Y-134807000D01*
X79078767Y-134810973D01*
X79077696Y-134818421D01*
X75859240Y-134818421D01*
X75858180Y-134810992D01*
X75844615Y-134807000D01*
X74452115Y-134807000D01*
X74436876Y-134811475D01*
X74435671Y-134812865D01*
X74434000Y-134820548D01*
X74434000Y-135642885D01*
X73926000Y-135642885D01*
X73926000Y-134825115D01*
X73921525Y-134809876D01*
X73920135Y-134808671D01*
X73912452Y-134807000D01*
X72519598Y-134807000D01*
X72506067Y-134810973D01*
X72504712Y-134820399D01*
X70850000Y-134820399D01*
X70850000Y-134284716D01*
X72500352Y-134284716D01*
X72501820Y-134295008D01*
X72515385Y-134299000D01*
X73907885Y-134299000D01*
X73923124Y-134294525D01*
X73924329Y-134293135D01*
X73926000Y-134285452D01*
X73926000Y-134280885D01*
X74434000Y-134280885D01*
X74438475Y-134296124D01*
X74439865Y-134297329D01*
X74447548Y-134299000D01*
X75840402Y-134299000D01*
X75853933Y-134295027D01*
X75855288Y-134285601D01*
X75854272Y-134281385D01*
X79082800Y-134281385D01*
X79083505Y-134295470D01*
X79092384Y-134299000D01*
X80687885Y-134299000D01*
X80703124Y-134294525D01*
X80704329Y-134293135D01*
X80706000Y-134285452D01*
X80706000Y-134280885D01*
X81214000Y-134280885D01*
X81218475Y-134296124D01*
X81219865Y-134297329D01*
X81227548Y-134299000D01*
X82827702Y-134299000D01*
X82841233Y-134295027D01*
X82842304Y-134287579D01*
X82784622Y-134100085D01*
X82780401Y-134089740D01*
X82686643Y-133908088D01*
X82680658Y-133898657D01*
X82619935Y-133819522D01*
X98217273Y-133819522D01*
X98264764Y-133996761D01*
X98268510Y-134007053D01*
X98360586Y-134204511D01*
X98366069Y-134214007D01*
X98491028Y-134392467D01*
X98498084Y-134400875D01*
X98652125Y-134554916D01*
X98660533Y-134561972D01*
X98838993Y-134686931D01*
X98848489Y-134692414D01*
X99045947Y-134784490D01*
X99056239Y-134788236D01*
X99266688Y-134844625D01*
X99277481Y-134846528D01*
X99440170Y-134860762D01*
X99445635Y-134861000D01*
X100027885Y-134861000D01*
X100043124Y-134856525D01*
X100044329Y-134855135D01*
X100046000Y-134847452D01*
X100046000Y-134842885D01*
X100554000Y-134842885D01*
X100558475Y-134858124D01*
X100559865Y-134859329D01*
X100567548Y-134861000D01*
X101154365Y-134861000D01*
X101159830Y-134860762D01*
X101322519Y-134846528D01*
X101333312Y-134844625D01*
X101543761Y-134788236D01*
X101554053Y-134784490D01*
X101751511Y-134692414D01*
X101761007Y-134686931D01*
X101939467Y-134561972D01*
X101947875Y-134554916D01*
X102101916Y-134400875D01*
X102108972Y-134392467D01*
X102233931Y-134214007D01*
X102239414Y-134204511D01*
X102331490Y-134007053D01*
X102335236Y-133996761D01*
X102381394Y-133824497D01*
X102381249Y-133818421D01*
X104367465Y-133818421D01*
X104425730Y-134007811D01*
X104429951Y-134018157D01*
X104524119Y-134200604D01*
X104530105Y-134210035D01*
X104655089Y-134372918D01*
X104662651Y-134381141D01*
X104814511Y-134519323D01*
X104823411Y-134526078D01*
X104997328Y-134635177D01*
X105007294Y-134640254D01*
X105197773Y-134716826D01*
X105208488Y-134720061D01*
X105410494Y-134761895D01*
X105419630Y-134763098D01*
X105468140Y-134765895D01*
X105471787Y-134766000D01*
X105987885Y-134766000D01*
X106003124Y-134761525D01*
X106004329Y-134760135D01*
X106006000Y-134752452D01*
X106006000Y-134747885D01*
X106514000Y-134747885D01*
X106518475Y-134763124D01*
X106519865Y-134764329D01*
X106527548Y-134766000D01*
X107017136Y-134766000D01*
X107022731Y-134765751D01*
X107175077Y-134752154D01*
X107186091Y-134750172D01*
X107384111Y-134696001D01*
X107394592Y-134692103D01*
X107579903Y-134603713D01*
X107589517Y-134598028D01*
X107756245Y-134478223D01*
X107764710Y-134470915D01*
X107907579Y-134323484D01*
X107914622Y-134314787D01*
X108029126Y-134144389D01*
X108034512Y-134134592D01*
X108117035Y-133946598D01*
X108120600Y-133936006D01*
X108147342Y-133824616D01*
X108146637Y-133810530D01*
X108137758Y-133807000D01*
X106532115Y-133807000D01*
X106516876Y-133811475D01*
X106515671Y-133812865D01*
X106514000Y-133820548D01*
X106514000Y-134747885D01*
X106006000Y-134747885D01*
X106006000Y-133825115D01*
X106001525Y-133809876D01*
X106000135Y-133808671D01*
X105992452Y-133807000D01*
X104382067Y-133807000D01*
X104368536Y-133810973D01*
X104367465Y-133818421D01*
X102381249Y-133818421D01*
X102381058Y-133810401D01*
X102373116Y-133807000D01*
X100572115Y-133807000D01*
X100556876Y-133811475D01*
X100555671Y-133812865D01*
X100554000Y-133820548D01*
X100554000Y-134842885D01*
X100046000Y-134842885D01*
X100046000Y-133825115D01*
X100041525Y-133809876D01*
X100040135Y-133808671D01*
X100032452Y-133807000D01*
X98232033Y-133807000D01*
X98218502Y-133810973D01*
X98217273Y-133819522D01*
X82619935Y-133819522D01*
X82556215Y-133736480D01*
X82548648Y-133728251D01*
X82397461Y-133590681D01*
X82388550Y-133583918D01*
X82215396Y-133475299D01*
X82205426Y-133470218D01*
X82015768Y-133393976D01*
X82005068Y-133390745D01*
X81803929Y-133349092D01*
X81794793Y-133347889D01*
X81746510Y-133345105D01*
X81742863Y-133345000D01*
X81232115Y-133345000D01*
X81216876Y-133349475D01*
X81215671Y-133350865D01*
X81214000Y-133358548D01*
X81214000Y-134280885D01*
X80706000Y-134280885D01*
X80706000Y-133363115D01*
X80701525Y-133347876D01*
X80700135Y-133346671D01*
X80692452Y-133345000D01*
X80208089Y-133345000D01*
X80202494Y-133345249D01*
X80050812Y-133358787D01*
X80039798Y-133360768D01*
X79842634Y-133414707D01*
X79832161Y-133418601D01*
X79647659Y-133506604D01*
X79638030Y-133512299D01*
X79472037Y-133631577D01*
X79463572Y-133638884D01*
X79321316Y-133785680D01*
X79314286Y-133794362D01*
X79200275Y-133964028D01*
X79194883Y-133973837D01*
X79112725Y-134160999D01*
X79109159Y-134171594D01*
X79082800Y-134281385D01*
X75854272Y-134281385D01*
X75833806Y-134196463D01*
X75829917Y-134185168D01*
X75747371Y-134003618D01*
X75741424Y-133993276D01*
X75626032Y-133830603D01*
X75618239Y-133821575D01*
X75474169Y-133683658D01*
X75464804Y-133676262D01*
X75297259Y-133568079D01*
X75286655Y-133562583D01*
X75101688Y-133488039D01*
X75090230Y-133484645D01*
X74893072Y-133446143D01*
X74884209Y-133445066D01*
X74881500Y-133445000D01*
X74452115Y-133445000D01*
X74436876Y-133449475D01*
X74435671Y-133450865D01*
X74434000Y-133458548D01*
X74434000Y-134280885D01*
X73926000Y-134280885D01*
X73926000Y-133463115D01*
X73921525Y-133447876D01*
X73920135Y-133446671D01*
X73912452Y-133445000D01*
X73530168Y-133445000D01*
X73524192Y-133445285D01*
X73375506Y-133459471D01*
X73363772Y-133461730D01*
X73172401Y-133517872D01*
X73161325Y-133522302D01*
X72984022Y-133613619D01*
X72973976Y-133620069D01*
X72817143Y-133743262D01*
X72808494Y-133751499D01*
X72677788Y-133902123D01*
X72670853Y-133911847D01*
X72570990Y-134084467D01*
X72566016Y-134095331D01*
X72500593Y-134283727D01*
X72500352Y-134284716D01*
X70850000Y-134284716D01*
X70850000Y-133281503D01*
X98218606Y-133281503D01*
X98218942Y-133295599D01*
X98226884Y-133299000D01*
X100027885Y-133299000D01*
X100043124Y-133294525D01*
X100044329Y-133293135D01*
X100046000Y-133285452D01*
X100046000Y-133280885D01*
X100554000Y-133280885D01*
X100558475Y-133296124D01*
X100559865Y-133297329D01*
X100567548Y-133299000D01*
X102367967Y-133299000D01*
X102381498Y-133295027D01*
X102382727Y-133286478D01*
X102381362Y-133281384D01*
X104372658Y-133281384D01*
X104373363Y-133295470D01*
X104382242Y-133299000D01*
X105987885Y-133299000D01*
X106003124Y-133294525D01*
X106004329Y-133293135D01*
X106006000Y-133285452D01*
X106006000Y-133280885D01*
X106514000Y-133280885D01*
X106518475Y-133296124D01*
X106519865Y-133297329D01*
X106527548Y-133299000D01*
X108137933Y-133299000D01*
X108151464Y-133295027D01*
X108152535Y-133287579D01*
X108094270Y-133098189D01*
X108090049Y-133087843D01*
X107995881Y-132905396D01*
X107989895Y-132895965D01*
X107864911Y-132733082D01*
X107857349Y-132724859D01*
X107705489Y-132586677D01*
X107696589Y-132579922D01*
X107522672Y-132470823D01*
X107512706Y-132465746D01*
X107322227Y-132389174D01*
X107311512Y-132385939D01*
X107109506Y-132344105D01*
X107100370Y-132342902D01*
X107051860Y-132340105D01*
X107048213Y-132340000D01*
X106532115Y-132340000D01*
X106516876Y-132344475D01*
X106515671Y-132345865D01*
X106514000Y-132353548D01*
X106514000Y-133280885D01*
X106006000Y-133280885D01*
X106006000Y-132358115D01*
X106001525Y-132342876D01*
X106000135Y-132341671D01*
X105992452Y-132340000D01*
X105502864Y-132340000D01*
X105497269Y-132340249D01*
X105344923Y-132353846D01*
X105333909Y-132355828D01*
X105135889Y-132409999D01*
X105125408Y-132413897D01*
X104940097Y-132502287D01*
X104930483Y-132507972D01*
X104763755Y-132627777D01*
X104755290Y-132635085D01*
X104612421Y-132782516D01*
X104605378Y-132791213D01*
X104490874Y-132961611D01*
X104485488Y-132971408D01*
X104402965Y-133159402D01*
X104399400Y-133169994D01*
X104372658Y-133281384D01*
X102381362Y-133281384D01*
X102335236Y-133109239D01*
X102331490Y-133098947D01*
X102239414Y-132901489D01*
X102233931Y-132891993D01*
X102108972Y-132713533D01*
X102101916Y-132705125D01*
X101947875Y-132551084D01*
X101939467Y-132544028D01*
X101761007Y-132419069D01*
X101751511Y-132413586D01*
X101554053Y-132321510D01*
X101543761Y-132317764D01*
X101333312Y-132261375D01*
X101322519Y-132259472D01*
X101159830Y-132245238D01*
X101154365Y-132245000D01*
X100572115Y-132245000D01*
X100556876Y-132249475D01*
X100555671Y-132250865D01*
X100554000Y-132258548D01*
X100554000Y-133280885D01*
X100046000Y-133280885D01*
X100046000Y-132263115D01*
X100041525Y-132247876D01*
X100040135Y-132246671D01*
X100032452Y-132245000D01*
X99445635Y-132245000D01*
X99440170Y-132245238D01*
X99277481Y-132259472D01*
X99266688Y-132261375D01*
X99056239Y-132317764D01*
X99045947Y-132321510D01*
X98848489Y-132413586D01*
X98838993Y-132419069D01*
X98660533Y-132544028D01*
X98652125Y-132551084D01*
X98498084Y-132705125D01*
X98491028Y-132713533D01*
X98366069Y-132891993D01*
X98360586Y-132901489D01*
X98268510Y-133098947D01*
X98264764Y-133109239D01*
X98218606Y-133281503D01*
X70850000Y-133281503D01*
X70850000Y-126341113D01*
X72067214Y-126341113D01*
X72093130Y-126555277D01*
X72156563Y-126761466D01*
X72255505Y-126953164D01*
X72258920Y-126957614D01*
X72383415Y-127119860D01*
X72383419Y-127119864D01*
X72386831Y-127124311D01*
X72390980Y-127128086D01*
X72542242Y-127265724D01*
X72542245Y-127265726D01*
X72546389Y-127269497D01*
X72551141Y-127272478D01*
X72724379Y-127381151D01*
X72724383Y-127381153D01*
X72729135Y-127384134D01*
X72929293Y-127464597D01*
X73140537Y-127508344D01*
X73145148Y-127508610D01*
X73145149Y-127508610D01*
X73193452Y-127511395D01*
X73193456Y-127511395D01*
X73195275Y-127511500D01*
X73334735Y-127511500D01*
X73337522Y-127511251D01*
X73337528Y-127511251D01*
X73404240Y-127505297D01*
X73494872Y-127497208D01*
X73621740Y-127462501D01*
X73697536Y-127441766D01*
X73697540Y-127441765D01*
X73702952Y-127440284D01*
X73897663Y-127347411D01*
X74072851Y-127221526D01*
X74222977Y-127066608D01*
X74343297Y-126887553D01*
X74430008Y-126690020D01*
X74480368Y-126480255D01*
X74492786Y-126264887D01*
X74466870Y-126050723D01*
X74403437Y-125844534D01*
X74304495Y-125652836D01*
X74253208Y-125585997D01*
X74176585Y-125486140D01*
X74176581Y-125486136D01*
X74173169Y-125481689D01*
X74066331Y-125384474D01*
X74017758Y-125340276D01*
X74017755Y-125340274D01*
X74013611Y-125336503D01*
X74008859Y-125333522D01*
X73835621Y-125224849D01*
X73835617Y-125224847D01*
X73830865Y-125221866D01*
X73630707Y-125141403D01*
X73419463Y-125097656D01*
X73414852Y-125097390D01*
X73414851Y-125097390D01*
X73366548Y-125094605D01*
X73366544Y-125094605D01*
X73364725Y-125094500D01*
X73225265Y-125094500D01*
X73222478Y-125094749D01*
X73222472Y-125094749D01*
X73155760Y-125100703D01*
X73065128Y-125108792D01*
X72950085Y-125140264D01*
X72862464Y-125164234D01*
X72862460Y-125164235D01*
X72857048Y-125165716D01*
X72662337Y-125258589D01*
X72487149Y-125384474D01*
X72337023Y-125539392D01*
X72216703Y-125718447D01*
X72129992Y-125915980D01*
X72079632Y-126125745D01*
X72067214Y-126341113D01*
X70850000Y-126341113D01*
X70850000Y-119319522D01*
X98217273Y-119319522D01*
X98264764Y-119496761D01*
X98268510Y-119507053D01*
X98360586Y-119704511D01*
X98366069Y-119714007D01*
X98491028Y-119892467D01*
X98498084Y-119900875D01*
X98652125Y-120054916D01*
X98660533Y-120061972D01*
X98838993Y-120186931D01*
X98848489Y-120192414D01*
X99045947Y-120284490D01*
X99056239Y-120288236D01*
X99266688Y-120344625D01*
X99277481Y-120346528D01*
X99440170Y-120360762D01*
X99445635Y-120361000D01*
X100027885Y-120361000D01*
X100043124Y-120356525D01*
X100044329Y-120355135D01*
X100046000Y-120347452D01*
X100046000Y-120342885D01*
X100554000Y-120342885D01*
X100558475Y-120358124D01*
X100559865Y-120359329D01*
X100567548Y-120361000D01*
X101154365Y-120361000D01*
X101159830Y-120360762D01*
X101322519Y-120346528D01*
X101333312Y-120344625D01*
X101543761Y-120288236D01*
X101554053Y-120284490D01*
X101751511Y-120192414D01*
X101761007Y-120186931D01*
X101939467Y-120061972D01*
X101947875Y-120054916D01*
X102101916Y-119900875D01*
X102108972Y-119892467D01*
X102233931Y-119714007D01*
X102239414Y-119704511D01*
X102331490Y-119507053D01*
X102335236Y-119496761D01*
X102381394Y-119324497D01*
X102381249Y-119318421D01*
X104367465Y-119318421D01*
X104425730Y-119507811D01*
X104429951Y-119518157D01*
X104524119Y-119700604D01*
X104530105Y-119710035D01*
X104655089Y-119872918D01*
X104662651Y-119881141D01*
X104814511Y-120019323D01*
X104823411Y-120026078D01*
X104997328Y-120135177D01*
X105007294Y-120140254D01*
X105197773Y-120216826D01*
X105208488Y-120220061D01*
X105410494Y-120261895D01*
X105419630Y-120263098D01*
X105468140Y-120265895D01*
X105471787Y-120266000D01*
X105987885Y-120266000D01*
X106003124Y-120261525D01*
X106004329Y-120260135D01*
X106006000Y-120252452D01*
X106006000Y-120247885D01*
X106514000Y-120247885D01*
X106518475Y-120263124D01*
X106519865Y-120264329D01*
X106527548Y-120266000D01*
X107017136Y-120266000D01*
X107022731Y-120265751D01*
X107175077Y-120252154D01*
X107186091Y-120250172D01*
X107384111Y-120196001D01*
X107394592Y-120192103D01*
X107579903Y-120103713D01*
X107589517Y-120098028D01*
X107756245Y-119978223D01*
X107764710Y-119970915D01*
X107907579Y-119823484D01*
X107914622Y-119814787D01*
X108029126Y-119644389D01*
X108034512Y-119634592D01*
X108117035Y-119446598D01*
X108120600Y-119436006D01*
X108147342Y-119324616D01*
X108146637Y-119310530D01*
X108137758Y-119307000D01*
X106532115Y-119307000D01*
X106516876Y-119311475D01*
X106515671Y-119312865D01*
X106514000Y-119320548D01*
X106514000Y-120247885D01*
X106006000Y-120247885D01*
X106006000Y-119325115D01*
X106001525Y-119309876D01*
X106000135Y-119308671D01*
X105992452Y-119307000D01*
X104382067Y-119307000D01*
X104368536Y-119310973D01*
X104367465Y-119318421D01*
X102381249Y-119318421D01*
X102381058Y-119310401D01*
X102373116Y-119307000D01*
X100572115Y-119307000D01*
X100556876Y-119311475D01*
X100555671Y-119312865D01*
X100554000Y-119320548D01*
X100554000Y-120342885D01*
X100046000Y-120342885D01*
X100046000Y-119325115D01*
X100041525Y-119309876D01*
X100040135Y-119308671D01*
X100032452Y-119307000D01*
X98232033Y-119307000D01*
X98218502Y-119310973D01*
X98217273Y-119319522D01*
X70850000Y-119319522D01*
X70850000Y-118320399D01*
X72504712Y-118320399D01*
X72526194Y-118409537D01*
X72530083Y-118420832D01*
X72612629Y-118602382D01*
X72618576Y-118612724D01*
X72733968Y-118775397D01*
X72741761Y-118784425D01*
X72885831Y-118922342D01*
X72895196Y-118929738D01*
X73062741Y-119037921D01*
X73073345Y-119043417D01*
X73258312Y-119117961D01*
X73269770Y-119121355D01*
X73466928Y-119159857D01*
X73475791Y-119160934D01*
X73478500Y-119161000D01*
X73907885Y-119161000D01*
X73923124Y-119156525D01*
X73924329Y-119155135D01*
X73926000Y-119147452D01*
X73926000Y-119142885D01*
X74434000Y-119142885D01*
X74438475Y-119158124D01*
X74439865Y-119159329D01*
X74447548Y-119161000D01*
X74829832Y-119161000D01*
X74835808Y-119160715D01*
X74984494Y-119146529D01*
X74996228Y-119144270D01*
X75187599Y-119088128D01*
X75198675Y-119083698D01*
X75375978Y-118992381D01*
X75386024Y-118985931D01*
X75542857Y-118862738D01*
X75551506Y-118854501D01*
X75682212Y-118703877D01*
X75689147Y-118694153D01*
X75789010Y-118521533D01*
X75793984Y-118510669D01*
X75859407Y-118322273D01*
X75859648Y-118321284D01*
X75859240Y-118318421D01*
X79077696Y-118318421D01*
X79135378Y-118505915D01*
X79139599Y-118516260D01*
X79233357Y-118697912D01*
X79239342Y-118707343D01*
X79363785Y-118869520D01*
X79371352Y-118877749D01*
X79522539Y-119015319D01*
X79531450Y-119022082D01*
X79704604Y-119130701D01*
X79714574Y-119135782D01*
X79904232Y-119212024D01*
X79914932Y-119215255D01*
X80116071Y-119256908D01*
X80125207Y-119258111D01*
X80173490Y-119260895D01*
X80177137Y-119261000D01*
X80687885Y-119261000D01*
X80703124Y-119256525D01*
X80704329Y-119255135D01*
X80706000Y-119247452D01*
X80706000Y-119242885D01*
X81214000Y-119242885D01*
X81218475Y-119258124D01*
X81219865Y-119259329D01*
X81227548Y-119261000D01*
X81711911Y-119261000D01*
X81717506Y-119260751D01*
X81869188Y-119247213D01*
X81880202Y-119245232D01*
X82077366Y-119191293D01*
X82087839Y-119187399D01*
X82272341Y-119099396D01*
X82281970Y-119093701D01*
X82447963Y-118974423D01*
X82456428Y-118967116D01*
X82598684Y-118820320D01*
X82605714Y-118811638D01*
X82625964Y-118781503D01*
X98218606Y-118781503D01*
X98218942Y-118795599D01*
X98226884Y-118799000D01*
X100027885Y-118799000D01*
X100043124Y-118794525D01*
X100044329Y-118793135D01*
X100046000Y-118785452D01*
X100046000Y-118780885D01*
X100554000Y-118780885D01*
X100558475Y-118796124D01*
X100559865Y-118797329D01*
X100567548Y-118799000D01*
X102367967Y-118799000D01*
X102381498Y-118795027D01*
X102382727Y-118786478D01*
X102381362Y-118781384D01*
X104372658Y-118781384D01*
X104373363Y-118795470D01*
X104382242Y-118799000D01*
X105987885Y-118799000D01*
X106003124Y-118794525D01*
X106004329Y-118793135D01*
X106006000Y-118785452D01*
X106006000Y-118780885D01*
X106514000Y-118780885D01*
X106518475Y-118796124D01*
X106519865Y-118797329D01*
X106527548Y-118799000D01*
X108137933Y-118799000D01*
X108151464Y-118795027D01*
X108152535Y-118787579D01*
X108094270Y-118598189D01*
X108090049Y-118587843D01*
X107995881Y-118405396D01*
X107989895Y-118395965D01*
X107864911Y-118233082D01*
X107857349Y-118224859D01*
X107705489Y-118086677D01*
X107696589Y-118079922D01*
X107522672Y-117970823D01*
X107512706Y-117965746D01*
X107322227Y-117889174D01*
X107311512Y-117885939D01*
X107109506Y-117844105D01*
X107100370Y-117842902D01*
X107051860Y-117840105D01*
X107048213Y-117840000D01*
X106532115Y-117840000D01*
X106516876Y-117844475D01*
X106515671Y-117845865D01*
X106514000Y-117853548D01*
X106514000Y-118780885D01*
X106006000Y-118780885D01*
X106006000Y-117858115D01*
X106001525Y-117842876D01*
X106000135Y-117841671D01*
X105992452Y-117840000D01*
X105502864Y-117840000D01*
X105497269Y-117840249D01*
X105344923Y-117853846D01*
X105333909Y-117855828D01*
X105135889Y-117909999D01*
X105125408Y-117913897D01*
X104940097Y-118002287D01*
X104930483Y-118007972D01*
X104763755Y-118127777D01*
X104755290Y-118135085D01*
X104612421Y-118282516D01*
X104605378Y-118291213D01*
X104490874Y-118461611D01*
X104485488Y-118471408D01*
X104402965Y-118659402D01*
X104399400Y-118669994D01*
X104372658Y-118781384D01*
X102381362Y-118781384D01*
X102335236Y-118609239D01*
X102331490Y-118598947D01*
X102239414Y-118401489D01*
X102233931Y-118391993D01*
X102108972Y-118213533D01*
X102101916Y-118205125D01*
X101947875Y-118051084D01*
X101939467Y-118044028D01*
X101761007Y-117919069D01*
X101751511Y-117913586D01*
X101554053Y-117821510D01*
X101543761Y-117817764D01*
X101333312Y-117761375D01*
X101322519Y-117759472D01*
X101159830Y-117745238D01*
X101154365Y-117745000D01*
X100572115Y-117745000D01*
X100556876Y-117749475D01*
X100555671Y-117750865D01*
X100554000Y-117758548D01*
X100554000Y-118780885D01*
X100046000Y-118780885D01*
X100046000Y-117763115D01*
X100041525Y-117747876D01*
X100040135Y-117746671D01*
X100032452Y-117745000D01*
X99445635Y-117745000D01*
X99440170Y-117745238D01*
X99277481Y-117759472D01*
X99266688Y-117761375D01*
X99056239Y-117817764D01*
X99045947Y-117821510D01*
X98848489Y-117913586D01*
X98838993Y-117919069D01*
X98660533Y-118044028D01*
X98652125Y-118051084D01*
X98498084Y-118205125D01*
X98491028Y-118213533D01*
X98366069Y-118391993D01*
X98360586Y-118401489D01*
X98268510Y-118598947D01*
X98264764Y-118609239D01*
X98218606Y-118781503D01*
X82625964Y-118781503D01*
X82719725Y-118641972D01*
X82725117Y-118632163D01*
X82807275Y-118445001D01*
X82810841Y-118434406D01*
X82837200Y-118324615D01*
X82836495Y-118310530D01*
X82827616Y-118307000D01*
X81232115Y-118307000D01*
X81216876Y-118311475D01*
X81215671Y-118312865D01*
X81214000Y-118320548D01*
X81214000Y-119242885D01*
X80706000Y-119242885D01*
X80706000Y-118325115D01*
X80701525Y-118309876D01*
X80700135Y-118308671D01*
X80692452Y-118307000D01*
X79092298Y-118307000D01*
X79078767Y-118310973D01*
X79077696Y-118318421D01*
X75859240Y-118318421D01*
X75858180Y-118310992D01*
X75844615Y-118307000D01*
X74452115Y-118307000D01*
X74436876Y-118311475D01*
X74435671Y-118312865D01*
X74434000Y-118320548D01*
X74434000Y-119142885D01*
X73926000Y-119142885D01*
X73926000Y-118325115D01*
X73921525Y-118309876D01*
X73920135Y-118308671D01*
X73912452Y-118307000D01*
X72519598Y-118307000D01*
X72506067Y-118310973D01*
X72504712Y-118320399D01*
X70850000Y-118320399D01*
X70850000Y-117784716D01*
X72500352Y-117784716D01*
X72501820Y-117795008D01*
X72515385Y-117799000D01*
X73907885Y-117799000D01*
X73923124Y-117794525D01*
X73924329Y-117793135D01*
X73926000Y-117785452D01*
X73926000Y-117780885D01*
X74434000Y-117780885D01*
X74438475Y-117796124D01*
X74439865Y-117797329D01*
X74447548Y-117799000D01*
X75840402Y-117799000D01*
X75853933Y-117795027D01*
X75855288Y-117785601D01*
X75854272Y-117781385D01*
X79082800Y-117781385D01*
X79083505Y-117795470D01*
X79092384Y-117799000D01*
X80687885Y-117799000D01*
X80703124Y-117794525D01*
X80704329Y-117793135D01*
X80706000Y-117785452D01*
X80706000Y-117780885D01*
X81214000Y-117780885D01*
X81218475Y-117796124D01*
X81219865Y-117797329D01*
X81227548Y-117799000D01*
X82827702Y-117799000D01*
X82841233Y-117795027D01*
X82842304Y-117787579D01*
X82784622Y-117600085D01*
X82780401Y-117589740D01*
X82686643Y-117408088D01*
X82680658Y-117398657D01*
X82556215Y-117236480D01*
X82548648Y-117228251D01*
X82397461Y-117090681D01*
X82388550Y-117083918D01*
X82215396Y-116975299D01*
X82205426Y-116970218D01*
X82015768Y-116893976D01*
X82005068Y-116890745D01*
X81803929Y-116849092D01*
X81794793Y-116847889D01*
X81746510Y-116845105D01*
X81742863Y-116845000D01*
X81232115Y-116845000D01*
X81216876Y-116849475D01*
X81215671Y-116850865D01*
X81214000Y-116858548D01*
X81214000Y-117780885D01*
X80706000Y-117780885D01*
X80706000Y-116863115D01*
X80701525Y-116847876D01*
X80700135Y-116846671D01*
X80692452Y-116845000D01*
X80208089Y-116845000D01*
X80202494Y-116845249D01*
X80050812Y-116858787D01*
X80039798Y-116860768D01*
X79842634Y-116914707D01*
X79832161Y-116918601D01*
X79647659Y-117006604D01*
X79638030Y-117012299D01*
X79472037Y-117131577D01*
X79463572Y-117138884D01*
X79321316Y-117285680D01*
X79314286Y-117294362D01*
X79200275Y-117464028D01*
X79194883Y-117473837D01*
X79112725Y-117660999D01*
X79109159Y-117671594D01*
X79082800Y-117781385D01*
X75854272Y-117781385D01*
X75833806Y-117696463D01*
X75829917Y-117685168D01*
X75747371Y-117503618D01*
X75741424Y-117493276D01*
X75626032Y-117330603D01*
X75618239Y-117321575D01*
X75474169Y-117183658D01*
X75464804Y-117176262D01*
X75297259Y-117068079D01*
X75286655Y-117062583D01*
X75101688Y-116988039D01*
X75090230Y-116984645D01*
X74893072Y-116946143D01*
X74884209Y-116945066D01*
X74881500Y-116945000D01*
X74452115Y-116945000D01*
X74436876Y-116949475D01*
X74435671Y-116950865D01*
X74434000Y-116958548D01*
X74434000Y-117780885D01*
X73926000Y-117780885D01*
X73926000Y-116963115D01*
X73921525Y-116947876D01*
X73920135Y-116946671D01*
X73912452Y-116945000D01*
X73530168Y-116945000D01*
X73524192Y-116945285D01*
X73375506Y-116959471D01*
X73363772Y-116961730D01*
X73172401Y-117017872D01*
X73161325Y-117022302D01*
X72984022Y-117113619D01*
X72973976Y-117120069D01*
X72817143Y-117243262D01*
X72808494Y-117251499D01*
X72677788Y-117402123D01*
X72670853Y-117411847D01*
X72570990Y-117584467D01*
X72566016Y-117595331D01*
X72500593Y-117783727D01*
X72500352Y-117784716D01*
X70850000Y-117784716D01*
X70850000Y-112214399D01*
X72504712Y-112214399D01*
X72526194Y-112303537D01*
X72530083Y-112314832D01*
X72612629Y-112496382D01*
X72618576Y-112506724D01*
X72733968Y-112669397D01*
X72741761Y-112678425D01*
X72885831Y-112816342D01*
X72895196Y-112823738D01*
X73062741Y-112931921D01*
X73073345Y-112937417D01*
X73258312Y-113011961D01*
X73269770Y-113015355D01*
X73466928Y-113053857D01*
X73475791Y-113054934D01*
X73478500Y-113055000D01*
X73907885Y-113055000D01*
X73923124Y-113050525D01*
X73924329Y-113049135D01*
X73926000Y-113041452D01*
X73926000Y-113036885D01*
X74434000Y-113036885D01*
X74438475Y-113052124D01*
X74439865Y-113053329D01*
X74447548Y-113055000D01*
X74829832Y-113055000D01*
X74835808Y-113054715D01*
X74984494Y-113040529D01*
X74996228Y-113038270D01*
X75187599Y-112982128D01*
X75198675Y-112977698D01*
X75375978Y-112886381D01*
X75386024Y-112879931D01*
X75542857Y-112756738D01*
X75551506Y-112748501D01*
X75682212Y-112597877D01*
X75689147Y-112588153D01*
X75789010Y-112415533D01*
X75793984Y-112404669D01*
X75859407Y-112216273D01*
X75859648Y-112215284D01*
X75859240Y-112212421D01*
X79077696Y-112212421D01*
X79135378Y-112399915D01*
X79139599Y-112410260D01*
X79233357Y-112591912D01*
X79239342Y-112601343D01*
X79363785Y-112763520D01*
X79371352Y-112771749D01*
X79522539Y-112909319D01*
X79531450Y-112916082D01*
X79704604Y-113024701D01*
X79714574Y-113029782D01*
X79904232Y-113106024D01*
X79914932Y-113109255D01*
X80116071Y-113150908D01*
X80125207Y-113152111D01*
X80173490Y-113154895D01*
X80177137Y-113155000D01*
X80687885Y-113155000D01*
X80703124Y-113150525D01*
X80704329Y-113149135D01*
X80706000Y-113141452D01*
X80706000Y-113136885D01*
X81214000Y-113136885D01*
X81218475Y-113152124D01*
X81219865Y-113153329D01*
X81227548Y-113155000D01*
X81711911Y-113155000D01*
X81717506Y-113154751D01*
X81869188Y-113141213D01*
X81880202Y-113139232D01*
X82077366Y-113085293D01*
X82087839Y-113081399D01*
X82272341Y-112993396D01*
X82281970Y-112987701D01*
X82447963Y-112868423D01*
X82456428Y-112861116D01*
X82598684Y-112714320D01*
X82605714Y-112705638D01*
X82719725Y-112535972D01*
X82725117Y-112526163D01*
X82807275Y-112339001D01*
X82810841Y-112328406D01*
X82837200Y-112218615D01*
X82836495Y-112204530D01*
X82827616Y-112201000D01*
X81232115Y-112201000D01*
X81216876Y-112205475D01*
X81215671Y-112206865D01*
X81214000Y-112214548D01*
X81214000Y-113136885D01*
X80706000Y-113136885D01*
X80706000Y-112219115D01*
X80701525Y-112203876D01*
X80700135Y-112202671D01*
X80692452Y-112201000D01*
X79092298Y-112201000D01*
X79078767Y-112204973D01*
X79077696Y-112212421D01*
X75859240Y-112212421D01*
X75858180Y-112204992D01*
X75844615Y-112201000D01*
X74452115Y-112201000D01*
X74436876Y-112205475D01*
X74435671Y-112206865D01*
X74434000Y-112214548D01*
X74434000Y-113036885D01*
X73926000Y-113036885D01*
X73926000Y-112219115D01*
X73921525Y-112203876D01*
X73920135Y-112202671D01*
X73912452Y-112201000D01*
X72519598Y-112201000D01*
X72506067Y-112204973D01*
X72504712Y-112214399D01*
X70850000Y-112214399D01*
X70850000Y-111678716D01*
X72500352Y-111678716D01*
X72501820Y-111689008D01*
X72515385Y-111693000D01*
X73907885Y-111693000D01*
X73923124Y-111688525D01*
X73924329Y-111687135D01*
X73926000Y-111679452D01*
X73926000Y-111674885D01*
X74434000Y-111674885D01*
X74438475Y-111690124D01*
X74439865Y-111691329D01*
X74447548Y-111693000D01*
X75840402Y-111693000D01*
X75853933Y-111689027D01*
X75855288Y-111679601D01*
X75854272Y-111675385D01*
X79082800Y-111675385D01*
X79083505Y-111689470D01*
X79092384Y-111693000D01*
X80687885Y-111693000D01*
X80703124Y-111688525D01*
X80704329Y-111687135D01*
X80706000Y-111679452D01*
X80706000Y-111674885D01*
X81214000Y-111674885D01*
X81218475Y-111690124D01*
X81219865Y-111691329D01*
X81227548Y-111693000D01*
X82827702Y-111693000D01*
X82841233Y-111689027D01*
X82842304Y-111681579D01*
X82784622Y-111494085D01*
X82780401Y-111483740D01*
X82686643Y-111302088D01*
X82680658Y-111292657D01*
X82619935Y-111213522D01*
X98217273Y-111213522D01*
X98264764Y-111390761D01*
X98268510Y-111401053D01*
X98360586Y-111598511D01*
X98366069Y-111608007D01*
X98491028Y-111786467D01*
X98498084Y-111794875D01*
X98652125Y-111948916D01*
X98660533Y-111955972D01*
X98838993Y-112080931D01*
X98848489Y-112086414D01*
X99045947Y-112178490D01*
X99056239Y-112182236D01*
X99266688Y-112238625D01*
X99277481Y-112240528D01*
X99440170Y-112254762D01*
X99445635Y-112255000D01*
X100027885Y-112255000D01*
X100043124Y-112250525D01*
X100044329Y-112249135D01*
X100046000Y-112241452D01*
X100046000Y-112236885D01*
X100554000Y-112236885D01*
X100558475Y-112252124D01*
X100559865Y-112253329D01*
X100567548Y-112255000D01*
X101154365Y-112255000D01*
X101159830Y-112254762D01*
X101322519Y-112240528D01*
X101333312Y-112238625D01*
X101543761Y-112182236D01*
X101554053Y-112178490D01*
X101751511Y-112086414D01*
X101761007Y-112080931D01*
X101939467Y-111955972D01*
X101947875Y-111948916D01*
X102101916Y-111794875D01*
X102108972Y-111786467D01*
X102233931Y-111608007D01*
X102239414Y-111598511D01*
X102331490Y-111401053D01*
X102335236Y-111390761D01*
X102381394Y-111218497D01*
X102381249Y-111212421D01*
X104367465Y-111212421D01*
X104425730Y-111401811D01*
X104429951Y-111412157D01*
X104524119Y-111594604D01*
X104530105Y-111604035D01*
X104655089Y-111766918D01*
X104662651Y-111775141D01*
X104814511Y-111913323D01*
X104823411Y-111920078D01*
X104997328Y-112029177D01*
X105007294Y-112034254D01*
X105197773Y-112110826D01*
X105208488Y-112114061D01*
X105410494Y-112155895D01*
X105419630Y-112157098D01*
X105468140Y-112159895D01*
X105471787Y-112160000D01*
X105987885Y-112160000D01*
X106003124Y-112155525D01*
X106004329Y-112154135D01*
X106006000Y-112146452D01*
X106006000Y-112141885D01*
X106514000Y-112141885D01*
X106518475Y-112157124D01*
X106519865Y-112158329D01*
X106527548Y-112160000D01*
X107017136Y-112160000D01*
X107022731Y-112159751D01*
X107175077Y-112146154D01*
X107186091Y-112144172D01*
X107384111Y-112090001D01*
X107394592Y-112086103D01*
X107579903Y-111997713D01*
X107589517Y-111992028D01*
X107756245Y-111872223D01*
X107764710Y-111864915D01*
X107907579Y-111717484D01*
X107914622Y-111708787D01*
X108029126Y-111538389D01*
X108034512Y-111528592D01*
X108117035Y-111340598D01*
X108120600Y-111330006D01*
X108147342Y-111218616D01*
X108146637Y-111204530D01*
X108137758Y-111201000D01*
X106532115Y-111201000D01*
X106516876Y-111205475D01*
X106515671Y-111206865D01*
X106514000Y-111214548D01*
X106514000Y-112141885D01*
X106006000Y-112141885D01*
X106006000Y-111219115D01*
X106001525Y-111203876D01*
X106000135Y-111202671D01*
X105992452Y-111201000D01*
X104382067Y-111201000D01*
X104368536Y-111204973D01*
X104367465Y-111212421D01*
X102381249Y-111212421D01*
X102381058Y-111204401D01*
X102373116Y-111201000D01*
X100572115Y-111201000D01*
X100556876Y-111205475D01*
X100555671Y-111206865D01*
X100554000Y-111214548D01*
X100554000Y-112236885D01*
X100046000Y-112236885D01*
X100046000Y-111219115D01*
X100041525Y-111203876D01*
X100040135Y-111202671D01*
X100032452Y-111201000D01*
X98232033Y-111201000D01*
X98218502Y-111204973D01*
X98217273Y-111213522D01*
X82619935Y-111213522D01*
X82556215Y-111130480D01*
X82548648Y-111122251D01*
X82397461Y-110984681D01*
X82388550Y-110977918D01*
X82215396Y-110869299D01*
X82205426Y-110864218D01*
X82015768Y-110787976D01*
X82005068Y-110784745D01*
X81803929Y-110743092D01*
X81794793Y-110741889D01*
X81746510Y-110739105D01*
X81742863Y-110739000D01*
X81232115Y-110739000D01*
X81216876Y-110743475D01*
X81215671Y-110744865D01*
X81214000Y-110752548D01*
X81214000Y-111674885D01*
X80706000Y-111674885D01*
X80706000Y-110757115D01*
X80701525Y-110741876D01*
X80700135Y-110740671D01*
X80692452Y-110739000D01*
X80208089Y-110739000D01*
X80202494Y-110739249D01*
X80050812Y-110752787D01*
X80039798Y-110754768D01*
X79842634Y-110808707D01*
X79832161Y-110812601D01*
X79647659Y-110900604D01*
X79638030Y-110906299D01*
X79472037Y-111025577D01*
X79463572Y-111032884D01*
X79321316Y-111179680D01*
X79314286Y-111188362D01*
X79200275Y-111358028D01*
X79194883Y-111367837D01*
X79112725Y-111554999D01*
X79109159Y-111565594D01*
X79082800Y-111675385D01*
X75854272Y-111675385D01*
X75833806Y-111590463D01*
X75829917Y-111579168D01*
X75747371Y-111397618D01*
X75741424Y-111387276D01*
X75626032Y-111224603D01*
X75618239Y-111215575D01*
X75474169Y-111077658D01*
X75464804Y-111070262D01*
X75297259Y-110962079D01*
X75286655Y-110956583D01*
X75101688Y-110882039D01*
X75090230Y-110878645D01*
X74893072Y-110840143D01*
X74884209Y-110839066D01*
X74881500Y-110839000D01*
X74452115Y-110839000D01*
X74436876Y-110843475D01*
X74435671Y-110844865D01*
X74434000Y-110852548D01*
X74434000Y-111674885D01*
X73926000Y-111674885D01*
X73926000Y-110857115D01*
X73921525Y-110841876D01*
X73920135Y-110840671D01*
X73912452Y-110839000D01*
X73530168Y-110839000D01*
X73524192Y-110839285D01*
X73375506Y-110853471D01*
X73363772Y-110855730D01*
X73172401Y-110911872D01*
X73161325Y-110916302D01*
X72984022Y-111007619D01*
X72973976Y-111014069D01*
X72817143Y-111137262D01*
X72808494Y-111145499D01*
X72677788Y-111296123D01*
X72670853Y-111305847D01*
X72570990Y-111478467D01*
X72566016Y-111489331D01*
X72500593Y-111677727D01*
X72500352Y-111678716D01*
X70850000Y-111678716D01*
X70850000Y-110675503D01*
X98218606Y-110675503D01*
X98218942Y-110689599D01*
X98226884Y-110693000D01*
X100027885Y-110693000D01*
X100043124Y-110688525D01*
X100044329Y-110687135D01*
X100046000Y-110679452D01*
X100046000Y-110674885D01*
X100554000Y-110674885D01*
X100558475Y-110690124D01*
X100559865Y-110691329D01*
X100567548Y-110693000D01*
X102367967Y-110693000D01*
X102381498Y-110689027D01*
X102382727Y-110680478D01*
X102381362Y-110675384D01*
X104372658Y-110675384D01*
X104373363Y-110689470D01*
X104382242Y-110693000D01*
X105987885Y-110693000D01*
X106003124Y-110688525D01*
X106004329Y-110687135D01*
X106006000Y-110679452D01*
X106006000Y-110674885D01*
X106514000Y-110674885D01*
X106518475Y-110690124D01*
X106519865Y-110691329D01*
X106527548Y-110693000D01*
X108137933Y-110693000D01*
X108151464Y-110689027D01*
X108152535Y-110681579D01*
X108094270Y-110492189D01*
X108090049Y-110481843D01*
X107995881Y-110299396D01*
X107989895Y-110289965D01*
X107864911Y-110127082D01*
X107857349Y-110118859D01*
X107705489Y-109980677D01*
X107696589Y-109973922D01*
X107522672Y-109864823D01*
X107512706Y-109859746D01*
X107322227Y-109783174D01*
X107311512Y-109779939D01*
X107109506Y-109738105D01*
X107100370Y-109736902D01*
X107051860Y-109734105D01*
X107048213Y-109734000D01*
X106532115Y-109734000D01*
X106516876Y-109738475D01*
X106515671Y-109739865D01*
X106514000Y-109747548D01*
X106514000Y-110674885D01*
X106006000Y-110674885D01*
X106006000Y-109752115D01*
X106001525Y-109736876D01*
X106000135Y-109735671D01*
X105992452Y-109734000D01*
X105502864Y-109734000D01*
X105497269Y-109734249D01*
X105344923Y-109747846D01*
X105333909Y-109749828D01*
X105135889Y-109803999D01*
X105125408Y-109807897D01*
X104940097Y-109896287D01*
X104930483Y-109901972D01*
X104763755Y-110021777D01*
X104755290Y-110029085D01*
X104612421Y-110176516D01*
X104605378Y-110185213D01*
X104490874Y-110355611D01*
X104485488Y-110365408D01*
X104402965Y-110553402D01*
X104399400Y-110563994D01*
X104372658Y-110675384D01*
X102381362Y-110675384D01*
X102335236Y-110503239D01*
X102331490Y-110492947D01*
X102239414Y-110295489D01*
X102233931Y-110285993D01*
X102108972Y-110107533D01*
X102101916Y-110099125D01*
X101947875Y-109945084D01*
X101939467Y-109938028D01*
X101761007Y-109813069D01*
X101751511Y-109807586D01*
X101554053Y-109715510D01*
X101543761Y-109711764D01*
X101333312Y-109655375D01*
X101322519Y-109653472D01*
X101159830Y-109639238D01*
X101154365Y-109639000D01*
X100572115Y-109639000D01*
X100556876Y-109643475D01*
X100555671Y-109644865D01*
X100554000Y-109652548D01*
X100554000Y-110674885D01*
X100046000Y-110674885D01*
X100046000Y-109657115D01*
X100041525Y-109641876D01*
X100040135Y-109640671D01*
X100032452Y-109639000D01*
X99445635Y-109639000D01*
X99440170Y-109639238D01*
X99277481Y-109653472D01*
X99266688Y-109655375D01*
X99056239Y-109711764D01*
X99045947Y-109715510D01*
X98848489Y-109807586D01*
X98838993Y-109813069D01*
X98660533Y-109938028D01*
X98652125Y-109945084D01*
X98498084Y-110099125D01*
X98491028Y-110107533D01*
X98366069Y-110285993D01*
X98360586Y-110295489D01*
X98268510Y-110492947D01*
X98264764Y-110503239D01*
X98218606Y-110675503D01*
X70850000Y-110675503D01*
X70850000Y-103735113D01*
X72067214Y-103735113D01*
X72093130Y-103949277D01*
X72156563Y-104155466D01*
X72255505Y-104347164D01*
X72258920Y-104351614D01*
X72383415Y-104513860D01*
X72383419Y-104513864D01*
X72386831Y-104518311D01*
X72390980Y-104522086D01*
X72542242Y-104659724D01*
X72542245Y-104659726D01*
X72546389Y-104663497D01*
X72551141Y-104666478D01*
X72724379Y-104775151D01*
X72724383Y-104775153D01*
X72729135Y-104778134D01*
X72929293Y-104858597D01*
X73140537Y-104902344D01*
X73145148Y-104902610D01*
X73145149Y-104902610D01*
X73193452Y-104905395D01*
X73193456Y-104905395D01*
X73195275Y-104905500D01*
X73334735Y-104905500D01*
X73337522Y-104905251D01*
X73337528Y-104905251D01*
X73404240Y-104899297D01*
X73494872Y-104891208D01*
X73621740Y-104856501D01*
X73697536Y-104835766D01*
X73697540Y-104835765D01*
X73702952Y-104834284D01*
X73897663Y-104741411D01*
X74072851Y-104615526D01*
X74222977Y-104460608D01*
X74343297Y-104281553D01*
X74430008Y-104084020D01*
X74480368Y-103874255D01*
X74492786Y-103658887D01*
X74466870Y-103444723D01*
X74403437Y-103238534D01*
X74304495Y-103046836D01*
X74253208Y-102979997D01*
X74176585Y-102880140D01*
X74176581Y-102880136D01*
X74173169Y-102875689D01*
X74066331Y-102778474D01*
X74017758Y-102734276D01*
X74017755Y-102734274D01*
X74013611Y-102730503D01*
X74008859Y-102727522D01*
X73835621Y-102618849D01*
X73835617Y-102618847D01*
X73830865Y-102615866D01*
X73630707Y-102535403D01*
X73419463Y-102491656D01*
X73414852Y-102491390D01*
X73414851Y-102491390D01*
X73366548Y-102488605D01*
X73366544Y-102488605D01*
X73364725Y-102488500D01*
X73225265Y-102488500D01*
X73222478Y-102488749D01*
X73222472Y-102488749D01*
X73155760Y-102494703D01*
X73065128Y-102502792D01*
X72950085Y-102534264D01*
X72862464Y-102558234D01*
X72862460Y-102558235D01*
X72857048Y-102559716D01*
X72662337Y-102652589D01*
X72487149Y-102778474D01*
X72337023Y-102933392D01*
X72216703Y-103112447D01*
X72129992Y-103309980D01*
X72079632Y-103519745D01*
X72067214Y-103735113D01*
X70850000Y-103735113D01*
X70850000Y-96713522D01*
X98217273Y-96713522D01*
X98264764Y-96890761D01*
X98268510Y-96901053D01*
X98360586Y-97098511D01*
X98366069Y-97108007D01*
X98491028Y-97286467D01*
X98498084Y-97294875D01*
X98652125Y-97448916D01*
X98660533Y-97455972D01*
X98838993Y-97580931D01*
X98848489Y-97586414D01*
X99045947Y-97678490D01*
X99056239Y-97682236D01*
X99266688Y-97738625D01*
X99277481Y-97740528D01*
X99440170Y-97754762D01*
X99445635Y-97755000D01*
X100027885Y-97755000D01*
X100043124Y-97750525D01*
X100044329Y-97749135D01*
X100046000Y-97741452D01*
X100046000Y-97736885D01*
X100554000Y-97736885D01*
X100558475Y-97752124D01*
X100559865Y-97753329D01*
X100567548Y-97755000D01*
X101154365Y-97755000D01*
X101159830Y-97754762D01*
X101322519Y-97740528D01*
X101333312Y-97738625D01*
X101543761Y-97682236D01*
X101554053Y-97678490D01*
X101751511Y-97586414D01*
X101761007Y-97580931D01*
X101939467Y-97455972D01*
X101947875Y-97448916D01*
X102101916Y-97294875D01*
X102108972Y-97286467D01*
X102233931Y-97108007D01*
X102239414Y-97098511D01*
X102331490Y-96901053D01*
X102335236Y-96890761D01*
X102381394Y-96718497D01*
X102381249Y-96712421D01*
X104367465Y-96712421D01*
X104425730Y-96901811D01*
X104429951Y-96912157D01*
X104524119Y-97094604D01*
X104530105Y-97104035D01*
X104655089Y-97266918D01*
X104662651Y-97275141D01*
X104814511Y-97413323D01*
X104823411Y-97420078D01*
X104997328Y-97529177D01*
X105007294Y-97534254D01*
X105197773Y-97610826D01*
X105208488Y-97614061D01*
X105410494Y-97655895D01*
X105419630Y-97657098D01*
X105468140Y-97659895D01*
X105471787Y-97660000D01*
X105987885Y-97660000D01*
X106003124Y-97655525D01*
X106004329Y-97654135D01*
X106006000Y-97646452D01*
X106006000Y-97641885D01*
X106514000Y-97641885D01*
X106518475Y-97657124D01*
X106519865Y-97658329D01*
X106527548Y-97660000D01*
X107017136Y-97660000D01*
X107022731Y-97659751D01*
X107175077Y-97646154D01*
X107186091Y-97644172D01*
X107384111Y-97590001D01*
X107394592Y-97586103D01*
X107579903Y-97497713D01*
X107589517Y-97492028D01*
X107756245Y-97372223D01*
X107764710Y-97364915D01*
X107907579Y-97217484D01*
X107914622Y-97208787D01*
X108029126Y-97038389D01*
X108034512Y-97028592D01*
X108117035Y-96840598D01*
X108120600Y-96830006D01*
X108147342Y-96718616D01*
X108146637Y-96704530D01*
X108137758Y-96701000D01*
X106532115Y-96701000D01*
X106516876Y-96705475D01*
X106515671Y-96706865D01*
X106514000Y-96714548D01*
X106514000Y-97641885D01*
X106006000Y-97641885D01*
X106006000Y-96719115D01*
X106001525Y-96703876D01*
X106000135Y-96702671D01*
X105992452Y-96701000D01*
X104382067Y-96701000D01*
X104368536Y-96704973D01*
X104367465Y-96712421D01*
X102381249Y-96712421D01*
X102381058Y-96704401D01*
X102373116Y-96701000D01*
X100572115Y-96701000D01*
X100556876Y-96705475D01*
X100555671Y-96706865D01*
X100554000Y-96714548D01*
X100554000Y-97736885D01*
X100046000Y-97736885D01*
X100046000Y-96719115D01*
X100041525Y-96703876D01*
X100040135Y-96702671D01*
X100032452Y-96701000D01*
X98232033Y-96701000D01*
X98218502Y-96704973D01*
X98217273Y-96713522D01*
X70850000Y-96713522D01*
X70850000Y-95714399D01*
X72504712Y-95714399D01*
X72526194Y-95803537D01*
X72530083Y-95814832D01*
X72612629Y-95996382D01*
X72618576Y-96006724D01*
X72733968Y-96169397D01*
X72741761Y-96178425D01*
X72885831Y-96316342D01*
X72895196Y-96323738D01*
X73062741Y-96431921D01*
X73073345Y-96437417D01*
X73258312Y-96511961D01*
X73269770Y-96515355D01*
X73466928Y-96553857D01*
X73475791Y-96554934D01*
X73478500Y-96555000D01*
X73907885Y-96555000D01*
X73923124Y-96550525D01*
X73924329Y-96549135D01*
X73926000Y-96541452D01*
X73926000Y-96536885D01*
X74434000Y-96536885D01*
X74438475Y-96552124D01*
X74439865Y-96553329D01*
X74447548Y-96555000D01*
X74829832Y-96555000D01*
X74835808Y-96554715D01*
X74984494Y-96540529D01*
X74996228Y-96538270D01*
X75187599Y-96482128D01*
X75198675Y-96477698D01*
X75375978Y-96386381D01*
X75386024Y-96379931D01*
X75542857Y-96256738D01*
X75551506Y-96248501D01*
X75682212Y-96097877D01*
X75689147Y-96088153D01*
X75789010Y-95915533D01*
X75793984Y-95904669D01*
X75859407Y-95716273D01*
X75859648Y-95715284D01*
X75859240Y-95712421D01*
X79077696Y-95712421D01*
X79135378Y-95899915D01*
X79139599Y-95910260D01*
X79233357Y-96091912D01*
X79239342Y-96101343D01*
X79363785Y-96263520D01*
X79371352Y-96271749D01*
X79522539Y-96409319D01*
X79531450Y-96416082D01*
X79704604Y-96524701D01*
X79714574Y-96529782D01*
X79904232Y-96606024D01*
X79914932Y-96609255D01*
X80116071Y-96650908D01*
X80125207Y-96652111D01*
X80173490Y-96654895D01*
X80177137Y-96655000D01*
X80687885Y-96655000D01*
X80703124Y-96650525D01*
X80704329Y-96649135D01*
X80706000Y-96641452D01*
X80706000Y-96636885D01*
X81214000Y-96636885D01*
X81218475Y-96652124D01*
X81219865Y-96653329D01*
X81227548Y-96655000D01*
X81711911Y-96655000D01*
X81717506Y-96654751D01*
X81869188Y-96641213D01*
X81880202Y-96639232D01*
X82077366Y-96585293D01*
X82087839Y-96581399D01*
X82272341Y-96493396D01*
X82281970Y-96487701D01*
X82447963Y-96368423D01*
X82456428Y-96361116D01*
X82598684Y-96214320D01*
X82605714Y-96205638D01*
X82625964Y-96175503D01*
X98218606Y-96175503D01*
X98218942Y-96189599D01*
X98226884Y-96193000D01*
X100027885Y-96193000D01*
X100043124Y-96188525D01*
X100044329Y-96187135D01*
X100046000Y-96179452D01*
X100046000Y-96174885D01*
X100554000Y-96174885D01*
X100558475Y-96190124D01*
X100559865Y-96191329D01*
X100567548Y-96193000D01*
X102367967Y-96193000D01*
X102381498Y-96189027D01*
X102382727Y-96180478D01*
X102381362Y-96175384D01*
X104372658Y-96175384D01*
X104373363Y-96189470D01*
X104382242Y-96193000D01*
X105987885Y-96193000D01*
X106003124Y-96188525D01*
X106004329Y-96187135D01*
X106006000Y-96179452D01*
X106006000Y-96174885D01*
X106514000Y-96174885D01*
X106518475Y-96190124D01*
X106519865Y-96191329D01*
X106527548Y-96193000D01*
X108137933Y-96193000D01*
X108151464Y-96189027D01*
X108152535Y-96181579D01*
X108094270Y-95992189D01*
X108090049Y-95981843D01*
X107995881Y-95799396D01*
X107989895Y-95789965D01*
X107864911Y-95627082D01*
X107857349Y-95618859D01*
X107705489Y-95480677D01*
X107696589Y-95473922D01*
X107522672Y-95364823D01*
X107512706Y-95359746D01*
X107322227Y-95283174D01*
X107311512Y-95279939D01*
X107109506Y-95238105D01*
X107100370Y-95236902D01*
X107051860Y-95234105D01*
X107048213Y-95234000D01*
X106532115Y-95234000D01*
X106516876Y-95238475D01*
X106515671Y-95239865D01*
X106514000Y-95247548D01*
X106514000Y-96174885D01*
X106006000Y-96174885D01*
X106006000Y-95252115D01*
X106001525Y-95236876D01*
X106000135Y-95235671D01*
X105992452Y-95234000D01*
X105502864Y-95234000D01*
X105497269Y-95234249D01*
X105344923Y-95247846D01*
X105333909Y-95249828D01*
X105135889Y-95303999D01*
X105125408Y-95307897D01*
X104940097Y-95396287D01*
X104930483Y-95401972D01*
X104763755Y-95521777D01*
X104755290Y-95529085D01*
X104612421Y-95676516D01*
X104605378Y-95685213D01*
X104490874Y-95855611D01*
X104485488Y-95865408D01*
X104402965Y-96053402D01*
X104399400Y-96063994D01*
X104372658Y-96175384D01*
X102381362Y-96175384D01*
X102335236Y-96003239D01*
X102331490Y-95992947D01*
X102239414Y-95795489D01*
X102233931Y-95785993D01*
X102108972Y-95607533D01*
X102101916Y-95599125D01*
X101947875Y-95445084D01*
X101939467Y-95438028D01*
X101761007Y-95313069D01*
X101751511Y-95307586D01*
X101554053Y-95215510D01*
X101543761Y-95211764D01*
X101333312Y-95155375D01*
X101322519Y-95153472D01*
X101159830Y-95139238D01*
X101154365Y-95139000D01*
X100572115Y-95139000D01*
X100556876Y-95143475D01*
X100555671Y-95144865D01*
X100554000Y-95152548D01*
X100554000Y-96174885D01*
X100046000Y-96174885D01*
X100046000Y-95157115D01*
X100041525Y-95141876D01*
X100040135Y-95140671D01*
X100032452Y-95139000D01*
X99445635Y-95139000D01*
X99440170Y-95139238D01*
X99277481Y-95153472D01*
X99266688Y-95155375D01*
X99056239Y-95211764D01*
X99045947Y-95215510D01*
X98848489Y-95307586D01*
X98838993Y-95313069D01*
X98660533Y-95438028D01*
X98652125Y-95445084D01*
X98498084Y-95599125D01*
X98491028Y-95607533D01*
X98366069Y-95785993D01*
X98360586Y-95795489D01*
X98268510Y-95992947D01*
X98264764Y-96003239D01*
X98218606Y-96175503D01*
X82625964Y-96175503D01*
X82719725Y-96035972D01*
X82725117Y-96026163D01*
X82807275Y-95839001D01*
X82810841Y-95828406D01*
X82837200Y-95718615D01*
X82836495Y-95704530D01*
X82827616Y-95701000D01*
X81232115Y-95701000D01*
X81216876Y-95705475D01*
X81215671Y-95706865D01*
X81214000Y-95714548D01*
X81214000Y-96636885D01*
X80706000Y-96636885D01*
X80706000Y-95719115D01*
X80701525Y-95703876D01*
X80700135Y-95702671D01*
X80692452Y-95701000D01*
X79092298Y-95701000D01*
X79078767Y-95704973D01*
X79077696Y-95712421D01*
X75859240Y-95712421D01*
X75858180Y-95704992D01*
X75844615Y-95701000D01*
X74452115Y-95701000D01*
X74436876Y-95705475D01*
X74435671Y-95706865D01*
X74434000Y-95714548D01*
X74434000Y-96536885D01*
X73926000Y-96536885D01*
X73926000Y-95719115D01*
X73921525Y-95703876D01*
X73920135Y-95702671D01*
X73912452Y-95701000D01*
X72519598Y-95701000D01*
X72506067Y-95704973D01*
X72504712Y-95714399D01*
X70850000Y-95714399D01*
X70850000Y-95178716D01*
X72500352Y-95178716D01*
X72501820Y-95189008D01*
X72515385Y-95193000D01*
X73907885Y-95193000D01*
X73923124Y-95188525D01*
X73924329Y-95187135D01*
X73926000Y-95179452D01*
X73926000Y-95174885D01*
X74434000Y-95174885D01*
X74438475Y-95190124D01*
X74439865Y-95191329D01*
X74447548Y-95193000D01*
X75840402Y-95193000D01*
X75853933Y-95189027D01*
X75855288Y-95179601D01*
X75854272Y-95175385D01*
X79082800Y-95175385D01*
X79083505Y-95189470D01*
X79092384Y-95193000D01*
X80687885Y-95193000D01*
X80703124Y-95188525D01*
X80704329Y-95187135D01*
X80706000Y-95179452D01*
X80706000Y-95174885D01*
X81214000Y-95174885D01*
X81218475Y-95190124D01*
X81219865Y-95191329D01*
X81227548Y-95193000D01*
X82827702Y-95193000D01*
X82841233Y-95189027D01*
X82842304Y-95181579D01*
X82784622Y-94994085D01*
X82780401Y-94983740D01*
X82686643Y-94802088D01*
X82680658Y-94792657D01*
X82556215Y-94630480D01*
X82548648Y-94622251D01*
X82397461Y-94484681D01*
X82388550Y-94477918D01*
X82215396Y-94369299D01*
X82205426Y-94364218D01*
X82015768Y-94287976D01*
X82005068Y-94284745D01*
X81803929Y-94243092D01*
X81794793Y-94241889D01*
X81746510Y-94239105D01*
X81742863Y-94239000D01*
X81232115Y-94239000D01*
X81216876Y-94243475D01*
X81215671Y-94244865D01*
X81214000Y-94252548D01*
X81214000Y-95174885D01*
X80706000Y-95174885D01*
X80706000Y-94257115D01*
X80701525Y-94241876D01*
X80700135Y-94240671D01*
X80692452Y-94239000D01*
X80208089Y-94239000D01*
X80202494Y-94239249D01*
X80050812Y-94252787D01*
X80039798Y-94254768D01*
X79842634Y-94308707D01*
X79832161Y-94312601D01*
X79647659Y-94400604D01*
X79638030Y-94406299D01*
X79472037Y-94525577D01*
X79463572Y-94532884D01*
X79321316Y-94679680D01*
X79314286Y-94688362D01*
X79200275Y-94858028D01*
X79194883Y-94867837D01*
X79112725Y-95054999D01*
X79109159Y-95065594D01*
X79082800Y-95175385D01*
X75854272Y-95175385D01*
X75833806Y-95090463D01*
X75829917Y-95079168D01*
X75747371Y-94897618D01*
X75741424Y-94887276D01*
X75626032Y-94724603D01*
X75618239Y-94715575D01*
X75474169Y-94577658D01*
X75464804Y-94570262D01*
X75297259Y-94462079D01*
X75286655Y-94456583D01*
X75101688Y-94382039D01*
X75090230Y-94378645D01*
X74893072Y-94340143D01*
X74884209Y-94339066D01*
X74881500Y-94339000D01*
X74452115Y-94339000D01*
X74436876Y-94343475D01*
X74435671Y-94344865D01*
X74434000Y-94352548D01*
X74434000Y-95174885D01*
X73926000Y-95174885D01*
X73926000Y-94357115D01*
X73921525Y-94341876D01*
X73920135Y-94340671D01*
X73912452Y-94339000D01*
X73530168Y-94339000D01*
X73524192Y-94339285D01*
X73375506Y-94353471D01*
X73363772Y-94355730D01*
X73172401Y-94411872D01*
X73161325Y-94416302D01*
X72984022Y-94507619D01*
X72973976Y-94514069D01*
X72817143Y-94637262D01*
X72808494Y-94645499D01*
X72677788Y-94796123D01*
X72670853Y-94805847D01*
X72570990Y-94978467D01*
X72566016Y-94989331D01*
X72500593Y-95177727D01*
X72500352Y-95178716D01*
X70850000Y-95178716D01*
X70850000Y-89608399D01*
X72504712Y-89608399D01*
X72526194Y-89697537D01*
X72530083Y-89708832D01*
X72612629Y-89890382D01*
X72618576Y-89900724D01*
X72733968Y-90063397D01*
X72741761Y-90072425D01*
X72885831Y-90210342D01*
X72895196Y-90217738D01*
X73062741Y-90325921D01*
X73073345Y-90331417D01*
X73258312Y-90405961D01*
X73269770Y-90409355D01*
X73466928Y-90447857D01*
X73475791Y-90448934D01*
X73478500Y-90449000D01*
X73907885Y-90449000D01*
X73923124Y-90444525D01*
X73924329Y-90443135D01*
X73926000Y-90435452D01*
X73926000Y-90430885D01*
X74434000Y-90430885D01*
X74438475Y-90446124D01*
X74439865Y-90447329D01*
X74447548Y-90449000D01*
X74829832Y-90449000D01*
X74835808Y-90448715D01*
X74984494Y-90434529D01*
X74996228Y-90432270D01*
X75187599Y-90376128D01*
X75198675Y-90371698D01*
X75375978Y-90280381D01*
X75386024Y-90273931D01*
X75542857Y-90150738D01*
X75551506Y-90142501D01*
X75682212Y-89991877D01*
X75689147Y-89982153D01*
X75789010Y-89809533D01*
X75793984Y-89798669D01*
X75859407Y-89610273D01*
X75859648Y-89609284D01*
X75859240Y-89606421D01*
X79077696Y-89606421D01*
X79135378Y-89793915D01*
X79139599Y-89804260D01*
X79233357Y-89985912D01*
X79239342Y-89995343D01*
X79363785Y-90157520D01*
X79371352Y-90165749D01*
X79522539Y-90303319D01*
X79531450Y-90310082D01*
X79704604Y-90418701D01*
X79714574Y-90423782D01*
X79904232Y-90500024D01*
X79914932Y-90503255D01*
X80116071Y-90544908D01*
X80125207Y-90546111D01*
X80173490Y-90548895D01*
X80177137Y-90549000D01*
X80687885Y-90549000D01*
X80703124Y-90544525D01*
X80704329Y-90543135D01*
X80706000Y-90535452D01*
X80706000Y-90530885D01*
X81214000Y-90530885D01*
X81218475Y-90546124D01*
X81219865Y-90547329D01*
X81227548Y-90549000D01*
X81711911Y-90549000D01*
X81717506Y-90548751D01*
X81869188Y-90535213D01*
X81880202Y-90533232D01*
X82077366Y-90479293D01*
X82087839Y-90475399D01*
X82272341Y-90387396D01*
X82281970Y-90381701D01*
X82447963Y-90262423D01*
X82456428Y-90255116D01*
X82598684Y-90108320D01*
X82605714Y-90099638D01*
X82719725Y-89929972D01*
X82725117Y-89920163D01*
X82807275Y-89733001D01*
X82810841Y-89722406D01*
X82837200Y-89612615D01*
X82836495Y-89598530D01*
X82827616Y-89595000D01*
X81232115Y-89595000D01*
X81216876Y-89599475D01*
X81215671Y-89600865D01*
X81214000Y-89608548D01*
X81214000Y-90530885D01*
X80706000Y-90530885D01*
X80706000Y-89613115D01*
X80701525Y-89597876D01*
X80700135Y-89596671D01*
X80692452Y-89595000D01*
X79092298Y-89595000D01*
X79078767Y-89598973D01*
X79077696Y-89606421D01*
X75859240Y-89606421D01*
X75858180Y-89598992D01*
X75844615Y-89595000D01*
X74452115Y-89595000D01*
X74436876Y-89599475D01*
X74435671Y-89600865D01*
X74434000Y-89608548D01*
X74434000Y-90430885D01*
X73926000Y-90430885D01*
X73926000Y-89613115D01*
X73921525Y-89597876D01*
X73920135Y-89596671D01*
X73912452Y-89595000D01*
X72519598Y-89595000D01*
X72506067Y-89598973D01*
X72504712Y-89608399D01*
X70850000Y-89608399D01*
X70850000Y-89072716D01*
X72500352Y-89072716D01*
X72501820Y-89083008D01*
X72515385Y-89087000D01*
X73907885Y-89087000D01*
X73923124Y-89082525D01*
X73924329Y-89081135D01*
X73926000Y-89073452D01*
X73926000Y-89068885D01*
X74434000Y-89068885D01*
X74438475Y-89084124D01*
X74439865Y-89085329D01*
X74447548Y-89087000D01*
X75840402Y-89087000D01*
X75853933Y-89083027D01*
X75855288Y-89073601D01*
X75854272Y-89069385D01*
X79082800Y-89069385D01*
X79083505Y-89083470D01*
X79092384Y-89087000D01*
X80687885Y-89087000D01*
X80703124Y-89082525D01*
X80704329Y-89081135D01*
X80706000Y-89073452D01*
X80706000Y-89068885D01*
X81214000Y-89068885D01*
X81218475Y-89084124D01*
X81219865Y-89085329D01*
X81227548Y-89087000D01*
X82827702Y-89087000D01*
X82841233Y-89083027D01*
X82842304Y-89075579D01*
X82784622Y-88888085D01*
X82780401Y-88877740D01*
X82686643Y-88696088D01*
X82680658Y-88686657D01*
X82619935Y-88607522D01*
X98217273Y-88607522D01*
X98264764Y-88784761D01*
X98268510Y-88795053D01*
X98360586Y-88992511D01*
X98366069Y-89002007D01*
X98491028Y-89180467D01*
X98498084Y-89188875D01*
X98652125Y-89342916D01*
X98660533Y-89349972D01*
X98838993Y-89474931D01*
X98848489Y-89480414D01*
X99045947Y-89572490D01*
X99056239Y-89576236D01*
X99266688Y-89632625D01*
X99277481Y-89634528D01*
X99440170Y-89648762D01*
X99445635Y-89649000D01*
X100027885Y-89649000D01*
X100043124Y-89644525D01*
X100044329Y-89643135D01*
X100046000Y-89635452D01*
X100046000Y-89630885D01*
X100554000Y-89630885D01*
X100558475Y-89646124D01*
X100559865Y-89647329D01*
X100567548Y-89649000D01*
X101154365Y-89649000D01*
X101159830Y-89648762D01*
X101322519Y-89634528D01*
X101333312Y-89632625D01*
X101543761Y-89576236D01*
X101554053Y-89572490D01*
X101751511Y-89480414D01*
X101761007Y-89474931D01*
X101939467Y-89349972D01*
X101947875Y-89342916D01*
X102101916Y-89188875D01*
X102108972Y-89180467D01*
X102233931Y-89002007D01*
X102239414Y-88992511D01*
X102331490Y-88795053D01*
X102335236Y-88784761D01*
X102381394Y-88612497D01*
X102381249Y-88606421D01*
X104367465Y-88606421D01*
X104425730Y-88795811D01*
X104429951Y-88806157D01*
X104524119Y-88988604D01*
X104530105Y-88998035D01*
X104655089Y-89160918D01*
X104662651Y-89169141D01*
X104814511Y-89307323D01*
X104823411Y-89314078D01*
X104997328Y-89423177D01*
X105007294Y-89428254D01*
X105197773Y-89504826D01*
X105208488Y-89508061D01*
X105410494Y-89549895D01*
X105419630Y-89551098D01*
X105468140Y-89553895D01*
X105471787Y-89554000D01*
X105987885Y-89554000D01*
X106003124Y-89549525D01*
X106004329Y-89548135D01*
X106006000Y-89540452D01*
X106006000Y-89535885D01*
X106514000Y-89535885D01*
X106518475Y-89551124D01*
X106519865Y-89552329D01*
X106527548Y-89554000D01*
X107017136Y-89554000D01*
X107022731Y-89553751D01*
X107175077Y-89540154D01*
X107186091Y-89538172D01*
X107384111Y-89484001D01*
X107394592Y-89480103D01*
X107579903Y-89391713D01*
X107589517Y-89386028D01*
X107756245Y-89266223D01*
X107764710Y-89258915D01*
X107907579Y-89111484D01*
X107914622Y-89102787D01*
X108029126Y-88932389D01*
X108034512Y-88922592D01*
X108117035Y-88734598D01*
X108120600Y-88724006D01*
X108147342Y-88612616D01*
X108146637Y-88598530D01*
X108137758Y-88595000D01*
X106532115Y-88595000D01*
X106516876Y-88599475D01*
X106515671Y-88600865D01*
X106514000Y-88608548D01*
X106514000Y-89535885D01*
X106006000Y-89535885D01*
X106006000Y-88613115D01*
X106001525Y-88597876D01*
X106000135Y-88596671D01*
X105992452Y-88595000D01*
X104382067Y-88595000D01*
X104368536Y-88598973D01*
X104367465Y-88606421D01*
X102381249Y-88606421D01*
X102381058Y-88598401D01*
X102373116Y-88595000D01*
X100572115Y-88595000D01*
X100556876Y-88599475D01*
X100555671Y-88600865D01*
X100554000Y-88608548D01*
X100554000Y-89630885D01*
X100046000Y-89630885D01*
X100046000Y-88613115D01*
X100041525Y-88597876D01*
X100040135Y-88596671D01*
X100032452Y-88595000D01*
X98232033Y-88595000D01*
X98218502Y-88598973D01*
X98217273Y-88607522D01*
X82619935Y-88607522D01*
X82556215Y-88524480D01*
X82548648Y-88516251D01*
X82397461Y-88378681D01*
X82388550Y-88371918D01*
X82215396Y-88263299D01*
X82205426Y-88258218D01*
X82015768Y-88181976D01*
X82005068Y-88178745D01*
X81803929Y-88137092D01*
X81794793Y-88135889D01*
X81746510Y-88133105D01*
X81742863Y-88133000D01*
X81232115Y-88133000D01*
X81216876Y-88137475D01*
X81215671Y-88138865D01*
X81214000Y-88146548D01*
X81214000Y-89068885D01*
X80706000Y-89068885D01*
X80706000Y-88151115D01*
X80701525Y-88135876D01*
X80700135Y-88134671D01*
X80692452Y-88133000D01*
X80208089Y-88133000D01*
X80202494Y-88133249D01*
X80050812Y-88146787D01*
X80039798Y-88148768D01*
X79842634Y-88202707D01*
X79832161Y-88206601D01*
X79647659Y-88294604D01*
X79638030Y-88300299D01*
X79472037Y-88419577D01*
X79463572Y-88426884D01*
X79321316Y-88573680D01*
X79314286Y-88582362D01*
X79200275Y-88752028D01*
X79194883Y-88761837D01*
X79112725Y-88948999D01*
X79109159Y-88959594D01*
X79082800Y-89069385D01*
X75854272Y-89069385D01*
X75833806Y-88984463D01*
X75829917Y-88973168D01*
X75747371Y-88791618D01*
X75741424Y-88781276D01*
X75626032Y-88618603D01*
X75618239Y-88609575D01*
X75474169Y-88471658D01*
X75464804Y-88464262D01*
X75297259Y-88356079D01*
X75286655Y-88350583D01*
X75101688Y-88276039D01*
X75090230Y-88272645D01*
X74893072Y-88234143D01*
X74884209Y-88233066D01*
X74881500Y-88233000D01*
X74452115Y-88233000D01*
X74436876Y-88237475D01*
X74435671Y-88238865D01*
X74434000Y-88246548D01*
X74434000Y-89068885D01*
X73926000Y-89068885D01*
X73926000Y-88251115D01*
X73921525Y-88235876D01*
X73920135Y-88234671D01*
X73912452Y-88233000D01*
X73530168Y-88233000D01*
X73524192Y-88233285D01*
X73375506Y-88247471D01*
X73363772Y-88249730D01*
X73172401Y-88305872D01*
X73161325Y-88310302D01*
X72984022Y-88401619D01*
X72973976Y-88408069D01*
X72817143Y-88531262D01*
X72808494Y-88539499D01*
X72677788Y-88690123D01*
X72670853Y-88699847D01*
X72570990Y-88872467D01*
X72566016Y-88883331D01*
X72500593Y-89071727D01*
X72500352Y-89072716D01*
X70850000Y-89072716D01*
X70850000Y-88069503D01*
X98218606Y-88069503D01*
X98218942Y-88083599D01*
X98226884Y-88087000D01*
X100027885Y-88087000D01*
X100043124Y-88082525D01*
X100044329Y-88081135D01*
X100046000Y-88073452D01*
X100046000Y-88068885D01*
X100554000Y-88068885D01*
X100558475Y-88084124D01*
X100559865Y-88085329D01*
X100567548Y-88087000D01*
X102367967Y-88087000D01*
X102381498Y-88083027D01*
X102382727Y-88074478D01*
X102381362Y-88069384D01*
X104372658Y-88069384D01*
X104373363Y-88083470D01*
X104382242Y-88087000D01*
X105987885Y-88087000D01*
X106003124Y-88082525D01*
X106004329Y-88081135D01*
X106006000Y-88073452D01*
X106006000Y-88068885D01*
X106514000Y-88068885D01*
X106518475Y-88084124D01*
X106519865Y-88085329D01*
X106527548Y-88087000D01*
X108137933Y-88087000D01*
X108151464Y-88083027D01*
X108152535Y-88075579D01*
X108094270Y-87886189D01*
X108090049Y-87875843D01*
X107995881Y-87693396D01*
X107989895Y-87683965D01*
X107864911Y-87521082D01*
X107857349Y-87512859D01*
X107705489Y-87374677D01*
X107696589Y-87367922D01*
X107522672Y-87258823D01*
X107512706Y-87253746D01*
X107322227Y-87177174D01*
X107311512Y-87173939D01*
X107109506Y-87132105D01*
X107100370Y-87130902D01*
X107051860Y-87128105D01*
X107048213Y-87128000D01*
X106532115Y-87128000D01*
X106516876Y-87132475D01*
X106515671Y-87133865D01*
X106514000Y-87141548D01*
X106514000Y-88068885D01*
X106006000Y-88068885D01*
X106006000Y-87146115D01*
X106001525Y-87130876D01*
X106000135Y-87129671D01*
X105992452Y-87128000D01*
X105502864Y-87128000D01*
X105497269Y-87128249D01*
X105344923Y-87141846D01*
X105333909Y-87143828D01*
X105135889Y-87197999D01*
X105125408Y-87201897D01*
X104940097Y-87290287D01*
X104930483Y-87295972D01*
X104763755Y-87415777D01*
X104755290Y-87423085D01*
X104612421Y-87570516D01*
X104605378Y-87579213D01*
X104490874Y-87749611D01*
X104485488Y-87759408D01*
X104402965Y-87947402D01*
X104399400Y-87957994D01*
X104372658Y-88069384D01*
X102381362Y-88069384D01*
X102335236Y-87897239D01*
X102331490Y-87886947D01*
X102239414Y-87689489D01*
X102233931Y-87679993D01*
X102108972Y-87501533D01*
X102101916Y-87493125D01*
X101947875Y-87339084D01*
X101939467Y-87332028D01*
X101761007Y-87207069D01*
X101751511Y-87201586D01*
X101554053Y-87109510D01*
X101543761Y-87105764D01*
X101333312Y-87049375D01*
X101322519Y-87047472D01*
X101159830Y-87033238D01*
X101154365Y-87033000D01*
X100572115Y-87033000D01*
X100556876Y-87037475D01*
X100555671Y-87038865D01*
X100554000Y-87046548D01*
X100554000Y-88068885D01*
X100046000Y-88068885D01*
X100046000Y-87051115D01*
X100041525Y-87035876D01*
X100040135Y-87034671D01*
X100032452Y-87033000D01*
X99445635Y-87033000D01*
X99440170Y-87033238D01*
X99277481Y-87047472D01*
X99266688Y-87049375D01*
X99056239Y-87105764D01*
X99045947Y-87109510D01*
X98848489Y-87201586D01*
X98838993Y-87207069D01*
X98660533Y-87332028D01*
X98652125Y-87339084D01*
X98498084Y-87493125D01*
X98491028Y-87501533D01*
X98366069Y-87679993D01*
X98360586Y-87689489D01*
X98268510Y-87886947D01*
X98264764Y-87897239D01*
X98218606Y-88069503D01*
X70850000Y-88069503D01*
X70850000Y-81129113D01*
X72067214Y-81129113D01*
X72093130Y-81343277D01*
X72156563Y-81549466D01*
X72255505Y-81741164D01*
X72258920Y-81745614D01*
X72383415Y-81907860D01*
X72383419Y-81907864D01*
X72386831Y-81912311D01*
X72390980Y-81916086D01*
X72542242Y-82053724D01*
X72542245Y-82053726D01*
X72546389Y-82057497D01*
X72551141Y-82060478D01*
X72724379Y-82169151D01*
X72724383Y-82169153D01*
X72729135Y-82172134D01*
X72929293Y-82252597D01*
X73140537Y-82296344D01*
X73145148Y-82296610D01*
X73145149Y-82296610D01*
X73193452Y-82299395D01*
X73193456Y-82299395D01*
X73195275Y-82299500D01*
X73334735Y-82299500D01*
X73337522Y-82299251D01*
X73337528Y-82299251D01*
X73404240Y-82293297D01*
X73494872Y-82285208D01*
X73621740Y-82250501D01*
X73697536Y-82229766D01*
X73697540Y-82229765D01*
X73702952Y-82228284D01*
X73897663Y-82135411D01*
X74072851Y-82009526D01*
X74222977Y-81854608D01*
X74343297Y-81675553D01*
X74430008Y-81478020D01*
X74480368Y-81268255D01*
X74492786Y-81052887D01*
X74466870Y-80838723D01*
X74403437Y-80632534D01*
X74304495Y-80440836D01*
X74253208Y-80373997D01*
X74176585Y-80274140D01*
X74176581Y-80274136D01*
X74173169Y-80269689D01*
X74066331Y-80172474D01*
X74017758Y-80128276D01*
X74017755Y-80128274D01*
X74013611Y-80124503D01*
X74008859Y-80121522D01*
X73835621Y-80012849D01*
X73835617Y-80012847D01*
X73830865Y-80009866D01*
X73630707Y-79929403D01*
X73419463Y-79885656D01*
X73414852Y-79885390D01*
X73414851Y-79885390D01*
X73366548Y-79882605D01*
X73366544Y-79882605D01*
X73364725Y-79882500D01*
X73225265Y-79882500D01*
X73222478Y-79882749D01*
X73222472Y-79882749D01*
X73155760Y-79888703D01*
X73065128Y-79896792D01*
X72950085Y-79928264D01*
X72862464Y-79952234D01*
X72862460Y-79952235D01*
X72857048Y-79953716D01*
X72662337Y-80046589D01*
X72487149Y-80172474D01*
X72337023Y-80327392D01*
X72216703Y-80506447D01*
X72129992Y-80703980D01*
X72079632Y-80913745D01*
X72067214Y-81129113D01*
X70850000Y-81129113D01*
X70850000Y-74107522D01*
X98217273Y-74107522D01*
X98264764Y-74284761D01*
X98268510Y-74295053D01*
X98360586Y-74492511D01*
X98366069Y-74502007D01*
X98491028Y-74680467D01*
X98498084Y-74688875D01*
X98652125Y-74842916D01*
X98660533Y-74849972D01*
X98838993Y-74974931D01*
X98848489Y-74980414D01*
X99045947Y-75072490D01*
X99056239Y-75076236D01*
X99266688Y-75132625D01*
X99277481Y-75134528D01*
X99440170Y-75148762D01*
X99445635Y-75149000D01*
X100027885Y-75149000D01*
X100043124Y-75144525D01*
X100044329Y-75143135D01*
X100046000Y-75135452D01*
X100046000Y-75130885D01*
X100554000Y-75130885D01*
X100558475Y-75146124D01*
X100559865Y-75147329D01*
X100567548Y-75149000D01*
X101154365Y-75149000D01*
X101159830Y-75148762D01*
X101322519Y-75134528D01*
X101333312Y-75132625D01*
X101543761Y-75076236D01*
X101554053Y-75072490D01*
X101751511Y-74980414D01*
X101761007Y-74974931D01*
X101939467Y-74849972D01*
X101947875Y-74842916D01*
X102101916Y-74688875D01*
X102108972Y-74680467D01*
X102233931Y-74502007D01*
X102239414Y-74492511D01*
X102331490Y-74295053D01*
X102335236Y-74284761D01*
X102381394Y-74112497D01*
X102381249Y-74106421D01*
X104367465Y-74106421D01*
X104425730Y-74295811D01*
X104429951Y-74306157D01*
X104524119Y-74488604D01*
X104530105Y-74498035D01*
X104655089Y-74660918D01*
X104662651Y-74669141D01*
X104814511Y-74807323D01*
X104823411Y-74814078D01*
X104997328Y-74923177D01*
X105007294Y-74928254D01*
X105197773Y-75004826D01*
X105208488Y-75008061D01*
X105410494Y-75049895D01*
X105419630Y-75051098D01*
X105468140Y-75053895D01*
X105471787Y-75054000D01*
X105987885Y-75054000D01*
X106003124Y-75049525D01*
X106004329Y-75048135D01*
X106006000Y-75040452D01*
X106006000Y-75035885D01*
X106514000Y-75035885D01*
X106518475Y-75051124D01*
X106519865Y-75052329D01*
X106527548Y-75054000D01*
X107017136Y-75054000D01*
X107022731Y-75053751D01*
X107175077Y-75040154D01*
X107186091Y-75038172D01*
X107384111Y-74984001D01*
X107394592Y-74980103D01*
X107579903Y-74891713D01*
X107589517Y-74886028D01*
X107756245Y-74766223D01*
X107764710Y-74758915D01*
X107907579Y-74611484D01*
X107914622Y-74602787D01*
X108029126Y-74432389D01*
X108034512Y-74422592D01*
X108117035Y-74234598D01*
X108120600Y-74224006D01*
X108147342Y-74112616D01*
X108146637Y-74098530D01*
X108137758Y-74095000D01*
X106532115Y-74095000D01*
X106516876Y-74099475D01*
X106515671Y-74100865D01*
X106514000Y-74108548D01*
X106514000Y-75035885D01*
X106006000Y-75035885D01*
X106006000Y-74113115D01*
X106001525Y-74097876D01*
X106000135Y-74096671D01*
X105992452Y-74095000D01*
X104382067Y-74095000D01*
X104368536Y-74098973D01*
X104367465Y-74106421D01*
X102381249Y-74106421D01*
X102381058Y-74098401D01*
X102373116Y-74095000D01*
X100572115Y-74095000D01*
X100556876Y-74099475D01*
X100555671Y-74100865D01*
X100554000Y-74108548D01*
X100554000Y-75130885D01*
X100046000Y-75130885D01*
X100046000Y-74113115D01*
X100041525Y-74097876D01*
X100040135Y-74096671D01*
X100032452Y-74095000D01*
X98232033Y-74095000D01*
X98218502Y-74098973D01*
X98217273Y-74107522D01*
X70850000Y-74107522D01*
X70850000Y-73108399D01*
X72504712Y-73108399D01*
X72526194Y-73197537D01*
X72530083Y-73208832D01*
X72612629Y-73390382D01*
X72618576Y-73400724D01*
X72733968Y-73563397D01*
X72741761Y-73572425D01*
X72885831Y-73710342D01*
X72895196Y-73717738D01*
X73062741Y-73825921D01*
X73073345Y-73831417D01*
X73258312Y-73905961D01*
X73269770Y-73909355D01*
X73466928Y-73947857D01*
X73475791Y-73948934D01*
X73478500Y-73949000D01*
X73907885Y-73949000D01*
X73923124Y-73944525D01*
X73924329Y-73943135D01*
X73926000Y-73935452D01*
X73926000Y-73930885D01*
X74434000Y-73930885D01*
X74438475Y-73946124D01*
X74439865Y-73947329D01*
X74447548Y-73949000D01*
X74829832Y-73949000D01*
X74835808Y-73948715D01*
X74984494Y-73934529D01*
X74996228Y-73932270D01*
X75187599Y-73876128D01*
X75198675Y-73871698D01*
X75375978Y-73780381D01*
X75386024Y-73773931D01*
X75542857Y-73650738D01*
X75551506Y-73642501D01*
X75682212Y-73491877D01*
X75689147Y-73482153D01*
X75789010Y-73309533D01*
X75793984Y-73298669D01*
X75859407Y-73110273D01*
X75859648Y-73109284D01*
X75859240Y-73106421D01*
X79077696Y-73106421D01*
X79135378Y-73293915D01*
X79139599Y-73304260D01*
X79233357Y-73485912D01*
X79239342Y-73495343D01*
X79363785Y-73657520D01*
X79371352Y-73665749D01*
X79522539Y-73803319D01*
X79531450Y-73810082D01*
X79704604Y-73918701D01*
X79714574Y-73923782D01*
X79904232Y-74000024D01*
X79914932Y-74003255D01*
X80116071Y-74044908D01*
X80125207Y-74046111D01*
X80173490Y-74048895D01*
X80177137Y-74049000D01*
X80687885Y-74049000D01*
X80703124Y-74044525D01*
X80704329Y-74043135D01*
X80706000Y-74035452D01*
X80706000Y-74030885D01*
X81214000Y-74030885D01*
X81218475Y-74046124D01*
X81219865Y-74047329D01*
X81227548Y-74049000D01*
X81711911Y-74049000D01*
X81717506Y-74048751D01*
X81869188Y-74035213D01*
X81880202Y-74033232D01*
X82077366Y-73979293D01*
X82087839Y-73975399D01*
X82272341Y-73887396D01*
X82281970Y-73881701D01*
X82447963Y-73762423D01*
X82456428Y-73755116D01*
X82598684Y-73608320D01*
X82605714Y-73599638D01*
X82625964Y-73569503D01*
X98218606Y-73569503D01*
X98218942Y-73583599D01*
X98226884Y-73587000D01*
X100027885Y-73587000D01*
X100043124Y-73582525D01*
X100044329Y-73581135D01*
X100046000Y-73573452D01*
X100046000Y-73568885D01*
X100554000Y-73568885D01*
X100558475Y-73584124D01*
X100559865Y-73585329D01*
X100567548Y-73587000D01*
X102367967Y-73587000D01*
X102381498Y-73583027D01*
X102382727Y-73574478D01*
X102381362Y-73569384D01*
X104372658Y-73569384D01*
X104373363Y-73583470D01*
X104382242Y-73587000D01*
X105987885Y-73587000D01*
X106003124Y-73582525D01*
X106004329Y-73581135D01*
X106006000Y-73573452D01*
X106006000Y-73568885D01*
X106514000Y-73568885D01*
X106518475Y-73584124D01*
X106519865Y-73585329D01*
X106527548Y-73587000D01*
X108137933Y-73587000D01*
X108151464Y-73583027D01*
X108152535Y-73575579D01*
X108094270Y-73386189D01*
X108090049Y-73375843D01*
X107995881Y-73193396D01*
X107989895Y-73183965D01*
X107864911Y-73021082D01*
X107857349Y-73012859D01*
X107705489Y-72874677D01*
X107696589Y-72867922D01*
X107522672Y-72758823D01*
X107512706Y-72753746D01*
X107322227Y-72677174D01*
X107311512Y-72673939D01*
X107109506Y-72632105D01*
X107100370Y-72630902D01*
X107051860Y-72628105D01*
X107048213Y-72628000D01*
X106532115Y-72628000D01*
X106516876Y-72632475D01*
X106515671Y-72633865D01*
X106514000Y-72641548D01*
X106514000Y-73568885D01*
X106006000Y-73568885D01*
X106006000Y-72646115D01*
X106001525Y-72630876D01*
X106000135Y-72629671D01*
X105992452Y-72628000D01*
X105502864Y-72628000D01*
X105497269Y-72628249D01*
X105344923Y-72641846D01*
X105333909Y-72643828D01*
X105135889Y-72697999D01*
X105125408Y-72701897D01*
X104940097Y-72790287D01*
X104930483Y-72795972D01*
X104763755Y-72915777D01*
X104755290Y-72923085D01*
X104612421Y-73070516D01*
X104605378Y-73079213D01*
X104490874Y-73249611D01*
X104485488Y-73259408D01*
X104402965Y-73447402D01*
X104399400Y-73457994D01*
X104372658Y-73569384D01*
X102381362Y-73569384D01*
X102335236Y-73397239D01*
X102331490Y-73386947D01*
X102239414Y-73189489D01*
X102233931Y-73179993D01*
X102108972Y-73001533D01*
X102101916Y-72993125D01*
X101947875Y-72839084D01*
X101939467Y-72832028D01*
X101761007Y-72707069D01*
X101751511Y-72701586D01*
X101554053Y-72609510D01*
X101543761Y-72605764D01*
X101333312Y-72549375D01*
X101322519Y-72547472D01*
X101159830Y-72533238D01*
X101154365Y-72533000D01*
X100572115Y-72533000D01*
X100556876Y-72537475D01*
X100555671Y-72538865D01*
X100554000Y-72546548D01*
X100554000Y-73568885D01*
X100046000Y-73568885D01*
X100046000Y-72551115D01*
X100041525Y-72535876D01*
X100040135Y-72534671D01*
X100032452Y-72533000D01*
X99445635Y-72533000D01*
X99440170Y-72533238D01*
X99277481Y-72547472D01*
X99266688Y-72549375D01*
X99056239Y-72605764D01*
X99045947Y-72609510D01*
X98848489Y-72701586D01*
X98838993Y-72707069D01*
X98660533Y-72832028D01*
X98652125Y-72839084D01*
X98498084Y-72993125D01*
X98491028Y-73001533D01*
X98366069Y-73179993D01*
X98360586Y-73189489D01*
X98268510Y-73386947D01*
X98264764Y-73397239D01*
X98218606Y-73569503D01*
X82625964Y-73569503D01*
X82719725Y-73429972D01*
X82725117Y-73420163D01*
X82807275Y-73233001D01*
X82810841Y-73222406D01*
X82837200Y-73112615D01*
X82836495Y-73098530D01*
X82827616Y-73095000D01*
X81232115Y-73095000D01*
X81216876Y-73099475D01*
X81215671Y-73100865D01*
X81214000Y-73108548D01*
X81214000Y-74030885D01*
X80706000Y-74030885D01*
X80706000Y-73113115D01*
X80701525Y-73097876D01*
X80700135Y-73096671D01*
X80692452Y-73095000D01*
X79092298Y-73095000D01*
X79078767Y-73098973D01*
X79077696Y-73106421D01*
X75859240Y-73106421D01*
X75858180Y-73098992D01*
X75844615Y-73095000D01*
X74452115Y-73095000D01*
X74436876Y-73099475D01*
X74435671Y-73100865D01*
X74434000Y-73108548D01*
X74434000Y-73930885D01*
X73926000Y-73930885D01*
X73926000Y-73113115D01*
X73921525Y-73097876D01*
X73920135Y-73096671D01*
X73912452Y-73095000D01*
X72519598Y-73095000D01*
X72506067Y-73098973D01*
X72504712Y-73108399D01*
X70850000Y-73108399D01*
X70850000Y-72572716D01*
X72500352Y-72572716D01*
X72501820Y-72583008D01*
X72515385Y-72587000D01*
X73907885Y-72587000D01*
X73923124Y-72582525D01*
X73924329Y-72581135D01*
X73926000Y-72573452D01*
X73926000Y-72568885D01*
X74434000Y-72568885D01*
X74438475Y-72584124D01*
X74439865Y-72585329D01*
X74447548Y-72587000D01*
X75840402Y-72587000D01*
X75853933Y-72583027D01*
X75855288Y-72573601D01*
X75854272Y-72569385D01*
X79082800Y-72569385D01*
X79083505Y-72583470D01*
X79092384Y-72587000D01*
X80687885Y-72587000D01*
X80703124Y-72582525D01*
X80704329Y-72581135D01*
X80706000Y-72573452D01*
X80706000Y-72568885D01*
X81214000Y-72568885D01*
X81218475Y-72584124D01*
X81219865Y-72585329D01*
X81227548Y-72587000D01*
X82827702Y-72587000D01*
X82841233Y-72583027D01*
X82842304Y-72575579D01*
X82784622Y-72388085D01*
X82780401Y-72377740D01*
X82686643Y-72196088D01*
X82680658Y-72186657D01*
X82556215Y-72024480D01*
X82548648Y-72016251D01*
X82397461Y-71878681D01*
X82388550Y-71871918D01*
X82215396Y-71763299D01*
X82205426Y-71758218D01*
X82015768Y-71681976D01*
X82005068Y-71678745D01*
X81803929Y-71637092D01*
X81794793Y-71635889D01*
X81746510Y-71633105D01*
X81742863Y-71633000D01*
X81232115Y-71633000D01*
X81216876Y-71637475D01*
X81215671Y-71638865D01*
X81214000Y-71646548D01*
X81214000Y-72568885D01*
X80706000Y-72568885D01*
X80706000Y-71651115D01*
X80701525Y-71635876D01*
X80700135Y-71634671D01*
X80692452Y-71633000D01*
X80208089Y-71633000D01*
X80202494Y-71633249D01*
X80050812Y-71646787D01*
X80039798Y-71648768D01*
X79842634Y-71702707D01*
X79832161Y-71706601D01*
X79647659Y-71794604D01*
X79638030Y-71800299D01*
X79472037Y-71919577D01*
X79463572Y-71926884D01*
X79321316Y-72073680D01*
X79314286Y-72082362D01*
X79200275Y-72252028D01*
X79194883Y-72261837D01*
X79112725Y-72448999D01*
X79109159Y-72459594D01*
X79082800Y-72569385D01*
X75854272Y-72569385D01*
X75833806Y-72484463D01*
X75829917Y-72473168D01*
X75747371Y-72291618D01*
X75741424Y-72281276D01*
X75626032Y-72118603D01*
X75618239Y-72109575D01*
X75474169Y-71971658D01*
X75464804Y-71964262D01*
X75297259Y-71856079D01*
X75286655Y-71850583D01*
X75101688Y-71776039D01*
X75090230Y-71772645D01*
X74893072Y-71734143D01*
X74884209Y-71733066D01*
X74881500Y-71733000D01*
X74452115Y-71733000D01*
X74436876Y-71737475D01*
X74435671Y-71738865D01*
X74434000Y-71746548D01*
X74434000Y-72568885D01*
X73926000Y-72568885D01*
X73926000Y-71751115D01*
X73921525Y-71735876D01*
X73920135Y-71734671D01*
X73912452Y-71733000D01*
X73530168Y-71733000D01*
X73524192Y-71733285D01*
X73375506Y-71747471D01*
X73363772Y-71749730D01*
X73172401Y-71805872D01*
X73161325Y-71810302D01*
X72984022Y-71901619D01*
X72973976Y-71908069D01*
X72817143Y-72031262D01*
X72808494Y-72039499D01*
X72677788Y-72190123D01*
X72670853Y-72199847D01*
X72570990Y-72372467D01*
X72566016Y-72383331D01*
X72500593Y-72571727D01*
X72500352Y-72572716D01*
X70850000Y-72572716D01*
X70850000Y-67002399D01*
X72504712Y-67002399D01*
X72526194Y-67091537D01*
X72530083Y-67102832D01*
X72612629Y-67284382D01*
X72618576Y-67294724D01*
X72733968Y-67457397D01*
X72741761Y-67466425D01*
X72885831Y-67604342D01*
X72895196Y-67611738D01*
X73062741Y-67719921D01*
X73073345Y-67725417D01*
X73258312Y-67799961D01*
X73269770Y-67803355D01*
X73466928Y-67841857D01*
X73475791Y-67842934D01*
X73478500Y-67843000D01*
X73907885Y-67843000D01*
X73923124Y-67838525D01*
X73924329Y-67837135D01*
X73926000Y-67829452D01*
X73926000Y-67824885D01*
X74434000Y-67824885D01*
X74438475Y-67840124D01*
X74439865Y-67841329D01*
X74447548Y-67843000D01*
X74829832Y-67843000D01*
X74835808Y-67842715D01*
X74984494Y-67828529D01*
X74996228Y-67826270D01*
X75187599Y-67770128D01*
X75198675Y-67765698D01*
X75375978Y-67674381D01*
X75386024Y-67667931D01*
X75542857Y-67544738D01*
X75551506Y-67536501D01*
X75682212Y-67385877D01*
X75689147Y-67376153D01*
X75789010Y-67203533D01*
X75793984Y-67192669D01*
X75859407Y-67004273D01*
X75859648Y-67003284D01*
X75859240Y-67000421D01*
X79077696Y-67000421D01*
X79135378Y-67187915D01*
X79139599Y-67198260D01*
X79233357Y-67379912D01*
X79239342Y-67389343D01*
X79363785Y-67551520D01*
X79371352Y-67559749D01*
X79522539Y-67697319D01*
X79531450Y-67704082D01*
X79704604Y-67812701D01*
X79714574Y-67817782D01*
X79904232Y-67894024D01*
X79914932Y-67897255D01*
X80116071Y-67938908D01*
X80125207Y-67940111D01*
X80173490Y-67942895D01*
X80177137Y-67943000D01*
X80687885Y-67943000D01*
X80703124Y-67938525D01*
X80704329Y-67937135D01*
X80706000Y-67929452D01*
X80706000Y-67924885D01*
X81214000Y-67924885D01*
X81218475Y-67940124D01*
X81219865Y-67941329D01*
X81227548Y-67943000D01*
X81711911Y-67943000D01*
X81717506Y-67942751D01*
X81869188Y-67929213D01*
X81880202Y-67927232D01*
X82077366Y-67873293D01*
X82087839Y-67869399D01*
X82272341Y-67781396D01*
X82281970Y-67775701D01*
X82447963Y-67656423D01*
X82456428Y-67649116D01*
X82598684Y-67502320D01*
X82605714Y-67493638D01*
X82719725Y-67323972D01*
X82725117Y-67314163D01*
X82807275Y-67127001D01*
X82810841Y-67116406D01*
X82837200Y-67006615D01*
X82836495Y-66992530D01*
X82827616Y-66989000D01*
X81232115Y-66989000D01*
X81216876Y-66993475D01*
X81215671Y-66994865D01*
X81214000Y-67002548D01*
X81214000Y-67924885D01*
X80706000Y-67924885D01*
X80706000Y-67007115D01*
X80701525Y-66991876D01*
X80700135Y-66990671D01*
X80692452Y-66989000D01*
X79092298Y-66989000D01*
X79078767Y-66992973D01*
X79077696Y-67000421D01*
X75859240Y-67000421D01*
X75858180Y-66992992D01*
X75844615Y-66989000D01*
X74452115Y-66989000D01*
X74436876Y-66993475D01*
X74435671Y-66994865D01*
X74434000Y-67002548D01*
X74434000Y-67824885D01*
X73926000Y-67824885D01*
X73926000Y-67007115D01*
X73921525Y-66991876D01*
X73920135Y-66990671D01*
X73912452Y-66989000D01*
X72519598Y-66989000D01*
X72506067Y-66992973D01*
X72504712Y-67002399D01*
X70850000Y-67002399D01*
X70850000Y-66466716D01*
X72500352Y-66466716D01*
X72501820Y-66477008D01*
X72515385Y-66481000D01*
X73907885Y-66481000D01*
X73923124Y-66476525D01*
X73924329Y-66475135D01*
X73926000Y-66467452D01*
X73926000Y-66462885D01*
X74434000Y-66462885D01*
X74438475Y-66478124D01*
X74439865Y-66479329D01*
X74447548Y-66481000D01*
X75840402Y-66481000D01*
X75853933Y-66477027D01*
X75855288Y-66467601D01*
X75854272Y-66463385D01*
X79082800Y-66463385D01*
X79083505Y-66477470D01*
X79092384Y-66481000D01*
X80687885Y-66481000D01*
X80703124Y-66476525D01*
X80704329Y-66475135D01*
X80706000Y-66467452D01*
X80706000Y-66462885D01*
X81214000Y-66462885D01*
X81218475Y-66478124D01*
X81219865Y-66479329D01*
X81227548Y-66481000D01*
X82827702Y-66481000D01*
X82841233Y-66477027D01*
X82842304Y-66469579D01*
X82784622Y-66282085D01*
X82780401Y-66271740D01*
X82686643Y-66090088D01*
X82680658Y-66080657D01*
X82619935Y-66001522D01*
X98217273Y-66001522D01*
X98264764Y-66178761D01*
X98268510Y-66189053D01*
X98360586Y-66386511D01*
X98366069Y-66396007D01*
X98491028Y-66574467D01*
X98498084Y-66582875D01*
X98652125Y-66736916D01*
X98660533Y-66743972D01*
X98838993Y-66868931D01*
X98848489Y-66874414D01*
X99045947Y-66966490D01*
X99056239Y-66970236D01*
X99266688Y-67026625D01*
X99277481Y-67028528D01*
X99440170Y-67042762D01*
X99445635Y-67043000D01*
X100027885Y-67043000D01*
X100043124Y-67038525D01*
X100044329Y-67037135D01*
X100046000Y-67029452D01*
X100046000Y-67024885D01*
X100554000Y-67024885D01*
X100558475Y-67040124D01*
X100559865Y-67041329D01*
X100567548Y-67043000D01*
X101154365Y-67043000D01*
X101159830Y-67042762D01*
X101322519Y-67028528D01*
X101333312Y-67026625D01*
X101543761Y-66970236D01*
X101554053Y-66966490D01*
X101751511Y-66874414D01*
X101761007Y-66868931D01*
X101939467Y-66743972D01*
X101947875Y-66736916D01*
X102101916Y-66582875D01*
X102108972Y-66574467D01*
X102233931Y-66396007D01*
X102239414Y-66386511D01*
X102331490Y-66189053D01*
X102335236Y-66178761D01*
X102381394Y-66006497D01*
X102381249Y-66000421D01*
X104367465Y-66000421D01*
X104425730Y-66189811D01*
X104429951Y-66200157D01*
X104524119Y-66382604D01*
X104530105Y-66392035D01*
X104655089Y-66554918D01*
X104662651Y-66563141D01*
X104814511Y-66701323D01*
X104823411Y-66708078D01*
X104997328Y-66817177D01*
X105007294Y-66822254D01*
X105197773Y-66898826D01*
X105208488Y-66902061D01*
X105410494Y-66943895D01*
X105419630Y-66945098D01*
X105468140Y-66947895D01*
X105471787Y-66948000D01*
X105987885Y-66948000D01*
X106003124Y-66943525D01*
X106004329Y-66942135D01*
X106006000Y-66934452D01*
X106006000Y-66929885D01*
X106514000Y-66929885D01*
X106518475Y-66945124D01*
X106519865Y-66946329D01*
X106527548Y-66948000D01*
X107017136Y-66948000D01*
X107022731Y-66947751D01*
X107175077Y-66934154D01*
X107186091Y-66932172D01*
X107384111Y-66878001D01*
X107394592Y-66874103D01*
X107579903Y-66785713D01*
X107589517Y-66780028D01*
X107756245Y-66660223D01*
X107764710Y-66652915D01*
X107907579Y-66505484D01*
X107914622Y-66496787D01*
X108029126Y-66326389D01*
X108034512Y-66316592D01*
X108117035Y-66128598D01*
X108120600Y-66118006D01*
X108147342Y-66006616D01*
X108146637Y-65992530D01*
X108137758Y-65989000D01*
X106532115Y-65989000D01*
X106516876Y-65993475D01*
X106515671Y-65994865D01*
X106514000Y-66002548D01*
X106514000Y-66929885D01*
X106006000Y-66929885D01*
X106006000Y-66007115D01*
X106001525Y-65991876D01*
X106000135Y-65990671D01*
X105992452Y-65989000D01*
X104382067Y-65989000D01*
X104368536Y-65992973D01*
X104367465Y-66000421D01*
X102381249Y-66000421D01*
X102381058Y-65992401D01*
X102373116Y-65989000D01*
X100572115Y-65989000D01*
X100556876Y-65993475D01*
X100555671Y-65994865D01*
X100554000Y-66002548D01*
X100554000Y-67024885D01*
X100046000Y-67024885D01*
X100046000Y-66007115D01*
X100041525Y-65991876D01*
X100040135Y-65990671D01*
X100032452Y-65989000D01*
X98232033Y-65989000D01*
X98218502Y-65992973D01*
X98217273Y-66001522D01*
X82619935Y-66001522D01*
X82556215Y-65918480D01*
X82548648Y-65910251D01*
X82397461Y-65772681D01*
X82388550Y-65765918D01*
X82215396Y-65657299D01*
X82205426Y-65652218D01*
X82015768Y-65575976D01*
X82005068Y-65572745D01*
X81803929Y-65531092D01*
X81794793Y-65529889D01*
X81746510Y-65527105D01*
X81742863Y-65527000D01*
X81232115Y-65527000D01*
X81216876Y-65531475D01*
X81215671Y-65532865D01*
X81214000Y-65540548D01*
X81214000Y-66462885D01*
X80706000Y-66462885D01*
X80706000Y-65545115D01*
X80701525Y-65529876D01*
X80700135Y-65528671D01*
X80692452Y-65527000D01*
X80208089Y-65527000D01*
X80202494Y-65527249D01*
X80050812Y-65540787D01*
X80039798Y-65542768D01*
X79842634Y-65596707D01*
X79832161Y-65600601D01*
X79647659Y-65688604D01*
X79638030Y-65694299D01*
X79472037Y-65813577D01*
X79463572Y-65820884D01*
X79321316Y-65967680D01*
X79314286Y-65976362D01*
X79200275Y-66146028D01*
X79194883Y-66155837D01*
X79112725Y-66342999D01*
X79109159Y-66353594D01*
X79082800Y-66463385D01*
X75854272Y-66463385D01*
X75833806Y-66378463D01*
X75829917Y-66367168D01*
X75747371Y-66185618D01*
X75741424Y-66175276D01*
X75626032Y-66012603D01*
X75618239Y-66003575D01*
X75474169Y-65865658D01*
X75464804Y-65858262D01*
X75297259Y-65750079D01*
X75286655Y-65744583D01*
X75101688Y-65670039D01*
X75090230Y-65666645D01*
X74893072Y-65628143D01*
X74884209Y-65627066D01*
X74881500Y-65627000D01*
X74452115Y-65627000D01*
X74436876Y-65631475D01*
X74435671Y-65632865D01*
X74434000Y-65640548D01*
X74434000Y-66462885D01*
X73926000Y-66462885D01*
X73926000Y-65645115D01*
X73921525Y-65629876D01*
X73920135Y-65628671D01*
X73912452Y-65627000D01*
X73530168Y-65627000D01*
X73524192Y-65627285D01*
X73375506Y-65641471D01*
X73363772Y-65643730D01*
X73172401Y-65699872D01*
X73161325Y-65704302D01*
X72984022Y-65795619D01*
X72973976Y-65802069D01*
X72817143Y-65925262D01*
X72808494Y-65933499D01*
X72677788Y-66084123D01*
X72670853Y-66093847D01*
X72570990Y-66266467D01*
X72566016Y-66277331D01*
X72500593Y-66465727D01*
X72500352Y-66466716D01*
X70850000Y-66466716D01*
X70850000Y-65463503D01*
X98218606Y-65463503D01*
X98218942Y-65477599D01*
X98226884Y-65481000D01*
X100027885Y-65481000D01*
X100043124Y-65476525D01*
X100044329Y-65475135D01*
X100046000Y-65467452D01*
X100046000Y-65462885D01*
X100554000Y-65462885D01*
X100558475Y-65478124D01*
X100559865Y-65479329D01*
X100567548Y-65481000D01*
X102367967Y-65481000D01*
X102381498Y-65477027D01*
X102382727Y-65468478D01*
X102381362Y-65463384D01*
X104372658Y-65463384D01*
X104373363Y-65477470D01*
X104382242Y-65481000D01*
X105987885Y-65481000D01*
X106003124Y-65476525D01*
X106004329Y-65475135D01*
X106006000Y-65467452D01*
X106006000Y-65462885D01*
X106514000Y-65462885D01*
X106518475Y-65478124D01*
X106519865Y-65479329D01*
X106527548Y-65481000D01*
X108137933Y-65481000D01*
X108151464Y-65477027D01*
X108152535Y-65469579D01*
X108094270Y-65280189D01*
X108090049Y-65269843D01*
X107995881Y-65087396D01*
X107989895Y-65077965D01*
X107864911Y-64915082D01*
X107857349Y-64906859D01*
X107705489Y-64768677D01*
X107696589Y-64761922D01*
X107522672Y-64652823D01*
X107512706Y-64647746D01*
X107322227Y-64571174D01*
X107311512Y-64567939D01*
X107109506Y-64526105D01*
X107100370Y-64524902D01*
X107051860Y-64522105D01*
X107048213Y-64522000D01*
X106532115Y-64522000D01*
X106516876Y-64526475D01*
X106515671Y-64527865D01*
X106514000Y-64535548D01*
X106514000Y-65462885D01*
X106006000Y-65462885D01*
X106006000Y-64540115D01*
X106001525Y-64524876D01*
X106000135Y-64523671D01*
X105992452Y-64522000D01*
X105502864Y-64522000D01*
X105497269Y-64522249D01*
X105344923Y-64535846D01*
X105333909Y-64537828D01*
X105135889Y-64591999D01*
X105125408Y-64595897D01*
X104940097Y-64684287D01*
X104930483Y-64689972D01*
X104763755Y-64809777D01*
X104755290Y-64817085D01*
X104612421Y-64964516D01*
X104605378Y-64973213D01*
X104490874Y-65143611D01*
X104485488Y-65153408D01*
X104402965Y-65341402D01*
X104399400Y-65351994D01*
X104372658Y-65463384D01*
X102381362Y-65463384D01*
X102335236Y-65291239D01*
X102331490Y-65280947D01*
X102239414Y-65083489D01*
X102233931Y-65073993D01*
X102108972Y-64895533D01*
X102101916Y-64887125D01*
X101947875Y-64733084D01*
X101939467Y-64726028D01*
X101761007Y-64601069D01*
X101751511Y-64595586D01*
X101554053Y-64503510D01*
X101543761Y-64499764D01*
X101333312Y-64443375D01*
X101322519Y-64441472D01*
X101159830Y-64427238D01*
X101154365Y-64427000D01*
X100572115Y-64427000D01*
X100556876Y-64431475D01*
X100555671Y-64432865D01*
X100554000Y-64440548D01*
X100554000Y-65462885D01*
X100046000Y-65462885D01*
X100046000Y-64445115D01*
X100041525Y-64429876D01*
X100040135Y-64428671D01*
X100032452Y-64427000D01*
X99445635Y-64427000D01*
X99440170Y-64427238D01*
X99277481Y-64441472D01*
X99266688Y-64443375D01*
X99056239Y-64499764D01*
X99045947Y-64503510D01*
X98848489Y-64595586D01*
X98838993Y-64601069D01*
X98660533Y-64726028D01*
X98652125Y-64733084D01*
X98498084Y-64887125D01*
X98491028Y-64895533D01*
X98366069Y-65073993D01*
X98360586Y-65083489D01*
X98268510Y-65280947D01*
X98264764Y-65291239D01*
X98218606Y-65463503D01*
X70850000Y-65463503D01*
X70850000Y-58523113D01*
X72067214Y-58523113D01*
X72093130Y-58737277D01*
X72156563Y-58943466D01*
X72255505Y-59135164D01*
X72258920Y-59139614D01*
X72383415Y-59301860D01*
X72383419Y-59301864D01*
X72386831Y-59306311D01*
X72390980Y-59310086D01*
X72542242Y-59447724D01*
X72542245Y-59447726D01*
X72546389Y-59451497D01*
X72551141Y-59454478D01*
X72724379Y-59563151D01*
X72724383Y-59563153D01*
X72729135Y-59566134D01*
X72929293Y-59646597D01*
X73140537Y-59690344D01*
X73145148Y-59690610D01*
X73145149Y-59690610D01*
X73193452Y-59693395D01*
X73193456Y-59693395D01*
X73195275Y-59693500D01*
X73334735Y-59693500D01*
X73337522Y-59693251D01*
X73337528Y-59693251D01*
X73404240Y-59687297D01*
X73494872Y-59679208D01*
X73621740Y-59644501D01*
X73697536Y-59623766D01*
X73697540Y-59623765D01*
X73702952Y-59622284D01*
X73897663Y-59529411D01*
X74072851Y-59403526D01*
X74222977Y-59248608D01*
X74343297Y-59069553D01*
X74430008Y-58872020D01*
X74480368Y-58662255D01*
X74492786Y-58446887D01*
X74466870Y-58232723D01*
X74403437Y-58026534D01*
X74304495Y-57834836D01*
X74253208Y-57767997D01*
X74176585Y-57668140D01*
X74176581Y-57668136D01*
X74173169Y-57663689D01*
X74066331Y-57566474D01*
X74017758Y-57522276D01*
X74017755Y-57522274D01*
X74013611Y-57518503D01*
X74008859Y-57515522D01*
X73835621Y-57406849D01*
X73835617Y-57406847D01*
X73830865Y-57403866D01*
X73630707Y-57323403D01*
X73419463Y-57279656D01*
X73414852Y-57279390D01*
X73414851Y-57279390D01*
X73366548Y-57276605D01*
X73366544Y-57276605D01*
X73364725Y-57276500D01*
X73225265Y-57276500D01*
X73222478Y-57276749D01*
X73222472Y-57276749D01*
X73155760Y-57282703D01*
X73065128Y-57290792D01*
X72950085Y-57322264D01*
X72862464Y-57346234D01*
X72862460Y-57346235D01*
X72857048Y-57347716D01*
X72662337Y-57440589D01*
X72487149Y-57566474D01*
X72337023Y-57721392D01*
X72216703Y-57900447D01*
X72129992Y-58097980D01*
X72079632Y-58307745D01*
X72067214Y-58523113D01*
X70850000Y-58523113D01*
X70850000Y-51501522D01*
X98217273Y-51501522D01*
X98264764Y-51678761D01*
X98268510Y-51689053D01*
X98360586Y-51886511D01*
X98366069Y-51896007D01*
X98491028Y-52074467D01*
X98498084Y-52082875D01*
X98652125Y-52236916D01*
X98660533Y-52243972D01*
X98838993Y-52368931D01*
X98848489Y-52374414D01*
X99045947Y-52466490D01*
X99056239Y-52470236D01*
X99266688Y-52526625D01*
X99277481Y-52528528D01*
X99440170Y-52542762D01*
X99445635Y-52543000D01*
X100027885Y-52543000D01*
X100043124Y-52538525D01*
X100044329Y-52537135D01*
X100046000Y-52529452D01*
X100046000Y-52524885D01*
X100554000Y-52524885D01*
X100558475Y-52540124D01*
X100559865Y-52541329D01*
X100567548Y-52543000D01*
X101154365Y-52543000D01*
X101159830Y-52542762D01*
X101322519Y-52528528D01*
X101333312Y-52526625D01*
X101543761Y-52470236D01*
X101554053Y-52466490D01*
X101751511Y-52374414D01*
X101761007Y-52368931D01*
X101939467Y-52243972D01*
X101947875Y-52236916D01*
X102101916Y-52082875D01*
X102108972Y-52074467D01*
X102233931Y-51896007D01*
X102239414Y-51886511D01*
X102331490Y-51689053D01*
X102335236Y-51678761D01*
X102381394Y-51506497D01*
X102381249Y-51500421D01*
X104367465Y-51500421D01*
X104425730Y-51689811D01*
X104429951Y-51700157D01*
X104524119Y-51882604D01*
X104530105Y-51892035D01*
X104655089Y-52054918D01*
X104662651Y-52063141D01*
X104814511Y-52201323D01*
X104823411Y-52208078D01*
X104997328Y-52317177D01*
X105007294Y-52322254D01*
X105197773Y-52398826D01*
X105208488Y-52402061D01*
X105410494Y-52443895D01*
X105419630Y-52445098D01*
X105468140Y-52447895D01*
X105471787Y-52448000D01*
X105987885Y-52448000D01*
X106003124Y-52443525D01*
X106004329Y-52442135D01*
X106006000Y-52434452D01*
X106006000Y-52429885D01*
X106514000Y-52429885D01*
X106518475Y-52445124D01*
X106519865Y-52446329D01*
X106527548Y-52448000D01*
X107017136Y-52448000D01*
X107022731Y-52447751D01*
X107175077Y-52434154D01*
X107186091Y-52432172D01*
X107384111Y-52378001D01*
X107394592Y-52374103D01*
X107579903Y-52285713D01*
X107589517Y-52280028D01*
X107756245Y-52160223D01*
X107764710Y-52152915D01*
X107907579Y-52005484D01*
X107914622Y-51996787D01*
X108029126Y-51826389D01*
X108034512Y-51816592D01*
X108117035Y-51628598D01*
X108120600Y-51618006D01*
X108147342Y-51506616D01*
X108146637Y-51492530D01*
X108137758Y-51489000D01*
X106532115Y-51489000D01*
X106516876Y-51493475D01*
X106515671Y-51494865D01*
X106514000Y-51502548D01*
X106514000Y-52429885D01*
X106006000Y-52429885D01*
X106006000Y-51507115D01*
X106001525Y-51491876D01*
X106000135Y-51490671D01*
X105992452Y-51489000D01*
X104382067Y-51489000D01*
X104368536Y-51492973D01*
X104367465Y-51500421D01*
X102381249Y-51500421D01*
X102381058Y-51492401D01*
X102373116Y-51489000D01*
X100572115Y-51489000D01*
X100556876Y-51493475D01*
X100555671Y-51494865D01*
X100554000Y-51502548D01*
X100554000Y-52524885D01*
X100046000Y-52524885D01*
X100046000Y-51507115D01*
X100041525Y-51491876D01*
X100040135Y-51490671D01*
X100032452Y-51489000D01*
X98232033Y-51489000D01*
X98218502Y-51492973D01*
X98217273Y-51501522D01*
X70850000Y-51501522D01*
X70850000Y-50502399D01*
X72504712Y-50502399D01*
X72526194Y-50591537D01*
X72530083Y-50602832D01*
X72612629Y-50784382D01*
X72618576Y-50794724D01*
X72733968Y-50957397D01*
X72741761Y-50966425D01*
X72885831Y-51104342D01*
X72895196Y-51111738D01*
X73062741Y-51219921D01*
X73073345Y-51225417D01*
X73258312Y-51299961D01*
X73269770Y-51303355D01*
X73466928Y-51341857D01*
X73475791Y-51342934D01*
X73478500Y-51343000D01*
X73907885Y-51343000D01*
X73923124Y-51338525D01*
X73924329Y-51337135D01*
X73926000Y-51329452D01*
X73926000Y-51324885D01*
X74434000Y-51324885D01*
X74438475Y-51340124D01*
X74439865Y-51341329D01*
X74447548Y-51343000D01*
X74829832Y-51343000D01*
X74835808Y-51342715D01*
X74984494Y-51328529D01*
X74996228Y-51326270D01*
X75187599Y-51270128D01*
X75198675Y-51265698D01*
X75375978Y-51174381D01*
X75386024Y-51167931D01*
X75542857Y-51044738D01*
X75551506Y-51036501D01*
X75682212Y-50885877D01*
X75689147Y-50876153D01*
X75789010Y-50703533D01*
X75793984Y-50692669D01*
X75859407Y-50504273D01*
X75859648Y-50503284D01*
X75859240Y-50500421D01*
X79077696Y-50500421D01*
X79135378Y-50687915D01*
X79139599Y-50698260D01*
X79233357Y-50879912D01*
X79239342Y-50889343D01*
X79363785Y-51051520D01*
X79371352Y-51059749D01*
X79522539Y-51197319D01*
X79531450Y-51204082D01*
X79704604Y-51312701D01*
X79714574Y-51317782D01*
X79904232Y-51394024D01*
X79914932Y-51397255D01*
X80116071Y-51438908D01*
X80125207Y-51440111D01*
X80173490Y-51442895D01*
X80177137Y-51443000D01*
X80687885Y-51443000D01*
X80703124Y-51438525D01*
X80704329Y-51437135D01*
X80706000Y-51429452D01*
X80706000Y-51424885D01*
X81214000Y-51424885D01*
X81218475Y-51440124D01*
X81219865Y-51441329D01*
X81227548Y-51443000D01*
X81711911Y-51443000D01*
X81717506Y-51442751D01*
X81869188Y-51429213D01*
X81880202Y-51427232D01*
X82077366Y-51373293D01*
X82087839Y-51369399D01*
X82272341Y-51281396D01*
X82281970Y-51275701D01*
X82447963Y-51156423D01*
X82456428Y-51149116D01*
X82598684Y-51002320D01*
X82605714Y-50993638D01*
X82625964Y-50963503D01*
X98218606Y-50963503D01*
X98218942Y-50977599D01*
X98226884Y-50981000D01*
X100027885Y-50981000D01*
X100043124Y-50976525D01*
X100044329Y-50975135D01*
X100046000Y-50967452D01*
X100046000Y-50962885D01*
X100554000Y-50962885D01*
X100558475Y-50978124D01*
X100559865Y-50979329D01*
X100567548Y-50981000D01*
X102367967Y-50981000D01*
X102381498Y-50977027D01*
X102382727Y-50968478D01*
X102381362Y-50963384D01*
X104372658Y-50963384D01*
X104373363Y-50977470D01*
X104382242Y-50981000D01*
X105987885Y-50981000D01*
X106003124Y-50976525D01*
X106004329Y-50975135D01*
X106006000Y-50967452D01*
X106006000Y-50962885D01*
X106514000Y-50962885D01*
X106518475Y-50978124D01*
X106519865Y-50979329D01*
X106527548Y-50981000D01*
X108137933Y-50981000D01*
X108151464Y-50977027D01*
X108152535Y-50969579D01*
X108094270Y-50780189D01*
X108090049Y-50769843D01*
X107995881Y-50587396D01*
X107989895Y-50577965D01*
X107864911Y-50415082D01*
X107857349Y-50406859D01*
X107705489Y-50268677D01*
X107696589Y-50261922D01*
X107522672Y-50152823D01*
X107512706Y-50147746D01*
X107322227Y-50071174D01*
X107311512Y-50067939D01*
X107109506Y-50026105D01*
X107100370Y-50024902D01*
X107051860Y-50022105D01*
X107048213Y-50022000D01*
X106532115Y-50022000D01*
X106516876Y-50026475D01*
X106515671Y-50027865D01*
X106514000Y-50035548D01*
X106514000Y-50962885D01*
X106006000Y-50962885D01*
X106006000Y-50040115D01*
X106001525Y-50024876D01*
X106000135Y-50023671D01*
X105992452Y-50022000D01*
X105502864Y-50022000D01*
X105497269Y-50022249D01*
X105344923Y-50035846D01*
X105333909Y-50037828D01*
X105135889Y-50091999D01*
X105125408Y-50095897D01*
X104940097Y-50184287D01*
X104930483Y-50189972D01*
X104763755Y-50309777D01*
X104755290Y-50317085D01*
X104612421Y-50464516D01*
X104605378Y-50473213D01*
X104490874Y-50643611D01*
X104485488Y-50653408D01*
X104402965Y-50841402D01*
X104399400Y-50851994D01*
X104372658Y-50963384D01*
X102381362Y-50963384D01*
X102335236Y-50791239D01*
X102331490Y-50780947D01*
X102239414Y-50583489D01*
X102233931Y-50573993D01*
X102108972Y-50395533D01*
X102101916Y-50387125D01*
X101947875Y-50233084D01*
X101939467Y-50226028D01*
X101761007Y-50101069D01*
X101751511Y-50095586D01*
X101554053Y-50003510D01*
X101543761Y-49999764D01*
X101333312Y-49943375D01*
X101322519Y-49941472D01*
X101159830Y-49927238D01*
X101154365Y-49927000D01*
X100572115Y-49927000D01*
X100556876Y-49931475D01*
X100555671Y-49932865D01*
X100554000Y-49940548D01*
X100554000Y-50962885D01*
X100046000Y-50962885D01*
X100046000Y-49945115D01*
X100041525Y-49929876D01*
X100040135Y-49928671D01*
X100032452Y-49927000D01*
X99445635Y-49927000D01*
X99440170Y-49927238D01*
X99277481Y-49941472D01*
X99266688Y-49943375D01*
X99056239Y-49999764D01*
X99045947Y-50003510D01*
X98848489Y-50095586D01*
X98838993Y-50101069D01*
X98660533Y-50226028D01*
X98652125Y-50233084D01*
X98498084Y-50387125D01*
X98491028Y-50395533D01*
X98366069Y-50573993D01*
X98360586Y-50583489D01*
X98268510Y-50780947D01*
X98264764Y-50791239D01*
X98218606Y-50963503D01*
X82625964Y-50963503D01*
X82719725Y-50823972D01*
X82725117Y-50814163D01*
X82807275Y-50627001D01*
X82810841Y-50616406D01*
X82837200Y-50506615D01*
X82836495Y-50492530D01*
X82827616Y-50489000D01*
X81232115Y-50489000D01*
X81216876Y-50493475D01*
X81215671Y-50494865D01*
X81214000Y-50502548D01*
X81214000Y-51424885D01*
X80706000Y-51424885D01*
X80706000Y-50507115D01*
X80701525Y-50491876D01*
X80700135Y-50490671D01*
X80692452Y-50489000D01*
X79092298Y-50489000D01*
X79078767Y-50492973D01*
X79077696Y-50500421D01*
X75859240Y-50500421D01*
X75858180Y-50492992D01*
X75844615Y-50489000D01*
X74452115Y-50489000D01*
X74436876Y-50493475D01*
X74435671Y-50494865D01*
X74434000Y-50502548D01*
X74434000Y-51324885D01*
X73926000Y-51324885D01*
X73926000Y-50507115D01*
X73921525Y-50491876D01*
X73920135Y-50490671D01*
X73912452Y-50489000D01*
X72519598Y-50489000D01*
X72506067Y-50492973D01*
X72504712Y-50502399D01*
X70850000Y-50502399D01*
X70850000Y-49966716D01*
X72500352Y-49966716D01*
X72501820Y-49977008D01*
X72515385Y-49981000D01*
X73907885Y-49981000D01*
X73923124Y-49976525D01*
X73924329Y-49975135D01*
X73926000Y-49967452D01*
X73926000Y-49962885D01*
X74434000Y-49962885D01*
X74438475Y-49978124D01*
X74439865Y-49979329D01*
X74447548Y-49981000D01*
X75840402Y-49981000D01*
X75853933Y-49977027D01*
X75855288Y-49967601D01*
X75854272Y-49963385D01*
X79082800Y-49963385D01*
X79083505Y-49977470D01*
X79092384Y-49981000D01*
X80687885Y-49981000D01*
X80703124Y-49976525D01*
X80704329Y-49975135D01*
X80706000Y-49967452D01*
X80706000Y-49962885D01*
X81214000Y-49962885D01*
X81218475Y-49978124D01*
X81219865Y-49979329D01*
X81227548Y-49981000D01*
X82827702Y-49981000D01*
X82841233Y-49977027D01*
X82842304Y-49969579D01*
X82784622Y-49782085D01*
X82780401Y-49771740D01*
X82686643Y-49590088D01*
X82680658Y-49580657D01*
X82556215Y-49418480D01*
X82548648Y-49410251D01*
X82397461Y-49272681D01*
X82388550Y-49265918D01*
X82215396Y-49157299D01*
X82205426Y-49152218D01*
X82015768Y-49075976D01*
X82005068Y-49072745D01*
X81803929Y-49031092D01*
X81794793Y-49029889D01*
X81746510Y-49027105D01*
X81742863Y-49027000D01*
X81232115Y-49027000D01*
X81216876Y-49031475D01*
X81215671Y-49032865D01*
X81214000Y-49040548D01*
X81214000Y-49962885D01*
X80706000Y-49962885D01*
X80706000Y-49045115D01*
X80701525Y-49029876D01*
X80700135Y-49028671D01*
X80692452Y-49027000D01*
X80208089Y-49027000D01*
X80202494Y-49027249D01*
X80050812Y-49040787D01*
X80039798Y-49042768D01*
X79842634Y-49096707D01*
X79832161Y-49100601D01*
X79647659Y-49188604D01*
X79638030Y-49194299D01*
X79472037Y-49313577D01*
X79463572Y-49320884D01*
X79321316Y-49467680D01*
X79314286Y-49476362D01*
X79200275Y-49646028D01*
X79194883Y-49655837D01*
X79112725Y-49842999D01*
X79109159Y-49853594D01*
X79082800Y-49963385D01*
X75854272Y-49963385D01*
X75833806Y-49878463D01*
X75829917Y-49867168D01*
X75747371Y-49685618D01*
X75741424Y-49675276D01*
X75626032Y-49512603D01*
X75618239Y-49503575D01*
X75474169Y-49365658D01*
X75464804Y-49358262D01*
X75297259Y-49250079D01*
X75286655Y-49244583D01*
X75101688Y-49170039D01*
X75090230Y-49166645D01*
X74893072Y-49128143D01*
X74884209Y-49127066D01*
X74881500Y-49127000D01*
X74452115Y-49127000D01*
X74436876Y-49131475D01*
X74435671Y-49132865D01*
X74434000Y-49140548D01*
X74434000Y-49962885D01*
X73926000Y-49962885D01*
X73926000Y-49145115D01*
X73921525Y-49129876D01*
X73920135Y-49128671D01*
X73912452Y-49127000D01*
X73530168Y-49127000D01*
X73524192Y-49127285D01*
X73375506Y-49141471D01*
X73363772Y-49143730D01*
X73172401Y-49199872D01*
X73161325Y-49204302D01*
X72984022Y-49295619D01*
X72973976Y-49302069D01*
X72817143Y-49425262D01*
X72808494Y-49433499D01*
X72677788Y-49584123D01*
X72670853Y-49593847D01*
X72570990Y-49766467D01*
X72566016Y-49777331D01*
X72500593Y-49965727D01*
X72500352Y-49966716D01*
X70850000Y-49966716D01*
X70850000Y-47516381D01*
X72849160Y-47516381D01*
X72849237Y-47517470D01*
X72851698Y-47521206D01*
X73125632Y-47731404D01*
X73131262Y-47735259D01*
X73431591Y-47917862D01*
X73437593Y-47921080D01*
X73755897Y-48070184D01*
X73762202Y-48072732D01*
X74094743Y-48186587D01*
X74101313Y-48188446D01*
X74444183Y-48265714D01*
X74450912Y-48266853D01*
X74800143Y-48306643D01*
X74806933Y-48307046D01*
X75158419Y-48308886D01*
X75165220Y-48308554D01*
X75514853Y-48272423D01*
X75521581Y-48271357D01*
X75865274Y-48197676D01*
X75871822Y-48195897D01*
X76205549Y-48085527D01*
X76211891Y-48083041D01*
X76531718Y-47937288D01*
X76537777Y-47934121D01*
X76839995Y-47754676D01*
X76845659Y-47750884D01*
X77126732Y-47539849D01*
X77131958Y-47535464D01*
X77141613Y-47526428D01*
X77147540Y-47516381D01*
X102849160Y-47516381D01*
X102849237Y-47517470D01*
X102851698Y-47521206D01*
X103125632Y-47731404D01*
X103131262Y-47735259D01*
X103431591Y-47917862D01*
X103437593Y-47921080D01*
X103755897Y-48070184D01*
X103762202Y-48072732D01*
X104094743Y-48186587D01*
X104101313Y-48188446D01*
X104444183Y-48265714D01*
X104450912Y-48266853D01*
X104800143Y-48306643D01*
X104806933Y-48307046D01*
X105158419Y-48308886D01*
X105165220Y-48308554D01*
X105514853Y-48272423D01*
X105521581Y-48271357D01*
X105865274Y-48197676D01*
X105871822Y-48195897D01*
X106205549Y-48085527D01*
X106211891Y-48083041D01*
X106531718Y-47937288D01*
X106537777Y-47934121D01*
X106839995Y-47754676D01*
X106845659Y-47750884D01*
X107126732Y-47539849D01*
X107131958Y-47535464D01*
X107141613Y-47526428D01*
X107149682Y-47512750D01*
X107149654Y-47512024D01*
X107144512Y-47503723D01*
X105012810Y-45372020D01*
X104998869Y-45364408D01*
X104997034Y-45364539D01*
X104990420Y-45368790D01*
X102856774Y-47502437D01*
X102849160Y-47516381D01*
X77147540Y-47516381D01*
X77149682Y-47512750D01*
X77149654Y-47512024D01*
X77144512Y-47503723D01*
X75012810Y-45372020D01*
X74998869Y-45364408D01*
X74997034Y-45364539D01*
X74990420Y-45368790D01*
X72856774Y-47502437D01*
X72849160Y-47516381D01*
X70850000Y-47516381D01*
X70850000Y-44991832D01*
X71687333Y-44991832D01*
X71705117Y-45342893D01*
X71705827Y-45349649D01*
X71761420Y-45696723D01*
X71762859Y-45703378D01*
X71855608Y-46042410D01*
X71857757Y-46048871D01*
X71986581Y-46375912D01*
X71989412Y-46382095D01*
X72152803Y-46693310D01*
X72156286Y-46699152D01*
X72352330Y-46990896D01*
X72356433Y-46996340D01*
X72476425Y-47138836D01*
X72489164Y-47147279D01*
X72499608Y-47141181D01*
X74627980Y-45012810D01*
X74634357Y-45001131D01*
X75364408Y-45001131D01*
X75364539Y-45002966D01*
X75368790Y-45009580D01*
X77499009Y-47139798D01*
X77512605Y-47147223D01*
X77522218Y-47140522D01*
X77622518Y-47023912D01*
X77626676Y-47018514D01*
X77825762Y-46728840D01*
X77829310Y-46723029D01*
X77995942Y-46413559D01*
X77998849Y-46407381D01*
X78131090Y-46081713D01*
X78133304Y-46075283D01*
X78229598Y-45737237D01*
X78231105Y-45730607D01*
X78290332Y-45384118D01*
X78291112Y-45377378D01*
X78312668Y-45024925D01*
X78312784Y-45021323D01*
X78312853Y-45001819D01*
X78312761Y-44998194D01*
X78312416Y-44991832D01*
X101687333Y-44991832D01*
X101705117Y-45342893D01*
X101705827Y-45349649D01*
X101761420Y-45696723D01*
X101762859Y-45703378D01*
X101855608Y-46042410D01*
X101857757Y-46048871D01*
X101986581Y-46375912D01*
X101989412Y-46382095D01*
X102152803Y-46693310D01*
X102156286Y-46699152D01*
X102352330Y-46990896D01*
X102356433Y-46996340D01*
X102476425Y-47138836D01*
X102489164Y-47147279D01*
X102499608Y-47141181D01*
X104627980Y-45012810D01*
X104634357Y-45001131D01*
X105364408Y-45001131D01*
X105364539Y-45002966D01*
X105368790Y-45009580D01*
X107499009Y-47139798D01*
X107512605Y-47147223D01*
X107522218Y-47140522D01*
X107622518Y-47023912D01*
X107626676Y-47018514D01*
X107825762Y-46728840D01*
X107829310Y-46723029D01*
X107995942Y-46413559D01*
X107998849Y-46407381D01*
X108131090Y-46081713D01*
X108133304Y-46075283D01*
X108229598Y-45737237D01*
X108231105Y-45730607D01*
X108290332Y-45384118D01*
X108291112Y-45377378D01*
X108312668Y-45024925D01*
X108312784Y-45021323D01*
X108312853Y-45001819D01*
X108312761Y-44998194D01*
X108293666Y-44645615D01*
X108292931Y-44638849D01*
X108236130Y-44291985D01*
X108234663Y-44285313D01*
X108140736Y-43946627D01*
X108138562Y-43940163D01*
X108008598Y-43613578D01*
X108005742Y-43607398D01*
X107841269Y-43296763D01*
X107837769Y-43290937D01*
X107640697Y-42999862D01*
X107636590Y-42994453D01*
X107523565Y-42861179D01*
X107510740Y-42852743D01*
X107500416Y-42858795D01*
X105372020Y-44987190D01*
X105364408Y-45001131D01*
X104634357Y-45001131D01*
X104635592Y-44998869D01*
X104635461Y-44997034D01*
X104631210Y-44990420D01*
X102500992Y-42860203D01*
X102487455Y-42852811D01*
X102477753Y-42859599D01*
X102370430Y-42985257D01*
X102366296Y-42990664D01*
X102168215Y-43281041D01*
X102164697Y-43286851D01*
X101999134Y-43596922D01*
X101996259Y-43603087D01*
X101865155Y-43929218D01*
X101862962Y-43935658D01*
X101767846Y-44274044D01*
X101766363Y-44280679D01*
X101708350Y-44627354D01*
X101707591Y-44634126D01*
X101687357Y-44985037D01*
X101687333Y-44991832D01*
X78312416Y-44991832D01*
X78293666Y-44645615D01*
X78292931Y-44638849D01*
X78236130Y-44291985D01*
X78234663Y-44285313D01*
X78140736Y-43946627D01*
X78138562Y-43940163D01*
X78008598Y-43613578D01*
X78005742Y-43607398D01*
X77841269Y-43296763D01*
X77837769Y-43290937D01*
X77640697Y-42999862D01*
X77636590Y-42994453D01*
X77523565Y-42861179D01*
X77510740Y-42852743D01*
X77500416Y-42858795D01*
X75372020Y-44987190D01*
X75364408Y-45001131D01*
X74634357Y-45001131D01*
X74635592Y-44998869D01*
X74635461Y-44997034D01*
X74631210Y-44990420D01*
X72500992Y-42860203D01*
X72487455Y-42852811D01*
X72477753Y-42859599D01*
X72370430Y-42985257D01*
X72366296Y-42990664D01*
X72168215Y-43281041D01*
X72164697Y-43286851D01*
X71999134Y-43596922D01*
X71996259Y-43603087D01*
X71865155Y-43929218D01*
X71862962Y-43935658D01*
X71767846Y-44274044D01*
X71766363Y-44280679D01*
X71708350Y-44627354D01*
X71707591Y-44634126D01*
X71687357Y-44985037D01*
X71687333Y-44991832D01*
X70850000Y-44991832D01*
X70850000Y-42486862D01*
X72849950Y-42486862D01*
X72849986Y-42487704D01*
X72855037Y-42495826D01*
X74987190Y-44627980D01*
X75001131Y-44635592D01*
X75002966Y-44635461D01*
X75009580Y-44631210D01*
X77142798Y-42497991D01*
X77148875Y-42486862D01*
X102849950Y-42486862D01*
X102849986Y-42487704D01*
X102855037Y-42495826D01*
X104987190Y-44627980D01*
X105001131Y-44635592D01*
X105002966Y-44635461D01*
X105009580Y-44631210D01*
X105708411Y-43932379D01*
X107142798Y-42497991D01*
X107150412Y-42484047D01*
X107150344Y-42483090D01*
X107145834Y-42476271D01*
X107144418Y-42475065D01*
X106864813Y-42262064D01*
X106859187Y-42258240D01*
X106558214Y-42076681D01*
X106552202Y-42073484D01*
X106233370Y-41925487D01*
X106227070Y-41922967D01*
X105894129Y-41810273D01*
X105887551Y-41808437D01*
X105544417Y-41732367D01*
X105537678Y-41731251D01*
X105188310Y-41692680D01*
X105181529Y-41692301D01*
X104830015Y-41691687D01*
X104823242Y-41692042D01*
X104473720Y-41729395D01*
X104467010Y-41730482D01*
X104123586Y-41805361D01*
X104117011Y-41807172D01*
X103783683Y-41918702D01*
X103777361Y-41921205D01*
X103458034Y-42068079D01*
X103451991Y-42071265D01*
X103150401Y-42251763D01*
X103144755Y-42255571D01*
X102864408Y-42467596D01*
X102859211Y-42471987D01*
X102857972Y-42473155D01*
X102849950Y-42486862D01*
X77148875Y-42486862D01*
X77150412Y-42484047D01*
X77150344Y-42483089D01*
X77145836Y-42476272D01*
X77144418Y-42475065D01*
X76864813Y-42262064D01*
X76859187Y-42258240D01*
X76558214Y-42076681D01*
X76552202Y-42073484D01*
X76233370Y-41925487D01*
X76227070Y-41922967D01*
X75894129Y-41810273D01*
X75887551Y-41808437D01*
X75544417Y-41732367D01*
X75537678Y-41731251D01*
X75188310Y-41692680D01*
X75181529Y-41692301D01*
X74830015Y-41691687D01*
X74823242Y-41692042D01*
X74473720Y-41729395D01*
X74467010Y-41730482D01*
X74123586Y-41805361D01*
X74117011Y-41807172D01*
X73783683Y-41918702D01*
X73777361Y-41921205D01*
X73458034Y-42068079D01*
X73451991Y-42071265D01*
X73150401Y-42251763D01*
X73144755Y-42255571D01*
X72864408Y-42467596D01*
X72859211Y-42471987D01*
X72857972Y-42473155D01*
X72849950Y-42486862D01*
X70850000Y-42486862D01*
X70850000Y-41026000D01*
X70870002Y-40957879D01*
X70923658Y-40911386D01*
X70976000Y-40900000D01*
X108974000Y-40900000D01*
X109042121Y-40920002D01*
G37*
%TD.AperFunction*%
%TD*%
M02*
