%TF.GenerationSoftware,KiCad,Pcbnew,6.0.7-5.fc36*%
%TF.CreationDate,2022-09-30T16:01:05+01:00*%
%TF.ProjectId,pc070_aida_hdmi_dp,70633037-305f-4616-9964-615f68646d69,rev?*%
%TF.SameCoordinates,Original*%
%TF.FileFunction,Legend,Top*%
%TF.FilePolarity,Positive*%
%FSLAX46Y46*%
G04 Gerber Fmt 4.6, Leading zero omitted, Abs format (unit mm)*
G04 Created by KiCad (PCBNEW 6.0.7-5.fc36) date 2022-09-30 16:01:05*
%MOMM*%
%LPD*%
G01*
G04 APERTURE LIST*
%ADD10C,0.300000*%
%ADD11C,0.150000*%
%ADD12C,0.200000*%
%ADD13C,0.127000*%
G04 APERTURE END LIST*
D10*
X78885714Y-42663571D02*
X78885714Y-44163571D01*
X78885714Y-42735000D02*
X79028571Y-42663571D01*
X79314285Y-42663571D01*
X79457142Y-42735000D01*
X79528571Y-42806428D01*
X79599999Y-42949285D01*
X79599999Y-43377857D01*
X79528571Y-43520714D01*
X79457142Y-43592142D01*
X79314285Y-43663571D01*
X79028571Y-43663571D01*
X78885714Y-43592142D01*
X80885714Y-43592142D02*
X80742857Y-43663571D01*
X80457142Y-43663571D01*
X80314285Y-43592142D01*
X80242857Y-43520714D01*
X80171428Y-43377857D01*
X80171428Y-42949285D01*
X80242857Y-42806428D01*
X80314285Y-42735000D01*
X80457142Y-42663571D01*
X80742857Y-42663571D01*
X80885714Y-42735000D01*
X81814285Y-42163571D02*
X81957142Y-42163571D01*
X82099999Y-42235000D01*
X82171428Y-42306428D01*
X82242857Y-42449285D01*
X82314285Y-42735000D01*
X82314285Y-43092142D01*
X82242857Y-43377857D01*
X82171428Y-43520714D01*
X82099999Y-43592142D01*
X81957142Y-43663571D01*
X81814285Y-43663571D01*
X81671428Y-43592142D01*
X81599999Y-43520714D01*
X81528571Y-43377857D01*
X81457142Y-43092142D01*
X81457142Y-42735000D01*
X81528571Y-42449285D01*
X81599999Y-42306428D01*
X81671428Y-42235000D01*
X81814285Y-42163571D01*
X82814285Y-42163571D02*
X83814285Y-42163571D01*
X83171428Y-43663571D01*
X84671428Y-42163571D02*
X84814285Y-42163571D01*
X84957142Y-42235000D01*
X85028571Y-42306428D01*
X85099999Y-42449285D01*
X85171428Y-42735000D01*
X85171428Y-43092142D01*
X85099999Y-43377857D01*
X85028571Y-43520714D01*
X84957142Y-43592142D01*
X84814285Y-43663571D01*
X84671428Y-43663571D01*
X84528571Y-43592142D01*
X84457142Y-43520714D01*
X84385714Y-43377857D01*
X84314285Y-43092142D01*
X84314285Y-42735000D01*
X84385714Y-42449285D01*
X84457142Y-42306428D01*
X84528571Y-42235000D01*
X84671428Y-42163571D01*
X85457142Y-43806428D02*
X86599999Y-43806428D01*
X87599999Y-43663571D02*
X87599999Y-42877857D01*
X87528571Y-42735000D01*
X87385714Y-42663571D01*
X87099999Y-42663571D01*
X86957142Y-42735000D01*
X87599999Y-43592142D02*
X87457142Y-43663571D01*
X87099999Y-43663571D01*
X86957142Y-43592142D01*
X86885714Y-43449285D01*
X86885714Y-43306428D01*
X86957142Y-43163571D01*
X87099999Y-43092142D01*
X87457142Y-43092142D01*
X87599999Y-43020714D01*
X88314285Y-43663571D02*
X88314285Y-42663571D01*
X88314285Y-42163571D02*
X88242857Y-42235000D01*
X88314285Y-42306428D01*
X88385714Y-42235000D01*
X88314285Y-42163571D01*
X88314285Y-42306428D01*
X89671428Y-43663571D02*
X89671428Y-42163571D01*
X89671428Y-43592142D02*
X89528571Y-43663571D01*
X89242857Y-43663571D01*
X89099999Y-43592142D01*
X89028571Y-43520714D01*
X88957142Y-43377857D01*
X88957142Y-42949285D01*
X89028571Y-42806428D01*
X89099999Y-42735000D01*
X89242857Y-42663571D01*
X89528571Y-42663571D01*
X89671428Y-42735000D01*
X91028571Y-43663571D02*
X91028571Y-42877857D01*
X90957142Y-42735000D01*
X90814285Y-42663571D01*
X90528571Y-42663571D01*
X90385714Y-42735000D01*
X91028571Y-43592142D02*
X90885714Y-43663571D01*
X90528571Y-43663571D01*
X90385714Y-43592142D01*
X90314285Y-43449285D01*
X90314285Y-43306428D01*
X90385714Y-43163571D01*
X90528571Y-43092142D01*
X90885714Y-43092142D01*
X91028571Y-43020714D01*
X91385714Y-43806428D02*
X92528571Y-43806428D01*
X92885714Y-43663571D02*
X92885714Y-42163571D01*
X93528571Y-43663571D02*
X93528571Y-42877857D01*
X93457142Y-42735000D01*
X93314285Y-42663571D01*
X93099999Y-42663571D01*
X92957142Y-42735000D01*
X92885714Y-42806428D01*
X94885714Y-43663571D02*
X94885714Y-42163571D01*
X94885714Y-43592142D02*
X94742857Y-43663571D01*
X94457142Y-43663571D01*
X94314285Y-43592142D01*
X94242857Y-43520714D01*
X94171428Y-43377857D01*
X94171428Y-42949285D01*
X94242857Y-42806428D01*
X94314285Y-42735000D01*
X94457142Y-42663571D01*
X94742857Y-42663571D01*
X94885714Y-42735000D01*
X95599999Y-43663571D02*
X95599999Y-42663571D01*
X95599999Y-42806428D02*
X95671428Y-42735000D01*
X95814285Y-42663571D01*
X96028571Y-42663571D01*
X96171428Y-42735000D01*
X96242857Y-42877857D01*
X96242857Y-43663571D01*
X96242857Y-42877857D02*
X96314285Y-42735000D01*
X96457142Y-42663571D01*
X96671428Y-42663571D01*
X96814285Y-42735000D01*
X96885714Y-42877857D01*
X96885714Y-43663571D01*
X97599999Y-43663571D02*
X97599999Y-42663571D01*
X97599999Y-42163571D02*
X97528571Y-42235000D01*
X97599999Y-42306428D01*
X97671428Y-42235000D01*
X97599999Y-42163571D01*
X97599999Y-42306428D01*
X99314285Y-42663571D02*
X99671428Y-43663571D01*
X100028571Y-42663571D01*
X100528571Y-42306428D02*
X100599999Y-42235000D01*
X100742857Y-42163571D01*
X101099999Y-42163571D01*
X101242857Y-42235000D01*
X101314285Y-42306428D01*
X101385714Y-42449285D01*
X101385714Y-42592142D01*
X101314285Y-42806428D01*
X100457142Y-43663571D01*
X101385714Y-43663571D01*
X83850000Y-44578571D02*
X84778571Y-44578571D01*
X84278571Y-45150000D01*
X84492857Y-45150000D01*
X84635714Y-45221428D01*
X84707142Y-45292857D01*
X84778571Y-45435714D01*
X84778571Y-45792857D01*
X84707142Y-45935714D01*
X84635714Y-46007142D01*
X84492857Y-46078571D01*
X84064285Y-46078571D01*
X83921428Y-46007142D01*
X83850000Y-45935714D01*
X85707142Y-44578571D02*
X85850000Y-44578571D01*
X85992857Y-44650000D01*
X86064285Y-44721428D01*
X86135714Y-44864285D01*
X86207142Y-45150000D01*
X86207142Y-45507142D01*
X86135714Y-45792857D01*
X86064285Y-45935714D01*
X85992857Y-46007142D01*
X85850000Y-46078571D01*
X85707142Y-46078571D01*
X85564285Y-46007142D01*
X85492857Y-45935714D01*
X85421428Y-45792857D01*
X85350000Y-45507142D01*
X85350000Y-45150000D01*
X85421428Y-44864285D01*
X85492857Y-44721428D01*
X85564285Y-44650000D01*
X85707142Y-44578571D01*
X87921428Y-46007142D02*
X88135714Y-46078571D01*
X88492857Y-46078571D01*
X88635714Y-46007142D01*
X88707142Y-45935714D01*
X88778571Y-45792857D01*
X88778571Y-45650000D01*
X88707142Y-45507142D01*
X88635714Y-45435714D01*
X88492857Y-45364285D01*
X88207142Y-45292857D01*
X88064285Y-45221428D01*
X87992857Y-45150000D01*
X87921428Y-45007142D01*
X87921428Y-44864285D01*
X87992857Y-44721428D01*
X88064285Y-44650000D01*
X88207142Y-44578571D01*
X88564285Y-44578571D01*
X88778571Y-44650000D01*
X89992857Y-46007142D02*
X89850000Y-46078571D01*
X89564285Y-46078571D01*
X89421428Y-46007142D01*
X89350000Y-45864285D01*
X89350000Y-45292857D01*
X89421428Y-45150000D01*
X89564285Y-45078571D01*
X89850000Y-45078571D01*
X89992857Y-45150000D01*
X90064285Y-45292857D01*
X90064285Y-45435714D01*
X89350000Y-45578571D01*
X90707142Y-45078571D02*
X90707142Y-46578571D01*
X90707142Y-45150000D02*
X90850000Y-45078571D01*
X91135714Y-45078571D01*
X91278571Y-45150000D01*
X91350000Y-45221428D01*
X91421428Y-45364285D01*
X91421428Y-45792857D01*
X91350000Y-45935714D01*
X91278571Y-46007142D01*
X91135714Y-46078571D01*
X90850000Y-46078571D01*
X90707142Y-46007142D01*
X91850000Y-45078571D02*
X92421428Y-45078571D01*
X92064285Y-44578571D02*
X92064285Y-45864285D01*
X92135714Y-46007142D01*
X92278571Y-46078571D01*
X92421428Y-46078571D01*
X93992857Y-44721428D02*
X94064285Y-44650000D01*
X94207142Y-44578571D01*
X94564285Y-44578571D01*
X94707142Y-44650000D01*
X94778571Y-44721428D01*
X94850000Y-44864285D01*
X94850000Y-45007142D01*
X94778571Y-45221428D01*
X93921428Y-46078571D01*
X94850000Y-46078571D01*
X95421428Y-44721428D02*
X95492857Y-44650000D01*
X95635714Y-44578571D01*
X95992857Y-44578571D01*
X96135714Y-44650000D01*
X96207142Y-44721428D01*
X96278571Y-44864285D01*
X96278571Y-45007142D01*
X96207142Y-45221428D01*
X95350000Y-46078571D01*
X96278571Y-46078571D01*
X84171428Y-48493571D02*
X84171428Y-46993571D01*
X84528571Y-46993571D01*
X84742857Y-47065000D01*
X84885714Y-47207857D01*
X84957142Y-47350714D01*
X85028571Y-47636428D01*
X85028571Y-47850714D01*
X84957142Y-48136428D01*
X84885714Y-48279285D01*
X84742857Y-48422142D01*
X84528571Y-48493571D01*
X84171428Y-48493571D01*
X85671428Y-48350714D02*
X85742857Y-48422142D01*
X85671428Y-48493571D01*
X85600000Y-48422142D01*
X85671428Y-48350714D01*
X85671428Y-48493571D01*
X88385714Y-48350714D02*
X88314285Y-48422142D01*
X88100000Y-48493571D01*
X87957142Y-48493571D01*
X87742857Y-48422142D01*
X87600000Y-48279285D01*
X87528571Y-48136428D01*
X87457142Y-47850714D01*
X87457142Y-47636428D01*
X87528571Y-47350714D01*
X87600000Y-47207857D01*
X87742857Y-47065000D01*
X87957142Y-46993571D01*
X88100000Y-46993571D01*
X88314285Y-47065000D01*
X88385714Y-47136428D01*
X89671428Y-47493571D02*
X89671428Y-48493571D01*
X89028571Y-47493571D02*
X89028571Y-48279285D01*
X89100000Y-48422142D01*
X89242857Y-48493571D01*
X89457142Y-48493571D01*
X89600000Y-48422142D01*
X89671428Y-48350714D01*
X90314285Y-48422142D02*
X90457142Y-48493571D01*
X90742857Y-48493571D01*
X90885714Y-48422142D01*
X90957142Y-48279285D01*
X90957142Y-48207857D01*
X90885714Y-48065000D01*
X90742857Y-47993571D01*
X90528571Y-47993571D01*
X90385714Y-47922142D01*
X90314285Y-47779285D01*
X90314285Y-47707857D01*
X90385714Y-47565000D01*
X90528571Y-47493571D01*
X90742857Y-47493571D01*
X90885714Y-47565000D01*
X91528571Y-48422142D02*
X91671428Y-48493571D01*
X91957142Y-48493571D01*
X92100000Y-48422142D01*
X92171428Y-48279285D01*
X92171428Y-48207857D01*
X92100000Y-48065000D01*
X91957142Y-47993571D01*
X91742857Y-47993571D01*
X91600000Y-47922142D01*
X91528571Y-47779285D01*
X91528571Y-47707857D01*
X91600000Y-47565000D01*
X91742857Y-47493571D01*
X91957142Y-47493571D01*
X92100000Y-47565000D01*
X93457142Y-48493571D02*
X93457142Y-47707857D01*
X93385714Y-47565000D01*
X93242857Y-47493571D01*
X92957142Y-47493571D01*
X92814285Y-47565000D01*
X93457142Y-48422142D02*
X93314285Y-48493571D01*
X92957142Y-48493571D01*
X92814285Y-48422142D01*
X92742857Y-48279285D01*
X92742857Y-48136428D01*
X92814285Y-47993571D01*
X92957142Y-47922142D01*
X93314285Y-47922142D01*
X93457142Y-47850714D01*
X94171428Y-47493571D02*
X94171428Y-48493571D01*
X94171428Y-47636428D02*
X94242857Y-47565000D01*
X94385714Y-47493571D01*
X94600000Y-47493571D01*
X94742857Y-47565000D01*
X94814285Y-47707857D01*
X94814285Y-48493571D01*
X95457142Y-48422142D02*
X95600000Y-48493571D01*
X95885714Y-48493571D01*
X96028571Y-48422142D01*
X96100000Y-48279285D01*
X96100000Y-48207857D01*
X96028571Y-48065000D01*
X95885714Y-47993571D01*
X95671428Y-47993571D01*
X95528571Y-47922142D01*
X95457142Y-47779285D01*
X95457142Y-47707857D01*
X95528571Y-47565000D01*
X95671428Y-47493571D01*
X95885714Y-47493571D01*
X96028571Y-47565000D01*
D11*
%TO.C,J6*%
X95317380Y-108355333D02*
X96031666Y-108355333D01*
X96174523Y-108402952D01*
X96269761Y-108498190D01*
X96317380Y-108641047D01*
X96317380Y-108736285D01*
X95317380Y-107450571D02*
X95317380Y-107641047D01*
X95365000Y-107736285D01*
X95412619Y-107783904D01*
X95555476Y-107879142D01*
X95745952Y-107926761D01*
X96126904Y-107926761D01*
X96222142Y-107879142D01*
X96269761Y-107831523D01*
X96317380Y-107736285D01*
X96317380Y-107545809D01*
X96269761Y-107450571D01*
X96222142Y-107402952D01*
X96126904Y-107355333D01*
X95888809Y-107355333D01*
X95793571Y-107402952D01*
X95745952Y-107450571D01*
X95698333Y-107545809D01*
X95698333Y-107736285D01*
X95745952Y-107831523D01*
X95793571Y-107879142D01*
X95888809Y-107926761D01*
%TO.C,H3*%
X104238095Y-181652380D02*
X104238095Y-180652380D01*
X104238095Y-181128571D02*
X104809523Y-181128571D01*
X104809523Y-181652380D02*
X104809523Y-180652380D01*
X105190476Y-180652380D02*
X105809523Y-180652380D01*
X105476190Y-181033333D01*
X105619047Y-181033333D01*
X105714285Y-181080952D01*
X105761904Y-181128571D01*
X105809523Y-181223809D01*
X105809523Y-181461904D01*
X105761904Y-181557142D01*
X105714285Y-181604761D01*
X105619047Y-181652380D01*
X105333333Y-181652380D01*
X105238095Y-181604761D01*
X105190476Y-181557142D01*
%TO.C,H4*%
X74238095Y-181652380D02*
X74238095Y-180652380D01*
X74238095Y-181128571D02*
X74809523Y-181128571D01*
X74809523Y-181652380D02*
X74809523Y-180652380D01*
X75714285Y-180985714D02*
X75714285Y-181652380D01*
X75476190Y-180604761D02*
X75238095Y-181319047D01*
X75857142Y-181319047D01*
%TO.C,J8*%
X95317380Y-130961333D02*
X96031666Y-130961333D01*
X96174523Y-131008952D01*
X96269761Y-131104190D01*
X96317380Y-131247047D01*
X96317380Y-131342285D01*
X95745952Y-130342285D02*
X95698333Y-130437523D01*
X95650714Y-130485142D01*
X95555476Y-130532761D01*
X95507857Y-130532761D01*
X95412619Y-130485142D01*
X95365000Y-130437523D01*
X95317380Y-130342285D01*
X95317380Y-130151809D01*
X95365000Y-130056571D01*
X95412619Y-130008952D01*
X95507857Y-129961333D01*
X95555476Y-129961333D01*
X95650714Y-130008952D01*
X95698333Y-130056571D01*
X95745952Y-130151809D01*
X95745952Y-130342285D01*
X95793571Y-130437523D01*
X95841190Y-130485142D01*
X95936428Y-130532761D01*
X96126904Y-130532761D01*
X96222142Y-130485142D01*
X96269761Y-130437523D01*
X96317380Y-130342285D01*
X96317380Y-130151809D01*
X96269761Y-130056571D01*
X96222142Y-130008952D01*
X96126904Y-129961333D01*
X95936428Y-129961333D01*
X95841190Y-130008952D01*
X95793571Y-130056571D01*
X95745952Y-130151809D01*
%TO.C,J7*%
X85287380Y-120611333D02*
X86001666Y-120611333D01*
X86144523Y-120658952D01*
X86239761Y-120754190D01*
X86287380Y-120897047D01*
X86287380Y-120992285D01*
X85287380Y-120230380D02*
X85287380Y-119563714D01*
X86287380Y-119992285D01*
%TO.C,J2*%
X95317380Y-63143333D02*
X96031666Y-63143333D01*
X96174523Y-63190952D01*
X96269761Y-63286190D01*
X96317380Y-63429047D01*
X96317380Y-63524285D01*
X95412619Y-62714761D02*
X95365000Y-62667142D01*
X95317380Y-62571904D01*
X95317380Y-62333809D01*
X95365000Y-62238571D01*
X95412619Y-62190952D01*
X95507857Y-62143333D01*
X95603095Y-62143333D01*
X95745952Y-62190952D01*
X96317380Y-62762380D01*
X96317380Y-62143333D01*
%TO.C,H2*%
X104238095Y-41652380D02*
X104238095Y-40652380D01*
X104238095Y-41128571D02*
X104809523Y-41128571D01*
X104809523Y-41652380D02*
X104809523Y-40652380D01*
X105238095Y-40747619D02*
X105285714Y-40700000D01*
X105380952Y-40652380D01*
X105619047Y-40652380D01*
X105714285Y-40700000D01*
X105761904Y-40747619D01*
X105809523Y-40842857D01*
X105809523Y-40938095D01*
X105761904Y-41080952D01*
X105190476Y-41652380D01*
X105809523Y-41652380D01*
%TO.C,J9*%
X85287380Y-143217333D02*
X86001666Y-143217333D01*
X86144523Y-143264952D01*
X86239761Y-143360190D01*
X86287380Y-143503047D01*
X86287380Y-143598285D01*
X86287380Y-142693523D02*
X86287380Y-142503047D01*
X86239761Y-142407809D01*
X86192142Y-142360190D01*
X86049285Y-142264952D01*
X85858809Y-142217333D01*
X85477857Y-142217333D01*
X85382619Y-142264952D01*
X85335000Y-142312571D01*
X85287380Y-142407809D01*
X85287380Y-142598285D01*
X85335000Y-142693523D01*
X85382619Y-142741142D01*
X85477857Y-142788761D01*
X85715952Y-142788761D01*
X85811190Y-142741142D01*
X85858809Y-142693523D01*
X85906428Y-142598285D01*
X85906428Y-142407809D01*
X85858809Y-142312571D01*
X85811190Y-142264952D01*
X85715952Y-142217333D01*
%TO.C,H1*%
X74238095Y-41652380D02*
X74238095Y-40652380D01*
X74238095Y-41128571D02*
X74809523Y-41128571D01*
X74809523Y-41652380D02*
X74809523Y-40652380D01*
X75809523Y-41652380D02*
X75238095Y-41652380D01*
X75523809Y-41652380D02*
X75523809Y-40652380D01*
X75428571Y-40795238D01*
X75333333Y-40890476D01*
X75238095Y-40938095D01*
%TO.C,J4*%
X95317380Y-85749333D02*
X96031666Y-85749333D01*
X96174523Y-85796952D01*
X96269761Y-85892190D01*
X96317380Y-86035047D01*
X96317380Y-86130285D01*
X95650714Y-84844571D02*
X96317380Y-84844571D01*
X95269761Y-85082666D02*
X95984047Y-85320761D01*
X95984047Y-84701714D01*
%TO.C,J10*%
X95317380Y-154043523D02*
X96031666Y-154043523D01*
X96174523Y-154091142D01*
X96269761Y-154186380D01*
X96317380Y-154329238D01*
X96317380Y-154424476D01*
X96317380Y-153043523D02*
X96317380Y-153614952D01*
X96317380Y-153329238D02*
X95317380Y-153329238D01*
X95460238Y-153424476D01*
X95555476Y-153519714D01*
X95603095Y-153614952D01*
X95317380Y-152424476D02*
X95317380Y-152329238D01*
X95365000Y-152234000D01*
X95412619Y-152186380D01*
X95507857Y-152138761D01*
X95698333Y-152091142D01*
X95936428Y-152091142D01*
X96126904Y-152138761D01*
X96222142Y-152186380D01*
X96269761Y-152234000D01*
X96317380Y-152329238D01*
X96317380Y-152424476D01*
X96269761Y-152519714D01*
X96222142Y-152567333D01*
X96126904Y-152614952D01*
X95936428Y-152662571D01*
X95698333Y-152662571D01*
X95507857Y-152614952D01*
X95412619Y-152567333D01*
X95365000Y-152519714D01*
X95317380Y-152424476D01*
%TO.C,J12*%
X95317380Y-176649523D02*
X96031666Y-176649523D01*
X96174523Y-176697142D01*
X96269761Y-176792380D01*
X96317380Y-176935238D01*
X96317380Y-177030476D01*
X96317380Y-175649523D02*
X96317380Y-176220952D01*
X96317380Y-175935238D02*
X95317380Y-175935238D01*
X95460238Y-176030476D01*
X95555476Y-176125714D01*
X95603095Y-176220952D01*
X95412619Y-175268571D02*
X95365000Y-175220952D01*
X95317380Y-175125714D01*
X95317380Y-174887619D01*
X95365000Y-174792380D01*
X95412619Y-174744761D01*
X95507857Y-174697142D01*
X95603095Y-174697142D01*
X95745952Y-174744761D01*
X96317380Y-175316190D01*
X96317380Y-174697142D01*
%TO.C,J1*%
X85287380Y-52793333D02*
X86001666Y-52793333D01*
X86144523Y-52840952D01*
X86239761Y-52936190D01*
X86287380Y-53079047D01*
X86287380Y-53174285D01*
X86287380Y-51793333D02*
X86287380Y-52364761D01*
X86287380Y-52079047D02*
X85287380Y-52079047D01*
X85430238Y-52174285D01*
X85525476Y-52269523D01*
X85573095Y-52364761D01*
%TO.C,J3*%
X85287380Y-75399333D02*
X86001666Y-75399333D01*
X86144523Y-75446952D01*
X86239761Y-75542190D01*
X86287380Y-75685047D01*
X86287380Y-75780285D01*
X85287380Y-75018380D02*
X85287380Y-74399333D01*
X85668333Y-74732666D01*
X85668333Y-74589809D01*
X85715952Y-74494571D01*
X85763571Y-74446952D01*
X85858809Y-74399333D01*
X86096904Y-74399333D01*
X86192142Y-74446952D01*
X86239761Y-74494571D01*
X86287380Y-74589809D01*
X86287380Y-74875523D01*
X86239761Y-74970761D01*
X86192142Y-75018380D01*
%TO.C,J5*%
X85287380Y-98005333D02*
X86001666Y-98005333D01*
X86144523Y-98052952D01*
X86239761Y-98148190D01*
X86287380Y-98291047D01*
X86287380Y-98386285D01*
X85287380Y-97052952D02*
X85287380Y-97529142D01*
X85763571Y-97576761D01*
X85715952Y-97529142D01*
X85668333Y-97433904D01*
X85668333Y-97195809D01*
X85715952Y-97100571D01*
X85763571Y-97052952D01*
X85858809Y-97005333D01*
X86096904Y-97005333D01*
X86192142Y-97052952D01*
X86239761Y-97100571D01*
X86287380Y-97195809D01*
X86287380Y-97433904D01*
X86239761Y-97529142D01*
X86192142Y-97576761D01*
%TO.C,J11*%
X85287380Y-166299523D02*
X86001666Y-166299523D01*
X86144523Y-166347142D01*
X86239761Y-166442380D01*
X86287380Y-166585238D01*
X86287380Y-166680476D01*
X86287380Y-165299523D02*
X86287380Y-165870952D01*
X86287380Y-165585238D02*
X85287380Y-165585238D01*
X85430238Y-165680476D01*
X85525476Y-165775714D01*
X85573095Y-165870952D01*
X86287380Y-164347142D02*
X86287380Y-164918571D01*
X86287380Y-164632857D02*
X85287380Y-164632857D01*
X85430238Y-164728095D01*
X85525476Y-164823333D01*
X85573095Y-164918571D01*
D12*
%TO.C,J6*%
X104250000Y-111202000D02*
X102800000Y-111202000D01*
X110860000Y-111202000D02*
X110860000Y-96192000D01*
X110860000Y-96192000D02*
X108150000Y-96192000D01*
X108150000Y-111202000D02*
X110860000Y-111202000D01*
X104250000Y-96192000D02*
X102800000Y-96192000D01*
X97846000Y-99197000D02*
G75*
G03*
X97846000Y-99197000I-100000J0D01*
G01*
%TO.C,J8*%
X104250000Y-133808000D02*
X102800000Y-133808000D01*
X108150000Y-133808000D02*
X110860000Y-133808000D01*
X110860000Y-133808000D02*
X110860000Y-118798000D01*
X104250000Y-118798000D02*
X102800000Y-118798000D01*
X110860000Y-118798000D02*
X108150000Y-118798000D01*
X97846000Y-121803000D02*
G75*
G03*
X97846000Y-121803000I-100000J0D01*
G01*
D13*
%TO.C,J7*%
X83370000Y-117853000D02*
X82670000Y-117853000D01*
X79240000Y-134753000D02*
X75690000Y-134753000D01*
X70000000Y-117853000D02*
X70000000Y-134753000D01*
X79240000Y-117853000D02*
X75690000Y-117853000D01*
X72660000Y-134753000D02*
X70000000Y-134753000D01*
X83370000Y-121853000D02*
X83370000Y-117853000D01*
X72660000Y-117853000D02*
X70000000Y-117853000D01*
X83370000Y-134753000D02*
X83370000Y-132253000D01*
X83370000Y-134753000D02*
X82670000Y-134753000D01*
D12*
X85500000Y-131803000D02*
G75*
G03*
X85500000Y-131803000I-100000J0D01*
G01*
%TO.C,J2*%
X110860000Y-50980000D02*
X108150000Y-50980000D01*
X104250000Y-50980000D02*
X102800000Y-50980000D01*
X104250000Y-65990000D02*
X102800000Y-65990000D01*
X108150000Y-65990000D02*
X110860000Y-65990000D01*
X110860000Y-65990000D02*
X110860000Y-50980000D01*
X97846000Y-53985000D02*
G75*
G03*
X97846000Y-53985000I-100000J0D01*
G01*
D13*
%TO.C,J9*%
X79240000Y-140459000D02*
X75690000Y-140459000D01*
X83370000Y-144459000D02*
X83370000Y-140459000D01*
X72660000Y-140459000D02*
X70000000Y-140459000D01*
X70000000Y-140459000D02*
X70000000Y-157359000D01*
X83370000Y-157359000D02*
X82670000Y-157359000D01*
X83370000Y-157359000D02*
X83370000Y-154859000D01*
X83370000Y-140459000D02*
X82670000Y-140459000D01*
X79240000Y-157359000D02*
X75690000Y-157359000D01*
X72660000Y-157359000D02*
X70000000Y-157359000D01*
D12*
X85500000Y-154409000D02*
G75*
G03*
X85500000Y-154409000I-100000J0D01*
G01*
%TO.C,J4*%
X104250000Y-73586000D02*
X102800000Y-73586000D01*
X110860000Y-73586000D02*
X108150000Y-73586000D01*
X108150000Y-88596000D02*
X110860000Y-88596000D01*
X110860000Y-88596000D02*
X110860000Y-73586000D01*
X104250000Y-88596000D02*
X102800000Y-88596000D01*
X97846000Y-76591000D02*
G75*
G03*
X97846000Y-76591000I-100000J0D01*
G01*
%TO.C,J10*%
X110860000Y-141404000D02*
X108150000Y-141404000D01*
X110860000Y-156414000D02*
X110860000Y-141404000D01*
X104250000Y-141404000D02*
X102800000Y-141404000D01*
X104250000Y-156414000D02*
X102800000Y-156414000D01*
X108150000Y-156414000D02*
X110860000Y-156414000D01*
X97846000Y-144409000D02*
G75*
G03*
X97846000Y-144409000I-100000J0D01*
G01*
%TO.C,J12*%
X110860000Y-179020000D02*
X110860000Y-164010000D01*
X104250000Y-164010000D02*
X102800000Y-164010000D01*
X110860000Y-164010000D02*
X108150000Y-164010000D01*
X104250000Y-179020000D02*
X102800000Y-179020000D01*
X108150000Y-179020000D02*
X110860000Y-179020000D01*
X97846000Y-167015000D02*
G75*
G03*
X97846000Y-167015000I-100000J0D01*
G01*
D13*
%TO.C,J1*%
X79240000Y-50035000D02*
X75690000Y-50035000D01*
X83370000Y-54035000D02*
X83370000Y-50035000D01*
X83370000Y-66935000D02*
X83370000Y-64435000D01*
X79240000Y-66935000D02*
X75690000Y-66935000D01*
X83370000Y-50035000D02*
X82670000Y-50035000D01*
X70000000Y-50035000D02*
X70000000Y-66935000D01*
X72660000Y-50035000D02*
X70000000Y-50035000D01*
X72660000Y-66935000D02*
X70000000Y-66935000D01*
X83370000Y-66935000D02*
X82670000Y-66935000D01*
D12*
X85500000Y-63985000D02*
G75*
G03*
X85500000Y-63985000I-100000J0D01*
G01*
D13*
%TO.C,J3*%
X83370000Y-89541000D02*
X82670000Y-89541000D01*
X83370000Y-89541000D02*
X83370000Y-87041000D01*
X72660000Y-89541000D02*
X70000000Y-89541000D01*
X83370000Y-72641000D02*
X82670000Y-72641000D01*
X70000000Y-72641000D02*
X70000000Y-89541000D01*
X79240000Y-72641000D02*
X75690000Y-72641000D01*
X72660000Y-72641000D02*
X70000000Y-72641000D01*
X79240000Y-89541000D02*
X75690000Y-89541000D01*
X83370000Y-76641000D02*
X83370000Y-72641000D01*
D12*
X85500000Y-86591000D02*
G75*
G03*
X85500000Y-86591000I-100000J0D01*
G01*
D13*
%TO.C,J5*%
X79240000Y-95247000D02*
X75690000Y-95247000D01*
X83370000Y-99247000D02*
X83370000Y-95247000D01*
X72660000Y-112147000D02*
X70000000Y-112147000D01*
X72660000Y-95247000D02*
X70000000Y-95247000D01*
X83370000Y-112147000D02*
X82670000Y-112147000D01*
X79240000Y-112147000D02*
X75690000Y-112147000D01*
X83370000Y-112147000D02*
X83370000Y-109647000D01*
X70000000Y-95247000D02*
X70000000Y-112147000D01*
X83370000Y-95247000D02*
X82670000Y-95247000D01*
D12*
X85500000Y-109197000D02*
G75*
G03*
X85500000Y-109197000I-100000J0D01*
G01*
D13*
%TO.C,J11*%
X72660000Y-179965000D02*
X70000000Y-179965000D01*
X79240000Y-163065000D02*
X75690000Y-163065000D01*
X83370000Y-163065000D02*
X82670000Y-163065000D01*
X83370000Y-167065000D02*
X83370000Y-163065000D01*
X79240000Y-179965000D02*
X75690000Y-179965000D01*
X83370000Y-179965000D02*
X82670000Y-179965000D01*
X70000000Y-163065000D02*
X70000000Y-179965000D01*
X83370000Y-179965000D02*
X83370000Y-177465000D01*
X72660000Y-163065000D02*
X70000000Y-163065000D01*
D12*
X85500000Y-177015000D02*
G75*
G03*
X85500000Y-177015000I-100000J0D01*
G01*
%TD*%
M02*
