%TF.GenerationSoftware,KiCad,Pcbnew,(6.0.4-0)*%
%TF.CreationDate,2022-07-15T01:30:14+01:00*%
%TF.ProjectId,pc070_aida_hdmi_dp,70633037-305f-4616-9964-615f68646d69,rev?*%
%TF.SameCoordinates,Original*%
%TF.FileFunction,Paste,Top*%
%TF.FilePolarity,Positive*%
%FSLAX46Y46*%
G04 Gerber Fmt 4.6, Leading zero omitted, Abs format (unit mm)*
G04 Created by KiCad (PCBNEW (6.0.4-0)) date 2022-07-15 01:30:14*
%MOMM*%
%LPD*%
G01*
G04 APERTURE LIST*
%ADD10C,0.010000*%
%ADD11R,2.350000X0.280000*%
%ADD12R,2.400000X0.280000*%
G04 APERTURE END LIST*
%TO.C,J12*%
G36*
X107770000Y-165585000D02*
G01*
X104750000Y-165585000D01*
X104750000Y-162945000D01*
X107770000Y-162945000D01*
X107770000Y-165585000D01*
G37*
D10*
X107770000Y-165585000D02*
X104750000Y-165585000D01*
X104750000Y-162945000D01*
X107770000Y-162945000D01*
X107770000Y-165585000D01*
G36*
X102330000Y-180290000D02*
G01*
X98270000Y-180290000D01*
X98270000Y-177240000D01*
X102330000Y-177240000D01*
X102330000Y-180290000D01*
G37*
X102330000Y-180290000D02*
X98270000Y-180290000D01*
X98270000Y-177240000D01*
X102330000Y-177240000D01*
X102330000Y-180290000D01*
G36*
X102330000Y-165790000D02*
G01*
X98270000Y-165790000D01*
X98270000Y-162740000D01*
X102330000Y-162740000D01*
X102330000Y-165790000D01*
G37*
X102330000Y-165790000D02*
X98270000Y-165790000D01*
X98270000Y-162740000D01*
X102330000Y-162740000D01*
X102330000Y-165790000D01*
G36*
X107770000Y-180085000D02*
G01*
X104750000Y-180085000D01*
X104750000Y-177445000D01*
X107770000Y-177445000D01*
X107770000Y-180085000D01*
G37*
X107770000Y-180085000D02*
X104750000Y-180085000D01*
X104750000Y-177445000D01*
X107770000Y-177445000D01*
X107770000Y-180085000D01*
%TO.C,J10*%
G36*
X107770000Y-142979000D02*
G01*
X104750000Y-142979000D01*
X104750000Y-140339000D01*
X107770000Y-140339000D01*
X107770000Y-142979000D01*
G37*
X107770000Y-142979000D02*
X104750000Y-142979000D01*
X104750000Y-140339000D01*
X107770000Y-140339000D01*
X107770000Y-142979000D01*
G36*
X102330000Y-157684000D02*
G01*
X98270000Y-157684000D01*
X98270000Y-154634000D01*
X102330000Y-154634000D01*
X102330000Y-157684000D01*
G37*
X102330000Y-157684000D02*
X98270000Y-157684000D01*
X98270000Y-154634000D01*
X102330000Y-154634000D01*
X102330000Y-157684000D01*
G36*
X102330000Y-143184000D02*
G01*
X98270000Y-143184000D01*
X98270000Y-140134000D01*
X102330000Y-140134000D01*
X102330000Y-143184000D01*
G37*
X102330000Y-143184000D02*
X98270000Y-143184000D01*
X98270000Y-140134000D01*
X102330000Y-140134000D01*
X102330000Y-143184000D01*
G36*
X107770000Y-157479000D02*
G01*
X104750000Y-157479000D01*
X104750000Y-154839000D01*
X107770000Y-154839000D01*
X107770000Y-157479000D01*
G37*
X107770000Y-157479000D02*
X104750000Y-157479000D01*
X104750000Y-154839000D01*
X107770000Y-154839000D01*
X107770000Y-157479000D01*
%TO.C,J8*%
G36*
X107770000Y-120373000D02*
G01*
X104750000Y-120373000D01*
X104750000Y-117733000D01*
X107770000Y-117733000D01*
X107770000Y-120373000D01*
G37*
X107770000Y-120373000D02*
X104750000Y-120373000D01*
X104750000Y-117733000D01*
X107770000Y-117733000D01*
X107770000Y-120373000D01*
G36*
X102330000Y-135078000D02*
G01*
X98270000Y-135078000D01*
X98270000Y-132028000D01*
X102330000Y-132028000D01*
X102330000Y-135078000D01*
G37*
X102330000Y-135078000D02*
X98270000Y-135078000D01*
X98270000Y-132028000D01*
X102330000Y-132028000D01*
X102330000Y-135078000D01*
G36*
X102330000Y-120578000D02*
G01*
X98270000Y-120578000D01*
X98270000Y-117528000D01*
X102330000Y-117528000D01*
X102330000Y-120578000D01*
G37*
X102330000Y-120578000D02*
X98270000Y-120578000D01*
X98270000Y-117528000D01*
X102330000Y-117528000D01*
X102330000Y-120578000D01*
G36*
X107770000Y-134873000D02*
G01*
X104750000Y-134873000D01*
X104750000Y-132233000D01*
X107770000Y-132233000D01*
X107770000Y-134873000D01*
G37*
X107770000Y-134873000D02*
X104750000Y-134873000D01*
X104750000Y-132233000D01*
X107770000Y-132233000D01*
X107770000Y-134873000D01*
%TO.C,J6*%
G36*
X107770000Y-97767000D02*
G01*
X104750000Y-97767000D01*
X104750000Y-95127000D01*
X107770000Y-95127000D01*
X107770000Y-97767000D01*
G37*
X107770000Y-97767000D02*
X104750000Y-97767000D01*
X104750000Y-95127000D01*
X107770000Y-95127000D01*
X107770000Y-97767000D01*
G36*
X102330000Y-112472000D02*
G01*
X98270000Y-112472000D01*
X98270000Y-109422000D01*
X102330000Y-109422000D01*
X102330000Y-112472000D01*
G37*
X102330000Y-112472000D02*
X98270000Y-112472000D01*
X98270000Y-109422000D01*
X102330000Y-109422000D01*
X102330000Y-112472000D01*
G36*
X102330000Y-97972000D02*
G01*
X98270000Y-97972000D01*
X98270000Y-94922000D01*
X102330000Y-94922000D01*
X102330000Y-97972000D01*
G37*
X102330000Y-97972000D02*
X98270000Y-97972000D01*
X98270000Y-94922000D01*
X102330000Y-94922000D01*
X102330000Y-97972000D01*
G36*
X107770000Y-112267000D02*
G01*
X104750000Y-112267000D01*
X104750000Y-109627000D01*
X107770000Y-109627000D01*
X107770000Y-112267000D01*
G37*
X107770000Y-112267000D02*
X104750000Y-112267000D01*
X104750000Y-109627000D01*
X107770000Y-109627000D01*
X107770000Y-112267000D01*
%TO.C,J4*%
G36*
X107770000Y-75161000D02*
G01*
X104750000Y-75161000D01*
X104750000Y-72521000D01*
X107770000Y-72521000D01*
X107770000Y-75161000D01*
G37*
X107770000Y-75161000D02*
X104750000Y-75161000D01*
X104750000Y-72521000D01*
X107770000Y-72521000D01*
X107770000Y-75161000D01*
G36*
X102330000Y-89866000D02*
G01*
X98270000Y-89866000D01*
X98270000Y-86816000D01*
X102330000Y-86816000D01*
X102330000Y-89866000D01*
G37*
X102330000Y-89866000D02*
X98270000Y-89866000D01*
X98270000Y-86816000D01*
X102330000Y-86816000D01*
X102330000Y-89866000D01*
G36*
X102330000Y-75366000D02*
G01*
X98270000Y-75366000D01*
X98270000Y-72316000D01*
X102330000Y-72316000D01*
X102330000Y-75366000D01*
G37*
X102330000Y-75366000D02*
X98270000Y-75366000D01*
X98270000Y-72316000D01*
X102330000Y-72316000D01*
X102330000Y-75366000D01*
G36*
X107770000Y-89661000D02*
G01*
X104750000Y-89661000D01*
X104750000Y-87021000D01*
X107770000Y-87021000D01*
X107770000Y-89661000D01*
G37*
X107770000Y-89661000D02*
X104750000Y-89661000D01*
X104750000Y-87021000D01*
X107770000Y-87021000D01*
X107770000Y-89661000D01*
%TO.C,J2*%
G36*
X107770000Y-52555000D02*
G01*
X104750000Y-52555000D01*
X104750000Y-49915000D01*
X107770000Y-49915000D01*
X107770000Y-52555000D01*
G37*
X107770000Y-52555000D02*
X104750000Y-52555000D01*
X104750000Y-49915000D01*
X107770000Y-49915000D01*
X107770000Y-52555000D01*
G36*
X102330000Y-67260000D02*
G01*
X98270000Y-67260000D01*
X98270000Y-64210000D01*
X102330000Y-64210000D01*
X102330000Y-67260000D01*
G37*
X102330000Y-67260000D02*
X98270000Y-67260000D01*
X98270000Y-64210000D01*
X102330000Y-64210000D01*
X102330000Y-67260000D01*
G36*
X102330000Y-52760000D02*
G01*
X98270000Y-52760000D01*
X98270000Y-49710000D01*
X102330000Y-49710000D01*
X102330000Y-52760000D01*
G37*
X102330000Y-52760000D02*
X98270000Y-52760000D01*
X98270000Y-49710000D01*
X102330000Y-49710000D01*
X102330000Y-52760000D01*
G36*
X107770000Y-67055000D02*
G01*
X104750000Y-67055000D01*
X104750000Y-64415000D01*
X107770000Y-64415000D01*
X107770000Y-67055000D01*
G37*
X107770000Y-67055000D02*
X104750000Y-67055000D01*
X104750000Y-64415000D01*
X107770000Y-64415000D01*
X107770000Y-67055000D01*
%TD*%
D11*
%TO.C,J12*%
X99675000Y-167015000D03*
X99675000Y-167515000D03*
X99675000Y-168015000D03*
X99675000Y-168515000D03*
X99675000Y-169015000D03*
X99675000Y-169515000D03*
X99675000Y-170015000D03*
X99675000Y-170515000D03*
X99675000Y-171015000D03*
X99675000Y-171515000D03*
X99675000Y-172015000D03*
X99675000Y-172515000D03*
X99675000Y-173015000D03*
X99675000Y-173515000D03*
X99675000Y-174015000D03*
X99675000Y-174515000D03*
X99675000Y-175015000D03*
X99675000Y-175515000D03*
X99675000Y-176015000D03*
%TD*%
D12*
%TO.C,J11*%
X83560000Y-177015000D03*
X83560000Y-176515000D03*
X83560000Y-176015000D03*
X83560000Y-175515000D03*
X83560000Y-175015000D03*
X83560000Y-174515000D03*
X83560000Y-174015000D03*
X83560000Y-173515000D03*
X83560000Y-173015000D03*
X83560000Y-172515000D03*
X83560000Y-172015000D03*
X83560000Y-171515000D03*
X83560000Y-171015000D03*
X83560000Y-170515000D03*
X83560000Y-170015000D03*
X83560000Y-169515000D03*
X83560000Y-169015000D03*
X83560000Y-168515000D03*
X83560000Y-168015000D03*
X83560000Y-167515000D03*
%TD*%
D11*
%TO.C,J10*%
X99675000Y-144409000D03*
X99675000Y-144909000D03*
X99675000Y-145409000D03*
X99675000Y-145909000D03*
X99675000Y-146409000D03*
X99675000Y-146909000D03*
X99675000Y-147409000D03*
X99675000Y-147909000D03*
X99675000Y-148409000D03*
X99675000Y-148909000D03*
X99675000Y-149409000D03*
X99675000Y-149909000D03*
X99675000Y-150409000D03*
X99675000Y-150909000D03*
X99675000Y-151409000D03*
X99675000Y-151909000D03*
X99675000Y-152409000D03*
X99675000Y-152909000D03*
X99675000Y-153409000D03*
%TD*%
D12*
%TO.C,J9*%
X83560000Y-154409000D03*
X83560000Y-153909000D03*
X83560000Y-153409000D03*
X83560000Y-152909000D03*
X83560000Y-152409000D03*
X83560000Y-151909000D03*
X83560000Y-151409000D03*
X83560000Y-150909000D03*
X83560000Y-150409000D03*
X83560000Y-149909000D03*
X83560000Y-149409000D03*
X83560000Y-148909000D03*
X83560000Y-148409000D03*
X83560000Y-147909000D03*
X83560000Y-147409000D03*
X83560000Y-146909000D03*
X83560000Y-146409000D03*
X83560000Y-145909000D03*
X83560000Y-145409000D03*
X83560000Y-144909000D03*
%TD*%
D11*
%TO.C,J8*%
X99675000Y-121803000D03*
X99675000Y-122303000D03*
X99675000Y-122803000D03*
X99675000Y-123303000D03*
X99675000Y-123803000D03*
X99675000Y-124303000D03*
X99675000Y-124803000D03*
X99675000Y-125303000D03*
X99675000Y-125803000D03*
X99675000Y-126303000D03*
X99675000Y-126803000D03*
X99675000Y-127303000D03*
X99675000Y-127803000D03*
X99675000Y-128303000D03*
X99675000Y-128803000D03*
X99675000Y-129303000D03*
X99675000Y-129803000D03*
X99675000Y-130303000D03*
X99675000Y-130803000D03*
%TD*%
D12*
%TO.C,J7*%
X83560000Y-131803000D03*
X83560000Y-131303000D03*
X83560000Y-130803000D03*
X83560000Y-130303000D03*
X83560000Y-129803000D03*
X83560000Y-129303000D03*
X83560000Y-128803000D03*
X83560000Y-128303000D03*
X83560000Y-127803000D03*
X83560000Y-127303000D03*
X83560000Y-126803000D03*
X83560000Y-126303000D03*
X83560000Y-125803000D03*
X83560000Y-125303000D03*
X83560000Y-124803000D03*
X83560000Y-124303000D03*
X83560000Y-123803000D03*
X83560000Y-123303000D03*
X83560000Y-122803000D03*
X83560000Y-122303000D03*
%TD*%
D11*
%TO.C,J6*%
X99675000Y-99197000D03*
X99675000Y-99697000D03*
X99675000Y-100197000D03*
X99675000Y-100697000D03*
X99675000Y-101197000D03*
X99675000Y-101697000D03*
X99675000Y-102197000D03*
X99675000Y-102697000D03*
X99675000Y-103197000D03*
X99675000Y-103697000D03*
X99675000Y-104197000D03*
X99675000Y-104697000D03*
X99675000Y-105197000D03*
X99675000Y-105697000D03*
X99675000Y-106197000D03*
X99675000Y-106697000D03*
X99675000Y-107197000D03*
X99675000Y-107697000D03*
X99675000Y-108197000D03*
%TD*%
D12*
%TO.C,J5*%
X83560000Y-109197000D03*
X83560000Y-108697000D03*
X83560000Y-108197000D03*
X83560000Y-107697000D03*
X83560000Y-107197000D03*
X83560000Y-106697000D03*
X83560000Y-106197000D03*
X83560000Y-105697000D03*
X83560000Y-105197000D03*
X83560000Y-104697000D03*
X83560000Y-104197000D03*
X83560000Y-103697000D03*
X83560000Y-103197000D03*
X83560000Y-102697000D03*
X83560000Y-102197000D03*
X83560000Y-101697000D03*
X83560000Y-101197000D03*
X83560000Y-100697000D03*
X83560000Y-100197000D03*
X83560000Y-99697000D03*
%TD*%
D11*
%TO.C,J4*%
X99675000Y-76591000D03*
X99675000Y-77091000D03*
X99675000Y-77591000D03*
X99675000Y-78091000D03*
X99675000Y-78591000D03*
X99675000Y-79091000D03*
X99675000Y-79591000D03*
X99675000Y-80091000D03*
X99675000Y-80591000D03*
X99675000Y-81091000D03*
X99675000Y-81591000D03*
X99675000Y-82091000D03*
X99675000Y-82591000D03*
X99675000Y-83091000D03*
X99675000Y-83591000D03*
X99675000Y-84091000D03*
X99675000Y-84591000D03*
X99675000Y-85091000D03*
X99675000Y-85591000D03*
%TD*%
D12*
%TO.C,J3*%
X83560000Y-86591000D03*
X83560000Y-86091000D03*
X83560000Y-85591000D03*
X83560000Y-85091000D03*
X83560000Y-84591000D03*
X83560000Y-84091000D03*
X83560000Y-83591000D03*
X83560000Y-83091000D03*
X83560000Y-82591000D03*
X83560000Y-82091000D03*
X83560000Y-81591000D03*
X83560000Y-81091000D03*
X83560000Y-80591000D03*
X83560000Y-80091000D03*
X83560000Y-79591000D03*
X83560000Y-79091000D03*
X83560000Y-78591000D03*
X83560000Y-78091000D03*
X83560000Y-77591000D03*
X83560000Y-77091000D03*
%TD*%
D11*
%TO.C,J2*%
X99675000Y-53985000D03*
X99675000Y-54485000D03*
X99675000Y-54985000D03*
X99675000Y-55485000D03*
X99675000Y-55985000D03*
X99675000Y-56485000D03*
X99675000Y-56985000D03*
X99675000Y-57485000D03*
X99675000Y-57985000D03*
X99675000Y-58485000D03*
X99675000Y-58985000D03*
X99675000Y-59485000D03*
X99675000Y-59985000D03*
X99675000Y-60485000D03*
X99675000Y-60985000D03*
X99675000Y-61485000D03*
X99675000Y-61985000D03*
X99675000Y-62485000D03*
X99675000Y-62985000D03*
%TD*%
D12*
%TO.C,J1*%
X83560000Y-63985000D03*
X83560000Y-63485000D03*
X83560000Y-62985000D03*
X83560000Y-62485000D03*
X83560000Y-61985000D03*
X83560000Y-61485000D03*
X83560000Y-60985000D03*
X83560000Y-60485000D03*
X83560000Y-59985000D03*
X83560000Y-59485000D03*
X83560000Y-58985000D03*
X83560000Y-58485000D03*
X83560000Y-57985000D03*
X83560000Y-57485000D03*
X83560000Y-56985000D03*
X83560000Y-56485000D03*
X83560000Y-55985000D03*
X83560000Y-55485000D03*
X83560000Y-54985000D03*
X83560000Y-54485000D03*
%TD*%
M02*
