%TF.GenerationSoftware,KiCad,Pcbnew,(6.0.4-0)*%
%TF.CreationDate,2022-07-15T02:34:07+01:00*%
%TF.ProjectId,pc070_aida_hdmi_dp,70633037-305f-4616-9964-615f68646d69,rev?*%
%TF.SameCoordinates,Original*%
%TF.FileFunction,Copper,L4,Bot*%
%TF.FilePolarity,Positive*%
%FSLAX46Y46*%
G04 Gerber Fmt 4.6, Leading zero omitted, Abs format (unit mm)*
G04 Created by KiCad (PCBNEW (6.0.4-0)) date 2022-07-15 02:34:07*
%MOMM*%
%LPD*%
G01*
G04 APERTURE LIST*
%TA.AperFunction,ComponentPad*%
%ADD10O,3.200000X1.600000*%
%TD*%
%TA.AperFunction,ComponentPad*%
%ADD11O,2.820000X1.410000*%
%TD*%
%TA.AperFunction,ConnectorPad*%
%ADD12C,5.600000*%
%TD*%
%TA.AperFunction,ComponentPad*%
%ADD13C,3.600000*%
%TD*%
%TA.AperFunction,ComponentPad*%
%ADD14O,2.800000X1.400000*%
%TD*%
%TA.AperFunction,ComponentPad*%
%ADD15O,2.400000X1.200000*%
%TD*%
%TA.AperFunction,ViaPad*%
%ADD16C,0.800000*%
%TD*%
%TA.AperFunction,Conductor*%
%ADD17C,0.250000*%
%TD*%
G04 APERTURE END LIST*
D10*
%TO.P,J12,S1,SHIELD*%
%TO.N,GND*%
X100300000Y-178765000D03*
%TO.P,J12,S2,SHIELD*%
X100300000Y-164265000D03*
D11*
%TO.P,J12,S3,SHIELD*%
X106260000Y-178765000D03*
%TO.P,J12,S4,SHIELD*%
X106260000Y-164265000D03*
%TD*%
D10*
%TO.P,J10,S1,SHIELD*%
%TO.N,GND*%
X100300000Y-156159000D03*
%TO.P,J10,S2,SHIELD*%
X100300000Y-141659000D03*
D11*
%TO.P,J10,S3,SHIELD*%
X106260000Y-156159000D03*
%TO.P,J10,S4,SHIELD*%
X106260000Y-141659000D03*
%TD*%
D10*
%TO.P,J8,S1,SHIELD*%
%TO.N,GND*%
X100300000Y-133553000D03*
%TO.P,J8,S2,SHIELD*%
X100300000Y-119053000D03*
D11*
%TO.P,J8,S3,SHIELD*%
X106260000Y-133553000D03*
%TO.P,J8,S4,SHIELD*%
X106260000Y-119053000D03*
%TD*%
D10*
%TO.P,J6,S1,SHIELD*%
%TO.N,GND*%
X100300000Y-110947000D03*
%TO.P,J6,S2,SHIELD*%
X100300000Y-96447000D03*
D11*
%TO.P,J6,S3,SHIELD*%
X106260000Y-110947000D03*
%TO.P,J6,S4,SHIELD*%
X106260000Y-96447000D03*
%TD*%
D10*
%TO.P,J4,S1,SHIELD*%
%TO.N,GND*%
X100300000Y-88341000D03*
%TO.P,J4,S2,SHIELD*%
X100300000Y-73841000D03*
D11*
%TO.P,J4,S3,SHIELD*%
X106260000Y-88341000D03*
%TO.P,J4,S4,SHIELD*%
X106260000Y-73841000D03*
%TD*%
D10*
%TO.P,J2,S1,SHIELD*%
%TO.N,GND*%
X100300000Y-65735000D03*
%TO.P,J2,S2,SHIELD*%
X100300000Y-51235000D03*
D11*
%TO.P,J2,S3,SHIELD*%
X106260000Y-65735000D03*
%TO.P,J2,S4,SHIELD*%
X106260000Y-51235000D03*
%TD*%
D12*
%TO.P,H4,1,1*%
%TO.N,GND*%
X75000000Y-185000000D03*
D13*
X75000000Y-185000000D03*
%TD*%
D12*
%TO.P,H3,1,1*%
%TO.N,GND*%
X105000000Y-185000000D03*
D13*
X105000000Y-185000000D03*
%TD*%
D12*
%TO.P,H2,1,1*%
%TO.N,GND*%
X105000000Y-45000000D03*
D13*
X105000000Y-45000000D03*
%TD*%
D12*
%TO.P,H1,1,1*%
%TO.N,GND*%
X75000000Y-45000000D03*
D13*
X75000000Y-45000000D03*
%TD*%
D14*
%TO.P,J11,S1,SHIELD*%
%TO.N,GND*%
X80960000Y-163265000D03*
%TO.P,J11,S2,SHIELD*%
X80960000Y-179765000D03*
D15*
%TO.P,J11,S3,SHIELD*%
X74180000Y-163265000D03*
%TO.P,J11,S4,SHIELD*%
X74180000Y-179765000D03*
%TD*%
D14*
%TO.P,J9,S1,SHIELD*%
%TO.N,GND*%
X80960000Y-140659000D03*
%TO.P,J9,S2,SHIELD*%
X80960000Y-157159000D03*
D15*
%TO.P,J9,S3,SHIELD*%
X74180000Y-140659000D03*
%TO.P,J9,S4,SHIELD*%
X74180000Y-157159000D03*
%TD*%
D14*
%TO.P,J7,S1,SHIELD*%
%TO.N,GND*%
X80960000Y-118053000D03*
%TO.P,J7,S2,SHIELD*%
X80960000Y-134553000D03*
D15*
%TO.P,J7,S3,SHIELD*%
X74180000Y-118053000D03*
%TO.P,J7,S4,SHIELD*%
X74180000Y-134553000D03*
%TD*%
D14*
%TO.P,J5,S1,SHIELD*%
%TO.N,GND*%
X80960000Y-95447000D03*
%TO.P,J5,S2,SHIELD*%
X80960000Y-111947000D03*
D15*
%TO.P,J5,S3,SHIELD*%
X74180000Y-95447000D03*
%TO.P,J5,S4,SHIELD*%
X74180000Y-111947000D03*
%TD*%
D14*
%TO.P,J3,S1,SHIELD*%
%TO.N,GND*%
X80960000Y-72841000D03*
%TO.P,J3,S2,SHIELD*%
X80960000Y-89341000D03*
D15*
%TO.P,J3,S3,SHIELD*%
X74180000Y-72841000D03*
%TO.P,J3,S4,SHIELD*%
X74180000Y-89341000D03*
%TD*%
D14*
%TO.P,J1,S1,SHIELD*%
%TO.N,GND*%
X80960000Y-50235000D03*
%TO.P,J1,S2,SHIELD*%
X80960000Y-66735000D03*
D15*
%TO.P,J1,S3,SHIELD*%
X74180000Y-50235000D03*
%TO.P,J1,S4,SHIELD*%
X74180000Y-66735000D03*
%TD*%
D16*
%TO.N,GND*%
X81825000Y-123818000D03*
X81873021Y-126792647D03*
X81863782Y-128326593D03*
X81870174Y-129788648D03*
X81878041Y-131299536D03*
X101343316Y-122283648D03*
X101340978Y-123787010D03*
X101334707Y-125295789D03*
X101333441Y-126808477D03*
X101333027Y-129298087D03*
%TO.N,/pc070_aida_hdmi_dp_single5/BUSY*%
X94100000Y-127078500D03*
X94150000Y-128618000D03*
%TO.N,/pc070_aida_hdmi_dp_single5/SPARE*%
X92625000Y-129527511D03*
X91850000Y-127078500D03*
%TO.N,/pc070_aida_hdmi_dp_single5/SPARE\u002A*%
X90950000Y-126293000D03*
X91850000Y-130243000D03*
%TO.N,/pc070_aida_hdmi_dp_single5/CONT\u002A*%
X89675000Y-129743000D03*
X90150000Y-124142500D03*
%TO.N,/pc070_aida_hdmi_dp_single5/CONT*%
X88525000Y-130293000D03*
X90975000Y-123418000D03*
%TO.N,/pc070_aida_hdmi_dp_single5/CLK\u002A*%
X96550000Y-122618500D03*
X95900000Y-130943000D03*
%TO.N,/pc070_aida_hdmi_dp_single5/CLK*%
X95307341Y-131825341D03*
X95100000Y-122118000D03*
%TO.N,/pc070_aida_hdmi_dp_single5/TRIG\u002A*%
X88775000Y-133468000D03*
X86775000Y-124368000D03*
%TO.N,/pc070_aida_hdmi_dp_single5/TRIG*%
X88462299Y-132430701D03*
X87525000Y-125343000D03*
%TO.N,GND*%
X87825000Y-123993000D03*
X90150000Y-122618000D03*
X94175000Y-122768000D03*
X91875000Y-125818000D03*
X96378614Y-130065541D03*
X90400000Y-130518500D03*
X89862106Y-132505894D03*
X94050000Y-125918000D03*
X81825000Y-146424000D03*
X81873021Y-149398647D03*
X81863782Y-150932593D03*
X81870174Y-152394648D03*
X81878041Y-153905536D03*
X101343316Y-144889648D03*
X101340978Y-146393010D03*
X101334707Y-147901789D03*
X101333441Y-149414477D03*
X101333027Y-151904087D03*
%TO.N,/pc070_aida_hdmi_dp_single4/BUSY*%
X94100000Y-149684500D03*
X94150000Y-151224000D03*
%TO.N,/pc070_aida_hdmi_dp_single4/SPARE*%
X92625000Y-152133511D03*
X91850000Y-149684500D03*
%TO.N,/pc070_aida_hdmi_dp_single4/SPARE\u002A*%
X90950000Y-148899000D03*
X91850000Y-152849000D03*
%TO.N,/pc070_aida_hdmi_dp_single4/CONT\u002A*%
X89675000Y-152349000D03*
X90150000Y-146748500D03*
%TO.N,/pc070_aida_hdmi_dp_single4/CONT*%
X88525000Y-152899000D03*
X90975000Y-146024000D03*
%TO.N,/pc070_aida_hdmi_dp_single4/CLK\u002A*%
X96550000Y-145224500D03*
X95900000Y-153549000D03*
%TO.N,/pc070_aida_hdmi_dp_single4/CLK*%
X95307341Y-154431341D03*
X95100000Y-144724000D03*
%TO.N,/pc070_aida_hdmi_dp_single4/TRIG\u002A*%
X88775000Y-156074000D03*
X86775000Y-146974000D03*
%TO.N,/pc070_aida_hdmi_dp_single4/TRIG*%
X88462299Y-155036701D03*
X87525000Y-147949000D03*
%TO.N,GND*%
X87825000Y-146599000D03*
X90150000Y-145224000D03*
X94175000Y-145374000D03*
X91875000Y-148424000D03*
X96378614Y-152671541D03*
X90400000Y-153124500D03*
X89862106Y-155111894D03*
X94050000Y-148524000D03*
X81825000Y-169030000D03*
X81873021Y-172004647D03*
X81863782Y-173538593D03*
X81870174Y-175000648D03*
X81878041Y-176511536D03*
X101343316Y-167495648D03*
X101340978Y-168999010D03*
X101334707Y-170507789D03*
X101333441Y-172020477D03*
X101333027Y-174510087D03*
%TO.N,/pc070_aida_hdmi_dp_single3/BUSY*%
X94100000Y-172290500D03*
X94150000Y-173830000D03*
%TO.N,/pc070_aida_hdmi_dp_single3/SPARE*%
X92625000Y-174739511D03*
X91850000Y-172290500D03*
%TO.N,/pc070_aida_hdmi_dp_single3/SPARE\u002A*%
X90950000Y-171505000D03*
X91850000Y-175455000D03*
%TO.N,/pc070_aida_hdmi_dp_single3/CONT\u002A*%
X89675000Y-174955000D03*
X90150000Y-169354500D03*
%TO.N,/pc070_aida_hdmi_dp_single3/CONT*%
X88525000Y-175505000D03*
X90975000Y-168630000D03*
%TO.N,/pc070_aida_hdmi_dp_single3/CLK\u002A*%
X96550000Y-167830500D03*
X95900000Y-176155000D03*
%TO.N,/pc070_aida_hdmi_dp_single3/CLK*%
X95307341Y-177037341D03*
X95100000Y-167330000D03*
%TO.N,/pc070_aida_hdmi_dp_single3/TRIG\u002A*%
X88775000Y-178680000D03*
X86775000Y-169580000D03*
%TO.N,/pc070_aida_hdmi_dp_single3/TRIG*%
X88462299Y-177642701D03*
X87525000Y-170555000D03*
%TO.N,GND*%
X87825000Y-169205000D03*
X90150000Y-167830000D03*
X94175000Y-167980000D03*
X91875000Y-171030000D03*
X96378614Y-175277541D03*
X90400000Y-175730500D03*
X89862106Y-177717894D03*
X94050000Y-171130000D03*
X81825000Y-101212000D03*
X81873021Y-104186647D03*
X81863782Y-105720593D03*
X81870174Y-107182648D03*
X81878041Y-108693536D03*
X101343316Y-99677648D03*
X101340978Y-101181010D03*
X101334707Y-102689789D03*
X101333441Y-104202477D03*
X101333027Y-106692087D03*
%TO.N,/pc070_aida_hdmi_dp_single2/BUSY*%
X94100000Y-104472500D03*
X94150000Y-106012000D03*
%TO.N,/pc070_aida_hdmi_dp_single2/SPARE*%
X92625000Y-106921511D03*
X91850000Y-104472500D03*
%TO.N,/pc070_aida_hdmi_dp_single2/SPARE\u002A*%
X90950000Y-103687000D03*
X91850000Y-107637000D03*
%TO.N,/pc070_aida_hdmi_dp_single2/CONT\u002A*%
X89675000Y-107137000D03*
X90150000Y-101536500D03*
%TO.N,/pc070_aida_hdmi_dp_single2/CONT*%
X88525000Y-107687000D03*
X90975000Y-100812000D03*
%TO.N,/pc070_aida_hdmi_dp_single2/CLK\u002A*%
X96550000Y-100012500D03*
X95900000Y-108337000D03*
%TO.N,/pc070_aida_hdmi_dp_single2/CLK*%
X95307341Y-109219341D03*
X95100000Y-99512000D03*
%TO.N,/pc070_aida_hdmi_dp_single2/TRIG\u002A*%
X88775000Y-110862000D03*
X86775000Y-101762000D03*
%TO.N,/pc070_aida_hdmi_dp_single2/TRIG*%
X88462299Y-109824701D03*
X87525000Y-102737000D03*
%TO.N,GND*%
X87825000Y-101387000D03*
X90150000Y-100012000D03*
X94175000Y-100162000D03*
X91875000Y-103212000D03*
X96378614Y-107459541D03*
X90400000Y-107912500D03*
X89862106Y-109899894D03*
X94050000Y-103312000D03*
X81825000Y-78606000D03*
X81873021Y-81580647D03*
X81863782Y-83114593D03*
X81870174Y-84576648D03*
X81878041Y-86087536D03*
X101343316Y-77071648D03*
X101340978Y-78575010D03*
X101334707Y-80083789D03*
X101333441Y-81596477D03*
X101333027Y-84086087D03*
%TO.N,/pc070_aida_hdmi_dp_single1/BUSY*%
X94100000Y-81866500D03*
X94150000Y-83406000D03*
%TO.N,/pc070_aida_hdmi_dp_single1/SPARE*%
X92625000Y-84315511D03*
X91850000Y-81866500D03*
%TO.N,/pc070_aida_hdmi_dp_single1/SPARE\u002A*%
X90950000Y-81081000D03*
X91850000Y-85031000D03*
%TO.N,/pc070_aida_hdmi_dp_single1/CONT\u002A*%
X89675000Y-84531000D03*
X90150000Y-78930500D03*
%TO.N,/pc070_aida_hdmi_dp_single1/CONT*%
X88525000Y-85081000D03*
X90975000Y-78206000D03*
%TO.N,/pc070_aida_hdmi_dp_single1/CLK\u002A*%
X96550000Y-77406500D03*
X95900000Y-85731000D03*
%TO.N,/pc070_aida_hdmi_dp_single1/CLK*%
X95307341Y-86613341D03*
X95100000Y-76906000D03*
%TO.N,/pc070_aida_hdmi_dp_single1/TRIG\u002A*%
X88775000Y-88256000D03*
X86775000Y-79156000D03*
%TO.N,/pc070_aida_hdmi_dp_single1/TRIG*%
X88462299Y-87218701D03*
X87525000Y-80131000D03*
%TO.N,GND*%
X87825000Y-78781000D03*
X90150000Y-77406000D03*
X94175000Y-77556000D03*
X91875000Y-80606000D03*
X96378614Y-84853541D03*
X90400000Y-85306500D03*
X89862106Y-87293894D03*
X94050000Y-80706000D03*
X94050000Y-58100000D03*
X89862106Y-64687894D03*
X90400000Y-62700500D03*
X96378614Y-62247541D03*
X91875000Y-58000000D03*
X94175000Y-54950000D03*
X90150000Y-54800000D03*
X87825000Y-56175000D03*
%TO.N,/pc070_aida_hdmi_dp_single/TRIG*%
X87525000Y-57525000D03*
X88462299Y-64612701D03*
%TO.N,/pc070_aida_hdmi_dp_single/TRIG\u002A*%
X86775000Y-56550000D03*
X88775000Y-65650000D03*
%TO.N,/pc070_aida_hdmi_dp_single/CLK*%
X95100000Y-54300000D03*
X95307341Y-64007341D03*
%TO.N,/pc070_aida_hdmi_dp_single/CLK\u002A*%
X95900000Y-63125000D03*
X96550000Y-54800500D03*
%TO.N,/pc070_aida_hdmi_dp_single/CONT*%
X90975000Y-55600000D03*
X88525000Y-62475000D03*
%TO.N,/pc070_aida_hdmi_dp_single/CONT\u002A*%
X90150000Y-56324500D03*
X89675000Y-61925000D03*
%TO.N,/pc070_aida_hdmi_dp_single/SPARE\u002A*%
X91850000Y-62425000D03*
X90950000Y-58475000D03*
%TO.N,/pc070_aida_hdmi_dp_single/SPARE*%
X91850000Y-59260500D03*
X92625000Y-61709511D03*
%TO.N,/pc070_aida_hdmi_dp_single/BUSY*%
X94150000Y-60800000D03*
X94100000Y-59260500D03*
%TO.N,GND*%
X101333027Y-61480087D03*
X101333441Y-58990477D03*
X101334707Y-57477789D03*
X101340978Y-55969010D03*
X101343316Y-54465648D03*
X81878041Y-63481536D03*
X81870174Y-61970648D03*
X81863782Y-60508593D03*
X81873021Y-58974647D03*
X81825000Y-56000000D03*
%TD*%
D17*
%TO.N,/pc070_aida_hdmi_dp_single5/CONT\u002A*%
X89274520Y-125017980D02*
X90150000Y-124142500D01*
X89274520Y-129342520D02*
X89274520Y-125017980D01*
X89675000Y-129743000D02*
X89274520Y-129342520D01*
%TO.N,/pc070_aida_hdmi_dp_single5/CONT*%
X89849886Y-123418000D02*
X90975000Y-123418000D01*
X88825000Y-129993000D02*
X88825000Y-124831782D01*
X89425489Y-123842397D02*
X89849886Y-123418000D01*
X89425489Y-124231294D02*
X89425489Y-123842397D01*
X88825000Y-124831782D02*
X89425489Y-124231294D01*
X88525000Y-130293000D02*
X88825000Y-129993000D01*
%TO.N,/pc070_aida_hdmi_dp_single5/CLK\u002A*%
X95649500Y-122618500D02*
X96550000Y-122618500D01*
X95525000Y-122743000D02*
X95649500Y-122618500D01*
X95525000Y-130568000D02*
X95525000Y-122743000D01*
X95900000Y-130943000D02*
X95525000Y-130568000D01*
%TO.N,/pc070_aida_hdmi_dp_single5/TRIG*%
X87325000Y-131293402D02*
X88462299Y-132430701D01*
X87325000Y-125543000D02*
X87325000Y-131293402D01*
X87525000Y-125343000D02*
X87325000Y-125543000D01*
%TO.N,/pc070_aida_hdmi_dp_single5/TRIG\u002A*%
X86775000Y-124368000D02*
X86775000Y-131768000D01*
X86775000Y-131768000D02*
X88475000Y-133468000D01*
X88475000Y-133468000D02*
X88775000Y-133468000D01*
%TO.N,/pc070_aida_hdmi_dp_single5/SPARE\u002A*%
X91125000Y-129518000D02*
X91850000Y-130243000D01*
X91125000Y-126468000D02*
X91125000Y-129518000D01*
X90950000Y-126293000D02*
X91125000Y-126468000D01*
%TO.N,/pc070_aida_hdmi_dp_single5/SPARE*%
X91950489Y-129518489D02*
X92150103Y-129518489D01*
X92150103Y-129518489D02*
X92159125Y-129527511D01*
X91574520Y-127353980D02*
X91574520Y-129142520D01*
X91574520Y-129142520D02*
X91950489Y-129518489D01*
X92159125Y-129527511D02*
X92625000Y-129527511D01*
X91850000Y-127078500D02*
X91574520Y-127353980D01*
%TO.N,/pc070_aida_hdmi_dp_single5/CLK*%
X95025000Y-122193000D02*
X95100000Y-122118000D01*
X95307341Y-131825341D02*
X95025000Y-131543000D01*
X95025000Y-131543000D02*
X95025000Y-122193000D01*
%TO.N,/pc070_aida_hdmi_dp_single5/BUSY*%
X94100000Y-128568000D02*
X94100000Y-127078500D01*
X94150000Y-128618000D02*
X94100000Y-128568000D01*
%TO.N,/pc070_aida_hdmi_dp_single4/CONT\u002A*%
X89274520Y-147623980D02*
X90150000Y-146748500D01*
X89274520Y-151948520D02*
X89274520Y-147623980D01*
X89675000Y-152349000D02*
X89274520Y-151948520D01*
%TO.N,/pc070_aida_hdmi_dp_single4/CONT*%
X89849886Y-146024000D02*
X90975000Y-146024000D01*
X88825000Y-152599000D02*
X88825000Y-147437782D01*
X89425489Y-146448397D02*
X89849886Y-146024000D01*
X89425489Y-146837294D02*
X89425489Y-146448397D01*
X88825000Y-147437782D02*
X89425489Y-146837294D01*
X88525000Y-152899000D02*
X88825000Y-152599000D01*
%TO.N,/pc070_aida_hdmi_dp_single4/CLK\u002A*%
X95649500Y-145224500D02*
X96550000Y-145224500D01*
X95525000Y-145349000D02*
X95649500Y-145224500D01*
X95525000Y-153174000D02*
X95525000Y-145349000D01*
X95900000Y-153549000D02*
X95525000Y-153174000D01*
%TO.N,/pc070_aida_hdmi_dp_single4/TRIG*%
X87325000Y-153899402D02*
X88462299Y-155036701D01*
X87325000Y-148149000D02*
X87325000Y-153899402D01*
X87525000Y-147949000D02*
X87325000Y-148149000D01*
%TO.N,/pc070_aida_hdmi_dp_single4/TRIG\u002A*%
X86775000Y-146974000D02*
X86775000Y-154374000D01*
X86775000Y-154374000D02*
X88475000Y-156074000D01*
X88475000Y-156074000D02*
X88775000Y-156074000D01*
%TO.N,/pc070_aida_hdmi_dp_single4/SPARE\u002A*%
X91125000Y-152124000D02*
X91850000Y-152849000D01*
X91125000Y-149074000D02*
X91125000Y-152124000D01*
X90950000Y-148899000D02*
X91125000Y-149074000D01*
%TO.N,/pc070_aida_hdmi_dp_single4/SPARE*%
X91950489Y-152124489D02*
X92150103Y-152124489D01*
X92150103Y-152124489D02*
X92159125Y-152133511D01*
X91574520Y-149959980D02*
X91574520Y-151748520D01*
X91574520Y-151748520D02*
X91950489Y-152124489D01*
X92159125Y-152133511D02*
X92625000Y-152133511D01*
X91850000Y-149684500D02*
X91574520Y-149959980D01*
%TO.N,/pc070_aida_hdmi_dp_single4/CLK*%
X95025000Y-144799000D02*
X95100000Y-144724000D01*
X95307341Y-154431341D02*
X95025000Y-154149000D01*
X95025000Y-154149000D02*
X95025000Y-144799000D01*
%TO.N,/pc070_aida_hdmi_dp_single4/BUSY*%
X94100000Y-151174000D02*
X94100000Y-149684500D01*
X94150000Y-151224000D02*
X94100000Y-151174000D01*
%TO.N,/pc070_aida_hdmi_dp_single3/CONT\u002A*%
X89274520Y-170229980D02*
X90150000Y-169354500D01*
X89274520Y-174554520D02*
X89274520Y-170229980D01*
X89675000Y-174955000D02*
X89274520Y-174554520D01*
%TO.N,/pc070_aida_hdmi_dp_single3/CONT*%
X89849886Y-168630000D02*
X90975000Y-168630000D01*
X88825000Y-175205000D02*
X88825000Y-170043782D01*
X89425489Y-169054397D02*
X89849886Y-168630000D01*
X89425489Y-169443294D02*
X89425489Y-169054397D01*
X88825000Y-170043782D02*
X89425489Y-169443294D01*
X88525000Y-175505000D02*
X88825000Y-175205000D01*
%TO.N,/pc070_aida_hdmi_dp_single3/CLK\u002A*%
X95649500Y-167830500D02*
X96550000Y-167830500D01*
X95525000Y-167955000D02*
X95649500Y-167830500D01*
X95525000Y-175780000D02*
X95525000Y-167955000D01*
X95900000Y-176155000D02*
X95525000Y-175780000D01*
%TO.N,/pc070_aida_hdmi_dp_single3/TRIG*%
X87325000Y-176505402D02*
X88462299Y-177642701D01*
X87325000Y-170755000D02*
X87325000Y-176505402D01*
X87525000Y-170555000D02*
X87325000Y-170755000D01*
%TO.N,/pc070_aida_hdmi_dp_single3/TRIG\u002A*%
X86775000Y-169580000D02*
X86775000Y-176980000D01*
X86775000Y-176980000D02*
X88475000Y-178680000D01*
X88475000Y-178680000D02*
X88775000Y-178680000D01*
%TO.N,/pc070_aida_hdmi_dp_single3/SPARE\u002A*%
X91125000Y-174730000D02*
X91850000Y-175455000D01*
X91125000Y-171680000D02*
X91125000Y-174730000D01*
X90950000Y-171505000D02*
X91125000Y-171680000D01*
%TO.N,/pc070_aida_hdmi_dp_single3/SPARE*%
X91950489Y-174730489D02*
X92150103Y-174730489D01*
X92150103Y-174730489D02*
X92159125Y-174739511D01*
X91574520Y-172565980D02*
X91574520Y-174354520D01*
X91574520Y-174354520D02*
X91950489Y-174730489D01*
X92159125Y-174739511D02*
X92625000Y-174739511D01*
X91850000Y-172290500D02*
X91574520Y-172565980D01*
%TO.N,/pc070_aida_hdmi_dp_single3/CLK*%
X95025000Y-167405000D02*
X95100000Y-167330000D01*
X95307341Y-177037341D02*
X95025000Y-176755000D01*
X95025000Y-176755000D02*
X95025000Y-167405000D01*
%TO.N,/pc070_aida_hdmi_dp_single3/BUSY*%
X94100000Y-173780000D02*
X94100000Y-172290500D01*
X94150000Y-173830000D02*
X94100000Y-173780000D01*
%TO.N,/pc070_aida_hdmi_dp_single2/CONT\u002A*%
X89274520Y-102411980D02*
X90150000Y-101536500D01*
X89274520Y-106736520D02*
X89274520Y-102411980D01*
X89675000Y-107137000D02*
X89274520Y-106736520D01*
%TO.N,/pc070_aida_hdmi_dp_single2/CONT*%
X89849886Y-100812000D02*
X90975000Y-100812000D01*
X88825000Y-107387000D02*
X88825000Y-102225782D01*
X89425489Y-101236397D02*
X89849886Y-100812000D01*
X89425489Y-101625294D02*
X89425489Y-101236397D01*
X88825000Y-102225782D02*
X89425489Y-101625294D01*
X88525000Y-107687000D02*
X88825000Y-107387000D01*
%TO.N,/pc070_aida_hdmi_dp_single2/CLK\u002A*%
X95649500Y-100012500D02*
X96550000Y-100012500D01*
X95525000Y-100137000D02*
X95649500Y-100012500D01*
X95525000Y-107962000D02*
X95525000Y-100137000D01*
X95900000Y-108337000D02*
X95525000Y-107962000D01*
%TO.N,/pc070_aida_hdmi_dp_single2/TRIG*%
X87325000Y-108687402D02*
X88462299Y-109824701D01*
X87325000Y-102937000D02*
X87325000Y-108687402D01*
X87525000Y-102737000D02*
X87325000Y-102937000D01*
%TO.N,/pc070_aida_hdmi_dp_single2/TRIG\u002A*%
X86775000Y-101762000D02*
X86775000Y-109162000D01*
X86775000Y-109162000D02*
X88475000Y-110862000D01*
X88475000Y-110862000D02*
X88775000Y-110862000D01*
%TO.N,/pc070_aida_hdmi_dp_single2/SPARE\u002A*%
X91125000Y-106912000D02*
X91850000Y-107637000D01*
X91125000Y-103862000D02*
X91125000Y-106912000D01*
X90950000Y-103687000D02*
X91125000Y-103862000D01*
%TO.N,/pc070_aida_hdmi_dp_single2/SPARE*%
X91950489Y-106912489D02*
X92150103Y-106912489D01*
X92150103Y-106912489D02*
X92159125Y-106921511D01*
X91574520Y-104747980D02*
X91574520Y-106536520D01*
X91574520Y-106536520D02*
X91950489Y-106912489D01*
X92159125Y-106921511D02*
X92625000Y-106921511D01*
X91850000Y-104472500D02*
X91574520Y-104747980D01*
%TO.N,/pc070_aida_hdmi_dp_single2/CLK*%
X95025000Y-99587000D02*
X95100000Y-99512000D01*
X95307341Y-109219341D02*
X95025000Y-108937000D01*
X95025000Y-108937000D02*
X95025000Y-99587000D01*
%TO.N,/pc070_aida_hdmi_dp_single2/BUSY*%
X94100000Y-105962000D02*
X94100000Y-104472500D01*
X94150000Y-106012000D02*
X94100000Y-105962000D01*
%TO.N,/pc070_aida_hdmi_dp_single1/CONT\u002A*%
X89274520Y-79805980D02*
X90150000Y-78930500D01*
X89274520Y-84130520D02*
X89274520Y-79805980D01*
X89675000Y-84531000D02*
X89274520Y-84130520D01*
%TO.N,/pc070_aida_hdmi_dp_single1/CONT*%
X89849886Y-78206000D02*
X90975000Y-78206000D01*
X88825000Y-84781000D02*
X88825000Y-79619782D01*
X89425489Y-78630397D02*
X89849886Y-78206000D01*
X89425489Y-79019294D02*
X89425489Y-78630397D01*
X88825000Y-79619782D02*
X89425489Y-79019294D01*
X88525000Y-85081000D02*
X88825000Y-84781000D01*
%TO.N,/pc070_aida_hdmi_dp_single1/CLK\u002A*%
X95649500Y-77406500D02*
X96550000Y-77406500D01*
X95525000Y-77531000D02*
X95649500Y-77406500D01*
X95525000Y-85356000D02*
X95525000Y-77531000D01*
X95900000Y-85731000D02*
X95525000Y-85356000D01*
%TO.N,/pc070_aida_hdmi_dp_single1/TRIG*%
X87325000Y-86081402D02*
X88462299Y-87218701D01*
X87325000Y-80331000D02*
X87325000Y-86081402D01*
X87525000Y-80131000D02*
X87325000Y-80331000D01*
%TO.N,/pc070_aida_hdmi_dp_single1/TRIG\u002A*%
X86775000Y-79156000D02*
X86775000Y-86556000D01*
X86775000Y-86556000D02*
X88475000Y-88256000D01*
X88475000Y-88256000D02*
X88775000Y-88256000D01*
%TO.N,/pc070_aida_hdmi_dp_single1/SPARE\u002A*%
X91125000Y-84306000D02*
X91850000Y-85031000D01*
X91125000Y-81256000D02*
X91125000Y-84306000D01*
X90950000Y-81081000D02*
X91125000Y-81256000D01*
%TO.N,/pc070_aida_hdmi_dp_single1/SPARE*%
X91950489Y-84306489D02*
X92150103Y-84306489D01*
X92150103Y-84306489D02*
X92159125Y-84315511D01*
X91574520Y-82141980D02*
X91574520Y-83930520D01*
X91574520Y-83930520D02*
X91950489Y-84306489D01*
X92159125Y-84315511D02*
X92625000Y-84315511D01*
X91850000Y-81866500D02*
X91574520Y-82141980D01*
%TO.N,/pc070_aida_hdmi_dp_single1/CLK*%
X95025000Y-76981000D02*
X95100000Y-76906000D01*
X95307341Y-86613341D02*
X95025000Y-86331000D01*
X95025000Y-86331000D02*
X95025000Y-76981000D01*
%TO.N,/pc070_aida_hdmi_dp_single1/BUSY*%
X94100000Y-83356000D02*
X94100000Y-81866500D01*
X94150000Y-83406000D02*
X94100000Y-83356000D01*
%TO.N,/pc070_aida_hdmi_dp_single/BUSY*%
X94150000Y-60800000D02*
X94100000Y-60750000D01*
X94100000Y-60750000D02*
X94100000Y-59260500D01*
%TO.N,/pc070_aida_hdmi_dp_single/CLK*%
X95025000Y-63725000D02*
X95025000Y-54375000D01*
X95307341Y-64007341D02*
X95025000Y-63725000D01*
X95025000Y-54375000D02*
X95100000Y-54300000D01*
%TO.N,/pc070_aida_hdmi_dp_single/SPARE*%
X91850000Y-59260500D02*
X91574520Y-59535980D01*
X92159125Y-61709511D02*
X92625000Y-61709511D01*
X91574520Y-61324520D02*
X91950489Y-61700489D01*
X91574520Y-59535980D02*
X91574520Y-61324520D01*
X92150103Y-61700489D02*
X92159125Y-61709511D01*
X91950489Y-61700489D02*
X92150103Y-61700489D01*
%TO.N,/pc070_aida_hdmi_dp_single/SPARE\u002A*%
X90950000Y-58475000D02*
X91125000Y-58650000D01*
X91125000Y-58650000D02*
X91125000Y-61700000D01*
X91125000Y-61700000D02*
X91850000Y-62425000D01*
%TO.N,/pc070_aida_hdmi_dp_single/TRIG\u002A*%
X88475000Y-65650000D02*
X88775000Y-65650000D01*
X86775000Y-63950000D02*
X88475000Y-65650000D01*
X86775000Y-56550000D02*
X86775000Y-63950000D01*
%TO.N,/pc070_aida_hdmi_dp_single/TRIG*%
X87525000Y-57525000D02*
X87325000Y-57725000D01*
X87325000Y-57725000D02*
X87325000Y-63475402D01*
X87325000Y-63475402D02*
X88462299Y-64612701D01*
%TO.N,/pc070_aida_hdmi_dp_single/CLK\u002A*%
X95900000Y-63125000D02*
X95525000Y-62750000D01*
X95525000Y-62750000D02*
X95525000Y-54925000D01*
X95525000Y-54925000D02*
X95649500Y-54800500D01*
X95649500Y-54800500D02*
X96550000Y-54800500D01*
%TO.N,/pc070_aida_hdmi_dp_single/CONT*%
X88525000Y-62475000D02*
X88825000Y-62175000D01*
X88825000Y-57013782D02*
X89425489Y-56413294D01*
X89425489Y-56413294D02*
X89425489Y-56024397D01*
X89425489Y-56024397D02*
X89849886Y-55600000D01*
X88825000Y-62175000D02*
X88825000Y-57013782D01*
X89849886Y-55600000D02*
X90975000Y-55600000D01*
%TO.N,/pc070_aida_hdmi_dp_single/CONT\u002A*%
X89675000Y-61925000D02*
X89274520Y-61524520D01*
X89274520Y-61524520D02*
X89274520Y-57199980D01*
X89274520Y-57199980D02*
X90150000Y-56324500D01*
%TD*%
M02*
