%TF.GenerationSoftware,KiCad,Pcbnew,6.0.8-2.fc36*%
%TF.CreationDate,2022-10-20T17:48:42+01:00*%
%TF.ProjectId,pc070_aida_hdmi_dp,70633037-305f-4616-9964-615f68646d69,rev?*%
%TF.SameCoordinates,Original*%
%TF.FileFunction,Soldermask,Top*%
%TF.FilePolarity,Negative*%
%FSLAX46Y46*%
G04 Gerber Fmt 4.6, Leading zero omitted, Abs format (unit mm)*
G04 Created by KiCad (PCBNEW 6.0.8-2.fc36) date 2022-10-20 17:48:42*
%MOMM*%
%LPD*%
G01*
G04 APERTURE LIST*
%ADD10O,2.400000X1.400000*%
%ADD11O,2.800000X1.400000*%
%ADD12R,2.400000X0.280000*%
%ADD13C,1.400000*%
%ADD14R,1.000000X1.000000*%
%ADD15R,2.350000X0.280000*%
%ADD16O,3.200000X1.600000*%
%ADD17O,2.820000X1.410000*%
%ADD18C,3.600000*%
%ADD19C,5.600000*%
G04 APERTURE END LIST*
D10*
%TO.C,J1*%
X74180000Y-66735000D03*
X74180000Y-50235000D03*
D11*
X80960000Y-66735000D03*
X80960000Y-50235000D03*
D12*
X83560000Y-54485000D03*
X83560000Y-54985000D03*
X83560000Y-55485000D03*
X83560000Y-55985000D03*
X83560000Y-56485000D03*
X83560000Y-56985000D03*
X83560000Y-57485000D03*
X83560000Y-57985000D03*
X83560000Y-58485000D03*
X83560000Y-58985000D03*
X83560000Y-59485000D03*
X83560000Y-59985000D03*
X83560000Y-60485000D03*
X83560000Y-60985000D03*
X83560000Y-61485000D03*
X83560000Y-61985000D03*
X83560000Y-62485000D03*
X83560000Y-62985000D03*
X83560000Y-63485000D03*
X83560000Y-63985000D03*
D13*
X73280000Y-58485000D03*
%TD*%
D14*
%TO.C,TP53*%
X88850000Y-158574000D03*
%TD*%
%TO.C,TP68*%
X94100000Y-173430000D03*
%TD*%
%TO.C,TP16*%
X89850000Y-78006000D03*
%TD*%
%TO.C,TP43*%
X92100000Y-128218000D03*
%TD*%
%TO.C,TP46*%
X92100000Y-125718000D03*
%TD*%
D15*
%TO.C,J6*%
X99675000Y-99197000D03*
X99675000Y-99697000D03*
X99675000Y-100197000D03*
X99675000Y-100697000D03*
X99675000Y-101197000D03*
X99675000Y-101697000D03*
X99675000Y-102197000D03*
X99675000Y-102697000D03*
X99675000Y-103197000D03*
X99675000Y-103697000D03*
X99675000Y-104197000D03*
X99675000Y-104697000D03*
X99675000Y-105197000D03*
X99675000Y-105697000D03*
X99675000Y-106197000D03*
X99675000Y-106697000D03*
X99675000Y-107197000D03*
X99675000Y-107697000D03*
X99675000Y-108197000D03*
D16*
X100300000Y-110947000D03*
X100300000Y-96447000D03*
D17*
X106260000Y-110947000D03*
X106260000Y-96447000D03*
%TD*%
D14*
%TO.C,TP50*%
X88850000Y-156074000D03*
%TD*%
%TO.C,TP22*%
X92100000Y-80506000D03*
%TD*%
%TO.C,TP69*%
X90100000Y-170930000D03*
%TD*%
D18*
%TO.C,H3*%
X105000000Y-185000000D03*
D19*
X105000000Y-185000000D03*
%TD*%
D14*
%TO.C,TP21*%
X90100000Y-80506000D03*
%TD*%
%TO.C,TP62*%
X88850000Y-178680000D03*
%TD*%
D19*
%TO.C,H4*%
X75000000Y-185000000D03*
D18*
X75000000Y-185000000D03*
%TD*%
D14*
%TO.C,TP55*%
X92100000Y-150824000D03*
%TD*%
%TO.C,TP45*%
X90100000Y-125718000D03*
%TD*%
D15*
%TO.C,J8*%
X99675000Y-121803000D03*
X99675000Y-122303000D03*
X99675000Y-122803000D03*
X99675000Y-123303000D03*
X99675000Y-123803000D03*
X99675000Y-124303000D03*
X99675000Y-124803000D03*
X99675000Y-125303000D03*
X99675000Y-125803000D03*
X99675000Y-126303000D03*
X99675000Y-126803000D03*
X99675000Y-127303000D03*
X99675000Y-127803000D03*
X99675000Y-128303000D03*
X99675000Y-128803000D03*
X99675000Y-129303000D03*
X99675000Y-129803000D03*
X99675000Y-130303000D03*
X99675000Y-130803000D03*
D16*
X100300000Y-133553000D03*
X100300000Y-119053000D03*
D17*
X106260000Y-133553000D03*
X106260000Y-119053000D03*
%TD*%
D13*
%TO.C,J7*%
X73280000Y-126303000D03*
D12*
X83560000Y-131803000D03*
X83560000Y-131303000D03*
X83560000Y-130803000D03*
X83560000Y-130303000D03*
X83560000Y-129803000D03*
X83560000Y-129303000D03*
X83560000Y-128803000D03*
X83560000Y-128303000D03*
X83560000Y-127803000D03*
X83560000Y-127303000D03*
X83560000Y-126803000D03*
X83560000Y-126303000D03*
X83560000Y-125803000D03*
X83560000Y-125303000D03*
X83560000Y-124803000D03*
X83560000Y-124303000D03*
X83560000Y-123803000D03*
X83560000Y-123303000D03*
X83560000Y-122803000D03*
X83560000Y-122303000D03*
D11*
X80960000Y-118053000D03*
X80960000Y-134553000D03*
D10*
X74180000Y-118053000D03*
X74180000Y-134553000D03*
%TD*%
D14*
%TO.C,TP26*%
X88850000Y-110862000D03*
%TD*%
%TO.C,TP7*%
X92100000Y-60400000D03*
%TD*%
%TO.C,TP33*%
X90100000Y-103112000D03*
%TD*%
%TO.C,TP12*%
X94100000Y-62900000D03*
%TD*%
%TO.C,TP29*%
X88850000Y-113362000D03*
%TD*%
%TO.C,TP10*%
X92100000Y-57900000D03*
%TD*%
%TO.C,TP59*%
X92100000Y-153324000D03*
%TD*%
%TO.C,TP57*%
X90100000Y-148324000D03*
%TD*%
%TO.C,TP34*%
X92100000Y-103112000D03*
%TD*%
%TO.C,TP23*%
X92100000Y-85506000D03*
%TD*%
%TO.C,TP30*%
X88850000Y-115362000D03*
%TD*%
%TO.C,TP66*%
X88850000Y-183180000D03*
%TD*%
D15*
%TO.C,J2*%
X99675000Y-53985000D03*
X99675000Y-54485000D03*
X99675000Y-54985000D03*
X99675000Y-55485000D03*
X99675000Y-55985000D03*
X99675000Y-56485000D03*
X99675000Y-56985000D03*
X99675000Y-57485000D03*
X99675000Y-57985000D03*
X99675000Y-58485000D03*
X99675000Y-58985000D03*
X99675000Y-59485000D03*
X99675000Y-59985000D03*
X99675000Y-60485000D03*
X99675000Y-60985000D03*
X99675000Y-61485000D03*
X99675000Y-61985000D03*
X99675000Y-62485000D03*
X99675000Y-62985000D03*
D16*
X100300000Y-65735000D03*
X100300000Y-51235000D03*
D17*
X106260000Y-65735000D03*
X106260000Y-51235000D03*
%TD*%
D14*
%TO.C,TP2*%
X88850000Y-65650000D03*
%TD*%
%TO.C,TP65*%
X88850000Y-181180000D03*
%TD*%
%TO.C,TP60*%
X94100000Y-153324000D03*
%TD*%
D18*
%TO.C,H2*%
X105000000Y-45000000D03*
D19*
X105000000Y-45000000D03*
%TD*%
D14*
%TO.C,TP11*%
X92100000Y-62900000D03*
%TD*%
%TO.C,TP28*%
X89850000Y-100612000D03*
%TD*%
%TO.C,TP8*%
X94100000Y-60400000D03*
%TD*%
%TO.C,TP64*%
X89850000Y-168430000D03*
%TD*%
%TO.C,TP56*%
X94100000Y-150824000D03*
%TD*%
%TO.C,TP47*%
X92100000Y-130718000D03*
%TD*%
%TO.C,TP9*%
X90100000Y-57900000D03*
%TD*%
%TO.C,TP37*%
X91100000Y-119968000D03*
%TD*%
%TO.C,TP52*%
X89850000Y-145824000D03*
%TD*%
%TO.C,TP25*%
X91100000Y-97362000D03*
%TD*%
D13*
%TO.C,J9*%
X73280000Y-148909000D03*
D12*
X83560000Y-154409000D03*
X83560000Y-153909000D03*
X83560000Y-153409000D03*
X83560000Y-152909000D03*
X83560000Y-152409000D03*
X83560000Y-151909000D03*
X83560000Y-151409000D03*
X83560000Y-150909000D03*
X83560000Y-150409000D03*
X83560000Y-149909000D03*
X83560000Y-149409000D03*
X83560000Y-148909000D03*
X83560000Y-148409000D03*
X83560000Y-147909000D03*
X83560000Y-147409000D03*
X83560000Y-146909000D03*
X83560000Y-146409000D03*
X83560000Y-145909000D03*
X83560000Y-145409000D03*
X83560000Y-144909000D03*
D11*
X80960000Y-140659000D03*
X80960000Y-157159000D03*
D10*
X74180000Y-140659000D03*
X74180000Y-157159000D03*
%TD*%
D14*
%TO.C,TP31*%
X92100000Y-105612000D03*
%TD*%
%TO.C,TP14*%
X88850000Y-88256000D03*
%TD*%
%TO.C,TP58*%
X92100000Y-148324000D03*
%TD*%
%TO.C,TP32*%
X94100000Y-105612000D03*
%TD*%
%TO.C,TP5*%
X88850000Y-68150000D03*
%TD*%
%TO.C,TP63*%
X87850000Y-168430000D03*
%TD*%
%TO.C,TP24*%
X94100000Y-85506000D03*
%TD*%
%TO.C,TP27*%
X87850000Y-100612000D03*
%TD*%
%TO.C,TP6*%
X88850000Y-70150000D03*
%TD*%
%TO.C,TP48*%
X94100000Y-130718000D03*
%TD*%
%TO.C,TP72*%
X94100000Y-175930000D03*
%TD*%
%TO.C,TP17*%
X88850000Y-90756000D03*
%TD*%
%TO.C,TP67*%
X92100000Y-173430000D03*
%TD*%
%TO.C,TP38*%
X88850000Y-133468000D03*
%TD*%
D18*
%TO.C,H1*%
X75000000Y-45000000D03*
D19*
X75000000Y-45000000D03*
%TD*%
D15*
%TO.C,J4*%
X99675000Y-76591000D03*
X99675000Y-77091000D03*
X99675000Y-77591000D03*
X99675000Y-78091000D03*
X99675000Y-78591000D03*
X99675000Y-79091000D03*
X99675000Y-79591000D03*
X99675000Y-80091000D03*
X99675000Y-80591000D03*
X99675000Y-81091000D03*
X99675000Y-81591000D03*
X99675000Y-82091000D03*
X99675000Y-82591000D03*
X99675000Y-83091000D03*
X99675000Y-83591000D03*
X99675000Y-84091000D03*
X99675000Y-84591000D03*
X99675000Y-85091000D03*
X99675000Y-85591000D03*
D16*
X100300000Y-88341000D03*
X100300000Y-73841000D03*
D17*
X106260000Y-88341000D03*
X106260000Y-73841000D03*
%TD*%
D14*
%TO.C,TP40*%
X89850000Y-123218000D03*
%TD*%
D15*
%TO.C,J10*%
X99675000Y-144409000D03*
X99675000Y-144909000D03*
X99675000Y-145409000D03*
X99675000Y-145909000D03*
X99675000Y-146409000D03*
X99675000Y-146909000D03*
X99675000Y-147409000D03*
X99675000Y-147909000D03*
X99675000Y-148409000D03*
X99675000Y-148909000D03*
X99675000Y-149409000D03*
X99675000Y-149909000D03*
X99675000Y-150409000D03*
X99675000Y-150909000D03*
X99675000Y-151409000D03*
X99675000Y-151909000D03*
X99675000Y-152409000D03*
X99675000Y-152909000D03*
X99675000Y-153409000D03*
D16*
X100300000Y-156159000D03*
X100300000Y-141659000D03*
D17*
X106260000Y-156159000D03*
X106260000Y-141659000D03*
%TD*%
D14*
%TO.C,TP36*%
X94100000Y-108112000D03*
%TD*%
D15*
%TO.C,J12*%
X99675000Y-167015000D03*
X99675000Y-167515000D03*
X99675000Y-168015000D03*
X99675000Y-168515000D03*
X99675000Y-169015000D03*
X99675000Y-169515000D03*
X99675000Y-170015000D03*
X99675000Y-170515000D03*
X99675000Y-171015000D03*
X99675000Y-171515000D03*
X99675000Y-172015000D03*
X99675000Y-172515000D03*
X99675000Y-173015000D03*
X99675000Y-173515000D03*
X99675000Y-174015000D03*
X99675000Y-174515000D03*
X99675000Y-175015000D03*
X99675000Y-175515000D03*
X99675000Y-176015000D03*
D16*
X100300000Y-178765000D03*
X100300000Y-164265000D03*
D17*
X106260000Y-178765000D03*
X106260000Y-164265000D03*
%TD*%
D14*
%TO.C,TP1*%
X91100000Y-52150000D03*
%TD*%
%TO.C,TP41*%
X88850000Y-135968000D03*
%TD*%
D13*
%TO.C,J3*%
X73280000Y-81091000D03*
D12*
X83560000Y-86591000D03*
X83560000Y-86091000D03*
X83560000Y-85591000D03*
X83560000Y-85091000D03*
X83560000Y-84591000D03*
X83560000Y-84091000D03*
X83560000Y-83591000D03*
X83560000Y-83091000D03*
X83560000Y-82591000D03*
X83560000Y-82091000D03*
X83560000Y-81591000D03*
X83560000Y-81091000D03*
X83560000Y-80591000D03*
X83560000Y-80091000D03*
X83560000Y-79591000D03*
X83560000Y-79091000D03*
X83560000Y-78591000D03*
X83560000Y-78091000D03*
X83560000Y-77591000D03*
X83560000Y-77091000D03*
D11*
X80960000Y-72841000D03*
X80960000Y-89341000D03*
D10*
X74180000Y-72841000D03*
X74180000Y-89341000D03*
%TD*%
D14*
%TO.C,TP18*%
X88850000Y-92756000D03*
%TD*%
%TO.C,TP49*%
X91100000Y-142574000D03*
%TD*%
%TO.C,TP70*%
X92100000Y-170930000D03*
%TD*%
%TO.C,TP71*%
X92100000Y-175930000D03*
%TD*%
D13*
%TO.C,J5*%
X73280000Y-103697000D03*
D12*
X83560000Y-109197000D03*
X83560000Y-108697000D03*
X83560000Y-108197000D03*
X83560000Y-107697000D03*
X83560000Y-107197000D03*
X83560000Y-106697000D03*
X83560000Y-106197000D03*
X83560000Y-105697000D03*
X83560000Y-105197000D03*
X83560000Y-104697000D03*
X83560000Y-104197000D03*
X83560000Y-103697000D03*
X83560000Y-103197000D03*
X83560000Y-102697000D03*
X83560000Y-102197000D03*
X83560000Y-101697000D03*
X83560000Y-101197000D03*
X83560000Y-100697000D03*
X83560000Y-100197000D03*
X83560000Y-99697000D03*
D11*
X80960000Y-95447000D03*
X80960000Y-111947000D03*
D10*
X74180000Y-95447000D03*
X74180000Y-111947000D03*
%TD*%
D14*
%TO.C,TP39*%
X87850000Y-123218000D03*
%TD*%
D13*
%TO.C,J11*%
X73280000Y-171515000D03*
D12*
X83560000Y-177015000D03*
X83560000Y-176515000D03*
X83560000Y-176015000D03*
X83560000Y-175515000D03*
X83560000Y-175015000D03*
X83560000Y-174515000D03*
X83560000Y-174015000D03*
X83560000Y-173515000D03*
X83560000Y-173015000D03*
X83560000Y-172515000D03*
X83560000Y-172015000D03*
X83560000Y-171515000D03*
X83560000Y-171015000D03*
X83560000Y-170515000D03*
X83560000Y-170015000D03*
X83560000Y-169515000D03*
X83560000Y-169015000D03*
X83560000Y-168515000D03*
X83560000Y-168015000D03*
X83560000Y-167515000D03*
D11*
X80960000Y-163265000D03*
X80960000Y-179765000D03*
D10*
X74180000Y-163265000D03*
X74180000Y-179765000D03*
%TD*%
D14*
%TO.C,TP54*%
X88850000Y-160574000D03*
%TD*%
%TO.C,TP15*%
X87850000Y-78006000D03*
%TD*%
%TO.C,TP20*%
X94100000Y-83006000D03*
%TD*%
%TO.C,TP42*%
X88850000Y-137968000D03*
%TD*%
%TO.C,TP61*%
X91100000Y-165180000D03*
%TD*%
%TO.C,TP4*%
X89850000Y-55400000D03*
%TD*%
%TO.C,TP44*%
X94100000Y-128218000D03*
%TD*%
%TO.C,TP35*%
X92100000Y-108112000D03*
%TD*%
%TO.C,TP3*%
X87850000Y-55400000D03*
%TD*%
%TO.C,TP19*%
X92100000Y-83006000D03*
%TD*%
%TO.C,TP51*%
X87850000Y-145824000D03*
%TD*%
%TO.C,TP13*%
X91100000Y-74756000D03*
%TD*%
M02*
